<svg width="25" height="51" viewBox="0 0 25 51" fill="none" xmlns="http://www.w3.org/2000/svg">
<path fill-rule="evenodd" clip-rule="evenodd" d="M16.7859 50.992C15.1615 50.992 13.6512 50.7931 12.2672 50.3991C10.8798 50.0099 9.67831 49.3611 8.66459 48.4848C7.64881 47.599 6.86226 46.4315 6.32095 44.9831C5.77471 43.5334 5.50078 41.7299 5.50078 39.5609V19.0744H0.56543V11.4075H5.50078V0.719849H14.4968V11.4075H24.9666V19.0744H14.4968V38.1671C14.4968 39.8861 14.9118 41.1258 15.7529 41.8869C16.5858 42.6476 17.768 43.0307 19.2882 43.0307C21.2041 43.0307 23.0479 42.5853 24.8161 41.7024V48.999C23.6884 49.6367 22.4824 50.1284 21.2041 50.4745C19.9255 50.8206 18.452 50.992 16.7859 50.992Z" fill="#BFBEBE"/>
</svg>
