<svg width="148" height="123" viewBox="0 0 148 123" fill="none" xmlns="http://www.w3.org/2000/svg">
<g clip-path="url(#clip0)">
<path d="M110.357 25.7521H94.0251V49.4206H110.357V25.7521Z" fill="#E0E0E0"/>
<path d="M109.512 25.7526H93.1794V49.421H109.512V25.7526Z" fill="#F5F5F5"/>
<path d="M107.495 28.3246H95.2296V46.8492H107.495V28.3246Z" fill="white"/>
<path d="M107.494 46.8487C107.494 46.8487 107.494 46.8162 107.494 46.7511C107.494 46.686 107.494 46.5883 107.494 46.4906C107.494 46.2627 107.494 45.9046 107.494 45.4814C107.494 44.6024 107.494 43.3001 107.494 41.6723C107.494 38.4167 107.494 33.7611 107.462 28.3242L107.494 28.3567C103.753 28.3567 99.5885 28.3567 95.2289 28.3567L95.2614 28.3242C95.2614 35.3238 95.2614 41.77 95.2614 46.8487L95.2289 46.8162C98.9704 46.8162 102.029 46.8162 104.143 46.8487C105.217 46.8487 106.03 46.8487 106.616 46.8487C106.909 46.8487 107.104 46.8487 107.267 46.8487C107.397 46.8487 107.494 46.8487 107.494 46.8487C107.494 46.8487 107.429 46.8487 107.267 46.8487C107.104 46.8487 106.909 46.8487 106.616 46.8487C106.063 46.8487 105.217 46.8487 104.143 46.8487C101.996 46.8487 98.9378 46.8488 95.1963 46.8813H95.1638V46.8487C95.1638 41.7374 95.1638 35.2912 95.1638 28.3242V28.2916H95.1963C99.556 28.2916 103.72 28.2916 107.462 28.2916H107.494V28.3242C107.494 33.7937 107.494 38.4167 107.462 41.7048C107.462 43.3327 107.462 44.6349 107.462 45.5139C107.462 45.9372 107.462 46.2953 107.462 46.5232C107.462 46.6209 107.462 46.7185 107.462 46.7836C107.494 46.8162 107.494 46.8487 107.494 46.8487Z" fill="#E0E0E0"/>
<path d="M109.544 25.7521C109.544 25.7521 109.446 25.9149 109.251 26.1753C109.056 26.4358 108.796 26.7613 108.47 27.152C108.178 27.5101 107.885 27.8682 107.657 28.0961C107.429 28.324 107.299 28.4868 107.299 28.4543C107.299 28.4543 107.397 28.2915 107.624 28.031C107.852 27.7706 108.113 27.445 108.405 27.0869C108.698 26.7288 108.958 26.4032 109.186 26.1428C109.414 25.8823 109.544 25.7521 109.544 25.7521Z" fill="#E0E0E0"/>
<path d="M107.56 46.7836C108.178 47.7603 108.894 48.6393 109.707 49.4532L107.56 46.7836Z" fill="white"/>
<path d="M109.674 49.4866C109.674 49.4866 109.512 49.3563 109.316 49.161C109.089 48.9331 108.796 48.6075 108.503 48.2494C108.21 47.8913 107.95 47.5332 107.787 47.2727C107.625 47.0123 107.527 46.8495 107.527 46.8495C107.527 46.8495 107.657 47.0123 107.82 47.2402C108.015 47.5006 108.243 47.8262 108.536 48.2169C108.828 48.575 109.121 48.9005 109.316 49.1284C109.577 49.3238 109.707 49.454 109.674 49.4866Z" fill="#E0E0E0"/>
<path d="M93.1802 49.3882C93.896 48.5091 94.6118 47.6301 95.3275 46.7511L93.1802 49.3882Z" fill="white"/>
<path d="M94.2923 48.1096C94.8806 47.3832 95.3463 46.7851 95.3323 46.7738C95.3184 46.7625 94.8301 47.3422 94.2417 48.0686C93.6534 48.7949 93.1877 49.393 93.2017 49.4043C93.2156 49.4156 93.7039 48.8359 94.2923 48.1096Z" fill="#E0E0E0"/>
<path d="M94.2322 27.0098C93.6749 26.3047 93.2117 25.7422 93.1976 25.7533C93.1836 25.7645 93.6239 26.3451 94.1812 27.0502C94.7385 27.7553 95.2017 28.3179 95.2158 28.3067C95.2299 28.2956 94.7895 27.7149 94.2322 27.0098Z" fill="#E0E0E0"/>
<path d="M103.655 32.0681H99.556V43.7233H103.655V32.0681Z" fill="#E0E0E0"/>
<path d="M77.888 91.9718C76.3914 92.3951 75.1876 93.5997 74.4718 94.967C73.7561 96.367 73.5283 97.9297 73.4958 99.4924C73.4633 102.52 74.7647 105.711 76.2938 108.348C79.0592 106.492 80.1329 102.748 80.5558 100.795C81.174 97.7669 80.5233 91.8416 77.888 91.9718Z" fill="#F5F5F5"/>
<path d="M72.715 112.873C73.3332 111.245 72.8777 109.324 71.7064 107.99C70.5677 106.687 68.8109 105.971 67.0865 105.874C66.2732 105.841 65.3947 105.971 64.8416 106.557C64.3536 107.111 64.2885 107.99 64.5488 108.673C64.8091 109.39 65.3622 109.943 65.9153 110.431C67.965 112.092 70.1773 113.296 72.715 112.873Z" fill="#F5F5F5"/>
<path d="M74.8298 120.133C74.8623 120.133 74.8623 119.384 74.7322 118.147C74.6671 117.529 74.5044 116.78 74.2441 116.031C73.9839 115.25 73.6911 114.403 73.2356 113.557C72.3897 111.864 71.1534 110.561 70.1448 109.878C69.6242 109.52 69.1687 109.324 68.8434 109.162C68.5181 109.031 68.3228 108.999 68.3228 108.999C68.2903 109.064 69.0061 109.324 69.9821 110.041C70.9582 110.757 72.0969 112.027 72.9102 113.687C73.3332 114.501 73.626 115.347 73.9188 116.096C74.2116 116.845 74.3743 117.529 74.4719 118.147C74.6671 119.384 74.7647 120.166 74.8298 120.133Z" fill="#E0E0E0"/>
<path d="M77.9856 96.5298C77.953 96.5298 77.888 96.8879 77.7578 97.5065C77.6277 98.1576 77.465 99.0692 77.2698 100.209C76.8794 102.488 76.3588 105.646 75.9033 109.162C75.4153 112.678 75.09 115.868 74.8948 118.18C74.7972 119.352 74.7321 120.263 74.6996 120.915C74.667 121.566 74.667 121.924 74.667 121.924C74.6996 121.924 74.7321 121.566 74.8297 120.915C74.8948 120.198 75.0249 119.287 75.1225 118.18C75.3828 115.868 75.7407 112.71 76.2287 109.194C76.7167 105.711 77.1722 102.585 77.4975 100.241C77.6602 99.1343 77.7904 98.2227 77.888 97.5065C77.953 96.8879 77.9856 96.5298 77.9856 96.5298Z" fill="#E0E0E0"/>
<path d="M76.3589 114.501C77.8555 111.148 81.0764 108.608 84.6878 107.957C85.5988 107.794 86.7375 107.827 87.258 108.608C87.7786 109.39 87.3231 110.431 86.77 111.213C84.4601 114.338 80.1329 115.836 76.3915 114.761" fill="#F5F5F5"/>
<path d="M83.4189 110.399C83.4189 110.366 83.2237 110.431 82.8983 110.496C82.573 110.594 82.1175 110.757 81.5319 110.952C80.3932 111.408 78.8315 112.092 77.4325 113.361C76.7493 114.012 76.1962 114.729 75.8058 115.445C75.4154 116.161 75.1876 116.877 75.0575 117.463C74.9274 118.082 74.8623 118.57 74.8623 118.896C74.8623 119.254 74.8623 119.417 74.8948 119.417C74.9599 119.417 74.9924 118.668 75.2853 117.496C75.4479 116.91 75.6757 116.259 76.0661 115.575C76.4565 114.891 76.9771 114.208 77.6603 113.589C78.9942 112.352 80.5233 111.636 81.6295 111.147C82.7357 110.692 83.4189 110.431 83.4189 110.399Z" fill="#E0E0E0"/>
<path d="M139.866 34.9005C139.866 34.9005 136.45 33.8913 135.084 41.7374C133.717 49.5835 133.587 53.9135 133.587 53.9135C133.587 53.9135 133.099 55.6064 131.863 54.9878C130.594 54.3692 128.447 52.1229 126.95 53.0996C125.388 54.1088 125.388 56.225 126.592 58.9271C127.796 61.6619 130.171 67.7174 130.399 68.2708C130.594 68.8243 130.529 69.7359 129.618 69.4429C128.674 69.1498 122.786 65.6012 121.257 68.4987C119.727 71.3962 124.315 78.461 124.803 79.2423C125.291 80.0237 125.226 80.4469 124.9 80.7725C124.575 81.098 122.688 79.7307 120.964 78.7865C119.239 77.8424 117.092 77.061 116.344 78.7865C115.596 80.5446 116.995 86.4373 125.388 94.1531L129.52 97.4739L134.498 95.6507C144.942 91.0603 148.163 85.9489 148.033 84.0281C147.902 82.1398 145.592 82.1724 143.673 82.498C141.721 82.8235 139.509 83.5398 139.313 83.1165C139.086 82.6933 139.183 82.2701 139.899 81.7166C140.615 81.1306 147.219 75.9541 146.731 72.6985C146.243 69.4429 139.476 70.9079 138.5 70.8753C137.524 70.8428 137.752 69.9638 138.142 69.5405C138.532 69.0847 142.762 64.1362 144.747 61.9549C146.764 59.7736 147.447 57.7877 146.308 56.3226C145.202 54.8902 142.437 56.3226 141.038 56.4854C139.639 56.6807 139.736 54.9227 139.736 54.9227C139.736 54.9227 141.038 50.788 142.274 42.942C143.51 35.0633 139.866 34.9331 139.866 34.9331" fill="#F5F5F5"/>
<path d="M138.63 41.9326C138.63 41.9326 138.63 41.9977 138.597 42.0954C138.597 42.2256 138.565 42.3884 138.532 42.5837C138.467 43.007 138.37 43.6581 138.24 44.4395C138.012 46.0673 137.621 48.4113 137.166 51.2763C136.222 57.0388 134.889 65.0151 133.359 73.8379C131.83 82.6281 130.464 90.6044 129.488 96.3669C129 99.2318 128.609 101.576 128.349 103.204C128.219 104.018 128.121 104.636 128.024 105.059C127.991 105.255 127.959 105.418 127.926 105.548C127.894 105.645 127.894 105.711 127.894 105.711C127.894 105.711 127.894 105.645 127.926 105.548C127.959 105.418 127.959 105.255 127.991 105.059C128.056 104.636 128.154 103.985 128.284 103.204C128.512 101.576 128.902 99.2318 129.358 96.3669C130.301 90.6044 131.635 82.6281 133.164 73.8053C134.693 65.0151 136.06 57.0388 137.036 51.2763C137.524 48.4113 137.914 46.0673 138.175 44.4395C138.305 43.6255 138.402 43.007 138.5 42.5837C138.532 42.3884 138.565 42.2256 138.597 42.0954C138.63 41.9977 138.63 41.9326 138.63 41.9326Z" fill="#E0E0E0"/>
<path d="M129.813 56.3551C129.813 56.3551 129.911 56.4528 130.041 56.6481C130.171 56.8434 130.366 57.1365 130.626 57.5271C131.114 58.2759 131.733 59.3177 132.416 60.4572C133.067 61.5967 133.685 62.6385 134.14 63.4198C134.335 63.778 134.531 64.071 134.661 64.3314C134.791 64.5268 134.856 64.657 134.823 64.657C134.823 64.657 134.726 64.5593 134.596 64.364C134.466 64.1686 134.27 63.8756 134.01 63.485C133.555 62.7362 132.904 61.6943 132.253 60.5549C131.57 59.4154 130.984 58.4062 130.496 57.5922C130.301 57.2341 130.106 56.9411 129.976 56.7132C129.878 56.4853 129.813 56.3551 129.813 56.3551Z" fill="#E0E0E0"/>
<path d="M139.971 61.4718C137.381 63.1594 135.305 64.5642 135.334 64.6094C135.364 64.6546 137.487 63.3231 140.077 61.6355C142.667 59.9478 144.743 58.5431 144.713 58.4979C144.684 58.4527 142.56 59.7841 139.971 61.4718Z" fill="#E0E0E0"/>
<path d="M132.383 78.0051C132.383 78.0051 132.513 77.94 132.741 77.8749C133.034 77.7772 133.359 77.6796 133.75 77.5493C134.596 77.2889 135.799 76.9308 137.068 76.475C138.37 76.0192 139.508 75.5959 140.354 75.2378C140.745 75.075 141.07 74.9448 141.33 74.8471C141.558 74.7495 141.688 74.7169 141.688 74.7169C141.688 74.7169 141.558 74.782 141.33 74.9123C141.103 75.0099 140.777 75.1727 140.354 75.368C139.541 75.7262 138.37 76.182 137.068 76.6377C135.767 77.0935 134.596 77.4517 133.717 77.6796C133.294 77.8098 132.936 77.8749 132.676 77.94C132.546 78.0051 132.383 78.0377 132.383 78.0051Z" fill="#E0E0E0"/>
<path d="M125.746 71.6566C125.746 71.6566 125.844 71.7217 126.039 71.8845C126.202 72.0473 126.462 72.2426 126.787 72.5356C127.405 73.0891 128.251 73.8704 129.162 74.7169C130.073 75.5959 130.919 76.3773 131.505 76.9633C131.798 77.2563 132.025 77.4842 132.188 77.647C132.351 77.8098 132.448 77.9074 132.416 77.9074C132.416 77.9074 132.318 77.8423 132.123 77.6795C131.96 77.5168 131.7 77.3214 131.375 77.0284C130.757 76.475 129.911 75.6936 129 74.8471C128.089 73.9681 127.243 73.1868 126.657 72.6007C126.364 72.3077 126.137 72.0798 125.974 71.9171C125.844 71.7543 125.746 71.6566 125.746 71.6566Z" fill="#E0E0E0"/>
<path d="M121.647 83.149C121.647 83.149 121.777 83.2467 122.005 83.4421C122.265 83.6699 122.558 83.9304 122.948 84.256C123.729 84.9722 124.835 85.9489 126.039 87.0558C127.243 88.1627 128.316 89.1394 129.065 89.8882C129.423 90.2464 129.748 90.5394 129.976 90.7672C130.203 90.9626 130.301 91.0928 130.301 91.0928C130.301 91.0928 130.171 90.9951 129.943 90.7998C129.683 90.5719 129.39 90.3115 129 89.9859C128.219 89.2697 127.113 88.293 125.909 87.186C124.705 86.0791 123.631 85.1024 122.883 84.3536C122.525 83.9955 122.2 83.7025 121.972 83.4746C121.744 83.2793 121.647 83.149 121.647 83.149Z" fill="#E0E0E0"/>
<path d="M130.138 90.8323C130.138 90.8323 130.301 90.7672 130.594 90.6369C130.919 90.5067 131.342 90.3765 131.863 90.2137C132.936 89.8556 134.433 89.3347 136.027 88.7161C137.654 88.0976 139.118 87.5115 140.159 87.0558C140.647 86.8604 141.07 86.6651 141.395 86.5348C141.688 86.4046 141.851 86.3395 141.851 86.3721C141.851 86.3721 141.688 86.4697 141.428 86.6C141.135 86.7302 140.712 86.9255 140.192 87.1534C139.151 87.6092 137.719 88.2278 136.092 88.8463C134.466 89.4649 132.969 89.9533 131.895 90.3114C131.342 90.4742 130.919 90.6044 130.594 90.7021C130.334 90.8323 130.138 90.8648 130.138 90.8323Z" fill="#E0E0E0"/>
<path d="M25.4422 104.441C32.9577 100.143 35.3978 91.1253 35.8532 82.8886C35.9183 81.5212 36.2111 80.0887 35.658 78.819C35.1049 77.5493 33.6734 76.6052 32.372 77.061C31.2984 77.4517 30.7453 78.5911 30.0946 79.5353C29.2162 80.7724 27.9799 81.7491 26.5809 82.3026C25.6699 82.6607 24.5637 82.856 23.7504 82.3026C22.6117 81.5538 22.6442 79.8934 22.7743 78.526C23.0346 75.9866 23.2623 73.4472 23.5226 70.8753C23.6528 69.5079 23.7829 68.108 23.4901 66.7732C23.1973 65.4384 22.3514 64.1361 21.0825 63.6478C19.8137 63.1594 18.1544 63.778 17.7315 65.0802C17.5688 65.6337 17.6339 66.2197 17.5363 66.7732C17.4386 67.3266 17.1133 67.9452 16.5602 68.0429C16.0071 68.1405 15.4866 67.7173 15.1287 67.2941C13.8598 65.7965 13.0465 63.9082 12.3307 62.0525C11.5824 60.1968 10.8992 58.3085 9.76047 56.6807C8.62176 55.0529 6.9625 53.7181 5.01042 53.4251C3.05834 53.1321 0.878521 54.1413 0.195294 56.0296C-0.487934 57.9178 0.45557 59.9689 1.56175 61.6293C3.15594 64.1036 5.10802 66.3499 7.35291 68.2708C7.74333 68.6289 8.19881 68.987 8.29642 69.5079C8.52416 70.452 7.54812 71.266 6.63715 71.4938C5.59604 71.7543 4.48986 71.5264 3.41622 71.559C2.34258 71.5915 1.1388 71.9496 0.650778 72.9263C-0.0324488 74.2611 1.00866 75.8564 2.04977 76.8982C4.16452 79.0144 6.66968 80.7724 9.37006 82.0747C10.3461 82.5305 11.3547 82.9537 12.103 83.735C12.8513 84.5164 13.2091 85.7861 12.6561 86.6977C12.0704 87.6092 10.8016 87.8046 9.76047 87.5116C8.71937 87.2186 7.84093 86.5674 6.86489 86.0791C5.04295 85.2001 2.60286 85.1024 1.26894 86.6326C0.390501 87.6418 0.162759 89.1068 0.45557 90.4091C0.748382 91.7113 1.46414 92.8834 2.21244 93.9903C4.91281 97.7994 8.49162 100.99 12.7211 102.911C16.9832 104.864 20.9524 105.645 25.4422 104.441Z" fill="#F5F5F5"/>
<path d="M24.9866 110.561C24.9866 107.273 24.6287 103.366 23.7828 99.1016C22.9369 94.8367 21.668 90.2462 20.1389 85.4604C19.7485 84.2559 19.3581 83.0838 19.0002 81.9444C18.6098 80.7723 18.2519 79.6329 17.829 78.5585C16.9831 76.3447 15.9745 74.2936 14.9659 72.3728C13.9573 70.452 12.9488 68.6614 11.9727 67.001C10.9967 65.3406 10.0532 63.8105 9.14222 62.4431C7.32028 59.7084 5.59594 57.6899 4.35963 56.355C3.74147 55.6714 3.25345 55.183 2.89557 54.8575C2.7329 54.6947 2.60276 54.5644 2.50515 54.4668C2.40755 54.3691 2.37502 54.3365 2.37502 54.3365C2.37502 54.3365 2.40755 54.4017 2.50515 54.4668C2.60276 54.5644 2.7329 54.6947 2.86303 54.8575C3.18838 55.2156 3.6764 55.7365 4.29456 56.3876C5.49834 57.755 7.19014 59.7735 9.01208 62.5082C9.92305 63.8756 10.834 65.4057 11.8101 67.0661C12.7861 68.7265 13.7947 70.5171 14.7707 72.4379C15.7793 74.3587 16.7553 76.4098 17.6012 78.591C18.0242 79.698 18.4146 80.8049 18.7725 81.9769C19.1629 83.1489 19.5208 84.321 19.9112 85.493C21.4403 90.2462 22.7417 94.8367 23.5876 99.1016C24.4335 103.334 24.8239 107.241 24.8239 110.529" fill="#E0E0E0"/>
<path d="M17.7314 78.526C17.7639 78.526 17.829 78.3306 17.9266 77.94C18.0242 77.5818 18.1543 77.0284 18.317 76.3447C18.6424 75.0099 19.0002 73.1216 19.4232 71.0706C19.8136 69.0195 20.2366 67.1312 20.5619 65.7964C20.7246 65.1127 20.8547 64.5918 20.9848 64.2337C21.0825 63.8756 21.1475 63.6477 21.115 63.6477C21.0825 63.6477 21.0174 63.843 20.8872 64.2012C20.7571 64.5593 20.5944 65.1127 20.3992 65.7639C20.0088 67.0987 19.5859 68.9544 19.1629 71.0054C18.7725 73.0565 18.4146 74.8797 18.1218 76.2796C17.9917 76.9307 17.8941 77.4516 17.7965 77.8748C17.7639 78.2981 17.7314 78.526 17.7314 78.526Z" fill="#E0E0E0"/>
<path d="M0.488052 73.61C0.488052 73.6425 0.748329 73.6751 1.17128 73.7728C1.62676 73.8704 2.27746 73.9681 3.05829 74.1309C4.65248 74.4564 6.8323 74.9774 9.20733 75.661C11.5824 76.3447 13.7296 77.061 15.2588 77.6144C16.0396 77.8749 16.6252 78.1353 17.0482 78.2981C17.4711 78.4609 17.6989 78.5586 17.7314 78.526C17.7314 78.4934 17.5037 78.3958 17.1132 78.2004C16.6903 78.0051 16.1047 77.7446 15.3238 77.4516C13.7947 76.8331 11.68 76.1168 9.2724 75.4331C6.86484 74.7495 4.68502 74.2611 3.05829 73.9681C2.24492 73.8379 1.59423 73.7402 1.13874 73.6751C0.715795 73.61 0.488052 73.61 0.488052 73.61Z" fill="#E0E0E0"/>
<path d="M23.5876 98.7435C23.5876 98.7435 23.6526 98.6784 23.7177 98.5482C23.8153 98.3854 23.9455 98.19 24.0756 97.9296C24.3684 97.4087 24.8239 96.6273 25.3119 95.6506C26.353 93.7298 27.6869 90.9951 29.1185 87.9673C30.55 84.9396 31.8839 82.2049 32.8599 80.2515C33.348 79.3073 33.7384 78.526 34.0312 77.94C34.1613 77.6795 34.2589 77.4842 34.3565 77.3214C34.4216 77.1912 34.4541 77.0935 34.4541 77.0935C34.4541 77.0935 34.3891 77.1586 34.324 77.2888C34.2264 77.4516 34.0963 77.647 33.9661 77.9074C33.6733 78.4283 33.2178 79.2097 32.7298 80.1864C31.6887 82.1072 30.3548 84.8419 28.9233 87.8697C27.4917 90.8974 26.1578 93.6321 25.1818 95.5855C24.6937 96.5297 24.3033 97.311 24.0105 97.897C23.8804 98.1575 23.7828 98.3528 23.6852 98.5156C23.6201 98.6784 23.5876 98.7435 23.5876 98.7435Z" fill="#E0E0E0"/>
<path d="M0.943451 89.0742C0.943451 89.0742 1.00852 89.1068 1.17119 89.2044C1.33387 89.2696 1.56161 89.3672 1.82189 89.4974C2.44004 89.7579 3.25341 90.116 4.26198 90.5393C6.31167 91.4183 9.10964 92.6554 12.233 94.0553C15.3563 95.4227 18.1543 96.6599 20.2365 97.5063C21.2776 97.9296 22.1235 98.2551 22.7091 98.483C22.9694 98.5807 23.1971 98.6458 23.3923 98.7435C23.555 98.8086 23.6201 98.8086 23.6201 98.8086C23.6201 98.8086 23.555 98.776 23.3923 98.6784C23.2297 98.6132 23.0019 98.5156 22.7417 98.3854C22.1235 98.1249 21.3101 97.7668 20.3016 97.3435C18.2519 96.4645 15.4539 95.2274 12.3306 93.8275C9.20725 92.4601 6.40927 91.2229 4.32705 90.3765C3.28594 89.9532 2.44004 89.6277 1.85442 89.3998C1.59414 89.3021 1.3664 89.2044 1.17119 89.1393C1.04105 89.1068 0.943451 89.0742 0.943451 89.0742Z" fill="#E0E0E0"/>
<path d="M48.5417 6.25085V33.1099H9.98821L8.58922 6.44619L48.5417 6.25085Z" fill="#E0E0E0"/>
<path d="M47.1427 6.44629H8.58922V33.0774H47.1427V6.44629Z" fill="white"/>
<path d="M47.338 33.2401H8.39404V6.25085H47.338V33.2401ZM8.75192 32.882H46.9476V6.60897H8.75192V32.882Z" fill="#E0E0E0"/>
<path d="M42.9787 9.73486H12.754V29.757H42.9787V9.73486Z" fill="white"/>
<path d="M42.9784 9.73451C42.9784 9.73451 42.9133 9.73451 42.8157 9.73451C42.7181 9.73451 42.5554 9.73451 42.3927 9.73451C42.0023 9.73451 41.4492 9.73451 40.7335 9.73451C39.2694 9.73451 37.1872 9.73451 34.5194 9.76707C29.1837 9.76707 21.6356 9.79962 12.7862 9.79962L12.8838 9.70195C12.8838 15.8226 12.8838 22.5943 12.8838 29.7241L12.7862 29.6265C24.1733 29.6265 34.682 29.6265 43.0109 29.659L42.9458 29.7241C42.9784 23.6361 42.9784 18.655 42.9784 15.1714C42.9784 13.4459 42.9784 12.0786 43.0109 11.1344C43.0109 10.6786 43.0109 10.3205 43.0109 10.0926C42.9784 9.86474 42.9784 9.73451 42.9784 9.73451C42.9784 9.73451 42.9784 9.86474 42.9784 10.0926C42.9784 10.3205 42.9784 10.6786 42.9784 11.1344C42.9784 12.046 42.9784 13.4134 43.0109 15.1389C43.0109 18.6224 43.0434 23.6361 43.0434 29.7567V29.8218H42.9784C34.682 29.8218 24.1733 29.8218 12.7537 29.8543H12.6561V29.7567C12.6561 22.6268 12.6561 15.8551 12.6561 9.73451V9.63684H12.7537C21.6682 9.6694 29.2162 9.6694 34.5519 9.6694C37.2197 9.6694 39.3019 9.70195 40.766 9.70195C41.4818 9.70195 42.0348 9.70195 42.3927 9.70195C42.5879 9.70195 42.7181 9.70195 42.8157 9.70195C42.9133 9.73451 42.9784 9.73451 42.9784 9.73451Z" fill="#E0E0E0"/>
<path d="M8.58928 6.34859C8.58928 6.31603 8.84956 6.47882 9.23998 6.77182C9.63039 7.06483 10.1835 7.45551 10.7366 7.9113C11.3222 8.36709 11.8427 8.82288 12.2006 9.14844C12.5585 9.474 12.7863 9.7019 12.7537 9.7019C12.7212 9.73445 11.7777 8.98566 10.639 8.04152C9.46772 7.1625 8.55675 6.4137 8.58928 6.34859Z" fill="#E0E0E0"/>
<path d="M45.1114 8.15338C46.2667 7.23837 47.1761 6.46233 47.1427 6.42003C47.1092 6.37774 46.1455 7.08521 44.9902 8.00022C43.8349 8.91522 42.9255 9.69127 42.959 9.73356C42.9924 9.77586 43.9561 9.06839 45.1114 8.15338Z" fill="#E0E0E0"/>
<path d="M47.1101 33.0774C45.6786 31.9054 44.2471 30.7659 42.8156 29.5939L47.1101 33.0774Z" fill="white"/>
<path d="M45.0359 31.245C43.8494 30.2826 42.8599 29.5364 42.826 29.5783C42.792 29.6202 43.7264 30.4343 44.913 31.3967C46.0996 32.3591 47.089 33.1053 47.1229 33.0634C47.1569 33.0215 46.2225 32.2074 45.0359 31.245Z" fill="#E0E0E0"/>
<path d="M10.6035 31.3455C9.46205 32.2489 8.56378 33.0156 8.59722 33.0579C8.63066 33.1002 9.58313 32.4021 10.7246 31.4987C11.8661 30.5953 12.7644 29.8286 12.731 29.7863C12.6975 29.744 11.745 30.4421 10.6035 31.3455Z" fill="#E0E0E0"/>
<path d="M37.903 15.9852H18.9027V22.6918H37.903V15.9852Z" fill="#E0E0E0"/>
<path d="M137.589 0.00012207H116.962V29.9194H137.589V0.00012207Z" fill="#E0E0E0"/>
<path d="M136.58 0.000244141H115.954V29.9195H136.58V0.000244141Z" fill="#F5F5F5"/>
<path d="M133.978 3.25574H118.491V26.6963H133.978V3.25574Z" fill="white"/>
<path d="M134.01 26.6638C134.01 26.6638 134.01 26.6312 134.01 26.5336C134.01 26.4684 134.01 26.3382 134.01 26.208C134.01 25.915 134.01 25.4918 134.01 24.9383C134.01 23.8314 134.01 22.171 134.01 20.12C134.01 15.9853 134.01 10.1251 133.978 3.25575L134.043 3.32086C129.293 3.32086 124.055 3.32086 118.556 3.32086L118.622 3.25575C118.622 12.0785 118.622 20.2502 118.622 26.6963L118.589 26.6638C123.307 26.6638 127.178 26.6963 129.879 26.6963C131.212 26.6963 132.286 26.6963 133.002 26.6963C133.36 26.6963 133.62 26.6963 133.815 26.6963C133.913 26.6638 134.01 26.6638 134.01 26.6638C134.01 26.6638 133.913 26.6638 133.75 26.6638C133.555 26.6638 133.295 26.6638 132.937 26.6638C132.221 26.6638 131.18 26.6638 129.846 26.6638C127.146 26.6638 123.274 26.6638 118.524 26.6963H118.491V26.6638C118.491 20.2176 118.491 12.0785 118.491 3.22319V3.15808H118.556C124.055 3.15808 129.325 3.15808 134.043 3.15808H134.108V3.22319C134.108 10.1251 134.076 15.9853 134.076 20.12C134.076 22.171 134.076 23.7988 134.076 24.9383C134.076 25.4918 134.076 25.915 134.076 26.208C134.076 26.3382 134.076 26.4684 134.076 26.5336C134.01 26.6312 134.01 26.6638 134.01 26.6638Z" fill="#E0E0E0"/>
<path d="M136.613 0.00012207C136.613 0.00012207 136.483 0.228017 136.255 0.521024C136.027 0.846588 135.669 1.26982 135.279 1.75817C134.889 2.21396 134.531 2.63719 134.27 2.9302C134.01 3.2232 133.815 3.41854 133.815 3.38598C133.815 3.38598 133.945 3.19065 134.205 2.86508C134.466 2.53952 134.823 2.11629 135.214 1.6605C135.604 1.20471 135.93 0.781475 136.19 0.455911C136.45 0.162904 136.613 0.00012207 136.613 0.00012207Z" fill="#E0E0E0"/>
<path d="M134.075 26.5986C134.856 27.8358 135.767 28.9752 136.775 29.9845L134.075 26.5986Z" fill="white"/>
<path d="M136.775 29.985C136.775 29.985 136.58 29.8222 136.32 29.5618C136.027 29.2688 135.669 28.8781 135.311 28.4223C134.921 27.9665 134.628 27.5107 134.4 27.1852C134.173 26.8596 134.075 26.6317 134.075 26.6317C134.075 26.6317 134.238 26.8271 134.466 27.1526C134.693 27.4782 135.019 27.9014 135.377 28.3898C135.734 28.8455 136.092 29.2688 136.353 29.5618C136.645 29.7897 136.808 29.9525 136.775 29.985Z" fill="#E0E0E0"/>
<path d="M115.954 29.8875C116.865 28.7806 117.743 27.6737 118.654 26.5668L115.954 29.8875Z" fill="white"/>
<path d="M117.35 28.2637C118.097 27.3418 118.68 26.576 118.652 26.5534C118.624 26.5307 117.996 27.2598 117.249 28.1817C116.502 29.1037 115.919 29.8694 115.947 29.8921C115.975 29.9147 116.603 29.1857 117.35 28.2637Z" fill="#E0E0E0"/>
<path d="M117.249 1.56315C116.547 0.674721 115.955 -0.0274134 115.926 -0.00510696C115.898 0.0171995 116.445 0.7555 117.147 1.64393C117.849 2.53235 118.441 3.23448 118.469 3.21217C118.497 3.18987 117.951 2.45158 117.249 1.56315Z" fill="#E0E0E0"/>
<path d="M129.162 8.00903H123.989V22.7571H129.162V8.00903Z" fill="#E0E0E0"/>
<path d="M141.949 121.924C141.949 121.956 110.26 122.021 71.1859 122.021C32.0793 122.021 0.390533 121.989 0.390533 121.924C0.390533 121.891 32.0793 121.826 71.1859 121.826C110.26 121.858 141.949 121.891 141.949 121.924Z" fill="#263238"/>
<path d="M102.191 65.6011C102.712 67.5545 102.029 69.7683 100.5 71.1031C99.5235 71.9821 98.2221 72.503 97.3112 73.4472C96.1399 74.6843 95.8146 76.6051 96.3351 78.2329C96.8557 79.8608 98.1245 81.1956 99.6536 81.9118C101.736 82.9211 104.339 82.8234 106.356 81.6839C108.861 80.2514 110.325 77.419 110.715 74.5541C111.073 71.6891 110.488 68.7916 109.739 65.9917" fill="#263238"/>
<path d="M133.88 116.161C136.483 115.738 138.923 116.519 141.493 117.105C142.176 117.268 142.925 117.398 143.608 117.203C144.714 116.91 145.527 115.835 145.69 114.696C145.853 113.719 145.593 112.678 145.039 111.831C144.812 111.473 144.519 111.147 144.161 110.952C143.771 110.724 143.348 110.659 142.925 110.626C141.363 110.464 139.769 110.822 138.337 111.505C136.906 112.189 135.637 113.166 134.531 114.273C133.978 114.794 134.14 115.445 133.88 116.161Z" fill="#263238"/>
<path d="M81.109 74.1308C80.686 71.6565 80.7511 69.1171 81.2717 66.6428C81.5319 65.4382 81.8898 64.2662 82.573 63.2244C82.8008 62.8663 83.1261 62.5081 83.5165 62.3128C84.0696 62.0849 84.7529 62.2803 85.2083 62.7035C85.794 63.2569 86.0217 64.1034 86.0217 64.8848C85.9892 65.6987 85.7289 66.4475 85.4361 67.1963C84.4275 69.8333 82.8333 71.9821 81.109 74.1308Z" fill="#263238"/>
<path d="M131.538 83.5397C132.123 83.9629 145.235 112.157 145.235 112.157C144.194 111.701 143.022 111.603 141.916 111.831L141.2 112.026C139.932 112.352 138.728 112.906 137.622 113.654L133.88 116.194C133.587 116.031 133.392 115.705 133.36 115.38V115.282L123.209 97.8645L131.538 83.5397Z" fill="#E8505B"/>
<path d="M82.4429 38.6769L85.9241 58.5037C87.0628 61.1733 100.142 77.3538 100.142 77.3538L95.8146 91.2554L78.6363 67.7172C77.0421 66.0242 76.1637 63.7453 76.2287 61.4012L76.912 40.207L82.4429 38.6769Z" fill="#FFBE9D"/>
<path d="M101.02 74.2611L110 74.9448L117.841 76.1494C117.841 76.1494 131.57 79.7631 131.57 81.2607C131.57 81.7491 127.829 93.6973 125.714 100.86C124.803 103.953 124.445 106.134 124.445 106.134L131.538 121.924H97.7667V107.436C97.7667 107.436 95.4892 88.4557 95.8797 85.8512C96.2701 83.2467 101.02 74.2611 101.02 74.2611Z" fill="#E8505B"/>
<path d="M78.2133 30.6681C78.2784 28.6496 78.4736 26.6311 78.8315 24.6452C78.8966 24.3522 78.9942 24.0266 79.287 23.9941C79.6449 23.9615 79.8075 24.3848 79.8726 24.7429C80.198 27.1195 80.0678 29.5938 79.5798 31.9378" fill="#EB996E"/>
<path d="M82.2151 72.6657C86.0542 69.2147 86.1843 63.2569 85.859 58.5037C85.8264 58.1455 85.7939 57.7549 86.0216 57.4944C86.3795 56.9735 87.2905 57.1689 87.6484 57.6898C88.0063 58.2107 87.9737 58.9269 87.9412 59.5455C88.1364 58.992 88.9823 58.992 89.3727 59.4152C89.7631 59.8385 89.8282 60.4571 89.8933 61.0431C89.9258 61.564 89.9909 62.1174 90.0234 62.6383L101.28 73.3819C101.28 73.3819 101.606 72.4052 102.419 72.9587C103.232 73.5122 103.786 74.7167 103.786 74.7167L95.8471 92.0367L81.1415 74.1307C81.1089 74.0982 81.5644 73.2192 82.2151 72.6657Z" fill="#E8505B"/>
<path d="M97.4738 84.6465C96.3351 86.1766 95.3916 87.8696 94.9036 89.6927C94.4155 91.5159 94.383 93.5344 95.0662 95.2924C96.0097 97.7993 98.3848 99.7201 101.02 100.111" fill="#E8505B"/>
<path d="M133.88 116.161L133.457 121.924H141.786L143.738 111.733C141.2 111.603 138.695 112.385 136.678 113.947L133.88 116.161Z" fill="#FFBE9D"/>
<path d="M86.1193 71.3962C86.1193 71.3962 86.1844 71.2334 86.3145 70.9404C86.4447 70.6474 86.6073 70.2241 86.8026 69.7032C86.9978 69.1823 87.2255 68.5312 87.4207 67.815C87.6159 67.0987 87.7786 66.2848 87.9087 65.4384C88.0389 64.5919 88.1039 63.778 88.1039 63.0292C88.1039 62.2804 88.1039 61.5967 88.0714 61.0433C88.0389 60.4898 87.9738 60.034 87.9413 59.7084C87.9087 59.3829 87.8762 59.2201 87.9087 59.2201C87.9087 59.2201 87.9738 59.3829 88.0063 59.7084C88.0714 60.034 88.1365 60.4898 88.2015 61.0433C88.2666 61.5967 88.2991 62.2804 88.2991 63.0292C88.2991 63.778 88.2341 64.5919 88.1039 65.4709C87.9738 66.3174 87.7786 67.1313 87.5834 67.8475C87.3882 68.5638 87.1604 69.2149 86.9327 69.7358C86.705 70.2567 86.5097 70.6799 86.3796 70.9729C86.2169 71.2334 86.1193 71.3962 86.1193 71.3962Z" fill="#263238"/>
<path d="M88.5594 68.3684C88.5268 68.3684 88.6895 68.0429 88.9172 67.5545C89.145 67.0336 89.4052 66.3174 89.5679 65.5035C89.7631 64.6896 89.8282 63.9408 89.8607 63.3873C89.8933 62.8339 89.8933 62.5083 89.9258 62.5083C89.9583 62.5083 89.9909 62.8339 89.9909 63.4199C89.9909 63.9733 89.9258 64.7547 89.7306 65.5686C89.5354 66.4151 89.2426 67.1313 89.0148 67.6196C88.7871 68.108 88.5919 68.3684 88.5594 68.3684Z" fill="#263238"/>
<path d="M101.801 77.3865C101.768 77.3865 101.899 77.1586 101.996 76.7679C102.094 76.3772 102.061 75.8238 101.899 75.2703C101.736 74.6843 101.476 74.1959 101.345 73.8378C101.183 73.4797 101.085 73.2518 101.118 73.2192C101.15 73.2192 101.248 73.4146 101.443 73.7727C101.638 74.1308 101.899 74.6192 102.061 75.2052C102.224 75.7912 102.224 76.3772 102.094 76.8004C101.964 77.1911 101.801 77.3865 101.801 77.3865Z" fill="#263238"/>
<path d="M99.8164 100.306C99.8164 100.306 99.7513 100.274 99.6863 100.241C99.5887 100.176 99.4585 100.078 99.2959 99.9806C98.9705 99.7527 98.4825 99.4271 97.9294 98.9713C97.3763 98.5155 96.7256 97.9621 96.1075 97.2133C95.4893 96.4645 94.9687 95.5529 94.7085 94.446C94.4482 93.3716 94.4157 92.2972 94.5133 91.3531C94.6109 90.409 94.8386 89.5625 95.0663 88.8788C95.2941 88.1951 95.5218 87.6742 95.6845 87.2836C95.7821 87.0882 95.8472 86.958 95.8797 86.8603C95.9123 86.7627 95.9448 86.7301 95.9448 86.7301C95.9448 86.7301 95.8797 86.9254 95.717 87.3161C95.5869 87.6742 95.3592 88.2277 95.1639 88.9114C94.9687 89.5951 94.741 90.409 94.6434 91.3531C94.5458 92.2972 94.5783 93.339 94.8386 94.3809C95.0989 95.4227 95.6194 96.3342 96.2051 97.083C96.7907 97.7993 97.4414 98.3853 97.9945 98.8411C98.5476 99.2969 99.003 99.655 99.3284 99.8829C99.4585 99.9806 99.5887 100.078 99.6863 100.176C99.7839 100.274 99.8489 100.306 99.8164 100.306Z" fill="#263238"/>
<path d="M118.264 103.529C118.264 103.529 118.231 103.562 118.133 103.594C118.036 103.627 117.906 103.66 117.71 103.692C117.353 103.79 116.799 103.855 116.116 103.887C114.782 103.953 112.83 103.627 111.041 102.52C109.284 101.381 108.145 99.7853 107.625 98.5482C107.364 97.9296 107.202 97.4087 107.104 97.018C107.072 96.8227 107.039 96.6925 107.007 96.5948C107.007 96.4971 106.974 96.432 107.007 96.432C107.007 96.432 107.072 96.6273 107.169 96.9855C107.267 97.3436 107.43 97.8645 107.722 98.4831C108.275 99.6876 109.382 101.283 111.106 102.39C112.83 103.497 114.75 103.822 116.084 103.79C116.767 103.79 117.287 103.725 117.678 103.66C118.068 103.562 118.264 103.497 118.264 103.529Z" fill="#263238"/>
<path d="M124.394 105.833C123.817 108.042 123.392 109.844 123.444 109.858C123.496 109.872 124.006 108.091 124.582 105.882C125.159 103.672 125.584 101.87 125.532 101.857C125.48 101.843 124.97 103.623 124.394 105.833Z" fill="#263238"/>
<path d="M125.041 101.252C126.614 103.915 127.926 106.051 127.972 106.023C128.019 105.996 126.782 103.815 125.209 101.153C123.637 98.4904 122.324 96.3543 122.278 96.3817C122.232 96.4092 123.469 98.5898 125.041 101.252Z" fill="#263238"/>
<path d="M140.452 111.31C140.452 111.343 139.964 111.375 139.248 111.571C138.89 111.668 138.435 111.798 137.979 111.994C137.524 112.189 137.003 112.45 136.515 112.743C136.027 113.068 135.572 113.394 135.214 113.752C134.856 114.11 134.531 114.436 134.271 114.729C133.782 115.315 133.555 115.738 133.522 115.705C133.522 115.705 133.555 115.608 133.685 115.412C133.782 115.217 133.978 114.956 134.205 114.663C134.433 114.338 134.759 114.012 135.116 113.654C135.507 113.296 135.93 112.938 136.45 112.645C136.938 112.319 137.459 112.091 137.947 111.896C138.435 111.701 138.858 111.571 139.248 111.505C139.639 111.44 139.932 111.375 140.159 111.375C140.354 111.31 140.452 111.278 140.452 111.31Z" fill="#263238"/>
<path d="M142.046 109.357C142.046 109.389 141.526 109.324 140.68 109.389C140.257 109.422 139.769 109.52 139.248 109.65C138.728 109.813 138.142 110.008 137.557 110.268C137.003 110.561 136.483 110.887 136.06 111.245C135.637 111.603 135.279 111.929 134.986 112.254C134.433 112.873 134.173 113.329 134.14 113.329C134.14 113.329 134.205 113.198 134.303 113.003C134.368 112.905 134.433 112.775 134.531 112.645C134.628 112.515 134.726 112.352 134.889 112.189C135.149 111.864 135.507 111.506 135.962 111.147C136.385 110.789 136.906 110.464 137.491 110.138C138.077 109.845 138.663 109.65 139.216 109.52C139.769 109.389 140.257 109.324 140.68 109.292C140.908 109.259 141.07 109.292 141.266 109.292C141.428 109.292 141.591 109.292 141.688 109.324C141.916 109.324 142.046 109.324 142.046 109.357Z" fill="#263238"/>
<g opacity="0.3">
<g opacity="0.3">
<g opacity="0.3">
<path opacity="0.3" d="M107.364 97.0831C106.584 98.5482 107.234 100.306 107.95 101.804C108.503 102.943 109.089 104.115 110.097 104.929C111.073 105.711 112.375 106.069 113.611 105.906C114.847 105.743 116.019 105.027 116.734 103.985C112.602 104.018 108.601 101.185 107.234 97.2785" fill="black"/>
</g>
</g>
</g>
<g opacity="0.3">
<g opacity="0.3">
<g opacity="0.3">
<path opacity="0.3" d="M122.298 96.3994C121.712 97.7993 122.168 99.7202 122.753 101.088C123.371 102.487 124.022 104.018 123.534 105.45C123.437 105.711 123.306 106.004 123.339 106.264C123.371 106.557 123.664 106.817 123.925 106.687C124.055 106.622 124.12 106.427 124.185 106.297C124.64 104.897 125.096 103.497 125.584 102.129" fill="black"/>
</g>
</g>
</g>
<path d="M91.8287 75.415C91.5993 76.835 91.4564 77.9931 91.5096 78.0018C91.5629 78.0104 91.792 76.8662 92.0214 75.4462C92.2508 74.0262 92.3937 72.868 92.3405 72.8594C92.2872 72.8508 92.0581 73.995 91.8287 75.415Z" fill="#FAFAFA"/>
<path d="M88.1039 77.2887C88.0714 77.3213 87.5183 76.5399 86.7374 75.6284C85.9566 74.7168 85.2734 74.0656 85.3059 74.0331C85.3385 74.0005 86.0868 74.6191 86.8676 75.5307C87.6159 76.4097 88.1364 77.2562 88.1039 77.2887Z" fill="#FAFAFA"/>
<path d="M91.032 68.8892C91.0645 68.8892 90.9019 69.1171 90.6741 69.4752C90.4138 69.8333 90.056 70.2891 89.633 70.7775C89.2101 71.2658 88.8196 71.6891 88.4943 72.0146C88.2015 72.3076 88.0063 72.503 87.9737 72.4704C87.9412 72.4379 88.657 71.6565 89.5029 70.6798C90.3488 69.7031 90.9995 68.8567 91.032 68.8892Z" fill="#FAFAFA"/>
<path d="M89.8933 64.7871C89.8608 64.8196 89.6656 64.3964 89.3077 63.9731C88.9498 63.5499 88.5594 63.322 88.5919 63.2569C88.6244 63.2243 89.0474 63.4197 89.4378 63.8429C89.7957 64.3313 89.9258 64.7871 89.8933 64.7871Z" fill="#FAFAFA"/>
<path d="M86.0722 67.5548C86.5513 67.4788 86.9329 67.374 86.9245 67.3207C86.9161 67.2674 86.5208 67.2858 86.0416 67.3618C85.5624 67.4378 85.1808 67.5426 85.1892 67.5959C85.1977 67.6491 85.593 67.6307 86.0722 67.5548Z" fill="#FAFAFA"/>
<path d="M94.4156 70.9403C94.3506 70.9403 94.4807 70.2566 94.318 69.4102C94.1553 68.5962 93.7324 68.0102 93.7975 67.9777C93.83 67.9451 94.318 68.4986 94.4807 69.3776C94.6434 70.2566 94.4482 70.9403 94.4156 70.9403Z" fill="#FAFAFA"/>
<path d="M98.4173 75.2378C98.3848 75.2704 98.0269 74.5867 97.3762 73.903C96.7255 73.2519 96.0423 72.8938 96.0748 72.8612C96.0748 72.8286 96.8231 73.1216 97.5064 73.8053C98.1571 74.489 98.4499 75.2378 98.4173 75.2378Z" fill="#FAFAFA"/>
<path d="M91.9755 82.7258C91.9755 82.7583 91.3248 83.0188 90.4789 82.9862C89.633 82.9536 88.9823 82.6606 88.9823 82.6281C88.9823 82.563 89.633 82.7909 90.4789 82.8234C91.3248 82.8234 91.9755 82.6606 91.9755 82.7258Z" fill="#FAFAFA"/>
<path d="M95.0012 84.2559C94.9687 84.2234 95.1964 83.4746 95.4242 82.5304C95.6519 81.5863 95.717 80.8049 95.7821 80.8049C95.8146 80.8049 95.8146 81.6188 95.5868 82.563C95.3591 83.5397 95.0338 84.2559 95.0012 84.2559Z" fill="#FAFAFA"/>
<path d="M100.142 83.0765C100.892 83.9009 101.532 84.5397 101.572 84.5034C101.612 84.467 101.036 83.7693 100.286 82.9449C99.5363 82.1206 98.896 81.4817 98.8562 81.5181C98.8164 81.5544 99.392 82.2521 100.142 83.0765Z" fill="#FAFAFA"/>
<path d="M103.57 91.1643C104.119 91.7335 104.595 92.1646 104.634 92.1271C104.673 92.0896 104.259 91.5978 103.71 91.0286C103.161 90.4594 102.684 90.0283 102.646 90.0658C102.607 90.1033 103.021 90.5951 103.57 91.1643Z" fill="#FAFAFA"/>
<path d="M98.9379 92.8507C98.9704 92.8833 98.4173 93.3716 97.6365 93.8274C96.8557 94.2832 96.1399 94.5111 96.1399 94.4785C96.1074 94.446 96.7906 94.153 97.5714 93.6972C98.3197 93.2414 98.9054 92.7856 98.9379 92.8507Z" fill="#FAFAFA"/>
<path d="M101.573 100.078C101.508 100.078 101.703 99.1993 101.801 98.1249C101.899 97.0505 101.866 96.1715 101.931 96.1715C101.964 96.1715 102.094 97.0505 101.996 98.1249C101.866 99.2318 101.606 100.078 101.573 100.078Z" fill="#FAFAFA"/>
<path d="M111.431 94.1856C111.399 94.2181 110.715 93.7298 110.032 92.9484C109.349 92.1671 108.959 91.4183 108.991 91.3857C109.024 91.3532 109.479 92.0694 110.162 92.8508C110.813 93.6321 111.464 94.153 111.431 94.1856Z" fill="#FAFAFA"/>
<path d="M115.043 97.2785C115.01 97.2459 115.498 96.5622 116.051 95.7158C116.604 94.8367 117.027 94.1205 117.06 94.153C117.092 94.1856 116.767 94.9344 116.214 95.8134C115.628 96.6599 115.075 97.2785 115.043 97.2785Z" fill="#FAFAFA"/>
<path d="M112.839 89.3956C113.742 89.6375 114.485 89.7914 114.499 89.7393C114.513 89.6872 113.792 89.4489 112.89 89.207C111.987 88.965 111.244 88.8111 111.23 88.8632C111.216 88.9153 111.937 89.1537 112.839 89.3956Z" fill="#FAFAFA"/>
<path d="M111.859 101.45C111.809 102.293 111.812 102.98 111.866 102.983C111.92 102.986 112.004 102.305 112.054 101.461C112.103 100.618 112.1 99.931 112.046 99.9279C111.992 99.9247 111.908 100.606 111.859 101.45Z" fill="#FAFAFA"/>
<path d="M114.164 107.501C114.132 107.469 114.457 106.817 114.587 105.906C114.717 104.994 114.555 104.245 114.62 104.245C114.652 104.245 114.88 104.994 114.75 105.938C114.62 106.883 114.197 107.534 114.164 107.501Z" fill="#FAFAFA"/>
<path d="M108.275 106.492C108.243 106.492 108.145 105.743 108.308 104.799C108.471 103.887 108.861 103.204 108.894 103.236C108.926 103.269 108.633 103.952 108.471 104.831C108.275 105.743 108.308 106.492 108.275 106.492Z" fill="#FAFAFA"/>
<path d="M102.907 108.803C102.875 108.836 102.224 108.283 101.378 107.631C100.532 106.98 99.8488 106.459 99.8814 106.427C99.9139 106.394 100.662 106.85 101.508 107.501C102.321 108.152 102.94 108.771 102.907 108.803Z" fill="#FAFAFA"/>
<path d="M104.635 103.513C105.714 102.94 106.569 102.437 106.544 102.389C106.518 102.342 105.623 102.768 104.544 103.341C103.464 103.914 102.61 104.417 102.635 104.465C102.66 104.513 103.556 104.087 104.635 103.513Z" fill="#FAFAFA"/>
<path d="M117.808 116.747C117.808 116.747 117.743 116.78 117.613 116.812C117.483 116.845 117.255 116.877 116.995 116.91C116.474 117.008 115.693 117.073 114.717 117.073C113.741 117.073 112.602 116.91 111.366 116.584C110.13 116.259 108.796 115.705 107.56 114.924C106.291 114.143 105.25 113.166 104.404 112.222C103.558 111.245 102.94 110.268 102.484 109.389C102.029 108.51 101.768 107.794 101.606 107.273C101.508 107.013 101.476 106.817 101.443 106.687C101.411 106.557 101.378 106.492 101.411 106.459C101.411 106.459 101.443 106.524 101.476 106.655C101.508 106.785 101.573 106.98 101.671 107.241C101.833 107.761 102.126 108.478 102.582 109.324C103.037 110.171 103.655 111.147 104.501 112.091C105.347 113.036 106.388 113.98 107.625 114.761C108.861 115.542 110.162 116.063 111.399 116.389C112.635 116.715 113.774 116.877 114.717 116.91C115.693 116.942 116.442 116.877 116.995 116.812C117.255 116.78 117.483 116.747 117.613 116.715C117.743 116.747 117.808 116.747 117.808 116.747Z" fill="#263238"/>
<path d="M108.113 115.054C108.08 115.054 107.95 114.338 108.275 113.524C108.568 112.71 109.154 112.222 109.186 112.254C109.219 112.287 108.731 112.775 108.438 113.589C108.113 114.371 108.145 115.054 108.113 115.054Z" fill="#FAFAFA"/>
<path d="M105.412 113.947C105.445 113.98 104.957 114.24 104.566 114.761C104.176 115.282 104.078 115.803 104.046 115.803C104.013 115.803 104.013 115.217 104.436 114.664C104.859 114.077 105.412 113.882 105.412 113.947Z" fill="#FAFAFA"/>
<path d="M115.726 120.068C115.726 120.1 114.977 120.035 114.229 119.579C113.481 119.124 113.09 118.473 113.123 118.44C113.156 118.407 113.578 118.961 114.327 119.417C115.043 119.905 115.726 120.035 115.726 120.068Z" fill="#FAFAFA"/>
<path d="M117.32 111.05C117.352 111.05 117.255 111.733 116.734 112.352C116.214 112.971 115.563 113.166 115.563 113.133C115.531 113.101 116.116 112.84 116.604 112.222C117.125 111.668 117.287 111.05 117.32 111.05Z" fill="#FAFAFA"/>
<path d="M121.875 117.789C121.842 117.756 122.265 117.203 122.656 116.454C123.046 115.705 123.274 115.054 123.306 115.054C123.339 115.054 123.209 115.77 122.786 116.519C122.395 117.301 121.907 117.821 121.875 117.789Z" fill="#FAFAFA"/>
<path d="M127.894 118.668C127.926 118.701 127.308 118.961 126.722 119.449C126.137 119.938 125.779 120.459 125.714 120.426C125.681 120.394 125.974 119.808 126.592 119.319C127.243 118.798 127.894 118.635 127.894 118.668Z" fill="#FAFAFA"/>
<path d="M123.306 110.952C123.241 110.952 122.981 110.008 122.363 108.966C121.777 107.892 121.094 107.176 121.159 107.143C121.159 107.143 121.354 107.306 121.614 107.599C121.875 107.892 122.2 108.348 122.525 108.901C122.818 109.455 123.046 109.943 123.176 110.334C123.274 110.692 123.306 110.952 123.306 110.952Z" fill="#FAFAFA"/>
<path d="M122.648 101.703C123.506 101.505 124.191 101.302 124.179 101.249C124.167 101.197 123.462 101.315 122.604 101.513C121.746 101.711 121.06 101.914 121.072 101.967C121.085 102.019 121.79 101.901 122.648 101.703Z" fill="#FAFAFA"/>
<path d="M120.424 97.2351C120.943 97.9023 121.397 98.4164 121.44 98.3833C121.482 98.3502 121.097 97.7825 120.578 97.1153C120.06 96.4481 119.605 95.9341 119.563 95.9672C119.52 96.0003 119.906 96.568 120.424 97.2351Z" fill="#FAFAFA"/>
<path d="M128.284 96.6273C128.284 96.6598 127.568 96.6273 126.722 96.432C125.877 96.2366 125.226 95.9436 125.226 95.911C125.258 95.8785 125.909 96.0738 126.755 96.2692C127.601 96.4645 128.284 96.5622 128.284 96.6273Z" fill="#FAFAFA"/>
<path d="M133.164 96.5297C133.132 96.4971 133.392 95.9111 133.652 95.1623C133.913 94.4135 134.108 93.7949 134.14 93.7949C134.173 93.7949 134.075 94.446 133.815 95.1948C133.555 96.0088 133.197 96.5622 133.164 96.5297Z" fill="#FAFAFA"/>
<path d="M132.058 103.171C132.058 103.204 131.375 103.041 130.627 102.618C129.878 102.194 129.423 101.673 129.455 101.641C129.488 101.608 130.009 102.064 130.724 102.487C131.44 102.878 132.091 103.106 132.058 103.171Z" fill="#FAFAFA"/>
<path d="M135.568 101.007C135.326 102.059 135.173 102.921 135.226 102.933C135.278 102.945 135.517 102.103 135.758 101.051C136 99.9998 136.153 99.1377 136.101 99.1256C136.048 99.1135 135.81 99.956 135.568 101.007Z" fill="#FAFAFA"/>
<path d="M131.421 108.928C132.015 109.741 132.531 110.375 132.575 110.343C132.618 110.311 132.172 109.626 131.579 108.813C130.985 108 130.469 107.366 130.425 107.398C130.382 107.43 130.828 108.115 131.421 108.928Z" fill="#FAFAFA"/>
<path d="M137.101 107.534C137.068 107.566 136.743 106.98 136.288 106.297C135.832 105.645 135.377 105.157 135.409 105.125C135.442 105.092 135.962 105.515 136.418 106.199C136.906 106.883 137.166 107.501 137.101 107.534Z" fill="#FAFAFA"/>
<path d="M141.331 106.883C141.298 106.915 140.875 106.264 140.289 105.515C139.704 104.766 139.216 104.18 139.248 104.148C139.281 104.115 139.834 104.636 140.42 105.418C141.005 106.166 141.396 106.85 141.331 106.883Z" fill="#FAFAFA"/>
<path d="M140.354 109.682C140.289 109.682 140.322 109.129 139.964 108.575C139.606 108.022 139.086 107.827 139.086 107.794C139.086 107.762 139.248 107.794 139.443 107.892C139.639 107.989 139.899 108.185 140.094 108.478C140.289 108.771 140.387 109.096 140.387 109.324C140.42 109.552 140.354 109.682 140.354 109.682Z" fill="#FAFAFA"/>
<path d="M137.036 113.557C137.003 113.557 137.003 113.459 137.003 113.361C136.971 113.264 136.906 113.101 136.776 113.003C136.646 112.905 136.483 112.873 136.353 112.873C136.223 112.873 136.158 112.905 136.158 112.873C136.158 112.84 136.19 112.775 136.353 112.743C136.483 112.71 136.711 112.71 136.906 112.84C137.101 112.971 137.134 113.198 137.134 113.329C137.134 113.491 137.068 113.557 137.036 113.557Z" fill="#FAFAFA"/>
<path d="M103.2 119.71C103.2 119.742 102.354 119.417 101.573 118.668C100.792 117.887 100.467 117.04 100.532 117.04C100.565 117.008 100.955 117.789 101.703 118.538C102.452 119.287 103.232 119.645 103.2 119.71Z" fill="#FAFAFA"/>
<path d="M82.4754 38.9048C81.9548 33.9562 81.0113 29.3006 80.751 24.4497C80.751 24.2218 80.7185 23.9288 80.5233 23.7661C80.263 23.5707 79.8401 23.7335 79.6774 24.0265C79.5147 24.3195 79.5147 24.6776 79.5147 25.0032C79.5147 27.5752 79.0918 30.1471 78.2133 32.5888C77.6602 34.1515 76.9119 35.6817 76.489 37.3095C76.066 38.9373 76.8469 39.4908 77.5952 40.9884" fill="#FFBE9D"/>
<path d="M61.7909 15.9703C64.0187 17.8453 65.8528 19.3318 65.8874 19.2905C65.9221 19.2492 64.1443 17.6957 61.9165 15.8207C59.6888 13.9457 57.8547 12.4591 57.82 12.5004C57.7853 12.5417 59.5632 14.0952 61.7909 15.9703Z" fill="#263238"/>
<path d="M74.7395 10.5946C74.9197 14.1681 75.1095 17.0627 75.1633 17.06C75.2171 17.0573 75.1147 14.1582 74.9345 10.5848C74.7542 7.01135 74.5645 4.11671 74.5107 4.11942C74.4568 4.12214 74.5593 7.0212 74.7395 10.5946Z" fill="#263238"/>
<path d="M67.9744 11.3146C68.6346 13.3687 69.2114 15.0204 69.2628 15.0039C69.3141 14.9874 68.8205 13.3088 68.1602 11.2548C67.5 9.20068 66.9232 7.54891 66.8718 7.56543C66.8205 7.58195 67.3142 9.2605 67.9744 11.3146Z" fill="#263238"/>
<path d="M61.4546 21.2797C62.8264 21.9095 63.9567 22.3804 63.9792 22.3313C64.0017 22.2823 62.9077 21.732 61.5359 21.1022C60.164 20.4724 59.0337 20.0015 59.0113 20.0506C58.9888 20.0996 60.0827 20.6499 61.4546 21.2797Z" fill="#263238"/>
<path d="M54.8104 18.6213C55.1314 18.6614 55.397 18.6506 55.4037 18.597C55.4104 18.5435 55.1556 18.4676 54.8347 18.4275C54.5137 18.3874 54.2481 18.3983 54.2414 18.4518C54.2348 18.5053 54.4895 18.5812 54.8104 18.6213Z" fill="#263238"/>
<path d="M67.054 5.4368C67.1079 5.4368 67.1516 5.17443 67.1516 4.85078C67.1516 4.52714 67.1079 4.26477 67.054 4.26477C67.0001 4.26477 66.9564 4.52714 66.9564 4.85078C66.9564 5.17443 67.0001 5.4368 67.054 5.4368Z" fill="#263238"/>
<path d="M83.3212 13.8959C85.2098 11.7988 86.7085 10.0694 86.6684 10.0333C86.6284 9.99721 85.0648 11.668 83.1761 13.7652C81.2875 15.8623 79.7888 17.5917 79.8289 17.6278C79.8689 17.6639 81.4325 15.9931 83.3212 13.8959Z" fill="#263238"/>
<path d="M88.6659 8.21611C88.9073 7.97455 89.0721 7.7478 89.034 7.70965C88.9959 7.67151 88.7693 7.83643 88.5279 8.07799C88.2865 8.31956 88.1217 8.5463 88.1598 8.58444C88.1979 8.62258 88.4245 8.45768 88.6659 8.21611Z" fill="#263238"/>
<path d="M94.8385 16.0177C94.8385 16.0177 94.6758 16.1154 94.383 16.2782C94.0902 16.4409 93.6673 16.6688 93.1467 16.9293C92.1056 17.4502 90.609 18.1664 88.9497 18.8501C87.2905 19.5338 85.7288 20.0872 84.6226 20.4779C84.0695 20.6733 83.6141 20.8035 83.2887 20.9012C82.9634 20.9988 82.8007 21.0314 82.8007 21.0314C82.8007 21.0314 82.9634 20.9663 83.2887 20.836C83.6141 20.7058 84.0695 20.543 84.5901 20.3803C85.6963 19.9896 87.2254 19.4036 88.8847 18.7199C90.5439 18.0362 92.0405 17.3525 93.1142 16.8316C93.6347 16.6037 94.0577 16.3758 94.383 16.2456C94.6758 16.0828 94.8385 16.0177 94.8385 16.0177Z" fill="#263238"/>
<path d="M90.0885 24.0266C90.0885 24.0592 89.7632 24.1568 89.2101 24.3196C88.657 24.4824 87.9087 24.6452 87.0628 24.7754C86.2169 24.9056 85.4361 25.0033 84.883 25.0359C84.3299 25.0684 83.972 25.0684 83.972 25.0684C83.972 25.0359 84.3299 25.0033 84.883 24.9382C85.4361 24.8731 86.2169 24.7754 87.0303 24.6126C87.8762 24.4824 88.6245 24.3196 89.1776 24.1894C89.7306 24.0917 90.0885 24.0266 90.0885 24.0266Z" fill="#263238"/>
<path d="M93.4721 23.3429C93.9932 23.3429 94.4156 23.2992 94.4156 23.2453C94.4156 23.1913 93.9932 23.1476 93.4721 23.1476C92.951 23.1476 92.5286 23.1913 92.5286 23.2453C92.5286 23.2992 92.951 23.3429 93.4721 23.3429Z" fill="#263238"/>
<path d="M77.6277 40.9232C76.3264 39.9465 75.6431 38.2211 75.9034 36.6258C76.0661 35.6491 76.5541 34.7701 76.9445 33.8585C77.3349 32.9469 77.6277 31.9377 77.4 30.961C77.3024 30.6029 77.1397 30.2447 77.1397 29.8541C77.1397 29.4634 77.3675 29.0402 77.7579 29.0402C78.0507 29.0402 78.2784 29.2355 78.4736 29.4634C79.0918 30.2447 79.6124 32.5563 79.287 34.2492" fill="#FFBE9D"/>
<path d="M79.2545 34.2818C79.222 34.2818 79.287 34.0214 79.3196 33.533C79.3196 33.0447 79.3196 32.361 79.1569 31.5471C79.0593 31.1239 78.9617 30.6681 78.7665 30.2123C78.6689 29.9844 78.5713 29.7565 78.4086 29.5612C78.2459 29.3658 78.0507 29.1705 77.7904 29.1379C77.5302 29.1054 77.3349 29.3333 77.2373 29.5937C77.1397 29.8542 77.2048 30.1472 77.3024 30.4402C77.4 30.7332 77.4976 31.0262 77.5302 31.3517C77.5627 31.6773 77.5627 32.0029 77.4976 32.3284C77.2699 33.6633 76.5541 34.7051 76.1962 35.7794C76.001 36.3003 75.9034 36.8212 75.9034 37.3096C75.9034 37.7979 75.9685 38.2537 76.0986 38.6769C76.3589 39.4908 76.7493 40.0443 77.0747 40.4024C77.4 40.7605 77.5952 40.8908 77.5952 40.9233C77.5952 40.9233 77.5302 40.8908 77.4325 40.8256C77.3349 40.7605 77.1723 40.6303 77.0096 40.4675C76.6843 40.142 76.2288 39.556 75.9685 38.742C75.8384 38.3188 75.7408 37.863 75.7408 37.3421C75.7408 36.8212 75.8384 36.3003 76.0336 35.7469C76.3914 34.6725 77.0747 33.5981 77.3024 32.3284C77.3675 32.0029 77.3675 31.7099 77.3349 31.3843C77.3024 31.0913 77.2048 30.7983 77.1072 30.5053C77.0096 30.2123 76.9445 29.8867 77.0747 29.5612C77.1397 29.3984 77.2048 29.2681 77.3349 29.1705C77.4651 29.0728 77.6278 29.0077 77.7904 29.0077C78.1158 29.0402 78.3435 29.2681 78.5062 29.496C78.6689 29.7239 78.799 29.9518 78.8966 30.2123C79.0918 30.7006 79.1894 31.1564 79.287 31.5796C79.4497 32.4261 79.4497 33.1423 79.4172 33.5981C79.3846 33.826 79.3846 34.0214 79.3521 34.1516C79.287 34.2167 79.2545 34.2818 79.2545 34.2818Z" fill="#EB996E"/>
<path d="M121.81 60.7176C121.972 61.6618 122.883 62.378 123.827 62.4431C124.77 62.5082 125.714 62.0199 126.267 61.2385C126.82 60.4572 127.015 59.4479 126.885 58.5038C126.69 57.1364 125.779 55.8016 124.478 55.4109C123.144 54.9877 121.517 55.7365 121.159 57.0713L119.63 59.1875L121.81 60.7176Z" fill="#263238"/>
<path d="M119.988 56.5504C120.606 51.6018 117.027 47.1091 112.017 46.6207C107.299 46.1649 103.102 49.681 102.387 54.3691C101.768 58.4712 101.248 62.6384 101.248 64.136C101.313 68.6939 103.981 70.452 105.054 70.9729C105.315 71.1031 105.965 71.2333 106.258 71.2659C106.291 71.2659 106.291 71.2984 106.291 71.2984L105.282 76.5075C104.827 79.9259 106.746 82.9862 110.162 83.4745C113.579 83.9629 116.279 81.3584 116.799 77.9074L119.988 56.5504Z" fill="#FFBE9D"/>
<path d="M103.2 57.0388C103.265 57.1365 103.883 56.8109 104.632 56.9411C105.412 57.0388 105.9 57.5271 105.998 57.4295C106.031 57.3969 105.966 57.2016 105.77 57.0062C105.543 56.7783 105.152 56.5504 104.697 56.4853C104.209 56.4202 103.786 56.5505 103.525 56.6807C103.265 56.8435 103.168 57.0062 103.2 57.0388Z" fill="#263238"/>
<path d="M110.032 58.5364C110.097 58.634 110.716 58.3085 111.464 58.4387C112.245 58.5364 112.733 59.0247 112.83 58.927C112.863 58.8945 112.798 58.6991 112.603 58.5038C112.375 58.2759 111.984 58.048 111.529 57.9829C111.041 57.9178 110.618 58.048 110.358 58.1782C110.097 58.3085 110 58.4712 110.032 58.5364Z" fill="#263238"/>
<path d="M107.364 62.1826C107.364 62.15 106.909 61.9873 106.161 61.7594C105.965 61.6942 105.803 61.6291 105.77 61.4989C105.738 61.3361 105.868 61.1408 105.998 60.9455C106.258 60.4897 106.519 60.0339 106.811 59.5455C107.918 57.527 108.763 55.8667 108.698 55.8341C108.601 55.8016 107.657 57.3968 106.519 59.4153C106.258 59.9037 105.998 60.392 105.738 60.8478C105.64 61.0757 105.477 61.3036 105.51 61.5966C105.543 61.7594 105.673 61.8896 105.803 61.9221C105.933 61.9873 106.031 61.9873 106.128 62.0198C106.876 62.15 107.364 62.2152 107.364 62.1826Z" fill="#263238"/>
<path d="M106.291 71.331C106.291 71.331 109.219 72.0147 113.253 70.3218C113.253 70.3218 111.496 74.0658 105.998 72.731L106.291 71.331Z" fill="#EB996E"/>
<path d="M107.429 64.071C107.755 63.7455 108.275 63.6152 108.763 63.7455C109.089 63.8431 109.414 64.0385 109.577 64.3315C109.739 64.6245 109.739 65.0152 109.512 65.243C109.251 65.5035 108.828 65.5035 108.471 65.3407C108.113 65.1779 107.852 64.8849 107.56 64.6245C107.495 64.5594 107.397 64.4617 107.364 64.364C107.332 64.2664 107.332 64.1361 107.397 64.071" fill="#EB996E"/>
<path d="M109.577 63.0291C109.447 62.9966 109.316 63.843 108.536 64.3314C107.722 64.8197 106.844 64.5918 106.844 64.722C106.811 64.7872 107.007 64.9174 107.397 64.9825C107.755 65.0476 108.308 65.0151 108.796 64.722C109.284 64.429 109.544 63.9732 109.609 63.6151C109.674 63.257 109.609 63.0291 109.577 63.0291Z" fill="#263238"/>
<path d="M110.553 56.0296C110.585 56.2575 111.366 56.2575 112.277 56.5179C113.156 56.7458 113.871 57.1039 114.001 56.9412C114.067 56.8435 113.969 56.6482 113.709 56.3877C113.448 56.1272 112.993 55.8668 112.472 55.7366C111.952 55.6063 111.431 55.6064 111.073 55.704C110.748 55.7691 110.553 55.9319 110.553 56.0296Z" fill="#263238"/>
<path d="M103.981 54.6621C104.078 54.8575 104.632 54.7598 105.282 54.8249C105.933 54.89 106.454 55.1179 106.584 54.9551C106.649 54.89 106.584 54.6947 106.388 54.4994C106.193 54.304 105.803 54.1087 105.38 54.0436C104.924 53.9785 104.534 54.1087 104.274 54.2389C104.013 54.4017 103.916 54.5645 103.981 54.6621Z" fill="#263238"/>
<path d="M101.509 53.3599C102.452 54.7923 105.445 53.9133 107.235 52.9366C109.122 54.2063 111.79 53.6529 113.091 51.732C114.132 53.0343 116.214 52.6111 116.995 51.146C117.743 49.6484 117.321 47.6299 116.279 46.3277C115.238 45.0254 113.709 44.3743 112.18 44.0813C108.601 43.4302 104.665 44.7975 102.517 48.0532C101.509 49.5508 100.923 51.5693 101.509 53.3599Z" fill="#263238"/>
<path d="M111.464 44.5697C111.464 44.6348 110.618 44.472 109.284 44.6999C107.983 44.9278 106.128 45.6115 104.762 47.1416C103.428 48.7043 102.81 50.5275 102.582 51.8623C102.354 53.1971 102.517 54.0436 102.484 54.0436C102.452 54.0436 102.419 53.8482 102.354 53.4576C102.322 53.0669 102.289 52.5134 102.387 51.8297C102.549 50.4624 103.135 48.5741 104.534 46.9463C105.965 45.351 107.885 44.6673 109.251 44.5046C109.935 44.4069 110.488 44.4395 110.878 44.472C111.236 44.5046 111.464 44.5697 111.464 44.5697Z" fill="#455A64"/>
<path d="M106.584 51.2763C106.551 51.2763 106.519 51.1135 106.519 50.7554C106.486 50.4299 106.519 49.9415 106.649 49.3555C106.909 48.216 107.755 46.6208 109.349 45.6441C110.976 44.6999 112.765 44.7325 113.904 45.0906C114.49 45.2534 114.912 45.4813 115.205 45.6441C115.498 45.8069 115.628 45.9371 115.628 45.9696C115.596 46.0348 115.01 45.579 113.871 45.3185C112.765 45.0581 111.041 45.0581 109.512 45.9371C107.983 46.8487 107.169 48.3463 106.876 49.4532C106.551 50.5275 106.649 51.2763 106.584 51.2763Z" fill="#455A64"/>
<path d="M115.205 49.7136C114.912 50.9833 114.587 52.2855 114.587 53.6203C114.587 54.9226 114.912 56.29 115.758 57.2992C117.027 58.8294 119.109 59.2851 121.029 59.6433C122.07 57.0713 122.395 54.2389 121.94 51.5042C121.712 50.1694 121.289 48.802 120.346 47.8579C118.979 46.458 116.637 46.1649 114.978 47.2067" fill="#263238"/>
<path d="M116.279 55.9969C115.758 57.1039 115.823 58.3736 115.986 59.5782C116.149 60.7827 116.474 61.9548 116.442 63.1919C116.442 64.3965 116.051 65.6988 115.108 66.4476C114.847 66.6754 114.522 66.8382 114.294 67.0987C114.067 67.3591 113.936 67.7498 114.132 68.0428C114.327 68.3358 114.847 68.3358 114.945 68.0103L114.88 68.1079C114.685 68.466 114.913 68.9218 115.335 68.9218C115.986 68.9218 116.637 68.5637 117.06 68.0754C117.678 67.3591 117.938 66.3824 118.101 65.4383C118.589 62.5733 118.491 59.5781 119.305 56.7783" fill="#263238"/>
<path d="M105.25 74.8796C105.705 76.833 107.007 78.5585 108.796 79.5026C110.553 80.4468 112.733 80.577 114.62 79.8607C116.311 79.2096 117.678 77.9399 118.979 76.7028C119.435 79.5026 118.654 82.5304 116.897 84.7442C115.108 86.9906 112.375 88.3905 109.512 88.5859C107.364 88.7161 105.054 88.0649 103.688 86.372C102.745 85.2 102.354 83.6373 102.387 82.1397C102.387 80.6421 102.777 79.1445 103.233 77.712C103.623 76.4749 104.241 75.1075 105.477 74.7494" fill="#E8505B"/>
<path d="M120.704 59.741C122.005 60.4572 122.688 61.8897 122.949 63.3548C123.209 64.7872 123.079 66.2848 123.144 67.7499C123.209 69.2149 123.502 70.7451 124.413 71.8845C125.389 73.0891 126.95 73.6751 128.317 74.3914C131.342 76.0192 133.848 78.7865 134.759 82.1072C135.67 85.428 134.856 89.2696 132.351 91.6462C130.074 93.8275 126.788 94.5763 123.664 94.5763C121.419 94.5763 118.979 94.088 117.58 92.3299C116.214 90.6044 116.279 88.1302 116.767 85.9814C117.255 83.8327 118.133 81.7166 118.198 79.5353C117.873 80.9026 117.288 82.2049 116.474 83.3444C116.246 83.6699 115.856 84.0281 115.498 83.8327C115.108 83.6374 115.27 83.0188 115.433 82.6281C118.133 76.6378 117.19 64.5268 118.784 57.9178" fill="#263238"/>
<path d="M118.459 59.0574C118.524 59.0249 121.68 58.4389 121.289 61.5317C120.899 64.6571 117.841 63.5828 117.841 63.5177C117.873 63.42 118.459 59.0574 118.459 59.0574Z" fill="#FFBE9D"/>
<path d="M118.947 62.4759C118.947 62.4759 119.012 62.5085 119.077 62.5736C119.174 62.6387 119.305 62.6712 119.467 62.6387C119.825 62.5736 120.151 62.0852 120.248 61.5318C120.281 61.2388 120.281 60.9783 120.183 60.7504C120.118 60.5225 119.988 60.3272 119.825 60.2946C119.662 60.2295 119.532 60.3272 119.5 60.3923C119.435 60.49 119.467 60.5225 119.435 60.5551C119.435 60.5551 119.37 60.49 119.402 60.3598C119.435 60.2946 119.467 60.2295 119.565 60.1644C119.662 60.0993 119.76 60.0993 119.89 60.1319C120.118 60.1644 120.313 60.4249 120.378 60.6853C120.476 60.9458 120.508 61.2713 120.443 61.5643C120.346 62.1829 119.955 62.7364 119.467 62.8015C119.24 62.834 119.077 62.7364 118.979 62.6387C118.947 62.541 118.947 62.4759 118.947 62.4759Z" fill="#EB996E"/>
<path d="M102.029 81.5863C101.996 81.5863 102.224 81.1956 102.549 80.6096C102.875 80.0236 103.363 79.2097 103.688 78.233C104.013 77.2563 104.078 76.3122 103.981 75.661C103.883 75.0099 103.688 74.6192 103.721 74.5867C103.721 74.5867 103.786 74.6843 103.851 74.8471C103.916 75.0099 104.013 75.3029 104.078 75.6285C104.209 76.3122 104.176 77.2888 103.851 78.2655C103.525 79.2748 103.037 80.0887 102.679 80.6422C102.484 80.9352 102.354 81.1631 102.224 81.3258C102.126 81.5212 102.061 81.6189 102.029 81.5863Z" fill="#263238"/>
<path d="M103.623 78.005C103.59 78.005 103.493 77.7446 103.2 77.5492C102.94 77.3539 102.647 77.3539 102.647 77.3213C102.647 77.2888 102.712 77.2562 102.842 77.2562C102.972 77.2562 103.135 77.2888 103.298 77.419C103.46 77.5167 103.558 77.6795 103.59 77.8097C103.655 77.9074 103.655 78.005 103.623 78.005Z" fill="#FAFAFA"/>
<path d="M105.64 78.0052C105.608 78.0377 105.347 77.5819 104.827 77.2564C104.339 76.9308 103.818 76.8657 103.818 76.8331C103.818 76.8006 104.371 76.768 104.924 77.1261C105.477 77.4517 105.673 78.0052 105.64 78.0052Z" fill="#FAFAFA"/>
<path d="M107.092 83.2678C106.943 83.9897 106.865 84.5838 106.918 84.5947C106.97 84.6056 107.134 84.0292 107.283 83.3073C107.432 82.5854 107.51 81.9913 107.457 81.9804C107.405 81.9695 107.241 82.5459 107.092 83.2678Z" fill="#FAFAFA"/>
<path d="M111.933 84.1894C111.909 84.9622 111.933 85.59 111.987 85.5917C112.041 85.5934 112.104 84.9683 112.128 84.1955C112.152 83.4227 112.128 82.7949 112.074 82.7932C112.02 82.7915 111.957 83.4166 111.933 84.1894Z" fill="#FAFAFA"/>
<path d="M8.36149 100.078L3.31862 121.924L13.9574 121.956L18.8376 102.748L8.36149 100.078Z" fill="#B78876"/>
<path d="M60.4494 73.2193C59.4408 71.8519 58.2695 70.5822 57.749 68.9544C57.4887 68.1731 57.3911 67.3592 57.1308 66.5778C56.8706 65.7965 56.35 65.0477 55.6017 64.7872C54.8534 64.4942 54.2678 64.7872 53.7798 65.3407L50.1034 75.9866L52.2181 84.1582C54.3003 83.6699 56.9356 83.1164 58.8877 82.2374C60.8398 81.3584 62.1412 79.9585 62.2713 77.8098C62.3689 76.1494 61.4579 74.5541 60.4494 73.2193Z" fill="#263238"/>
<path d="M27.3291 71.3311C27.3291 71.3311 14.6731 76.8331 13.0789 79.3399C11.4847 81.8142 6.31172 99.5575 6.31172 99.5575L19.6509 103.497L19.4232 121.956H52.1205L51.8602 89.3999L47.7608 71.3962C47.7608 71.3962 40.5381 70.9404 39.8874 70.6148C39.1717 70.2567 27.3291 71.3311 27.3291 71.3311Z" fill="#E8505B"/>
<path d="M72.292 26.2079C72.3896 25.4591 71.8691 24.6452 72.2595 23.994C72.4547 23.6359 72.8776 23.4731 73.2681 23.3104C73.4633 23.2453 73.691 23.1476 73.8862 23.1476C74.114 23.1476 74.3417 23.2778 74.4068 23.4731C74.5044 23.701 74.3417 23.9615 74.1465 24.1568C73.9838 24.3196 73.7561 24.4824 73.6585 24.7103C73.5283 25.0359 73.6585 26.0125 73.7886 26.3056C74.0164 26.8265 74.7972 29.2031 74.8623 29.7891" fill="#B78876"/>
<path d="M69.6241 26.4685C69.6567 25.329 70.6002 20.9013 70.6327 19.7618C71.381 19.9897 71.8365 20.8036 71.9992 21.585C72.1618 22.3664 72.0642 23.1803 72.1944 23.9616C72.3896 25.0034 72.9101 25.9801 73.4958 26.8917C74.0489 27.8033 74.6345 28.7474 74.8622 29.7892C75.1225 30.831 76.066 33.5332 75.3177 34.3145" fill="#B78876"/>
<path d="M69.429 34.0865L64.9067 55.6063C64.744 56.583 47.7609 71.3962 47.7609 71.3962L51.112 84.8094L73.2681 63.1594C74.8623 61.4665 75.7407 59.1875 75.6756 56.8435L75.2852 36.6585L69.429 34.0865Z" fill="#B78876"/>
<path d="M68.6481 26.5986L69.4289 34.0866L75.2852 36.6585C75.2852 36.6585 75.3502 36.1376 75.6105 33.5331C75.9033 30.6681 72.8125 29.431 71.4461 27.3474C70.8605 26.4358 71.0231 24.7754 70.5677 22.7244C70.5026 22.4965 70.1772 21.064 70.0146 20.2827C69.917 19.8594 69.6892 19.4687 69.2988 19.2409C69.0385 19.0781 68.7457 18.9804 68.518 19.2409C68.2902 19.4687 68.6481 26.5986 68.6481 26.5986Z" fill="#B78876"/>
<path d="M72.292 35.3237C72.9427 34.7702 73.1054 33.761 72.8451 32.9145C72.5849 32.0681 72.0318 31.3844 71.4787 30.7007C70.8931 30.0496 70.3074 29.3984 69.9496 28.5845C69.6893 28.0311 69.5917 27.4125 69.2989 26.859C69.0386 26.3056 68.518 25.8172 67.8999 25.7847C68.3879 28.8775 68.3879 30.6681 69.3965 34.054" fill="#B78876"/>
<path d="M68.518 29.3333C68.518 29.3333 68.4855 29.2356 68.4529 29.0729C68.4204 28.8775 68.3553 28.6496 68.2903 28.3566C68.1601 27.7055 67.9649 26.859 67.7697 25.9149L67.7372 25.8172H67.8348C68.2252 25.7847 68.6156 25.9474 68.941 26.2404C69.4615 26.6637 69.6893 27.2823 69.8519 27.8032C70.0146 28.3241 70.1773 28.8124 70.3725 29.1705C70.5677 29.5286 70.7954 29.7565 70.9581 29.9519C71.0882 30.1472 71.1533 30.2449 71.1533 30.2449C71.1533 30.2449 71.0557 30.1472 70.893 29.9844C70.7304 29.8216 70.4701 29.5938 70.2749 29.2031C70.0471 28.845 69.8845 28.3566 69.7218 27.8357C69.5591 27.3148 69.3314 26.7614 68.8434 26.3381C68.5505 26.0777 68.1927 25.9474 67.8673 25.98L67.9324 25.8823C68.3553 27.8683 68.5831 29.3333 68.518 29.3333Z" fill="#7C5142"/>
<path d="M70.6027 24.3605C70.8539 26.05 71.1009 27.4132 71.1542 27.4052C71.2075 27.3973 71.047 26.0212 70.7957 24.3317C70.5445 22.6422 70.2976 21.279 70.2442 21.287C70.1909 21.2949 70.3514 22.671 70.6027 24.3605Z" fill="#7C5142"/>
<path d="M73.0078 27.6729C73.0078 27.6729 73.0404 27.7055 73.0404 27.8032H72.9753C72.8777 27.5427 72.6174 26.6962 72.3897 25.687C72.2595 25.0684 72.1619 24.4824 72.0968 24.0592C72.0318 23.6359 71.9992 23.3755 72.0318 23.3755C72.0643 23.3755 72.2921 24.3847 72.5523 25.6544C72.7801 26.6637 72.9753 27.5101 73.0404 27.8032H72.9753C73.0078 27.7055 73.0078 27.6729 73.0078 27.6729Z" fill="#7C5142"/>
<path d="M74.179 31.8077C74.1465 31.8077 74.0489 31.6449 73.7886 31.3844C73.5609 31.124 73.1705 30.831 72.715 30.6031C72.227 30.3752 71.7715 30.2775 71.4461 30.245C71.0882 30.2124 70.893 30.245 70.893 30.2124C70.893 30.1799 71.0882 30.1147 71.4461 30.1147C71.804 30.1147 72.292 30.1799 72.8126 30.4403C73.3006 30.6682 73.691 31.0263 73.9188 31.2868C74.114 31.5798 74.179 31.7751 74.179 31.8077Z" fill="#7C5142"/>
<path d="M69.9495 34.6726C69.917 34.6726 69.7868 34.347 69.5591 33.7935C69.3639 33.2401 69.1036 32.4587 68.8759 31.5471C68.6807 30.6681 68.518 29.8542 68.4529 29.2682C68.3878 28.6822 68.3878 28.2915 68.3878 28.2915C68.4204 28.2915 68.4529 28.6496 68.5505 29.2356C68.6481 29.8217 68.8108 30.6356 69.006 31.5146C69.2012 32.3936 69.4615 33.175 69.6242 33.761C69.8519 34.3144 69.982 34.64 69.9495 34.6726Z" fill="#7C5142"/>
<path d="M43.7591 71.7867C44.3122 70.8752 45.6461 70.5822 46.5245 71.1356C48.8995 69.1822 51.3396 67.294 53.7472 65.3406C52.9664 69.2473 52.4458 74.6843 54.2027 78.2655C54.2027 78.2655 56.415 82.3676 59.8962 81.749L56.7729 84.8419L51.8277 89.4323" fill="#E8505B"/>
<path d="M42.9782 73.61C42.9457 73.61 42.9782 72.8938 43.4337 72.145C43.8892 71.3962 44.5074 71.0055 44.5399 71.0706C44.5724 71.1032 44.0193 71.5264 43.5964 72.2426C43.1409 72.9263 43.0433 73.61 42.9782 73.61Z" fill="#263238"/>
<path d="M45.581 75.9866C45.581 75.9866 45.4183 75.7262 45.3207 75.2704C45.1906 74.8146 45.1581 74.1309 45.2557 73.4147C45.3858 72.6984 45.6786 72.0798 45.9389 71.6892C46.1992 71.2985 46.4269 71.1031 46.4269 71.1031C46.4594 71.1357 46.2642 71.331 46.0365 71.7543C45.8088 72.145 45.5485 72.731 45.4183 73.4472C45.2882 74.1309 45.3207 74.782 45.4183 75.2378C45.4834 75.7262 45.581 75.9866 45.581 75.9866Z" fill="#263238"/>
<path d="M57.5212 84.3861C57.5212 84.3861 57.261 84.5489 56.7404 84.7117C56.2198 84.8419 55.4065 84.907 54.463 84.6466C53.5195 84.3861 52.5109 83.7024 51.7301 82.6932C50.9167 81.6839 50.3962 80.3166 50.1033 78.8841C49.5503 75.9866 49.5503 73.2844 49.7129 71.3636C49.778 70.3869 49.9081 69.6381 49.9732 69.0846C50.0057 68.8242 50.0708 68.5963 50.0708 68.4661C50.1033 68.3358 50.1033 68.2382 50.1359 68.2707C50.1359 68.2707 50.1359 68.3358 50.1033 68.4986C50.0708 68.6614 50.0708 68.8567 50.0383 69.1172C49.9732 69.6381 49.8756 70.4194 49.8105 71.3961C49.6804 73.317 49.6804 75.9866 50.2335 78.8841C50.5263 80.3166 51.0468 81.6188 51.8277 82.6281C52.576 83.6373 53.552 84.2885 54.463 84.5815C55.3739 84.8745 56.1873 84.8094 56.7079 84.7117C57.261 84.5164 57.5212 84.3536 57.5212 84.3861Z" fill="#FAFAFA"/>
<path d="M19.6834 108.934C19.6509 108.934 19.5858 104.311 19.5858 98.6133C19.5858 92.916 19.6184 88.293 19.6834 88.293C19.716 88.293 19.781 92.916 19.781 98.6133C19.781 104.311 19.7485 108.934 19.6834 108.934Z" fill="#263238"/>
<path d="M19.4231 84.7117C19.3906 84.7117 19.3906 84.2559 19.2279 83.5396C19.1629 83.1815 19.0002 82.7583 18.8375 82.3025C18.6423 81.8467 18.382 81.3909 18.0242 80.9351C17.6663 80.4793 17.3084 80.1212 16.918 79.7957C16.5276 79.5026 16.1697 79.2422 15.8443 79.0794C15.1936 78.7213 14.7382 78.6236 14.7382 78.5911C14.7382 78.5911 14.8683 78.5911 15.0635 78.6562C15.1611 78.6887 15.2912 78.7213 15.4214 78.7864C15.5515 78.8515 15.7142 78.8841 15.8769 78.9817C16.2022 79.1445 16.5926 79.3724 16.983 79.6654C17.3735 79.991 17.7639 80.3491 18.1218 80.8049C18.4796 81.2607 18.7399 81.749 18.9351 82.2048C19.1303 82.6606 19.2605 83.0838 19.3255 83.4745C19.3581 83.6699 19.3906 83.8326 19.3906 83.9629C19.4231 84.1256 19.4231 84.2233 19.4231 84.3535C19.4557 84.5814 19.4557 84.7117 19.4231 84.7117Z" fill="#263238"/>
<path d="M41.7094 71.2008C41.7094 71.2008 41.7419 71.2985 41.7744 71.4613C41.807 71.6566 41.8395 71.917 41.872 72.2426C41.9046 72.9263 41.8395 73.9681 41.4816 75.1727C41.0912 76.3447 40.3754 77.7121 39.1391 78.819C37.9028 79.9585 36.1459 80.7073 34.2589 80.8701C32.3394 81.0003 30.4849 80.5119 29.1185 79.5678C27.7195 78.6562 26.8085 77.4191 26.2554 76.3122C25.7023 75.1727 25.4746 74.196 25.4095 73.4798C25.377 73.1216 25.377 72.8612 25.377 72.6658C25.377 72.4705 25.377 72.3728 25.377 72.3728C25.377 72.3728 25.377 72.4705 25.4095 72.6658C25.4095 72.8612 25.4421 73.1216 25.4746 73.4472C25.5722 74.1309 25.7999 75.1076 26.353 76.2145C26.9061 77.2889 27.8496 78.4934 29.2161 79.405C30.5825 80.3166 32.3719 80.8049 34.2589 80.6422C36.1459 80.4794 37.8377 79.7631 39.0415 78.6562C40.2453 77.5819 40.9936 76.247 41.384 75.075C41.7744 73.903 41.8395 72.8937 41.8395 72.2101C41.8395 71.8519 41.807 71.5915 41.7744 71.4287C41.7094 71.2985 41.7094 71.2008 41.7094 71.2008Z" fill="#263238"/>
<path d="M13.4148 97.5284C16.708 98.6155 19.3915 99.4553 19.4084 99.404C19.4253 99.3528 16.7694 98.43 13.4761 97.3429C10.1828 96.2558 7.4994 95.416 7.48246 95.4672C7.46553 95.5184 10.1215 96.4412 13.4148 97.5284Z" fill="#FAFAFA"/>
<path d="M51.5348 94.9019C51.5348 94.9345 44.3447 95.0322 35.4953 95.0647C26.6459 95.0973 19.4557 95.0973 19.4557 95.0322C19.4557 94.9996 26.6133 94.9019 35.4953 94.8694C44.3447 94.8694 51.5348 94.8694 51.5348 94.9019Z" fill="#FAFAFA"/>
<path d="M51.6976 97.7343C51.6976 97.7669 44.4749 97.832 35.5929 97.832C26.711 97.832 19.4883 97.7994 19.4883 97.7343C19.4883 97.6692 26.6784 97.6692 35.5929 97.6692C44.4749 97.6692 51.6976 97.7018 51.6976 97.7343Z" fill="#FAFAFA"/>
<path d="M47.2728 101.185C47.2728 101.185 47.2402 101.283 47.1752 101.446C47.1101 101.641 47.0125 101.869 46.8824 102.195C46.8173 102.357 46.7522 102.52 46.6546 102.715C46.557 102.911 46.4594 103.106 46.3618 103.334C46.1341 103.79 45.9389 104.278 45.6135 104.832C45.4508 105.092 45.3207 105.385 45.158 105.678C44.9953 105.971 44.8001 106.264 44.6049 106.59C44.2471 107.208 43.7916 107.859 43.3035 108.51C42.3275 109.813 41.1563 111.213 39.8223 112.547C38.4559 113.882 37.0569 114.989 35.723 115.966C35.0398 116.422 34.3891 116.877 33.7709 117.236C33.4456 117.431 33.1527 117.594 32.8599 117.757C32.5671 117.919 32.2743 118.05 31.9815 118.212C31.4284 118.505 30.9079 118.733 30.4849 118.929C30.2572 119.026 30.062 119.124 29.8667 119.222C29.6715 119.287 29.4763 119.352 29.3137 119.417C28.9883 119.547 28.7606 119.612 28.5654 119.71C28.4027 119.775 28.3051 119.808 28.3051 119.808C28.3051 119.808 28.4027 119.775 28.5654 119.677C28.7606 119.612 28.9883 119.515 29.3137 119.384C29.4763 119.319 29.639 119.254 29.8342 119.156C30.0294 119.059 30.2246 118.961 30.4524 118.863C30.9079 118.636 31.3959 118.44 31.949 118.115C32.2092 117.984 32.5021 117.822 32.7949 117.659C33.0877 117.496 33.3805 117.301 33.7058 117.138C34.324 116.78 34.9747 116.324 35.6579 115.868C36.9918 114.924 38.3908 113.785 39.7247 112.482C41.0587 111.148 42.2299 109.78 43.2059 108.478C43.6614 107.794 44.1494 107.176 44.5073 106.557C44.7025 106.264 44.8977 105.971 45.0604 105.678C45.2231 105.385 45.3858 105.092 45.5484 104.832C45.8738 104.311 46.1015 103.79 46.3293 103.367C46.4269 103.139 46.557 102.943 46.6221 102.748C46.7197 102.553 46.7848 102.39 46.8498 102.227C46.98 101.934 47.0776 101.674 47.1752 101.511C47.2077 101.283 47.2728 101.185 47.2728 101.185Z" fill="#263238"/>
<g opacity="0.3">
<g opacity="0.3">
<g opacity="0.3">
<path opacity="0.3" d="M45.9389 104.018C43.7591 106.687 41.4491 108.608 38.2607 109.845C36.7316 110.431 35.1049 110.855 33.6083 111.538C32.1117 112.254 30.7127 113.296 30.062 114.826C29.5414 115.998 29.8017 117.756 31.038 118.017C31.5261 118.115 32.0141 117.952 32.437 117.789C38.8138 115.51 42.9782 109.683 45.9389 104.018Z" fill="black"/>
</g>
</g>
</g>
<path d="M23.1974 46.1C21.831 47.1743 21.7334 49.1928 21.7984 50.9509C21.8635 52.7089 21.896 54.6949 20.6272 55.8994C19.5861 56.9087 17.7641 57.2668 17.4713 58.6667C17.3412 59.3179 17.634 60.0667 18.2196 60.3922C18.8052 60.7503 19.5861 60.6852 20.1066 60.262C19.6511 61.3689 19.8789 62.7688 20.7899 63.5176C21.7334 64.2339 23.3601 63.9083 23.718 62.7688C23.4902 63.5176 24.0108 64.3967 24.7591 64.592C25.5074 64.7548 26.3858 64.2013 26.5159 63.42" fill="#263238"/>
<path d="M43.1086 58.7318C43.4014 59.6108 44.475 60.1317 45.3535 59.8387C46.2319 59.5132 46.7199 58.4388 46.3621 57.5598C46.1018 56.8761 45.386 56.3877 45.3535 55.6389C45.3209 54.7599 46.2319 54.1739 47.0453 53.8483C47.8587 53.4902 48.8022 53.067 48.9323 52.188C49.0624 51.3415 48.3467 50.6578 47.7285 50.0718C47.1104 49.4858 46.5573 48.5742 46.9802 47.8254C47.208 47.4347 47.6309 47.2394 47.9237 46.9138C48.5419 46.1976 48.3141 44.9605 47.5658 44.3419C46.8501 43.7233 45.7764 43.5931 44.8329 43.6908C43.8894 43.821 42.9785 44.1791 42.0349 44.407C38.9442 45.1558 35.5606 44.5372 32.9252 42.7792" fill="#263238"/>
<path d="M24.141 52.8067L27.492 72.2103C28.0777 75.6287 31.3311 77.9076 34.7473 77.2891C37.9356 76.7356 40.148 73.8055 39.8552 70.5825C39.6925 68.857 39.5624 67.4245 39.5624 67.4245C39.5624 67.4245 44.41 66.1873 43.9871 61.2388C43.7919 58.8622 42.9785 53.9787 42.1651 49.551C41.3193 44.7978 36.9596 41.5096 32.177 41.998L31.689 42.0305C26.6136 42.8444 23.1975 47.7279 24.141 52.8067Z" fill="#B78876"/>
<path d="M41.1566 52.7743C41.2217 53.1324 40.9289 53.4905 40.5385 53.5556C40.148 53.6207 39.7902 53.3603 39.7576 53.0022C39.6926 52.6441 39.9854 52.2859 40.3758 52.2208C40.7662 52.1557 41.0916 52.4162 41.1566 52.7743Z" fill="#263238"/>
<path d="M41.3519 52.0905C41.2868 52.1882 40.7012 51.8626 39.9529 51.9277C39.2046 51.9928 38.684 52.4486 38.5864 52.351C38.5539 52.3184 38.6189 52.1231 38.8467 51.9277C39.0744 51.7324 39.4648 51.5045 39.9203 51.4719C40.4083 51.4394 40.7988 51.5696 41.059 51.7324C41.3193 51.8952 41.4169 52.058 41.3519 52.0905Z" fill="#263238"/>
<path d="M33.7387 53.6533C33.8038 54.0114 33.511 54.3695 33.1205 54.4346C32.7301 54.4997 32.3722 54.2393 32.3397 53.8812C32.2746 53.5231 32.5674 53.1649 32.9579 53.0998C33.3157 53.0022 33.6736 53.2626 33.7387 53.6533Z" fill="#263238"/>
<path d="M33.934 52.9694C33.8689 53.0671 33.2833 52.7415 32.535 52.8066C31.7867 52.8717 31.2661 53.3275 31.1685 53.2299C31.136 53.1973 31.201 53.002 31.4288 52.8066C31.6565 52.6113 32.0469 52.3834 32.5024 52.3508C32.9905 52.3183 33.3809 52.4485 33.6411 52.6113C33.8689 52.7741 33.9665 52.9043 33.934 52.9694Z" fill="#263238"/>
<path d="M37.22 58.3087C37.22 58.2762 37.6755 58.146 38.4238 57.9506C38.619 57.9181 38.7817 57.8529 38.8142 57.7227C38.8467 57.5925 38.7491 57.3646 38.619 57.1693C38.3913 56.7135 38.1635 56.2577 37.9032 55.7368C36.8947 53.7183 36.1464 52.0579 36.244 51.9928C36.3416 51.9602 37.1875 53.5555 38.196 55.574C38.4238 56.0623 38.6841 56.5507 38.8793 57.0065C38.9769 57.2344 39.1396 57.4623 39.0419 57.7553C39.0094 57.9181 38.8793 58.0157 38.7491 58.0808C38.619 58.146 38.5214 58.146 38.4238 58.146C37.708 58.3087 37.22 58.3739 37.22 58.3087Z" fill="#263238"/>
<path d="M33.8364 49.9742C33.7713 50.2021 33.023 50.1695 32.1446 50.3649C31.2661 50.5276 30.5829 50.8858 30.4202 50.6904C30.3552 50.5928 30.4528 50.3974 30.7456 50.1695C31.0058 49.9416 31.4613 49.7137 31.9819 49.5835C32.5024 49.4858 33.023 49.5184 33.3483 49.6161C33.6737 49.7137 33.8689 49.8765 33.8364 49.9742Z" fill="#263238"/>
<path d="M40.8638 49.9418C40.7337 50.1371 40.2131 50.0069 39.5625 50.0394C38.9443 50.072 38.4237 50.2673 38.2611 50.1045C38.196 50.0069 38.2611 49.8441 38.4888 49.6488C38.7166 49.4534 39.0744 49.2906 39.4974 49.2581C39.9203 49.2255 40.3107 49.3557 40.571 49.5185C40.8313 49.6813 40.9289 49.8441 40.8638 49.9418Z" fill="#263238"/>
<path d="M28.9561 46.8488C28.9561 46.8813 28.9236 46.8813 28.9561 46.8488C28.2078 47.565 27.7848 48.5092 27.7198 49.5184C27.7198 49.551 27.7198 49.5835 27.7198 49.6161C27.6547 51.0486 27.8499 52.481 27.7848 53.9135C27.7198 55.346 27.3619 56.811 26.4184 57.8854C26.028 58.3412 25.3122 58.6667 24.8893 58.2435C24.7266 58.0807 24.694 57.8528 24.6615 57.6249C24.0759 54.2391 22.8396 51.309 22.5142 47.7604C22.4166 46.7837 22.7745 45.8395 23.5228 45.1884C24.206 44.5698 25.0845 43.9513 25.9304 44.2443C26.8088 44.5698 28.0126 46.0023 28.7283 46.5883" fill="#263238"/>
<path d="M25.9954 54.8576C25.8978 54.825 22.5142 54.1739 22.9372 57.5598C23.3601 60.9131 26.6461 59.8062 26.6461 59.7085C26.6787 59.6108 25.9954 54.8576 25.9954 54.8576Z" fill="#B78876"/>
<path d="M25.4748 58.569C25.4748 58.569 25.4097 58.6015 25.3447 58.6666C25.2471 58.7317 25.0844 58.7643 24.9217 58.7317C24.5638 58.6341 24.1734 58.1132 24.0758 57.5272C24.0433 57.2341 24.0433 56.9086 24.1409 56.6807C24.2059 56.4202 24.3361 56.2249 24.5313 56.1598C24.694 56.0947 24.8566 56.1923 24.8892 56.29C24.9542 56.3877 24.9217 56.4528 24.9542 56.4528C24.9542 56.4528 25.0193 56.3877 24.9868 56.2575C24.9542 56.1923 24.9217 56.1272 24.8241 56.0621C24.7265 55.997 24.5964 55.997 24.4988 56.0296C24.2385 56.0947 24.0433 56.3551 23.9457 56.6156C23.8481 56.9086 23.8155 57.2341 23.8481 57.5923C23.9457 58.276 24.4011 58.862 24.8892 58.9271C25.1494 58.9596 25.3121 58.862 25.4097 58.7643C25.4748 58.6341 25.4748 58.569 25.4748 58.569Z" fill="#7C5142"/>
<path d="M25.8653 44.7977C24.8893 43.528 27.004 41.3793 28.5982 40.663C30.2249 39.9793 32.4698 40.5654 34.1942 40.956C35.2678 41.2165 36.374 41.5746 37.4476 41.4444C38.1959 41.3467 38.8466 40.9886 39.5299 40.6956C40.2131 40.37 40.8963 40.077 41.6446 40.0445C42.3929 40.0119 43.1737 40.3375 43.5316 40.9886C43.8895 41.6397 43.5641 42.6164 42.8484 42.7792C43.7268 42.1606 45.1583 42.7141 45.4186 43.7559C45.6789 44.7977 44.6703 45.9372 43.5967 45.8069C44.0522 45.3837 44.833 45.9372 44.833 46.5232C44.833 47.1417 44.345 47.6301 43.7919 47.9231C42.458 48.6719 40.7987 48.6393 39.2696 48.2812C37.773 47.9231 36.3415 47.3045 34.8449 46.9139C33.3483 46.5232 30.8431 45.8069 29.4441 46.4581C28.403 46.9464 27.7849 48.2812 27.1667 48.0859C26.5485 47.858 26.1256 47.3045 25.9629 46.686C25.8002 46.0999 25.8328 45.4488 25.8653 44.7977Z" fill="#263238"/>
<path d="M26.0604 55.4436C26.158 57.2342 26.2556 59.0248 26.6786 60.7503C27.1015 62.4757 27.8498 64.1687 29.0862 65.4709C30.7129 67.1313 32.8602 68.7266 35.1701 69.1172C37.6753 69.5405 40.7661 69.0196 42.8158 67.4894C43.7918 66.7732 44.5076 65.2105 44.1822 64.0384C44.9956 63.6478 45.5812 62.8013 45.6463 61.8897C45.7114 60.9782 45.1583 59.8387 44.41 59.7084C44.9631 59.6108 45.0932 58.7643 44.898 58.276C44.7028 57.7551 43.987 57.6574 43.4339 57.7551C42.8808 57.8527 42.4254 58.1783 41.9699 58.5039C41.5144 58.8294 41.0914 59.1875 40.5709 59.3503C38.814 59.9038 37.0571 58.3736 35.2352 58.4388C33.5759 58.5039 32.1119 59.8712 30.4526 59.6433C29.5416 59.5131 28.7608 58.8945 28.2403 58.1132C27.7197 57.3318 27.9475 54.4669 27.7522 53.5553" fill="#263238"/>
<g opacity="0.6">
<g opacity="0.6">
<path opacity="0.6" d="M39.3345 63.1921C39.3345 63.2246 39.1718 63.127 38.9441 63.0618C38.6838 62.9967 38.3585 62.9316 37.968 62.9967C37.5776 63.0618 37.2848 63.2246 37.0571 63.3874C36.8619 63.5502 36.7317 63.6479 36.7317 63.6479C36.7317 63.6479 36.7968 63.4851 36.992 63.2897C37.1872 63.0944 37.5126 62.8991 37.9355 62.8339C38.3585 62.7688 38.7163 62.834 38.9766 62.9316C39.2369 63.0618 39.3345 63.1921 39.3345 63.1921Z" fill="#455A64"/>
</g>
</g>
<path d="M35.7883 59.4479C35.9184 59.4154 35.9835 60.2618 36.7643 60.7827C37.5126 61.3036 38.3911 61.1083 38.4236 61.2385C38.4561 61.3036 38.2284 61.4013 37.8705 61.4664C37.5126 61.499 36.9595 61.4339 36.504 61.1409C36.0486 60.8153 35.8208 60.3595 35.7558 60.0339C35.6581 59.6758 35.7232 59.4479 35.7883 59.4479Z" fill="white"/>
<path d="M33.3156 68.5638C33.3156 68.5638 33.3807 68.5964 33.5434 68.6289C33.6735 68.6941 33.9013 68.7592 34.1615 68.8243C34.7146 68.9871 35.4955 69.1498 36.504 69.1824C36.9921 69.215 37.5451 69.215 38.1308 69.1498C38.7164 69.1173 39.3345 68.9871 39.9527 68.7917C40.5709 68.5964 41.2216 68.3034 41.8397 67.9453C42.4579 67.5546 43.011 67.0988 43.4664 66.4802C43.987 65.764 44.2473 64.8524 44.1171 64.0385V63.9734L44.1822 63.9408C44.6052 63.778 44.9305 63.4525 45.1908 63.0944C45.3209 62.9316 45.4185 62.7362 45.5161 62.5409C45.6137 62.3456 45.6463 62.1502 45.6463 61.9549C45.7113 61.141 45.3535 60.3922 44.8654 59.9689L44.8329 59.9364L44.8654 59.9038C45.1908 59.4806 45.2233 58.9597 45.0606 58.569C44.898 58.1783 44.5726 57.9505 44.3123 57.8202C44.0195 57.7226 43.7918 57.7226 43.6291 57.7226C43.4664 57.7551 43.4014 57.7551 43.4014 57.7551C43.4014 57.7551 43.4664 57.7226 43.6291 57.69C43.7918 57.6574 44.0521 57.6574 44.3449 57.7551C44.6377 57.8528 44.9956 58.0807 45.1582 58.5039C45.3209 58.9271 45.3209 59.5132 44.963 59.9689V59.8713C45.5161 60.3271 45.874 61.0759 45.8089 61.9549C45.7764 62.1828 45.7439 62.3781 45.6463 62.606C45.5487 62.8014 45.4511 62.9967 45.2884 63.192C45.0281 63.5502 44.6702 63.8757 44.2147 64.1036L44.2473 64.0059C44.4099 64.885 44.1171 65.8291 43.5966 66.5779C43.1411 67.229 42.5555 67.7174 41.9373 68.108C41.3192 68.4987 40.6685 68.7917 40.0178 68.9871C39.3671 69.1824 38.7489 69.2801 38.1633 69.3452C37.5777 69.4103 37.0246 69.4103 36.504 69.3452C35.4955 69.2801 34.6821 69.0847 34.1615 68.922C33.9013 68.8243 33.6735 68.7592 33.5434 68.6941C33.3807 68.5964 33.3156 68.5638 33.3156 68.5638Z" fill="#455A64"/>
<path d="M18.5775 59.969C18.5775 59.969 18.5124 59.969 18.4148 59.8713C18.3172 59.8062 18.1545 59.676 18.0894 59.4481C17.9918 59.2202 17.9593 58.9272 18.0244 58.569C18.0894 58.2109 18.3497 57.8854 18.6751 57.6249C19.0004 57.3645 19.4559 57.1366 19.9114 56.9738C20.3669 56.811 20.8874 56.6482 21.3429 56.3552C21.7984 56.0622 22.1888 55.6064 22.4166 55.0855C22.6768 54.5321 22.7744 53.9135 22.807 53.2949C22.8395 52.0252 22.5467 50.8206 22.5142 49.6812C22.4491 48.5742 22.6768 47.4999 23.1974 46.8162C23.6854 46.1 24.3686 45.7744 24.8241 45.7093C25.0519 45.6442 25.2471 45.6767 25.3772 45.6767C25.5073 45.7093 25.5724 45.7093 25.5724 45.7093C25.5724 45.7418 25.3121 45.6442 24.8566 45.7744C24.4012 45.8721 23.783 46.1976 23.295 46.8813C22.807 47.565 22.6118 48.5742 22.6768 49.6812C22.7094 50.7881 23.0022 51.9927 23.0022 53.2949C22.9696 53.946 22.872 54.5972 22.6118 55.1506C22.3515 55.7041 21.9611 56.1924 21.473 56.4854C20.985 56.7784 20.4645 56.9412 20.009 57.104C19.5535 57.2668 19.1306 57.4621 18.8052 57.7226C18.4799 57.983 18.2521 58.276 18.1871 58.6016C18.122 58.9272 18.1545 59.2202 18.2196 59.4155C18.3172 59.8713 18.61 59.969 18.5775 59.969Z" fill="#455A64"/>
<path d="M42.9784 42.7466C42.9784 42.7466 43.0109 42.714 43.1411 42.6815C43.2061 42.6489 43.2387 42.6489 43.3363 42.6163C43.4013 42.5838 43.4989 42.5838 43.5965 42.5512C43.9869 42.4861 44.6702 42.5838 45.2558 43.1372C45.6462 43.6256 45.874 44.3418 45.7438 45.1557C45.6462 45.9696 45.1582 46.7836 44.4099 47.3696C43.6616 47.9556 42.653 48.2811 41.5794 48.3463C40.5057 48.4114 39.3996 48.2486 38.2934 47.9881C36.4714 47.5649 34.8447 46.7836 33.5108 45.872C32.8276 45.4487 32.2094 45.0255 31.5587 44.7325C30.908 44.4395 30.2573 44.2767 29.6717 44.2442C28.4679 44.179 27.5244 44.4721 26.9063 44.7651C26.2881 45.0581 25.9953 45.286 25.9953 45.286C25.9953 45.286 26.2556 45.0255 26.8737 44.7C27.4919 44.4069 28.4354 44.0488 29.6717 44.1139C30.2899 44.1465 30.9406 44.2767 31.6238 44.6023C32.2745 44.8953 32.9252 45.3185 33.6084 45.7418C34.9423 46.6208 36.5365 47.4021 38.3259 47.8254C39.4321 48.0858 40.5057 48.2486 41.5469 48.1835C42.588 48.1184 43.564 47.7928 44.2798 47.2393C45.0281 46.6859 45.4835 45.9045 45.5811 45.1232C45.6788 44.3418 45.4835 43.6581 45.1257 43.1698C44.6051 42.6163 43.9544 42.5187 43.5315 42.5512C43.1736 42.6815 42.9784 42.7791 42.9784 42.7466Z" fill="#455A64"/>
<path d="M41.2541 39.8816C41.2541 39.8816 41.2866 40.1746 41.0914 40.6304C40.9287 41.0862 40.4733 41.7047 39.6924 42.1605C39.302 42.3884 38.8465 42.5512 38.326 42.6489C37.8054 42.7466 37.2523 42.7466 36.6667 42.6489C35.4955 42.5187 34.2917 42.0629 33.0554 41.6396C31.7865 41.249 30.5177 41.0211 29.4115 41.249C28.3053 41.4769 27.4269 42.0954 26.8413 42.7466C26.2556 43.3977 25.9628 44.0488 25.8001 44.5046C25.6375 44.9604 25.6375 45.2208 25.6049 45.2208C25.6049 45.2208 25.6049 45.1557 25.6375 45.0255C25.6375 44.8953 25.7025 44.6999 25.7676 44.472C25.8977 44.0163 26.1906 43.3326 26.7762 42.6814C27.3618 42.0303 28.2402 41.3466 29.4115 41.1187C30.5827 40.8583 31.8841 41.0862 33.153 41.5094C34.4218 41.9001 35.6256 42.3559 36.7643 42.5187C37.3174 42.5838 37.8705 42.6163 38.3585 42.5187C38.8465 42.4535 39.302 42.2908 39.6924 42.0629C40.4407 41.6396 40.8962 41.0536 41.0914 40.6304C41.2216 40.1746 41.2216 39.8816 41.2541 39.8816Z" fill="#455A64"/>
<path d="M69.9495 104.018C70.8605 104.148 71.6739 104.734 72.227 105.483C72.78 106.232 73.0729 107.143 73.203 108.055C73.4958 109.813 73.0078 111.831 72.3571 113.524C70.5352 112.678 69.5917 110.562 69.1687 109.487C68.5506 107.729 68.3879 104.18 69.9495 104.018Z" fill="#E8505B"/>
<path d="M75.0574 115.998C74.4718 115.119 74.5044 113.947 74.9924 113.036C75.4804 112.124 76.3914 111.473 77.3999 111.18C77.8554 111.05 78.4085 111.017 78.7989 111.278C79.1568 111.538 79.3195 112.026 79.2544 112.482C79.1893 112.938 78.9616 113.329 78.7013 113.687C77.7253 114.924 76.5866 115.933 75.0574 115.998Z" fill="#E8505B"/>
<path d="M74.6019 121.631C74.6019 121.631 74.5694 121.501 74.5369 121.273C74.5043 121.045 74.4718 120.687 74.4718 120.263C74.4392 119.417 74.4067 118.18 74.667 116.878C74.9598 115.575 75.578 114.468 76.1961 113.85C76.4889 113.524 76.7817 113.329 77.0095 113.199C77.2047 113.068 77.3348 113.003 77.3348 113.036C77.3674 113.068 76.8793 113.329 76.2937 113.947C75.7081 114.566 75.1225 115.64 74.8622 116.91C74.5694 118.18 74.6019 119.384 74.6019 120.263C74.6019 121.077 74.6345 121.631 74.6019 121.631Z" fill="#263238"/>
<path d="M70.3725 106.72C70.3725 106.72 70.4701 106.915 70.6002 107.306C70.7303 107.697 70.9256 108.217 71.1533 108.901C71.6088 110.268 72.1944 112.157 72.78 114.24C73.3657 116.357 73.8537 118.277 74.179 119.645C74.3417 120.328 74.4718 120.914 74.5694 121.305C74.667 121.696 74.6996 121.924 74.667 121.924C74.667 121.924 74.602 121.728 74.4718 121.338C74.3742 120.914 74.2116 120.361 74.0489 119.71C73.691 118.342 73.1705 116.422 72.5848 114.305C71.9992 112.189 71.4461 110.301 71.0232 108.934C70.828 108.283 70.6653 107.729 70.5351 107.306C70.4375 106.915 70.3725 106.72 70.3725 106.72Z" fill="#263238"/>
<path d="M72.6499 117.691C71.7714 115.673 69.8519 114.175 67.7046 113.752C67.1515 113.654 66.4683 113.654 66.1755 114.143C65.8827 114.598 66.1429 115.25 66.4683 115.673C67.8347 117.561 70.405 118.44 72.6499 117.822" fill="#E8505B"/>
<path d="M68.3228 115.347C68.3228 115.347 68.4529 115.347 68.6807 115.38C68.8108 115.38 68.941 115.412 69.1036 115.478C69.2663 115.51 69.4615 115.575 69.6567 115.64C70.0471 115.771 70.5026 115.966 70.9906 116.259C71.4461 116.552 71.9667 116.91 72.4222 117.366C72.8777 117.822 73.2681 118.31 73.5609 118.766C73.8537 119.221 74.0814 119.677 74.2116 120.068C74.3092 120.263 74.3417 120.459 74.4068 120.589C74.4719 120.752 74.5044 120.882 74.5044 121.012C74.5369 121.24 74.5695 121.37 74.5369 121.37C74.5044 121.37 74.4068 120.882 74.0814 120.133C73.9188 119.742 73.691 119.319 73.3982 118.863C73.1054 118.408 72.715 117.952 72.292 117.529C71.8365 117.105 71.3811 116.747 70.9256 116.454C70.4701 116.161 70.0146 115.966 69.6567 115.803C68.8108 115.445 68.3228 115.38 68.3228 115.347Z" fill="#263238"/>
</g>
<defs>
<clipPath id="clip0">
<rect width="148" height="122.021" fill="white"/>
</clipPath>
</defs>
</svg>
