<svg width="132" height="139" viewBox="0 0 132 139" fill="none" xmlns="http://www.w3.org/2000/svg">
<g clip-path="url(#clip0)">
<path d="M131.421 29.192C130.594 29.0087 129.706 29.253 129.002 29.7417C128.298 30.2303 127.777 30.9022 127.348 31.6351C126.552 33.0704 126.338 34.9333 126.369 36.5825C128.175 36.4298 129.676 34.9028 130.38 34.1088C131.513 32.8261 132.737 29.8333 131.421 29.192Z" fill="#E0E0E0"/>
<path d="M123.49 37.8346C124.225 37.2238 124.501 36.1855 124.287 35.2387C124.072 34.292 123.429 33.5285 122.633 33.0094C122.266 32.7956 121.806 32.6124 121.378 32.7651C120.98 32.8872 120.735 33.2842 120.673 33.7118C120.612 34.1088 120.735 34.5363 120.888 34.9028C121.439 36.216 122.174 37.3765 123.49 37.8346Z" fill="#E0E0E0"/>
<path d="M122.082 43.1179C122.082 43.1179 122.113 42.9957 122.174 42.782C122.266 42.5376 122.388 42.2628 122.511 41.8963C122.786 41.1634 123.184 40.125 123.337 38.934C123.49 37.743 123.307 36.6436 123.001 35.9411C122.694 35.2082 122.358 34.8417 122.388 34.8417C122.388 34.8417 122.48 34.9334 122.633 35.0861C122.786 35.2693 122.939 35.5441 123.123 35.9106C123.46 36.6436 123.674 37.7735 123.49 38.9645C123.337 40.1861 122.909 41.1939 122.633 41.9269C122.48 42.2933 122.358 42.5682 122.235 42.782C122.143 42.9957 122.082 43.1179 122.082 43.1179Z" fill="#EBEBEB"/>
<path d="M130.288 31.3908C130.288 31.3908 130.257 31.4519 130.196 31.513C130.135 31.6046 130.043 31.7267 129.951 31.8489C129.706 32.1543 129.4 32.5818 129.033 33.101C128.236 34.1393 127.165 35.6052 126.001 37.2238C124.838 38.8424 123.797 40.3388 123.062 41.4077C122.694 41.9269 122.388 42.3544 122.174 42.6903C122.082 42.8125 121.99 42.9347 121.929 43.0263C121.868 43.1179 121.837 43.1484 121.837 43.1484C121.837 43.1484 121.868 43.0874 121.898 43.0263C121.959 42.9347 122.021 42.8125 122.113 42.6598C122.296 42.3544 122.602 41.8963 122.939 41.3466C123.674 40.2472 124.685 38.7508 125.848 37.1322C127.012 35.5136 128.114 34.0783 128.91 33.0399C129.308 32.5207 129.645 32.1237 129.859 31.8183C129.982 31.6962 130.043 31.574 130.135 31.4824C130.257 31.4213 130.288 31.3908 130.288 31.3908Z" fill="#EBEBEB"/>
<path d="M124.838 39.8196C126.338 38.5064 128.512 37.9873 130.441 38.4759C130.931 38.598 131.482 38.8729 131.574 39.3615C131.635 39.8807 131.176 40.2777 130.747 40.522C128.879 41.5604 126.399 41.316 124.776 39.9418" fill="#E0E0E0"/>
<path d="M129.278 39.4532C129.278 39.4837 128.818 39.3921 128.053 39.4226C127.685 39.4226 127.226 39.4837 126.736 39.5753C126.246 39.6975 125.726 39.8502 125.205 40.064C124.685 40.3083 124.225 40.5831 123.827 40.8885C123.429 41.1939 123.092 41.4993 122.847 41.7741C122.327 42.3238 122.082 42.7209 122.082 42.7209C122.082 42.7209 122.143 42.5987 122.235 42.446C122.296 42.3544 122.358 42.2322 122.449 42.1406C122.541 42.0185 122.633 41.8658 122.756 41.7436C123.001 41.4382 123.337 41.1328 123.735 40.8274C124.133 40.522 124.623 40.2166 125.144 40.0029C125.664 39.7586 126.216 39.6059 126.706 39.5142C127.195 39.4226 127.655 39.3921 128.053 39.3921C128.236 39.3921 128.42 39.4226 128.573 39.4226C128.726 39.4226 128.849 39.4532 128.971 39.4837C129.155 39.3921 129.278 39.4226 129.278 39.4532Z" fill="#EBEBEB"/>
<path d="M1.04365 10.6547C0.523126 11.3265 0.370029 12.2427 0.492507 13.0673C0.614984 13.8918 1.01304 14.6859 1.50295 15.3577C2.45214 16.7015 4.07497 17.6787 5.57532 18.3506C6.18771 16.6404 5.48346 14.6553 5.02417 13.6781C4.35054 12.1511 2.17657 9.73849 1.04365 10.6547Z" fill="#E0E0E0"/>
<path d="M5.48345 21.4961C5.23849 20.58 4.41177 19.8776 3.49319 19.6638C2.57461 19.45 1.56417 19.6943 0.768068 20.2135C0.400636 20.4578 0.0638227 20.7937 0.00258402 21.2518C-0.0280353 21.6488 0.216919 22.0458 0.553732 22.2902C0.890545 22.5039 1.31922 22.5956 1.71727 22.6261C3.12576 22.6872 4.50363 22.5039 5.48345 21.4961Z" fill="#E0E0E0"/>
<path d="M9.64761 25.0387C9.64761 25.0387 9.55575 24.9471 9.40266 24.7944C9.21894 24.6111 9.00461 24.3974 8.75965 24.1225C8.2085 23.5728 7.44302 22.7788 6.43258 22.1374C5.42214 21.4961 4.35047 21.1907 3.58498 21.1602C2.78888 21.0991 2.32959 21.2823 2.32959 21.2213C2.32959 21.2213 2.45207 21.1602 2.6664 21.1296C2.88074 21.0686 3.21755 21.038 3.6156 21.038C4.4117 21.038 5.514 21.3434 6.55506 22.0153C7.59612 22.6871 8.33098 23.4812 8.88213 24.0614C9.1577 24.3668 9.34142 24.6111 9.49451 24.7638C9.58637 24.9165 9.67823 25.0081 9.64761 25.0387Z" fill="#EBEBEB"/>
<path d="M2.54401 12.6397C2.54401 12.6397 2.57463 12.6702 2.63586 12.7619C2.6971 12.8535 2.75834 12.9756 2.8502 13.1283C3.03392 13.4643 3.27887 13.9224 3.58506 14.5026C4.19745 15.6631 5.05479 17.2511 6.03461 18.9919C7.01443 20.7326 7.90239 22.2901 8.57602 23.4201C8.88221 23.9698 9.15778 24.4279 9.3415 24.7638C9.43336 24.9165 9.4946 25.0387 9.55584 25.1303C9.58646 25.2219 9.61707 25.2524 9.61707 25.2524C9.61707 25.2524 9.58645 25.2219 9.52522 25.1303C9.46398 25.0387 9.37212 24.9165 9.28026 24.7638C9.09655 24.4584 8.79035 24.0003 8.45354 23.4506C7.77991 22.3207 6.86133 20.7632 5.88151 19.0224C4.9017 17.3122 4.07497 15.6936 3.46259 14.5331C3.15639 13.9529 2.94206 13.4643 2.78896 13.1589C2.72772 13.0062 2.66648 12.884 2.60524 12.7619C2.57463 12.6702 2.54401 12.6397 2.54401 12.6397Z" fill="#EBEBEB"/>
<path d="M7.84116 21.1602C7.29001 19.2362 7.7493 17.0679 9.0047 15.5104C9.34151 15.1134 9.8008 14.747 10.2907 14.8997C10.7806 15.0523 10.9643 15.6326 10.995 16.1518C11.1174 18.259 9.83142 20.3967 7.9024 21.2824" fill="#E0E0E0"/>
<path d="M9.40277 16.9763C9.43339 17.0069 9.15782 17.3733 8.85162 18.0452C8.69853 18.3811 8.54543 18.8087 8.42295 19.2973C8.30048 19.7859 8.23924 20.3051 8.20862 20.8853C8.20862 21.4656 8.26986 21.9848 8.36171 22.4734C8.45357 22.962 8.57605 23.3896 8.72915 23.7255C9.00472 24.4279 9.2803 24.8249 9.24968 24.8249C9.24968 24.8249 9.15782 24.7333 9.06596 24.5501C9.00472 24.4584 8.94348 24.3668 8.88224 24.2141C8.82101 24.092 8.72915 23.9393 8.66791 23.756C8.51481 23.4201 8.36172 22.962 8.26986 22.4734C8.178 21.9848 8.11676 21.4351 8.11676 20.8548C8.11676 20.2746 8.20862 19.7249 8.3311 19.2362C8.45357 18.7476 8.60667 18.32 8.79039 17.9841C8.85163 17.8009 8.9741 17.6787 9.03534 17.526C9.09658 17.4039 9.18844 17.2817 9.24968 17.1901C9.31092 17.0679 9.40277 16.9763 9.40277 16.9763Z" fill="#EBEBEB"/>
<path d="M35.1536 134.217C35.9497 134.522 36.8683 134.4 37.6338 134.033C38.3993 133.667 39.0423 133.056 39.5628 132.384C40.5733 131.102 41.0632 129.269 41.2469 127.651C39.4097 127.559 37.7257 128.811 36.9296 129.514C35.6435 130.613 33.9595 133.392 35.1536 134.217Z" fill="#E0E0E0"/>
<path d="M44.2781 126.826C43.482 127.345 43.0534 128.323 43.1146 129.269C43.1758 130.216 43.6964 131.102 44.4312 131.712C44.768 131.987 45.1967 132.232 45.6254 132.14C46.0234 132.048 46.3296 131.712 46.4521 131.315C46.5746 130.918 46.5133 130.491 46.4215 130.094C46.0847 128.75 45.5335 127.498 44.2781 126.826Z" fill="#E0E0E0"/>
<path d="M46.4521 121.848C46.4521 121.848 46.3909 121.97 46.299 122.154C46.1765 122.367 46.0234 122.642 45.8397 122.978C45.4723 123.681 44.9212 124.627 44.5843 125.788C44.2475 126.948 44.2782 128.048 44.4619 128.811C44.6456 129.575 44.9212 129.972 44.8905 130.002C44.8905 130.002 44.7987 129.911 44.7068 129.727C44.5843 129.544 44.4619 129.239 44.3394 128.842C44.1251 128.078 44.0638 126.918 44.4006 125.757C44.7374 124.597 45.2886 123.619 45.7173 122.948C45.9316 122.612 46.0847 122.337 46.2378 122.154C46.3909 121.94 46.4521 121.848 46.4521 121.848Z" fill="#EBEBEB"/>
<path d="M36.6233 132.201C36.6233 132.201 36.6539 132.171 36.7151 132.079C36.807 131.987 36.8989 131.896 37.0213 131.774C37.2969 131.499 37.6643 131.132 38.1236 130.674C39.0422 129.758 40.3282 128.475 41.7061 127.04C43.084 125.605 44.3394 124.291 45.2273 123.345C45.656 122.887 46.0234 122.49 46.299 122.215C46.4215 122.093 46.5133 122.001 46.6052 121.909C46.6664 121.848 46.6971 121.818 46.7277 121.818C46.7277 121.818 46.697 121.848 46.6358 121.94C46.5746 122.031 46.4827 122.123 46.3602 122.276C46.1153 122.551 45.7785 122.948 45.3498 123.436C44.4618 124.414 43.2371 125.727 41.8592 127.162C40.4813 128.597 39.1647 129.85 38.2155 130.766C37.7562 131.224 37.3582 131.59 37.0826 131.835C36.9601 131.957 36.8682 132.048 36.7764 132.109C36.6539 132.201 36.6233 132.232 36.6233 132.201Z" fill="#EBEBEB"/>
<path d="M43.2678 124.688C41.5837 125.757 39.3791 125.971 37.5113 125.208C37.052 125.024 36.5315 124.658 36.5315 124.139C36.5315 123.62 37.052 123.284 37.5419 123.1C39.5322 122.367 41.9511 122.978 43.3596 124.566" fill="#E0E0E0"/>
<path d="M38.8279 124.414C38.8279 124.383 39.2872 124.536 40.0221 124.627C40.3895 124.688 40.8488 124.688 41.3387 124.658C41.8286 124.627 42.3798 124.536 42.9309 124.383C43.4821 124.23 43.972 124.017 44.4313 123.772C44.8599 123.528 45.2274 123.284 45.5336 123.039C46.1153 122.581 46.4215 122.215 46.4521 122.215C46.4521 122.215 46.3909 122.306 46.2684 122.49C46.2072 122.581 46.1153 122.673 45.9928 122.764C45.8704 122.856 45.7785 123.009 45.6254 123.1C45.3498 123.345 44.9518 123.619 44.5231 123.864C44.0638 124.108 43.5739 124.322 42.9922 124.475C42.441 124.627 41.8899 124.719 41.3693 124.719C40.8488 124.749 40.4201 124.719 40.0221 124.658C39.8384 124.627 39.6546 124.597 39.5322 124.566C39.3791 124.536 39.2566 124.505 39.1647 124.444C38.9198 124.475 38.7973 124.414 38.8279 124.414Z" fill="#EBEBEB"/>
<path d="M88.1556 62.5409C88.2064 62.5409 88.2475 61.7205 88.2475 60.7085C88.2475 59.6965 88.2064 58.8762 88.1556 58.8762C88.1049 58.8762 88.0638 59.6965 88.0638 60.7085C88.0638 61.7205 88.1049 62.5409 88.1556 62.5409Z" fill="#E0E0E0"/>
<path d="M88.1556 55.2114C88.2064 55.2114 88.2475 54.3911 88.2475 53.3791C88.2475 52.3671 88.2064 51.5467 88.1556 51.5467C88.1049 51.5467 88.0638 52.3671 88.0638 53.3791C88.0638 54.3911 88.1049 55.2114 88.1556 55.2114Z" fill="#E0E0E0"/>
<path d="M88.1556 47.882C88.2064 47.882 88.2475 47.0616 88.2475 46.0497C88.2475 45.0377 88.2064 44.2173 88.1556 44.2173C88.1049 44.2173 88.0638 45.0377 88.0638 46.0497C88.0638 47.0616 88.1049 47.882 88.1556 47.882Z" fill="#E0E0E0"/>
<path d="M88.1556 40.5526C88.2064 40.5526 88.2475 39.7322 88.2475 38.7202C88.2475 37.7082 88.2064 36.8878 88.1556 36.8878C88.1049 36.8878 88.0638 37.7082 88.0638 38.7202C88.0638 39.7322 88.1049 40.5526 88.1556 40.5526Z" fill="#E0E0E0"/>
<path d="M88.1556 33.2231C88.2064 33.2231 88.2475 32.4028 88.2475 31.3908C88.2475 30.3788 88.2064 29.5584 88.1556 29.5584C88.1049 29.5584 88.0638 30.3788 88.0638 31.3908C88.0638 32.4028 88.1049 33.2231 88.1556 33.2231Z" fill="#E0E0E0"/>
<path d="M86.0735 24.3057C86.0735 24.2751 86.9002 24.2141 87.9107 24.2141C88.0025 24.2141 88.0944 24.2141 88.1556 24.2141H88.2475V24.3057C88.2475 25.1913 88.2169 25.8937 88.1556 25.8937C88.125 25.8937 88.0944 25.2218 88.0638 24.3057L88.1556 24.3973C88.0638 24.3973 88.0025 24.3973 87.9107 24.3973C86.9002 24.3973 86.0735 24.3362 86.0735 24.3057Z" fill="#E0E0E0"/>
<path d="M80.562 24.3973C81.5767 24.3973 82.3992 24.3563 82.3992 24.3057C82.3992 24.2551 81.5767 24.2141 80.562 24.2141C79.5474 24.2141 78.7249 24.2551 78.7249 24.3057C78.7249 24.3563 79.5474 24.3973 80.562 24.3973Z" fill="#E0E0E0"/>
<path d="M75.5405 23.8171C75.5912 23.8171 75.6323 22.9967 75.6323 21.9847C75.6323 20.9727 75.5912 20.1524 75.5405 20.1524C75.4897 20.1524 75.4486 20.9727 75.4486 21.9847C75.4486 22.9967 75.4897 23.8171 75.5405 23.8171Z" fill="#E0E0E0"/>
<path d="M75.5405 16.4876C75.5912 16.4876 75.6324 15.9954 75.6324 15.3882C75.6324 14.781 75.5912 14.2888 75.5405 14.2888C75.4898 14.2888 75.4486 14.781 75.4486 15.3882C75.4486 15.9954 75.4898 16.4876 75.5405 16.4876Z" fill="#E0E0E0"/>
<path d="M32.1223 97.5085C32.6296 97.5085 33.0408 97.4675 33.0408 97.4169C33.0408 97.3662 32.6296 97.3252 32.1223 97.3252C31.6149 97.3252 31.2037 97.3662 31.2037 97.4169C31.2037 97.4675 31.6149 97.5085 32.1223 97.5085Z" fill="#E0E0E0"/>
<path d="M25.2023 97.5085C26.3015 97.5085 27.1926 97.4675 27.1926 97.4169C27.1926 97.3662 26.3015 97.3252 25.2023 97.3252C24.1031 97.3252 23.212 97.3662 23.212 97.4169C23.212 97.4675 24.1031 97.5085 25.2023 97.5085Z" fill="#E0E0E0"/>
<path d="M17.18 97.5085C18.2791 97.5085 19.1702 97.4675 19.1702 97.4169C19.1702 97.3662 18.2791 97.3252 17.18 97.3252C16.0808 97.3252 15.1897 97.3662 15.1897 97.4169C15.1897 97.4675 16.0808 97.5085 17.18 97.5085Z" fill="#E0E0E0"/>
<path d="M9.34149 95.5845C9.37211 95.5845 9.43335 96.4091 9.43335 97.4169C9.46397 97.4474 9.28025 97.2642 9.34149 97.3253H9.37211H9.43335H9.52521C9.58645 97.3253 9.64768 97.3253 9.70892 97.3253C9.8314 97.3253 9.95388 97.3253 10.0457 97.3253C10.2601 97.3253 10.4438 97.3253 10.6275 97.3558C10.9643 97.3558 11.1787 97.3863 11.1787 97.4169C11.1787 97.4474 10.9643 97.4474 10.6275 97.478C10.4438 97.478 10.2295 97.478 10.0457 97.5085C9.92326 97.5085 9.8314 97.5085 9.70892 97.5085C9.64768 97.5085 9.58645 97.5085 9.52521 97.5085H9.43335H9.37211H9.34149C9.40273 97.5696 9.24963 97.4169 9.24963 97.4169C9.28025 96.4091 9.31087 95.5845 9.34149 95.5845Z" fill="#E0E0E0"/>
<path d="M9.34149 92.0114C9.39222 92.0114 9.43334 91.2183 9.43334 90.2401C9.43334 89.2618 9.39222 88.4688 9.34149 88.4688C9.29076 88.4688 9.24963 89.2618 9.24963 90.2401C9.24963 91.2183 9.29076 92.0114 9.34149 92.0114Z" fill="#E0E0E0"/>
<path d="M9.34149 84.9263C9.39222 84.9263 9.43334 84.1333 9.43334 83.155C9.43334 82.1768 9.39222 81.3837 9.34149 81.3837C9.29076 81.3837 9.24963 82.1768 9.24963 83.155C9.24963 84.1333 9.29076 84.9263 9.34149 84.9263Z" fill="#E0E0E0"/>
<path d="M9.34149 77.8106C9.39222 77.8106 9.43334 77.4004 9.43334 76.8944C9.43334 76.3884 9.39222 75.9782 9.34149 75.9782C9.29076 75.9782 9.24963 76.3884 9.24963 76.8944C9.24963 77.4004 9.29076 77.8106 9.34149 77.8106Z" fill="#E0E0E0"/>
<path d="M23.2733 73.8709C23.6713 72.6799 23.2427 71.214 22.2629 70.4505C21.7423 70.0535 21.1299 69.8398 20.4869 69.8092C19.5071 69.7787 18.6192 69.1679 18.2211 68.2823C17.5781 66.8164 16.2615 65.6253 14.6999 65.1672C12.4647 64.5565 9.89264 65.5337 8.66786 67.4882C8.33105 68.0379 8.05548 68.6487 7.50433 68.9847C6.80008 69.3817 5.91212 69.1068 5.0854 69.0763C2.66647 68.9236 0.370021 71.4889 0.523118 73.9015H23.2733V73.8709Z" fill="#F5F5F5"/>
<path d="M85.6449 14.2888C86.0429 13.0978 85.6143 11.6319 84.6344 10.8684C84.1139 10.4714 83.5015 10.2576 82.8585 10.2271C81.8787 10.1966 80.9907 9.58577 80.5927 8.70013C79.9497 7.23424 78.6331 6.04321 77.0715 5.58512C74.8363 4.97433 72.2642 5.95159 71.0395 7.90611C70.7027 8.45581 70.4271 9.0666 69.8759 9.40253C69.1717 9.79954 68.2837 9.52469 67.457 9.49415C65.0381 9.34145 62.7416 11.9068 62.8947 14.3194H85.6449V14.2888Z" fill="#F5F5F5"/>
<path d="M106.772 75.1231C118.068 75.1231 127.226 65.9896 127.226 54.7228C127.226 43.4561 118.068 34.3226 106.772 34.3226C95.4759 34.3226 86.3185 43.4561 86.3185 54.7228C86.3185 65.9896 95.4759 75.1231 106.772 75.1231Z" fill="#E0E0E0"/>
<path d="M81.4806 108.655C80.9907 120.932 71.9274 131.071 59.6184 131.315C47.3094 131.56 37.1438 121.787 36.8988 109.51C36.6539 97.2336 46.4827 85.9035 58.761 86.8502C71.8661 87.8885 81.9399 97.4779 81.4806 108.655Z" fill="#E0E0E0"/>
<path d="M24.9267 56.0971C36.4428 56.0971 45.7785 46.7859 45.7785 35.2999C45.7785 23.8138 36.4428 14.5026 24.9267 14.5026C13.4106 14.5026 4.07495 23.8138 4.07495 35.2999C4.07495 46.7859 13.4106 56.0971 24.9267 56.0971Z" fill="#E0E0E0"/>
<path d="M114.427 26.5962C114.519 28.3369 114.641 28.8561 115.315 30.2609C115.713 31.0855 116.234 31.849 116.448 32.7346C116.662 33.5592 116.54 34.4753 116.693 35.2999C116.938 36.6742 117.857 37.8347 118.561 39.0562C119.265 40.2778 119.724 41.8353 119.02 43.0874L111.947 42.2629L111.457 33.4675L114.427 26.5962Z" fill="#263238"/>
<path d="M100.342 23.6033C99.4236 25.5578 100.71 27.4818 99.7911 29.4363C99.3318 30.3831 98.8725 31.3603 98.6275 32.3987C98.4132 33.3454 98.352 34.3226 97.9845 35.2083C97.3721 36.6131 95.9943 37.5598 95.3513 38.9341C94.4021 40.9802 95.4125 43.576 97.2191 44.9198C99.0256 46.294 101.445 46.63 103.68 46.4773C105.058 46.3857 106.435 46.1108 107.63 45.4084C108.824 44.706 109.742 43.515 109.895 42.1407" fill="#263238"/>
<path d="M110.845 20.1524C115.407 22.168 116.295 29.6501 116.326 30.6274C116.356 31.8184 116.999 32.0628 117.795 32.7041C118.591 33.3454 119.357 34.0783 119.602 35.0556C119.786 35.8191 119.602 36.6742 119.969 37.3766C120.398 38.2012 121.439 38.5065 122.266 39.0257C123.797 40.003 124.532 41.8353 124.623 43.6066C124.715 45.3779 124.225 47.1186 123.735 48.8288C123.552 49.5007 123.307 50.2336 122.694 50.6001C122.235 50.875 121.623 50.875 121.072 50.875C118.193 50.8139 115.315 50.7528 112.406 50.6917C110.202 50.6307 107.936 50.5696 105.884 49.7756C104.231 49.1037 102.761 47.9432 101.873 46.4162C100.985 44.8893 100.679 43.0569 101.138 41.3772C101.506 40.0946 102.302 38.9036 102.516 37.5904C102.792 35.9412 101.414 35.2388 100.924 33.6508C100.434 32.0628 100.005 28.2453 100.71 26.7184" fill="#263238"/>
<path d="M116.081 61.3194L114.672 56.769L114.458 63.732C114.458 63.732 116.295 68.4656 117.703 72.0998C114.886 73.7794 111.641 74.8483 108.12 75.0621C103.772 75.3369 99.6074 74.268 96.0861 72.2525L98.2907 64.4039L97.2497 55.5169L94.3715 59.6397L88.1863 53.6846C88.1863 53.6846 92.718 45.3473 93.2692 44.6144C96.8516 39.7586 103.006 39.8808 103.006 39.8808L111.733 40.3694C111.733 40.3694 116.632 40.0946 119.877 43.9731C119.877 43.9731 123.031 48.7677 125.603 60.617L116.081 61.3194Z" fill="#E8505B"/>
<path d="M120.428 45.2557C120.428 45.2557 120.398 45.2557 120.306 45.2862C120.214 45.2862 120.092 45.3168 119.939 45.3473C119.602 45.4084 119.142 45.5 118.561 45.7443C117.979 45.9887 117.305 46.3857 116.662 46.9965C116.326 47.3018 116.019 47.6683 115.744 48.0959C115.468 48.5234 115.223 49.012 115.101 49.5617C115.039 49.8366 115.039 50.1115 115.131 50.3863C115.223 50.6612 115.376 50.9055 115.621 51.0887C115.866 51.2719 116.172 51.333 116.479 51.2109C116.754 51.1193 116.969 50.8444 117.06 50.539C117.152 50.2336 117.152 49.8977 116.999 49.5923C116.846 49.2869 116.632 49.0426 116.326 48.8288C115.744 48.4013 115.039 48.1569 114.305 48.0653C113.57 47.9737 112.774 48.0653 112.008 48.2791C111.243 48.4929 110.477 48.7677 109.773 49.1953C109.069 49.6228 108.426 50.1725 107.936 50.8749C107.691 51.2109 107.507 51.6079 107.507 52.0354C107.507 52.2492 107.538 52.4324 107.66 52.6157C107.783 52.7989 107.936 52.9211 108.12 53.0432C108.334 53.1043 108.548 53.1654 108.732 53.0738C108.916 52.9822 109.069 52.7989 109.191 52.6157C109.406 52.1881 109.436 51.6995 109.436 51.2109C109.436 50.7222 109.375 50.2642 109.222 49.8061C109.069 49.3785 108.793 48.9815 108.456 48.6456C107.783 48.0042 106.895 47.6378 106.007 47.5462C105.119 47.4545 104.2 47.5767 103.374 47.8516C102.547 48.0959 101.72 48.4318 101.169 49.0731C100.924 49.3785 100.74 49.7755 100.771 50.1725C100.801 50.5695 101.016 50.936 101.291 51.1803C101.444 51.3025 101.598 51.3941 101.781 51.3941C101.965 51.4246 102.149 51.3636 102.302 51.272C102.608 51.0887 102.761 50.6917 102.792 50.3558C102.822 49.9893 102.792 49.6228 102.669 49.2869C102.608 49.1037 102.547 48.951 102.486 48.7983C102.455 48.7066 102.424 48.6456 102.394 48.554L102.271 48.3402C101.965 47.7294 101.536 47.2102 101.077 46.7521C100.158 45.8665 99.1174 45.3168 98.1682 45.0114C97.219 44.706 96.3311 44.6144 95.6268 44.6755C94.9226 44.7365 94.3714 44.8587 94.0346 44.9809C93.8509 45.0419 93.7284 45.103 93.6366 45.1336C93.5447 45.1641 93.4835 45.1641 93.4835 45.1641C93.4835 45.1641 93.5141 45.1336 93.6059 45.103C93.6978 45.0725 93.8203 45.0114 94.004 44.9503C94.3714 44.8282 94.892 44.6755 95.6268 44.6144C96.3311 44.5533 97.219 44.6449 98.1988 44.9198C99.1787 45.2252 100.22 45.7749 101.169 46.6605C101.628 47.1186 102.057 47.6378 102.394 48.2486L102.516 48.4929C102.547 48.5845 102.577 48.6456 102.608 48.7372C102.669 48.8899 102.761 49.0731 102.792 49.2564C102.914 49.6228 102.945 49.9893 102.914 50.3558C102.884 50.7222 102.731 51.1498 102.363 51.3941C102.179 51.5163 101.965 51.5468 101.751 51.5468C101.536 51.5163 101.353 51.4246 101.169 51.3025C100.832 51.0276 100.618 50.6306 100.587 50.2031C100.557 49.9893 100.587 49.7755 100.679 49.5617C100.771 49.348 100.863 49.1647 101.016 49.012C101.598 48.3402 102.424 48.0042 103.282 47.7294C104.139 47.4851 105.058 47.3324 105.976 47.424C106.895 47.5156 107.844 47.9126 108.518 48.5845C108.854 48.9204 109.161 49.3174 109.344 49.7755C109.528 50.2336 109.589 50.7222 109.589 51.2109C109.589 51.6995 109.528 52.2187 109.314 52.6768C109.191 52.8905 109.038 53.1043 108.793 53.2265C108.548 53.3181 108.273 53.2875 108.058 53.1959C107.875 53.0738 107.691 52.9211 107.568 52.7073C107.446 52.4935 107.385 52.2797 107.385 52.0354C107.385 51.5773 107.599 51.1498 107.844 50.7833C108.364 50.0504 109.038 49.5007 109.742 49.0731C110.447 48.615 111.243 48.3402 112.008 48.1264C112.774 47.9126 113.57 47.821 114.366 47.9126C115.131 48.0042 115.866 48.2486 116.448 48.7066C116.754 48.9204 116.999 49.1953 117.152 49.5312C117.305 49.8671 117.336 50.2336 117.213 50.5695C117.122 50.9055 116.877 51.2109 116.54 51.333C116.203 51.4552 115.836 51.3636 115.591 51.1803C115.315 50.9971 115.131 50.7222 115.039 50.4169C114.948 50.1115 114.948 49.8061 115.009 49.5312C115.131 48.951 115.407 48.4623 115.652 48.0348C115.927 47.6072 116.264 47.2408 116.57 46.9354C117.244 46.3246 117.918 45.9276 118.499 45.6833C119.081 45.4389 119.571 45.3473 119.908 45.3168C120.245 45.2557 120.428 45.2557 120.428 45.2557Z" fill="#FAFAFA"/>
<path d="M124.133 55.2115C124.133 55.2421 123.827 55.3031 123.337 55.578C122.847 55.8528 122.204 56.4026 121.776 57.3187C121.653 57.5325 121.592 57.8074 121.531 58.0517C121.47 58.3265 121.439 58.6014 121.531 58.8762C121.561 58.9984 121.653 59.1511 121.745 59.2122C121.868 59.2733 121.99 59.3038 122.143 59.2427C122.419 59.1206 122.572 58.8152 122.602 58.5098C122.694 57.8684 122.296 57.166 121.684 56.8606C121.041 56.5553 120.214 56.6469 119.602 57.0439C118.959 57.4714 118.591 58.1433 118.438 58.8457C118.346 59.1816 118.346 59.5481 118.53 59.823C118.683 60.0978 119.051 60.2811 119.326 60.1284C119.602 60.0062 119.785 59.7008 119.785 59.3954C119.785 59.09 119.663 58.8152 119.51 58.5708C119.204 58.0822 118.744 57.7463 118.255 57.563C117.795 57.3798 117.305 57.3798 116.938 57.4714C116.54 57.5631 116.234 57.7157 116.019 57.899C115.56 58.2349 115.438 58.5403 115.407 58.5098C115.407 58.5098 115.407 58.4792 115.438 58.4487C115.468 58.4182 115.499 58.3571 115.529 58.296C115.621 58.1738 115.744 57.9906 115.989 57.8074C116.203 57.6241 116.54 57.4409 116.938 57.3493C117.336 57.2577 117.826 57.2271 118.316 57.4104C118.806 57.5936 119.296 57.9295 119.632 58.4487C119.785 58.693 119.939 59.0289 119.939 59.3649C119.939 59.7008 119.755 60.0673 119.418 60.22C119.234 60.3116 119.051 60.3116 118.867 60.22C118.683 60.1589 118.561 60.0062 118.438 59.8535C118.224 59.5176 118.255 59.1206 118.346 58.7541C118.499 58.0211 118.928 57.3187 119.602 56.8606C120.275 56.4026 121.163 56.3109 121.837 56.6469C122.541 56.9828 122.939 57.7463 122.847 58.4487C122.817 58.7846 122.633 59.1511 122.296 59.2733C122.113 59.3343 121.929 59.3038 121.776 59.2122C121.623 59.1206 121.561 58.9679 121.5 58.8152C121.408 58.5098 121.439 58.2044 121.5 57.9295C121.561 57.6547 121.653 57.4104 121.776 57.166C122.235 56.2193 122.909 55.7001 123.399 55.4253C123.797 55.2726 124.133 55.2115 124.133 55.2115Z" fill="#FAFAFA"/>
<path d="M114.458 59.6091C114.458 59.6091 114.427 59.6091 114.397 59.6091C114.335 59.6091 114.274 59.5786 114.182 59.5481C113.998 59.5175 113.692 59.4564 113.325 59.3954C112.59 59.3037 111.457 59.3343 110.232 59.8229C109.926 59.9451 109.62 60.0978 109.314 60.281C109.008 60.4642 108.701 60.7086 108.518 61.0445C108.303 61.3499 108.211 61.7774 108.365 62.1439C108.426 62.3271 108.548 62.5104 108.701 62.6325C108.854 62.7547 109.069 62.7852 109.283 62.7547C109.681 62.6631 110.018 62.2966 110.079 61.8691C110.14 61.4415 109.987 60.9834 109.712 60.5864C109.191 59.7924 108.365 59.1816 107.385 58.9373C106.405 58.693 105.364 58.8762 104.568 59.3648C104.17 59.6091 103.802 59.9145 103.527 60.281C103.404 60.4642 103.312 60.678 103.251 60.8918C103.19 61.1056 103.19 61.3193 103.312 61.5026C103.404 61.6858 103.588 61.808 103.772 61.808C103.955 61.808 104.17 61.7469 104.323 61.6553C104.66 61.4415 104.782 61.014 104.721 60.6475C104.69 60.281 104.537 59.9145 104.353 59.6091C104.17 59.3038 103.955 59.0289 103.71 58.7846C103.22 58.3265 102.669 58.0516 102.179 57.8684C101.69 57.6852 101.23 57.6546 100.832 57.6546C100.097 57.6546 99.6992 57.8684 99.6992 57.8379C99.6992 57.8379 99.7299 57.8379 99.7605 57.8073C99.8217 57.7768 99.883 57.7768 99.9748 57.7462C100.159 57.6852 100.465 57.6241 100.832 57.5935C101.2 57.563 101.69 57.6241 102.179 57.7768C102.7 57.9295 103.251 58.2349 103.741 58.693C103.986 58.9373 104.231 59.2121 104.415 59.5175C104.598 59.8535 104.751 60.1894 104.782 60.6169C104.813 60.8307 104.782 61.0445 104.721 61.2277C104.66 61.4415 104.506 61.6247 104.323 61.7469C104.139 61.8691 103.925 61.9607 103.68 61.9301C103.435 61.8996 103.22 61.7774 103.098 61.5331C102.976 61.3193 102.976 61.0445 103.037 60.8307C103.098 60.5864 103.19 60.3726 103.343 60.1894C103.619 59.7924 104.017 59.487 104.445 59.2427C105.303 58.754 106.374 58.5403 107.385 58.7846C108.395 59.0289 109.283 59.6702 109.804 60.4948C110.079 60.9223 110.232 61.411 110.171 61.8996C110.11 62.3882 109.742 62.8158 109.252 62.9074C109.008 62.9685 108.763 62.9074 108.579 62.7547C108.395 62.6325 108.273 62.4188 108.181 62.205C108.12 61.9912 108.089 61.7774 108.12 61.5637C108.15 61.3499 108.242 61.1667 108.365 60.9834C108.579 60.6475 108.916 60.4032 109.222 60.1894C109.528 60.0062 109.865 59.8535 110.171 59.7313C111.426 59.2427 112.59 59.2427 113.325 59.3343C114.09 59.4259 114.458 59.6091 114.458 59.6091Z" fill="#FAFAFA"/>
<path d="M80.256 34.1394C80.899 34.1699 80.7152 37.6209 81.1745 36.8879C81.6338 36.155 80.899 32.6429 81.5726 32.704C82.4299 32.7956 82.185 36.3993 82.185 36.7047C82.185 37.0101 82.6443 37.0101 82.6136 36.7352C82.583 36.3382 82.4606 32.1543 83.3179 32.2154C83.7772 32.2459 83.6241 33.101 83.6241 33.101C83.6241 33.101 83.471 37.0406 83.869 37.0406C84.2671 37.0711 84.4508 34.7502 84.4508 33.9867C84.4508 33.2232 84.8182 32.8873 85.1551 33.1621C85.4 33.3454 85.4306 35.7274 85.4 36.5214C85.3694 37.2849 85.2775 39.4227 86.1655 38.3843C87.0535 37.346 88.1251 36.8879 88.4926 36.9795C88.86 37.0406 88.8906 37.5903 88.4926 37.7736C88.1864 37.9262 87.7271 38.3233 87.4209 38.6287C87.1453 38.873 86.9616 39.2089 86.7473 39.5143C86.5329 39.8502 86.4411 40.064 86.288 40.6137L87.4821 54.9977L88.3701 53.8983L93.4223 58.754L90.789 61.7774C88.86 63.9763 85.3694 64.129 83.4097 61.9607C83.3485 61.8691 83.2567 61.808 83.1954 61.7164C82.7055 61.1056 82.4299 60.3116 82.3687 59.5175L80.7152 40.858C80.6846 38.7813 80.1029 37.1933 80.011 36.1244C79.8579 34.1699 80.0416 34.1394 80.256 34.1394Z" fill="#FFBE9D"/>
<path d="M103.588 41.8354C103.618 39.6671 103.588 37.3766 103.588 37.3766C103.588 37.3766 100.802 36.888 100.25 33.2233C99.7298 29.7418 100.618 22.2291 100.618 22.2291C104.66 20.6411 109.252 21.2519 112.069 24.5196L111.641 42.1407C111.58 44.1869 109.773 45.7749 107.599 45.7138C105.364 45.6528 103.557 43.912 103.588 41.8354Z" fill="#FFBE9D"/>
<path d="M101.353 28.001C101.353 28.2453 101.536 28.4591 101.812 28.4896C102.057 28.5202 102.302 28.3064 102.302 28.0621C102.302 27.8178 102.118 27.604 101.843 27.5735C101.598 27.5735 101.383 27.7567 101.353 28.001Z" fill="#263238"/>
<path d="M100.618 27.4819C100.679 27.543 101.046 27.2986 101.536 27.2986C102.026 27.2986 102.394 27.5735 102.455 27.5124C102.486 27.4819 102.424 27.3597 102.271 27.2681C102.118 27.1459 101.843 27.0238 101.536 27.0238C101.23 27.0238 100.955 27.1459 100.802 27.2376C100.648 27.3292 100.587 27.4513 100.618 27.4819Z" fill="#263238"/>
<path d="M106.527 28.1537C106.527 28.398 106.711 28.6118 106.987 28.6424C107.232 28.6729 107.477 28.4591 107.477 28.2148C107.477 27.9705 107.293 27.7567 107.017 27.7262C106.772 27.7262 106.558 27.9094 106.527 28.1537Z" fill="#263238"/>
<path d="M105.884 27.7262C105.946 27.7873 106.313 27.543 106.803 27.543C107.293 27.543 107.66 27.8178 107.722 27.7567C107.752 27.7262 107.691 27.604 107.538 27.5124C107.385 27.3903 107.109 27.2681 106.803 27.2681C106.497 27.2681 106.221 27.3903 106.068 27.4819C105.915 27.5735 105.854 27.6957 105.884 27.7262Z" fill="#263238"/>
<path d="M104.017 31.4215C104.017 31.3909 103.71 31.3298 103.19 31.2688C103.067 31.2688 102.945 31.2382 102.914 31.1466C102.884 31.055 102.945 30.9023 103.006 30.7801C103.129 30.4747 103.251 30.1388 103.404 29.8029C103.955 28.4286 104.353 27.2681 104.292 27.2376C104.231 27.207 103.741 28.337 103.19 29.7113C103.067 30.0472 102.945 30.3831 102.822 30.6885C102.761 30.8412 102.7 30.9939 102.761 31.1771C102.792 31.2688 102.884 31.3298 102.976 31.3604C103.067 31.3909 103.129 31.3909 103.19 31.3909C103.68 31.452 103.986 31.452 104.017 31.4215Z" fill="#263238"/>
<path d="M103.588 37.3766C103.588 37.3766 106.037 37.5598 108.518 36.1245C108.518 36.1245 107.293 38.6287 103.649 38.2317L103.588 37.3766Z" fill="#EB996E"/>
<path d="M104.2 32.643C104.384 32.3987 104.69 32.2766 105.027 32.3071C105.241 32.3376 105.456 32.4293 105.609 32.6125C105.731 32.7957 105.762 33.04 105.639 33.2233C105.486 33.4065 105.211 33.4676 104.966 33.376C104.721 33.3149 104.507 33.1317 104.323 32.979C104.262 32.9484 104.2 32.8874 104.17 32.8263C104.139 32.7957 104.139 32.7041 104.2 32.643Z" fill="#EB996E"/>
<path d="M105.486 31.7879C105.394 31.7879 105.394 32.3376 104.935 32.7041C104.476 33.1011 103.894 33.0095 103.863 33.1011C103.863 33.1316 103.986 33.2233 104.231 33.2233C104.476 33.2233 104.813 33.1622 105.119 32.9179C105.394 32.6735 105.548 32.3681 105.548 32.1544C105.578 31.9406 105.517 31.7879 105.486 31.7879Z" fill="#263238"/>
<path d="M110.477 21.9237C109.13 23.8171 105.609 25.7716 103.067 26.2297C103.374 25.8327 104.935 24.886 105.211 24.489C104.047 25.3441 102.424 26.5046 100.893 26.5657C100.71 26.5657 100.526 26.5657 100.373 26.474C100.159 26.3519 100.128 26.1076 100.097 25.8938C100.005 25.0082 100.067 23.4812 100.189 22.5955C100.342 21.7099 100.74 20.8243 101.506 20.244C102.486 19.4805 103.894 19.2973 105.211 19.2668C106.313 19.2362 107.446 19.2973 108.456 19.6943C109.467 20.0913 110.324 20.8853 110.477 21.8321" fill="#263238"/>
<path d="M114.305 30.4442C114.488 29.4974 114.641 28.6118 114.672 28.001C114.795 26.1076 114.243 19.1752 107.721 19.7249L109.283 21.7099C109.283 21.7099 107.997 25.9243 110.722 28.8256C110.722 28.8256 110.875 30.5358 112.774 32.4903C112.804 32.5208 113.907 32.4903 114.305 30.4442Z" fill="#263238"/>
<path d="M110.661 28.5507C111.059 28.4896 111.457 28.4896 111.824 28.6423C112.192 28.795 112.529 29.0699 112.682 29.4363C112.835 29.8028 112.804 30.2304 112.682 30.5968C112.529 30.9633 112.284 31.2992 112.008 31.5741C111.794 31.7879 111.58 31.9406 111.304 32.0322C111.028 32.1238 110.722 32.0933 110.477 31.91" fill="#FFBE9D"/>
<path d="M110.875 30.9022C110.845 30.9022 110.998 31.1465 111.365 31.0549C111.549 31.0244 111.702 30.8717 111.824 30.6884C111.916 30.5052 112.008 30.2914 112.039 30.0471C112.069 29.8028 112.008 29.5585 111.886 29.3447C111.763 29.1615 111.549 29.0393 111.365 29.0393C110.998 29.0393 110.875 29.2836 110.937 29.2836C110.967 29.3142 111.12 29.192 111.365 29.2531C111.61 29.2836 111.824 29.6196 111.763 30.0166C111.702 30.4136 111.549 30.7801 111.335 30.8717C111.059 30.9633 110.875 30.8717 110.875 30.9022Z" fill="#EB996E"/>
<path d="M115.254 65.8698V64.1901H103.496L100.036 49.1037L82.43 49.2564L86.7167 65.8698H115.254Z" fill="#263238"/>
<path d="M91.4157 55.7034C90.8046 55.9015 90.5211 56.7122 90.7824 57.5142C91.0438 58.3162 91.7511 58.8058 92.3622 58.6077C92.9733 58.4095 93.2568 57.5988 92.9955 56.7968C92.7341 55.9948 92.0268 55.5053 91.4157 55.7034Z" fill="#FAFAFA"/>
<path d="M99.2399 65.7781C98.9337 65.2284 98.6888 64.6176 98.5051 64.0068C98.4744 63.8541 98.4132 63.7014 98.4438 63.5488C98.4744 63.3961 98.5663 63.2434 98.7194 63.2128C98.995 63.1517 99.1787 63.4877 99.2705 63.7625C99.6686 64.7398 100.557 65.4727 101.567 65.6865L102.271 65.656V65.6254L117.673 64.2512L116.938 61.1972L125.083 60.5864L125.817 63.5793C126.216 67.3356 123.184 70.5423 119.418 70.4201H101.751C96.1474 70.7866 95.0757 65.8392 95.0757 65.8392L99.2399 65.7781Z" fill="#FFBE9D"/>
<path d="M78.7863 114.977L71.8357 119.252L74.3771 125.391C76.7348 123.223 78.6025 120.535 79.8273 117.542L78.7863 114.977Z" fill="#B78876"/>
<path d="M80.654 115.13C79.766 112.992 76.6735 105.907 74.1015 103.25C70.2434 99.2797 63.4153 99.8294 63.4153 99.8294L54.5663 100.135C54.5663 100.135 51.1982 100.501 48.0444 102.15L47.8301 102.211V102.242C45.3499 103.586 41.8593 106.792 38.5218 109.907L42.5023 113.603L46.9115 117.512C46.9115 117.512 46.8809 117.542 46.9115 117.603C46.9727 117.848 46.2072 122.581 45.503 126.673C49.3917 129.666 54.2908 131.438 59.5879 131.315C62.956 131.254 66.1404 130.43 68.988 129.056L69.3248 125.269C69.631 121.848 69.8454 117.603 69.8454 117.603L71.1008 120.81L80.3172 116.015C80.4703 115.74 80.5621 115.435 80.654 115.13Z" fill="#E8505B"/>
<path d="M63.6603 99.4629C63.6603 99.4629 63.6909 99.524 63.6909 99.6156C63.7215 99.7072 63.7215 99.8905 63.7521 100.074C63.7827 100.471 63.7521 101.082 63.5378 101.753C63.3235 102.425 62.8642 103.219 62.1293 103.861C61.3944 104.502 60.3534 104.929 59.2511 104.991C58.1488 105.052 57.0465 104.716 56.281 104.135C55.4849 103.555 54.995 102.822 54.6888 102.181C54.4132 101.509 54.3214 100.929 54.2907 100.501C54.2907 100.287 54.2907 100.135 54.2907 100.043C54.2907 99.9516 54.3214 99.8905 54.3214 99.8905C54.352 99.8905 54.3214 100.104 54.352 100.501C54.3826 100.898 54.4745 101.479 54.7806 102.12C55.0868 102.761 55.5768 103.464 56.3422 104.013C57.1077 104.563 58.1488 104.868 59.2205 104.807C60.2921 104.746 61.3026 104.349 62.0068 103.738C62.7111 103.128 63.1704 102.364 63.3847 101.692C63.6296 101.02 63.6603 100.44 63.6603 100.043C63.6909 99.7072 63.6603 99.4629 63.6603 99.4629Z" fill="#263238"/>
<path d="M72.0806 101.387C72.0806 101.417 71.8356 101.387 71.4682 101.54C71.0701 101.662 70.5496 101.998 70.0903 102.578C69.631 103.158 69.3248 104.013 69.233 104.991C69.1718 105.479 69.1411 105.998 69.1411 106.517C69.1105 107.067 69.1105 107.617 69.1105 108.167C69.0799 110.427 69.233 112.503 69.3861 113.969C69.4473 114.702 69.5392 115.313 69.5698 115.71C69.6004 115.893 69.6004 116.046 69.631 116.198C69.631 116.321 69.631 116.351 69.631 116.351C69.631 116.351 69.6004 116.29 69.6004 116.198C69.5698 116.076 69.5392 115.924 69.5086 115.74C69.4473 115.343 69.3555 114.733 69.2636 114C69.0799 112.503 68.9268 110.457 68.9574 108.167C68.9574 107.586 68.988 107.037 68.988 106.517C69.0187 105.968 69.0493 105.449 69.1105 104.96C69.233 103.983 69.5392 103.097 70.0291 102.517C70.519 101.937 71.0701 101.601 71.4682 101.479C71.8356 101.356 72.0806 101.387 72.0806 101.387Z" fill="#263238"/>
<path d="M51.0451 100.807C51.0451 100.807 51.0451 100.868 51.0145 100.99C50.9838 101.112 50.9226 101.265 50.892 101.479C50.7695 101.906 50.5858 102.517 50.3715 103.25C49.9428 104.746 49.361 106.823 48.8099 109.113C48.2587 111.434 47.7994 113.542 47.5239 115.069C47.3708 115.832 47.2483 116.443 47.1871 116.87C47.1564 117.084 47.1258 117.237 47.0952 117.359C47.0646 117.481 47.0646 117.542 47.0646 117.542C47.0646 117.542 47.0646 117.481 47.0646 117.359C47.0952 117.237 47.0952 117.054 47.1258 116.87C47.1871 116.443 47.2789 115.801 47.432 115.038C47.7076 113.511 48.1363 111.404 48.6874 109.083C49.2385 106.762 49.8509 104.685 50.3102 103.219C50.5552 102.486 50.7389 101.876 50.892 101.448C50.9532 101.265 51.0145 101.112 51.0451 100.959C51.0145 100.868 51.0451 100.807 51.0451 100.807Z" fill="#263238"/>
<path d="M80.5009 113.664C80.5009 113.664 80.3785 113.755 80.1335 113.939C79.8886 114.091 79.5517 114.336 79.1231 114.61C78.2657 115.16 77.041 115.924 75.6631 116.687C74.2852 117.481 73.0298 118.122 72.1113 118.611C71.652 118.855 71.2845 119.039 71.009 119.161C70.7334 119.283 70.6109 119.344 70.5803 119.344C70.5803 119.344 70.7028 119.252 70.9783 119.1C71.2539 118.947 71.6213 118.764 72.05 118.519C72.9686 118.031 74.224 117.359 75.5712 116.565C76.9491 115.771 78.1739 115.038 79.0312 114.519C79.4599 114.274 79.7967 114.061 80.0723 113.877C80.3478 113.725 80.4703 113.633 80.5009 113.664Z" fill="#263238"/>
<path d="M43.514 111.962C45.6248 113.678 47.362 115.036 47.394 114.997C47.426 114.958 45.7408 113.535 43.63 111.82C41.5192 110.105 39.782 108.747 39.75 108.786C39.7179 108.825 41.4031 110.247 43.514 111.962Z" fill="#263238"/>
<path opacity="0.2" d="M68.9881 108.777L72.448 120.138L71.162 120.81L69.9066 117.603C69.876 117.603 68.59 110.854 68.9881 108.777Z" fill="black"/>
<g opacity="0.2">
<path opacity="0.2" d="M51.4125 100.807C49.5448 101.784 54.2295 104.135 56.3423 104.074L54.8113 100.043C54.8113 100.074 52.0249 100.501 51.4125 100.807Z" fill="black"/>
</g>
<path opacity="0.2" d="M63.3235 117.298L52.2393 117.328L52.9741 113.267L64.1502 113.053L63.3235 117.298Z" fill="white"/>
<path d="M62.2518 86.3616C62.1599 86.667 62.2824 87.0335 62.5273 87.2167C62.7723 87.4305 63.1397 87.461 63.4153 87.3083C63.9358 87.0335 63.9971 86.27 63.8746 85.6898C63.7521 85.1095 63.5378 84.4682 63.7827 83.9185C63.9665 83.4909 64.3645 83.2161 64.7013 82.8801C65.2525 82.2999 65.528 81.4448 65.3749 80.6508C65.2218 79.8568 64.6095 79.1544 63.844 78.9711C63.0479 78.7574 62.0681 79.0322 61.4863 78.452C61.0576 78.0549 60.9964 77.3525 60.6596 76.8639C60.139 76.1004 59.0367 76.0088 58.1182 76.1615C57.1996 76.3142 56.281 76.6196 55.3624 76.4058C54.5969 76.2226 53.9845 75.734 53.2803 75.4286C51.7493 74.7567 49.7897 75.1843 48.6568 76.4058C47.5239 77.6274 47.2789 79.6124 48.1056 81.0783C48.3812 81.5975 48.8405 82.0861 49.3916 82.2999" fill="#263238"/>
<path d="M59.0368 104.93C56.6179 104.93 54.597 103.036 54.4745 100.654C54.3827 98.6385 54.2908 96.7145 54.2908 96.7145C54.2908 96.7145 50.5552 96.4396 50.2184 92.8055C49.8816 89.1713 49.8204 80.773 49.8204 80.773C53.9234 78.6352 58.8837 78.849 62.803 81.3227L63.1704 81.5365L63.5991 100.349C63.6297 102.883 61.5782 104.93 59.0368 104.93Z" fill="#B78876"/>
<path d="M56.924 86.3617C56.6484 86.4533 56.4953 86.7587 56.5872 87.0336C56.679 87.3084 56.9852 87.4611 57.2608 87.3695C57.5363 87.2779 57.6894 86.9725 57.5976 86.6976C57.5057 86.4228 57.1995 86.2701 56.924 86.3617Z" fill="#263238"/>
<path d="M55.883 86.545C55.9442 86.606 56.281 86.3006 56.8015 86.2701C57.3221 86.2396 57.6895 86.4839 57.7507 86.3923C57.7814 86.3617 57.7201 86.2396 57.5364 86.148C57.3833 86.0258 57.1077 85.9342 56.7709 85.9647C56.4647 85.9953 56.1891 86.1174 56.0361 86.2701C55.9136 86.4228 55.8523 86.5144 55.883 86.545Z" fill="#263238"/>
<path d="M51.3514 86.3616C51.0758 86.4532 50.9227 86.7586 51.0146 87.0335C51.1064 87.3083 51.4126 87.461 51.6882 87.3694C51.9638 87.2778 52.1169 86.9724 52.025 86.6975C51.9331 86.4227 51.6269 86.27 51.3514 86.3616Z" fill="#263238"/>
<path d="M50.2491 86.5754C50.3103 86.6365 50.6471 86.3311 51.1677 86.3006C51.6882 86.2701 52.0556 86.5144 52.1169 86.4227C52.1475 86.3922 52.0862 86.2701 51.9025 86.1784C51.7494 86.0563 51.4738 85.9647 51.137 85.9952C50.8308 86.0257 50.5553 86.1479 50.4022 86.3006C50.2797 86.4227 50.2185 86.5449 50.2491 86.5754Z" fill="#263238"/>
<path d="M54.0765 90.4845C54.0765 90.4539 53.7703 90.3929 53.2498 90.3929C53.1273 90.3929 53.0048 90.3623 53.0048 90.3012C52.9742 90.2096 53.0048 90.0875 53.0661 89.9042C53.1579 89.5683 53.2804 89.2018 53.3723 88.8659C53.8009 87.3695 54.1071 86.1479 54.0153 86.1174C53.9234 86.0868 53.5253 87.2779 53.0967 88.7743C53.0048 89.1408 52.8823 89.4767 52.7905 89.8432C52.7599 89.9958 52.668 90.1791 52.7599 90.3929C52.7905 90.4845 52.913 90.5761 53.0048 90.5761C53.0967 90.6066 53.1579 90.5761 53.2192 90.5761C53.7703 90.5761 54.0765 90.5456 54.0765 90.4845Z" fill="#263238"/>
<path d="M55.7911 90.912C54.7807 91.4007 54.2908 91.5533 53.3722 91.8282C53.3722 91.8282 54.0458 92.7138 55.0563 92.2557C56.1279 91.7671 55.7911 90.912 55.7911 90.912Z" fill="white"/>
<path d="M54.2908 96.6534C54.2908 96.6534 56.6179 96.6534 58.9756 94.9127C58.9756 94.9127 58.057 97.6306 54.352 97.6001L54.2908 96.6534Z" fill="#A36957"/>
<path d="M63.2623 85.2317C63.2623 84.9263 63.4766 84.682 63.7828 84.682C64.4564 84.6515 65.5893 84.8958 65.7424 86.7587C65.9568 89.4462 63.3235 88.8048 63.3235 88.7438C63.2929 88.6827 63.2623 86.2701 63.2623 85.2317Z" fill="#B78876"/>
<path d="M63.9053 87.6749C63.9053 87.6749 63.9665 87.7054 64.0278 87.736C64.1196 87.7665 64.2421 87.7665 64.3952 87.7054C64.6708 87.5833 64.8851 87.1252 64.8545 86.6366C64.8545 86.3923 64.7626 86.1785 64.6708 85.9647C64.5789 85.7815 64.4258 85.6593 64.3033 85.6288C64.1502 85.5982 64.0584 85.6898 64.0278 85.7815C63.9972 85.8731 64.0278 85.9036 63.9972 85.9036C63.9972 85.9036 63.9359 85.8731 63.9359 85.7509C63.9359 85.6899 63.9665 85.6288 64.0278 85.5677C64.089 85.5066 64.1809 85.4761 64.2727 85.4761C64.4871 85.4761 64.6708 85.6593 64.7932 85.8425C64.9157 86.0563 65.0076 86.3006 65.0076 86.5755C65.0382 87.1252 64.7932 87.6444 64.3952 87.797C64.2115 87.8581 64.0584 87.8276 63.9665 87.7665C63.9053 87.736 63.8747 87.7054 63.9053 87.6749Z" fill="#A36957"/>
<path d="M57.6895 85.0791C57.567 85.2318 57.169 85.1707 56.6484 85.1401C56.1279 85.1096 55.7299 85.1096 55.638 84.9569C55.5155 84.8042 56.036 84.4072 56.7097 84.4683C57.3833 84.4683 57.812 84.9264 57.6895 85.0791Z" fill="#263238"/>
<path d="M51.8413 84.9569C51.8107 85.1401 51.4738 85.2317 51.0758 85.2623C50.7084 85.2928 50.3409 85.2623 50.2797 85.079C50.2184 84.8958 50.5246 84.621 51.0145 84.5904C51.5045 84.5599 51.8719 84.8042 51.8413 84.9569Z" fill="#263238"/>
<path d="M49.3304 81.9335C49.3304 81.9335 51.535 83.0023 54.4132 81.567C56.3116 80.6203 58.4856 80.1622 58.9755 80.5592C59.4654 80.9257 59.5573 82.8802 61.425 83.4299C61.425 83.4299 61.3026 87.1251 62.7723 87.003C64.242 86.8808 63.3234 81.1394 63.3234 81.1394L59.7103 79.3682L55.7605 78.6352L52.0249 79.1544L49.1467 79.9484L49.3304 81.9335Z" fill="#263238"/>
<path d="M36.1028 88.2551C36.2253 88.4688 40.4814 103.189 40.4814 103.189L32.0305 104.349L28.1724 92.3168L36.1028 88.2551Z" fill="#455A64"/>
<path d="M40.4815 103.189L41.247 102.792L36.8378 87.8886L36.011 88.3161L40.4815 103.189Z" fill="#263238"/>
<path d="M32.2142 92.6221C32.4172 92.6221 32.5817 92.4581 32.5817 92.2557C32.5817 92.0533 32.4172 91.8892 32.2142 91.8892C32.0113 91.8892 31.8468 92.0533 31.8468 92.2557C31.8468 92.4581 32.0113 92.6221 32.2142 92.6221Z" fill="#263238"/>
<path d="M38.8892 109.907L33.3471 113.511L32.3367 100.623L32.4285 99.9822L36.1947 98.5468L35.123 95.7983C34.6025 94.5156 33.0715 93.9354 31.8467 94.5767C31.4487 94.7905 31.02 95.0042 30.6526 95.1875C29.7952 95.615 29.1522 96.4091 28.9073 97.3252C28.4786 98.9133 28.1112 100.654 28.1418 100.501L25.7229 117.054C25.7229 117.054 24.59 121.848 27.8662 124.108C30.3464 125.818 34.5106 124.017 36.7152 122.764L46.2991 116.993L38.8892 109.907Z" fill="#B78876"/>
<path d="M44.5537 42.2933L40.7875 36.5824L34.4493 40.5525L40.2057 49.3784C40.2057 49.4089 43.3595 45.9885 44.5537 42.2933Z" fill="#EB996E"/>
<path d="M21.0074 13.7695C21.3136 13.4336 20.885 12.8839 20.4563 12.7312C20.0276 12.5785 19.4765 12.4869 19.2621 12.0899C19.0172 11.6013 19.4458 11.021 19.5377 10.4713C19.6296 9.89106 19.2927 9.31081 19.1703 8.73057C19.0478 7.96708 19.3234 7.17306 19.9051 6.68443C20.4869 6.1958 21.3442 6.04311 22.0485 6.28742C22.1097 5.12693 22.9058 4.05805 24.0081 3.69158C25.1104 3.32511 26.3964 3.69158 27.1313 4.60776C27.7131 4.18021 28.2948 3.72212 28.9378 3.47781C29.6115 3.20295 30.377 3.14187 31.02 3.41673C31.663 3.69158 32.1529 4.42452 32.0304 5.12693C32.5203 4.54668 33.4389 4.42452 34.1431 4.76046C34.8474 5.09639 35.3067 5.79879 35.521 6.53174C35.7966 7.57007 35.5516 8.79164 34.7249 9.46351C33.8982 10.1354 32.4897 10.0743 31.8773 9.18866" fill="#263238"/>
<path d="M25.0798 31.3296C27.3456 31.3296 29.244 29.5583 29.3359 27.3289C29.4278 25.466 29.5196 23.6642 29.5196 23.6642C29.5196 23.6642 33.0102 23.4199 33.3164 19.9995C33.6226 16.6096 33.6839 8.7305 33.6839 8.7305C29.8258 6.71491 25.2023 6.92868 21.5586 9.24967L21.2218 9.46345L20.8237 27.0541C20.7931 29.4056 22.6915 31.3296 25.0798 31.3296Z" fill="#FFBE9D"/>
<path d="M27.0701 13.9527C27.3457 14.0443 27.4682 14.3192 27.3763 14.594C27.2845 14.8689 27.0089 14.9911 26.7333 14.8994C26.4577 14.8078 26.3353 14.533 26.4271 14.2581C26.519 14.0138 26.8252 13.8611 27.0701 13.9527Z" fill="#263238"/>
<path d="M28.0193 14.136C27.9581 14.197 27.6519 13.9222 27.162 13.8916C26.7027 13.8611 26.3353 14.0749 26.274 14.0138C26.2434 13.9833 26.3046 13.8916 26.4577 13.7695C26.6108 13.6779 26.8864 13.5862 27.162 13.5862C27.4682 13.6168 27.7131 13.7389 27.8356 13.8611C28.0193 14.0138 28.0499 14.1054 28.0193 14.136Z" fill="#263238"/>
<path d="M32.2755 13.9527C32.551 14.0443 32.6735 14.3192 32.5817 14.594C32.4898 14.8689 32.2142 14.9911 31.9386 14.8994C31.6631 14.8078 31.5406 14.533 31.6325 14.2581C31.7243 14.0138 32.0305 13.8611 32.2755 13.9527Z" fill="#263238"/>
<path d="M33.2859 14.136C33.2246 14.197 32.9184 13.9222 32.4285 13.8916C31.9692 13.8611 31.6018 14.0749 31.5406 14.0138C31.5099 13.9833 31.5712 13.8916 31.7243 13.7695C31.8774 13.6779 32.1529 13.5862 32.4285 13.5862C32.7347 13.6168 32.9797 13.7389 33.1021 13.8611C33.2859 14.0138 33.3165 14.136 33.2859 14.136Z" fill="#263238"/>
<path d="M29.7339 17.8312C29.7339 17.8006 30.0401 17.7701 30.4994 17.7396C30.6219 17.7396 30.7138 17.709 30.7444 17.6479C30.775 17.5869 30.7444 17.4342 30.6832 17.2815C30.5913 16.9761 30.4994 16.6401 30.377 16.3042C29.9789 14.8994 29.7033 13.7695 29.7646 13.7389C29.8258 13.7084 30.2239 14.8383 30.6219 16.2431C30.7138 16.5791 30.8056 16.915 30.8975 17.2204C30.9281 17.3731 30.9893 17.5258 30.9281 17.7396C30.8975 17.8312 30.775 17.8923 30.6832 17.9228C30.5913 17.9533 30.5301 17.9228 30.4688 17.9228C30.0095 17.8923 29.7339 17.8617 29.7339 17.8312Z" fill="#263238"/>
<path d="M28.1418 18.2282C29.091 18.6863 29.5197 18.839 30.4076 19.0833C30.4076 19.0833 29.7952 19.9078 28.8154 19.4803C27.805 18.9917 28.1418 18.2282 28.1418 18.2282Z" fill="white"/>
<path d="M29.5197 23.6031C29.5197 23.6031 27.3457 23.6031 25.1411 21.9846C25.1411 21.9846 25.9985 24.5193 29.4584 24.4888L29.5197 23.6031Z" fill="#EB996E"/>
<path d="M21.1299 14.4719C21.1299 14.197 20.9155 13.9527 20.64 13.9527C19.997 13.9222 18.9559 14.1665 18.8028 15.9072C18.6191 18.4115 21.0686 17.8312 21.0686 17.7701C21.0993 17.6785 21.1299 15.4492 21.1299 14.4719Z" fill="#FFBE9D"/>
<path d="M20.5481 16.7623C20.5481 16.7623 20.4869 16.7929 20.4257 16.8234C20.3644 16.854 20.2113 16.854 20.0888 16.7929C19.8439 16.6707 19.6296 16.2432 19.6602 15.7851C19.6602 15.5713 19.7214 15.3575 19.8439 15.1743C19.9358 14.9911 20.0582 14.8689 20.2113 14.8689C20.3338 14.8384 20.4257 14.93 20.4563 15.0216C20.4869 15.0827 20.4563 15.1438 20.4869 15.1438C20.4869 15.1438 20.5481 15.1132 20.5175 14.9911C20.5175 14.93 20.4869 14.8689 20.4257 14.8384C20.3644 14.7773 20.2726 14.7467 20.1807 14.7467C19.997 14.7467 19.7827 14.8994 19.6908 15.1132C19.5683 15.2965 19.5071 15.5408 19.4765 15.7851C19.4458 16.3043 19.6908 16.7929 20.0276 16.915C20.2113 16.9761 20.3644 16.9456 20.4257 16.8845C20.5481 16.8234 20.5481 16.7623 20.5481 16.7623Z" fill="#EB996E"/>
<path d="M26.3352 12.7311C26.4271 12.8838 26.8251 12.7922 27.3151 12.7922C27.805 12.7616 28.1724 12.7616 28.2643 12.6089C28.3561 12.4562 27.8968 12.0898 27.2844 12.1509C26.6414 12.1814 26.2128 12.6089 26.3352 12.7311Z" fill="#263238"/>
<path d="M31.816 12.67C31.8466 12.8533 32.1528 12.9143 32.5203 12.9449C32.8877 12.9754 33.1939 12.9449 33.2551 12.7922C33.3164 12.6395 33.0102 12.3646 32.5509 12.3341C32.1222 12.273 31.7854 12.4868 31.816 12.67Z" fill="#263238"/>
<path d="M34.1738 9.79941C34.1738 9.79941 32.0916 10.8072 29.4278 9.46348C27.6518 8.57784 25.6003 8.15029 25.1411 8.51676C24.6818 8.88323 24.5899 10.6851 22.8446 11.2042C22.8446 11.2042 22.9671 14.6552 21.5892 14.533C20.2113 14.4108 21.0687 9.03593 21.0687 9.03593L24.4674 7.38681L28.1724 6.6844L31.663 7.17303L34.3575 7.90597L34.1738 9.79941Z" fill="#263238"/>
<path d="M10.9949 29.8332C14.608 26.138 20.9768 26.535 20.9768 26.535L29.244 26.8404C29.244 26.8404 32.3978 27.1763 35.3373 28.7338L35.5516 28.7949V28.8254C37.8787 30.0775 41.1549 33.1009 44.2781 36.0022L40.5425 39.4531L36.4089 43.1178C36.4089 43.1178 36.4396 43.1484 36.4089 43.1789C36.3783 43.3927 37.0826 47.8209 37.7256 51.6688C34.0819 54.4784 29.5196 56.1276 24.5592 56.0359C21.4055 55.9749 18.4354 55.2114 15.7715 53.8982L15.4653 50.3556C15.1897 47.149 14.9754 43.1789 14.9754 43.1789" fill="#E8505B"/>
<path d="M32.5815 27.4817C32.5815 27.4817 32.6121 27.5428 32.6428 27.6344C32.6734 27.7566 32.7346 27.9093 32.7959 28.0925C32.9183 28.4895 33.1021 29.0392 33.3164 29.7416C33.7451 31.1465 34.2962 33.0704 34.8167 35.2387C35.3373 37.407 35.7353 39.3921 35.9803 40.8274C36.1027 41.5604 36.1946 42.1406 36.2558 42.5376C36.2865 42.7209 36.3171 42.8735 36.3171 42.9957C36.3171 43.0873 36.3477 43.1484 36.3171 43.1484C36.2865 43.1484 36.2865 43.0873 36.2865 42.9957C36.2558 42.8735 36.2252 42.7209 36.1946 42.5376C36.1027 42.1101 36.0109 41.5298 35.8578 40.858C35.5822 39.4226 35.1535 37.4681 34.633 35.2998C34.1125 33.1315 33.5613 31.2075 33.1633 29.8027C32.949 29.1309 32.7959 28.5506 32.6734 28.1536C32.6121 27.9704 32.5815 27.8177 32.5509 27.6955C32.5815 27.5428 32.5815 27.4817 32.5815 27.4817Z" fill="#263238"/>
<path d="M39.4909 37.7561C37.5111 39.3647 35.9322 40.7005 35.9643 40.7397C35.9963 40.779 37.6272 39.5068 39.6069 37.8982C41.5866 36.2896 43.1656 34.9538 43.1335 34.9146C43.1015 34.8753 41.4706 36.1475 39.4909 37.7561Z" fill="#263238"/>
<path opacity="0.2" d="M15.7716 34.9333L12.5565 45.561L13.7507 46.1718L14.9448 43.1789C14.9448 43.1789 16.1696 36.8573 15.7716 34.9333Z" fill="black"/>
<g opacity="0.2">
<path opacity="0.2" d="M32.2141 27.4817C33.9594 28.3979 29.5808 30.5967 27.6212 30.5356L29.0603 26.7487C29.0603 26.7793 31.6323 27.1763 32.2141 27.4817Z" fill="black"/>
</g>
<path d="M20.4562 26.7793V23.9697C20.4562 23.9697 25.9677 25.3745 26.1514 28.6728C26.1514 28.6728 26.8557 25.0386 29.7033 24.8553L30.1013 29.9554L26.7944 32.8261H23.4569L20.8237 30.5662L20.4869 27.0236" fill="#E8505B"/>
<path d="M27.4068 44.431C27.4068 44.431 27.4068 44.37 27.4068 44.2783C27.4068 44.1562 27.4068 44.0035 27.4068 43.8202C27.4068 43.4232 27.4375 42.8735 27.4375 42.1711C27.4375 40.7663 27.4068 38.8729 27.2231 36.7351C27.0394 34.6279 26.7638 32.7345 26.5189 31.3602C26.3964 30.6884 26.3045 30.1081 26.2127 29.7416C26.1821 29.5584 26.1515 29.4057 26.1208 29.3141C26.0902 29.2225 26.0902 29.1614 26.0902 29.1614C26.0902 29.1614 26.1208 29.2225 26.1515 29.3141C26.1821 29.4362 26.2127 29.5889 26.2739 29.7416C26.3658 30.1081 26.4883 30.6578 26.6107 31.3602C26.8863 32.7345 27.1619 34.6279 27.3456 36.7657C27.5293 38.8729 27.5599 40.7969 27.4987 42.2017C27.4681 42.9041 27.4681 43.4538 27.4375 43.8508C27.4375 44.034 27.4068 44.1867 27.4068 44.3089C27.4375 44.37 27.4375 44.431 27.4068 44.431Z" fill="#263238"/>
<path d="M25.9371 27.726C25.9371 27.726 25.8146 27.665 25.6003 27.7566C25.5084 27.7871 25.3859 27.8787 25.2941 28.0009C25.2022 28.123 25.1104 28.2757 25.0491 28.459C24.7123 29.1919 24.2837 30.2303 24.0081 31.5129L23.9775 31.6045L23.8856 31.5434C23.5488 31.3602 23.212 31.1159 22.8752 30.9021C22.2322 30.444 21.6198 29.9859 21.0992 29.5584C20.8237 29.3446 20.6093 29.0698 20.4869 28.7644C20.3644 28.459 20.3031 28.1841 20.3031 27.9093C20.2725 27.3901 20.3644 26.9626 20.4256 26.6877C20.4869 26.4128 20.5175 26.2601 20.5481 26.2601C20.5481 26.2601 20.5481 26.4128 20.4869 26.7182C20.4562 26.9931 20.395 27.4206 20.4256 27.9398C20.4562 28.1841 20.4869 28.459 20.6093 28.7338C20.7318 29.0087 20.9461 29.253 21.1911 29.4668C21.7116 29.8943 22.324 30.3524 22.967 30.8105C23.3038 31.0243 23.6406 31.2381 23.9775 31.4518L23.855 31.5129C24.1612 30.2303 24.5898 29.1919 24.9573 28.459C25.0491 28.2757 25.141 28.123 25.2329 28.0009C25.3247 27.8787 25.4778 27.7871 25.5697 27.7566C25.8146 27.6344 25.9371 27.726 25.9371 27.726Z" fill="#263238"/>
<path d="M29.7339 24.8553C29.7339 24.8553 29.7645 25.008 29.7645 25.2829C29.7952 25.5883 29.8258 25.9853 29.8564 26.4739C29.887 26.9931 29.9483 27.5733 30.0707 28.2452C30.1013 28.5811 30.2238 28.9171 30.132 29.3141C30.0095 29.7111 29.7339 29.9859 29.4277 30.2302C28.9991 30.5662 28.5398 30.8105 28.2029 31.1464L28.0805 31.2686V31.0853C27.9886 29.9249 27.6212 28.9476 27.2537 28.3368C26.8863 27.6955 26.6107 27.3901 26.6414 27.3596C26.6414 27.3596 26.7332 27.4206 26.8557 27.5733C26.9782 27.726 27.1619 27.9703 27.3456 28.2757C27.713 28.8865 28.1417 29.8638 28.2336 31.0548L28.1111 31.0243C28.4479 30.6578 28.9072 30.3829 29.3359 30.0775C29.6421 29.8638 29.9176 29.5889 30.0095 29.253C30.1013 28.9171 29.9789 28.5811 29.9483 28.2452C29.8564 27.5733 29.7952 26.9625 29.7645 26.4739C29.7339 25.9547 29.7339 25.5577 29.7339 25.2829C29.7033 25.008 29.7033 24.8553 29.7339 24.8553Z" fill="#263238"/>
<path d="M47.4626 25.5577C47.2483 25.8326 39.1342 36.6435 39.1342 36.6435L40.2671 37.2848L48.5955 26.5961L47.4626 25.5577Z" fill="#263238"/>
<path d="M14.853 34.1087C14.853 34.1087 23.3958 46.355 23.8857 46.5993C24.8961 47.088 36.5621 37.01 37.695 36.0633C37.8481 35.8495 38.1543 35.4219 38.7973 34.5668C38.7973 34.5668 39.7159 30.3524 40.6957 30.6883C41.6755 31.0243 40.1445 32.8261 40.7875 34.4141C41.4306 36.0022 44.37 32.2153 44.4619 31.8488L45.2274 30.8716C45.2274 30.8716 46.0235 33.101 45.9622 34.0477C45.7785 37.0405 42.9309 40.6136 42.9309 40.6136C42.9309 40.6136 30.1626 56.4024 21.4055 56.8911C18.8947 57.0438 14.3937 49.8976 11.4236 44.5532C9.61707 41.316 10.505 37.2543 13.5057 35.086L14.853 34.1087Z" fill="#FFBE9D"/>
<path d="M44.5538 34.5974C44.5232 34.5974 44.7987 34.1088 45.1049 33.498C45.4111 32.8872 45.6255 32.368 45.6561 32.3986C45.6867 32.3986 45.503 32.9483 45.1968 33.5591C44.8906 34.1393 44.5844 34.5974 44.5538 34.5974Z" fill="#EB996E"/>
<path d="M13.4138 28.123C13.4138 28.123 4.25864 31.3602 11.0561 46.7215L21.6198 40.3693L20.1195 36.7657L13.4138 28.123Z" fill="#E8505B"/>
<path d="M12.7096 28.3979C12.7096 28.3979 12.7402 28.3979 12.7708 28.3979C12.8321 28.3979 12.8933 28.3979 12.9852 28.3979C13.1689 28.3979 13.4445 28.4284 13.8119 28.52C14.1487 28.6117 14.5774 28.7644 15.006 29.0392C15.4347 29.3141 15.894 29.6805 16.3227 30.1386C17.2106 31.0548 18.0374 32.3375 18.8028 33.8339C19.5683 35.3303 20.3032 37.0405 21.0381 38.8118C21.2524 39.3615 21.4667 39.8807 21.6811 40.3693L21.7117 40.4304L21.6504 40.4609C18.5885 42.11 15.9246 43.6981 14.0568 44.8586C13.1077 45.4388 12.3728 45.9275 11.8523 46.2634C11.6073 46.4161 11.393 46.5382 11.2705 46.6604C11.148 46.752 11.0562 46.7826 11.0562 46.7826C11.0562 46.7826 11.1174 46.7215 11.2399 46.6299C11.3623 46.5382 11.5767 46.3855 11.8216 46.2329C12.3115 45.8969 13.077 45.3778 13.9956 44.7975C15.8634 43.6065 18.5273 42.0184 21.5892 40.3693L21.5586 40.4609C21.3443 39.9723 21.1299 39.4226 20.9156 38.9034C20.1807 37.1016 19.4459 35.4219 18.6804 33.9255C17.9149 32.4291 17.1188 31.1464 16.2614 30.2302C15.8328 29.7722 15.4041 29.4057 14.9754 29.1308C14.5468 28.856 14.1487 28.7033 13.8119 28.6117C13.1076 28.3673 12.7096 28.4284 12.7096 28.3979Z" fill="#263238"/>
<path d="M62.1905 72.1913C63.2558 72.1913 64.1195 71.3299 64.1195 70.2674C64.1195 69.2048 63.2558 68.3434 62.1905 68.3434C61.1251 68.3434 60.2614 69.2048 60.2614 70.2674C60.2614 71.3299 61.1251 72.1913 62.1905 72.1913Z" fill="#263238"/>
<path d="M58.3631 67.8242C60.4758 65.6254 63.9052 65.5643 66.0485 67.7326C67.0283 68.7099 68.5593 67.2135 67.5795 66.2057C64.6094 63.2128 59.7409 63.2433 56.8321 66.2973C55.8829 67.3051 57.3832 68.832 58.3631 67.8242Z" fill="#263238"/>
<path d="M51.8411 58.9373C54.75 56.4331 58.2406 54.8451 62.1292 54.8145C65.9872 54.8145 69.8147 56.1888 72.6316 58.8152C73.6421 59.7619 75.173 58.2655 74.1626 57.2882C70.917 54.2648 66.569 52.6157 62.1292 52.6462C57.6282 52.6462 53.6477 54.4786 50.3101 57.3798C49.2691 58.296 50.8001 59.823 51.8411 58.9373Z" fill="#263238"/>
<path d="M54.4132 63.8541C56.3728 61.7469 59.098 60.4337 62.0068 60.3726C64.9769 60.3116 67.8551 61.5331 69.9372 63.6404C70.917 64.6481 72.448 63.1212 71.4682 62.1134C69.0186 59.6092 65.5586 58.1127 62.0374 58.2044C58.5774 58.296 55.2399 59.7924 52.9129 62.3272C51.9637 63.335 53.464 64.8925 54.4132 63.8541Z" fill="#263238"/>
<path d="M62.221 70.8476C63.2864 70.8476 64.1501 69.9863 64.1501 68.9237C64.1501 67.8611 63.2864 66.9997 62.221 66.9997C61.1557 66.9997 60.292 67.8611 60.292 68.9237C60.292 69.9863 61.1557 70.8476 62.221 70.8476Z" fill="#455A64"/>
<path d="M58.3937 66.45C60.5064 64.2512 63.9358 64.1901 66.0791 66.3584C67.0589 67.3356 68.5899 65.8392 67.6101 64.8314C64.64 61.8386 59.7715 61.8691 56.8627 64.923C55.9135 65.9308 57.4445 67.4578 58.3937 66.45Z" fill="#455A64"/>
<path d="M51.8727 57.5631C54.7815 55.0588 58.2721 53.4708 62.1608 53.4402C66.0188 53.4402 69.8462 54.8145 72.6632 57.4409C73.6736 58.3876 75.2046 56.8912 74.1942 55.9139C70.9485 52.8905 66.6006 51.2414 62.1608 51.272C57.6597 51.272 53.6792 53.1043 50.3417 56.0056C49.3006 56.9217 50.8316 58.4487 51.8727 57.5631Z" fill="#455A64"/>
<path d="M54.4437 62.4799C56.4034 60.3727 59.1285 59.0595 62.0373 58.9984C65.0074 58.9373 67.8856 60.1589 69.9677 62.2661C70.9475 63.2739 72.4785 61.7469 71.4987 60.7391C69.0491 58.2349 65.5892 56.7385 62.0679 56.8301C58.6079 56.9217 55.2704 58.4181 52.9434 60.9529C51.9942 61.9912 53.4945 63.5182 54.4437 62.4799Z" fill="#455A64"/>
</g>
<defs>
<clipPath id="clip0">
<rect width="132" height="138.286" fill="white" transform="translate(0 0.0413208)"/>
</clipPath>
</defs>
</svg>
