<svg width="325" height="323" viewBox="0 0 325 323" fill="none" xmlns="http://www.w3.org/2000/svg">
<path d="M193.955 318.351C266.329 318.351 325 259.698 325 187.345C325 114.993 266.329 56.3392 193.955 56.3392C121.581 56.3392 62.9102 114.993 62.9102 187.345C62.9102 259.698 121.581 318.351 193.955 318.351Z" fill="#E0E0E0"/>
<path d="M201.833 184.615L190.035 227.758L146.945 169.586L157.087 322.139H218.607L236.545 323C236.545 323 233.885 298.959 232.793 285.39C232.117 274.572 230.284 263.858 227.324 253.431C218.126 223.46 201.833 184.615 201.833 184.615Z" fill="#FAFAFA"/>
<path d="M187.94 252.113C187.791 252.309 194.738 257.906 203.461 264.62C212.183 271.334 219.38 276.611 219.528 276.409C219.677 276.207 212.73 270.615 204.007 263.908C195.285 257.2 188.094 251.917 187.94 252.113Z" fill="#263238"/>
<path d="M115.115 291.706C115.269 291.706 115.411 290.103 116.154 287.628C117.099 284.402 118.707 281.408 120.874 278.837C123.041 276.267 125.721 274.176 128.742 272.699C131.057 271.547 132.631 271.138 132.595 270.989C131.16 271.093 129.76 271.478 128.474 272.123C125.271 273.495 122.433 275.596 120.187 278.259C117.94 280.922 116.348 284.074 115.536 287.462C115.121 288.835 114.978 290.277 115.115 291.706Z" fill="#263238"/>
<g opacity="0.2">
<path opacity="0.2" d="M116.979 149.932C117.946 160.596 119.985 171.136 123.065 181.392L130.742 179.142C129.285 181.486 128.329 184.105 127.934 186.836C127.54 189.567 127.716 192.349 128.45 195.009C129.952 200.313 132.187 205.381 135.089 210.069L173.191 278.498L134.78 191.311L135.777 175.195L128.385 173.61L116.979 149.932Z" fill="black"/>
</g>
<g opacity="0.2">
<path opacity="0.2" d="M132.125 269.671C127.435 269.395 122.793 270.749 118.987 273.504C115.181 276.258 112.445 280.243 111.242 284.784C110.873 285.842 110.852 286.99 111.183 288.06C111.368 288.585 111.748 289.02 112.244 289.274C112.74 289.527 113.314 289.582 113.849 289.426C114.574 288.972 115.106 288.266 115.339 287.443C117.034 283.636 119.479 280.21 122.528 277.369C125.578 274.529 129.169 272.332 133.087 270.911" fill="black"/>
</g>
<path d="M172.912 277.648C172.78 277.167 172.607 276.698 172.395 276.247L170.744 272.306L164.528 257.875C159.184 245.659 151.833 228.914 143.716 210.388C140.747 203.669 137.873 197.181 135.172 191.084L135.207 191.286C135.552 185.558 135.872 180.156 136.169 175.17V174.832L135.843 174.766L128.438 173.217L128.688 173.407L119.478 154.786L116.901 149.693L116.201 148.369C116.128 148.215 116.039 148.07 115.934 147.936C115.968 148.104 116.026 148.266 116.106 148.417L116.7 149.782L119.075 154.964L127.981 173.716L128.058 173.87L128.225 173.912L135.617 175.52L135.308 175.123L134.269 191.233V191.34L134.317 191.434L142.825 210.75L163.88 258.113C166.582 264.096 168.791 268.964 170.353 272.424L172.134 276.295C172.355 276.767 172.615 277.219 172.912 277.648Z" fill="#263238"/>
<path d="M85.9965 160.759C85.9668 160.919 87.7006 161.18 90.3132 162.148C97.1697 164.724 102.722 169.916 105.751 176.584C106.885 179.124 107.259 180.84 107.42 180.804C107.453 180.388 107.407 179.969 107.283 179.57C107.073 178.465 106.755 177.383 106.333 176.34C104.95 172.866 102.817 169.739 100.087 167.182C97.3573 164.625 94.0971 162.702 90.5388 161.548C89.4692 161.195 88.3674 160.949 87.2493 160.812C86.8389 160.714 86.4137 160.696 85.9965 160.759Z" fill="#263238"/>
<path d="M279.012 122.388C275.984 116.814 277.326 94.2994 272.665 95.083C266.727 96.098 272.207 119.765 272.581 121.919C272.956 124.074 269.838 124.608 269.613 122.649C269.28 119.83 265.813 92.2931 259.958 93.8424C256.71 94.7031 258.177 100.627 258.177 100.627C258.177 100.627 263.212 127.339 260.421 127.932C257.63 128.526 255.499 113.182 254.252 107.584C253.064 102.242 249.567 99.9089 248.237 102.74C246.289 106.895 250.018 120.329 251.14 125.724C252.263 131.12 255.036 146.726 247.459 140.629C242.581 135.971 236.052 133.439 229.308 133.589C226.796 134.569 227.342 138.421 230.258 139.187C233.333 140.334 236.239 141.892 238.897 143.817C241.003 145.388 242.924 147.195 244.621 149.201C246.884 151.69 248.716 154.539 250.042 157.63C251.122 160.063 252.706 162.239 254.69 164.015C256.673 165.79 259.011 167.124 261.549 167.929L265.973 188.96L294.604 182.828L288.221 160.574C286.778 146.223 286.423 131.783 287.159 117.378C287.129 103.132 285.27 103.019 283.632 103.399C280.021 104.26 281.963 127.832 279.012 122.388Z" fill="#FFBE9D"/>
<path d="M279.812 141.52C278.504 142.024 277.232 142.619 276.006 143.301C273.098 145.093 270.835 147.765 269.546 150.929C269.161 151.901 268.872 152.909 268.685 153.938L268.59 154.425L268.181 154.187C265.885 152.84 263.378 151.892 260.764 151.386C258.811 151 257.6 150.964 257.605 150.863C258.679 150.703 259.771 150.729 260.836 150.94C263.542 151.317 266.151 152.212 268.519 153.576L268.014 153.825C268.53 150.792 269.935 147.98 272.052 145.747C273.134 144.597 274.388 143.622 275.769 142.856C276.688 142.345 277.664 141.946 278.678 141.668C279.045 141.555 279.429 141.505 279.812 141.52Z" fill="#E09074"/>
<path d="M283.624 161.541C279.487 164.352 274.608 165.871 269.605 165.904C269.605 165.697 272.871 165.311 276.731 164.124C280.59 162.936 283.523 161.357 283.624 161.541Z" fill="#E09074"/>
<path d="M179.954 140.825L201.828 184.614L190.03 227.751L158.619 194.563L127.654 137.055L179.954 140.825Z" fill="#FFBE9D"/>
<path d="M232.818 282.059C232.805 281.579 232.751 281.1 232.657 280.629L232.064 276.551C231.47 272.924 230.644 267.825 229.623 261.568C227.462 248.86 224.499 231.444 221.233 212.205C219.036 199.615 216.976 187.803 215.218 177.747V177.7V177.658L204.732 153.914L201.734 147.278L200.92 145.539C200.835 145.33 200.728 145.131 200.6 144.945C200.643 145.162 200.713 145.374 200.807 145.574L201.514 147.355L204.317 154.08L214.5 177.973L214.47 177.89C216.192 187.951 218.217 199.769 220.366 212.365L229.018 261.681C230.158 267.92 231.084 273.001 231.743 276.616L232.527 280.664C232.58 281.137 232.677 281.604 232.818 282.059Z" fill="#263238"/>
<path d="M292.39 276.961C292.509 276.878 291.202 274.972 289.314 271.731C286.902 267.502 284.818 263.095 283.08 258.548C281.348 253.995 279.918 249.333 278.799 244.592C277.938 240.948 277.534 238.656 277.397 238.656C277.344 239.203 277.372 239.756 277.48 240.295C277.587 241.345 277.819 242.853 278.175 244.699C279.123 249.521 280.482 254.254 282.237 258.844C283.983 263.441 286.17 267.858 288.768 272.034C289.778 273.625 290.656 274.877 291.309 275.702C291.962 276.527 292.348 277.026 292.39 276.961Z" fill="#263238"/>
<g opacity="0.2">
<path opacity="0.2" d="M290.045 274.461C290.325 274.521 290.587 274.644 290.812 274.82C291.037 274.995 291.22 275.22 291.346 275.476C291.473 275.733 291.539 276.014 291.541 276.3C291.543 276.586 291.48 276.868 291.357 277.126C291.064 277.632 290.621 278.035 290.089 278.278C289.557 278.522 288.963 278.594 288.388 278.486C287.241 278.248 286.189 277.676 285.366 276.842C282.835 274.28 281.015 271.103 280.087 267.623C277.869 259.171 276.907 250.439 277.231 241.707C279.681 253.084 283.983 263.981 289.968 273.963" fill="black"/>
</g>
<g opacity="0.2">
<path opacity="0.2" d="M252.28 278.522C257.307 270.104 259.505 260.297 258.55 250.54C257.624 237.255 251.157 225.104 246.336 212.686C249.115 225.745 250.694 238.704 253.212 251.27C253.212 251.27 251.87 269.927 251.834 278.207" fill="black"/>
</g>
<g opacity="0.2">
<path opacity="0.2" d="M230.838 270.194C229.849 250.285 227.771 230.445 224.616 210.763C221.066 190.688 214.303 171.316 204.588 153.392C207.094 161.269 214.807 177.813 214.807 177.813C214.807 177.813 225.958 236.578 230.791 266.133" fill="black"/>
</g>
<path d="M113.35 37.6942C111.196 33.3848 107.529 30.0198 103.05 28.2426C98.5715 26.4654 93.5945 26.4004 89.0707 28.0602C84.6265 29.9434 80.7767 32.9967 77.9314 36.8948C75.0862 40.7929 73.3522 45.3897 72.9142 50.1953C72.1708 54.9147 73.1508 59.7438 75.6752 63.8004C77.1894 65.785 79.0924 67.4402 81.268 68.6649C83.4435 69.8896 85.8459 70.6581 88.3285 70.9235C92.7581 71.5454 97.2735 70.9774 101.411 69.2778C105.548 67.5781 109.159 64.8081 111.871 61.2523C114.583 57.6964 116.3 53.483 116.845 49.0445C117.39 44.606 116.743 40.1025 114.971 35.9966" fill="#263238"/>
<path d="M76.5781 38.8819C76.7237 39.3132 76.9449 39.7152 77.2313 40.0691C77.9232 41.079 78.6998 42.0283 79.5529 42.9065C82.3876 45.8377 85.8775 48.0547 89.7359 49.3755C93.5943 50.6963 97.711 51.0833 101.748 50.5045C102.957 50.3356 104.149 50.0635 105.311 49.6912C105.753 49.593 106.174 49.4139 106.552 49.1629C106.504 49.0145 104.687 49.5903 101.665 49.8693C97.7333 50.2561 93.7646 49.7926 90.0281 48.5103C86.2916 47.228 82.875 45.1568 80.0101 42.4375C77.7894 40.3599 76.7088 38.7869 76.5781 38.8819Z" fill="#455A64"/>
<path d="M72.7368 49.0199C72.7012 49.0733 73.0516 49.3997 73.7285 49.9577C74.6761 50.7339 75.6674 51.4552 76.6973 52.1183C80.1403 54.3692 83.9624 55.9781 87.9789 56.8671C90.1995 57.3171 92.4663 57.4964 94.73 57.4013C96.575 57.3049 98.4033 57.0023 100.181 56.4991C101.378 56.1744 102.542 55.7412 103.66 55.2051C104.09 55.0448 104.491 54.8163 104.848 54.5284C104.777 54.3681 103.019 55.1813 100.032 55.8877C98.277 56.2861 96.4877 56.5166 94.6885 56.5763C92.4962 56.6175 90.306 56.4184 88.157 55.9826C84.2473 55.1008 80.4978 53.6191 77.0417 51.5901C74.3876 50.0349 72.8259 48.9071 72.7368 49.0199Z" fill="#455A64"/>
<path d="M206.744 64.2697C228.12 17.2631 177.269 -6.36797 149.523 1.48527C123.444 8.84583 112.323 21.8218 108.03 39.2557C103.352 56.7553 104.316 75.2842 110.785 92.2042C114.152 100.396 120.226 108.718 129.026 109.745" fill="#263238"/>
<path d="M181.205 180.447C181.573 157.985 181.835 127.136 181.846 127.267C181.846 127.267 201.156 124.062 205.158 98.8695C206.802 82.294 206.903 65.6019 205.461 49.0077C204.505 33.8948 194.494 15.3568 179.43 16.9536L132.403 28.8254C130.196 29.0584 128.157 30.1112 126.689 31.7755C125.221 33.4397 124.431 35.5941 124.476 37.8125L127.54 135.061" fill="#FFBE9D"/>
<path d="M193.925 66.9176C193.945 67.7549 193.636 68.5664 193.064 69.1788C192.493 69.7912 191.704 70.1557 190.867 70.1942C190.459 70.2324 190.047 70.1882 189.656 70.0643C189.266 69.9405 188.904 69.7396 188.592 69.4733C188.28 69.2071 188.025 68.881 187.842 68.5143C187.658 68.1477 187.55 67.7481 187.524 67.339C187.505 66.5027 187.813 65.6919 188.383 65.0797C188.953 64.4675 189.741 64.1024 190.576 64.0624C190.985 64.0242 191.397 64.0683 191.788 64.1921C192.179 64.3158 192.542 64.5167 192.854 64.7829C193.166 65.0491 193.422 65.3751 193.606 65.7417C193.79 66.1084 193.898 66.5083 193.925 66.9176Z" fill="#263238"/>
<path d="M159.076 66.9176C159.095 67.7549 158.786 68.5664 158.215 69.1788C157.643 69.7912 156.855 70.1557 156.018 70.1942C155.609 70.2324 155.198 70.1882 154.807 70.0643C154.416 69.9405 154.054 69.7396 153.742 69.4733C153.43 69.2071 153.175 68.881 152.992 68.5143C152.809 68.1477 152.701 67.7481 152.675 67.339C152.655 66.5027 152.963 65.6919 153.534 65.0797C154.104 64.4675 154.891 64.1024 155.727 64.0624C156.135 64.0242 156.547 64.0683 156.939 64.1921C157.33 64.3158 157.692 64.5167 158.004 64.7829C158.316 65.0491 158.572 65.3751 158.756 65.7417C158.94 66.1084 159.049 66.5083 159.076 66.9176Z" fill="#263238"/>
<path d="M179.935 84.7485C181.768 84.1763 183.665 83.8353 185.582 83.7334C186.467 83.6385 187.31 83.4663 187.458 82.8608C187.533 81.9424 187.326 81.0228 186.864 80.2253C186.033 78.0844 185.158 75.8327 184.24 73.4702C181.801 67.7443 179.829 61.8307 178.344 55.7871C181.231 61.3063 183.673 67.0467 185.647 72.9538C186.526 75.3282 187.365 77.5937 188.165 79.7504C188.724 80.8214 188.888 82.055 188.628 83.2348C188.499 83.5479 188.3 83.8275 188.047 84.0527C187.794 84.2779 187.493 84.4427 187.167 84.5348C186.675 84.6684 186.169 84.7383 185.659 84.7425C183.759 84.9906 181.835 84.9926 179.935 84.7485Z" fill="#263238"/>
<path d="M181.906 127.374C170.042 127.553 158.361 124.438 148.162 118.375C148.162 118.375 156.689 135.898 181.906 133.541V127.374Z" fill="#E09074"/>
<path d="M129.288 69.6116C128.92 69.4335 115.797 63.6342 115.631 78.7114C115.466 80.6002 115.777 82.5002 116.535 84.238C117.294 85.9757 118.476 87.4956 119.974 88.6588C121.472 89.8219 123.237 90.5911 125.109 90.8962C126.981 91.2013 128.899 91.0325 130.689 90.4052C130.731 89.9778 129.288 69.6116 129.288 69.6116Z" fill="#FFD2BE"/>
<path d="M126.146 84.6354C126.081 84.5879 125.885 84.8194 125.44 85.0153C124.81 85.271 124.105 85.271 123.474 85.0153C122.505 84.3875 121.72 83.5139 121.198 82.4836C120.677 81.4534 120.438 80.3032 120.506 79.1506C120.482 77.8584 120.746 76.5772 121.278 75.3991C121.425 74.929 121.684 74.5014 122.032 74.153C122.381 73.8046 122.808 73.5458 123.279 73.3987C123.581 73.3239 123.901 73.3563 124.182 73.4905C124.464 73.6247 124.69 73.8524 124.822 74.1347C125.018 74.5621 124.917 74.8589 125 74.8885C125.084 74.9182 125.327 74.6393 125.208 74.016C125.125 73.6391 124.916 73.3018 124.615 73.0603C124.202 72.7435 123.682 72.6007 123.166 72.6626C122.546 72.7797 121.966 73.0533 121.482 73.4575C120.998 73.8616 120.625 74.3829 120.399 74.9717C119.742 76.2714 119.413 77.7124 119.443 79.1684C119.36 80.506 119.673 81.8384 120.342 82.9996C121.011 84.1607 122.008 85.0992 123.207 85.698C123.612 85.82 124.039 85.8492 124.456 85.7834C124.873 85.7176 125.271 85.5585 125.618 85.318C126.093 85.0093 126.2 84.6711 126.146 84.6354Z" fill="#E09074"/>
<path d="M178.908 94.4356C178.46 95.743 177.828 96.98 177.032 98.1099C176.629 98.6716 176.112 99.1415 175.514 99.4884C174.916 99.8353 174.252 100.051 173.564 100.122C172.827 100.125 172.1 99.941 171.453 99.5882C170.805 99.2354 170.257 98.7249 169.859 98.104C169.078 96.8457 168.716 95.3722 168.826 93.8954C168.885 92.5657 169.497 90.9809 170.815 90.8265C171.37 90.8075 171.921 90.9279 172.418 91.1767L179.353 93.9903" fill="#E09074"/>
<path d="M176.136 100.177C174.885 100.253 173.631 100.098 172.437 99.7195C171.224 99.2447 170.229 98.3403 169.64 97.1788C169.308 96.4705 169.128 95.7001 169.112 94.9178C169.097 94.1355 169.247 93.3587 169.551 92.6379C169.706 92.2707 169.905 91.9239 170.145 91.605C170.424 91.3142 170.37 91.326 170.673 91.3735C170.976 91.421 171.409 91.6644 171.784 91.8068L172.924 92.2699C174.408 92.8634 175.75 93.3977 176.884 93.8191C178.077 94.3915 179.35 94.7759 180.66 94.9588C179.628 94.1317 178.469 93.4762 177.228 93.0177C176.136 92.4894 174.853 91.8781 173.369 91.237L172.247 90.7324C171.835 90.5346 171.413 90.3602 170.982 90.2101C170.643 90.1079 170.281 90.1183 169.949 90.2398C169.648 90.3683 169.386 90.5728 169.189 90.8333C168.869 91.2352 168.606 91.6785 168.405 92.1511C168.031 93.0342 167.857 93.9889 167.894 94.9471C167.93 95.9053 168.178 96.8436 168.619 97.6953C169.37 99.0729 170.636 100.097 172.14 100.545C173.112 100.855 174.151 100.894 175.144 100.657C175.839 100.479 176.166 100.242 176.136 100.177Z" fill="#263238"/>
<path d="M112.371 59.2889C113.914 59.1761 126.372 60.7907 125.392 83.9409C124.477 105.565 109.301 100.805 104.456 92.6667C99.8716 84.95 97.2234 60.3514 112.371 59.2889Z" fill="#455A64"/>
<path d="M104.669 62.0203C104.705 61.8245 104.723 61.6259 104.723 61.4268L104.8 59.646L104.984 53.0512C105.097 47.3646 105.257 39.4638 105.441 30.3462L105.156 30.6192H111.581L111.296 30.3284L111.147 35.7123C110.933 44.4025 110.732 52.4932 110.553 59.2661V59.4619L110.743 59.5095C113.375 60.1199 115.712 61.6241 117.358 63.7655C118.605 65.4312 119.504 67.3308 120 69.3512C120.343 70.6466 120.571 71.9694 120.683 73.3045C120.725 73.7675 120.748 74.1237 120.76 74.3612C120.757 74.4848 120.769 74.6084 120.796 74.7292C120.827 74.6092 120.842 74.4852 120.837 74.3612C120.837 74.1237 120.837 73.7676 120.837 73.2986C120.785 71.9462 120.6 70.6022 120.285 69.286C119.819 67.2097 118.935 65.2504 117.685 63.5281C116.003 61.282 113.59 59.6928 110.862 59.0346L111.052 59.278C111.248 52.5051 111.48 44.4381 111.729 35.73L111.872 30.3403V30.0435H111.575H105.15H104.877V30.3165C104.776 39.4401 104.693 47.3407 104.628 53.0274V59.6222V61.403C104.619 61.6097 104.633 61.8167 104.669 62.0203Z" fill="#455A64"/>
<path d="M112.371 30.346C117.035 20.556 124.776 12.561 134.411 7.58177C140.344 4.62077 146.579 2.30819 153.008 0.684195C144.845 -0.294368 136.577 1.22913 129.299 5.053C122.415 7.7249 116.296 12.0535 111.486 17.655C108.609 21.4584 106.461 25.7612 105.15 30.346H112.371Z" fill="#455A64"/>
<path d="M114.028 99.1322C114.18 99.1143 114.329 99.0701 114.467 99.0016C114.881 98.8421 115.279 98.6433 115.654 98.4079C117.002 97.5217 118.12 96.3272 118.914 94.9235C120.061 92.8293 120.745 90.5137 120.921 88.1328C121.171 85.2553 121.171 82.3616 120.921 79.4841C120.677 76.6063 120.196 73.7534 119.484 70.9542C118.981 68.6371 118.143 66.4056 116.996 64.3297C116.188 62.9336 115.063 61.7463 113.713 60.8632C113.337 60.6277 112.939 60.4289 112.525 60.2695C112.388 60.1999 112.239 60.1576 112.086 60.1449C112.086 60.1924 112.68 60.4061 113.558 61.0412C114.821 61.965 115.864 63.1545 116.616 64.5257C117.687 66.5858 118.47 68.7827 118.944 71.0551C119.618 73.8333 120.076 76.6593 120.316 79.5079C120.561 82.3514 120.573 85.2102 120.351 88.0556C120.207 90.3722 119.584 92.6338 118.522 94.698C117.782 96.0734 116.746 97.2675 115.488 98.1943C114.598 98.8828 114.004 99.0787 114.028 99.1322Z" fill="#263238"/>
<path d="M163.046 102.363L174.198 104.551C176.003 104.905 177.754 103.729 178.108 101.924L178.133 101.796C178.488 99.9913 177.311 98.2412 175.506 97.887L164.354 95.6991C162.549 95.3449 160.798 96.5208 160.444 98.3256L160.419 98.4537C160.065 100.258 161.241 102.009 163.046 102.363Z" fill="#455A64"/>
<path d="M162.021 97.3861L109.08 80.7655C108.451 80.5695 107.77 80.6298 107.185 80.9333C106.6 81.2368 106.159 81.7588 105.957 82.3859C105.854 82.7073 105.817 83.0463 105.849 83.3824C105.881 83.7184 105.98 84.0445 106.142 84.3409C106.304 84.6373 106.524 84.8978 106.789 85.1066C107.054 85.3155 107.359 85.4683 107.685 85.5558L161.819 100.176L162.021 97.3861Z" fill="#455A64"/>
<path d="M122.893 90.0904C122.327 89.8436 121.741 89.6451 121.142 89.4968L116.297 88.0247C114.266 87.3955 111.772 86.7306 109.136 85.8699C108.49 85.6382 107.899 85.2743 107.402 84.8015C106.925 84.3078 106.658 83.6478 106.66 82.9613C106.659 82.6261 106.764 82.2993 106.961 82.0274C107.157 81.7556 107.434 81.5527 107.752 81.4477C108.48 81.2624 109.245 81.285 109.961 81.513L125.838 86.6179L130.672 88.1137C131.251 88.3201 131.847 88.477 132.453 88.5826C131.895 88.3097 131.318 88.0795 130.725 87.8941L125.975 86.2261C121.926 84.8489 116.368 82.9495 110.115 80.9491C109.29 80.6928 108.409 80.6762 107.574 80.9015C107.147 81.0488 106.776 81.3248 106.512 81.6916C106.249 82.0583 106.105 82.4978 106.102 82.9494C106.102 83.7879 106.43 84.593 107.016 85.1932C107.572 85.7216 108.234 86.1262 108.958 86.3804C111.695 87.247 114.135 87.8466 116.196 88.4283L121.088 89.7223C121.679 89.8922 122.283 90.0152 122.893 90.0904Z" fill="#263238"/>
<path d="M150.674 59.5202C151.078 60.1613 154.706 58.1846 159.201 58.9919C163.696 59.7992 166.463 62.8205 167.062 62.3575C167.347 62.1617 167.062 61.0397 165.845 59.6804C164.204 57.9226 162.033 56.7492 159.663 56.3387C157.293 55.9283 154.854 56.3034 152.717 57.407C151.126 58.2855 150.472 59.2353 150.674 59.5202Z" fill="#E09074"/>
<path d="M151.186 60.0848C152.028 59.9382 152.857 59.7298 153.668 59.4615C155.628 59.0004 157.668 58.9907 159.632 59.4328C161.597 59.875 163.436 60.7576 165.009 62.014C166.232 62.9697 166.867 63.7235 166.98 63.6344C167.093 63.5454 166.6 62.6669 165.425 61.5331C163.861 60.0554 161.928 59.0263 159.829 58.5542C157.73 58.082 155.542 58.1842 153.496 58.8501C151.946 59.3724 151.133 59.9958 151.186 60.0848Z" fill="#263238"/>
<path d="M148.863 49.9645C149.231 51.1517 153.079 51.0804 157.657 51.3C162.235 51.5196 166.106 51.7928 166.563 50.6056C166.759 50.012 165.969 49.1453 164.402 48.3559C162.355 47.3959 160.131 46.8685 157.87 46.8066C155.602 46.6882 153.334 47.0481 151.214 47.8631C149.552 48.5398 148.703 49.3768 148.863 49.9645Z" fill="#263238"/>
<path d="M186.83 62.1807C187.18 62.3766 187.863 61.7296 188.95 60.9936C190.32 60.037 191.889 59.4037 193.54 59.1415C197.441 58.4945 200.576 60.3287 201.027 59.6698C201.235 59.3968 200.707 58.4827 199.323 57.6398C197.457 56.5378 195.266 56.1182 193.124 56.4526C190.946 56.7572 188.97 57.8905 187.608 59.6164C186.628 60.9698 186.533 62.0264 186.83 62.1807Z" fill="#E09074"/>
<path d="M186.409 64.0556C186.527 64.1328 187.109 63.2661 188.332 62.1858C189.904 60.7714 191.817 59.7915 193.883 59.3428C195.949 58.8941 198.096 58.9922 200.113 59.6274C201.674 60.1023 202.565 60.6424 202.642 60.5237C202.72 60.405 201.924 59.6927 200.327 59.0279C198.218 58.1674 195.899 57.9649 193.673 58.4469C191.448 58.929 189.42 60.0731 187.857 61.7287C186.711 62.999 186.32 64.0081 186.409 64.0556Z" fill="#263238"/>
<path d="M184.84 51.4713C185.066 52.7059 188.741 53.0621 193.106 53.1155C197.47 53.1689 201.151 52.8366 201.418 51.6019C201.686 50.3672 197.998 48.6339 193.159 48.6339C188.32 48.6339 184.609 50.2663 184.84 51.4713Z" fill="#263238"/>
<path d="M144.173 15.7795C147.102 19.7462 149.427 24.125 151.072 28.7732C151.88 31.1048 152.167 33.5854 151.911 36.0398C151.656 38.4942 150.865 40.8626 149.594 42.9779C146.51 46.5646 142.625 49.375 138.253 51.1814C136.075 52.0937 134.112 53.4518 132.491 55.1684C130.871 56.8849 129.627 58.9218 128.841 61.1479C128.521 62.5903 129.138 67.6121 128.052 68.6152C127.638 68.8963 127.172 69.0899 126.681 69.1842C126.19 69.2786 125.685 69.2716 125.197 69.1638C124.708 69.0559 124.247 68.8495 123.842 68.5572C123.436 68.2648 123.095 67.8927 122.838 67.4637C121.652 64.5276 121.014 61.3991 120.956 58.2332L120.689 39.4045C120.245 34.0932 121.031 28.7512 122.987 23.793C126.211 17.0914 132.885 14.9485 142.629 15.4233" fill="#263238"/>
<path d="M206.033 53.5314C205.293 47.1324 202.83 41.0539 198.908 35.9432C194.921 30.839 189.176 27.4006 182.793 26.2974C176.372 26.0345 169.942 26.4323 163.602 27.4845C160.42 27.9697 157.165 27.6066 154.168 26.432C151.17 25.2574 148.536 23.3128 146.531 20.7947C145.923 19.9972 145.576 19.0305 145.54 18.028C145.504 17.0255 145.78 16.0364 146.329 15.1971C146.868 14.6638 147.508 14.244 148.212 13.9625C156.732 9.82259 166.282 8.27853 175.674 9.52237C185.098 10.8286 193.686 15.63 199.733 22.9732C202.689 26.6502 204.773 30.9488 205.829 35.5463C206.886 40.1439 206.886 44.9209 205.831 49.5187" fill="#263238"/>
<path d="M209.868 44.0756C210.004 43.815 210.106 43.5377 210.171 43.2506C210.407 42.449 210.576 41.6288 210.675 40.799C211.063 37.7237 210.769 34.6007 209.814 31.6517C208.413 27.2502 205.787 23.3385 202.244 20.3735C197.88 16.7763 192.631 14.4166 187.043 13.5412C181.488 12.6988 175.821 12.955 170.364 14.295C167.994 14.8533 165.66 15.557 163.376 16.4023C161.22 17.1918 159.296 18.0644 157.438 18.5571C154.525 19.3536 151.492 19.623 148.484 19.3525C147.403 19.1271 146.396 18.633 145.557 17.916C145.71 18.1722 145.911 18.3959 146.15 18.5748C146.806 19.1249 147.584 19.5097 148.419 19.6968C151.488 20.1165 154.609 19.9371 157.61 19.1684C159.522 18.6995 161.487 17.8507 163.613 17.1028C165.879 16.3001 168.191 15.6321 170.537 15.1023C175.892 13.8347 181.441 13.607 186.883 14.4315C192.326 15.2731 197.448 17.5426 201.727 21.0086C205.189 23.8617 207.786 27.6236 209.227 31.8713C210.206 34.7312 210.588 37.7618 210.349 40.7752C210.141 42.9003 209.779 44.0519 209.868 44.0756Z" fill="#455A64"/>
<path d="M181.995 4.45852C181.487 4.2697 180.951 4.16541 180.41 4.14984C178.947 4.00393 177.473 4.00393 176.01 4.14984C171.124 4.6138 166.473 6.46772 162.608 9.49215C160.37 11.2729 158.511 13.1962 156.528 14.5377C154.763 15.7074 152.783 16.5144 150.703 16.9121C149.311 17.2378 147.876 17.3361 146.452 17.203C145.455 17.0783 144.944 16.8112 144.908 16.8825C145.324 17.2493 145.842 17.4812 146.393 17.5473C147.856 17.8306 149.359 17.8306 150.822 17.5473C153.017 17.2336 155.12 16.4566 156.991 15.2679C159.087 13.8967 160.993 11.9615 163.161 10.2401C166.91 7.31626 171.369 5.44168 176.081 4.80869C179.697 4.29226 181.983 4.63067 181.995 4.45852Z" fill="#455A64"/>
<path d="M105.727 50.7067C105.805 50.7423 106.072 50.1131 106.802 49.1396C107.878 47.8124 109.251 46.757 110.81 46.0588C113.124 45.0276 115.64 44.5247 118.173 44.5867C121.307 44.7568 124.421 45.1877 127.483 45.8749C130.615 46.5583 133.826 46.8 137.025 46.5931C139.638 46.3654 142.202 45.7472 144.631 44.7589C146.264 44.1049 147.818 43.2686 149.263 42.2658C149.816 41.9327 150.318 41.5207 150.753 41.043C148.711 42.2317 146.588 43.2751 144.4 44.1653C142.005 45.0445 139.498 45.584 136.954 45.768C133.83 45.9229 130.699 45.6614 127.643 44.9904C124.532 44.2932 121.365 43.8799 118.179 43.7557C115.529 43.7324 112.911 44.3258 110.531 45.489C108.917 46.2723 107.534 47.4606 106.517 48.9378C106.257 49.3424 106.038 49.7719 105.864 50.22C105.745 50.5286 105.698 50.6948 105.727 50.7067Z" fill="#455A64"/>
<path d="M108.457 38.6089C108.528 38.6446 108.79 38.0154 109.532 37.1012C110.618 35.8354 112.001 34.8586 113.557 34.258C115.883 33.4053 118.384 33.1402 120.837 33.4863C123.634 33.7593 126.644 34.6082 129.91 35.2136C133.004 35.9305 136.226 35.8816 139.297 35.0712C141.783 34.2977 144.031 32.9045 145.829 31.0228C147.041 29.7811 148.013 28.3261 148.697 26.7312C148.886 26.3014 149.039 25.8567 149.154 25.4015C149.237 25.0929 149.267 24.9267 149.237 24.9148C148.288 27.0112 146.982 28.9272 145.378 30.5776C143.605 32.3043 141.439 33.5736 139.066 34.2757C136.116 35.0026 133.035 35.0209 130.076 34.3292C126.876 33.7356 123.812 32.8986 120.92 32.6611C118.34 32.3401 115.72 32.6898 113.314 33.6762C111.694 34.3566 110.292 35.4672 109.259 36.8876C108.856 37.388 108.581 37.9787 108.457 38.6089Z" fill="#455A64"/>
<path d="M173.183 211.285C173.086 211.185 172.981 211.093 172.868 211.012C172.655 210.84 172.316 210.602 171.901 210.258C170.674 209.258 169.502 208.192 168.391 207.064C166.62 205.253 164.964 203.332 163.433 201.312C161.617 198.938 159.675 196.142 157.555 193.002C153.304 186.71 148.328 179.053 143.049 170.214C140.407 165.798 137.705 161.091 134.938 156.122L132.866 152.347C132.194 151.023 131.399 149.765 130.491 148.589C129.541 147.379 128.272 146.458 126.828 145.93C126.086 145.639 125.281 145.551 124.494 145.675C124.076 145.767 123.692 145.973 123.384 146.268C123.097 146.591 122.893 146.978 122.79 147.396V147.479V147.568C122.964 148.09 123.241 148.573 123.603 148.987C124 149.41 124.54 149.67 125.117 149.717C126.204 149.718 127.26 149.354 128.116 148.684C129.044 148.053 129.735 147.132 130.083 146.065C130.43 144.998 130.413 143.846 130.034 142.79C129.651 141.705 128.864 140.81 127.837 140.291C126.831 139.769 125.676 139.608 124.565 139.834C123.985 139.925 123.437 140.161 122.972 140.522C122.508 140.882 122.143 141.354 121.911 141.894C121.798 142.205 121.775 142.542 121.843 142.866C121.911 143.19 122.069 143.488 122.297 143.728C122.727 144.145 123.263 144.437 123.847 144.571C124.828 144.794 125.856 144.689 126.771 144.27C127.687 143.852 128.439 143.144 128.912 142.256C129.379 141.339 129.485 140.279 129.209 139.288C128.959 138.317 128.423 137.444 127.671 136.783C126.936 136.111 125.976 135.739 124.981 135.738C124.48 135.745 123.989 135.87 123.546 136.103C123.103 136.336 122.722 136.671 122.434 137.08C122.135 137.528 122.022 138.075 122.119 138.605C122.165 138.867 122.262 139.117 122.406 139.34C122.55 139.563 122.737 139.755 122.956 139.905C123.362 140.183 123.829 140.36 124.318 140.421C124.806 140.482 125.302 140.425 125.765 140.255C126.209 140.06 126.608 139.772 126.934 139.412C127.261 139.052 127.507 138.628 127.659 138.166C127.965 137.289 128.108 136.364 128.08 135.435C128.129 133.608 127.657 131.805 126.721 130.235C126.213 129.455 125.449 128.878 124.559 128.603C124.114 128.506 123.655 128.497 123.206 128.578C122.758 128.658 122.33 128.826 121.947 129.072C121.536 129.305 121.197 129.646 120.966 130.059C120.736 130.471 120.623 130.939 120.64 131.411C120.696 131.878 120.89 132.319 121.196 132.676C121.503 133.033 121.909 133.291 122.362 133.417C122.787 133.559 123.239 133.596 123.68 133.524C124.122 133.453 124.54 133.276 124.898 133.008C125.584 132.451 126.039 131.66 126.174 130.788C126.314 129.95 126.241 129.09 125.961 128.288C125.759 127.5 125.472 126.736 125.106 126.009C124.74 125.274 124.174 124.656 123.473 124.228C122.796 123.811 122.032 123.553 121.24 123.474C120.827 123.414 120.406 123.47 120.023 123.635C119.66 123.83 119.347 124.106 119.108 124.442C118.872 124.775 118.701 125.149 118.604 125.546C118.49 125.969 118.543 126.42 118.752 126.804C118.981 127.145 119.308 127.407 119.691 127.555C120.073 127.704 120.491 127.732 120.89 127.636C121.638 127.51 122.327 127.153 122.861 126.615C123.89 125.574 124.493 124.188 124.553 122.727C124.658 121.322 124.286 119.922 123.496 118.755C123.112 118.197 122.611 117.727 122.03 117.378C121.452 117.059 120.807 116.882 120.148 116.862C119.491 116.823 118.841 117.016 118.313 117.408C118.049 117.614 117.841 117.881 117.705 118.186C117.569 118.492 117.511 118.826 117.535 119.159C117.626 119.777 117.918 120.348 118.365 120.784C118.813 121.221 119.391 121.499 120.011 121.575C120.586 121.606 121.158 121.473 121.66 121.19C122.162 120.907 122.573 120.487 122.843 119.978C123.398 119.056 123.646 117.981 123.55 116.909C123.192 115.07 122.559 113.295 121.674 111.644L119.791 107.364L117.167 101.428L116.466 99.897C116.391 99.7222 116.305 99.5518 116.211 99.3865C116.211 99.3865 116.27 99.5705 116.413 99.9207L117.06 101.476L119.584 107.412L121.418 111.709C122.277 113.335 122.888 115.079 123.229 116.886C123.307 117.883 123.07 118.879 122.552 119.735C122.312 120.183 121.95 120.554 121.507 120.805C121.065 121.056 120.561 121.177 120.053 121.154C119.522 121.084 119.029 120.845 118.645 120.473C118.261 120.101 118.007 119.615 117.921 119.088C117.906 118.82 117.955 118.553 118.066 118.309C118.177 118.065 118.345 117.852 118.556 117.687C119.016 117.357 119.577 117.197 120.142 117.236C120.734 117.257 121.312 117.42 121.828 117.711C122.352 118.029 122.802 118.456 123.146 118.963C123.874 120.046 124.213 121.343 124.108 122.643C124.045 123.984 123.486 125.253 122.54 126.205C122.074 126.675 121.472 126.986 120.819 127.095C120.516 127.175 120.196 127.161 119.901 127.055C119.606 126.949 119.351 126.756 119.168 126.502C119.056 126.197 119.029 125.868 119.087 125.548C119.145 125.229 119.288 124.931 119.5 124.685C119.693 124.415 119.945 124.192 120.237 124.032C120.541 123.909 120.874 123.87 121.199 123.92C121.924 123.976 122.623 124.218 123.229 124.621C123.835 125.024 124.328 125.575 124.66 126.223C125.005 126.914 125.274 127.64 125.462 128.389C125.719 129.114 125.789 129.892 125.664 130.651C125.547 131.391 125.16 132.062 124.577 132.533C124.286 132.75 123.946 132.893 123.587 132.95C123.228 133.007 122.861 132.976 122.517 132.859C122.164 132.767 121.848 132.572 121.608 132.297C121.369 132.023 121.218 131.683 121.175 131.322C121.175 130.957 121.274 130.599 121.461 130.285C121.648 129.972 121.916 129.714 122.238 129.541C122.56 129.333 122.919 129.191 123.296 129.123C123.673 129.055 124.06 129.062 124.435 129.143C125.191 129.385 125.84 129.882 126.269 130.55C127.134 132.025 127.566 133.714 127.516 135.424C127.542 136.279 127.412 137.132 127.13 137.94C127.009 138.33 126.808 138.69 126.539 138.996C126.27 139.303 125.939 139.55 125.569 139.721C125.193 139.855 124.791 139.899 124.396 139.851C124 139.803 123.621 139.663 123.289 139.442C123.131 139.334 122.996 139.196 122.892 139.035C122.788 138.875 122.716 138.696 122.682 138.508C122.647 138.32 122.65 138.127 122.69 137.94C122.73 137.753 122.806 137.575 122.915 137.418C123.155 137.089 123.47 136.82 123.833 136.634C124.195 136.447 124.597 136.348 125.005 136.344C125.854 136.35 126.671 136.671 127.297 137.246C127.999 137.785 128.493 138.551 128.695 139.413C128.896 140.276 128.794 141.181 128.403 141.976C128.013 142.771 127.36 143.406 126.554 143.774C125.748 144.142 124.84 144.22 123.983 143.995C123.505 143.893 123.065 143.658 122.713 143.318C122.556 143.162 122.449 142.964 122.403 142.748C122.358 142.532 122.377 142.307 122.457 142.101C122.659 141.658 122.969 141.273 123.358 140.979C123.746 140.686 124.202 140.494 124.684 140.422C125.661 140.206 126.683 140.348 127.565 140.82C128.448 141.293 129.131 142.065 129.494 142.998C129.828 143.931 129.843 144.95 129.534 145.893C129.225 146.835 128.612 147.648 127.789 148.204C127.041 148.795 126.119 149.123 125.165 149.136C124.716 149.066 124.299 148.861 123.97 148.548C123.641 148.235 123.416 147.829 123.324 147.384V147.551C123.386 147.231 123.54 146.936 123.767 146.702C123.993 146.468 124.283 146.305 124.601 146.233C125.289 146.133 125.991 146.215 126.638 146.47C127.986 146.962 129.17 147.819 130.058 148.946C130.939 150.092 131.713 151.318 132.367 152.608L134.446 156.383C137.213 161.358 139.95 166.059 142.61 170.469C147.954 179.296 152.936 186.936 157.228 193.21C159.378 196.344 161.343 199.146 163.166 201.52C164.717 203.536 166.401 205.446 168.207 207.236C169.718 208.758 171.386 210.116 173.183 211.285Z" fill="#263238"/>
<path d="M34.83 98.7404C45.1789 104.364 53.4993 113.095 58.6164 123.701C47.1351 126.323 35.1201 125.274 24.2669 120.703C8.23511 112.987 -2.45277 101.809 0.486387 95.7427C3.42555 89.6762 18.7804 91.0237 34.83 98.7404Z" fill="#E0E0E0"/>
<path d="M77.6184 98.289C78.7881 105.503 77.42 112.9 73.747 119.219C67.6217 115.231 63.0684 109.245 60.8622 102.278C58.3743 91.8189 60.1022 82.452 64.7277 81.3479C69.3531 80.2438 75.1246 87.8358 77.6184 98.289Z" fill="#E0E0E0"/>
<path d="M41.4926 136.409C47.1264 132.295 54.0484 130.334 61.0038 130.883C60.5667 137.845 57.6492 144.419 52.7801 149.415C45.1205 156.057 36.3861 158.533 33.2688 154.941C30.1515 151.35 33.833 143.052 41.4926 136.409Z" fill="#E0E0E0"/>
<mask id="mask0" mask-type="alpha" maskUnits="userSpaceOnUse" x="62" y="56" width="263" height="263">
<path d="M193.93 318.35C266.304 318.35 324.975 259.697 324.975 187.344C324.975 114.991 266.304 56.338 193.93 56.338C121.556 56.338 62.8848 114.991 62.8848 187.344C62.8848 259.697 121.556 318.35 193.93 318.35Z" fill="#E0E0E0"/>
</mask>
<g mask="url(#mask0)">
<path d="M201.808 184.614L190.01 227.757L146.92 169.585L157.062 322.138H218.582L236.52 322.999C236.52 322.999 233.86 298.958 232.767 285.389C232.092 274.571 230.258 263.857 227.299 253.43C218.101 223.459 201.808 184.614 201.808 184.614Z" fill="#FAFAFA"/>
<path d="M187.912 252.112C187.764 252.308 194.711 257.906 203.434 264.619C212.156 271.333 219.353 276.61 219.501 276.408C219.649 276.206 212.702 270.614 203.98 263.907C195.257 257.199 188.067 251.916 187.912 252.112Z" fill="#263238"/>
<path d="M80.8223 163.582L114.329 147.466L127.469 131.855L146.06 151.17L195.343 321.686H110.825L99.9891 292.434L80.8282 179.443L80.8223 163.582Z" fill="#E8505B"/>
<path d="M231.598 324.161L233.86 287.952L131.761 270.66C131.761 270.66 114.322 186.435 103.575 172.634C101.086 169.066 97.5556 166.353 93.4662 164.865C89.3767 163.378 84.9277 163.189 80.7268 164.324C80.7268 164.324 69.0769 172.302 71.8617 202.848C73.3224 218.875 79.1711 274.305 81.2968 294.345C81.8028 299.146 83.3925 303.769 85.946 307.867C88.8177 312.483 92.8191 316.291 97.5722 318.931C102.325 321.571 107.673 322.957 113.111 322.956L231.598 324.161Z" fill="#E8505B"/>
<path d="M115.087 291.705C115.242 291.705 115.384 290.102 116.126 287.627C117.072 284.401 118.679 281.407 120.847 278.836C123.014 276.266 125.694 274.175 128.714 272.698C131.03 271.546 132.604 271.137 132.568 270.988C131.133 271.092 129.733 271.477 128.447 272.122C125.244 273.494 122.406 275.595 120.159 278.258C117.913 280.922 116.32 284.073 115.509 287.461C115.094 288.834 114.951 290.276 115.087 291.705Z" fill="#263238"/>
<g opacity="0.2">
<path opacity="0.2" d="M116.953 149.931C117.921 160.595 119.96 171.135 123.039 181.391L130.717 179.141C129.259 181.485 128.304 184.104 127.909 186.835C127.515 189.566 127.69 192.349 128.425 195.008C129.927 200.312 132.161 205.381 135.063 210.068L173.165 278.497L134.754 191.31L135.752 175.194L128.359 173.609L116.953 149.931Z" fill="black"/>
</g>
<g opacity="0.2">
<path opacity="0.2" d="M132.1 269.67C127.409 269.394 122.768 270.748 118.962 273.503C115.156 276.257 112.42 280.242 111.217 284.783C110.848 285.841 110.827 286.989 111.157 288.059C111.343 288.584 111.723 289.019 112.219 289.273C112.714 289.526 113.289 289.581 113.823 289.425C114.549 288.971 115.08 288.265 115.314 287.442C117.008 283.635 119.453 280.209 122.503 277.368C125.552 274.528 129.143 272.331 133.062 270.91" fill="black"/>
</g>
<path d="M172.886 277.647C172.755 277.166 172.582 276.697 172.37 276.246L170.719 272.305L164.502 257.874C159.158 245.658 151.807 228.913 143.691 210.387C140.722 203.668 137.848 197.18 135.146 191.083L135.182 191.285C135.526 185.557 135.847 180.155 136.144 175.169V174.831L135.817 174.765L128.413 173.216L128.662 173.406L119.453 154.785L116.876 149.692L116.175 148.368C116.103 148.214 116.013 148.069 115.908 147.935C115.942 148.103 116 148.265 116.08 148.416L116.674 149.781L119.049 154.963L127.956 173.715L128.033 173.869L128.199 173.911L135.592 175.519L135.283 175.122L134.244 191.232V191.339L134.291 191.434L142.8 210.749L163.855 258.112C166.557 264.095 168.766 268.963 170.327 272.423L172.108 276.294C172.329 276.766 172.59 277.218 172.886 277.647Z" fill="#263238"/>
<path d="M231.67 322.968C231.721 322.774 231.749 322.575 231.753 322.374L231.908 320.593L232.406 313.791C232.798 307.819 233.362 299.278 234.063 288.759V288.468L233.778 288.415L159.913 274.857L132.683 269.918L133.027 270.239L118.124 213.658C116.253 206.677 114.757 201.091 113.706 197.191L112.489 192.793L112.15 191.659C112.121 191.529 112.075 191.403 112.014 191.285C112.021 191.42 112.043 191.553 112.079 191.683L112.34 192.828L113.421 197.268L117.577 213.794C121.217 227.928 126.306 247.688 132.172 270.459L132.238 270.726L132.511 270.773L159.741 275.742L233.641 289.062L233.374 288.723C232.78 299.254 232.335 307.796 232.009 313.773L231.688 320.588L231.623 322.368C231.622 322.569 231.637 322.77 231.67 322.968Z" fill="#263238"/>
<path d="M85.9691 160.758C85.9394 160.918 87.6733 161.179 90.2859 162.147C97.1423 164.723 102.695 169.915 105.724 176.583C106.858 179.123 107.232 180.839 107.392 180.803C107.426 180.387 107.379 179.968 107.256 179.569C107.046 178.464 106.727 177.382 106.306 176.339C104.922 172.865 102.79 169.738 100.06 167.181C97.33 164.624 94.0698 162.701 90.5115 161.547C89.4419 161.194 88.34 160.948 87.222 160.811C86.8116 160.713 86.3863 160.695 85.9691 160.758Z" fill="#263238"/>
<path d="M278.987 122.387C275.958 116.814 277.3 94.2986 272.639 95.0821C266.702 96.0972 272.182 119.764 272.556 121.918C272.93 124.073 269.813 124.607 269.587 122.649C269.255 119.829 265.787 92.2922 259.933 93.8415C256.685 94.7022 258.151 100.626 258.151 100.626C258.151 100.626 263.186 127.338 260.396 127.932C257.605 128.525 255.473 113.181 254.226 107.583C253.039 102.241 249.542 99.908 248.212 102.739C246.264 106.895 249.993 120.328 251.115 125.723C252.237 131.119 255.01 146.725 247.434 140.629C242.555 135.97 236.027 133.438 229.282 133.589C226.771 134.568 227.317 138.42 230.232 139.186C233.308 140.333 236.214 141.891 238.872 143.816C240.978 145.388 242.898 147.194 244.595 149.2C246.858 151.689 248.691 154.538 250.017 157.629C251.096 160.062 252.68 162.238 254.664 164.014C256.648 165.789 258.986 167.123 261.524 167.928L265.947 188.959L294.579 182.827L288.196 160.573C286.753 146.222 286.398 131.782 287.133 117.377C287.104 103.131 285.245 103.018 283.606 103.398C279.996 104.259 281.938 127.831 278.987 122.387Z" fill="#FFBE9D"/>
<path d="M279.787 141.519C278.478 142.023 277.207 142.618 275.981 143.3C273.072 145.092 270.809 147.764 269.521 150.928C269.135 151.9 268.847 152.908 268.66 153.937L268.565 154.424L268.155 154.186C265.86 152.839 263.352 151.891 260.739 151.385C258.786 150.999 257.574 150.963 257.58 150.862C258.653 150.702 259.746 150.728 260.81 150.94C263.517 151.316 266.126 152.211 268.494 153.575L267.989 153.824C268.504 150.791 269.91 147.979 272.027 145.746C273.109 144.596 274.363 143.621 275.744 142.855C276.662 142.344 277.639 141.945 278.653 141.668C279.02 141.554 279.403 141.504 279.787 141.519Z" fill="#E09074"/>
<path d="M283.599 161.54C279.462 164.351 274.582 165.87 269.58 165.903C269.58 165.696 272.846 165.31 276.705 164.122C280.565 162.935 283.498 161.356 283.599 161.54Z" fill="#E09074"/>
<path d="M179.926 140.824L201.801 184.613L190.002 227.75L158.592 194.562L127.627 137.054L179.926 140.824Z" fill="#FFBE9D"/>
<path d="M200.525 144.932C200.525 144.932 231.621 155.985 231.621 158.039C237.113 162.348 255.402 206.547 261.221 214.911L277.846 239.409L263.898 184.97L294.59 175.942C294.59 175.942 320.799 239.266 323.988 253.352C325.911 261.683 325.739 270.361 323.489 278.61L323.323 278.461C321.347 284.757 317.295 290.197 311.828 293.895C298.812 302.205 286.664 303.808 274.23 294.619C267.176 289.413 259.13 283.139 251.762 277.268L249.826 322.975H232.886C232.886 320.405 233.396 289.087 233.396 289.087C231.194 281.674 229.478 274.125 228.26 266.488C226.723 255.709 201.469 184.952 201.469 184.952L181.875 147.218L181.424 133.25L200.525 144.932Z" fill="#E8505B"/>
<path d="M250.165 322.665C250.25 322.195 250.3 321.719 250.313 321.241L250.562 317.139C250.753 313.494 251.02 308.342 251.346 301.985C251.94 289.062 252.73 271.254 253.626 251.304V251.25V251.191L252.48 245.255C248.371 224.283 244.649 205.306 241.941 191.475C240.558 184.667 239.441 179.123 238.646 175.199L237.701 170.789L237.44 169.643C237.419 169.509 237.377 169.378 237.315 169.257C237.307 169.392 237.317 169.528 237.345 169.661L237.529 170.848L238.301 175.294C239.031 179.236 240.053 184.792 241.317 191.63L251.596 245.457L252.748 251.393V251.286C251.958 271.243 251.257 289.056 250.747 301.973C250.533 308.336 250.361 313.495 250.242 317.145L250.153 321.253C250.12 321.723 250.124 322.196 250.165 322.665Z" fill="#263238"/>
<path d="M232.792 282.058C232.779 281.578 232.725 281.099 232.632 280.628L232.038 276.55C231.444 272.923 230.619 267.824 229.598 261.567C227.436 248.859 224.473 231.443 221.208 212.204C219.011 199.614 216.95 187.802 215.193 177.746V177.699V177.657L204.707 153.913L201.708 147.277L200.895 145.538C200.81 145.329 200.702 145.13 200.574 144.944C200.618 145.161 200.688 145.373 200.782 145.573L201.489 147.354L204.291 154.08L214.474 177.972L214.445 177.889C216.167 187.95 218.191 199.768 220.341 212.364L228.992 261.68C230.132 267.919 231.058 273 231.717 276.615L232.501 280.663C232.555 281.136 232.652 281.603 232.792 282.058Z" fill="#263238"/>
<path d="M292.363 276.96C292.481 276.877 291.175 274.971 289.287 271.73C286.875 267.501 284.791 263.094 283.052 258.547C281.321 253.994 279.891 249.332 278.771 244.591C277.91 240.947 277.507 238.655 277.37 238.655C277.317 239.202 277.345 239.755 277.453 240.294C277.56 241.344 277.792 242.852 278.148 244.698C279.096 249.52 280.455 254.253 282.209 258.843C283.956 263.44 286.143 267.857 288.741 272.033C289.75 273.624 290.629 274.876 291.282 275.701C291.935 276.527 292.321 277.025 292.363 276.96Z" fill="#263238"/>
<g opacity="0.2">
<path opacity="0.2" d="M290.018 274.46C290.297 274.52 290.559 274.643 290.785 274.819C291.01 274.994 291.193 275.219 291.319 275.475C291.445 275.732 291.512 276.013 291.514 276.299C291.516 276.585 291.453 276.867 291.33 277.125C291.037 277.631 290.593 278.034 290.062 278.277C289.53 278.521 288.936 278.593 288.361 278.485C287.213 278.247 286.162 277.675 285.339 276.841C282.807 274.279 280.988 271.102 280.06 267.622C277.842 259.17 276.879 250.438 277.204 241.706C279.653 253.083 283.956 263.98 289.94 273.962" fill="black"/>
</g>
<g opacity="0.2">
<path opacity="0.2" d="M252.254 278.521C257.282 270.103 259.48 260.296 258.524 250.539C257.598 237.254 251.132 225.103 246.311 212.685C249.089 225.744 250.669 238.703 253.186 251.269C253.186 251.269 251.844 269.926 251.809 278.206" fill="black"/>
</g>
<g opacity="0.2">
<path opacity="0.2" d="M230.813 270.193C229.823 250.284 227.746 230.444 224.59 210.762C221.04 190.687 214.278 171.315 204.562 153.391C207.068 161.268 214.781 177.812 214.781 177.812C214.781 177.812 225.932 236.577 230.766 266.132" fill="black"/>
</g>
<path d="M276.042 306.562C278.506 306.722 280.293 306.853 280.293 306.853C280.293 306.853 282.924 307.203 283.559 311.602C283.957 314.332 278.809 314.944 278.809 314.944C278.809 314.944 278.536 315.056 278.126 315.098C277.229 315.193 275.549 315.246 273.548 315.246L273.655 315.626L274.979 315.721C274.979 315.721 277.603 316.077 278.245 320.47C278.453 321.924 277.099 322.773 275.781 323.254H275.697C274.969 323.508 274.217 323.691 273.453 323.8C273.417 323.859 273.174 323.907 272.764 323.954C267.833 324.225 262.888 324.092 257.979 323.557C251.448 323.669 245.51 323.764 245.094 323.764L230.529 323.824L233.314 292.957L237.542 291.532C237.542 291.532 255.586 282.824 259.262 283.537C264.024 284.882 268.698 286.522 273.257 288.446C276.497 291.253 279.136 294.685 281.018 298.537L276.036 306.461" fill="#FFBE9D"/>
<path d="M260.645 314.836C263.013 315.368 265.438 315.602 267.865 315.53C270.24 315.763 272.635 315.686 274.99 315.299C272.621 314.77 270.196 314.536 267.77 314.604C265.395 314.375 263 314.453 260.645 314.836Z" fill="#E09074"/>
<path d="M260.598 306.092C267.416 306.957 274.298 307.201 281.16 306.823C274.342 305.958 267.46 305.714 260.598 306.092Z" fill="#E09074"/>
<g opacity="0.78">
<path opacity="0.78" d="M261.334 297.213C264.724 297.797 268.16 298.075 271.6 298.044C277.277 298.246 275.792 298.406 275.804 298.151C275.816 297.896 277.312 297.314 271.648 297.112C268.214 296.836 264.762 296.87 261.334 297.213Z" fill="#E09074"/>
</g>
<path d="M270.299 289.14C265.24 289.461 268.566 289.194 269.023 289.176L262.919 289.378L255.028 289.663C253.937 289.77 252.838 289.758 251.75 289.627C252.806 289.327 253.895 289.157 254.992 289.122C257.011 288.921 259.802 288.725 262.895 288.618C266.648 288.553 266.256 288.493 268.281 288.553C270.305 288.612 270.299 289.039 270.299 289.14Z" fill="#E09074"/>
<path d="M113.324 37.6932C111.171 33.3838 107.504 30.0189 103.025 28.2416C98.5461 26.4644 93.5691 26.3994 89.0453 28.0592C84.6011 29.9424 80.7513 32.9957 77.9061 36.8938C75.0608 40.7919 73.3268 45.3887 72.8888 50.1943C72.1454 54.9137 73.1255 59.7428 75.6498 63.7994C77.164 65.784 79.067 67.4392 81.2426 68.6639C83.4181 69.8886 85.8205 70.6571 88.3031 70.9226C92.7327 71.5444 97.2481 70.9764 101.385 69.2768C105.523 67.5772 109.133 64.8071 111.846 61.2513C114.558 57.6955 116.275 53.482 116.82 49.0435C117.364 44.605 116.718 40.1015 114.946 35.9956" fill="#263238"/>
<path d="M72.7115 49.0189C72.6758 49.0723 73.0262 49.3987 73.7031 49.9567C74.6507 50.7329 75.642 51.4543 76.6719 52.1174C80.1149 54.3682 83.9371 55.9771 87.9535 56.8661C90.1741 57.3161 92.4409 57.4954 94.7047 57.4003C96.5496 57.3039 98.3779 57.0013 100.155 56.4981C101.352 56.1734 102.517 55.7402 103.635 55.2041C104.065 55.0438 104.466 54.8153 104.823 54.5274C104.751 54.3671 102.994 55.1804 100.007 55.8867C98.2516 56.2851 96.4623 56.5156 94.6632 56.5753C92.4708 56.6165 90.2806 56.4174 88.1317 55.9817C84.222 55.0998 80.4725 53.6181 77.0163 51.5891C74.3622 50.0339 72.8005 48.9061 72.7115 49.0189Z" fill="#455A64"/>
<path d="M206.719 64.2687C228.094 17.2621 177.244 -6.36895 149.497 1.48429C123.419 8.84485 112.297 21.8208 108.005 39.2547C103.327 56.7543 104.291 75.2832 110.76 92.2032C114.126 100.395 120.201 108.717 129 109.744" fill="#263238"/>
<path d="M181.182 180.446C181.55 157.984 181.811 127.135 181.823 127.266C181.823 127.266 201.132 124.061 205.134 98.8685C206.778 82.293 206.879 65.6009 205.437 49.0067C204.481 33.8938 194.47 15.3558 179.406 16.9526L132.38 28.8244C130.173 29.0575 128.133 30.1103 126.665 31.7745C125.198 33.4387 124.408 35.5932 124.453 37.8115L127.517 135.06" fill="#FFBE9D"/>
<path d="M193.9 66.9164C193.919 67.7536 193.61 68.5652 193.039 69.1776C192.467 69.7899 191.679 70.1545 190.842 70.193C190.434 70.2312 190.022 70.187 189.631 70.0631C189.24 69.9393 188.878 69.7384 188.566 69.4721C188.255 69.2059 188 68.8797 187.816 68.5131C187.633 68.1465 187.525 67.7469 187.499 67.3378C187.479 66.5015 187.788 65.6907 188.358 65.0785C188.928 64.4663 189.715 64.1012 190.551 64.0612C190.959 64.023 191.371 64.0671 191.763 64.1909C192.154 64.3146 192.516 64.5155 192.828 64.7817C193.141 65.0479 193.396 65.3739 193.58 65.7405C193.764 66.1072 193.873 66.507 193.9 66.9164Z" fill="#263238"/>
<path d="M159.05 66.9164C159.07 67.7536 158.761 68.5652 158.189 69.1776C157.618 69.7899 156.829 70.1545 155.992 70.193C155.584 70.2312 155.172 70.187 154.781 70.0631C154.391 69.9393 154.029 69.7384 153.717 69.4721C153.405 69.2059 153.15 68.8797 152.967 68.5131C152.783 68.1465 152.675 67.7469 152.649 67.3378C152.63 66.5015 152.938 65.6907 153.508 65.0785C154.078 64.4663 154.866 64.1012 155.701 64.0612C156.11 64.023 156.522 64.0671 156.913 64.1909C157.304 64.3146 157.667 64.5155 157.979 64.7817C158.291 65.0479 158.547 65.3739 158.731 65.7405C158.915 66.1072 159.023 66.507 159.05 66.9164Z" fill="#263238"/>
<path d="M179.91 84.7476C181.742 84.1754 183.639 83.8344 185.556 83.7325C186.441 83.6375 187.284 83.4653 187.433 82.8599C187.508 81.9414 187.301 81.0219 186.839 80.2243C186.008 78.0834 185.133 75.8317 184.215 73.4692C181.776 67.7433 179.804 61.8297 178.318 55.7861C181.205 61.3053 183.647 67.0457 185.622 72.9529C186.501 75.3272 187.34 77.5927 188.139 79.7494C188.698 80.8204 188.862 82.0541 188.603 83.2339C188.473 83.5469 188.275 83.8266 188.022 84.0518C187.769 84.2769 187.468 84.4417 187.142 84.5338C186.65 84.6675 186.143 84.7373 185.634 84.7416C183.734 84.9896 181.81 84.9916 179.91 84.7476Z" fill="#263238"/>
<path d="M181.881 127.373C170.016 127.552 158.335 124.437 148.137 118.374C148.137 118.374 156.663 135.897 181.881 133.541V127.373Z" fill="#E09074"/>
<path d="M129.26 69.6106C128.892 69.4326 115.77 63.6332 115.604 78.7105C115.438 80.5992 115.749 82.4993 116.508 84.237C117.267 85.9747 118.449 87.4946 119.947 88.6578C121.444 89.8209 123.21 90.5902 125.082 90.8953C126.954 91.2004 128.872 91.0316 130.662 90.4043C130.703 89.9769 129.26 69.6106 129.26 69.6106Z" fill="#FFD2BE"/>
<path d="M126.121 84.6345C126.056 84.587 125.86 84.8184 125.415 85.0143C124.784 85.2701 124.079 85.2701 123.449 85.0143C122.48 84.3865 121.694 83.5129 121.173 82.4827C120.651 81.4524 120.412 80.3023 120.48 79.1496C120.457 77.8574 120.721 76.5762 121.252 75.3981C121.399 74.928 121.658 74.5004 122.007 74.152C122.355 73.8037 122.783 73.5449 123.253 73.3977C123.556 73.3229 123.875 73.3553 124.157 73.4895C124.438 73.6238 124.665 73.8514 124.797 74.1337C124.993 74.5611 124.892 74.8579 124.975 74.8876C125.058 74.9173 125.302 74.6383 125.183 74.0151C125.1 73.6381 124.89 73.3008 124.589 73.0593C124.177 72.7425 123.657 72.5997 123.14 72.6616C122.52 72.7787 121.941 73.0523 121.457 73.4565C120.972 73.8606 120.599 74.3819 120.373 74.9707C119.716 76.2704 119.388 77.7114 119.417 79.1674C119.334 80.505 119.647 81.8375 120.317 82.9986C120.986 84.1597 121.983 85.0982 123.182 85.697C123.586 85.819 124.013 85.8482 124.431 85.7824C124.848 85.7166 125.245 85.5576 125.593 85.317C126.068 85.0084 126.174 84.6701 126.121 84.6345Z" fill="#E09074"/>
<path d="M178.883 94.4344C178.434 95.7417 177.803 96.9788 177.006 98.1086C176.604 98.6704 176.087 99.1403 175.489 99.4872C174.891 99.8341 174.226 100.05 173.539 100.121C172.801 100.123 172.075 99.9398 171.427 99.587C170.78 99.2342 170.231 98.7237 169.834 98.1028C169.052 96.8445 168.691 95.371 168.8 93.8942C168.86 92.5645 169.471 90.9796 170.79 90.8253C171.345 90.8063 171.896 90.9267 172.393 91.1755L179.328 93.9891" fill="#E09074"/>
<path d="M176.109 100.176C174.858 100.252 173.604 100.097 172.409 99.7185C171.197 99.2437 170.201 98.3393 169.613 97.1779C169.28 96.4695 169.1 95.6992 169.085 94.9168C169.07 94.1345 169.219 93.3577 169.524 92.6369C169.679 92.2697 169.878 91.9229 170.117 91.6041C170.396 91.3132 170.343 91.3251 170.646 91.3725C170.949 91.42 171.382 91.6634 171.756 91.8059L172.896 92.2689C174.381 92.8625 175.723 93.3967 176.857 93.8182C178.049 94.3905 179.323 94.7749 180.633 94.9579C179.601 94.1307 178.442 93.4752 177.201 93.0168C176.109 92.4885 174.826 91.8771 173.342 91.236L172.219 90.7315C171.808 90.5336 171.386 90.3593 170.955 90.2091C170.616 90.1069 170.253 90.1173 169.921 90.2388C169.621 90.3673 169.359 90.5719 169.161 90.8324C168.842 91.2342 168.578 91.6775 168.378 92.1501C168.004 93.0332 167.829 93.9879 167.866 94.9461C167.903 95.9043 168.151 96.8426 168.591 97.6943C169.342 99.0719 170.608 100.096 172.112 100.544C173.085 100.854 174.124 100.893 175.117 100.656C175.812 100.478 176.138 100.241 176.109 100.176Z" fill="#263238"/>
<path d="M112.345 59.2879C113.889 59.1752 126.346 60.7897 125.366 83.9399C124.452 105.564 109.275 100.804 104.43 92.6657C99.8462 84.949 97.198 60.3505 112.345 59.2879Z" fill="#455A64"/>
<path d="M104.644 62.0193C104.68 61.8235 104.698 61.6249 104.697 61.4258L104.774 59.645L104.958 53.0502C105.071 47.3636 105.232 39.4628 105.416 30.3452L105.131 30.6183H111.555L111.27 30.3274L111.122 35.7113C110.908 44.4015 110.706 52.4922 110.528 59.2651V59.4609L110.718 59.5085C113.349 60.119 115.687 61.6232 117.333 63.7645C118.58 65.4302 119.478 67.3298 119.975 69.3502C120.317 70.6456 120.546 71.9684 120.658 73.3035C120.699 73.7665 120.723 74.1228 120.735 74.3602C120.732 74.4839 120.744 74.6074 120.77 74.7282C120.802 74.6082 120.816 74.4842 120.812 74.3602C120.812 74.1228 120.812 73.7666 120.812 73.2977C120.76 71.9452 120.575 70.6012 120.26 69.285C119.794 67.2087 118.909 65.2494 117.659 63.5271C115.978 61.281 113.565 59.6918 110.837 59.0336L111.027 59.277C111.223 52.5041 111.454 44.4371 111.704 35.7291L111.846 30.3393V30.0425H111.549H105.125H104.852V30.3156C104.751 39.4391 104.667 47.3398 104.602 53.0264V59.6213V61.4021C104.593 61.6087 104.607 61.8157 104.644 62.0193Z" fill="#455A64"/>
<path d="M114.002 99.1312C114.155 99.1133 114.304 99.0691 114.442 99.0006C114.855 98.8411 115.253 98.6423 115.629 98.4069C116.977 97.5207 118.095 96.3263 118.889 94.9225C120.036 92.8283 120.72 90.5127 120.896 88.1318C121.146 85.2544 121.146 82.3606 120.896 79.4832C120.651 76.6053 120.171 73.7524 119.459 70.9533C118.955 68.6361 118.117 66.4046 116.971 64.3288C116.162 62.9326 115.038 61.7453 113.687 60.8622C113.312 60.6267 112.914 60.4279 112.5 60.2686C112.363 60.199 112.214 60.1567 112.061 60.1439C112.061 60.1914 112.654 60.4051 113.533 61.0403C114.795 61.964 115.839 63.1535 116.591 64.5247C117.661 66.5848 118.444 68.7817 118.919 71.0542C119.592 73.8323 120.051 76.6583 120.29 79.5069C120.536 82.3504 120.548 85.2092 120.326 88.0547C120.181 90.3712 119.559 92.6328 118.497 94.697C117.757 96.0724 116.72 97.2665 115.463 98.1933C114.572 98.8819 113.978 99.0778 114.002 99.1312Z" fill="#263238"/>
<path d="M163.019 102.362L174.171 104.55C175.976 104.904 177.727 103.728 178.081 101.923L178.106 101.795C178.46 99.9903 177.284 98.2402 175.479 97.886L164.327 95.6981C162.522 95.344 160.771 96.5199 160.417 98.3246L160.392 98.4527C160.037 100.257 161.213 102.008 163.019 102.362Z" fill="#455A64"/>
<path d="M161.996 97.3851L109.055 80.7645C108.426 80.5685 107.745 80.6289 107.16 80.9323C106.575 81.2358 106.134 81.7578 105.932 82.385C105.829 82.7064 105.792 83.0454 105.824 83.3814C105.855 83.7174 105.955 84.0436 106.117 84.3399C106.278 84.6363 106.498 84.8968 106.763 85.1057C107.029 85.3145 107.334 85.4673 107.66 85.5548L161.794 100.175L161.996 97.3851Z" fill="#455A64"/>
<path d="M122.866 90.0894C122.3 89.8426 121.714 89.6441 121.114 89.4958L116.269 88.0237C114.239 87.3945 111.745 86.7297 109.108 85.8689C108.462 85.6372 107.872 85.2733 107.375 84.8005C106.897 84.3069 106.631 83.6468 106.632 82.9603C106.632 82.6251 106.737 82.2983 106.933 82.0265C107.129 81.7546 107.406 81.5518 107.725 81.4467C108.453 81.2614 109.218 81.2841 109.934 81.512L125.811 86.6169L130.644 88.1128C131.224 88.3192 131.82 88.476 132.426 88.5817C131.868 88.3087 131.29 88.0786 130.698 87.8931L125.948 86.2251C121.898 84.8479 116.34 82.9485 110.088 80.9481C109.263 80.6918 108.381 80.6753 107.547 80.9005C107.12 81.0478 106.749 81.3239 106.485 81.6906C106.221 82.0574 106.078 82.4968 106.074 82.9484C106.075 83.7869 106.403 84.592 106.989 85.1923C107.545 85.7206 108.206 86.1252 108.93 86.3794C111.668 87.2461 114.108 87.8456 116.168 88.4273L121.061 89.7214C121.652 89.8912 122.256 90.0143 122.866 90.0894Z" fill="#263238"/>
<path d="M150.649 59.5192C151.053 60.1603 154.681 58.1836 159.175 58.9909C163.67 59.7982 166.437 62.8196 167.037 62.3566C167.322 62.1607 167.037 61.0388 165.82 59.6794C164.178 57.9216 162.008 56.7482 159.638 56.3378C157.268 55.9273 154.828 56.3024 152.691 57.406C151.1 58.2845 150.447 59.2343 150.649 59.5192Z" fill="#E09074"/>
<path d="M151.159 60.0838C152 59.9372 152.83 59.7288 153.641 59.4605C155.601 58.9995 157.64 58.9897 159.605 59.4319C161.57 59.874 163.408 60.7566 164.982 62.013C166.205 62.9687 166.84 63.7225 166.953 63.6335C167.066 63.5444 166.573 62.6659 165.397 61.5321C163.834 60.0544 161.901 59.0254 159.801 58.5532C157.702 58.081 155.514 58.1833 153.468 58.8491C151.919 59.3715 151.105 59.9948 151.159 60.0838Z" fill="#263238"/>
<path d="M186.805 62.1798C187.155 62.3756 187.838 61.7286 188.925 60.9926C190.295 60.0361 191.864 59.4027 193.514 59.1405C197.415 58.4935 200.551 60.3277 201.002 59.6688C201.21 59.3958 200.681 58.4817 199.298 57.6388C197.431 56.5369 195.24 56.1172 193.099 56.4516C190.921 56.7562 188.945 57.8896 187.583 59.6154C186.603 60.9688 186.508 62.0254 186.805 62.1798Z" fill="#E09074"/>
<path d="M186.381 64.0546C186.5 64.1318 187.082 63.2651 188.305 62.1848C189.876 60.7704 191.789 59.7905 193.856 59.3418C195.922 58.8931 198.069 58.9912 200.085 59.6264C201.647 60.1013 202.538 60.6415 202.615 60.5227C202.692 60.404 201.897 59.6917 200.299 59.0269C198.191 58.1664 195.872 57.9639 193.646 58.4459C191.421 58.928 189.393 60.0721 187.83 61.7278C186.684 62.998 186.292 64.0071 186.381 64.0546Z" fill="#263238"/>
<path d="M144.147 15.7785C147.077 19.7453 149.402 24.1241 151.047 28.7722C151.855 31.1039 152.141 33.5844 151.886 36.0388C151.63 38.4932 150.839 40.8616 149.568 42.977C146.485 46.5637 142.599 49.374 138.227 51.1805C136.05 52.0928 134.087 53.4509 132.466 55.1674C130.845 56.8839 129.602 58.9208 128.816 61.1469C128.495 62.5893 129.113 67.6111 128.026 68.6143C127.613 68.8953 127.146 69.0889 126.655 69.1833C126.164 69.2776 125.659 69.2706 125.171 69.1628C124.683 69.055 124.222 68.8486 123.816 68.5562C123.411 68.2639 123.07 67.8917 122.813 67.4627C121.627 64.5267 120.989 61.3982 120.931 58.2323L120.664 39.4035C120.219 34.0923 121.006 28.7502 122.961 23.7921C126.186 17.0904 132.86 14.9475 142.603 15.4224" fill="#263238"/>
<path d="M173.158 211.284C173.061 211.184 172.956 211.092 172.843 211.01C172.629 210.838 172.291 210.601 171.875 210.257C170.648 209.257 169.477 208.191 168.366 207.063C166.595 205.251 164.939 203.33 163.408 201.311C161.591 198.937 159.649 196.141 157.53 193.001C153.278 186.709 148.302 179.051 143.024 170.213C140.382 165.796 137.68 161.089 134.913 156.121L132.841 152.346C132.169 151.021 131.373 149.763 130.466 148.588C129.516 147.378 128.247 146.457 126.802 145.929C126.061 145.638 125.255 145.55 124.469 145.674C124.051 145.766 123.667 145.971 123.358 146.267C123.072 146.59 122.868 146.977 122.765 147.395V147.478V147.567C122.939 148.089 123.215 148.572 123.578 148.986C123.974 149.409 124.514 149.669 125.092 149.716C126.179 149.716 127.235 149.353 128.091 148.683C129.018 148.052 129.71 147.131 130.057 146.064C130.404 144.997 130.387 143.845 130.009 142.789C129.626 141.704 128.839 140.809 127.812 140.29C126.805 139.768 125.651 139.607 124.54 139.833C123.959 139.924 123.411 140.16 122.947 140.52C122.483 140.881 122.118 141.353 121.886 141.892C121.773 142.204 121.75 142.54 121.818 142.864C121.886 143.188 122.043 143.487 122.272 143.727C122.701 144.144 123.237 144.436 123.821 144.57C124.803 144.793 125.83 144.688 126.746 144.269C127.661 143.851 128.413 143.143 128.886 142.255C129.354 141.337 129.46 140.278 129.183 139.287C128.934 138.316 128.398 137.443 127.645 136.782C126.91 136.11 125.951 135.737 124.955 135.737C124.455 135.744 123.964 135.869 123.521 136.102C123.078 136.335 122.697 136.67 122.408 137.078C122.109 137.527 121.997 138.074 122.094 138.604C122.139 138.866 122.237 139.115 122.381 139.339C122.524 139.562 122.711 139.754 122.931 139.904C123.337 140.182 123.804 140.359 124.293 140.42C124.781 140.481 125.277 140.424 125.739 140.254C126.184 140.058 126.583 139.771 126.909 139.411C127.235 139.051 127.482 138.626 127.633 138.165C127.94 137.288 128.083 136.362 128.055 135.434C128.103 133.607 127.632 131.804 126.695 130.234C126.188 129.454 125.423 128.877 124.534 128.602C124.089 128.505 123.629 128.496 123.181 128.577C122.733 128.657 122.305 128.825 121.921 129.071C121.51 129.304 121.171 129.645 120.941 130.058C120.711 130.47 120.598 130.938 120.615 131.41C120.671 131.877 120.864 132.317 121.171 132.675C121.477 133.032 121.883 133.29 122.337 133.416C122.761 133.558 123.213 133.594 123.655 133.523C124.097 133.452 124.514 133.274 124.872 133.006C125.559 132.45 126.013 131.659 126.149 130.786C126.289 129.949 126.216 129.089 125.935 128.287C125.734 127.499 125.447 126.734 125.08 126.008C124.715 125.272 124.149 124.655 123.447 124.227C122.77 123.809 122.007 123.552 121.215 123.473C120.802 123.413 120.381 123.468 119.998 123.634C119.635 123.829 119.322 124.105 119.083 124.441C118.846 124.774 118.675 125.148 118.578 125.545C118.465 125.968 118.518 126.418 118.727 126.803C118.956 127.144 119.283 127.406 119.665 127.554C120.047 127.703 120.466 127.731 120.864 127.634C121.612 127.509 122.302 127.152 122.836 126.613C123.864 125.573 124.468 124.187 124.528 122.725C124.633 121.32 124.261 119.921 123.471 118.754C123.086 118.196 122.586 117.726 122.004 117.377C121.427 117.058 120.782 116.881 120.122 116.861C119.465 116.822 118.816 117.015 118.287 117.407C118.024 117.612 117.815 117.88 117.68 118.185C117.544 118.49 117.486 118.825 117.51 119.158C117.601 119.776 117.893 120.347 118.34 120.783C118.787 121.22 119.365 121.497 119.986 121.574C120.561 121.605 121.133 121.472 121.635 121.189C122.137 120.906 122.547 120.485 122.818 119.977C123.373 119.055 123.62 117.98 123.524 116.908C123.166 115.069 122.534 113.294 121.648 111.643L119.766 107.363L117.141 101.427L116.441 99.8957C116.365 99.721 116.28 99.5506 116.186 99.3853C116.186 99.3853 116.245 99.5692 116.387 99.9195L117.035 101.475L119.558 107.411L121.393 111.708C122.252 113.333 122.862 115.078 123.204 116.884C123.282 117.882 123.045 118.878 122.527 119.734C122.287 120.182 121.924 120.553 121.482 120.804C121.04 121.055 120.535 121.176 120.027 121.152C119.497 121.083 119.003 120.844 118.619 120.472C118.235 120.1 117.982 119.614 117.896 119.087C117.88 118.819 117.93 118.552 118.041 118.308C118.151 118.064 118.32 117.85 118.531 117.686C118.991 117.356 119.551 117.196 120.116 117.235C120.708 117.256 121.286 117.419 121.803 117.709C122.327 118.027 122.776 118.455 123.121 118.962C123.849 120.045 124.188 121.342 124.083 122.642C124.02 123.983 123.461 125.252 122.515 126.204C122.049 126.674 121.446 126.985 120.793 127.094C120.49 127.174 120.17 127.159 119.876 127.053C119.581 126.947 119.325 126.755 119.143 126.501C119.031 126.196 119.003 125.867 119.062 125.547C119.12 125.228 119.263 124.93 119.475 124.684C119.668 124.414 119.92 124.19 120.211 124.031C120.516 123.907 120.848 123.868 121.173 123.918C121.899 123.975 122.598 124.216 123.204 124.62C123.81 125.023 124.302 125.574 124.635 126.222C124.98 126.913 125.248 127.639 125.436 128.388C125.694 129.113 125.763 129.891 125.638 130.65C125.522 131.39 125.135 132.061 124.552 132.532C124.26 132.749 123.921 132.892 123.562 132.949C123.203 133.005 122.836 132.974 122.491 132.858C122.139 132.766 121.822 132.57 121.583 132.296C121.344 132.022 121.193 131.682 121.149 131.321C121.15 130.955 121.248 130.597 121.435 130.284C121.622 129.97 121.891 129.713 122.212 129.54C122.534 129.332 122.894 129.19 123.271 129.122C123.648 129.054 124.035 129.061 124.409 129.142C125.166 129.383 125.815 129.881 126.244 130.549C127.109 132.024 127.541 133.713 127.491 135.422C127.517 136.278 127.386 137.131 127.105 137.939C126.984 138.329 126.782 138.688 126.513 138.995C126.244 139.302 125.914 139.549 125.543 139.72C125.168 139.854 124.766 139.898 124.37 139.85C123.974 139.801 123.595 139.661 123.263 139.441C123.106 139.333 122.971 139.194 122.867 139.034C122.763 138.874 122.691 138.694 122.656 138.506C122.622 138.318 122.624 138.125 122.664 137.938C122.704 137.751 122.781 137.574 122.889 137.417C123.13 137.088 123.444 136.819 123.807 136.633C124.17 136.446 124.571 136.347 124.979 136.342C125.829 136.349 126.645 136.67 127.271 137.245C127.974 137.784 128.468 138.55 128.669 139.412C128.871 140.275 128.768 141.18 128.378 141.975C127.988 142.77 127.334 143.405 126.528 143.773C125.723 144.141 124.815 144.219 123.958 143.994C123.479 143.892 123.039 143.657 122.687 143.317C122.531 143.161 122.423 142.963 122.378 142.747C122.333 142.531 122.351 142.306 122.432 142.1C122.634 141.657 122.943 141.271 123.332 140.978C123.721 140.685 124.177 140.493 124.659 140.42C125.636 140.205 126.658 140.347 127.54 140.819C128.422 141.292 129.106 142.064 129.468 142.997C129.803 143.93 129.817 144.949 129.509 145.891C129.2 146.834 128.586 147.647 127.764 148.202C127.016 148.794 126.093 149.122 125.14 149.134C124.691 149.065 124.274 148.86 123.945 148.547C123.616 148.234 123.39 147.828 123.299 147.383V147.549C123.361 147.23 123.515 146.935 123.741 146.701C123.968 146.467 124.258 146.304 124.575 146.232C125.263 146.132 125.966 146.213 126.612 146.469C127.96 146.96 129.144 147.818 130.032 148.944C130.914 150.091 131.687 151.317 132.342 152.607L134.42 156.382C137.187 161.356 139.924 166.058 142.585 170.468C147.928 179.295 152.91 186.934 157.203 193.209C159.353 196.343 161.318 199.145 163.141 201.519C164.691 203.535 166.376 205.445 168.182 207.235C169.692 208.757 171.36 210.114 173.158 211.284Z" fill="#263238"/>
<path d="M77.593 98.2874C78.7627 105.502 77.3946 112.898 73.7216 119.218C67.5963 115.23 63.043 109.243 60.8368 102.276C58.3489 91.8173 60.0768 82.4504 64.7023 81.3463C69.3277 80.2422 75.0992 87.8342 77.593 98.2874Z" fill="#E0E0E0"/>
</g>
</svg>
