<svg width="217" height="48" viewBox="0 0 217 48" fill="none" xmlns="http://www.w3.org/2000/svg">
<path d="M24.5 21.5625C30.4448 21.5625 35.2812 16.726 35.2812 10.7812C35.2812 4.83647 30.4448 0 24.5 0C18.5552 0 13.7188 4.83647 13.7188 10.7812C13.7188 16.726 18.5552 21.5625 24.5 21.5625Z" fill="#ACB1BF"/>
<path d="M26.8438 24.1722C26.0821 24.3051 25.2991 24.3751 24.5 24.3751C23.7009 24.3751 22.9179 24.3051 22.1562 24.1722V28.1251H22.9942L22.1998 38.9297L24.5 41.2301L26.8003 38.9297L26.0059 28.1251H26.8438V24.1722Z" fill="#E20613"/>
<path d="M33.971 20.5225C32.7358 21.7237 31.274 22.6926 29.6562 23.3583V28.125H28.8259L29.6997 40.0078L24.5 45.2075L19.3003 40.0078L20.1741 28.125H19.3438V23.3583C17.7261 22.6926 16.2642 21.7237 15.029 20.5225C11.7118 22.5944 9.5 26.2778 9.5 30.4687V48H39.5V30.4687C39.5 26.2778 37.2882 22.5944 33.971 20.5225Z" fill="#ACB1BF"/>
<path d="M70.108 27.224C70.108 28.12 69.876 28.944 69.412 29.696C68.964 30.448 68.292 31.048 67.396 31.496C66.516 31.944 65.444 32.168 64.18 32.168C62.276 32.168 60.708 31.704 59.476 30.776C58.244 29.848 57.572 28.552 57.46 26.888H61.828C61.892 27.528 62.116 28.032 62.5 28.4C62.9 28.768 63.404 28.952 64.012 28.952C64.54 28.952 64.956 28.808 65.26 28.52C65.564 28.232 65.716 27.848 65.716 27.368C65.716 26.936 65.572 26.576 65.284 26.288C65.012 26 64.668 25.768 64.252 25.592C63.836 25.4 63.26 25.176 62.524 24.92C61.452 24.552 60.572 24.2 59.884 23.864C59.212 23.512 58.628 23 58.132 22.328C57.652 21.64 57.412 20.752 57.412 19.664C57.412 18.656 57.668 17.784 58.18 17.048C58.692 16.312 59.396 15.752 60.292 15.368C61.204 14.968 62.244 14.768 63.412 14.768C65.3 14.768 66.796 15.216 67.9 16.112C69.02 17.008 69.652 18.24 69.796 19.808H65.356C65.276 19.248 65.068 18.808 64.732 18.488C64.412 18.152 63.972 17.984 63.412 17.984C62.932 17.984 62.54 18.112 62.236 18.368C61.948 18.624 61.804 19 61.804 19.496C61.804 19.896 61.932 20.24 62.188 20.528C62.46 20.8 62.796 21.024 63.196 21.2C63.596 21.376 64.172 21.6 64.924 21.872C66.012 22.24 66.9 22.608 67.588 22.976C68.276 23.328 68.868 23.848 69.364 24.536C69.86 25.224 70.108 26.12 70.108 27.224ZM78.6409 18.44C79.9689 18.44 81.1529 18.72 82.1929 19.28C83.2489 19.824 84.0729 20.616 84.6649 21.656C85.2729 22.696 85.5769 23.912 85.5769 25.304C85.5769 26.696 85.2729 27.912 84.6649 28.952C84.0729 29.992 83.2489 30.792 82.1929 31.352C81.1529 31.896 79.9689 32.168 78.6409 32.168C77.3129 32.168 76.1209 31.896 75.0649 31.352C74.0089 30.792 73.1769 29.992 72.5689 28.952C71.9769 27.912 71.6809 26.696 71.6809 25.304C71.6809 23.912 71.9769 22.696 72.5689 21.656C73.1769 20.616 74.0089 19.824 75.0649 19.28C76.1209 18.72 77.3129 18.44 78.6409 18.44ZM78.6409 21.992C77.8569 21.992 77.1929 22.28 76.6489 22.856C76.1209 23.416 75.8569 24.232 75.8569 25.304C75.8569 26.376 76.1209 27.192 76.6489 27.752C77.1929 28.312 77.8569 28.592 78.6409 28.592C79.4249 28.592 80.0809 28.312 80.6089 27.752C81.1369 27.192 81.4009 26.376 81.4009 25.304C81.4009 24.232 81.1369 23.416 80.6089 22.856C80.0809 22.28 79.4249 21.992 78.6409 21.992ZM90.8011 18.608L94.0171 26.816L97.0171 18.608H101.553L93.2011 38.384H88.6891L91.8331 31.496L86.2171 18.608H90.8011ZM111.825 18.296V21.848H117.561V24.944H111.825V28.712H118.281V32H107.721V15.032H118.281V18.296H111.825ZM137.963 18.464C139.611 18.464 140.907 18.976 141.851 20C142.795 21.008 143.267 22.416 143.267 24.224V32H139.187V24.704C139.187 23.856 138.955 23.2 138.491 22.736C138.043 22.256 137.427 22.016 136.643 22.016C135.827 22.016 135.179 22.272 134.699 22.784C134.235 23.28 134.003 23.984 134.003 24.896V32H129.899V24.704C129.899 23.856 129.675 23.2 129.227 22.736C128.779 22.256 128.163 22.016 127.379 22.016C126.563 22.016 125.915 22.264 125.435 22.76C124.955 23.256 124.715 23.968 124.715 24.896V32H120.611V18.608H124.715V20.888C125.067 20.136 125.603 19.544 126.323 19.112C127.059 18.68 127.915 18.464 128.891 18.464C129.915 18.464 130.819 18.704 131.603 19.184C132.387 19.648 132.979 20.32 133.379 21.2C133.843 20.368 134.475 19.704 135.275 19.208C136.091 18.712 136.987 18.464 137.963 18.464ZM154.346 18.44C155.45 18.44 156.434 18.72 157.298 19.28C158.178 19.824 158.866 20.616 159.362 21.656C159.874 22.68 160.13 23.896 160.13 25.304C160.13 26.696 159.874 27.912 159.362 28.952C158.866 29.992 158.178 30.792 157.298 31.352C156.434 31.896 155.45 32.168 154.346 32.168C153.322 32.168 152.442 31.936 151.706 31.472C150.97 31.008 150.434 30.376 150.098 29.576V38.384H145.994V18.608H150.098V21.032C150.434 20.232 150.97 19.6 151.706 19.136C152.442 18.672 153.322 18.44 154.346 18.44ZM153.026 22.04C152.162 22.04 151.45 22.336 150.89 22.928C150.346 23.504 150.074 24.296 150.074 25.304C150.074 26.296 150.346 27.088 150.89 27.68C151.45 28.272 152.162 28.568 153.026 28.568C153.906 28.568 154.61 28.28 155.138 27.704C155.682 27.128 155.954 26.328 155.954 25.304C155.954 24.28 155.682 23.48 155.138 22.904C154.61 22.328 153.906 22.04 153.026 22.04ZM166.364 21.128C166.876 20.312 167.532 19.664 168.332 19.184C169.148 18.704 170.028 18.464 170.972 18.464V22.856H169.796C168.708 22.856 167.86 23.088 167.252 23.552C166.66 24.016 166.364 24.8 166.364 25.904V32H162.26V18.608H166.364V21.128ZM185.409 24.944C185.409 25.28 185.369 25.648 185.289 26.048H176.001C176.049 27.056 176.305 27.784 176.769 28.232C177.233 28.664 177.825 28.88 178.545 28.88C179.153 28.88 179.657 28.728 180.057 28.424C180.457 28.12 180.721 27.728 180.849 27.248H185.193C185.017 28.192 184.633 29.04 184.041 29.792C183.449 30.528 182.697 31.112 181.785 31.544C180.873 31.96 179.857 32.168 178.737 32.168C177.425 32.168 176.257 31.896 175.233 31.352C174.225 30.792 173.433 29.992 172.857 28.952C172.281 27.912 171.993 26.696 171.993 25.304C171.993 23.896 172.273 22.68 172.833 21.656C173.409 20.616 174.209 19.824 175.233 19.28C176.257 18.72 177.425 18.44 178.737 18.44C180.065 18.44 181.233 18.712 182.241 19.256C183.249 19.8 184.025 20.568 184.569 21.56C185.129 22.536 185.409 23.664 185.409 24.944ZM181.257 24.32C181.273 23.44 181.033 22.784 180.537 22.352C180.057 21.904 179.457 21.68 178.737 21.68C177.985 21.68 177.361 21.904 176.865 22.352C176.369 22.8 176.089 23.456 176.025 24.32H181.257ZM192.421 18.44C194.117 18.44 195.469 18.864 196.477 19.712C197.501 20.56 198.141 21.68 198.397 23.072H194.557C194.445 22.528 194.189 22.104 193.789 21.8C193.405 21.48 192.917 21.32 192.325 21.32C191.861 21.32 191.509 21.424 191.269 21.632C191.029 21.824 190.909 22.104 190.909 22.472C190.909 22.888 191.125 23.2 191.557 23.408C192.005 23.616 192.701 23.824 193.645 24.032C194.669 24.272 195.509 24.52 196.165 24.776C196.821 25.016 197.389 25.416 197.869 25.976C198.349 26.536 198.589 27.288 198.589 28.232C198.589 29 198.381 29.68 197.965 30.272C197.549 30.864 196.949 31.328 196.165 31.664C195.381 32 194.453 32.168 193.381 32.168C191.573 32.168 190.125 31.768 189.037 30.968C187.949 30.168 187.285 29.024 187.045 27.536H191.005C191.069 28.112 191.309 28.552 191.725 28.856C192.157 29.16 192.709 29.312 193.381 29.312C193.845 29.312 194.197 29.208 194.437 29C194.677 28.776 194.797 28.488 194.797 28.136C194.797 27.672 194.573 27.344 194.125 27.152C193.693 26.944 192.981 26.728 191.989 26.504C190.997 26.296 190.181 26.072 189.541 25.832C188.901 25.592 188.349 25.208 187.885 24.68C187.421 24.136 187.189 23.4 187.189 22.472C187.189 21.272 187.645 20.304 188.557 19.568C189.469 18.816 190.757 18.44 192.421 18.44ZM205.949 18.44C206.973 18.44 207.853 18.672 208.589 19.136C209.325 19.6 209.869 20.232 210.221 21.032V18.608H214.301V32H210.221V29.576C209.869 30.376 209.325 31.008 208.589 31.472C207.853 31.936 206.973 32.168 205.949 32.168C204.845 32.168 203.853 31.896 202.973 31.352C202.109 30.792 201.421 29.992 200.909 28.952C200.413 27.912 200.165 26.696 200.165 25.304C200.165 23.896 200.413 22.68 200.909 21.656C201.421 20.616 202.109 19.824 202.973 19.28C203.853 18.72 204.845 18.44 205.949 18.44ZM207.269 22.04C206.389 22.04 205.677 22.328 205.133 22.904C204.605 23.48 204.341 24.28 204.341 25.304C204.341 26.328 204.605 27.128 205.133 27.704C205.677 28.28 206.389 28.568 207.269 28.568C208.133 28.568 208.837 28.272 209.381 27.68C209.941 27.088 210.221 26.296 210.221 25.304C210.221 24.296 209.941 23.504 209.381 22.928C208.837 22.336 208.133 22.04 207.269 22.04Z" fill="#343843"/>
</svg>
