<svg width="240" height="48" viewBox="0 0 240 48" fill="none" xmlns="http://www.w3.org/2000/svg">
<g clip-path="url(#clip0)">
<path d="M16.8143 16.5227C21.3696 16.5227 25.0757 12.8166 25.0757 8.26134C25.0757 3.70604 21.3696 0 16.8143 0C12.259 0 8.55298 3.70604 8.55298 8.26134C8.55298 12.8166 12.259 16.5227 16.8143 16.5227Z" fill="#ACB1BF"/>
<path d="M30.2593 23.7902C29.1342 20.1074 25.9889 17.2985 22.1206 16.6604L18.2233 22.2091V34.3669H15.4055V22.2092L11.508 16.6604C6.64509 17.4626 2.92383 21.6957 2.92383 26.7825V44.9176H22.8048C21.2393 42.6812 20.3193 39.9615 20.3193 37.0305C20.3193 30.763 24.5233 25.4596 30.2593 23.7902ZM12.1603 29.0632H9.0392V25.9421H12.1603V29.0632Z" fill="#ACB1BF"/>
<path d="M34.1067 26.061C32.9189 26.061 31.7748 26.2516 30.7027 26.6024C26.3155 28.038 23.1372 32.1698 23.1372 37.0305C23.1372 40.1237 24.4245 42.9216 26.4911 44.9176C28.4656 46.8248 31.1513 48 34.1067 48C40.1553 48 45.0763 43.0791 45.0763 37.0305C45.0763 30.9819 40.1554 26.061 34.1067 26.061ZM32.9349 41.712L30.705 39.4822L28.9044 37.6816L30.705 35.8809L30.8968 35.6892L32.9349 37.7272L37.3168 33.3454L39.3092 35.3378L32.9349 41.712Z" fill="#E20613"/>
</g>
<path d="M69.608 27.224C69.608 28.12 69.376 28.944 68.912 29.696C68.464 30.448 67.792 31.048 66.896 31.496C66.016 31.944 64.944 32.168 63.68 32.168C61.776 32.168 60.208 31.704 58.976 30.776C57.744 29.848 57.072 28.552 56.96 26.888H61.328C61.392 27.528 61.616 28.032 62 28.4C62.4 28.768 62.904 28.952 63.512 28.952C64.04 28.952 64.456 28.808 64.76 28.52C65.064 28.232 65.216 27.848 65.216 27.368C65.216 26.936 65.072 26.576 64.784 26.288C64.512 26 64.168 25.768 63.752 25.592C63.336 25.4 62.76 25.176 62.024 24.92C60.952 24.552 60.072 24.2 59.384 23.864C58.712 23.512 58.128 23 57.632 22.328C57.152 21.64 56.912 20.752 56.912 19.664C56.912 18.656 57.168 17.784 57.68 17.048C58.192 16.312 58.896 15.752 59.792 15.368C60.704 14.968 61.744 14.768 62.912 14.768C64.8 14.768 66.296 15.216 67.4 16.112C68.52 17.008 69.152 18.24 69.296 19.808H64.856C64.776 19.248 64.568 18.808 64.232 18.488C63.912 18.152 63.472 17.984 62.912 17.984C62.432 17.984 62.04 18.112 61.736 18.368C61.448 18.624 61.304 19 61.304 19.496C61.304 19.896 61.432 20.24 61.688 20.528C61.96 20.8 62.296 21.024 62.696 21.2C63.096 21.376 63.672 21.6 64.424 21.872C65.512 22.24 66.4 22.608 67.088 22.976C67.776 23.328 68.368 23.848 68.864 24.536C69.36 25.224 69.608 26.12 69.608 27.224ZM78.1409 18.44C79.4689 18.44 80.6529 18.72 81.6929 19.28C82.7489 19.824 83.5729 20.616 84.1649 21.656C84.7729 22.696 85.0769 23.912 85.0769 25.304C85.0769 26.696 84.7729 27.912 84.1649 28.952C83.5729 29.992 82.7489 30.792 81.6929 31.352C80.6529 31.896 79.4689 32.168 78.1409 32.168C76.8129 32.168 75.6209 31.896 74.5649 31.352C73.5089 30.792 72.6769 29.992 72.0689 28.952C71.4769 27.912 71.1809 26.696 71.1809 25.304C71.1809 23.912 71.4769 22.696 72.0689 21.656C72.6769 20.616 73.5089 19.824 74.5649 19.28C75.6209 18.72 76.8129 18.44 78.1409 18.44ZM78.1409 21.992C77.3569 21.992 76.6929 22.28 76.1489 22.856C75.6209 23.416 75.3569 24.232 75.3569 25.304C75.3569 26.376 75.6209 27.192 76.1489 27.752C76.6929 28.312 77.3569 28.592 78.1409 28.592C78.9249 28.592 79.5809 28.312 80.1089 27.752C80.6369 27.192 80.9009 26.376 80.9009 25.304C80.9009 24.232 80.6369 23.416 80.1089 22.856C79.5809 22.28 78.9249 21.992 78.1409 21.992ZM90.3011 18.608L93.5171 26.816L96.5171 18.608H101.053L92.7011 38.384H88.1891L91.3331 31.496L85.7171 18.608H90.3011ZM111.325 26.048V32H107.221V15.032H113.869C115.885 15.032 117.421 15.536 118.477 16.544C119.533 17.536 120.061 18.88 120.061 20.576C120.061 21.632 119.821 22.576 119.341 23.408C118.877 24.224 118.181 24.872 117.253 25.352C116.325 25.816 115.197 26.048 113.869 26.048H111.325ZM113.413 22.76C115.061 22.76 115.885 22.032 115.885 20.576C115.885 19.088 115.061 18.344 113.413 18.344H111.325V22.76H113.413ZM128.344 18.44C129.672 18.44 130.856 18.72 131.896 19.28C132.952 19.824 133.776 20.616 134.368 21.656C134.976 22.696 135.28 23.912 135.28 25.304C135.28 26.696 134.976 27.912 134.368 28.952C133.776 29.992 132.952 30.792 131.896 31.352C130.856 31.896 129.672 32.168 128.344 32.168C127.016 32.168 125.824 31.896 124.768 31.352C123.712 30.792 122.88 29.992 122.272 28.952C121.68 27.912 121.384 26.696 121.384 25.304C121.384 23.912 121.68 22.696 122.272 21.656C122.88 20.616 123.712 19.824 124.768 19.28C125.824 18.72 127.016 18.44 128.344 18.44ZM128.344 21.992C127.56 21.992 126.896 22.28 126.352 22.856C125.824 23.416 125.56 24.232 125.56 25.304C125.56 26.376 125.824 27.192 126.352 27.752C126.896 28.312 127.56 28.592 128.344 28.592C129.128 28.592 129.784 28.312 130.312 27.752C130.84 27.192 131.104 26.376 131.104 25.304C131.104 24.232 130.84 23.416 130.312 22.856C129.784 22.28 129.128 21.992 128.344 21.992ZM142.28 18.44C143.976 18.44 145.328 18.864 146.336 19.712C147.36 20.56 148 21.68 148.256 23.072H144.416C144.304 22.528 144.048 22.104 143.648 21.8C143.264 21.48 142.776 21.32 142.184 21.32C141.72 21.32 141.368 21.424 141.128 21.632C140.888 21.824 140.768 22.104 140.768 22.472C140.768 22.888 140.984 23.2 141.416 23.408C141.864 23.616 142.56 23.824 143.504 24.032C144.528 24.272 145.368 24.52 146.024 24.776C146.68 25.016 147.248 25.416 147.728 25.976C148.208 26.536 148.448 27.288 148.448 28.232C148.448 29 148.24 29.68 147.824 30.272C147.408 30.864 146.808 31.328 146.024 31.664C145.24 32 144.312 32.168 143.24 32.168C141.432 32.168 139.984 31.768 138.896 30.968C137.808 30.168 137.144 29.024 136.904 27.536H140.864C140.928 28.112 141.168 28.552 141.584 28.856C142.016 29.16 142.568 29.312 143.24 29.312C143.704 29.312 144.056 29.208 144.296 29C144.536 28.776 144.656 28.488 144.656 28.136C144.656 27.672 144.432 27.344 143.984 27.152C143.552 26.944 142.84 26.728 141.848 26.504C140.856 26.296 140.04 26.072 139.4 25.832C138.76 25.592 138.208 25.208 137.744 24.68C137.28 24.136 137.048 23.4 137.048 22.472C137.048 21.272 137.504 20.304 138.416 19.568C139.328 18.816 140.616 18.44 142.28 18.44ZM158.305 28.472V32H156.457C154.889 32 153.665 31.616 152.785 30.848C151.921 30.064 151.489 28.776 151.489 26.984V22.064H149.689V18.608H151.489V15.32H155.593V18.608H158.281V22.064H155.593V27.056C155.593 27.584 155.697 27.952 155.905 28.16C156.129 28.368 156.497 28.472 157.009 28.472H158.305ZM173.931 18.608V32H169.803V29.576C169.419 30.36 168.843 30.984 168.075 31.448C167.323 31.912 166.443 32.144 165.435 32.144C163.899 32.144 162.675 31.632 161.763 30.608C160.867 29.584 160.419 28.176 160.419 26.384V18.608H164.499V25.88C164.499 26.792 164.731 27.504 165.195 28.016C165.675 28.512 166.315 28.76 167.115 28.76C167.947 28.76 168.603 28.496 169.083 27.968C169.563 27.44 169.803 26.688 169.803 25.712V18.608H173.931ZM180.864 14.24V32H176.76V14.24H180.864ZM188.785 18.44C189.809 18.44 190.689 18.672 191.425 19.136C192.161 19.6 192.705 20.232 193.057 21.032V18.608H197.137V32H193.057V29.576C192.705 30.376 192.161 31.008 191.425 31.472C190.689 31.936 189.809 32.168 188.785 32.168C187.681 32.168 186.689 31.896 185.809 31.352C184.945 30.792 184.257 29.992 183.745 28.952C183.249 27.912 183.001 26.696 183.001 25.304C183.001 23.896 183.249 22.68 183.745 21.656C184.257 20.616 184.945 19.824 185.809 19.28C186.689 18.72 187.681 18.44 188.785 18.44ZM190.105 22.04C189.225 22.04 188.513 22.328 187.969 22.904C187.441 23.48 187.177 24.28 187.177 25.304C187.177 26.328 187.441 27.128 187.969 27.704C188.513 28.28 189.225 28.568 190.105 28.568C190.969 28.568 191.673 28.272 192.217 27.68C192.777 27.088 193.057 26.296 193.057 25.304C193.057 24.296 192.777 23.504 192.217 22.928C191.673 22.336 190.969 22.04 190.105 22.04ZM208.459 18.464C209.995 18.464 211.211 18.976 212.107 20C213.019 21.024 213.475 22.432 213.475 24.224V32H209.371V24.704C209.371 23.808 209.131 23.112 208.651 22.616C208.187 22.104 207.563 21.848 206.779 21.848C205.947 21.848 205.283 22.112 204.787 22.64C204.307 23.168 204.067 23.92 204.067 24.896V32H199.963V18.608H204.067V21.056C204.451 20.256 205.019 19.624 205.771 19.16C206.539 18.696 207.435 18.464 208.459 18.464ZM223.766 28.472V32H221.918C220.35 32 219.126 31.616 218.246 30.848C217.382 30.064 216.95 28.776 216.95 26.984V22.064H215.15V18.608H216.95V15.32H221.054V18.608H223.742V22.064H221.054V27.056C221.054 27.584 221.158 27.952 221.366 28.16C221.59 28.368 221.958 28.472 222.47 28.472H223.766ZM238.792 24.944C238.792 25.28 238.752 25.648 238.672 26.048H229.384C229.432 27.056 229.688 27.784 230.152 28.232C230.616 28.664 231.208 28.88 231.928 28.88C232.536 28.88 233.04 28.728 233.44 28.424C233.84 28.12 234.104 27.728 234.232 27.248H238.576C238.4 28.192 238.016 29.04 237.424 29.792C236.832 30.528 236.08 31.112 235.168 31.544C234.256 31.96 233.24 32.168 232.12 32.168C230.808 32.168 229.64 31.896 228.616 31.352C227.608 30.792 226.816 29.992 226.24 28.952C225.664 27.912 225.376 26.696 225.376 25.304C225.376 23.896 225.656 22.68 226.216 21.656C226.792 20.616 227.592 19.824 228.616 19.28C229.64 18.72 230.808 18.44 232.12 18.44C233.448 18.44 234.616 18.712 235.624 19.256C236.632 19.8 237.408 20.568 237.952 21.56C238.512 22.536 238.792 23.664 238.792 24.944ZM234.64 24.32C234.656 23.44 234.416 22.784 233.92 22.352C233.44 21.904 232.84 21.68 232.12 21.68C231.368 21.68 230.744 21.904 230.248 22.352C229.752 22.8 229.472 23.456 229.408 24.32H234.64Z" fill="#343843"/>
<defs>
<clipPath id="clip0">
<rect width="48" height="48" fill="white"/>
</clipPath>
</defs>
</svg>

