<svg width="70" height="63" viewBox="0 0 70 63" fill="none" xmlns="http://www.w3.org/2000/svg">
<g clip-path="url(#clip0)">
<path d="M30.5944 52.1041H1.38694C1.01923 52.1037 0.666697 51.9582 0.406684 51.6996C0.146671 51.4409 0.000413836 51.0902 0 50.7244V11.2811C0.000413837 10.9153 0.146671 10.5646 0.406684 10.3059C0.666697 10.0473 1.01923 9.90178 1.38694 9.90137H30.5944C30.9621 9.90178 31.3146 10.0473 31.5747 10.3059C31.8347 10.5646 31.9809 10.9153 31.9813 11.2811V50.7244C31.9809 51.0902 31.8347 51.4409 31.5747 51.6996C31.3146 51.9582 30.9621 52.1037 30.5944 52.1041Z" fill="white"/>
<path d="M14.6743 20.1664C14.6743 21.3056 14.312 22.4156 13.6393 23.3375C12.9667 24.2594 12.018 24.946 10.9292 25.2989C10.8967 25.3093 10.8642 25.3196 10.8311 25.3294C10.6901 25.3725 10.547 25.4093 10.4016 25.4407C10.1383 25.4976 9.87103 25.5345 9.60214 25.5511C9.48528 25.559 9.36775 25.5629 9.24954 25.5629C8.63881 25.5635 8.03238 25.4613 7.45591 25.2607C7.43915 25.2548 7.42239 25.2489 7.40611 25.243C6.47211 24.9075 5.64861 24.3233 5.02534 23.5542C4.40208 22.7852 4.00297 21.8607 3.87149 20.8815C3.74002 19.9023 3.88122 18.9061 4.27973 18.0012C4.67823 17.0964 5.31875 16.3177 6.13147 15.75C6.9442 15.1824 7.89795 14.8475 8.88881 14.7819C9.87967 14.7163 10.8696 14.9226 11.7508 15.3781C12.632 15.8336 13.3705 16.521 13.886 17.3654C14.4015 18.2097 14.6742 19.1786 14.6743 20.1665V20.1664Z" fill="white"/>
<path d="M9.11933 23.7419C10.577 23.7419 11.7587 22.5664 11.7587 21.1163C11.7587 19.6662 10.577 18.4907 9.11933 18.4907C7.66166 18.4907 6.47998 19.6662 6.47998 21.1163C6.47998 22.5664 7.66166 23.7419 9.11933 23.7419Z" fill="#E20613"/>
<path d="M9.27346 22.5311L9.27621 22.433C9.09272 22.4279 8.93095 22.4165 8.80939 22.3281C8.77493 22.3017 8.7466 22.2681 8.72634 22.2298C8.70607 22.1915 8.69434 22.1492 8.69195 22.106C8.68981 22.0796 8.69383 22.053 8.70369 22.0284C8.71355 22.0037 8.72899 21.9817 8.7488 21.964C8.79473 21.9363 8.84731 21.9214 8.90102 21.9209C8.95472 21.9205 9.00756 21.9344 9.05397 21.9613L9.13558 21.9985L8.97908 20.8608L8.88137 20.8742L9.01448 21.8419C8.95999 21.8218 8.90131 21.8156 8.84378 21.8238C8.78626 21.832 8.73172 21.8545 8.68514 21.8891C8.65381 21.9163 8.62922 21.9503 8.6133 21.9885C8.59739 22.0268 8.59057 22.0681 8.59339 22.1094C8.59627 22.1675 8.61189 22.2243 8.63915 22.2758C8.66642 22.3272 8.70466 22.3722 8.75121 22.4074C8.9074 22.5209 9.11037 22.5266 9.27346 22.5311Z" fill="#2F2E41"/>
<path d="M8.39839 20.9575H7.86719V21.0556H8.39839V20.9575Z" fill="#2F2E41"/>
<path d="M10.0751 20.9575H9.54395V21.0556H10.0751V20.9575Z" fill="#2F2E41"/>
<path d="M9.86957 24.7868C9.87657 24.7546 9.88021 24.7217 9.88043 24.6887C9.88023 24.5652 9.83081 24.4467 9.74299 24.3594C9.65518 24.272 9.53612 24.2229 9.41193 24.2227H8.72151C8.59729 24.2228 8.47819 24.2719 8.39035 24.3593C8.30251 24.4467 8.25312 24.5651 8.25301 24.6887C8.25298 24.7219 8.25661 24.7549 8.26384 24.7873C8.00321 24.869 7.75685 24.9903 7.53349 25.1469C7.49007 25.1768 7.44719 25.2092 7.40625 25.2431C7.42253 25.249 7.43929 25.2548 7.45605 25.2607C8.03252 25.4614 8.63895 25.5635 9.24967 25.5629C9.36803 25.5629 9.48556 25.559 9.60228 25.5512C9.87117 25.5345 10.1384 25.4976 10.4017 25.4408C10.5472 25.4094 10.6902 25.3726 10.8312 25.3294C10.5522 25.0839 10.2246 24.899 9.86957 24.7868Z" fill="#2F2E41"/>
<path d="M9.78058 25.489C9.71658 25.4937 9.65498 25.5152 9.60205 25.5513C9.87094 25.5346 10.1382 25.4977 10.4015 25.4409L9.78058 25.489Z" fill="#2F2E41"/>
<path d="M11.5129 20.4929L6.92783 18.8243C6.8787 18.8064 6.83872 18.7699 6.81669 18.7227C6.79465 18.6755 6.79237 18.6215 6.81035 18.5726L6.82586 18.4997C7.18394 17.5259 8.37083 16.9131 9.34966 17.2693L10.7606 17.7828C11.7394 18.139 12.1649 19.292 11.8068 20.2658L11.766 20.3761C11.748 20.4249 11.7112 20.4647 11.6638 20.4866C11.6163 20.5085 11.5621 20.5108 11.5129 20.4929Z" fill="#2F2E41"/>
<path d="M11.7601 20.5852C5.36937 20.8198 4.81096 20.021 6.75816 18.7649L7.17126 18.0088L11.9056 19.7258L11.7601 20.5852Z" fill="#2F2E41"/>
<path d="M10.5069 17.6629C10.5422 17.5462 10.3911 17.3978 10.1693 17.3315C9.94764 17.2652 9.7393 17.3061 9.70402 17.4229C9.66874 17.5396 9.81987 17.688 10.0416 17.7543C10.2633 17.8206 10.4716 17.7797 10.5069 17.6629Z" fill="#2F2E41"/>
<path d="M9.24898 25.71C8.62158 25.7106 7.9986 25.6057 7.40643 25.3995L7.35496 25.3812C6.11457 24.9353 5.07336 24.0662 4.41652 22.9285C3.75968 21.7907 3.52978 20.4581 3.7677 19.1676C4.00563 17.8771 4.69595 16.7124 5.71591 15.8806C6.73588 15.0487 8.01935 14.6038 9.33809 14.6247C10.6568 14.6457 11.9253 15.1313 12.918 15.9951C13.9107 16.859 14.5633 18.0451 14.7596 19.3425C14.9559 20.6399 14.6833 21.9645 13.9902 23.0808C13.2971 24.197 12.2285 25.0326 10.9744 25.4388C10.9394 25.4499 10.9064 25.4603 10.8729 25.4703C10.7328 25.5132 10.5842 25.5517 10.4323 25.5844C10.1617 25.6428 9.88704 25.6807 9.61067 25.6979C9.49193 25.7059 9.36994 25.71 9.24898 25.71ZM9.24898 14.9171C8.00726 14.9173 6.80537 15.353 5.85469 16.1476C4.90401 16.9422 4.26544 18.0449 4.05127 19.2616C3.8371 20.4783 4.06107 21.7312 4.68376 22.7999C5.30646 23.8686 6.28802 24.6846 7.4558 25.1045L7.50466 25.1218C8.06526 25.317 8.65504 25.4163 9.24898 25.4156C9.36332 25.4156 9.47859 25.4118 9.5916 25.4042C9.85332 25.3879 10.1134 25.352 10.3697 25.2968C10.5133 25.2658 10.6537 25.2294 10.787 25.1886C10.82 25.1788 10.8514 25.1689 10.8827 25.159C12.0771 24.772 13.0936 23.9738 13.7495 22.908C14.4053 21.8421 14.6574 20.5785 14.4606 19.3443C14.2637 18.1101 13.6307 16.9862 12.6754 16.1747C11.7201 15.3632 10.5052 14.9173 9.24898 14.9171Z" fill="#CCCCCC"/>
<path d="M30.5944 52.1041H1.38694C1.01923 52.1037 0.666697 51.9582 0.406684 51.6996C0.146671 51.4409 0.000413836 51.0902 0 50.7244V11.2811C0.000413837 10.9153 0.146671 10.5646 0.406684 10.3059C0.666697 10.0473 1.01923 9.90178 1.38694 9.90137H30.5944C30.9621 9.90178 31.3146 10.0473 31.5747 10.3059C31.8347 10.5646 31.9809 10.9153 31.9813 11.2811V50.7244C31.9809 51.0902 31.8347 51.4409 31.5747 51.6996C31.3146 51.9582 30.9621 52.1037 30.5944 52.1041ZM1.38694 10.0637C1.06249 10.0641 0.751436 10.1924 0.522013 10.4207C0.29259 10.6489 0.163538 10.9583 0.16317 11.2811V50.7244C0.163538 51.0472 0.292587 51.3566 0.52201 51.5848C0.751433 51.813 1.06249 51.9414 1.38694 51.9418H30.5944C30.9189 51.9414 31.2299 51.813 31.4593 51.5848C31.6888 51.3566 31.8178 51.0472 31.8182 50.7244V11.2811C31.8178 10.9583 31.6888 10.6489 31.4593 10.4207C31.2299 10.1924 30.9189 10.0641 30.5944 10.0637H1.38694Z" fill="#CCCCCC"/>
<path d="M24.9402 20.1456H16.6755C16.5022 20.1453 16.3361 20.0767 16.2137 19.9548C16.0912 19.8328 16.0225 19.6675 16.0225 19.4951C16.0225 19.3228 16.0912 19.1575 16.2137 19.0355C16.3361 18.9136 16.5022 18.8449 16.6755 18.8447H24.9402C25.0261 18.8446 25.1112 18.8614 25.1906 18.894C25.2701 18.9266 25.3422 18.9745 25.403 19.0349C25.4638 19.0954 25.5121 19.1671 25.545 19.2461C25.5779 19.325 25.5948 19.4097 25.5948 19.4951C25.5948 19.5806 25.5779 19.6653 25.545 19.7442C25.5121 19.8232 25.4638 19.8949 25.403 19.9553C25.3422 20.0157 25.2701 20.0636 25.1906 20.0963C25.1112 20.1289 25.0261 20.1457 24.9402 20.1456Z" fill="#E6E6E6"/>
<path d="M27.6372 22.3404H16.6755C16.5022 22.3402 16.3361 22.2716 16.2137 22.1496C16.0912 22.0276 16.0225 21.8623 16.0225 21.69C16.0225 21.5176 16.0912 21.3523 16.2137 21.2303C16.3361 21.1084 16.5022 21.0398 16.6755 21.0396H27.6372C27.8105 21.0398 27.9766 21.1084 28.099 21.2303C28.2215 21.3523 28.2903 21.5176 28.2903 21.69C28.2903 21.8623 28.2215 22.0276 28.099 22.1496C27.9766 22.2716 27.8105 22.3402 27.6372 22.3404Z" fill="#E6E6E6"/>
<path d="M24.9281 30.7598H4.3441C4.25817 30.7599 4.17306 30.7432 4.09364 30.7105C4.01422 30.6779 3.94204 30.63 3.88124 30.5696C3.82044 30.5092 3.77221 30.4375 3.7393 30.3585C3.70639 30.2795 3.68945 30.1949 3.68945 30.1094C3.68945 30.0239 3.70639 29.9393 3.7393 29.8603C3.77221 29.7813 3.82044 29.7096 3.88124 29.6492C3.94204 29.5888 4.01422 29.5409 4.09364 29.5083C4.17306 29.4756 4.25817 29.4589 4.3441 29.459H24.9281C25.1014 29.4592 25.2675 29.5278 25.39 29.6498C25.5124 29.7717 25.5812 29.937 25.5812 30.1094C25.5812 30.2818 25.5124 30.4471 25.39 30.569C25.2675 30.691 25.1014 30.7596 24.9281 30.7598Z" fill="#E6E6E6"/>
<path d="M27.6252 32.9551H4.3441C4.25817 32.9552 4.17306 32.9385 4.09364 32.9059C4.01422 32.8732 3.94204 32.8253 3.88124 32.7649C3.82044 32.7045 3.77221 32.6328 3.7393 32.5538C3.70639 32.4748 3.68945 32.3902 3.68945 32.3047C3.68945 32.2192 3.70639 32.1346 3.7393 32.0556C3.77221 31.9767 3.82044 31.9049 3.88124 31.8445C3.94204 31.7841 4.01422 31.7362 4.09364 31.7036C4.17306 31.6709 4.25817 31.6542 4.3441 31.6543H27.6252C27.7111 31.6542 27.7962 31.6709 27.8757 31.7036C27.9551 31.7362 28.0273 31.7841 28.0881 31.8445C28.1489 31.9049 28.1971 31.9767 28.23 32.0556C28.2629 32.1346 28.2798 32.2192 28.2798 32.3047C28.2798 32.3902 28.2629 32.4748 28.23 32.5538C28.1971 32.6328 28.1489 32.7045 28.0881 32.7649C28.0273 32.8253 27.9551 32.8732 27.8757 32.9059C27.7962 32.9385 27.7111 32.9552 27.6252 32.9551Z" fill="#E6E6E6"/>
<path d="M24.9278 38.001H4.34377C4.17037 38.001 4.00406 37.9325 3.88144 37.8105C3.75883 37.6885 3.68994 37.5231 3.68994 37.3506C3.68994 37.1781 3.75883 37.0127 3.88144 36.8907C4.00406 36.7687 4.17037 36.7002 4.34377 36.7002H24.9278C25.1012 36.7002 25.2675 36.7687 25.3902 36.8907C25.5128 37.0127 25.5817 37.1781 25.5817 37.3506C25.5817 37.5231 25.5128 37.6885 25.3902 37.8105C25.2675 37.9325 25.1012 38.001 24.9278 38.001Z" fill="#E6E6E6"/>
<path d="M27.6249 40.1959H4.34377C4.17037 40.1959 4.00406 40.1273 3.88144 40.0054C3.75883 39.8834 3.68994 39.7179 3.68994 39.5454C3.68994 39.3729 3.75883 39.2075 3.88144 39.0855C4.00406 38.9635 4.17037 38.895 4.34377 38.895H27.6249C27.7983 38.895 27.9646 38.9635 28.0872 39.0855C28.2098 39.2075 28.2787 39.3729 28.2787 39.5454C28.2787 39.7179 28.2098 39.8834 28.0872 40.0054C27.9646 40.1273 27.7983 40.1959 27.6249 40.1959Z" fill="#E6E6E6"/>
<path d="M24.9278 45.2413H4.34377C4.17037 45.2413 4.00406 45.1727 3.88144 45.0508C3.75883 44.9288 3.68994 44.7633 3.68994 44.5908C3.68994 44.4183 3.75883 44.2529 3.88144 44.1309C4.00406 44.009 4.17037 43.9404 4.34377 43.9404H24.9278C25.1012 43.9404 25.2675 44.009 25.3902 44.1309C25.5128 44.2529 25.5817 44.4183 25.5817 44.5908C25.5817 44.7633 25.5128 44.9288 25.3902 45.0508C25.2675 45.1727 25.1012 45.2413 24.9278 45.2413Z" fill="#E6E6E6"/>
<path d="M27.6249 47.4365H4.34377C4.17037 47.4365 4.00406 47.368 3.88144 47.246C3.75883 47.1241 3.68994 46.9586 3.68994 46.7861C3.68994 46.6136 3.75883 46.4482 3.88144 46.3262C4.00406 46.2043 4.17037 46.1357 4.34377 46.1357H27.6249C27.7983 46.1357 27.9646 46.2043 28.0872 46.3262C28.2098 46.4482 28.2787 46.6136 28.2787 46.7861C28.2787 46.9586 28.2098 47.1241 28.0872 47.246C27.9646 47.368 27.7983 47.4365 27.6249 47.4365Z" fill="#E6E6E6"/>
<path d="M68.6135 42.2028L39.406 42.2028C39.0383 42.2024 38.6858 42.0569 38.4258 41.7982C38.1657 41.5396 38.0195 41.1889 38.0191 40.8231L38.019 1.37973C38.0195 1.01394 38.1657 0.663242 38.4257 0.404586C38.6857 0.14593 39.0383 0.000434776 39.406 2.28351e-05L68.6134 0C68.9812 0.000411412 69.3337 0.145904 69.5937 0.40456C69.8537 0.663215 70 1.01391 70.0004 1.3797L70.0004 40.823C70 41.1888 69.8538 41.5395 69.5937 41.7982C69.3337 42.0568 68.9812 42.2023 68.6135 42.2028Z" fill="white"/>
<path d="M68.6135 42.2028L39.406 42.2028C39.0383 42.2024 38.6858 42.0569 38.4258 41.7982C38.1657 41.5396 38.0195 41.1889 38.0191 40.8231L38.019 1.37973C38.0195 1.01394 38.1657 0.663242 38.4257 0.404586C38.6857 0.14593 39.0383 0.000434776 39.406 2.28351e-05L68.6134 0C68.9812 0.000411412 69.3337 0.145904 69.5937 0.40456C69.8537 0.663215 70 1.01391 70.0004 1.3797L70.0004 40.823C70 41.1888 69.8538 41.5395 69.5937 41.7982C69.3337 42.0568 68.9812 42.2023 68.6135 42.2028ZM39.406 0.162341C39.0815 0.162707 38.7705 0.291085 38.5411 0.519311C38.3116 0.747536 38.1826 1.05697 38.1822 1.37973L38.1822 40.8231C38.1826 41.1458 38.3117 41.4553 38.5411 41.6835C38.7705 41.9117 39.0816 42.0401 39.406 42.0405L68.6135 42.0404C68.9379 42.0401 69.249 41.9117 69.4784 41.6835C69.7078 41.4552 69.8369 41.1458 69.8373 40.8231L69.8372 1.37971C69.8369 1.05695 69.7078 0.747512 69.4784 0.519286C69.249 0.291061 68.9379 0.162684 68.6134 0.162318L39.406 0.162341Z" fill="#CCCCCC"/>
<path d="M52.7065 10.2114C52.7065 11.2787 52.3883 12.322 51.7922 13.2095C51.1962 14.0969 50.3489 14.7886 49.3577 15.197C48.3664 15.6055 47.2757 15.7123 46.2234 15.5041C45.1711 15.2959 44.2045 14.7819 43.4458 14.0272C42.6872 13.2725 42.1705 12.311 41.9612 11.2642C41.7519 10.2174 41.8593 9.13232 42.2699 8.14625C42.6805 7.16018 43.3758 6.31737 44.2679 5.72441C45.16 5.13144 46.2088 4.81494 47.2817 4.81494C48.7203 4.81539 50.0998 5.38409 51.1171 6.39602C52.1343 7.40794 52.706 8.78028 52.7065 10.2114Z" fill="white"/>
<path d="M49.7889 11.1347C49.7297 14.586 44.569 14.5854 44.5103 11.1346C44.5695 7.68337 49.7302 7.68391 49.7889 11.1347Z" fill="#E20613"/>
<path d="M47.0447 12.2059L47.042 12.1078C47.7218 12.1981 47.8682 11.36 47.1826 11.6733L47.3391 10.5356L47.4368 10.549L47.3037 11.5167C48.0255 11.4098 47.7585 12.304 47.0447 12.2059Z" fill="#2F2E41"/>
<path d="M48.4511 10.6323H47.9199V10.7304H48.4511V10.6323Z" fill="#2F2E41"/>
<path d="M46.7749 10.6323H46.2437V10.7304H46.7749V10.6323Z" fill="#2F2E41"/>
<path d="M48.0049 14.8058C48.1084 14.1106 47.2903 14.248 46.8573 14.2411C46.7875 14.2413 46.7186 14.257 46.6556 14.2871C46.5927 14.3171 46.5373 14.3608 46.4935 14.4148C46.4496 14.4689 46.4184 14.532 46.4022 14.5995C46.386 14.6671 46.3851 14.7374 46.3996 14.8053C46.0645 14.9083 45.7542 15.0787 45.4878 15.3057C46.6104 15.6951 47.8301 15.7085 48.9611 15.344C48.6854 15.0977 48.3591 14.914 48.0049 14.8058Z" fill="#2F2E41"/>
<path d="M45.9085 9.89297C46.3976 9.61175 46.9908 9.82749 47.4961 9.94545C48.4547 10.2386 49.799 9.87151 49.9156 8.73554C50.0369 7.67908 48.5841 7.09027 48.1197 8.14176L48.2549 8.12418C46.749 5.89781 44.1294 5.98224 44.1466 9.04312C44.1411 9.13768 44.289 9.13736 44.2946 9.04306C44.2391 7.23934 45.4391 6.00636 47.1354 7.16551C47.5143 7.46054 47.8483 7.80845 48.1272 8.19846C48.3038 8.39541 48.3422 7.54724 49.1877 7.7694C50.1183 8.12801 49.8147 9.4535 48.9829 9.74448C47.9553 10.2668 46.8423 9.25412 45.8338 9.76582C45.8176 9.77602 45.806 9.79209 45.8014 9.81065C45.7969 9.8292 45.7997 9.84879 45.8094 9.86528C45.8191 9.88177 45.8349 9.89387 45.8533 9.89904C45.8718 9.90421 45.8916 9.90203 45.9085 9.89297Z" fill="#2F2E41"/>
<path d="M47.2816 15.7551C45.8807 15.754 44.5317 15.2275 43.5037 14.2808C42.4757 13.3341 41.8442 12.0367 41.7352 10.6473C41.6261 9.25798 42.0476 7.87879 42.9154 6.78483C43.7833 5.69088 45.0338 4.96255 46.4175 4.7451C47.8012 4.52766 49.2165 4.83708 50.3811 5.61166C51.5457 6.38624 52.3739 7.56904 52.7007 8.92418C53.0275 10.2793 52.8287 11.7072 52.1441 12.923C51.4595 14.1389 50.3394 15.0533 49.007 15.484C48.4498 15.6643 47.8675 15.7558 47.2816 15.7551ZM47.2816 4.96227C46.2377 4.96213 45.2172 5.26993 44.3492 5.84675C43.4812 6.42357 42.8047 7.2435 42.4052 8.20284C42.0056 9.16219 41.901 10.2178 42.1046 11.2363C42.3083 12.2548 42.8109 13.1903 43.549 13.9246C44.2872 14.6589 45.2276 15.1589 46.2514 15.3614C47.2752 15.564 48.3364 15.4599 49.3008 15.0625C50.2652 14.665 51.0894 13.992 51.6693 13.1285C52.2491 12.2651 52.5585 11.2499 52.5584 10.2115C52.5568 8.81982 52.0004 7.48556 51.0111 6.50148C50.0219 5.51739 48.6806 4.96385 47.2816 4.96227Z" fill="#CCCCCC"/>
<path d="M62.9591 10.2442L54.6944 10.2442C54.521 10.2442 54.3546 10.1757 54.232 10.0537C54.1094 9.93172 54.0405 9.76629 54.0405 9.59378C54.0405 9.42128 54.1094 9.25585 54.232 9.13387C54.3546 9.01189 54.521 8.94337 54.6944 8.94337L62.9591 8.94336C63.1325 8.94336 63.2988 9.01189 63.4214 9.13386C63.544 9.25584 63.6129 9.42128 63.6129 9.59378C63.6129 9.76628 63.544 9.93172 63.4214 10.0537C63.2988 10.1757 63.1325 10.2442 62.9591 10.2442Z" fill="#E6E6E6"/>
<path d="M65.6555 12.4395L54.6937 12.4395C54.6078 12.4396 54.5227 12.4229 54.4432 12.3902C54.3638 12.3576 54.2916 12.3097 54.2308 12.2493C54.17 12.1889 54.1218 12.1171 54.0889 12.0382C54.056 11.9592 54.0391 11.8746 54.0391 11.7891C54.0391 11.7036 54.056 11.619 54.0889 11.54C54.1218 11.461 54.17 11.3893 54.2308 11.3289C54.2916 11.2685 54.3638 11.2206 54.4432 11.188C54.5227 11.1553 54.6078 11.1386 54.6937 11.1387L65.6555 11.1387C65.8289 11.1387 65.9952 11.2072 66.1178 11.3292C66.2404 11.4512 66.3093 11.6166 66.3093 11.7891C66.3093 11.9616 66.2404 12.127 66.1178 12.249C65.9952 12.371 65.8289 12.4395 65.6555 12.4395Z" fill="#E6E6E6"/>
<path d="M62.9466 20.8589L42.3625 20.859C42.1892 20.8587 42.0231 20.7901 41.9007 20.6682C41.7782 20.5462 41.7095 20.3809 41.7095 20.2085C41.7095 20.0362 41.7782 19.8709 41.9007 19.7489C42.0231 19.627 42.1892 19.5583 42.3625 19.5581L62.9466 19.5581C63.12 19.5581 63.2863 19.6266 63.4089 19.7486C63.5315 19.8706 63.6004 20.036 63.6004 20.2085C63.6004 20.381 63.5315 20.5465 63.4089 20.6684C63.2863 20.7904 63.12 20.8589 62.9466 20.8589Z" fill="#E6E6E6"/>
<path d="M65.6438 23.0538L42.3626 23.0538C42.2767 23.0539 42.1916 23.0371 42.1122 23.0045C42.0328 22.9719 41.9606 22.924 41.8998 22.8636C41.839 22.8032 41.7908 22.7314 41.7579 22.6525C41.7249 22.5735 41.708 22.4888 41.708 22.4034C41.708 22.3179 41.7249 22.2332 41.7579 22.1543C41.7908 22.0753 41.839 22.0036 41.8998 21.9432C41.9606 21.8828 42.0328 21.8349 42.1122 21.8022C42.1916 21.7696 42.2767 21.7528 42.3626 21.7529L65.6438 21.7529C65.8172 21.7529 65.9835 21.8215 66.1061 21.9434C66.2287 22.0654 66.2976 22.2308 66.2976 22.4033C66.2976 22.5758 66.2287 22.7413 66.1061 22.8633C65.9835 22.9852 65.8172 23.0538 65.6438 23.0538Z" fill="#E6E6E6"/>
<path d="M62.947 28.0992L42.363 28.0992C42.1897 28.099 42.0236 28.0304 41.9012 27.9084C41.7787 27.7865 41.71 27.6211 41.71 27.4488C41.71 27.2764 41.7787 27.1111 41.9012 26.9891C42.0236 26.8672 42.1897 26.7986 42.363 26.7984L62.947 26.7983C63.1205 26.7983 63.2868 26.8669 63.4094 26.9888C63.532 27.1108 63.6009 27.2763 63.6009 27.4488C63.6009 27.6213 63.532 27.7867 63.4094 27.9087C63.2868 28.0307 63.1205 28.0992 62.947 28.0992Z" fill="#E6E6E6"/>
<path d="M65.6438 30.2945L42.3626 30.2945C42.2767 30.2946 42.1916 30.2779 42.1122 30.2452C42.0328 30.2126 41.9606 30.1647 41.8998 30.1043C41.839 30.0439 41.7908 29.9721 41.7579 29.8932C41.7249 29.8142 41.708 29.7296 41.708 29.6441C41.708 29.5586 41.7249 29.474 41.7579 29.395C41.7908 29.316 41.839 29.2443 41.8998 29.1839C41.9606 29.1235 42.0328 29.0756 42.1122 29.0429C42.1916 29.0103 42.2767 28.9936 42.3626 28.9937L65.6438 28.9937C65.8172 28.9937 65.9835 29.0622 66.1061 29.1842C66.2287 29.3061 66.2976 29.4716 66.2976 29.6441C66.2976 29.8166 66.2287 29.982 66.1061 30.104C65.9835 30.226 65.8172 30.2945 65.6438 30.2945Z" fill="#E6E6E6"/>
<path d="M62.9464 35.3394L42.3623 35.3394C42.1889 35.3394 42.0226 35.2709 41.9 35.1489C41.7774 35.0269 41.7085 34.8615 41.7085 34.689C41.7085 34.5165 41.7774 34.3511 41.9 34.2291C42.0226 34.1071 42.1889 34.0386 42.3623 34.0386L62.9464 34.0386C63.1198 34.0386 63.2861 34.1071 63.4087 34.2291C63.5313 34.3511 63.6002 34.5165 63.6002 34.689C63.6002 34.8615 63.5313 35.0269 63.4087 35.1489C63.2861 35.2709 63.1198 35.3394 62.9464 35.3394Z" fill="#E6E6E6"/>
<path d="M65.6434 37.5352L42.3623 37.5352C42.1889 37.5352 42.0226 37.4667 41.9 37.3447C41.7774 37.2227 41.7085 37.0573 41.7085 36.8848C41.7085 36.7123 41.7774 36.5469 41.9 36.4249C42.0226 36.3029 42.1889 36.2344 42.3623 36.2344L65.6434 36.2344C65.8168 36.2344 65.9831 36.3029 66.1058 36.4249C66.2284 36.5468 66.2973 36.7123 66.2973 36.8848C66.2973 37.0573 66.2284 37.2227 66.1058 37.3447C65.9831 37.4667 65.8168 37.5352 65.6434 37.5352Z" fill="#E6E6E6"/>
<path d="M50.9909 59.1651H21.7834C21.4157 59.1647 21.0632 59.0192 20.8032 58.7606C20.5432 58.5019 20.3969 58.1512 20.3965 57.7854V18.3421C20.3969 17.9763 20.5432 17.6256 20.8032 17.367C21.0632 17.1083 21.4157 16.9628 21.7834 16.9624H50.9909C51.3586 16.9628 51.7111 17.1083 51.9712 17.367C52.2312 17.6256 52.3774 17.9763 52.3778 18.3421V57.7854C52.3774 58.1512 52.2312 58.5019 51.9712 58.7606C51.7111 59.0192 51.3586 59.1647 50.9909 59.1651Z" fill="white"/>
<path d="M24.2192 27.1166C24.2183 27.8269 24.3587 28.5303 24.6325 29.1864C24.9062 29.8424 25.3078 30.438 25.8141 30.9388C25.8565 30.9805 25.8999 31.0222 25.9438 31.0629C26.2082 31.3086 26.4967 31.5274 26.8049 31.7159C26.8641 31.7522 26.9232 31.787 26.9839 31.8208C27.2956 31.9956 27.624 32.1391 27.9643 32.2491C28.023 32.2683 28.0826 32.2864 28.1423 32.3031C29.224 32.6117 30.3751 32.5795 31.4376 32.2109C31.4583 32.2035 31.479 32.1961 31.4993 32.1888C32.432 31.8512 33.2537 31.2656 33.875 30.4957C34.4964 29.7258 34.8935 28.8011 35.0232 27.8222C35.1529 26.8434 35.0101 25.8479 34.6105 24.9441C34.2109 24.0404 33.5697 23.263 32.7568 22.6966C31.9438 22.1302 30.9902 21.7965 29.9999 21.7318C29.0095 21.6671 28.0203 21.8739 27.1399 22.3298C26.2595 22.7856 25.5216 23.4729 25.0066 24.3169C24.4917 25.1609 24.2193 26.1293 24.2192 27.1166Z" fill="white"/>
<path d="M28.4986 29.7616C28.5012 30.1797 28.3463 30.5836 28.0644 30.8937C27.7855 31.1982 27.3702 31.4001 26.9512 31.3166C26.5653 31.2396 26.2518 30.9041 26.2909 30.4983C26.2974 30.4104 26.3231 30.325 26.3662 30.2479C26.4093 30.1709 26.4687 30.1042 26.5404 30.0523C26.6121 30.0005 26.6942 29.9649 26.7812 29.9479C26.8681 29.9309 26.9577 29.933 27.0438 29.954C27.4103 30.0486 27.5564 30.5741 27.2509 30.8208C27.1777 30.88 27.0724 30.7765 27.1463 30.7167C27.192 30.6752 27.2264 30.623 27.2464 30.5649C27.2665 30.5067 27.2716 30.4445 27.2612 30.3838C27.2509 30.3232 27.2254 30.2662 27.1871 30.2179C27.1488 30.1696 27.099 30.1316 27.0422 30.1075C26.9751 30.0861 26.904 30.0802 26.8343 30.0902C26.7646 30.1002 26.6981 30.1259 26.6398 30.1652C26.5815 30.2046 26.533 30.2566 26.498 30.3174C26.4629 30.3781 26.4422 30.446 26.4374 30.5159C26.4132 30.8581 26.6767 31.1157 26.9998 31.1764C27.3493 31.242 27.6959 31.064 27.9327 30.8184C28.2042 30.5331 28.354 30.1544 28.3506 29.7616C28.3513 29.7425 28.3594 29.7244 28.3732 29.7111C28.387 29.6979 28.4054 29.6904 28.4246 29.6904C28.4438 29.6904 28.4623 29.6979 28.4761 29.7111C28.4899 29.7244 28.498 29.7425 28.4986 29.7616V29.7616Z" fill="#2F2E41"/>
<path d="M29.9431 30.6974C31.4007 30.6974 32.5824 29.5219 32.5824 28.0719C32.5824 26.6218 31.4007 25.4463 29.9431 25.4463C28.4854 25.4463 27.3037 26.6218 27.3037 28.0719C27.3037 29.5219 28.4854 30.6974 29.9431 30.6974Z" fill="#E20613"/>
<path d="M29.8079 29.1918L29.8052 29.0937C29.9887 29.0886 30.1504 29.0771 30.272 28.9888C30.3064 28.9623 30.3348 28.9288 30.355 28.8904C30.3753 28.8521 30.387 28.8099 30.3894 28.7666C30.3916 28.7402 30.3875 28.7136 30.3777 28.689C30.3678 28.6644 30.3524 28.6424 30.3326 28.6246C30.2866 28.5969 30.2341 28.5821 30.1804 28.5816C30.1267 28.5811 30.0738 28.5951 30.0274 28.6219L29.9458 28.6592L30.1023 27.5215L30.2 27.5348L30.0669 28.5026C30.1214 28.4824 30.1801 28.4762 30.2376 28.4845C30.2951 28.4927 30.3497 28.5151 30.3962 28.5497C30.4276 28.5769 30.4522 28.611 30.4681 28.6492C30.484 28.6874 30.4908 28.7288 30.488 28.7701C30.4851 28.8282 30.4695 28.885 30.4422 28.9364C30.415 28.9879 30.3767 29.0328 30.3302 29.068C30.174 29.1816 29.971 29.1872 29.8079 29.1918Z" fill="#2F2E41"/>
<path d="M31.2143 27.6182H30.6831V27.7163H31.2143V27.6182Z" fill="#2F2E41"/>
<path d="M29.5375 27.6182H29.0063V27.7163H29.5375V27.6182Z" fill="#2F2E41"/>
<path d="M28.1426 32.3026C29.2242 32.6112 30.3754 32.579 31.4379 32.2104C31.4586 32.203 31.4793 32.1956 31.4995 32.1883C31.2492 31.9961 30.966 31.8506 30.6636 31.7585C30.685 31.6831 30.6847 31.6032 30.6626 31.5279C30.6327 31.4325 30.5726 31.3493 30.4913 31.2906C30.41 31.2319 30.3118 31.2009 30.2114 31.2022H29.5683C29.468 31.2008 29.37 31.2318 29.2889 31.2904C29.2077 31.349 29.1478 31.4322 29.1181 31.5275C29.096 31.6029 29.0957 31.6829 29.1171 31.7585C28.8507 31.8396 28.5991 31.9623 28.3714 32.122C28.3255 32.1539 28.2812 32.1873 28.2383 32.2221C28.2057 32.2481 28.1737 32.2751 28.1426 32.3026Z" fill="#2F2E41"/>
<path d="M32.0103 27.7932C32.0103 28.2357 32.2292 28.6027 32.5138 28.6664C32.5427 28.6729 32.5724 28.6762 32.602 28.6763C32.928 28.6763 33.1938 28.2804 33.1938 27.7932C33.2012 27.5421 33.1207 27.2962 32.966 27.0976C32.9179 27.0396 32.8587 26.9918 32.7919 26.9568C32.7333 26.9263 32.6682 26.9103 32.602 26.9102C32.5112 26.9113 32.423 26.9408 32.35 26.9945C32.1493 27.1358 32.0103 27.4405 32.0103 27.7932Z" fill="#3F3D56"/>
<path d="M26.7338 27.7932C26.7338 28.1739 26.8956 28.4987 27.1224 28.6228C27.1845 28.6574 27.2545 28.6758 27.3256 28.6763C27.3415 28.6763 27.3573 28.6753 27.373 28.6733C27.6767 28.6375 27.9174 28.2568 27.9174 27.7932C27.9174 27.4218 27.7631 27.1034 27.5451 26.9734C27.4792 26.9327 27.4032 26.9108 27.3256 26.9102C27.2595 26.9103 27.1944 26.9263 27.1358 26.9568C27.0688 26.9919 27.0094 27.04 26.9612 27.0981C26.807 27.2967 26.7266 27.5423 26.7338 27.7932Z" fill="#3F3D56"/>
<path d="M27.1596 28.5382C27.1713 28.5382 27.1829 28.5354 27.1934 28.5301C27.2038 28.5247 27.2128 28.517 27.2197 28.5075C27.2265 28.498 27.231 28.487 27.2327 28.4755C27.2345 28.4639 27.2334 28.4521 27.2297 28.4411C27.0883 28.0228 27.0458 27.5778 27.1054 27.1406C27.165 26.7033 27.3252 26.2856 27.5735 25.92C27.8218 25.5543 28.1515 25.2506 28.5369 25.0323C28.9224 24.814 29.3533 24.687 29.7961 24.6613C30.2389 24.6356 30.6817 24.7119 31.0901 24.8841C31.4985 25.0563 31.8615 25.3199 32.1508 25.6543C32.4401 25.9888 32.6481 26.3851 32.7584 26.8125C32.8687 27.2398 32.8785 27.6868 32.787 28.1185C32.783 28.1376 32.7868 28.1575 32.7975 28.1738C32.8082 28.1901 32.825 28.2015 32.8441 28.2056C32.8633 28.2096 32.8833 28.2059 32.8997 28.1953C32.9162 28.1846 32.9277 28.168 32.9318 28.1489C33.028 27.695 33.0178 27.225 32.9018 26.7757C32.7859 26.3263 32.5673 25.9096 32.2631 25.558C31.9589 25.2063 31.5773 24.9292 31.1479 24.7481C30.7185 24.567 30.253 24.4869 29.7874 24.5139C29.3218 24.5409 28.8688 24.6744 28.4635 24.904C28.0582 25.1335 27.7116 25.4529 27.4506 25.8374C27.1896 26.2219 27.0213 26.661 26.9586 27.1208C26.896 27.5805 26.9408 28.0484 27.0895 28.4881C27.0945 28.5027 27.1039 28.5154 27.1165 28.5244C27.129 28.5334 27.1441 28.5382 27.1596 28.5382Z" fill="#3F3D56"/>
<path d="M31.2691 26.3707C31.3129 26.4418 31.3311 26.5256 31.3207 26.6084C31.3103 26.6911 31.272 26.7679 31.2119 26.8262C31.0687 26.9854 30.8402 26.9955 30.6418 26.9659C30.4191 26.9327 30.183 26.829 29.9576 26.8989C29.7655 26.9585 29.6285 27.1318 29.4289 27.1754C29.2519 27.214 29.0402 27.1629 28.9782 26.9752C28.9484 26.885 29.0912 26.8464 29.1209 26.9361C29.161 27.0575 29.3343 27.0551 29.4336 27.0215C29.5927 26.9676 29.7154 26.8364 29.8718 26.7738C30.0582 26.7164 30.2579 26.7169 30.444 26.7754C30.621 26.815 30.8246 26.8738 31.0009 26.7998C31.1314 26.745 31.2352 26.5724 31.1413 26.445C31.085 26.3685 31.2133 26.295 31.2691 26.3707V26.3707Z" fill="#2F2E41"/>
<path d="M29.644 32.6605C29.1222 32.6609 28.6029 32.5883 28.1013 32.4447C28.0424 32.4283 27.9805 32.4095 27.9183 32.3892C27.5689 32.2761 27.2316 32.1287 26.9114 31.9493C26.8513 31.9158 26.791 31.8805 26.7273 31.8414C26.4107 31.6477 26.1144 31.423 25.8428 31.1707C25.798 31.1291 25.7536 31.0864 25.7102 31.0438C24.856 30.1966 24.3012 29.0965 24.1292 27.9088C23.9572 26.7212 24.1772 25.5101 24.7563 24.4575C25.3353 23.4048 26.242 22.5675 27.3403 22.0714C28.4385 21.5752 29.6689 21.4469 30.8467 21.7058C32.0245 21.9646 33.0861 22.5967 33.8719 23.507C34.6578 24.4174 35.1254 25.5568 35.2047 26.7541C35.284 27.9514 34.9705 29.142 34.3115 30.147C33.6524 31.1519 32.6834 31.917 31.5499 32.3273C31.5295 32.3347 31.5085 32.3422 31.4874 32.3497C30.895 32.5561 30.2717 32.6611 29.644 32.6605ZM29.644 21.8676C28.5997 21.8677 27.5788 22.176 26.7107 22.7535C25.8425 23.3311 25.1662 24.1519 24.7673 25.1121C24.3684 26.0722 24.2649 27.1285 24.4698 28.1473C24.6748 29.166 25.179 30.1013 25.9186 30.8348C25.9596 30.875 26.0019 30.9157 26.0448 30.9555C26.302 31.1945 26.5826 31.4073 26.8824 31.5907C26.9428 31.6278 26.9996 31.6611 27.0563 31.6927C27.3596 31.8627 27.6791 32.0022 28.01 32.1094C28.0686 32.1285 28.1265 32.146 28.1824 32.1616C29.2348 32.4621 30.3549 32.4308 31.3887 32.0722L31.4485 32.0508C32.6144 31.6286 33.5934 30.8114 34.2138 29.7425C34.8341 28.6737 35.0561 27.4216 34.8407 26.2062C34.6253 24.9907 33.9864 23.8896 33.036 23.0962C32.0857 22.3028 30.8847 21.8678 29.644 21.8676L29.644 21.8676Z" fill="#CCCCCC"/>
<path d="M50.9909 59.1651H21.7834C21.4157 59.1647 21.0632 59.0192 20.8032 58.7606C20.5432 58.5019 20.3969 58.1512 20.3965 57.7854V18.3421C20.3969 17.9763 20.5432 17.6256 20.8032 17.367C21.0632 17.1083 21.4157 16.9628 21.7834 16.9624H50.9909C51.3586 16.9628 51.7111 17.1083 51.9712 17.367C52.2312 17.6256 52.3774 17.9763 52.3778 18.3421V57.7854C52.3774 58.1512 52.2312 58.5019 51.9712 58.7606C51.7111 59.0192 51.3586 59.1647 50.9909 59.1651ZM21.7834 17.1247C21.459 17.1251 21.1479 17.2535 20.9185 17.4817C20.6891 17.7099 20.56 18.0193 20.5597 18.3421V57.7854C20.56 58.1082 20.6891 58.4176 20.9185 58.6458C21.1479 58.8741 21.459 59.0024 21.7834 59.0028H50.9909C51.3153 59.0024 51.6264 58.8741 51.8558 58.6458C52.0852 58.4176 52.2143 58.1082 52.2147 57.7854V18.3421C52.2143 18.0193 52.0852 17.7099 51.8558 17.4817C51.6264 17.2535 51.3153 17.1251 50.9909 17.1247H21.7834Z" fill="#3F3D56"/>
<path d="M45.3365 27.2066H37.0718C36.8984 27.2066 36.7321 27.1381 36.6095 27.0161C36.4869 26.8941 36.418 26.7287 36.418 26.5562C36.418 26.3837 36.4869 26.2182 36.6095 26.0963C36.7321 25.9743 36.8984 25.9058 37.0718 25.9058H45.3365C45.5099 25.9058 45.6762 25.9743 45.7988 26.0963C45.9214 26.2182 45.9903 26.3837 45.9903 26.5562C45.9903 26.7287 45.9214 26.8941 45.7988 27.0161C45.6762 27.1381 45.5099 27.2066 45.3365 27.2066Z" fill="#E20613"/>
<path d="M48.0335 29.4014H37.0718C36.8984 29.4014 36.7321 29.3329 36.6095 29.2109C36.4869 29.0889 36.418 28.9235 36.418 28.751C36.418 28.5785 36.4869 28.4131 36.6095 28.2911C36.7321 28.1691 36.8984 28.1006 37.0718 28.1006H48.0335C48.207 28.1006 48.3733 28.1691 48.4959 28.2911C48.6185 28.4131 48.6874 28.5785 48.6874 28.751C48.6874 28.9235 48.6185 29.0889 48.4959 29.2109C48.3733 29.3329 48.207 29.4014 48.0335 29.4014Z" fill="#E20613"/>
<path d="M45.3243 37.8213H24.7403C24.5668 37.8213 24.4005 37.7528 24.2779 37.6308C24.1553 37.5089 24.0864 37.3434 24.0864 37.1709C24.0864 36.9984 24.1553 36.833 24.2779 36.711C24.4005 36.589 24.5668 36.5205 24.7403 36.5205H45.3243C45.4977 36.5205 45.664 36.589 45.7866 36.711C45.9092 36.833 45.9781 36.9984 45.9781 37.1709C45.9781 37.3434 45.9092 37.5089 45.7866 37.6308C45.664 37.7528 45.4977 37.8213 45.3243 37.8213Z" fill="#CCCCCC"/>
<path d="M48.0213 40.0162H24.7403C24.5668 40.0162 24.4005 39.9476 24.2779 39.8257C24.1553 39.7037 24.0864 39.5382 24.0864 39.3657C24.0864 39.1932 24.1553 39.0278 24.2779 38.9058C24.4005 38.7839 24.5668 38.7153 24.7403 38.7153H48.0213C48.1947 38.7153 48.361 38.7839 48.4837 38.9058C48.6063 39.0278 48.6752 39.1932 48.6752 39.3657C48.6752 39.5382 48.6063 39.7037 48.4837 39.8257C48.361 39.9476 48.1947 40.0162 48.0213 40.0162Z" fill="#CCCCCC"/>
<path d="M45.3245 45.0616H24.7404C24.5672 45.0614 24.4011 44.9928 24.2786 44.8708C24.1562 44.7488 24.0874 44.5835 24.0874 44.4112C24.0874 44.2388 24.1562 44.0735 24.2786 43.9515C24.4011 43.8296 24.5672 43.761 24.7404 43.7607H45.3245C45.4979 43.7607 45.6642 43.8293 45.7868 43.9512C45.9094 44.0732 45.9783 44.2387 45.9783 44.4112C45.9783 44.5837 45.9094 44.7491 45.7868 44.8711C45.6642 44.9931 45.4979 45.0616 45.3245 45.0616Z" fill="#CCCCCC"/>
<path d="M48.0215 47.2564H24.7404C24.5672 47.2562 24.4011 47.1876 24.2786 47.0656C24.1562 46.9437 24.0874 46.7784 24.0874 46.606C24.0874 46.4336 24.1562 46.2683 24.2786 46.1464C24.4011 46.0244 24.5672 45.9558 24.7404 45.9556H48.0215C48.1949 45.9556 48.3612 46.0241 48.4839 46.1461C48.6065 46.2681 48.6754 46.4335 48.6754 46.606C48.6754 46.7785 48.6065 46.9439 48.4839 47.0659C48.3612 47.1879 48.1949 47.2564 48.0215 47.2564Z" fill="#CCCCCC"/>
<path d="M45.3243 52.3018H24.7403C24.5668 52.3018 24.4005 52.2333 24.2779 52.1113C24.1553 51.9893 24.0864 51.8239 24.0864 51.6514C24.0864 51.4789 24.1553 51.3135 24.2779 51.1915C24.4005 51.0695 24.5668 51.001 24.7403 51.001H45.3243C45.4977 51.001 45.664 51.0695 45.7866 51.1915C45.9092 51.3135 45.9781 51.4789 45.9781 51.6514C45.9781 51.8239 45.9092 51.9893 45.7866 52.1113C45.664 52.2333 45.4977 52.3018 45.3243 52.3018Z" fill="#CCCCCC"/>
<path d="M48.0213 54.4971H24.7403C24.5668 54.4971 24.4005 54.4286 24.2779 54.3066C24.1553 54.1846 24.0864 54.0192 24.0864 53.8467C24.0864 53.6742 24.1553 53.5088 24.2779 53.3868C24.4005 53.2648 24.5668 53.1963 24.7403 53.1963H48.0213C48.1947 53.1963 48.361 53.2648 48.4837 53.3868C48.6063 53.5088 48.6752 53.6742 48.6752 53.8467C48.6752 54.0192 48.6063 54.1846 48.4837 54.3066C48.361 54.4286 48.1947 54.4971 48.0213 54.4971Z" fill="#CCCCCC"/>
<path d="M50.6518 50.1836C49.8052 50.1827 48.9667 50.3477 48.1843 50.6693C47.4019 50.991 46.6909 51.4628 46.092 52.058C45.493 52.6531 45.0179 53.3599 44.6937 54.1379C44.3695 54.9158 44.2026 55.7497 44.2026 56.5918C44.2026 57.434 44.3695 58.2679 44.6937 59.0458C45.0179 59.8238 45.493 60.5305 46.092 61.1257C46.6909 61.7209 47.4019 62.1927 48.1843 62.5144C48.9667 62.836 49.8051 63.0011 50.6517 63.0001H50.6518C52.3583 62.9971 53.9939 62.3206 55.1995 61.1192C56.4052 59.9177 57.0823 58.2895 57.0823 56.5919C57.0823 54.8942 56.4052 53.266 55.1995 52.0645C53.9939 50.8631 52.3583 50.1866 50.6518 50.1836Z" fill="#E20613"/>
<path d="M50.0404 59.2529C49.8709 59.2532 49.7058 59.1986 49.5701 59.0974L49.5617 59.0911L47.7902 57.743C47.6247 57.6166 47.5164 57.43 47.4892 57.2242C47.4619 57.0183 47.5179 56.8102 47.6449 56.6455C47.7719 56.4807 47.9594 56.3729 48.1662 56.3456C48.3731 56.3183 48.5824 56.3738 48.7481 56.5L49.8956 57.3753L52.6071 53.8563C52.67 53.7748 52.7484 53.7063 52.8378 53.6549C52.9273 53.6034 53.0261 53.57 53.1285 53.5565C53.231 53.5431 53.3351 53.5498 53.4349 53.5764C53.5348 53.603 53.6284 53.6488 53.7104 53.7114L53.7104 53.7114L53.7106 53.7115L53.6938 53.7348L53.7111 53.7115C53.8765 53.838 53.9848 54.0247 54.0121 54.2305C54.0393 54.4363 53.9834 54.6444 53.8566 54.8093L50.6673 58.9465C50.5935 59.0418 50.4987 59.119 50.3901 59.172C50.2815 59.2249 50.1621 59.2523 50.0411 59.2519L50.0404 59.2529Z" fill="white"/>
</g>
<defs>
<clipPath id="clip0">
<rect width="70" height="63" fill="white"/>
</clipPath>
</defs>
</svg>
