<svg width="148" height="123" viewBox="0 0 148 123" fill="none" xmlns="http://www.w3.org/2000/svg">
<g clip-path="url(#clip0)">
<path d="M110.356 25.752H94.0234V49.4204H110.356V25.752Z" fill="#E0E0E0"/>
<path d="M109.511 25.7524H93.1787V49.4209H109.511V25.7524Z" fill="#F5F5F5"/>
<path d="M107.494 28.3242H95.2285V46.8488H107.494V28.3242Z" fill="white"/>
<path d="M107.494 46.8486C107.494 46.8486 107.494 46.8161 107.494 46.751C107.494 46.6859 107.494 46.5882 107.494 46.4905C107.494 46.2626 107.494 45.9045 107.494 45.4813C107.494 44.6022 107.494 43.3 107.494 41.6722C107.494 38.4165 107.494 33.761 107.461 28.3241L107.494 28.3566C103.752 28.3566 99.5878 28.3566 95.2282 28.3566L95.2607 28.3241C95.2607 35.3237 95.2607 41.7698 95.2607 46.8486L95.2282 46.8161C98.9696 46.8161 102.028 46.8161 104.143 46.8486C105.216 46.8486 106.03 46.8486 106.615 46.8486C106.908 46.8486 107.103 46.8486 107.266 46.8486C107.396 46.8486 107.494 46.8486 107.494 46.8486C107.494 46.8486 107.429 46.8486 107.266 46.8486C107.103 46.8486 106.908 46.8486 106.615 46.8486C106.062 46.8486 105.216 46.8486 104.143 46.8486C101.995 46.8486 98.9371 46.8486 95.1956 46.8812H95.1631V46.8486C95.1631 41.7373 95.1631 35.2911 95.1631 28.3241V28.2915H95.1956C99.5553 28.2915 103.72 28.2915 107.461 28.2915H107.494V28.3241C107.494 33.7935 107.494 38.4165 107.461 41.7047C107.461 43.3325 107.461 44.6348 107.461 45.5138C107.461 45.9371 107.461 46.2952 107.461 46.5231C107.461 46.6207 107.461 46.7184 107.461 46.7835C107.494 46.8161 107.494 46.8486 107.494 46.8486Z" fill="#E0E0E0"/>
<path d="M109.543 25.752C109.543 25.752 109.445 25.9147 109.25 26.1752C109.055 26.4356 108.794 26.7612 108.469 27.1519C108.176 27.51 107.883 27.8681 107.656 28.096C107.428 28.3239 107.298 28.4867 107.298 28.4541C107.298 28.4541 107.395 28.2914 107.623 28.0309C107.851 27.7705 108.111 27.4449 108.404 27.0868C108.697 26.7286 108.957 26.4031 109.185 26.1426C109.413 25.8822 109.543 25.752 109.543 25.752Z" fill="#E0E0E0"/>
<path d="M107.558 46.7837C108.176 47.7604 108.892 48.6394 109.705 49.4533L107.558 46.7837Z" fill="white"/>
<path d="M109.673 49.4857C109.673 49.4857 109.51 49.3555 109.315 49.1601C109.087 48.9322 108.794 48.6067 108.501 48.2486C108.209 47.8904 107.948 47.5323 107.786 47.2719C107.623 47.0114 107.525 46.8486 107.525 46.8486C107.525 46.8486 107.656 47.0114 107.818 47.2393C108.013 47.4998 108.241 47.8253 108.534 48.216C108.827 48.5741 109.12 48.8997 109.315 49.1276C109.575 49.3229 109.705 49.4531 109.673 49.4857Z" fill="#E0E0E0"/>
<path d="M93.1787 49.388C93.8945 48.509 94.6102 47.63 95.326 46.751L93.1787 49.388Z" fill="white"/>
<path d="M94.2907 48.1091C94.8791 47.3827 95.3447 46.7847 95.3307 46.7733C95.3168 46.762 94.8285 47.3417 94.2401 48.0681C93.6518 48.7944 93.1861 49.3925 93.2001 49.4038C93.214 49.4151 93.7023 48.8354 94.2907 48.1091Z" fill="#E0E0E0"/>
<path d="M94.2314 27.0096C93.6741 26.3045 93.2109 25.7419 93.1968 25.7531C93.1827 25.7642 93.6231 26.3449 94.1804 27.05C94.7377 27.7551 95.2009 28.3176 95.215 28.3065C95.2291 28.2953 94.7887 27.7147 94.2314 27.0096Z" fill="#E0E0E0"/>
<path d="M103.654 32.0679H99.5547V43.7231H103.654V32.0679Z" fill="#E0E0E0"/>
<path d="M77.8869 91.9718C76.3903 92.3951 75.1865 93.5997 74.4708 94.967C73.755 96.3669 73.5273 97.9297 73.4947 99.4924C73.4622 102.52 74.7636 105.711 76.2927 108.348C79.0582 106.492 80.1318 102.748 80.5548 100.795C81.1729 97.7669 80.5222 91.8416 77.8869 91.9718Z" fill="#F5F5F5"/>
<path d="M72.7141 112.873C73.3322 111.245 72.8767 109.324 71.7055 107.989C70.5668 106.687 68.8099 105.971 67.0856 105.873C66.2722 105.841 65.3938 105.971 64.8407 106.557C64.3527 107.11 64.2876 107.989 64.5479 108.673C64.8082 109.389 65.3613 109.943 65.9143 110.431C67.964 112.092 70.1764 113.296 72.7141 112.873Z" fill="#F5F5F5"/>
<path d="M74.8293 120.133C74.8618 120.133 74.8618 119.384 74.7317 118.147C74.6666 117.528 74.5039 116.78 74.2437 116.031C73.9834 115.249 73.6906 114.403 73.2351 113.556C72.3892 111.863 71.1529 110.561 70.1443 109.878C69.6237 109.519 69.1683 109.324 68.8429 109.161C68.5176 109.031 68.3224 108.999 68.3224 108.999C68.2898 109.064 69.0056 109.324 69.9816 110.04C70.9577 110.757 72.0964 112.026 72.9097 113.687C73.3327 114.501 73.6255 115.347 73.9183 116.096C74.2111 116.845 74.3738 117.528 74.4714 118.147C74.6666 119.384 74.7642 120.165 74.8293 120.133Z" fill="#E0E0E0"/>
<path d="M77.9845 96.5298C77.952 96.5298 77.8869 96.8879 77.7568 97.5065C77.6267 98.1576 77.464 99.0692 77.2688 100.209C76.8784 102.488 76.3578 105.646 75.9023 109.162C75.4143 112.678 75.089 115.868 74.8938 118.18C74.7962 119.352 74.7311 120.263 74.6986 120.915C74.666 121.566 74.666 121.924 74.666 121.924C74.6986 121.924 74.7311 121.566 74.8287 120.915C74.8938 120.198 75.0239 119.287 75.1215 118.18C75.3818 115.868 75.7397 112.71 76.2277 109.194C76.7157 105.711 77.1712 102.585 77.4965 100.241C77.6592 99.1343 77.7893 98.2227 77.8869 97.5065C77.952 96.8879 77.9845 96.5298 77.9845 96.5298Z" fill="#E0E0E0"/>
<path d="M76.3584 114.501C77.855 111.147 81.0759 108.608 84.6872 107.957C85.5982 107.794 86.7369 107.827 87.2575 108.608C87.778 109.389 87.3226 110.431 86.7695 111.212C84.4595 114.338 80.1324 115.835 76.3909 114.761" fill="#F5F5F5"/>
<path d="M83.4179 110.399C83.4179 110.366 83.2227 110.431 82.8974 110.496C82.572 110.594 82.1165 110.757 81.5309 110.952C80.3922 111.408 78.8305 112.092 77.4316 113.361C76.7483 114.013 76.1952 114.729 75.8048 115.445C75.4144 116.161 75.1867 116.878 75.0565 117.464C74.9264 118.082 74.8613 118.57 74.8613 118.896C74.8613 119.254 74.8613 119.417 74.8939 119.417C74.9589 119.417 74.9915 118.668 75.2843 117.496C75.4469 116.91 75.6747 116.259 76.0651 115.575C76.4555 114.892 76.9761 114.208 77.6593 113.589C78.9932 112.352 80.5223 111.636 81.6285 111.148C82.7347 110.692 83.4179 110.431 83.4179 110.399Z" fill="#E0E0E0"/>
<path d="M139.866 34.9007C139.866 34.9007 136.45 33.8914 135.083 41.7375C133.717 49.5836 133.587 53.9136 133.587 53.9136C133.587 53.9136 133.099 55.6065 131.862 54.9879C130.594 54.3694 128.446 52.123 126.95 53.0997C125.388 54.1089 125.388 56.2251 126.592 58.9273C127.796 61.662 130.171 67.7175 130.398 68.2709C130.594 68.8244 130.528 69.736 129.618 69.443C128.674 69.15 122.785 65.6013 121.256 68.4988C119.727 71.3964 124.314 78.4611 124.802 79.2424C125.29 80.0238 125.225 80.447 124.9 80.7726C124.575 81.0982 122.688 79.7308 120.963 78.7867C119.239 77.8425 117.092 77.0612 116.343 78.7867C115.595 80.5447 116.994 86.4374 125.388 94.1533L129.52 97.474L134.498 95.6509C144.941 91.0604 148.162 85.9491 148.032 84.0282C147.902 82.14 145.592 82.1725 143.672 82.4981C141.72 82.8236 139.508 83.5399 139.313 83.1167C139.085 82.6934 139.183 82.2702 139.898 81.7167C140.614 81.1307 147.219 75.9543 146.731 72.6986C146.243 69.443 139.476 70.908 138.499 70.8755C137.523 70.8429 137.751 69.9639 138.142 69.5406C138.532 69.0849 142.762 64.1363 144.746 61.955C146.763 59.7737 147.446 57.7878 146.308 56.3228C145.202 54.8903 142.436 56.3228 141.037 56.4855C139.638 56.6809 139.736 54.9228 139.736 54.9228C139.736 54.9228 141.037 50.7882 142.273 42.9421C143.51 35.0634 139.866 34.9332 139.866 34.9332" fill="#F5F5F5"/>
<path d="M138.629 41.9326C138.629 41.9326 138.629 41.9977 138.596 42.0954C138.596 42.2256 138.564 42.3884 138.531 42.5837C138.466 43.007 138.369 43.6581 138.239 44.4395C138.011 46.0673 137.62 48.4113 137.165 51.2763C136.221 57.0388 134.888 65.0151 133.358 73.8379C131.829 82.6281 130.463 90.6044 129.487 96.3669C128.999 99.2318 128.608 101.576 128.348 103.204C128.218 104.018 128.12 104.636 128.023 105.059C127.99 105.255 127.958 105.418 127.925 105.548C127.893 105.645 127.893 105.711 127.893 105.711C127.893 105.711 127.893 105.645 127.925 105.548C127.958 105.418 127.958 105.255 127.99 105.059C128.055 104.636 128.153 103.985 128.283 103.204C128.511 101.576 128.901 99.2318 129.357 96.3669C130.3 90.6044 131.634 82.6281 133.163 73.8053C134.692 65.0151 136.059 57.0388 137.035 51.2763C137.523 48.4113 137.913 46.0673 138.174 44.4395C138.304 43.6255 138.401 43.007 138.499 42.5837C138.531 42.3884 138.564 42.2256 138.596 42.0954C138.629 41.9977 138.629 41.9326 138.629 41.9326Z" fill="#E0E0E0"/>
<path d="M129.812 56.3555C129.812 56.3555 129.91 56.4531 130.04 56.6485C130.17 56.8438 130.366 57.1368 130.626 57.5275C131.114 58.2763 131.732 59.3181 132.415 60.4576C133.066 61.597 133.684 62.6388 134.14 63.4202C134.335 63.7783 134.53 64.0713 134.66 64.3318C134.79 64.5271 134.855 64.6573 134.823 64.6573C134.823 64.6573 134.725 64.5597 134.595 64.3643C134.465 64.169 134.27 63.876 134.009 63.4853C133.554 62.7365 132.903 61.6947 132.253 60.5552C131.569 59.4158 130.984 58.4065 130.496 57.5926C130.301 57.2345 130.105 56.9415 129.975 56.7136C129.878 56.4857 129.812 56.3555 129.812 56.3555Z" fill="#E0E0E0"/>
<path d="M139.97 61.4717C137.38 63.1593 135.304 64.564 135.334 64.6093C135.363 64.6545 137.486 63.323 140.076 61.6353C142.666 59.9477 144.742 58.5429 144.712 58.4977C144.683 58.4525 142.56 59.784 139.97 61.4717Z" fill="#E0E0E0"/>
<path d="M132.383 78.0055C132.383 78.0055 132.513 77.9404 132.741 77.8752C133.034 77.7776 133.359 77.6799 133.749 77.5497C134.595 77.2892 135.799 76.9311 137.068 76.4753C138.369 76.0195 139.508 75.5963 140.354 75.2382C140.744 75.0754 141.07 74.9452 141.33 74.8475C141.558 74.7498 141.688 74.7173 141.688 74.7173C141.688 74.7173 141.558 74.7824 141.33 74.9126C141.102 75.0103 140.777 75.1731 140.354 75.3684C139.54 75.7265 138.369 76.1823 137.068 76.6381C135.766 77.0939 134.595 77.452 133.717 77.6799C133.294 77.8101 132.936 77.8752 132.676 77.9404C132.545 78.0055 132.383 78.038 132.383 78.0055Z" fill="#E0E0E0"/>
<path d="M125.746 71.6567C125.746 71.6567 125.844 71.7218 126.039 71.8846C126.202 72.0474 126.462 72.2428 126.787 72.5358C127.405 73.0892 128.251 73.8706 129.162 74.717C130.073 75.596 130.919 76.3774 131.505 76.9634C131.798 77.2564 132.025 77.4843 132.188 77.6471C132.351 77.8099 132.448 77.9075 132.416 77.9075C132.416 77.9075 132.318 77.8424 132.123 77.6797C131.96 77.5169 131.7 77.3215 131.375 77.0285C130.756 76.4751 129.911 75.6937 129 74.8473C128.089 73.9682 127.243 73.1869 126.657 72.6009C126.364 72.3079 126.137 72.08 125.974 71.9172C125.844 71.7544 125.746 71.6567 125.746 71.6567Z" fill="#E0E0E0"/>
<path d="M121.646 83.1494C121.646 83.1494 121.777 83.2471 122.004 83.4424C122.265 83.6703 122.557 83.9308 122.948 84.2563C123.729 84.9726 124.835 85.9493 126.039 87.0562C127.242 88.1631 128.316 89.1398 129.064 89.8886C129.422 90.2467 129.748 90.5397 129.975 90.7676C130.203 90.963 130.301 91.0932 130.301 91.0932C130.301 91.0932 130.171 90.9955 129.943 90.8002C129.683 90.5723 129.39 90.3118 128.999 89.9863C128.218 89.27 127.112 88.2933 125.909 87.1864C124.705 86.0795 123.631 85.1028 122.883 84.354C122.525 83.9959 122.2 83.7029 121.972 83.475C121.744 83.2796 121.646 83.1494 121.646 83.1494Z" fill="#E0E0E0"/>
<path d="M130.138 90.8328C130.138 90.8328 130.3 90.7677 130.593 90.6374C130.919 90.5072 131.341 90.377 131.862 90.2142C132.936 89.8561 134.432 89.3352 136.026 88.7166C137.653 88.098 139.117 87.512 140.158 87.0562C140.646 86.8609 141.069 86.6656 141.395 86.5353C141.688 86.4051 141.85 86.34 141.85 86.3726C141.85 86.3726 141.688 86.4702 141.427 86.6005C141.134 86.7307 140.711 86.926 140.191 87.1539C139.15 87.6097 137.718 88.2283 136.092 88.8468C134.465 89.4654 132.968 89.9537 131.895 90.3119C131.341 90.4746 130.919 90.6049 130.593 90.7025C130.333 90.8328 130.138 90.8653 130.138 90.8328Z" fill="#E0E0E0"/>
<path d="M25.4409 104.441C32.9564 100.143 35.3965 91.1253 35.852 82.8886C35.9171 81.5212 36.2099 80.0887 35.6568 78.819C35.1037 77.5493 33.6722 76.6052 32.3708 77.061C31.2972 77.4517 30.7441 78.5911 30.0934 79.5353C29.215 80.7724 27.9786 81.7491 26.5796 82.3026C25.6687 82.6607 24.5625 82.856 23.7491 82.3026C22.6104 81.5538 22.643 79.8934 22.7731 78.526C23.0334 75.9866 23.2611 73.4472 23.5214 70.8753C23.6515 69.5079 23.7817 68.108 23.4889 66.7732C23.196 65.4384 22.3501 64.1361 21.0813 63.6478C19.8124 63.1594 18.1532 63.778 17.7302 65.0802C17.5676 65.6337 17.6326 66.2197 17.535 66.7732C17.4374 67.3266 17.1121 67.9452 16.559 68.0429C16.0059 68.1405 15.4853 67.7173 15.1275 67.2941C13.8586 65.7965 13.0452 63.9082 12.3295 62.0525C11.5812 60.1968 10.898 58.3085 9.75924 56.6807C8.62053 55.0529 6.96126 53.7181 5.00918 53.4251C3.05711 53.1321 0.877285 54.1413 0.194058 56.0296C-0.48917 57.9178 0.454335 59.9689 1.56051 61.6293C3.15471 64.1036 5.10679 66.3499 7.35168 68.2708C7.74209 68.6289 8.19758 68.987 8.29518 69.5079C8.52292 70.452 7.54688 71.266 6.63591 71.4939C5.59481 71.7543 4.48863 71.5264 3.41499 71.559C2.34134 71.5915 1.13756 71.9496 0.649542 72.9263C-0.0336848 74.2611 1.00742 75.8564 2.04853 76.8982C4.16328 79.0144 6.66845 80.7724 9.36882 82.0747C10.3449 82.5305 11.3534 82.9537 12.1017 83.735C12.85 84.5164 13.2079 85.7861 12.6548 86.6977C12.0692 87.6092 10.8003 87.8046 9.75924 87.5116C8.71813 87.2186 7.8397 86.5674 6.86366 86.0791C5.04172 85.2001 2.60162 85.1024 1.2677 86.6326C0.389265 87.6418 0.161523 89.1068 0.454335 90.4091C0.747146 91.7114 1.46291 92.8834 2.2112 93.9903C4.91158 97.7994 8.49039 100.99 12.7199 102.911C16.9819 104.864 20.9512 105.645 25.4409 104.441Z" fill="#F5F5F5"/>
<path d="M24.9856 110.561C24.9856 107.273 24.6277 103.366 23.7818 99.1014C22.9359 94.8366 21.6671 90.2461 20.1379 85.4603C19.7475 84.2557 19.3571 83.0837 18.9992 81.9442C18.6088 80.7722 18.2509 79.6327 17.828 78.5584C16.9821 76.3445 15.9735 74.2935 14.9649 72.3727C13.9564 70.4518 12.9478 68.6612 11.9717 67.0009C10.9957 65.3405 10.0522 63.8103 9.14123 62.443C7.31929 59.7082 5.59495 57.6897 4.35864 56.3549C3.74048 55.6712 3.25246 55.1829 2.89458 54.8573C2.7319 54.6945 2.60177 54.5643 2.50416 54.4667C2.40656 54.369 2.37402 54.3364 2.37402 54.3364C2.37402 54.3364 2.40656 54.4015 2.50416 54.4667C2.60177 54.5643 2.7319 54.6945 2.86204 54.8573C3.18739 55.2154 3.67541 55.7364 4.29357 56.3875C5.49735 57.7548 7.18915 59.7733 9.01109 62.5081C9.92206 63.8754 10.833 65.4056 11.8091 67.066C12.7851 68.7263 13.7937 70.5169 14.7697 72.4378C15.7783 74.3586 16.7543 76.4096 17.6002 78.5909C18.0232 79.6978 18.4136 80.8048 18.7715 81.9768C19.1619 83.1488 19.5198 84.3208 19.9102 85.4929C21.4393 90.2461 22.7407 94.8366 23.5866 99.1014C24.4325 103.334 24.8229 107.241 24.8229 110.529" fill="#E0E0E0"/>
<path d="M17.7305 78.5257C17.763 78.5257 17.8281 78.3304 17.9257 77.9397C18.0233 77.5816 18.1534 77.0281 18.3161 76.3445C18.6414 75.0096 18.9993 73.1214 19.4223 71.0703C19.8127 69.0193 20.2356 67.131 20.561 65.7962C20.7237 65.1125 20.8538 64.5916 20.9839 64.2335C21.0815 63.8754 21.1466 63.6475 21.1141 63.6475C21.0815 63.6475 21.0165 63.8428 20.8863 64.2009C20.7562 64.559 20.5935 65.1125 20.3983 65.7636C20.0079 67.0984 19.5849 68.9542 19.162 71.0052C18.7716 73.0563 18.4137 74.8794 18.1209 76.2793C17.9907 76.9305 17.8931 77.4514 17.7955 77.8746C17.763 78.2978 17.7305 78.5257 17.7305 78.5257Z" fill="#E0E0E0"/>
<path d="M0.487305 73.6104C0.487305 73.6429 0.747582 73.6755 1.17053 73.7731C1.62602 73.8708 2.27671 73.9685 3.05754 74.1313C4.65174 74.4568 6.83156 74.9777 9.20658 75.6614C11.5816 76.3451 13.7289 77.0613 15.258 77.6148C16.0389 77.8752 16.6245 78.1357 17.0474 78.2985C17.4704 78.4613 17.6981 78.5589 17.7307 78.5264C17.7307 78.4938 17.5029 78.3961 17.1125 78.2008C16.6895 78.0055 16.1039 77.745 15.3231 77.452C13.794 76.8334 11.6792 76.1172 9.27165 75.4335C6.86409 74.7498 4.68427 74.2615 3.05754 73.9685C2.24417 73.8382 1.59348 73.7406 1.138 73.6755C0.715047 73.6104 0.487305 73.6104 0.487305 73.6104Z" fill="#E0E0E0"/>
<path d="M23.5869 98.7432C23.5869 98.7432 23.652 98.6781 23.7171 98.5479C23.8147 98.3851 23.9448 98.1898 24.0749 97.9293C24.3677 97.4084 24.8232 96.6271 25.3113 95.6504C26.3524 93.7296 27.6863 90.9948 29.1178 87.9671C30.5493 84.9394 31.8832 82.2046 32.8593 80.2512C33.3473 79.3071 33.7377 78.5257 34.0305 77.9397C34.1607 77.6793 34.2583 77.4839 34.3559 77.3212C34.4209 77.1909 34.4535 77.0933 34.4535 77.0933C34.4535 77.0933 34.3884 77.1584 34.3233 77.2886C34.2257 77.4514 34.0956 77.6467 33.9655 77.9072C33.6727 78.4281 33.2172 79.2094 32.7291 80.1861C31.688 82.1069 30.3541 84.8417 28.9226 87.8694C27.4911 90.8972 26.1572 93.6319 25.1811 95.5853C24.6931 96.5294 24.3027 97.3108 24.0099 97.8968C23.8797 98.1572 23.7821 98.3526 23.6845 98.5154C23.6194 98.6781 23.5869 98.7432 23.5869 98.7432Z" fill="#E0E0E0"/>
<path d="M0.942383 89.0742C0.942383 89.0742 1.00745 89.1068 1.17013 89.2044C1.3328 89.2696 1.56054 89.3672 1.82082 89.4974C2.43898 89.7579 3.25234 90.116 4.26092 90.5393C6.3106 91.4183 9.10857 92.6554 12.2319 94.0553C15.3552 95.4227 18.1532 96.6599 20.2354 97.5063C21.2765 97.9296 22.1224 98.2551 22.708 98.483C22.9683 98.5807 23.1961 98.6458 23.3913 98.7435C23.5539 98.8086 23.619 98.8086 23.619 98.8086C23.619 98.8086 23.5539 98.776 23.3913 98.6784C23.2286 98.6132 23.0009 98.5156 22.7406 98.3854C22.1224 98.1249 21.3091 97.7668 20.3005 97.3435C18.2508 96.4645 15.4528 95.2274 12.3295 93.8275C9.20618 92.4601 6.4082 91.2229 4.32598 90.3765C3.28488 89.9532 2.43898 89.6277 1.85335 89.3998C1.59308 89.3021 1.36533 89.2044 1.17013 89.1393C1.03999 89.1068 0.942383 89.0742 0.942383 89.0742Z" fill="#E0E0E0"/>
<path d="M48.5404 6.25098V33.11H9.98688L8.58789 6.44631L48.5404 6.25098Z" fill="#E0E0E0"/>
<path d="M47.1414 6.4458H8.58789V33.0769H47.1414V6.4458Z" fill="white"/>
<path d="M47.3375 33.2402H8.39355V6.25098H47.3375V33.2402ZM8.75144 32.8821H46.9471V6.6091H8.75144V32.8821Z" fill="#E0E0E0"/>
<path d="M42.9776 9.73438H12.7529V29.7565H42.9776V9.73438Z" fill="white"/>
<path d="M42.9775 9.73439C42.9775 9.73439 42.9125 9.73439 42.8149 9.73439C42.7173 9.73439 42.5546 9.73439 42.3919 9.73439C42.0015 9.73439 41.4484 9.73439 40.7327 9.73439C39.2686 9.73439 37.1864 9.73439 34.5185 9.76694C29.1829 9.76694 21.6348 9.7995 12.7854 9.7995L12.883 9.70183C12.883 15.8224 12.883 22.5942 12.883 29.724L12.7854 29.6263C24.1725 29.6263 34.6812 29.6263 43.0101 29.6589L42.945 29.724C42.9775 23.636 42.9775 18.6548 42.9775 15.1713C42.9775 13.4458 42.9775 12.0784 43.0101 11.1343C43.0101 10.6785 43.0101 10.3204 43.0101 10.0925C42.9775 9.86461 42.9775 9.73439 42.9775 9.73439C42.9775 9.73439 42.9775 9.86461 42.9775 10.0925C42.9775 10.3204 42.9775 10.6785 42.9775 11.1343C42.9775 12.0459 42.9775 13.4133 43.0101 15.1387C43.0101 18.6223 43.0426 23.636 43.0426 29.7566V29.8217H42.9775C34.6812 29.8217 24.1725 29.8217 12.7529 29.8542H12.6553V29.7566C12.6553 22.6267 12.6553 15.855 12.6553 9.73439V9.63672H12.7529C21.6674 9.66928 29.2154 9.66928 34.5511 9.66928C37.2189 9.66928 39.3011 9.70183 40.7652 9.70183C41.481 9.70183 42.034 9.70183 42.3919 9.70183C42.5871 9.70183 42.7173 9.70183 42.8149 9.70183C42.9125 9.73439 42.9775 9.73439 42.9775 9.73439Z" fill="#E0E0E0"/>
<path d="M8.58776 6.34835C8.58776 6.31579 8.84804 6.47857 9.23845 6.77158C9.62887 7.06459 10.182 7.45526 10.735 7.91105C11.3207 8.36684 11.8412 8.82263 12.1991 9.1482C12.557 9.47376 12.7847 9.70165 12.7522 9.70165C12.7197 9.73421 11.7762 8.98541 10.6374 8.04128C9.46619 7.16226 8.55522 6.41346 8.58776 6.34835Z" fill="#E0E0E0"/>
<path d="M45.1105 8.15314C46.2658 7.23813 47.1752 6.46208 47.1417 6.41979C47.1083 6.37749 46.1446 7.08496 44.9893 7.99997C43.834 8.91498 42.9246 9.69103 42.958 9.73332C42.9915 9.77562 43.9552 9.06814 45.1105 8.15314Z" fill="#E0E0E0"/>
<path d="M47.109 33.0773C45.6775 31.9053 44.246 30.7658 42.8145 29.5938L47.109 33.0773Z" fill="white"/>
<path d="M45.035 31.2448C43.8484 30.2824 42.859 29.5362 42.8251 29.5782C42.7911 29.6201 43.7255 30.4342 44.9121 31.3966C46.0986 32.359 47.0881 33.1052 47.122 33.0633C47.156 33.0214 46.2216 32.2072 45.035 31.2448Z" fill="#E0E0E0"/>
<path d="M10.6031 31.3454C9.46156 32.2488 8.5633 33.0154 8.59673 33.0577C8.63017 33.1 9.58265 32.402 10.7241 31.4986C11.8656 30.5952 12.7639 29.8285 12.7305 29.7862C12.697 29.7439 11.7446 30.4419 10.6031 31.3454Z" fill="#E0E0E0"/>
<path d="M37.9026 15.9854H18.9023V22.692H37.9026V15.9854Z" fill="#E0E0E0"/>
<path d="M137.588 0H116.961V29.9193H137.588V0Z" fill="#E0E0E0"/>
<path d="M136.579 0H115.952V29.9193H136.579V0Z" fill="#F5F5F5"/>
<path d="M133.977 3.25488H118.49V26.6955H133.977V3.25488Z" fill="white"/>
<path d="M134.009 26.6634C134.009 26.6634 134.009 26.6309 134.009 26.5332C134.009 26.4681 134.009 26.3379 134.009 26.2076C134.009 25.9146 134.009 25.4914 134.009 24.9379C134.009 23.831 134.009 22.1706 134.009 20.1196C134.009 15.9849 134.009 10.1248 133.977 3.25538L134.042 3.3205C129.292 3.3205 124.054 3.3205 118.555 3.3205L118.62 3.25538C118.62 12.0782 118.62 20.2498 118.62 26.696L118.588 26.6634C123.305 26.6634 127.177 26.696 129.877 26.696C131.211 26.696 132.285 26.696 133.001 26.696C133.359 26.696 133.619 26.696 133.814 26.696C133.912 26.6634 134.009 26.6634 134.009 26.6634C134.009 26.6634 133.912 26.6634 133.749 26.6634C133.554 26.6634 133.293 26.6634 132.936 26.6634C132.22 26.6634 131.179 26.6634 129.845 26.6634C127.144 26.6634 123.273 26.6634 118.523 26.696H118.49V26.6634C118.49 20.2173 118.49 12.0782 118.49 3.22283V3.15771H118.555C124.054 3.15771 129.324 3.15771 134.042 3.15771H134.107V3.22283C134.107 10.1248 134.074 15.9849 134.074 20.1196C134.074 22.1706 134.074 23.7985 134.074 24.9379C134.074 25.4914 134.074 25.9146 134.074 26.2076C134.074 26.3379 134.074 26.4681 134.074 26.5332C134.009 26.6309 134.009 26.6634 134.009 26.6634Z" fill="#E0E0E0"/>
<path d="M136.611 0C136.611 0 136.481 0.227895 136.254 0.520902C136.026 0.846466 135.668 1.2697 135.278 1.75804C134.887 2.21383 134.529 2.63707 134.269 2.93007C134.009 3.22308 133.813 3.41842 133.813 3.38586C133.813 3.38586 133.944 3.19052 134.204 2.86496C134.464 2.5394 134.822 2.11616 135.212 1.66038C135.603 1.20459 135.928 0.781353 136.189 0.455789C136.449 0.162782 136.611 0 136.611 0Z" fill="#E0E0E0"/>
<path d="M134.074 26.5981C134.855 27.8353 135.766 28.9748 136.775 29.984L134.074 26.5981Z" fill="white"/>
<path d="M136.775 29.9847C136.775 29.9847 136.579 29.8219 136.319 29.5614C136.026 29.2684 135.668 28.8777 135.311 28.4219C134.92 27.9662 134.627 27.5104 134.4 27.1848C134.172 26.8592 134.074 26.6313 134.074 26.6313C134.074 26.6313 134.237 26.8267 134.465 27.1522C134.692 27.4778 135.018 27.901 135.376 28.3894C135.733 28.8452 136.091 29.2684 136.352 29.5614C136.644 29.7893 136.807 29.9521 136.775 29.9847Z" fill="#E0E0E0"/>
<path d="M115.951 29.8857C116.862 28.7788 117.741 27.6719 118.652 26.5649L115.951 29.8857Z" fill="white"/>
<path d="M117.349 28.2632C118.096 27.3413 118.678 26.5755 118.65 26.5529C118.622 26.5303 117.994 27.2593 117.248 28.1812C116.501 29.1032 115.918 29.8689 115.946 29.8916C115.974 29.9142 116.602 29.1852 117.349 28.2632Z" fill="#E0E0E0"/>
<path d="M117.248 1.56254C116.545 0.67411 115.953 -0.0280241 115.925 -0.00571764C115.897 0.0165888 116.443 0.754889 117.146 1.64332C117.848 2.53174 118.44 3.23387 118.468 3.21156C118.496 3.18926 117.95 2.45096 117.248 1.56254Z" fill="#E0E0E0"/>
<path d="M129.161 8.00879H123.988V22.7568H129.161V8.00879Z" fill="#E0E0E0"/>
<path d="M141.948 121.924C141.948 121.956 110.259 122.022 71.185 122.022C32.0784 122.022 0.389648 121.989 0.389648 121.924C0.389648 121.891 32.0784 121.826 71.185 121.826C110.259 121.859 141.948 121.891 141.948 121.924Z" fill="#263238"/>
<path d="M102.191 65.6006C102.712 67.554 102.029 69.7678 100.499 71.1026C99.5234 71.9816 98.222 72.5025 97.311 73.4467C96.1398 74.6838 95.8144 76.6046 96.335 78.2325C96.8555 79.8603 98.1244 81.1951 99.6535 81.9113C101.736 82.9206 104.339 82.8229 106.356 81.6834C108.861 80.251 110.325 77.4185 110.715 74.5536C111.073 71.6886 110.488 68.7911 109.739 65.9913" fill="#263238"/>
<path d="M133.88 116.16C136.483 115.737 138.923 116.519 141.493 117.105C142.176 117.267 142.925 117.398 143.608 117.202C144.714 116.909 145.527 115.835 145.69 114.695C145.853 113.719 145.592 112.677 145.039 111.83C144.812 111.472 144.519 111.147 144.161 110.951C143.77 110.724 143.347 110.658 142.925 110.626C141.363 110.463 139.769 110.821 138.337 111.505C136.906 112.189 135.637 113.165 134.531 114.272C133.977 114.793 134.14 115.444 133.88 116.16Z" fill="#263238"/>
<path d="M81.1087 74.1305C80.6857 71.6562 80.7508 69.1168 81.2714 66.6426C81.5316 65.438 81.8895 64.2659 82.5727 63.2241C82.8005 62.866 83.1258 62.5079 83.5162 62.3126C84.0693 62.0847 84.7526 62.28 85.208 62.7032C85.7937 63.2567 86.0214 64.1032 86.0214 64.8845C85.9889 65.6984 85.7286 66.4472 85.4358 67.196C84.4272 69.8331 82.833 71.9818 81.1087 74.1305Z" fill="#263238"/>
<path d="M131.537 83.5391C132.122 83.9623 145.234 112.156 145.234 112.156C144.193 111.7 143.022 111.603 141.915 111.831L141.2 112.026C139.931 112.351 138.727 112.905 137.621 113.654L133.879 116.193C133.587 116.03 133.391 115.705 133.359 115.379V115.282L123.208 97.8639L131.537 83.5391Z" fill="#E8505B"/>
<path d="M82.4421 38.6763L85.9233 58.5031C87.062 61.1727 100.141 77.3532 100.141 77.3532L95.8138 91.2548L78.6355 67.7166C77.0413 66.0236 76.1629 63.7447 76.228 61.4006L76.9112 40.2064L82.4421 38.6763Z" fill="#FFBE9D"/>
<path d="M101.019 74.2607L109.999 74.9444L117.84 76.149C117.84 76.149 131.569 79.7628 131.569 81.2604C131.569 81.7487 127.828 93.6969 125.713 100.859C124.802 103.952 124.444 106.133 124.444 106.133L131.537 121.923H97.766V107.436C97.766 107.436 95.4886 88.4553 95.879 85.8508C96.2694 83.2463 101.019 74.2607 101.019 74.2607Z" fill="#E8505B"/>
<path d="M78.2129 30.6675C78.278 28.649 78.4732 26.6305 78.831 24.6446C78.8961 24.3516 78.9937 24.026 79.2865 23.9935C79.6444 23.9609 79.8071 24.3841 79.8721 24.7423C80.1975 27.1189 80.0674 29.5932 79.5793 31.9372" fill="#EB996E"/>
<path d="M82.2149 72.6652C86.054 69.2142 86.1842 63.2564 85.8588 58.5032C85.8263 58.1451 85.7937 57.7544 86.0215 57.4939C86.3794 56.973 87.2903 57.1684 87.6482 57.6893C88.0061 58.2102 87.9736 58.9264 87.941 59.545C88.1362 58.9915 88.9821 58.9915 89.3725 59.4148C89.763 59.838 89.828 60.4566 89.8931 61.0426C89.9256 61.5635 89.9907 62.1169 90.0232 62.6378L101.28 73.3814C101.28 73.3814 101.606 72.4048 102.419 72.9582C103.232 73.5117 103.785 74.7163 103.785 74.7163L95.8469 92.0362L81.1413 74.1302C81.1088 74.0977 81.5642 73.2187 82.2149 72.6652Z" fill="#E8505B"/>
<path d="M97.4734 84.646C96.3347 86.1761 95.3912 87.8691 94.9032 89.6922C94.4152 91.5154 94.3826 93.5339 95.0659 95.2919C96.0094 97.7988 98.3844 99.7196 101.02 100.11" fill="#E8505B"/>
<path d="M133.88 116.161L133.457 121.923H141.786L143.738 111.733C141.2 111.603 138.695 112.384 136.678 113.947L133.88 116.161Z" fill="#FFBE9D"/>
<path d="M86.1191 71.3958C86.1191 71.3958 86.1842 71.233 86.3143 70.94C86.4445 70.647 86.6071 70.2238 86.8024 69.7029C86.9976 69.182 87.2253 68.5308 87.4205 67.8146C87.6157 67.0984 87.7784 66.2845 87.9085 65.438C88.0387 64.5915 88.1037 63.7776 88.1037 63.0288C88.1037 62.28 88.1037 61.5963 88.0712 61.0429C88.0387 60.4894 87.9736 60.0336 87.9411 59.7081C87.9085 59.3825 87.876 59.2197 87.9085 59.2197C87.9085 59.2197 87.9736 59.3825 88.0061 59.7081C88.0712 60.0336 88.1363 60.4894 88.2013 61.0429C88.2664 61.5963 88.2989 62.28 88.2989 63.0288C88.2989 63.7776 88.2339 64.5915 88.1037 65.4705C87.9736 66.317 87.7784 67.1309 87.5832 67.8472C87.388 68.5634 87.1602 69.2145 86.9325 69.7354C86.7048 70.2563 86.5096 70.6796 86.3794 70.9726C86.2167 71.233 86.1191 71.3958 86.1191 71.3958Z" fill="#263238"/>
<path d="M88.5588 68.368C88.5263 68.368 88.689 68.0424 88.9167 67.554C89.1444 67.0331 89.4047 66.3169 89.5674 65.503C89.7626 64.6891 89.8277 63.9403 89.8602 63.3868C89.8928 62.8334 89.8927 62.5078 89.9253 62.5078C89.9578 62.5078 89.9904 62.8334 89.9904 63.4194C89.9904 63.9728 89.9253 64.7542 89.7301 65.5681C89.5349 66.4146 89.2421 67.1308 89.0143 67.6192C88.7866 68.1075 88.5914 68.368 88.5588 68.368Z" fill="#263238"/>
<path d="M101.801 77.386C101.768 77.386 101.898 77.1581 101.996 76.7674C102.094 76.3767 102.061 75.8233 101.898 75.2698C101.736 74.6838 101.475 74.1954 101.345 73.8373C101.183 73.4792 101.085 73.2513 101.118 73.2188C101.15 73.2188 101.248 73.4141 101.443 73.7722C101.638 74.1303 101.898 74.6187 102.061 75.2047C102.224 75.7907 102.224 76.3767 102.094 76.8C101.963 77.1906 101.801 77.386 101.801 77.386Z" fill="#263238"/>
<path d="M99.8157 100.306C99.8157 100.306 99.7506 100.273 99.6855 100.24C99.5879 100.175 99.4578 100.078 99.2951 99.9799C98.9698 99.752 98.4818 99.4265 97.9287 98.9707C97.3756 98.5149 96.7249 97.9614 96.1067 97.2126C95.4886 96.4639 94.968 95.5523 94.7077 94.4454C94.4475 93.371 94.4149 92.2966 94.5125 91.3525C94.6101 90.4084 94.8379 89.5619 95.0656 88.8782C95.2934 88.1945 95.5211 87.6736 95.6838 87.283C95.7814 87.0876 95.8465 86.9574 95.879 86.8597C95.9115 86.762 95.944 86.7295 95.944 86.7295C95.944 86.7295 95.879 86.9248 95.7163 87.3155C95.5862 87.6736 95.3584 88.2271 95.1632 88.9108C94.968 89.5945 94.7403 90.4084 94.6427 91.3525C94.5451 92.2966 94.5776 93.3384 94.8379 94.3802C95.0981 95.422 95.6187 96.3336 96.2043 97.0824C96.79 97.7987 97.4407 98.3847 97.9937 98.8405C98.5468 99.2963 99.0023 99.6544 99.3277 99.8823C99.4578 99.9799 99.5879 100.078 99.6855 100.175C99.7831 100.273 99.8482 100.306 99.8157 100.306Z" fill="#263238"/>
<path d="M118.263 103.529C118.263 103.529 118.23 103.561 118.133 103.594C118.035 103.627 117.905 103.659 117.71 103.692C117.352 103.789 116.799 103.854 116.115 103.887C114.781 103.952 112.829 103.627 111.04 102.52C109.283 101.38 108.144 99.7849 107.624 98.5478C107.364 97.9292 107.201 97.4083 107.103 97.0177C107.071 96.8223 107.038 96.6921 107.006 96.5944C107.006 96.4968 106.973 96.4316 107.006 96.4316C107.006 96.4316 107.071 96.627 107.168 96.9851C107.266 97.3432 107.429 97.8641 107.721 98.4827C108.275 99.6873 109.381 101.283 111.105 102.389C112.829 103.496 114.749 103.822 116.083 103.789C116.766 103.789 117.287 103.724 117.677 103.659C118.067 103.561 118.263 103.496 118.263 103.529Z" fill="#263238"/>
<path d="M124.393 105.832C123.816 108.041 123.391 109.843 123.443 109.857C123.495 109.871 124.005 108.091 124.582 105.881C125.159 103.672 125.584 101.869 125.532 101.856C125.479 101.842 124.97 103.622 124.393 105.832Z" fill="#263238"/>
<path d="M125.04 101.252C126.613 103.914 127.925 106.05 127.972 106.023C128.018 105.995 126.781 103.815 125.209 101.152C123.636 98.4899 122.324 96.3538 122.277 96.3812C122.231 96.4087 123.468 98.5893 125.04 101.252Z" fill="#263238"/>
<path d="M140.451 111.31C140.451 111.342 139.963 111.375 139.248 111.57C138.89 111.668 138.434 111.798 137.979 111.993C137.523 112.189 137.003 112.449 136.515 112.742C136.027 113.068 135.571 113.393 135.213 113.751C134.855 114.11 134.53 114.435 134.27 114.728C133.782 115.314 133.554 115.737 133.521 115.705C133.521 115.705 133.554 115.607 133.684 115.412C133.782 115.216 133.977 114.956 134.205 114.663C134.432 114.337 134.758 114.012 135.116 113.654C135.506 113.296 135.929 112.937 136.45 112.644C136.938 112.319 137.458 112.091 137.946 111.896C138.434 111.7 138.857 111.57 139.248 111.505C139.638 111.44 139.931 111.375 140.159 111.375C140.354 111.31 140.451 111.277 140.451 111.31Z" fill="#263238"/>
<path d="M142.046 109.356C142.046 109.389 141.525 109.324 140.679 109.389C140.256 109.422 139.768 109.519 139.248 109.649C138.727 109.812 138.141 110.008 137.556 110.268C137.003 110.561 136.482 110.887 136.059 111.245C135.636 111.603 135.278 111.928 134.986 112.254C134.432 112.873 134.172 113.328 134.14 113.328C134.14 113.328 134.205 113.198 134.302 113.003C134.367 112.905 134.432 112.775 134.53 112.645C134.628 112.514 134.725 112.352 134.888 112.189C135.148 111.863 135.506 111.505 135.962 111.147C136.385 110.789 136.905 110.463 137.491 110.138C138.076 109.845 138.662 109.649 139.215 109.519C139.768 109.389 140.256 109.324 140.679 109.291C140.907 109.259 141.07 109.291 141.265 109.291C141.427 109.291 141.59 109.291 141.688 109.324C141.915 109.324 142.046 109.324 142.046 109.356Z" fill="#263238"/>
<g opacity="0.3">
<g opacity="0.3">
<g opacity="0.3">
<path opacity="0.3" d="M107.364 97.0825C106.584 98.5476 107.234 100.306 107.95 101.803C108.503 102.943 109.089 104.115 110.097 104.929C111.073 105.71 112.375 106.068 113.611 105.905C114.847 105.743 116.019 105.026 116.734 103.984C112.602 104.017 108.601 101.185 107.234 97.2778" fill="black"/>
</g>
</g>
</g>
<g opacity="0.3">
<g opacity="0.3">
<g opacity="0.3">
<path opacity="0.3" d="M122.297 96.3989C121.711 97.7988 122.167 99.7197 122.752 101.087C123.37 102.487 124.021 104.017 123.533 105.45C123.436 105.71 123.305 106.003 123.338 106.263C123.37 106.557 123.663 106.817 123.924 106.687C124.054 106.622 124.119 106.426 124.184 106.296C124.639 104.896 125.095 103.496 125.583 102.129" fill="black"/>
</g>
</g>
</g>
<path d="M91.8284 75.415C91.599 76.835 91.4561 77.9932 91.5094 78.0018C91.5626 78.0104 91.7917 76.8662 92.0211 75.4462C92.2505 74.0262 92.3934 72.868 92.3402 72.8594C92.287 72.8508 92.0578 73.995 91.8284 75.415Z" fill="#FAFAFA"/>
<path d="M88.1038 77.2881C88.0712 77.3207 87.5181 76.5393 86.7373 75.6277C85.9565 74.7162 85.2733 74.065 85.3058 74.0325C85.3383 73.9999 86.0866 74.6185 86.8675 75.5301C87.6158 76.4091 88.1363 77.2556 88.1038 77.2881Z" fill="#FAFAFA"/>
<path d="M91.032 68.8886C91.0645 68.8886 90.9018 69.1165 90.6741 69.4746C90.4138 69.8327 90.0559 70.2885 89.633 70.7769C89.21 71.2652 88.8196 71.6884 88.4943 72.014C88.2015 72.307 88.0063 72.5024 87.9737 72.4698C87.9412 72.4372 88.657 71.6559 89.5029 70.6792C90.3488 69.7025 90.9994 68.856 91.032 68.8886Z" fill="#FAFAFA"/>
<path d="M89.8931 64.7866C89.8606 64.8191 89.6654 64.3959 89.3075 63.9727C88.9496 63.5494 88.5592 63.3215 88.5917 63.2564C88.6243 63.2239 89.0472 63.4192 89.4377 63.8424C89.7955 64.3308 89.9257 64.7866 89.8931 64.7866Z" fill="#FAFAFA"/>
<path d="M86.071 67.5534C86.5502 67.4774 86.9318 67.3727 86.9234 67.3194C86.915 67.2661 86.5197 67.2845 86.0405 67.3605C85.5613 67.4365 85.1797 67.5412 85.1881 67.5945C85.1966 67.6478 85.5919 67.6294 86.071 67.5534Z" fill="#FAFAFA"/>
<path d="M94.4149 70.9396C94.3499 70.9396 94.48 70.2559 94.3173 69.4094C94.1547 68.5955 93.7317 68.0095 93.7968 67.9769C93.8293 67.9444 94.3173 68.4978 94.48 69.3769C94.6427 70.2559 94.4475 70.9396 94.4149 70.9396Z" fill="#FAFAFA"/>
<path d="M98.4168 75.2375C98.3843 75.27 98.0264 74.5863 97.3757 73.9026C96.725 73.2515 96.0418 72.8934 96.0744 72.8608C96.0744 72.8283 96.8227 73.1213 97.5059 73.805C98.1566 74.4887 98.4494 75.2375 98.4168 75.2375Z" fill="#FAFAFA"/>
<path d="M91.9746 82.725C91.9746 82.7576 91.3239 83.018 90.478 82.9855C89.6321 82.9529 88.9814 82.6599 88.9814 82.6274C88.9814 82.5622 89.6321 82.7901 90.478 82.8227C91.3239 82.8227 91.9746 82.6599 91.9746 82.725Z" fill="#FAFAFA"/>
<path d="M95.0012 84.2552C94.9686 84.2226 95.1964 83.4738 95.4241 82.5297C95.6519 81.5856 95.7169 80.8042 95.782 80.8042C95.8145 80.8042 95.8145 81.6181 95.5868 82.5622C95.359 83.5389 95.0337 84.2552 95.0012 84.2552Z" fill="#FAFAFA"/>
<path d="M100.14 83.0764C100.89 83.9008 101.531 84.5396 101.57 84.5033C101.61 84.4669 101.035 83.7692 100.285 82.9448C99.5347 82.1204 98.8945 81.4816 98.8546 81.5179C98.8148 81.5543 99.3904 82.252 100.14 83.0764Z" fill="#FAFAFA"/>
<path d="M103.569 91.1635C104.118 91.7327 104.594 92.1637 104.633 92.1263C104.672 92.0888 104.258 91.5969 103.709 91.0277C103.16 90.4585 102.683 90.0275 102.645 90.0649C102.606 90.1024 103.02 90.5943 103.569 91.1635Z" fill="#FAFAFA"/>
<path d="M98.9368 92.8505C98.9693 92.883 98.4162 93.3714 97.6354 93.8272C96.8546 94.283 96.1388 94.5109 96.1388 94.4783C96.1063 94.4457 96.7895 94.1527 97.5703 93.6969C98.3186 93.2411 98.9043 92.7854 98.9368 92.8505Z" fill="#FAFAFA"/>
<path d="M101.573 100.078C101.508 100.078 101.703 99.1986 101.8 98.1243C101.898 97.0499 101.865 96.1709 101.93 96.1709C101.963 96.1709 102.093 97.0499 101.996 98.1243C101.865 99.2312 101.605 100.078 101.573 100.078Z" fill="#FAFAFA"/>
<path d="M111.43 94.1852C111.398 94.2177 110.715 93.7294 110.031 92.948C109.348 92.1667 108.958 91.4179 108.99 91.3853C109.023 91.3528 109.478 92.069 110.161 92.8504C110.812 93.6317 111.463 94.1526 111.43 94.1852Z" fill="#FAFAFA"/>
<path d="M115.042 97.2778C115.009 97.2453 115.497 96.5616 116.05 95.7151C116.603 94.8361 117.026 94.1199 117.059 94.1524C117.091 94.185 116.766 94.9338 116.213 95.8128C115.627 96.6593 115.074 97.2778 115.042 97.2778Z" fill="#FAFAFA"/>
<path d="M112.838 89.3952C113.741 89.6372 114.484 89.7911 114.498 89.739C114.512 89.6869 113.792 89.4485 112.889 89.2066C111.987 88.9647 111.244 88.8108 111.23 88.8629C111.216 88.915 111.936 89.1533 112.838 89.3952Z" fill="#FAFAFA"/>
<path d="M111.857 101.449C111.807 102.292 111.811 102.979 111.865 102.982C111.918 102.985 112.002 102.304 112.052 101.46C112.101 100.617 112.098 99.93 112.044 99.9269C111.99 99.9237 111.907 100.605 111.857 101.449Z" fill="#FAFAFA"/>
<path d="M114.163 107.501C114.131 107.468 114.456 106.817 114.586 105.905C114.717 104.994 114.554 104.245 114.619 104.245C114.651 104.245 114.879 104.994 114.749 105.938C114.619 106.882 114.196 107.533 114.163 107.501Z" fill="#FAFAFA"/>
<path d="M108.275 106.491C108.242 106.491 108.144 105.742 108.307 104.798C108.47 103.887 108.86 103.203 108.893 103.235C108.925 103.268 108.633 103.952 108.47 104.831C108.275 105.742 108.307 106.491 108.275 106.491Z" fill="#FAFAFA"/>
<path d="M102.907 108.803C102.874 108.836 102.224 108.282 101.378 107.631C100.532 106.98 99.8485 106.459 99.881 106.426C99.9135 106.394 100.662 106.85 101.508 107.501C102.321 108.152 102.939 108.771 102.907 108.803Z" fill="#FAFAFA"/>
<path d="M104.635 103.513C105.714 102.94 106.568 102.437 106.543 102.389C106.518 102.341 105.622 102.767 104.543 103.341C103.464 103.914 102.609 104.417 102.635 104.465C102.66 104.512 103.555 104.086 104.635 103.513Z" fill="#FAFAFA"/>
<path d="M117.807 116.747C117.807 116.747 117.742 116.779 117.612 116.812C117.482 116.844 117.254 116.877 116.994 116.91C116.474 117.007 115.693 117.072 114.717 117.072C113.741 117.072 112.602 116.91 111.366 116.584C110.129 116.258 108.795 115.705 107.559 114.924C106.29 114.142 105.249 113.166 104.403 112.221C103.557 111.245 102.939 110.268 102.484 109.389C102.028 108.51 101.768 107.794 101.605 107.273C101.508 107.012 101.475 106.817 101.442 106.687C101.41 106.557 101.377 106.492 101.41 106.459C101.41 106.459 101.442 106.524 101.475 106.654C101.508 106.785 101.573 106.98 101.67 107.24C101.833 107.761 102.126 108.477 102.581 109.324C103.037 110.17 103.655 111.147 104.501 112.091C105.347 113.035 106.388 113.98 107.624 114.761C108.86 115.542 110.162 116.063 111.398 116.389C112.634 116.714 113.773 116.877 114.717 116.91C115.693 116.942 116.441 116.877 116.994 116.812C117.254 116.779 117.482 116.747 117.612 116.714C117.742 116.747 117.807 116.747 117.807 116.747Z" fill="#263238"/>
<path d="M108.112 115.054C108.079 115.054 107.949 114.338 108.274 113.524C108.567 112.71 109.153 112.221 109.185 112.254C109.218 112.287 108.73 112.775 108.437 113.589C108.112 114.37 108.144 115.054 108.112 115.054Z" fill="#FAFAFA"/>
<path d="M105.412 113.947C105.445 113.98 104.957 114.24 104.566 114.761C104.176 115.282 104.078 115.803 104.046 115.803C104.013 115.803 104.013 115.217 104.436 114.663C104.859 114.077 105.412 113.882 105.412 113.947Z" fill="#FAFAFA"/>
<path d="M115.726 120.067C115.726 120.1 114.977 120.035 114.229 119.579C113.481 119.123 113.09 118.472 113.123 118.439C113.156 118.407 113.578 118.96 114.327 119.416C115.043 119.904 115.726 120.035 115.726 120.067Z" fill="#FAFAFA"/>
<path d="M117.32 111.049C117.352 111.049 117.255 111.733 116.734 112.352C116.213 112.97 115.563 113.165 115.563 113.133C115.53 113.1 116.116 112.84 116.604 112.221C117.124 111.668 117.287 111.049 117.32 111.049Z" fill="#FAFAFA"/>
<path d="M121.875 117.788C121.842 117.756 122.265 117.202 122.656 116.454C123.046 115.705 123.274 115.054 123.306 115.054C123.339 115.054 123.209 115.77 122.786 116.519C122.395 117.3 121.907 117.821 121.875 117.788Z" fill="#FAFAFA"/>
<path d="M127.893 118.668C127.926 118.7 127.308 118.961 126.722 119.449C126.136 119.937 125.778 120.458 125.713 120.426C125.681 120.393 125.974 119.807 126.592 119.319C127.243 118.798 127.893 118.635 127.893 118.668Z" fill="#FAFAFA"/>
<path d="M123.306 110.952C123.241 110.952 122.981 110.008 122.362 108.966C121.777 107.891 121.094 107.175 121.159 107.143C121.159 107.143 121.354 107.305 121.614 107.598C121.874 107.891 122.2 108.347 122.525 108.901C122.818 109.454 123.046 109.942 123.176 110.333C123.273 110.691 123.306 110.952 123.306 110.952Z" fill="#FAFAFA"/>
<path d="M122.647 101.703C123.505 101.505 124.191 101.301 124.179 101.249C124.166 101.196 123.461 101.314 122.603 101.512C121.745 101.71 121.06 101.914 121.072 101.966C121.084 102.019 121.789 101.901 122.647 101.703Z" fill="#FAFAFA"/>
<path d="M120.424 97.2352C120.942 97.9023 121.397 98.4164 121.439 98.3833C121.482 98.3502 121.096 97.7825 120.578 97.1153C120.06 96.4481 119.605 95.9341 119.563 95.9672C119.52 96.0003 119.906 96.568 120.424 97.2352Z" fill="#FAFAFA"/>
<path d="M128.284 96.6265C128.284 96.6591 127.568 96.6266 126.722 96.4312C125.876 96.2359 125.226 95.9429 125.226 95.9103C125.258 95.8778 125.909 96.0731 126.755 96.2684C127.601 96.4638 128.284 96.5614 128.284 96.6265Z" fill="#FAFAFA"/>
<path d="M133.164 96.5292C133.131 96.4966 133.392 95.9106 133.652 95.1618C133.912 94.413 134.107 93.7944 134.14 93.7944C134.172 93.7944 134.075 94.4456 133.815 95.1944C133.554 96.0083 133.196 96.5617 133.164 96.5292Z" fill="#FAFAFA"/>
<path d="M132.058 103.17C132.058 103.203 131.374 103.04 130.626 102.617C129.878 102.194 129.422 101.673 129.455 101.64C129.487 101.608 130.008 102.064 130.724 102.487C131.439 102.877 132.09 103.105 132.058 103.17Z" fill="#FAFAFA"/>
<path d="M135.568 101.007C135.326 102.058 135.173 102.921 135.225 102.933C135.278 102.945 135.516 102.102 135.758 101.051C135.999 99.9993 136.153 99.1372 136.1 99.1251C136.048 99.113 135.809 99.9555 135.568 101.007Z" fill="#FAFAFA"/>
<path d="M131.42 108.927C132.013 109.741 132.53 110.374 132.573 110.342C132.617 110.31 132.171 109.625 131.578 108.812C130.984 107.999 130.468 107.366 130.424 107.397C130.381 107.429 130.826 108.114 131.42 108.927Z" fill="#FAFAFA"/>
<path d="M137.101 107.533C137.068 107.566 136.743 106.98 136.287 106.296C135.832 105.645 135.376 105.156 135.409 105.124C135.441 105.091 135.962 105.515 136.417 106.198C136.905 106.882 137.166 107.5 137.101 107.533Z" fill="#FAFAFA"/>
<path d="M141.33 106.882C141.297 106.915 140.874 106.264 140.289 105.515C139.703 104.766 139.215 104.18 139.248 104.147C139.28 104.115 139.833 104.636 140.419 105.417C141.004 106.166 141.395 106.85 141.33 106.882Z" fill="#FAFAFA"/>
<path d="M140.354 109.682C140.289 109.682 140.321 109.128 139.963 108.575C139.606 108.021 139.085 107.826 139.085 107.793C139.085 107.761 139.248 107.793 139.443 107.891C139.638 107.989 139.898 108.184 140.094 108.477C140.289 108.77 140.386 109.096 140.386 109.324C140.419 109.551 140.354 109.682 140.354 109.682Z" fill="#FAFAFA"/>
<path d="M137.036 113.556C137.003 113.556 137.003 113.458 137.003 113.361C136.971 113.263 136.906 113.1 136.775 113.003C136.645 112.905 136.483 112.872 136.352 112.872C136.222 112.872 136.157 112.905 136.157 112.872C136.157 112.84 136.19 112.775 136.352 112.742C136.483 112.71 136.71 112.71 136.906 112.84C137.101 112.97 137.133 113.198 137.133 113.328C137.133 113.491 137.068 113.556 137.036 113.556Z" fill="#FAFAFA"/>
<path d="M103.199 119.71C103.199 119.742 102.353 119.417 101.573 118.668C100.792 117.887 100.466 117.04 100.532 117.04C100.564 117.007 100.954 117.789 101.703 118.538C102.451 119.286 103.232 119.645 103.199 119.71Z" fill="#FAFAFA"/>
<path d="M82.4748 38.9042C81.9542 33.9556 81.0107 29.3 80.7504 24.4491C80.7504 24.2212 80.7179 23.9282 80.5227 23.7654C80.2624 23.5701 79.8395 23.7329 79.6768 24.0259C79.5141 24.3189 79.5141 24.677 79.5141 25.0026C79.5141 27.5745 79.0912 30.1465 78.2127 32.5882C77.6597 34.1509 76.9114 35.6811 76.4884 37.3089C76.0655 38.9367 76.8463 39.4902 77.5946 40.9878" fill="#FFBE9D"/>
<path d="M61.79 15.9694C64.0177 17.8444 65.8518 19.3309 65.8865 19.2896C65.9211 19.2483 64.1433 17.6949 61.9155 15.8198C59.6878 13.9448 57.8537 12.4583 57.819 12.4996C57.7844 12.5409 59.5622 14.0944 61.79 15.9694Z" fill="#263238"/>
<path d="M74.7388 10.5944C74.919 14.1678 75.1087 17.0625 75.1626 17.0598C75.2164 17.0571 75.1139 14.158 74.9337 10.5846C74.7535 7.01111 74.5638 4.11646 74.5099 4.11918C74.4561 4.1219 74.5586 7.02095 74.7388 10.5944Z" fill="#263238"/>
<path d="M67.9725 11.3142C68.6327 13.3683 69.2096 15.0201 69.2609 15.0035C69.3122 14.987 68.8186 13.3085 68.1583 11.2544C67.4981 9.20032 66.9213 7.54855 66.87 7.56506C66.8187 7.58158 67.3123 9.26013 67.9725 11.3142Z" fill="#263238"/>
<path d="M61.4534 21.2794C62.8253 21.9092 63.9556 22.38 63.9781 22.331C64.0005 22.2819 62.9066 21.7316 61.5348 21.1018C60.1629 20.472 59.0326 20.0012 59.0101 20.0502C58.9877 20.0993 60.0816 20.6496 61.4534 21.2794Z" fill="#263238"/>
<path d="M54.8098 18.621C55.1308 18.6611 55.3964 18.6502 55.4031 18.5967C55.4097 18.5432 55.155 18.4672 54.834 18.4271C54.5131 18.387 54.2475 18.3979 54.2408 18.4514C54.2341 18.5049 54.4889 18.5808 54.8098 18.621Z" fill="#263238"/>
<path d="M67.0537 5.43619C67.1076 5.43619 67.1513 5.17382 67.1513 4.85017C67.1513 4.52653 67.1076 4.26416 67.0537 4.26416C66.9998 4.26416 66.9561 4.52653 66.9561 4.85017C66.9561 5.17382 66.9998 5.43619 67.0537 5.43619Z" fill="#263238"/>
<path d="M83.3206 13.8956C85.2093 11.7984 86.7079 10.0691 86.6679 10.033C86.6278 9.99684 85.0643 11.6676 83.1756 13.7648C81.2869 15.8619 79.7883 17.5913 79.8284 17.6274C79.8684 17.6635 81.432 15.9927 83.3206 13.8956Z" fill="#263238"/>
<path d="M88.665 8.21538C88.9064 7.97382 89.0712 7.74706 89.0331 7.70892C88.9949 7.67078 88.7683 7.83569 88.5269 8.07726C88.2855 8.31882 88.1207 8.54557 88.1589 8.58371C88.197 8.62185 88.4236 8.45695 88.665 8.21538Z" fill="#263238"/>
<path d="M94.8376 16.0171C94.8376 16.0171 94.6749 16.1148 94.3821 16.2775C94.0893 16.4403 93.6664 16.6682 93.1458 16.9287C92.1047 17.4496 90.6081 18.1658 88.9488 18.8495C87.2896 19.5332 85.7279 20.0866 84.6217 20.4773C84.0687 20.6727 83.6132 20.8029 83.2878 20.9005C82.9625 20.9982 82.7998 21.0308 82.7998 21.0308C82.7998 21.0308 82.9625 20.9657 83.2878 20.8354C83.6132 20.7052 84.0687 20.5424 84.5892 20.3796C85.6954 19.989 87.2245 19.403 88.8838 18.7193C90.543 18.0356 92.0396 17.3519 93.1133 16.831C93.6338 16.6031 94.0568 16.3752 94.3821 16.245C94.6749 16.0822 94.8376 16.0171 94.8376 16.0171Z" fill="#263238"/>
<path d="M90.0882 24.0259C90.0882 24.0584 89.7628 24.1561 89.2098 24.3189C88.6567 24.4817 87.9084 24.6445 87.0625 24.7747C86.2166 24.9049 85.4357 25.0026 84.8826 25.0351C84.3296 25.0677 83.9717 25.0677 83.9717 25.0677C83.9717 25.0351 84.3296 25.0026 84.8826 24.9375C85.4357 24.8723 86.2166 24.7747 87.0299 24.6119C87.8758 24.4817 88.6241 24.3189 89.1772 24.1887C89.7303 24.091 90.0882 24.0259 90.0882 24.0259Z" fill="#263238"/>
<path d="M93.4718 23.3423C93.9929 23.3423 94.4153 23.2986 94.4153 23.2446C94.4153 23.1907 93.9929 23.147 93.4718 23.147C92.9507 23.147 92.5283 23.1907 92.5283 23.2446C92.5283 23.2986 92.9507 23.3423 93.4718 23.3423Z" fill="#263238"/>
<path d="M77.6277 40.9226C76.3263 39.9459 75.6431 38.2205 75.9034 36.6252C76.066 35.6485 76.5541 34.7695 76.9445 33.8579C77.3349 32.9463 77.6277 31.9371 77.4 30.9604C77.3024 30.6023 77.1397 30.2441 77.1397 29.8535C77.1397 29.4628 77.3674 29.0396 77.7578 29.0396C78.0507 29.0396 78.2784 29.2349 78.4736 29.4628C79.0918 30.2441 79.6123 32.5556 79.287 34.2486" fill="#FFBE9D"/>
<path d="M79.254 34.2815C79.2214 34.2815 79.2865 34.021 79.319 33.5327C79.319 33.0443 79.319 32.3606 79.1564 31.5467C79.0588 31.1235 78.9612 30.6677 78.7659 30.2119C78.6683 29.984 78.5707 29.7561 78.4081 29.5608C78.2454 29.3654 78.0502 29.1701 77.7899 29.1376C77.5296 29.105 77.3344 29.3329 77.2368 29.5933C77.1392 29.8538 77.2043 30.1468 77.3019 30.4398C77.3995 30.7328 77.4971 31.0258 77.5296 31.3514C77.5622 31.6769 77.5622 32.0025 77.4971 32.3281C77.2694 33.6629 76.5536 34.7047 76.1957 35.779C76.0005 36.2999 75.9029 36.8208 75.9029 37.3092C75.9029 37.7975 75.968 38.2533 76.0981 38.6766C76.3584 39.4905 76.7488 40.0439 77.0741 40.402C77.3995 40.7602 77.5947 40.8904 77.5947 40.9229C77.5947 40.9229 77.5296 40.8904 77.432 40.8253C77.3344 40.7602 77.1718 40.6299 77.0091 40.4672C76.6837 40.1416 76.2283 39.5556 75.968 38.7417C75.8378 38.3184 75.7402 37.8627 75.7402 37.3418C75.7402 36.8208 75.8378 36.2999 76.033 35.7465C76.3909 34.6721 77.0742 33.5978 77.3019 32.3281C77.367 32.0025 77.367 31.7095 77.3344 31.3839C77.3019 31.0909 77.2043 30.7979 77.1067 30.5049C77.0091 30.2119 76.944 29.8863 77.0741 29.5608C77.1392 29.398 77.2043 29.2678 77.3344 29.1701C77.4646 29.0724 77.6272 29.0073 77.7899 29.0073C78.1153 29.0399 78.343 29.2678 78.5057 29.4957C78.6683 29.7236 78.7985 29.9515 78.8961 30.2119C79.0913 30.7003 79.1889 31.156 79.2865 31.5793C79.4492 32.4257 79.4492 33.142 79.4166 33.5978C79.3841 33.8257 79.3841 34.021 79.3516 34.1512C79.2865 34.2163 79.254 34.2815 79.254 34.2815Z" fill="#EB996E"/>
<path d="M121.809 60.7175C121.971 61.6616 122.882 62.3779 123.826 62.443C124.769 62.5081 125.713 62.0198 126.266 61.2384C126.819 60.4571 127.014 59.4478 126.884 58.5037C126.689 57.1363 125.778 55.8015 124.477 55.4108C123.143 54.9876 121.516 55.7364 121.158 57.0712L119.629 59.1874L121.809 60.7175Z" fill="#263238"/>
<path d="M119.987 56.55C120.605 51.6015 117.026 47.1087 112.016 46.6203C107.299 46.1646 103.102 49.6806 102.386 54.3688C101.768 58.4709 101.247 62.6381 101.247 64.1357C101.312 68.6936 103.98 70.4516 105.054 70.9725C105.314 71.1027 105.965 71.233 106.257 71.2655C106.29 71.2655 106.29 71.2981 106.29 71.2981L105.281 76.5071C104.826 79.9255 106.745 82.9858 110.162 83.4741C113.578 83.9625 116.278 81.358 116.799 77.907L119.987 56.55Z" fill="#FFBE9D"/>
<path d="M103.199 57.0385C103.264 57.1362 103.883 56.8107 104.631 56.9409C105.412 57.0385 105.9 57.5269 105.997 57.4292C106.03 57.3967 105.965 57.2013 105.77 57.006C105.542 56.7781 105.151 56.5502 104.696 56.4851C104.208 56.42 103.785 56.5502 103.525 56.6804C103.264 56.8432 103.167 57.006 103.199 57.0385Z" fill="#263238"/>
<path d="M110.031 58.5361C110.096 58.6338 110.715 58.3082 111.463 58.4384C112.244 58.5361 112.732 59.0244 112.829 58.9268C112.862 58.8942 112.797 58.6989 112.602 58.5035C112.374 58.2757 111.984 58.0478 111.528 57.9827C111.04 57.9175 110.617 58.0478 110.357 58.178C110.096 58.3082 109.999 58.471 110.031 58.5361Z" fill="#263238"/>
<path d="M107.364 62.1825C107.364 62.1499 106.908 61.9871 106.16 61.7592C105.965 61.6941 105.802 61.629 105.769 61.4988C105.737 61.336 105.867 61.1407 105.997 60.9453C106.257 60.4895 106.518 60.0338 106.81 59.5454C107.917 57.5269 108.763 55.8665 108.698 55.834C108.6 55.8014 107.656 57.3967 106.518 59.4152C106.257 59.9035 105.997 60.3919 105.737 60.8477C105.639 61.0756 105.477 61.3035 105.509 61.5965C105.542 61.7592 105.672 61.8895 105.802 61.922C105.932 61.9871 106.03 61.9871 106.127 62.0197C106.876 62.1499 107.364 62.215 107.364 62.1825Z" fill="#263238"/>
<path d="M106.29 71.3305C106.29 71.3305 109.218 72.0142 113.252 70.3213C113.252 70.3213 111.495 74.0653 105.997 72.7305L106.29 71.3305Z" fill="#EB996E"/>
<path d="M107.429 64.0703C107.755 63.7447 108.275 63.6145 108.763 63.7447C109.088 63.8424 109.414 64.0377 109.576 64.3307C109.739 64.6237 109.739 65.0144 109.511 65.2423C109.251 65.5028 108.828 65.5028 108.47 65.34C108.112 65.1772 107.852 64.8842 107.559 64.6237C107.494 64.5586 107.397 64.461 107.364 64.3633C107.332 64.2656 107.332 64.1354 107.397 64.0703" fill="#EB996E"/>
<path d="M109.576 63.0287C109.446 62.9962 109.316 63.8427 108.535 64.331C107.722 64.8193 106.843 64.5915 106.843 64.7217C106.811 64.7868 107.006 64.917 107.396 64.9821C107.754 65.0472 108.307 65.0147 108.795 64.7217C109.283 64.4287 109.544 63.9729 109.609 63.6148C109.674 63.2566 109.609 63.0287 109.576 63.0287Z" fill="#263238"/>
<path d="M110.552 56.0295C110.584 56.2574 111.365 56.2574 112.276 56.5178C113.155 56.7457 113.87 57.1038 114 56.941C114.066 56.8434 113.968 56.648 113.708 56.3876C113.447 56.1271 112.992 55.8667 112.471 55.7365C111.951 55.6062 111.43 55.6062 111.072 55.7039C110.747 55.769 110.552 55.9318 110.552 56.0295Z" fill="#263238"/>
<path d="M103.98 54.6618C104.078 54.8571 104.631 54.7594 105.282 54.8245C105.933 54.8897 106.453 55.1176 106.583 54.9548C106.648 54.8897 106.583 54.6943 106.388 54.499C106.193 54.3036 105.802 54.1083 105.379 54.0432C104.924 53.9781 104.534 54.1083 104.273 54.2385C104.013 54.4013 103.915 54.5641 103.98 54.6618Z" fill="#263238"/>
<path d="M101.507 53.3595C102.451 54.792 105.444 53.913 107.233 52.9363C109.12 54.206 111.788 53.6525 113.09 51.7317C114.131 53.0339 116.213 52.6107 116.994 51.1457C117.742 49.6481 117.319 47.6296 116.278 46.3273C115.237 45.0251 113.708 44.3739 112.179 44.0809C108.6 43.4298 104.663 44.7972 102.516 48.0528C101.507 49.5504 100.922 51.5689 101.507 53.3595Z" fill="#263238"/>
<path d="M111.463 44.5697C111.463 44.6348 110.617 44.472 109.283 44.6999C107.981 44.9278 106.127 45.6115 104.76 47.1416C103.426 48.7043 102.808 50.5275 102.581 51.8623C102.353 53.1971 102.516 54.0436 102.483 54.0436C102.45 54.0436 102.418 53.8482 102.353 53.4576C102.32 53.0669 102.288 52.5134 102.385 51.8298C102.548 50.4624 103.134 48.5741 104.533 46.9463C105.964 45.351 107.884 44.6673 109.25 44.5046C109.933 44.4069 110.487 44.4395 110.877 44.472C111.235 44.5046 111.463 44.5697 111.463 44.5697Z" fill="#455A64"/>
<path d="M106.583 51.276C106.55 51.276 106.518 51.1132 106.518 50.755C106.485 50.4295 106.518 49.9411 106.648 49.3551C106.908 48.2157 107.754 46.6204 109.348 45.6437C110.975 44.6996 112.764 44.7321 113.903 45.0903C114.489 45.253 114.912 45.4809 115.204 45.6437C115.497 45.8065 115.627 45.9367 115.627 45.9693C115.595 46.0344 115.009 45.5786 113.87 45.3181C112.764 45.0577 111.04 45.0577 109.511 45.9367C107.982 46.8483 107.168 48.3459 106.875 49.4528C106.55 50.5272 106.648 51.276 106.583 51.276Z" fill="#455A64"/>
<path d="M115.204 49.713C114.911 50.9827 114.586 52.2849 114.586 53.6197C114.586 54.922 114.911 56.2894 115.757 57.2986C117.026 58.8288 119.108 59.2845 121.028 59.6427C122.069 57.0707 122.394 54.2383 121.939 51.5036C121.711 50.1688 121.288 48.8014 120.345 47.8573C118.978 46.4573 116.636 46.1643 114.976 47.2061" fill="#263238"/>
<path d="M116.279 55.9966C115.758 57.1035 115.823 58.3732 115.986 59.5778C116.149 60.7824 116.474 61.9544 116.441 63.1915C116.441 64.3961 116.051 65.6984 115.107 66.4472C114.847 66.6751 114.522 66.8379 114.294 67.0983C114.066 67.3588 113.936 67.7494 114.131 68.0424C114.327 68.3355 114.847 68.3355 114.945 68.0099L114.88 68.1076C114.684 68.4657 114.912 68.9215 115.335 68.9215C115.986 68.9215 116.637 68.5634 117.059 68.075C117.678 67.3588 117.938 66.3821 118.101 65.4379C118.589 62.573 118.491 59.5778 119.304 56.7779" fill="#263238"/>
<path d="M105.249 74.8792C105.704 76.8326 107.006 78.5581 108.795 79.5023C110.552 80.4464 112.732 80.5766 114.619 79.8604C116.31 79.2092 117.677 77.9396 118.978 76.7024C119.434 79.5023 118.653 82.53 116.896 84.7438C115.107 86.9902 112.374 88.3902 109.511 88.5855C107.363 88.7157 105.053 88.0646 103.687 86.3717C102.744 85.1996 102.353 83.6369 102.386 82.1393C102.386 80.6417 102.776 79.1441 103.232 77.7117C103.622 76.4745 104.24 75.1071 105.476 74.749" fill="#E8505B"/>
<path d="M120.703 59.7406C122.004 60.4569 122.688 61.8894 122.948 63.3544C123.208 64.7869 123.078 66.2845 123.143 67.7495C123.208 69.2145 123.501 70.7447 124.412 71.8842C125.388 73.0887 126.95 73.6748 128.316 74.391C131.342 76.0188 133.847 78.7861 134.758 82.1069C135.669 85.4276 134.855 89.2693 132.35 91.6459C130.073 93.8272 126.787 94.5759 123.664 94.5759C121.419 94.5759 118.979 94.0876 117.58 92.3296C116.213 90.6041 116.278 88.1298 116.766 85.9811C117.254 83.8323 118.133 81.7162 118.198 79.5349C117.872 80.9023 117.287 82.2045 116.473 83.344C116.246 83.6696 115.855 84.0277 115.497 83.8323C115.107 83.637 115.27 83.0184 115.432 82.6278C118.133 76.6374 117.189 64.5264 118.783 57.9175" fill="#263238"/>
<path d="M118.458 59.0569C118.523 59.0244 121.679 58.4384 121.288 61.5312C120.898 64.6566 117.84 63.5823 117.84 63.5172C117.872 63.4195 118.458 59.0569 118.458 59.0569Z" fill="#FFBE9D"/>
<path d="M118.946 62.4753C118.946 62.4753 119.011 62.5079 119.076 62.573C119.174 62.6381 119.304 62.6706 119.467 62.6381C119.825 62.573 120.15 62.0846 120.248 61.5312C120.28 61.2382 120.28 60.9777 120.183 60.7498C120.118 60.5219 119.987 60.3266 119.825 60.294C119.662 60.2289 119.532 60.3266 119.499 60.3917C119.434 60.4894 119.467 60.5219 119.434 60.5545C119.434 60.5545 119.369 60.4894 119.402 60.3591C119.434 60.294 119.467 60.2289 119.564 60.1638C119.662 60.0987 119.76 60.0987 119.89 60.1312C120.118 60.1638 120.313 60.4243 120.378 60.6847C120.475 60.9452 120.508 61.2707 120.443 61.5637C120.345 62.1823 119.955 62.7357 119.467 62.8009C119.239 62.8334 119.076 62.7357 118.979 62.6381C118.946 62.5404 118.946 62.4753 118.946 62.4753Z" fill="#EB996E"/>
<path d="M102.028 81.5861C101.996 81.5861 102.224 81.1954 102.549 80.6094C102.874 80.0233 103.362 79.2094 103.688 78.2327C104.013 77.2561 104.078 76.3119 103.981 75.6608C103.883 75.0097 103.688 74.619 103.72 74.5864C103.72 74.5864 103.785 74.6841 103.85 74.8469C103.916 75.0097 104.013 75.3027 104.078 75.6282C104.208 76.3119 104.176 77.2886 103.85 78.2653C103.525 79.2745 103.037 80.0885 102.679 80.6419C102.484 80.9349 102.354 81.1628 102.224 81.3256C102.126 81.5209 102.061 81.6186 102.028 81.5861Z" fill="#263238"/>
<path d="M103.623 78.0047C103.59 78.0047 103.492 77.7442 103.2 77.5489C102.939 77.3535 102.646 77.3535 102.646 77.321C102.646 77.2884 102.712 77.2559 102.842 77.2559C102.972 77.2559 103.134 77.2884 103.297 77.4186C103.46 77.5163 103.557 77.6791 103.59 77.8093C103.655 77.907 103.655 78.0047 103.623 78.0047Z" fill="#FAFAFA"/>
<path d="M105.639 78.0048C105.607 78.0374 105.347 77.5816 104.826 77.256C104.338 76.9304 103.817 76.8653 103.817 76.8328C103.817 76.8002 104.37 76.7676 104.924 77.1258C105.477 77.4513 105.672 78.0048 105.639 78.0048Z" fill="#FAFAFA"/>
<path d="M107.091 83.2677C106.942 83.9896 106.864 84.5837 106.916 84.5946C106.969 84.6055 107.133 84.0291 107.282 83.3072C107.431 82.5852 107.509 81.9912 107.456 81.9802C107.403 81.9693 107.24 82.5457 107.091 83.2677Z" fill="#FAFAFA"/>
<path d="M111.931 84.189C111.907 84.9618 111.931 85.5896 111.985 85.5913C112.039 85.593 112.102 84.9679 112.126 84.1951C112.15 83.4223 112.126 82.7945 112.072 82.7929C112.018 82.7912 111.955 83.4163 111.931 84.189Z" fill="#FAFAFA"/>
<path d="M8.36025 100.078L3.31738 121.923L13.9562 121.956L18.8364 102.748L8.36025 100.078Z" fill="#B78876"/>
<path d="M60.4485 73.2196C59.44 71.8522 58.2687 70.5825 57.7482 68.9547C57.4879 68.1733 57.3903 67.3594 57.13 66.5781C56.8697 65.7967 56.3492 65.0479 55.6009 64.7875C54.8526 64.4945 54.267 64.7875 53.779 65.3409L50.1025 75.9868L52.2173 84.1585C54.2995 83.6701 56.9348 83.1167 58.8869 82.2377C60.839 81.3586 62.1403 79.9587 62.2705 77.81C62.3681 76.1496 61.4571 74.5544 60.4485 73.2196Z" fill="#263238"/>
<path d="M27.3279 71.3313C27.3279 71.3313 14.6719 76.8333 13.0777 79.3402C11.4836 81.8145 6.31055 99.5577 6.31055 99.5577L19.6497 103.497L19.422 121.956H52.1193L51.859 89.4001L47.7597 71.3964C47.7597 71.3964 40.537 70.9406 39.8863 70.6151C39.1705 70.257 27.3279 71.3313 27.3279 71.3313Z" fill="#E8505B"/>
<path d="M72.2911 26.2082C72.3887 25.4595 71.8682 24.6455 72.2586 23.9944C72.4538 23.6363 72.8767 23.4735 73.2672 23.3107C73.4624 23.2456 73.6901 23.1479 73.8853 23.1479C74.1131 23.1479 74.3408 23.2782 74.4059 23.4735C74.5035 23.7014 74.3408 23.9619 74.1456 24.1572C73.9829 24.32 73.7552 24.4828 73.6576 24.7107C73.5274 25.0362 73.6576 26.0129 73.7877 26.3059C74.0155 26.8268 74.7963 29.2034 74.8614 29.7895" fill="#B78876"/>
<path d="M69.623 26.4688C69.6556 25.3293 70.5991 20.9017 70.6316 19.7622C71.3799 19.9901 71.8354 20.804 71.9981 21.5854C72.1608 22.3667 72.0631 23.1806 72.1933 23.962C72.3885 25.0038 72.909 25.9805 73.4947 26.892C74.0478 27.8036 74.6334 28.7478 74.8611 29.7896C75.1214 30.8314 76.0649 33.5335 75.3166 34.3149" fill="#B78876"/>
<path d="M69.4278 34.0869L64.9055 55.6067C64.7428 56.5834 47.7598 71.3965 47.7598 71.3965L51.1108 84.8097L73.2669 63.1598C74.8611 61.4668 75.7395 59.1879 75.6745 56.8438L75.2841 36.6589L69.4278 34.0869Z" fill="#B78876"/>
<path d="M68.6474 26.5991L69.4282 34.087L75.2844 36.659C75.2844 36.659 75.3495 36.1381 75.6098 33.5336C75.9026 30.6686 72.8118 29.4315 71.4453 27.3479C70.8597 26.4363 71.0224 24.7759 70.5669 22.7249C70.5018 22.497 70.1765 21.0645 70.0138 20.2831C69.9162 19.8599 69.6885 19.4692 69.2981 19.2413C69.0378 19.0786 68.745 18.9809 68.5172 19.2413C68.2895 19.4692 68.6474 26.5991 68.6474 26.5991Z" fill="#B78876"/>
<path d="M72.2906 35.3242C72.9413 34.7707 73.104 33.7615 72.8437 32.915C72.5834 32.0685 72.0303 31.3849 71.4772 30.7012C70.8916 30.05 70.306 29.3989 69.9481 28.585C69.6878 28.0315 69.5902 27.413 69.2974 26.8595C69.0372 26.3061 68.5166 25.8177 67.8984 25.7852C68.3865 28.878 68.3865 30.6686 69.395 34.0545" fill="#B78876"/>
<path d="M68.5172 29.3337C68.5172 29.3337 68.4846 29.236 68.4521 29.0732C68.4196 28.8779 68.3545 28.65 68.2894 28.357C68.1593 27.7059 67.9641 26.8594 67.7689 25.9153L67.7363 25.8176H67.8339C68.2243 25.785 68.6148 25.9478 68.9401 26.2408C69.4607 26.664 69.6884 27.2826 69.8511 27.8035C70.0137 28.3244 70.1764 28.8128 70.3716 29.1709C70.5668 29.529 70.7946 29.7569 70.9573 29.9522C71.0874 30.1476 71.1525 30.2452 71.1525 30.2452C71.1525 30.2452 71.0549 30.1476 70.8922 29.9848C70.7295 29.822 70.4692 29.5941 70.274 29.2034C70.0463 28.8453 69.8836 28.357 69.7209 27.8361C69.5583 27.3152 69.3305 26.7617 68.8425 26.3385C68.5497 26.078 68.1918 25.9478 67.8665 25.9804L67.9315 25.8827C68.3545 27.8686 68.5822 29.3337 68.5172 29.3337Z" fill="#7C5142"/>
<path d="M70.6017 24.3608C70.853 26.0504 71.0999 27.4136 71.1532 27.4056C71.2066 27.3977 71.0461 26.0216 70.7948 24.3321C70.5435 22.6426 70.2966 21.2794 70.2433 21.2873C70.19 21.2953 70.3505 22.6713 70.6017 24.3608Z" fill="#7C5142"/>
<path d="M73.0064 27.6734C73.0064 27.6734 73.0389 27.706 73.0389 27.8036H72.9738C72.8762 27.5432 72.616 26.6967 72.3882 25.6875C72.2581 25.0689 72.1605 24.4829 72.0954 24.0597C72.0303 23.6364 71.9978 23.376 72.0303 23.376C72.0629 23.376 72.2906 24.3852 72.5509 25.6549C72.7786 26.6642 72.9738 27.5106 73.0389 27.8036H72.9738C73.0064 27.706 73.0064 27.6734 73.0064 27.6734Z" fill="#7C5142"/>
<path d="M74.1776 31.8082C74.1451 31.8082 74.0475 31.6454 73.7872 31.3849C73.5594 31.1245 73.169 30.8315 72.7135 30.6036C72.2255 30.3757 71.77 30.278 71.4447 30.2455C71.0868 30.2129 70.8916 30.2455 70.8916 30.2129C70.8916 30.1803 71.0868 30.1152 71.4447 30.1152C71.8026 30.1152 72.2906 30.1803 72.8111 30.4408C73.2992 30.6687 73.6896 31.0268 73.9173 31.2873C74.1125 31.5803 74.1776 31.7756 74.1776 31.8082Z" fill="#7C5142"/>
<path d="M69.9484 34.673C69.9158 34.673 69.7857 34.3475 69.558 33.794C69.3628 33.2406 69.1025 32.4592 68.8747 31.5476C68.6795 30.6686 68.5169 29.8547 68.4518 29.2687C68.3867 28.6827 68.3867 28.292 68.3867 28.292C68.4193 28.292 68.4518 28.6501 68.5494 29.2361C68.647 29.8221 68.8097 30.6361 69.0049 31.5151C69.2001 32.3941 69.4604 33.1754 69.623 33.7615C69.8508 34.3149 69.9809 34.6405 69.9484 34.673Z" fill="#7C5142"/>
<path d="M43.7578 71.787C44.3109 70.8754 45.6448 70.5824 46.5233 71.1359C48.8983 69.1825 51.3384 67.2942 53.7459 65.3408C52.9651 69.2476 52.4446 74.6845 54.2014 78.2657C54.2014 78.2657 56.4138 82.3678 59.895 81.7492L56.7717 84.8421L51.8264 89.4326" fill="#E8505B"/>
<path d="M42.977 73.6104C42.9444 73.6104 42.977 72.8941 43.4324 72.1453C43.8879 71.3965 44.5061 71.0059 44.5386 71.071C44.5712 71.1035 44.0181 71.5268 43.5951 72.243C43.1396 72.9267 43.042 73.6104 42.977 73.6104Z" fill="#263238"/>
<path d="M45.5803 75.987C45.5803 75.987 45.4177 75.7265 45.3201 75.2707C45.1899 74.8149 45.1574 74.1313 45.255 73.415C45.3851 72.6988 45.6779 72.0802 45.9382 71.6895C46.1985 71.2989 46.4262 71.1035 46.4262 71.1035C46.4588 71.1361 46.2636 71.3314 46.0358 71.7546C45.8081 72.1453 45.5478 72.7313 45.4177 73.4476C45.2875 74.1313 45.3201 74.7824 45.4177 75.2382C45.4827 75.7265 45.5803 75.987 45.5803 75.987Z" fill="#263238"/>
<path d="M57.5198 84.3864C57.5198 84.3864 57.2595 84.5491 56.739 84.7119C56.2184 84.8422 55.405 84.9073 54.4615 84.6468C53.518 84.3864 52.5095 83.7027 51.7286 82.6934C50.9153 81.6842 50.3947 80.3168 50.1019 78.8843C49.5488 75.9868 49.5488 73.2846 49.7115 71.3638C49.7765 70.3871 49.9067 69.6383 49.9718 69.0849C50.0043 68.8244 50.0694 68.5965 50.0694 68.4663C50.1019 68.3361 50.1019 68.2384 50.1344 68.271C50.1344 68.271 50.1344 68.3361 50.1019 68.4989C50.0694 68.6616 50.0694 68.857 50.0368 69.1174C49.9718 69.6383 49.8741 70.4197 49.8091 71.3964C49.6789 73.3172 49.6789 75.9868 50.232 78.8843C50.5248 80.3168 51.0454 81.6191 51.8262 82.6283C52.5745 83.6376 53.5506 84.2887 54.4615 84.5817C55.3725 84.8747 56.1859 84.8096 56.7064 84.7119C57.2595 84.5166 57.5198 84.3538 57.5198 84.3864Z" fill="#FAFAFA"/>
<path d="M19.6826 108.934C19.65 108.934 19.585 104.311 19.585 98.6133C19.585 92.916 19.6175 88.293 19.6826 88.293C19.7151 88.293 19.7802 92.916 19.7802 98.6133C19.7802 104.311 19.7476 108.934 19.6826 108.934Z" fill="#263238"/>
<path d="M19.4213 84.7119C19.3888 84.7119 19.3888 84.2561 19.2261 83.5399C19.161 83.1818 18.9984 82.7585 18.8357 82.3027C18.6405 81.8469 18.3802 81.3912 18.0223 80.9354C17.6644 80.4796 17.3066 80.1215 16.9161 79.7959C16.5257 79.5029 16.1679 79.2424 15.8425 79.0797C15.1918 78.7215 14.7363 78.6239 14.7363 78.5913C14.7363 78.5913 14.8665 78.5913 15.0617 78.6564C15.1593 78.689 15.2894 78.7215 15.4196 78.7866C15.5497 78.8518 15.7124 78.8843 15.875 78.982C16.2004 79.1448 16.5908 79.3727 16.9812 79.6657C17.3716 79.9912 17.762 80.3494 18.1199 80.8051C18.4778 81.2609 18.7381 81.7493 18.9333 82.2051C19.1285 82.6609 19.2586 83.0841 19.3237 83.4748C19.3562 83.6701 19.3888 83.8329 19.3888 83.9631C19.4213 84.1259 19.4213 84.2236 19.4213 84.3538C19.4538 84.5817 19.4538 84.7119 19.4213 84.7119Z" fill="#263238"/>
<path d="M41.7084 71.2012C41.7084 71.2012 41.7409 71.2988 41.7734 71.4616C41.806 71.657 41.8385 71.9174 41.871 72.243C41.9036 72.9267 41.8385 73.9685 41.4806 75.1731C41.0902 76.3451 40.3744 77.7125 39.1381 78.8194C37.9018 79.9588 36.1449 80.7076 34.2579 80.8704C32.3384 81.0006 30.4839 80.5123 29.1175 79.5682C27.7185 78.6566 26.8075 77.4194 26.2544 76.3125C25.7013 75.1731 25.4736 74.1964 25.4085 73.4801C25.376 73.122 25.376 72.8615 25.376 72.6662C25.376 72.4709 25.376 72.3732 25.376 72.3732C25.376 72.3732 25.376 72.4709 25.4085 72.6662C25.4085 72.8615 25.441 73.122 25.4736 73.4476C25.5712 74.1312 25.7989 75.1079 26.352 76.2149C26.9051 77.2892 27.8486 78.4938 29.2151 79.4054C30.5815 80.317 32.3709 80.8053 34.2579 80.6425C36.1449 80.4797 37.8367 79.7635 39.0405 78.6566C40.2443 77.5822 40.9926 76.2474 41.383 75.0754C41.7734 73.9034 41.8385 72.8941 41.8385 72.2104C41.8385 71.8523 41.806 71.5918 41.7734 71.4291C41.7084 71.2988 41.7084 71.2012 41.7084 71.2012Z" fill="#263238"/>
<path d="M13.4134 97.5284C16.7066 98.6155 19.3901 99.4553 19.407 99.404C19.4239 99.3528 16.7679 98.43 13.4747 97.3429C10.1814 96.2558 7.49799 95.416 7.48106 95.4672C7.46413 95.5184 10.1201 96.4412 13.4134 97.5284Z" fill="#FAFAFA"/>
<path d="M51.5342 94.9022C51.5342 94.9347 44.3441 95.0324 35.4946 95.065C26.6452 95.0975 19.4551 95.0975 19.4551 95.0324C19.4551 94.9999 26.6127 94.9022 35.4946 94.8696C44.3441 94.8696 51.5342 94.8696 51.5342 94.9022Z" fill="#FAFAFA"/>
<path d="M51.6966 97.7346C51.6966 97.7671 44.4739 97.8322 35.5919 97.8322C26.71 97.8322 19.4873 97.7997 19.4873 97.7346C19.4873 97.6694 26.6775 97.6694 35.5919 97.6694C44.4739 97.6694 51.6966 97.702 51.6966 97.7346Z" fill="#FAFAFA"/>
<path d="M47.2714 101.186C47.2714 101.186 47.2389 101.283 47.1738 101.446C47.1087 101.641 47.0111 101.869 46.881 102.195C46.8159 102.358 46.7508 102.52 46.6532 102.716C46.5556 102.911 46.458 103.106 46.3604 103.334C46.1327 103.79 45.9375 104.278 45.6121 104.832C45.4495 105.092 45.3193 105.385 45.1567 105.678C44.994 105.971 44.7988 106.264 44.6036 106.59C44.2457 107.208 43.7902 107.86 43.3022 108.511C42.3261 109.813 41.1549 111.213 39.821 112.548C38.4545 113.883 37.0555 114.989 35.7216 115.966C35.0384 116.422 34.3877 116.878 33.7695 117.236C33.4442 117.431 33.1514 117.594 32.8586 117.757C32.5657 117.92 32.2729 118.05 31.9801 118.213C31.427 118.506 30.9065 118.733 30.4835 118.929C30.2558 119.026 30.0606 119.124 29.8654 119.222C29.6702 119.287 29.475 119.352 29.3123 119.417C28.9869 119.547 28.7592 119.612 28.564 119.71C28.4013 119.775 28.3037 119.808 28.3037 119.808C28.3037 119.808 28.4013 119.775 28.564 119.678C28.7592 119.612 28.9869 119.515 29.3123 119.385C29.475 119.319 29.6376 119.254 29.8328 119.157C30.028 119.059 30.2233 118.961 30.451 118.864C30.9065 118.636 31.3945 118.44 31.9476 118.115C32.2079 117.985 32.5007 117.822 32.7935 117.659C33.0863 117.496 33.3791 117.301 33.7045 117.138C34.3226 116.78 34.9733 116.324 35.6565 115.868C36.9905 114.924 38.3894 113.785 39.7234 112.483C41.0573 111.148 42.2285 109.78 43.2046 108.478C43.6601 107.794 44.1481 107.176 44.506 106.557C44.7012 106.264 44.8964 105.971 45.059 105.678C45.2217 105.385 45.3844 105.092 45.5471 104.832C45.8724 104.311 46.1002 103.79 46.3279 103.367C46.4255 103.139 46.5556 102.944 46.6207 102.748C46.7183 102.553 46.7834 102.39 46.8484 102.227C46.9786 101.934 47.0762 101.674 47.1738 101.511C47.2063 101.283 47.2714 101.186 47.2714 101.186Z" fill="#263238"/>
<g opacity="0.3">
<g opacity="0.3">
<g opacity="0.3">
<path opacity="0.3" d="M45.938 104.018C43.7582 106.687 41.4482 108.608 38.2598 109.845C36.7307 110.431 35.1039 110.854 33.6074 111.538C32.1108 112.254 30.7118 113.296 30.0611 114.826C29.5405 115.998 29.8008 117.756 31.0371 118.017C31.5251 118.114 32.0132 117.952 32.4361 117.789C38.8129 115.51 42.9773 109.682 45.938 104.018Z" fill="black"/>
</g>
</g>
</g>
<path d="M23.1961 46.0996C21.8296 47.174 21.732 49.1925 21.7971 50.9505C21.8621 52.7086 21.8947 54.6945 20.6258 55.8991C19.5847 56.9083 17.7628 57.2664 17.47 58.6664C17.3398 59.3175 17.6326 60.0663 18.2183 60.3919C18.8039 60.75 19.5847 60.6849 20.1053 60.2616C19.6498 61.3686 19.8775 62.7685 20.7885 63.5173C21.732 64.2335 23.3587 63.908 23.7166 62.7685C23.4889 63.5173 24.0094 64.3963 24.7577 64.5916C25.506 64.7544 26.3845 64.201 26.5146 63.4196" fill="#263238"/>
<path d="M43.1072 58.7314C43.4 59.6105 44.4736 60.1314 45.3521 59.8384C46.2305 59.5128 46.7185 58.4384 46.3606 57.5594C46.1004 56.8757 45.3846 56.3874 45.3521 55.6386C45.3195 54.7596 46.2305 54.1735 47.0439 53.848C47.8572 53.4899 48.8007 53.0666 48.9309 52.1876C49.061 51.3411 48.3452 50.6575 47.7271 50.0714C47.1089 49.4854 46.5558 48.5738 46.9788 47.825C47.2065 47.4344 47.6295 47.239 47.9223 46.9135C48.5405 46.1972 48.3127 44.9601 47.5644 44.3415C46.8487 43.7229 45.775 43.5927 44.8315 43.6904C43.888 43.8206 42.977 44.1787 42.0335 44.4066C38.9427 45.1554 35.5591 44.5369 32.9238 42.7788" fill="#263238"/>
<path d="M24.1392 52.8064L27.4902 72.21C28.0759 75.6285 31.3293 77.9074 34.7455 77.2888C37.9338 76.7354 40.1462 73.8053 39.8534 70.5822C39.6907 68.8567 39.5606 67.4243 39.5606 67.4243C39.5606 67.4243 44.4082 66.1871 43.9853 61.2385C43.7901 58.8619 42.9767 53.9785 42.1633 49.5508C41.3174 44.7976 36.9578 41.5094 32.1752 41.9977L31.6872 42.0303C26.6118 42.8442 23.1957 47.7276 24.1392 52.8064Z" fill="#B78876"/>
<path d="M41.1551 52.7734C41.2202 53.1316 40.9274 53.4897 40.537 53.5548C40.1466 53.6199 39.7887 53.3594 39.7561 53.0013C39.6911 52.6432 39.9839 52.2851 40.3743 52.22C40.7647 52.1549 41.0901 52.4153 41.1551 52.7734Z" fill="#263238"/>
<path d="M41.3505 52.0899C41.2854 52.1876 40.6998 51.862 39.9515 51.9271C39.2032 51.9922 38.6826 52.448 38.585 52.3504C38.5525 52.3178 38.6175 52.1225 38.8453 51.9271C39.073 51.7318 39.4634 51.5039 39.9189 51.4713C40.4069 51.4388 40.7974 51.569 41.0576 51.7318C41.3179 51.8946 41.4155 52.0573 41.3505 52.0899Z" fill="#263238"/>
<path d="M33.7372 53.6527C33.8022 54.0108 33.5094 54.3689 33.119 54.434C32.7286 54.4991 32.3707 54.2387 32.3382 53.8806C32.2731 53.5224 32.5659 53.1643 32.9563 53.0992C33.3142 53.0015 33.6721 53.262 33.7372 53.6527Z" fill="#263238"/>
<path d="M33.9325 52.9688C33.8674 53.0665 33.2818 52.7409 32.5335 52.806C31.7852 52.8711 31.2646 53.3269 31.167 53.2293C31.1345 53.1967 31.1996 53.0014 31.4273 52.806C31.6551 52.6107 32.0455 52.3828 32.501 52.3502C32.989 52.3177 33.3794 52.4479 33.6397 52.6107C33.8674 52.7735 33.965 52.9037 33.9325 52.9688Z" fill="#263238"/>
<path d="M37.218 58.3081C37.218 58.2756 37.6735 58.1453 38.4218 57.95C38.617 57.9175 38.7797 57.8523 38.8122 57.7221C38.8447 57.5919 38.7471 57.364 38.617 57.1687C38.3892 56.7129 38.1615 56.2571 37.9012 55.7362C36.8927 53.7177 36.1444 52.0573 36.242 51.9922C36.3396 51.9596 37.1855 53.5549 38.194 55.5734C38.4218 56.0617 38.6821 56.5501 38.8773 57.0059C38.9749 57.2338 39.1375 57.4617 39.0399 57.7547C39.0074 57.9175 38.8773 58.0151 38.7471 58.0802C38.617 58.1453 38.5194 58.1454 38.4218 58.1454C37.706 58.3081 37.218 58.3732 37.218 58.3081Z" fill="#263238"/>
<path d="M33.8348 49.9731C33.7697 50.201 33.0215 50.1684 32.143 50.3638C31.2646 50.5265 30.5814 50.8847 30.4187 50.6893C30.3536 50.5917 30.4512 50.3963 30.744 50.1684C31.0043 49.9405 31.4598 49.7126 31.9803 49.5824C32.5009 49.4847 33.0214 49.5173 33.3468 49.615C33.6721 49.7126 33.8673 49.8754 33.8348 49.9731Z" fill="#263238"/>
<path d="M40.862 49.9411C40.7319 50.1365 40.2113 50.0063 39.5607 50.0388C38.9425 50.0714 38.4219 50.2667 38.2593 50.1039C38.1942 50.0063 38.2593 49.8435 38.487 49.6481C38.7148 49.4528 39.0726 49.29 39.4956 49.2575C39.9185 49.2249 40.309 49.3551 40.5692 49.5179C40.8295 49.6807 40.9271 49.8435 40.862 49.9411Z" fill="#263238"/>
<path d="M28.9547 46.8484C28.9547 46.881 28.9222 46.881 28.9547 46.8484C28.2064 47.5647 27.7835 48.5088 27.7184 49.518C27.7184 49.5506 27.7184 49.5832 27.7184 49.6157C27.6533 51.0482 27.8485 52.4807 27.7835 53.9132C27.7184 55.3456 27.3605 56.8107 26.417 57.885C26.0266 58.3408 25.3108 58.6664 24.8879 58.2431C24.7252 58.0804 24.6927 57.8525 24.6601 57.6246C24.0745 54.2387 22.8382 51.3086 22.5128 47.76C22.4152 46.7833 22.7731 45.8392 23.5214 45.188C24.2046 44.5695 25.0831 43.9509 25.929 44.2439C26.8074 44.5695 28.0112 46.002 28.727 46.588" fill="#263238"/>
<path d="M25.9942 54.8575C25.8966 54.8249 22.513 54.1738 22.936 57.5596C23.3589 60.9129 26.6449 59.806 26.6449 59.7084C26.6775 59.6107 25.9942 54.8575 25.9942 54.8575Z" fill="#B78876"/>
<path d="M25.4739 58.5691C25.4739 58.5691 25.4088 58.6016 25.3438 58.6667C25.2461 58.7319 25.0835 58.7644 24.9208 58.7319C24.5629 58.6342 24.1725 58.1133 24.0749 57.5273C24.0424 57.2343 24.0424 56.9087 24.14 56.6808C24.205 56.4204 24.3352 56.225 24.5304 56.1599C24.6931 56.0948 24.8557 56.1925 24.8883 56.2901C24.9533 56.3878 24.9208 56.4529 24.9533 56.4529C24.9533 56.4529 25.0184 56.3878 24.9859 56.2576C24.9533 56.1925 24.9208 56.1274 24.8232 56.0622C24.7256 55.9971 24.5955 55.9971 24.4979 56.0297C24.2376 56.0948 24.0424 56.3552 23.9448 56.6157C23.8472 56.9087 23.8146 57.2343 23.8472 57.5924C23.9448 58.2761 24.4002 58.8621 24.8883 58.9272C25.1485 58.9598 25.3112 58.8621 25.4088 58.7644C25.4739 58.6342 25.4739 58.5691 25.4739 58.5691Z" fill="#7C5142"/>
<path d="M25.864 44.7974C24.888 43.5277 27.0027 41.379 28.5969 40.6628C30.2237 39.9791 32.4686 40.5651 34.1929 40.9558C35.2665 41.2162 36.3727 41.5744 37.4464 41.4441C38.1947 41.3465 38.8453 40.9883 39.5286 40.6953C40.2118 40.3698 40.895 40.0768 41.6433 40.0442C42.3916 40.0117 43.1725 40.3372 43.5303 40.9884C43.8882 41.6395 43.5629 42.6162 42.8471 42.7789C43.7255 42.1604 45.1571 42.7138 45.4173 43.7556C45.6776 44.7974 44.669 45.9369 43.5954 45.8067C44.0509 45.3835 44.8317 45.9369 44.8317 46.5229C44.8317 47.1415 44.3437 47.6298 43.7906 47.9229C42.4567 48.6717 40.7974 48.6391 39.2683 48.281C37.7717 47.9229 36.3402 47.3043 34.8436 46.9136C33.347 46.5229 30.8418 45.8067 29.4428 46.4578C28.4017 46.9462 27.7836 48.281 27.1654 48.0856C26.5473 47.8577 26.1243 47.3043 25.9616 46.6857C25.799 46.0997 25.8315 45.4486 25.864 44.7974Z" fill="#263238"/>
<path d="M26.0596 55.443C26.1572 57.2336 26.2548 59.0242 26.6777 60.7496C27.1007 62.4751 27.849 64.1681 29.0853 65.4703C30.712 67.1307 32.8593 68.726 35.1693 69.1166C37.6744 69.5399 40.7652 69.019 42.8149 67.4888C43.7909 66.7726 44.5067 65.2099 44.1814 64.0378C44.9947 63.6472 45.5803 62.8007 45.6454 61.8891C45.7105 60.9775 45.1574 59.8381 44.4091 59.7078C44.9622 59.6102 45.0923 58.7637 44.8971 58.2754C44.7019 57.7545 43.9862 57.6568 43.4331 57.7545C42.88 57.8521 42.4245 58.1777 41.969 58.5033C41.5135 58.8288 41.0906 59.1869 40.57 59.3497C38.8131 59.9032 37.0563 58.373 35.2343 58.4381C33.5751 58.5033 32.111 59.8706 30.4517 59.6427C29.5408 59.5125 28.7599 58.8939 28.2394 58.1126C27.7188 57.3312 27.9466 54.4663 27.7514 53.5547" fill="#263238"/>
<g opacity="0.6">
<g opacity="0.6">
<path opacity="0.6" d="M39.3332 63.1915C39.3332 63.224 39.1706 63.1263 38.9428 63.0612C38.6825 62.9961 38.3572 62.931 37.9668 62.9961C37.5764 63.0612 37.2836 63.224 37.0558 63.3868C36.8606 63.5496 36.7305 63.6472 36.7305 63.6472C36.7305 63.6472 36.7955 63.4845 36.9907 63.2891C37.186 63.0938 37.5113 62.8985 37.9342 62.8333C38.3572 62.7682 38.7151 62.8333 38.9754 62.931C39.2356 63.0612 39.3332 63.1915 39.3332 63.1915Z" fill="#455A64"/>
</g>
</g>
<path d="M35.7874 59.4477C35.9175 59.4151 35.9826 60.2616 36.7634 60.7825C37.5117 61.3034 38.3902 61.1081 38.4227 61.2383C38.4552 61.3034 38.2275 61.4011 37.8696 61.4662C37.5117 61.4987 36.9586 61.4336 36.5031 61.1406C36.0477 60.8151 35.8199 60.3593 35.7549 60.0337C35.6572 59.6756 35.7223 59.4477 35.7874 59.4477Z" fill="white"/>
<path d="M33.3145 68.5632C33.3145 68.5632 33.3795 68.5958 33.5422 68.6283C33.6723 68.6934 33.9001 68.7586 34.1604 68.8237C34.7134 68.9865 35.4943 69.1492 36.5028 69.1818C36.9909 69.2143 37.544 69.2143 38.1296 69.1492C38.7152 69.1167 39.3334 68.9865 39.9515 68.7911C40.5697 68.5958 41.2204 68.3028 41.8385 67.9446C42.4567 67.554 43.0098 67.0982 43.4653 66.4796C43.9858 65.7634 44.2461 64.8518 44.1159 64.0379V63.9728L44.181 63.9402C44.604 63.7774 44.9293 63.4519 45.1896 63.0938C45.3197 62.931 45.4173 62.7356 45.5149 62.5403C45.6125 62.345 45.6451 62.1496 45.6451 61.9543C45.7101 61.1404 45.3523 60.3916 44.8642 59.9683L44.8317 59.9358L44.8642 59.9032C45.1896 59.48 45.2221 58.9591 45.0595 58.5684C44.8968 58.1777 44.5714 57.9498 44.3112 57.8196C44.0183 57.722 43.7906 57.722 43.6279 57.722C43.4653 57.7545 43.4002 57.7545 43.4002 57.7545C43.4002 57.7545 43.4653 57.7219 43.6279 57.6894C43.7906 57.6568 44.0509 57.6568 44.3437 57.7545C44.6365 57.8522 44.9944 58.0801 45.1571 58.5033C45.3197 58.9265 45.3197 59.5126 44.9618 59.9683V59.8707C45.5149 60.3265 45.8728 61.0753 45.8077 61.9543C45.7752 62.1822 45.7427 62.3775 45.6451 62.6054C45.5475 62.8007 45.4499 62.9961 45.2872 63.1914C45.0269 63.5495 44.669 63.8751 44.2135 64.103L44.2461 64.0053C44.4088 64.8844 44.1159 65.8285 43.5954 66.5773C43.1399 67.2284 42.5543 67.7168 41.9361 68.1074C41.318 68.4981 40.6673 68.7911 40.0166 68.9865C39.3659 69.1818 38.7477 69.2795 38.1621 69.3446C37.5765 69.4097 37.0234 69.4097 36.5028 69.3446C35.4943 69.2795 34.6809 69.0841 34.1604 68.9213C33.9001 68.8237 33.6723 68.7586 33.5422 68.6934C33.3795 68.5958 33.3145 68.5632 33.3145 68.5632Z" fill="#455A64"/>
<path d="M18.5762 59.9688C18.5762 59.9688 18.5111 59.9688 18.4135 59.8712C18.3159 59.8061 18.1532 59.6758 18.0882 59.4479C17.9906 59.2201 17.958 58.927 18.0231 58.5689C18.0882 58.2108 18.3485 57.8852 18.6738 57.6248C18.9991 57.3643 19.4546 57.1364 19.9101 56.9737C20.3656 56.8109 20.8862 56.6481 21.3416 56.3551C21.7971 56.0621 22.1875 55.6063 22.4153 55.0854C22.6756 54.5319 22.7732 53.9134 22.8057 53.2948C22.8382 52.0251 22.5454 50.8205 22.5129 49.681C22.4478 48.5741 22.6756 47.4998 23.1961 46.8161C23.6841 46.0998 24.3674 45.7743 24.8228 45.7092C25.0506 45.644 25.2458 45.6766 25.3759 45.6766C25.5061 45.7092 25.5711 45.7092 25.5711 45.7092C25.5711 45.7417 25.3109 45.644 24.8554 45.7743C24.3999 45.8719 23.7817 46.1975 23.2937 46.8812C22.8057 47.5649 22.6105 48.5741 22.6756 49.681C22.7081 50.788 23.0009 51.9925 23.0009 53.2948C22.9684 53.9459 22.8708 54.597 22.6105 55.1505C22.3502 55.704 21.9598 56.1923 21.4718 56.4853C20.9838 56.7783 20.4632 56.9411 20.0077 57.1039C19.5522 57.2667 19.1293 57.462 18.8039 57.7225C18.4786 57.9829 18.2509 58.2759 18.1858 58.6015C18.1207 58.927 18.1532 59.2201 18.2183 59.4154C18.3159 59.8712 18.6087 59.9688 18.5762 59.9688Z" fill="#455A64"/>
<path d="M42.9772 42.7462C42.9772 42.7462 43.0098 42.7136 43.1399 42.6811C43.205 42.6485 43.2375 42.6485 43.3351 42.616C43.4002 42.5834 43.4978 42.5834 43.5954 42.5509C43.9858 42.4858 44.669 42.5834 45.2546 43.1369C45.6451 43.6252 45.8728 44.3415 45.7427 45.1554C45.6451 45.9693 45.157 46.7832 44.4087 47.3692C43.6604 47.9552 42.6519 48.2808 41.5782 48.3459C40.5046 48.411 39.3984 48.2482 38.2922 47.9878C36.4703 47.5645 34.8436 46.7832 33.5096 45.8716C32.8264 45.4484 32.2083 45.0251 31.5576 44.7321C30.9069 44.4391 30.2562 44.2764 29.6706 44.2438C28.4668 44.1787 27.5233 44.4717 26.9051 44.7647C26.287 45.0577 25.9941 45.2856 25.9941 45.2856C25.9941 45.2856 26.2544 45.0252 26.8726 44.6996C27.4907 44.4066 28.4342 44.0485 29.6706 44.1136C30.2887 44.1461 30.9394 44.2764 31.6226 44.6019C32.2733 44.8949 32.924 45.3182 33.6072 45.7414C34.9412 46.6204 36.5354 47.4018 38.3248 47.825C39.4309 48.0854 40.5046 48.2482 41.5457 48.1831C42.5868 48.118 43.5628 47.7924 44.2786 47.239C45.0269 46.6855 45.4824 45.9042 45.58 45.1228C45.6776 44.3415 45.4824 43.6578 45.1245 43.1694C44.6039 42.616 43.9533 42.5183 43.5303 42.5509C43.1724 42.6811 42.9772 42.7788 42.9772 42.7462Z" fill="#455A64"/>
<path d="M41.2527 39.8813C41.2527 39.8813 41.2852 40.1744 41.09 40.6301C40.9273 41.0859 40.4718 41.7045 39.691 42.1603C39.3006 42.3882 38.8451 42.551 38.3246 42.6486C37.804 42.7463 37.2509 42.7463 36.6653 42.6486C35.494 42.5184 34.2903 42.0626 33.0539 41.6394C31.7851 41.2487 30.5162 41.0208 29.4101 41.2487C28.3039 41.4766 27.4255 42.0952 26.8398 42.7463C26.2542 43.3974 25.9614 44.0486 25.7987 44.5044C25.6361 44.9601 25.6361 45.2206 25.6035 45.2206C25.6035 45.2206 25.6035 45.1555 25.6361 45.0253C25.6361 44.895 25.7011 44.6997 25.7662 44.4718C25.8963 44.016 26.1891 43.3323 26.7748 42.6812C27.3604 42.0301 28.2388 41.3464 29.4101 41.1185C30.5813 40.858 31.8827 41.0859 33.1516 41.5092C34.4204 41.8998 35.6242 42.3556 36.7629 42.5184C37.316 42.5835 37.8691 42.6161 38.3571 42.5184C38.8451 42.4533 39.3006 42.2905 39.691 42.0626C40.4393 41.6394 40.8948 41.0534 41.09 40.6301C41.2201 40.1744 41.2201 39.8813 41.2527 39.8813Z" fill="#455A64"/>
<path d="M69.9484 104.018C70.8594 104.148 71.6727 104.734 72.2258 105.483C72.7789 106.231 73.0717 107.143 73.2018 108.055C73.4947 109.813 73.0066 111.831 72.3559 113.524C70.534 112.678 69.5905 110.561 69.1676 109.487C68.5494 107.729 68.3867 104.18 69.9484 104.018Z" fill="#E8505B"/>
<path d="M75.0563 115.998C74.4707 115.119 74.5032 113.947 74.9913 113.035C75.4793 112.124 76.3903 111.473 77.3988 111.18C77.8543 111.05 78.4074 111.017 78.7978 111.277C79.1557 111.538 79.3184 112.026 79.2533 112.482C79.1882 112.938 78.9605 113.328 78.7002 113.687C77.7242 114.924 76.5855 115.933 75.0563 115.998Z" fill="#E8505B"/>
<path d="M74.601 121.631C74.601 121.631 74.5685 121.5 74.536 121.272C74.5034 121.044 74.4709 120.686 74.4709 120.263C74.4384 119.417 74.4058 118.18 74.6661 116.877C74.9589 115.575 75.5771 114.468 76.1952 113.85C76.4881 113.524 76.7809 113.329 77.0086 113.198C77.2038 113.068 77.3339 113.003 77.3339 113.036C77.3665 113.068 76.8785 113.329 76.2928 113.947C75.7072 114.566 75.1216 115.64 74.8613 116.91C74.5685 118.18 74.601 119.384 74.601 120.263C74.601 121.077 74.6336 121.631 74.601 121.631Z" fill="#263238"/>
<path d="M70.3711 106.72C70.3711 106.72 70.4687 106.915 70.5988 107.306C70.729 107.696 70.9242 108.217 71.1519 108.901C71.6074 110.268 72.193 112.157 72.7787 114.24C73.3643 116.356 73.8523 118.277 74.1777 119.645C74.3403 120.328 74.4705 120.914 74.5681 121.305C74.6657 121.696 74.6982 121.924 74.6657 121.924C74.6657 121.924 74.6006 121.728 74.4705 121.338C74.3729 120.914 74.2102 120.361 74.0475 119.71C73.6896 118.342 73.1691 116.422 72.5835 114.305C71.9978 112.189 71.4447 110.301 71.0218 108.934C70.8266 108.282 70.6639 107.729 70.5338 107.306C70.4362 106.915 70.3711 106.72 70.3711 106.72Z" fill="#263238"/>
<path d="M72.6487 117.691C71.7702 115.673 69.8507 114.175 67.7034 113.752C67.1503 113.654 66.4671 113.654 66.1743 114.142C65.8815 114.598 66.1418 115.249 66.4671 115.673C67.8336 117.561 70.4038 118.44 72.6487 117.821" fill="#E8505B"/>
<path d="M68.3213 115.347C68.3213 115.347 68.4514 115.347 68.6792 115.38C68.8093 115.38 68.9394 115.412 69.1021 115.477C69.2648 115.51 69.46 115.575 69.6552 115.64C70.0456 115.77 70.5011 115.966 70.9891 116.259C71.4446 116.552 71.9652 116.91 72.4207 117.366C72.8761 117.821 73.2666 118.31 73.5594 118.766C73.8522 119.221 74.0799 119.677 74.2101 120.068C74.3077 120.263 74.3402 120.459 74.4053 120.589C74.4703 120.752 74.5029 120.882 74.5029 121.012C74.5354 121.24 74.5679 121.37 74.5354 121.37C74.5029 121.37 74.4053 120.882 74.0799 120.133C73.9172 119.742 73.6895 119.319 73.3967 118.863C73.1039 118.407 72.7135 117.952 72.2905 117.528C71.835 117.105 71.3795 116.747 70.9241 116.454C70.4686 116.161 70.0131 115.966 69.6552 115.803C68.8093 115.445 68.3213 115.38 68.3213 115.347Z" fill="#263238"/>
</g>
<defs>
<clipPath id="clip0">
<rect width="148" height="122.021" fill="white" transform="translate(-0.000976562)"/>
</clipPath>
</defs>
</svg>
