<svg width="24" height="24" viewBox="0 0 24 24" fill="none" xmlns="http://www.w3.org/2000/svg">
<circle cx="12" cy="12" r="12" fill="#46A9D4"/>
<path d="M11.7734 11.0234C12.9766 11.0234 13.9219 11.3229 14.6094 11.9219C15.3021 12.5156 15.6484 13.3307 15.6484 14.3672C15.6484 15.5495 15.2708 16.4766 14.5156 17.1484C13.7656 17.8203 12.7292 18.1562 11.4062 18.1562C10.1198 18.1562 9.13802 17.9505 8.46094 17.5391V16.2891C8.82552 16.5234 9.27865 16.7083 9.82031 16.8438C10.362 16.974 10.8958 17.0391 11.4219 17.0391C12.3385 17.0391 13.0495 16.8229 13.5547 16.3906C14.0651 15.9583 14.3203 15.3333 14.3203 14.5156C14.3203 12.9219 13.3438 12.125 11.3906 12.125C10.8958 12.125 10.2344 12.2005 9.40625 12.3516L8.73438 11.9219L9.16406 6.57812H14.8438V7.77344H10.2734L9.98438 11.2031C10.5833 11.0833 11.1797 11.0234 11.7734 11.0234Z" fill="white"/>
</svg>
