<svg width="325" height="323" viewBox="0 0 325 323" fill="none" xmlns="http://www.w3.org/2000/svg">
<path d="M193.955 318.351C266.329 318.351 325 259.698 325 187.345C325 114.993 266.329 56.3392 193.955 56.3392C121.581 56.3392 62.9102 114.993 62.9102 187.345C62.9102 259.698 121.581 318.351 193.955 318.351Z" fill="#E0E0E0"/>
<path d="M201.832 184.615L190.034 227.758L146.944 169.586L157.086 322.139H218.606L236.544 323C236.544 323 233.884 298.959 232.792 285.39C232.116 274.572 230.283 263.858 227.323 253.431C218.125 223.46 201.832 184.615 201.832 184.615Z" fill="#FAFAFA"/>
<path d="M187.939 252.113C187.79 252.309 194.738 257.906 203.46 264.62C212.182 271.334 219.379 276.611 219.527 276.409C219.676 276.207 212.729 270.615 204.006 263.908C195.284 257.2 188.093 251.917 187.939 252.113Z" fill="#263238"/>
<path d="M115.113 291.706C115.267 291.706 115.41 290.103 116.152 287.628C117.097 284.402 118.705 281.408 120.872 278.837C123.039 276.267 125.719 274.176 128.74 272.699C131.055 271.547 132.629 271.138 132.593 270.989C131.158 271.093 129.758 271.478 128.473 272.123C125.269 273.495 122.431 275.596 120.185 278.259C117.938 280.922 116.346 284.074 115.534 287.462C115.119 288.835 114.976 290.277 115.113 291.706Z" fill="#263238"/>
<g opacity="0.2">
<path opacity="0.2" d="M116.977 149.932C117.944 160.596 119.983 171.136 123.063 181.392L130.74 179.142C129.283 181.486 128.327 184.105 127.933 186.836C127.538 189.567 127.714 192.349 128.448 195.009C129.95 200.313 132.185 205.381 135.087 210.069L173.189 278.498L134.778 191.311L135.775 175.195L128.383 173.61L116.977 149.932Z" fill="black"/>
</g>
<g opacity="0.2">
<path opacity="0.2" d="M132.124 269.671C127.434 269.395 122.792 270.749 118.986 273.504C115.18 276.258 112.444 280.243 111.241 284.784C110.872 285.842 110.851 286.99 111.182 288.06C111.367 288.585 111.747 289.02 112.243 289.274C112.739 289.527 113.313 289.582 113.848 289.426C114.573 288.972 115.105 288.266 115.338 287.443C117.033 283.636 119.478 280.21 122.527 277.369C125.577 274.529 129.168 272.332 133.086 270.911" fill="black"/>
</g>
<path d="M172.911 277.648C172.779 277.167 172.606 276.698 172.394 276.247L170.743 272.306L164.527 257.875C159.183 245.659 151.832 228.914 143.715 210.388C140.746 203.669 137.872 197.181 135.171 191.084L135.206 191.286C135.551 185.558 135.871 180.156 136.168 175.17V174.832L135.842 174.766L128.437 173.217L128.687 173.407L119.477 154.786L116.9 149.693L116.2 148.369C116.127 148.215 116.038 148.07 115.933 147.936C115.967 148.104 116.025 148.266 116.105 148.417L116.699 149.782L119.074 154.964L127.98 173.716L128.057 173.87L128.224 173.912L135.616 175.52L135.307 175.123L134.268 191.233V191.34L134.316 191.434L142.824 210.75L163.879 258.113C166.581 264.096 168.79 268.964 170.352 272.424L172.133 276.295C172.354 276.767 172.614 277.219 172.911 277.648Z" fill="#263238"/>
<path d="M85.9945 160.759C85.9648 160.919 87.6987 161.18 90.3113 162.148C97.1677 164.724 102.72 169.916 105.749 176.584C106.883 179.124 107.257 180.84 107.418 180.804C107.451 180.388 107.405 179.969 107.281 179.57C107.071 178.465 106.753 177.383 106.331 176.34C104.948 172.866 102.815 169.739 100.085 167.182C97.3554 164.625 94.0952 162.702 90.5368 161.548C89.4672 161.195 88.3654 160.949 87.2474 160.812C86.837 160.714 86.4117 160.696 85.9945 160.759Z" fill="#263238"/>
<path d="M279.011 122.388C275.983 116.814 277.325 94.2994 272.664 95.083C266.726 96.098 272.206 119.765 272.58 121.919C272.955 124.074 269.837 124.608 269.612 122.649C269.279 119.83 265.812 92.2931 259.957 93.8424C256.709 94.7031 258.176 100.627 258.176 100.627C258.176 100.627 263.211 127.339 260.42 127.932C257.629 128.526 255.498 113.182 254.251 107.584C253.063 102.242 249.566 99.9089 248.236 102.74C246.288 106.895 250.017 120.329 251.14 125.724C252.262 131.12 255.035 146.726 247.458 140.629C242.58 135.971 236.051 133.439 229.307 133.589C226.795 134.569 227.341 138.421 230.257 139.187C233.332 140.334 236.238 141.892 238.896 143.817C241.002 145.388 242.923 147.195 244.62 149.201C246.883 151.69 248.715 154.539 250.041 157.63C251.121 160.063 252.705 162.239 254.689 164.015C256.672 165.79 259.01 167.124 261.548 167.929L265.972 188.96L294.603 182.828L288.22 160.574C286.777 146.223 286.422 131.783 287.158 117.378C287.128 103.132 285.269 103.019 283.631 103.399C280.02 104.26 281.962 127.832 279.011 122.388Z" fill="#FFBE9D"/>
<path d="M279.812 141.52C278.504 142.024 277.232 142.619 276.006 143.301C273.098 145.093 270.835 147.765 269.546 150.929C269.161 151.901 268.872 152.909 268.685 153.938L268.59 154.425L268.181 154.187C265.885 152.84 263.378 151.892 260.764 151.386C258.811 151 257.6 150.964 257.605 150.863C258.679 150.703 259.771 150.729 260.836 150.94C263.542 151.317 266.151 152.212 268.519 153.576L268.014 153.825C268.53 150.792 269.935 147.98 272.052 145.747C273.134 144.597 274.388 143.622 275.769 142.856C276.688 142.345 277.664 141.946 278.678 141.668C279.045 141.555 279.429 141.505 279.812 141.52Z" fill="#E09074"/>
<path d="M283.623 161.541C279.486 164.352 274.607 165.871 269.604 165.904C269.604 165.697 272.87 165.311 276.73 164.124C280.589 162.936 283.522 161.357 283.623 161.541Z" fill="#E09074"/>
<path d="M179.953 140.825L201.827 184.614L190.029 227.751L158.618 194.563L127.653 137.055L179.953 140.825Z" fill="#FFBE9D"/>
<path d="M232.817 282.059C232.804 281.579 232.75 281.1 232.656 280.629L232.063 276.551C231.469 272.924 230.643 267.825 229.622 261.568C227.461 248.86 224.498 231.444 221.232 212.205C219.035 199.615 216.975 187.803 215.217 177.747V177.7V177.658L204.731 153.914L201.733 147.278L200.919 145.539C200.834 145.33 200.727 145.131 200.599 144.945C200.642 145.162 200.712 145.374 200.806 145.574L201.513 147.355L204.316 154.08L214.499 177.973L214.469 177.89C216.191 187.951 218.216 199.769 220.365 212.365L229.017 261.681C230.157 267.92 231.083 273.001 231.742 276.616L232.526 280.664C232.579 281.137 232.676 281.604 232.817 282.059Z" fill="#263238"/>
<path d="M292.388 276.961C292.507 276.878 291.2 274.972 289.312 271.731C286.9 267.502 284.816 263.095 283.078 258.548C281.346 253.995 279.916 249.333 278.797 244.592C277.936 240.948 277.532 238.656 277.395 238.656C277.342 239.203 277.37 239.756 277.479 240.295C277.585 241.345 277.817 242.853 278.173 244.699C279.121 249.521 280.48 254.254 282.235 258.844C283.981 263.441 286.168 267.858 288.766 272.034C289.776 273.625 290.654 274.877 291.307 275.702C291.96 276.527 292.346 277.026 292.388 276.961Z" fill="#263238"/>
<g opacity="0.2">
<path opacity="0.2" d="M290.043 274.461C290.323 274.521 290.585 274.644 290.81 274.82C291.035 274.995 291.218 275.22 291.344 275.476C291.471 275.733 291.537 276.014 291.539 276.3C291.541 276.586 291.478 276.868 291.355 277.126C291.062 277.632 290.619 278.035 290.087 278.278C289.555 278.522 288.961 278.594 288.386 278.486C287.239 278.248 286.187 277.676 285.364 276.842C282.833 274.28 281.013 271.103 280.086 267.623C277.867 259.171 276.905 250.439 277.229 241.707C279.679 253.084 283.981 263.981 289.966 273.963" fill="black"/>
</g>
<g opacity="0.2">
<path opacity="0.2" d="M252.279 278.522C257.306 270.104 259.504 260.297 258.549 250.54C257.623 237.255 251.156 225.104 246.335 212.686C249.114 225.745 250.693 238.704 253.211 251.27C253.211 251.27 251.869 269.927 251.833 278.207" fill="black"/>
</g>
<g opacity="0.2">
<path opacity="0.2" d="M230.838 270.194C229.849 250.285 227.771 230.445 224.616 210.763C221.066 190.688 214.303 171.316 204.588 153.392C207.094 161.269 214.807 177.813 214.807 177.813C214.807 177.813 225.958 236.578 230.791 266.133" fill="black"/>
</g>
<path d="M113.349 37.6942C111.195 33.3848 107.528 30.0198 103.049 28.2426C98.5705 26.4654 93.5935 26.4004 89.0697 28.0602C84.6255 29.9434 80.7757 32.9967 77.9305 36.8948C75.0852 40.7929 73.3512 45.3897 72.9132 50.1953C72.1699 54.9147 73.1499 59.7438 75.6742 63.8004C77.1884 65.785 79.0915 67.4402 81.267 68.6649C83.4425 69.8896 85.8449 70.6581 88.3275 70.9235C92.7572 71.5454 97.2725 70.9774 101.41 69.2778C105.547 67.5781 109.158 64.8081 111.87 61.2523C114.582 57.6964 116.299 53.483 116.844 49.0445C117.389 44.606 116.742 40.1025 114.97 35.9966" fill="#263238"/>
<path d="M76.5771 38.8819C76.7228 39.3132 76.9439 39.7152 77.2303 40.0691C77.9222 41.079 78.6989 42.0283 79.5519 42.9065C82.3866 45.8377 85.8766 48.0547 89.7349 49.3755C93.5933 50.6963 97.71 51.0833 101.747 50.5045C102.956 50.3356 104.148 50.0635 105.31 49.6912C105.752 49.593 106.173 49.4139 106.551 49.1629C106.503 49.0145 104.686 49.5903 101.664 49.8693C97.7323 50.2561 93.7636 49.7926 90.0271 48.5103C86.2906 47.228 82.874 45.1568 80.0092 42.4375C77.7885 40.3599 76.7078 38.7869 76.5771 38.8819Z" fill="#455A64"/>
<path d="M72.7349 49.0199C72.6993 49.0733 73.0496 49.3997 73.7265 49.9577C74.6742 50.7339 75.6654 51.4552 76.6954 52.1183C80.1383 54.3692 83.9605 55.9781 87.977 56.8671C90.1975 57.3171 92.4644 57.4964 94.7281 57.4013C96.573 57.3049 98.4013 57.0023 100.179 56.4991C101.376 56.1744 102.54 55.7412 103.658 55.2051C104.088 55.0448 104.489 54.8163 104.846 54.5284C104.775 54.3681 103.017 55.1813 100.03 55.8877C98.275 56.2861 96.4857 56.5166 94.6866 56.5763C92.4943 56.6175 90.304 56.4184 88.1551 55.9826C84.2454 55.1008 80.4959 53.6191 77.0398 51.5901C74.3856 50.0349 72.824 48.9071 72.7349 49.0199Z" fill="#455A64"/>
<path d="M206.744 64.2697C228.12 17.2631 177.269 -6.36797 149.523 1.48527C123.444 8.84583 112.323 21.8218 108.03 39.2557C103.352 56.7553 104.316 75.2842 110.785 92.2042C114.152 100.396 120.226 108.718 129.026 109.745" fill="#263238"/>
<path d="M181.205 180.447C181.573 157.985 181.835 127.136 181.846 127.267C181.846 127.267 201.156 124.062 205.158 98.8695C206.802 82.294 206.903 65.6019 205.461 49.0077C204.505 33.8948 194.494 15.3568 179.43 16.9536L132.403 28.8254C130.196 29.0584 128.157 30.1112 126.689 31.7755C125.221 33.4397 124.431 35.5941 124.476 37.8125L127.54 135.061" fill="#FFBE9D"/>
<path d="M193.924 66.9176C193.944 67.7549 193.635 68.5664 193.063 69.1788C192.492 69.7912 191.703 70.1557 190.866 70.1942C190.458 70.2324 190.046 70.1882 189.655 70.0643C189.265 69.9405 188.903 69.7396 188.591 69.4733C188.279 69.2071 188.024 68.881 187.841 68.5143C187.657 68.1477 187.549 67.7481 187.523 67.339C187.504 66.5027 187.812 65.6919 188.382 65.0797C188.952 64.4675 189.74 64.1024 190.575 64.0624C190.984 64.0242 191.396 64.0683 191.787 64.1921C192.178 64.3158 192.541 64.5167 192.853 64.7829C193.165 65.0491 193.421 65.3751 193.605 65.7417C193.789 66.1084 193.897 66.5083 193.924 66.9176Z" fill="#263238"/>
<path d="M159.075 66.9176C159.094 67.7549 158.785 68.5664 158.214 69.1788C157.642 69.7912 156.854 70.1557 156.017 70.1942C155.608 70.2324 155.197 70.1882 154.806 70.0643C154.415 69.9405 154.053 69.7396 153.741 69.4733C153.429 69.2071 153.174 68.881 152.991 68.5143C152.808 68.1477 152.7 67.7481 152.674 67.339C152.654 66.5027 152.962 65.6919 153.533 65.0797C154.103 64.4675 154.89 64.1024 155.726 64.0624C156.134 64.0242 156.546 64.0683 156.938 64.1921C157.329 64.3158 157.691 64.5167 158.003 64.7829C158.316 65.0491 158.571 65.3751 158.755 65.7417C158.939 66.1084 159.048 66.5083 159.075 66.9176Z" fill="#263238"/>
<path d="M179.934 84.7485C181.767 84.1763 183.664 83.8353 185.581 83.7334C186.466 83.6385 187.309 83.4663 187.457 82.8608C187.532 81.9424 187.325 81.0228 186.863 80.2253C186.032 78.0844 185.157 75.8327 184.239 73.4702C181.8 67.7443 179.828 61.8307 178.343 55.7871C181.23 61.3063 183.672 67.0467 185.646 72.9538C186.525 75.3282 187.364 77.5937 188.164 79.7504C188.723 80.8214 188.887 82.055 188.627 83.2348C188.498 83.5479 188.299 83.8275 188.046 84.0527C187.793 84.2779 187.492 84.4427 187.166 84.5348C186.675 84.6684 186.168 84.7383 185.658 84.7425C183.758 84.9906 181.834 84.9926 179.934 84.7485Z" fill="#263238"/>
<path d="M181.906 127.374C170.042 127.553 158.361 124.438 148.162 118.375C148.162 118.375 156.689 135.898 181.906 133.541V127.374Z" fill="#E09074"/>
<path d="M129.286 69.6116C128.918 69.4335 115.795 63.6342 115.629 78.7114C115.464 80.6002 115.775 82.5002 116.533 84.238C117.292 85.9757 118.474 87.4956 119.972 88.6588C121.47 89.8219 123.235 90.5911 125.107 90.8962C126.979 91.2013 128.897 91.0325 130.687 90.4052C130.729 89.9778 129.286 69.6116 129.286 69.6116Z" fill="#FFD2BE"/>
<path d="M126.145 84.6354C126.08 84.5879 125.884 84.8194 125.439 85.0153C124.809 85.271 124.104 85.271 123.474 85.0153C122.504 84.3875 121.719 83.5139 121.197 82.4836C120.676 81.4534 120.437 80.3032 120.505 79.1506C120.481 77.8584 120.745 76.5772 121.277 75.3991C121.424 74.929 121.683 74.5014 122.031 74.153C122.38 73.8046 122.807 73.5458 123.278 73.3987C123.58 73.3239 123.9 73.3563 124.181 73.4905C124.463 73.6247 124.689 73.8524 124.821 74.1347C125.017 74.5621 124.916 74.8589 125 74.8885C125.083 74.9182 125.326 74.6393 125.207 74.016C125.124 73.6391 124.915 73.3018 124.614 73.0603C124.201 72.7435 123.681 72.6007 123.165 72.6626C122.545 72.7797 121.965 73.0533 121.481 73.4575C120.997 73.8616 120.624 74.3829 120.398 74.9717C119.741 76.2714 119.412 77.7124 119.442 79.1684C119.359 80.506 119.672 81.8384 120.341 82.9996C121.01 84.1607 122.007 85.0992 123.206 85.698C123.611 85.82 124.038 85.8492 124.455 85.7834C124.872 85.7176 125.27 85.5585 125.617 85.318C126.092 85.0093 126.199 84.6711 126.145 84.6354Z" fill="#E09074"/>
<path d="M178.908 94.4356C178.46 95.743 177.828 96.98 177.032 98.1099C176.629 98.6716 176.112 99.1415 175.514 99.4884C174.916 99.8353 174.252 100.051 173.564 100.122C172.827 100.125 172.1 99.941 171.453 99.5882C170.805 99.2354 170.257 98.7249 169.859 98.104C169.078 96.8457 168.716 95.3722 168.826 93.8954C168.885 92.5657 169.497 90.9809 170.815 90.8265C171.37 90.8075 171.921 90.9279 172.418 91.1767L179.353 93.9903" fill="#E09074"/>
<path d="M176.135 100.177C174.884 100.253 173.63 100.098 172.436 99.7195C171.223 99.2447 170.228 98.3403 169.639 97.1788C169.307 96.4705 169.127 95.7001 169.111 94.9178C169.096 94.1355 169.246 93.3587 169.55 92.6379C169.705 92.2707 169.905 91.9239 170.144 91.605C170.423 91.3142 170.369 91.326 170.672 91.3735C170.975 91.421 171.408 91.6644 171.783 91.8068L172.923 92.2699C174.407 92.8634 175.749 93.3977 176.883 93.8191C178.076 94.3915 179.349 94.7759 180.659 94.9588C179.627 94.1317 178.468 93.4762 177.227 93.0177C176.135 92.4894 174.852 91.8781 173.368 91.237L172.246 90.7324C171.834 90.5346 171.412 90.3602 170.981 90.2101C170.642 90.1079 170.28 90.1183 169.948 90.2398C169.647 90.3683 169.385 90.5728 169.188 90.8333C168.868 91.2352 168.605 91.6785 168.404 92.1511C168.03 93.0342 167.856 93.9889 167.893 94.9471C167.929 95.9053 168.177 96.8436 168.618 97.6953C169.369 99.0729 170.635 100.097 172.139 100.545C173.111 100.855 174.15 100.894 175.143 100.657C175.838 100.479 176.165 100.242 176.135 100.177Z" fill="#263238"/>
<path d="M112.37 59.2889C113.913 59.1761 126.371 60.7907 125.391 83.9409C124.476 105.565 109.3 100.805 104.455 92.6667C99.8706 84.95 97.2225 60.3514 112.37 59.2889Z" fill="#455A64"/>
<path d="M104.668 62.0203C104.704 61.8245 104.722 61.6259 104.722 61.4268L104.799 59.646L104.983 53.0512C105.096 47.3646 105.256 39.4638 105.44 30.3462L105.155 30.6192H111.58L111.295 30.3284L111.146 35.7123C110.932 44.4025 110.731 52.4932 110.552 59.2661V59.4619L110.742 59.5095C113.374 60.1199 115.711 61.6241 117.357 63.7655C118.604 65.4312 119.503 67.3308 119.999 69.3512C120.342 70.6466 120.57 71.9694 120.682 73.3045C120.724 73.7675 120.747 74.1237 120.759 74.3612C120.756 74.4848 120.768 74.6084 120.795 74.7292C120.827 74.6092 120.841 74.4852 120.836 74.3612C120.836 74.1237 120.836 73.7676 120.836 73.2986C120.784 71.9462 120.599 70.6022 120.284 69.286C119.818 67.2097 118.934 65.2504 117.684 63.5281C116.002 61.282 113.589 59.6928 110.861 59.0346L111.051 59.278C111.247 52.5051 111.479 44.4381 111.728 35.73L111.871 30.3403V30.0435H111.574H105.149H104.876V30.3165C104.775 39.4401 104.692 47.3407 104.627 53.0274V59.6222V61.403C104.618 61.6097 104.632 61.8167 104.668 62.0203Z" fill="#455A64"/>
<path d="M112.371 30.346C117.035 20.556 124.776 12.561 134.411 7.58177C140.344 4.62077 146.579 2.30819 153.008 0.684195C144.845 -0.294368 136.577 1.22913 129.299 5.053C122.415 7.7249 116.296 12.0535 111.486 17.655C108.609 21.4584 106.461 25.7612 105.15 30.346H112.371Z" fill="#455A64"/>
<path d="M114.027 99.1322C114.179 99.1143 114.328 99.0701 114.466 99.0016C114.88 98.8421 115.278 98.6433 115.654 98.4079C117.001 97.5217 118.119 96.3272 118.913 94.9235C120.06 92.8293 120.744 90.5137 120.92 88.1328C121.17 85.2553 121.17 82.3616 120.92 79.4841C120.676 76.6063 120.195 73.7534 119.483 70.9542C118.98 68.6371 118.142 66.4056 116.995 64.3297C116.187 62.9336 115.062 61.7463 113.712 60.8632C113.336 60.6277 112.938 60.4289 112.524 60.2695C112.387 60.1999 112.238 60.1576 112.085 60.1449C112.085 60.1924 112.679 60.4061 113.558 61.0412C114.82 61.965 115.863 63.1545 116.615 64.5257C117.686 66.5858 118.469 68.7827 118.943 71.0551C119.617 73.8333 120.075 76.6593 120.315 79.5079C120.56 82.3514 120.572 85.2102 120.35 88.0556C120.206 90.3722 119.583 92.6338 118.521 94.698C117.781 96.0734 116.745 97.2675 115.487 98.1943C114.597 98.8828 114.003 99.0787 114.027 99.1322Z" fill="#263238"/>
<path d="M163.044 102.363L174.196 104.551C176.001 104.905 177.752 103.729 178.106 101.924L178.131 101.796C178.486 99.9913 177.309 98.2412 175.504 97.887L164.352 95.6991C162.547 95.3449 160.796 96.5208 160.442 98.3256L160.417 98.4537C160.063 100.258 161.239 102.009 163.044 102.363Z" fill="#455A64"/>
<path d="M162.02 97.3861L109.079 80.7655C108.45 80.5695 107.769 80.6298 107.184 80.9333C106.599 81.2368 106.158 81.7588 105.956 82.3859C105.853 82.7073 105.816 83.0463 105.848 83.3824C105.88 83.7184 105.979 84.0445 106.141 84.3409C106.303 84.6373 106.523 84.8978 106.788 85.1066C107.053 85.3155 107.358 85.4683 107.684 85.5558L161.818 100.176L162.02 97.3861Z" fill="#455A64"/>
<path d="M122.891 90.0904C122.325 89.8436 121.739 89.6451 121.14 89.4968L116.295 88.0247C114.264 87.3955 111.77 86.7306 109.134 85.8699C108.488 85.6382 107.897 85.2743 107.4 84.8015C106.923 84.3078 106.657 83.6478 106.658 82.9613C106.657 82.6261 106.762 82.2993 106.959 82.0274C107.155 81.7556 107.432 81.5527 107.75 81.4477C108.478 81.2624 109.243 81.285 109.959 81.513L125.837 86.6179L130.67 88.1137C131.249 88.3201 131.845 88.477 132.451 88.5826C131.893 88.3097 131.316 88.0795 130.723 87.8941L125.973 86.2261C121.924 84.8489 116.366 82.9495 110.113 80.9491C109.288 80.6928 108.407 80.6762 107.572 80.9015C107.145 81.0488 106.774 81.3248 106.51 81.6916C106.247 82.0583 106.103 82.4978 106.1 82.9494C106.1 83.7879 106.428 84.593 107.014 85.1932C107.57 85.7216 108.232 86.1262 108.956 86.3804C111.693 87.247 114.133 87.8466 116.194 88.4283L121.086 89.7223C121.677 89.8922 122.281 90.0152 122.891 90.0904Z" fill="#263238"/>
<path d="M150.673 59.5202C151.077 60.1613 154.705 58.1846 159.2 58.9919C163.695 59.7992 166.462 62.8205 167.061 62.3575C167.346 62.1617 167.061 61.0397 165.844 59.6804C164.203 57.9226 162.032 56.7492 159.662 56.3387C157.292 55.9283 154.853 56.3034 152.716 57.407C151.125 58.2855 150.471 59.2353 150.673 59.5202Z" fill="#E09074"/>
<path d="M151.184 60.0848C152.026 59.9382 152.855 59.7298 153.666 59.4615C155.626 59.0004 157.666 58.9907 159.63 59.4328C161.595 59.875 163.434 60.7576 165.007 62.014C166.23 62.9697 166.866 63.7235 166.978 63.6344C167.091 63.5454 166.598 62.6669 165.423 61.5331C163.859 60.0554 161.926 59.0263 159.827 58.5542C157.728 58.082 155.54 58.1842 153.494 58.8501C151.944 59.3724 151.131 59.9958 151.184 60.0848Z" fill="#263238"/>
<path d="M148.863 49.9645C149.231 51.1517 153.079 51.0804 157.657 51.3C162.235 51.5196 166.106 51.7928 166.563 50.6056C166.759 50.012 165.969 49.1453 164.402 48.3559C162.355 47.3959 160.131 46.8685 157.87 46.8066C155.602 46.6882 153.334 47.0481 151.214 47.8631C149.552 48.5398 148.703 49.3768 148.863 49.9645Z" fill="#263238"/>
<path d="M186.829 62.1807C187.179 62.3766 187.862 61.7296 188.949 60.9936C190.319 60.037 191.888 59.4037 193.539 59.1415C197.44 58.4945 200.575 60.3287 201.026 59.6698C201.234 59.3968 200.706 58.4827 199.322 57.6398C197.456 56.5378 195.265 56.1182 193.123 56.4526C190.945 56.7572 188.969 57.8905 187.607 59.6164C186.627 60.9698 186.532 62.0264 186.829 62.1807Z" fill="#E09074"/>
<path d="M186.407 64.0556C186.525 64.1328 187.107 63.2661 188.331 62.1858C189.902 60.7714 191.815 59.7915 193.881 59.3428C195.947 58.8941 198.094 58.9922 200.111 59.6274C201.673 60.1023 202.563 60.6424 202.64 60.5237C202.718 60.405 201.922 59.6927 200.325 59.0279C198.216 58.1674 195.897 57.9649 193.672 58.4469C191.446 58.929 189.418 60.0731 187.856 61.7287C186.71 62.999 186.318 64.0081 186.407 64.0556Z" fill="#263238"/>
<path d="M184.839 51.4713C185.065 52.7059 188.74 53.0621 193.105 53.1155C197.469 53.1689 201.15 52.8366 201.417 51.6019C201.685 50.3672 197.997 48.6339 193.158 48.6339C188.319 48.6339 184.608 50.2663 184.839 51.4713Z" fill="#263238"/>
<path d="M144.173 15.7795C147.102 19.7462 149.427 24.125 151.072 28.7732C151.88 31.1048 152.167 33.5854 151.911 36.0398C151.656 38.4942 150.865 40.8626 149.594 42.9779C146.51 46.5646 142.625 49.375 138.253 51.1814C136.075 52.0937 134.112 53.4518 132.491 55.1684C130.871 56.8849 129.627 58.9218 128.841 61.1479C128.521 62.5903 129.138 67.6121 128.052 68.6152C127.638 68.8963 127.172 69.0899 126.681 69.1842C126.19 69.2786 125.685 69.2716 125.197 69.1638C124.708 69.0559 124.247 68.8495 123.842 68.5572C123.436 68.2648 123.095 67.8927 122.838 67.4637C121.652 64.5276 121.014 61.3991 120.956 58.2332L120.689 39.4045C120.245 34.0932 121.031 28.7512 122.987 23.793C126.211 17.0914 132.885 14.9485 142.629 15.4233" fill="#263238"/>
<path d="M206.031 53.5314C205.291 47.1324 202.828 41.0539 198.906 35.9432C194.919 30.839 189.174 27.4006 182.791 26.2974C176.37 26.0345 169.94 26.4323 163.6 27.4845C160.418 27.9697 157.163 27.6066 154.166 26.432C151.169 25.2574 148.534 23.3128 146.529 20.7947C145.921 19.9972 145.574 19.0305 145.538 18.028C145.502 17.0255 145.778 16.0364 146.327 15.1971C146.866 14.6638 147.506 14.244 148.21 13.9625C156.73 9.82259 166.28 8.27853 175.672 9.52237C185.096 10.8286 193.684 15.63 199.731 22.9732C202.687 26.6502 204.771 30.9488 205.827 35.5463C206.884 40.1439 206.884 44.9209 205.829 49.5187" fill="#263238"/>
<path d="M209.867 44.0756C210.003 43.815 210.105 43.5377 210.17 43.2506C210.406 42.449 210.575 41.6288 210.674 40.799C211.062 37.7237 210.768 34.6007 209.813 31.6517C208.412 27.2502 205.786 23.3385 202.243 20.3735C197.879 16.7763 192.63 14.4166 187.042 13.5412C181.487 12.6988 175.82 12.955 170.363 14.295C167.993 14.8533 165.659 15.557 163.375 16.4023C161.219 17.1918 159.295 18.0644 157.437 18.5571C154.524 19.3536 151.491 19.623 148.483 19.3525C147.402 19.1271 146.395 18.633 145.556 17.916C145.709 18.1722 145.91 18.3959 146.149 18.5748C146.805 19.1249 147.583 19.5097 148.418 19.6968C151.487 20.1165 154.608 19.9371 157.609 19.1684C159.521 18.6995 161.487 17.8507 163.612 17.1028C165.879 16.3001 168.19 15.6321 170.536 15.1023C175.891 13.8347 181.44 13.607 186.882 14.4315C192.325 15.2731 197.447 17.5426 201.726 21.0086C205.188 23.8617 207.785 27.6236 209.226 31.8713C210.205 34.7312 210.587 37.7618 210.348 40.7752C210.14 42.9003 209.778 44.0519 209.867 44.0756Z" fill="#455A64"/>
<path d="M181.994 4.45852C181.486 4.2697 180.951 4.16541 180.409 4.14984C178.946 4.00393 177.472 4.00393 176.009 4.14984C171.123 4.6138 166.472 6.46772 162.608 9.49215C160.369 11.2729 158.51 13.1962 156.527 14.5377C154.762 15.7074 152.782 16.5144 150.702 16.9121C149.31 17.2378 147.875 17.3361 146.451 17.203C145.454 17.0783 144.943 16.8112 144.907 16.8825C145.323 17.2493 145.841 17.4812 146.392 17.5473C147.855 17.8306 149.358 17.8306 150.821 17.5473C153.016 17.2336 155.119 16.4566 156.99 15.2679C159.086 13.8967 160.992 11.9615 163.16 10.2401C166.909 7.31626 171.368 5.44168 176.08 4.80869C179.696 4.29226 181.982 4.63067 181.994 4.45852Z" fill="#455A64"/>
<path d="M105.725 50.7067C105.803 50.7423 106.07 50.1131 106.8 49.1396C107.876 47.8124 109.249 46.757 110.808 46.0588C113.123 45.0276 115.638 44.5247 118.171 44.5867C121.305 44.7568 124.419 45.1877 127.481 45.8749C130.613 46.5583 133.824 46.8 137.023 46.5931C139.636 46.3654 142.2 45.7472 144.629 44.7589C146.262 44.1049 147.816 43.2686 149.261 42.2658C149.814 41.9327 150.316 41.5207 150.751 41.043C148.709 42.2317 146.586 43.2751 144.398 44.1653C142.003 45.0445 139.496 45.584 136.952 45.768C133.828 45.9229 130.697 45.6614 127.641 44.9904C124.53 44.2932 121.363 43.8799 118.177 43.7557C115.528 43.7324 112.909 44.3258 110.529 45.489C108.915 46.2723 107.532 47.4606 106.515 48.9378C106.255 49.3424 106.037 49.7719 105.862 50.22C105.743 50.5286 105.696 50.6948 105.725 50.7067Z" fill="#455A64"/>
<path d="M108.456 38.6089C108.527 38.6446 108.789 38.0154 109.531 37.1012C110.617 35.8354 112 34.8586 113.556 34.258C115.882 33.4053 118.383 33.1402 120.836 33.4863C123.633 33.7593 126.643 34.6082 129.909 35.2136C133.003 35.9305 136.226 35.8816 139.296 35.0712C141.782 34.2977 144.03 32.9045 145.828 31.0228C147.04 29.7811 148.012 28.3261 148.696 26.7312C148.885 26.3014 149.038 25.8567 149.153 25.4015C149.236 25.0929 149.266 24.9267 149.236 24.9148C148.287 27.0112 146.981 28.9272 145.377 30.5776C143.604 32.3043 141.438 33.5736 139.065 34.2757C136.115 35.0026 133.034 35.0209 130.075 34.3292C126.875 33.7356 123.811 32.8986 120.919 32.6611C118.339 32.3401 115.719 32.6898 113.313 33.6762C111.693 34.3566 110.291 35.4672 109.258 36.8876C108.855 37.388 108.58 37.9787 108.456 38.6089Z" fill="#455A64"/>
<path d="M173.182 211.285C173.085 211.185 172.98 211.093 172.867 211.012C172.654 210.84 172.315 210.602 171.9 210.258C170.673 209.258 169.501 208.192 168.39 207.064C166.619 205.253 164.963 203.332 163.432 201.312C161.616 198.938 159.674 196.142 157.554 193.002C153.303 186.71 148.327 179.053 143.048 170.214C140.406 165.798 137.704 161.091 134.937 156.122L132.865 152.347C132.193 151.023 131.398 149.765 130.49 148.589C129.54 147.379 128.271 146.458 126.827 145.93C126.085 145.639 125.28 145.551 124.493 145.675C124.075 145.767 123.691 145.973 123.383 146.268C123.096 146.591 122.892 146.978 122.789 147.396V147.479V147.568C122.963 148.09 123.24 148.573 123.602 148.987C123.999 149.41 124.539 149.67 125.117 149.717C126.203 149.718 127.259 149.354 128.115 148.684C129.043 148.053 129.734 147.132 130.082 146.065C130.429 144.998 130.412 143.846 130.033 142.79C129.65 141.705 128.863 140.81 127.836 140.291C126.83 139.769 125.675 139.608 124.564 139.834C123.984 139.925 123.436 140.161 122.972 140.522C122.507 140.882 122.142 141.354 121.91 141.894C121.798 142.205 121.774 142.542 121.842 142.866C121.91 143.19 122.068 143.488 122.296 143.728C122.726 144.145 123.262 144.437 123.846 144.571C124.827 144.794 125.855 144.689 126.77 144.27C127.686 143.852 128.438 143.144 128.911 142.256C129.378 141.339 129.484 140.279 129.208 139.288C128.958 138.317 128.422 137.444 127.67 136.783C126.935 136.111 125.975 135.739 124.98 135.738C124.48 135.745 123.988 135.87 123.545 136.103C123.102 136.336 122.721 136.671 122.433 137.08C122.134 137.528 122.021 138.075 122.118 138.605C122.164 138.867 122.261 139.117 122.405 139.34C122.549 139.563 122.736 139.755 122.955 139.905C123.361 140.183 123.828 140.36 124.317 140.421C124.806 140.482 125.302 140.425 125.764 140.255C126.208 140.06 126.607 139.772 126.933 139.412C127.26 139.052 127.506 138.628 127.658 138.166C127.964 137.289 128.107 136.364 128.079 135.435C128.128 133.608 127.656 131.805 126.72 130.235C126.212 129.455 125.448 128.878 124.558 128.603C124.113 128.506 123.654 128.497 123.205 128.578C122.757 128.658 122.329 128.826 121.946 129.072C121.535 129.305 121.196 129.646 120.965 130.059C120.735 130.471 120.622 130.939 120.639 131.411C120.695 131.878 120.889 132.319 121.195 132.676C121.502 133.033 121.908 133.291 122.361 133.417C122.786 133.559 123.238 133.596 123.679 133.524C124.121 133.453 124.539 133.276 124.897 133.008C125.583 132.451 126.038 131.66 126.173 130.788C126.313 129.95 126.24 129.09 125.96 128.288C125.758 127.5 125.472 126.736 125.105 126.009C124.739 125.274 124.173 124.656 123.472 124.228C122.795 123.811 122.031 123.553 121.239 123.474C120.826 123.414 120.405 123.47 120.022 123.635C119.659 123.83 119.346 124.106 119.108 124.442C118.871 124.775 118.7 125.149 118.603 125.546C118.489 125.969 118.542 126.42 118.751 126.804C118.98 127.145 119.307 127.407 119.69 127.555C120.072 127.704 120.49 127.732 120.889 127.636C121.637 127.51 122.326 127.153 122.86 126.615C123.889 125.574 124.492 124.188 124.552 122.727C124.657 121.322 124.285 119.922 123.495 118.755C123.111 118.197 122.611 117.727 122.029 117.378C121.451 117.059 120.806 116.882 120.147 116.862C119.49 116.823 118.84 117.016 118.312 117.408C118.048 117.614 117.84 117.881 117.704 118.186C117.568 118.492 117.51 118.826 117.534 119.159C117.625 119.777 117.917 120.348 118.364 120.784C118.812 121.221 119.39 121.499 120.01 121.575C120.585 121.606 121.158 121.473 121.659 121.19C122.161 120.907 122.572 120.487 122.842 119.978C123.397 119.056 123.645 117.981 123.549 116.909C123.191 115.07 122.558 113.295 121.673 111.644L119.79 107.364L117.166 101.428L116.465 99.897C116.39 99.7222 116.304 99.5518 116.21 99.3865C116.21 99.3865 116.269 99.5705 116.412 99.9207L117.059 101.476L119.583 107.412L121.417 111.709C122.276 113.335 122.887 115.079 123.228 116.886C123.306 117.883 123.069 118.879 122.551 119.735C122.311 120.183 121.949 120.554 121.506 120.805C121.064 121.056 120.56 121.177 120.052 121.154C119.521 121.084 119.028 120.845 118.644 120.473C118.26 120.101 118.006 119.615 117.92 119.088C117.905 118.82 117.954 118.553 118.065 118.309C118.176 118.065 118.344 117.852 118.555 117.687C119.015 117.357 119.576 117.197 120.141 117.236C120.733 117.257 121.311 117.42 121.827 117.711C122.351 118.029 122.801 118.456 123.145 118.963C123.873 120.046 124.212 121.343 124.107 122.643C124.044 123.984 123.485 125.253 122.54 126.205C122.073 126.675 121.471 126.986 120.818 127.095C120.515 127.175 120.195 127.161 119.9 127.055C119.606 126.949 119.35 126.756 119.167 126.502C119.055 126.197 119.028 125.868 119.086 125.548C119.144 125.229 119.287 124.931 119.499 124.685C119.692 124.415 119.944 124.192 120.236 124.032C120.54 123.909 120.873 123.87 121.198 123.92C121.923 123.976 122.622 124.218 123.228 124.621C123.834 125.024 124.327 125.575 124.659 126.223C125.004 126.914 125.273 127.64 125.461 128.389C125.718 129.114 125.788 129.892 125.663 130.651C125.546 131.391 125.159 132.062 124.576 132.533C124.285 132.75 123.945 132.893 123.586 132.95C123.227 133.007 122.86 132.976 122.516 132.859C122.163 132.767 121.847 132.572 121.607 132.297C121.368 132.023 121.217 131.683 121.174 131.322C121.174 130.957 121.273 130.599 121.46 130.285C121.647 129.972 121.915 129.714 122.237 129.541C122.559 129.333 122.918 129.191 123.295 129.123C123.673 129.055 124.059 129.062 124.434 129.143C125.19 129.385 125.839 129.882 126.268 130.55C127.133 132.025 127.565 133.714 127.515 135.424C127.541 136.279 127.411 137.132 127.129 137.94C127.008 138.33 126.807 138.69 126.538 138.996C126.269 139.303 125.938 139.55 125.568 139.721C125.192 139.855 124.79 139.899 124.395 139.851C123.999 139.803 123.62 139.663 123.288 139.442C123.13 139.334 122.995 139.196 122.891 139.035C122.787 138.875 122.716 138.696 122.681 138.508C122.646 138.32 122.649 138.127 122.689 137.94C122.729 137.753 122.805 137.575 122.914 137.418C123.154 137.089 123.469 136.82 123.832 136.634C124.194 136.447 124.596 136.348 125.004 136.344C125.853 136.35 126.67 136.671 127.296 137.246C127.998 137.785 128.492 138.551 128.694 139.413C128.895 140.276 128.793 141.181 128.402 141.976C128.012 142.771 127.359 143.406 126.553 143.774C125.747 144.142 124.839 144.22 123.982 143.995C123.504 143.893 123.064 143.658 122.712 143.318C122.555 143.162 122.448 142.964 122.402 142.748C122.357 142.532 122.376 142.307 122.456 142.101C122.658 141.658 122.968 141.273 123.357 140.979C123.745 140.686 124.201 140.494 124.683 140.422C125.66 140.206 126.682 140.348 127.564 140.82C128.447 141.293 129.13 142.065 129.493 142.998C129.827 143.931 129.842 144.95 129.533 145.893C129.224 146.835 128.611 147.648 127.788 148.204C127.04 148.795 126.118 149.123 125.164 149.136C124.715 149.066 124.298 148.861 123.969 148.548C123.64 148.235 123.415 147.829 123.323 147.384V147.551C123.385 147.231 123.539 146.936 123.766 146.702C123.992 146.468 124.282 146.305 124.6 146.233C125.288 146.133 125.99 146.215 126.637 146.47C127.985 146.962 129.169 147.819 130.057 148.946C130.938 150.092 131.712 151.318 132.366 152.608L134.445 156.383C137.212 161.358 139.949 166.059 142.609 170.469C147.953 179.296 152.935 186.936 157.228 193.21C159.377 196.344 161.342 199.146 163.165 201.52C164.716 203.536 166.4 205.446 168.206 207.236C169.717 208.758 171.385 210.116 173.182 211.285Z" fill="#263238"/>
<path d="M34.83 98.7404C45.1789 104.364 53.4993 113.095 58.6164 123.701C47.1351 126.323 35.1201 125.274 24.2669 120.703C8.23511 112.987 -2.45277 101.809 0.486387 95.7427C3.42555 89.6762 18.7804 91.0237 34.83 98.7404Z" fill="#E0E0E0"/>
<path d="M77.6175 98.289C78.7872 105.503 77.419 112.9 73.746 119.219C67.6207 115.231 63.0674 109.245 60.8612 102.278C58.3733 91.8189 60.1012 82.452 64.7267 81.3479C69.3521 80.2438 75.1236 87.8358 77.6175 98.289Z" fill="#E0E0E0"/>
<path d="M41.4936 136.409C47.1274 132.295 54.0493 130.334 61.0048 130.883C60.5677 137.845 57.6502 144.419 52.7811 149.415C45.1215 156.057 36.3871 158.533 33.2698 154.941C30.1525 151.35 33.8339 143.052 41.4936 136.409Z" fill="#E0E0E0"/>
<mask id="mask0" mask-type="alpha" maskUnits="userSpaceOnUse" x="62" y="56" width="263" height="263">
<path d="M193.93 318.35C266.304 318.35 324.975 259.697 324.975 187.344C324.975 114.991 266.304 56.338 193.93 56.338C121.556 56.338 62.8848 114.991 62.8848 187.344C62.8848 259.697 121.556 318.35 193.93 318.35Z" fill="#E0E0E0"/>
</mask>
<g mask="url(#mask0)">
<path d="M201.808 184.614L190.01 227.757L146.92 169.585L157.062 322.138H218.582L236.52 322.999C236.52 322.999 233.86 298.958 232.767 285.389C232.092 274.571 230.258 263.857 227.299 253.43C218.101 223.459 201.808 184.614 201.808 184.614Z" fill="#FAFAFA"/>
<path d="M187.913 252.112C187.765 252.308 194.712 257.906 203.435 264.619C212.157 271.333 219.354 276.61 219.502 276.408C219.65 276.206 212.703 270.614 203.981 263.907C195.258 257.199 188.068 251.916 187.913 252.112Z" fill="#263238"/>
<path d="M80.8223 163.582L114.329 147.466L127.469 131.855L146.06 151.17L195.343 321.686H110.825L99.9891 292.434L80.8282 179.443L80.8223 163.582Z" fill="#E8505B"/>
<path d="M231.598 324.161L233.86 287.952L131.761 270.66C131.761 270.66 114.322 186.435 103.575 172.634C101.086 169.066 97.5556 166.353 93.4662 164.865C89.3767 163.378 84.9277 163.189 80.7268 164.324C80.7268 164.324 69.0769 172.302 71.8617 202.848C73.3224 218.875 79.1711 274.305 81.2968 294.345C81.8028 299.146 83.3925 303.769 85.946 307.867C88.8177 312.483 92.8191 316.291 97.5722 318.931C102.325 321.571 107.673 322.957 113.111 322.956L231.598 324.161Z" fill="#E8505B"/>
<path d="M115.088 291.705C115.243 291.705 115.385 290.102 116.127 287.627C117.073 284.401 118.68 281.407 120.848 278.836C123.015 276.266 125.695 274.175 128.715 272.698C131.031 271.546 132.605 271.137 132.569 270.988C131.134 271.092 129.734 271.477 128.448 272.122C125.245 273.494 122.407 275.595 120.16 278.258C117.914 280.922 116.321 284.073 115.51 287.461C115.095 288.834 114.952 290.276 115.088 291.705Z" fill="#263238"/>
<g opacity="0.2">
<path opacity="0.2" d="M116.953 149.931C117.921 160.595 119.96 171.135 123.039 181.391L130.717 179.141C129.259 181.485 128.304 184.104 127.909 186.835C127.515 189.566 127.69 192.349 128.425 195.008C129.927 200.312 132.161 205.381 135.063 210.068L173.165 278.497L134.754 191.31L135.752 175.194L128.359 173.609L116.953 149.931Z" fill="black"/>
</g>
<g opacity="0.2">
<path opacity="0.2" d="M132.1 269.67C127.409 269.394 122.768 270.748 118.962 273.503C115.156 276.257 112.42 280.242 111.217 284.783C110.848 285.841 110.827 286.989 111.157 288.059C111.343 288.584 111.723 289.019 112.219 289.273C112.714 289.526 113.289 289.581 113.823 289.425C114.549 288.971 115.08 288.265 115.314 287.442C117.008 283.635 119.453 280.209 122.503 277.368C125.552 274.528 129.143 272.331 133.062 270.91" fill="black"/>
</g>
<path d="M172.886 277.647C172.755 277.166 172.582 276.697 172.37 276.246L170.719 272.305L164.502 257.874C159.158 245.658 151.807 228.913 143.691 210.387C140.722 203.668 137.848 197.18 135.146 191.083L135.182 191.285C135.526 185.557 135.847 180.155 136.144 175.169V174.831L135.817 174.765L128.413 173.216L128.662 173.406L119.453 154.785L116.876 149.692L116.175 148.368C116.103 148.214 116.013 148.069 115.908 147.935C115.942 148.103 116 148.265 116.08 148.416L116.674 149.781L119.049 154.963L127.956 173.715L128.033 173.869L128.199 173.911L135.592 175.519L135.283 175.122L134.244 191.232V191.339L134.291 191.434L142.8 210.749L163.855 258.112C166.557 264.095 168.766 268.963 170.327 272.423L172.108 276.294C172.329 276.766 172.59 277.218 172.886 277.647Z" fill="#263238"/>
<path d="M231.669 322.968C231.72 322.774 231.748 322.575 231.752 322.374L231.907 320.593L232.405 313.791C232.797 307.819 233.361 299.278 234.062 288.759V288.468L233.777 288.415L159.912 274.857L132.682 269.918L133.026 270.239L118.123 213.658C116.252 206.677 114.756 201.091 113.705 197.191L112.488 192.793L112.149 191.659C112.12 191.529 112.074 191.403 112.013 191.285C112.02 191.42 112.042 191.553 112.078 191.683L112.339 192.828L113.42 197.268L117.576 213.794C121.216 227.928 126.305 247.688 132.171 270.459L132.237 270.726L132.51 270.773L159.74 275.742L233.64 289.062L233.373 288.723C232.779 299.254 232.334 307.796 232.008 313.773L231.687 320.588L231.622 322.368C231.621 322.569 231.636 322.77 231.669 322.968Z" fill="#263238"/>
<path d="M85.9701 160.758C85.9404 160.918 87.6743 161.179 90.2868 162.147C97.1433 164.723 102.696 169.915 105.725 176.583C106.859 179.123 107.233 180.839 107.393 180.803C107.427 180.387 107.38 179.968 107.257 179.569C107.047 178.464 106.728 177.382 106.307 176.339C104.923 172.865 102.791 169.738 100.061 167.181C97.331 164.624 94.0708 162.701 90.5124 161.547C89.4428 161.194 88.341 160.948 87.2229 160.811C86.8126 160.713 86.3873 160.695 85.9701 160.758Z" fill="#263238"/>
<path d="M278.986 122.387C275.957 116.814 277.299 94.2986 272.638 95.0821C266.701 96.0972 272.181 119.764 272.555 121.918C272.929 124.073 269.812 124.607 269.586 122.649C269.254 119.829 265.786 92.2922 259.932 93.8415C256.684 94.7022 258.15 100.626 258.15 100.626C258.15 100.626 263.185 127.338 260.395 127.932C257.604 128.525 255.472 113.181 254.225 107.583C253.038 102.241 249.541 99.908 248.211 102.739C246.263 106.895 249.992 120.328 251.114 125.723C252.236 131.119 255.009 146.725 247.433 140.629C242.554 135.97 236.026 133.438 229.281 133.589C226.77 134.568 227.316 138.42 230.231 139.186C233.307 140.333 236.213 141.891 238.871 143.816C240.977 145.388 242.897 147.194 244.594 149.2C246.857 151.689 248.69 154.538 250.016 157.629C251.095 160.062 252.679 162.238 254.663 164.014C256.647 165.789 258.985 167.123 261.523 167.928L265.946 188.959L294.578 182.827L288.195 160.573C286.752 146.222 286.397 131.782 287.132 117.377C287.103 103.131 285.244 103.018 283.605 103.398C279.995 104.259 281.937 127.831 278.986 122.387Z" fill="#FFBE9D"/>
<path d="M279.787 141.519C278.478 142.023 277.207 142.618 275.981 143.3C273.072 145.092 270.809 147.764 269.521 150.928C269.135 151.9 268.847 152.908 268.66 153.937L268.565 154.424L268.155 154.186C265.86 152.839 263.352 151.891 260.739 151.385C258.786 150.999 257.574 150.963 257.58 150.862C258.653 150.702 259.746 150.728 260.81 150.94C263.517 151.316 266.126 152.211 268.494 153.575L267.989 153.824C268.504 150.791 269.91 147.979 272.027 145.746C273.109 144.596 274.363 143.621 275.744 142.855C276.662 142.344 277.639 141.945 278.653 141.668C279.02 141.554 279.403 141.504 279.787 141.519Z" fill="#E09074"/>
<path d="M283.599 161.54C279.462 164.351 274.582 165.87 269.58 165.903C269.58 165.696 272.846 165.31 276.705 164.122C280.565 162.935 283.498 161.356 283.599 161.54Z" fill="#E09074"/>
<path d="M179.927 140.824L201.802 184.613L190.003 227.75L158.593 194.562L127.628 137.054L179.927 140.824Z" fill="#FFBE9D"/>
<path d="M200.525 144.932C200.525 144.932 231.621 155.985 231.621 158.039C237.113 162.348 255.402 206.547 261.221 214.911L277.846 239.409L263.898 184.97L294.59 175.942C294.59 175.942 320.799 239.266 323.988 253.352C325.911 261.683 325.739 270.361 323.489 278.61L323.323 278.461C321.347 284.757 317.295 290.197 311.828 293.895C298.812 302.205 286.664 303.808 274.23 294.619C267.176 289.413 259.13 283.139 251.762 277.268L249.826 322.975H232.886C232.886 320.405 233.396 289.087 233.396 289.087C231.194 281.674 229.478 274.125 228.26 266.488C226.723 255.709 201.469 184.952 201.469 184.952L181.875 147.218L181.424 133.25L200.525 144.932Z" fill="#E8505B"/>
<path d="M250.166 322.665C250.251 322.195 250.301 321.719 250.314 321.241L250.563 317.139C250.753 313.494 251.021 308.342 251.347 301.985C251.941 289.062 252.731 271.254 253.627 251.304V251.25V251.191L252.481 245.255C248.372 224.283 244.65 205.306 241.942 191.475C240.558 184.667 239.442 179.123 238.646 175.199L237.702 170.789L237.441 169.643C237.42 169.509 237.378 169.378 237.316 169.257C237.308 169.392 237.318 169.528 237.346 169.661L237.53 170.848L238.302 175.294C239.032 179.236 240.054 184.792 241.318 191.63L251.597 245.457L252.749 251.393V251.286C251.959 271.243 251.258 289.056 250.748 301.973C250.534 308.336 250.362 313.495 250.243 317.145L250.154 321.253C250.121 321.723 250.125 322.196 250.166 322.665Z" fill="#263238"/>
<path d="M232.791 282.058C232.778 281.578 232.724 281.099 232.631 280.628L232.037 276.55C231.443 272.923 230.618 267.824 229.597 261.567C227.435 248.859 224.473 231.443 221.207 212.204C219.01 199.614 216.949 187.802 215.192 177.746V177.699V177.657L204.706 153.913L201.707 147.277L200.894 145.538C200.809 145.329 200.701 145.13 200.573 144.944C200.617 145.161 200.687 145.373 200.781 145.573L201.488 147.354L204.29 154.08L214.473 177.972L214.444 177.889C216.166 187.95 218.19 199.768 220.34 212.364L228.991 261.68C230.131 267.919 231.057 273 231.717 276.615L232.5 280.663C232.554 281.136 232.651 281.603 232.791 282.058Z" fill="#263238"/>
<path d="M292.364 276.96C292.482 276.877 291.176 274.971 289.288 271.73C286.876 267.501 284.792 263.094 283.053 258.547C281.322 253.994 279.892 249.332 278.772 244.591C277.911 240.947 277.508 238.655 277.371 238.655C277.318 239.202 277.346 239.755 277.454 240.294C277.561 241.344 277.793 242.852 278.149 244.698C279.097 249.52 280.456 254.253 282.21 258.843C283.957 263.44 286.144 267.857 288.742 272.033C289.751 273.624 290.63 274.876 291.283 275.701C291.936 276.527 292.322 277.025 292.364 276.96Z" fill="#263238"/>
<g opacity="0.2">
<path opacity="0.2" d="M290.019 274.46C290.298 274.52 290.56 274.643 290.786 274.819C291.011 274.994 291.194 275.219 291.32 275.475C291.446 275.732 291.513 276.013 291.515 276.299C291.517 276.585 291.454 276.867 291.331 277.125C291.038 277.631 290.594 278.034 290.063 278.277C289.531 278.521 288.937 278.593 288.362 278.485C287.214 278.247 286.163 277.675 285.34 276.841C282.808 274.279 280.989 271.102 280.061 267.622C277.843 259.17 276.88 250.438 277.205 241.706C279.654 253.083 283.957 263.98 289.941 273.962" fill="black"/>
</g>
<g opacity="0.2">
<path opacity="0.2" d="M252.255 278.521C257.283 270.103 259.481 260.296 258.525 250.539C257.599 237.254 251.133 225.103 246.312 212.685C249.09 225.744 250.67 238.703 253.187 251.269C253.187 251.269 251.845 269.926 251.81 278.206" fill="black"/>
</g>
<g opacity="0.2">
<path opacity="0.2" d="M230.813 270.193C229.823 250.284 227.746 230.444 224.59 210.762C221.04 190.687 214.278 171.315 204.562 153.391C207.068 161.268 214.781 177.812 214.781 177.812C214.781 177.812 225.932 236.577 230.766 266.132" fill="black"/>
</g>
<path d="M276.041 306.562C278.505 306.722 280.292 306.853 280.292 306.853C280.292 306.853 282.923 307.203 283.558 311.602C283.956 314.332 278.808 314.944 278.808 314.944C278.808 314.944 278.535 315.056 278.125 315.098C277.228 315.193 275.548 315.246 273.547 315.246L273.654 315.626L274.978 315.721C274.978 315.721 277.602 316.077 278.244 320.47C278.452 321.924 277.098 322.773 275.78 323.254H275.696C274.968 323.508 274.216 323.691 273.452 323.8C273.416 323.859 273.173 323.907 272.763 323.954C267.832 324.225 262.887 324.092 257.978 323.557C251.447 323.669 245.509 323.764 245.094 323.764L230.528 323.824L233.313 292.957L237.541 291.532C237.541 291.532 255.585 282.824 259.261 283.537C264.023 284.882 268.697 286.522 273.256 288.446C276.496 291.253 279.135 294.685 281.017 298.537L276.035 306.461" fill="#FFBE9D"/>
<path d="M260.646 314.836C263.014 315.368 265.439 315.602 267.866 315.53C270.241 315.763 272.636 315.686 274.991 315.299C272.622 314.77 270.197 314.536 267.771 314.604C265.396 314.375 263.001 314.453 260.646 314.836Z" fill="#E09074"/>
<path d="M260.598 306.092C267.416 306.957 274.298 307.201 281.16 306.823C274.342 305.958 267.46 305.714 260.598 306.092Z" fill="#E09074"/>
<g opacity="0.78">
<path opacity="0.78" d="M261.333 297.213C264.723 297.797 268.159 298.075 271.599 298.044C277.276 298.246 275.791 298.406 275.803 298.151C275.815 297.896 277.311 297.314 271.647 297.112C268.213 296.836 264.761 296.87 261.333 297.213Z" fill="#E09074"/>
</g>
<path d="M270.298 289.14C265.24 289.461 268.565 289.194 269.022 289.176L262.918 289.378L255.027 289.663C253.936 289.77 252.837 289.758 251.749 289.627C252.805 289.327 253.894 289.157 254.991 289.122C257.01 288.921 259.801 288.725 262.894 288.618C266.647 288.553 266.255 288.493 268.28 288.553C270.304 288.612 270.298 289.039 270.298 289.14Z" fill="#E09074"/>
<path d="M113.324 37.6932C111.17 33.3838 107.503 30.0189 103.024 28.2416C98.5451 26.4644 93.5681 26.3994 89.0443 28.0592C84.6002 29.9424 80.7503 32.9957 77.9051 36.8938C75.0599 40.7919 73.3258 45.3887 72.8878 50.1943C72.1445 54.9137 73.1245 59.7428 75.6488 63.7994C77.163 65.784 79.0661 67.4392 81.2416 68.6639C83.4171 69.8886 85.8195 70.6571 88.3021 70.9226C92.7318 71.5444 97.2471 70.9764 101.385 69.2768C105.522 67.5772 109.132 64.8071 111.845 61.2513C114.557 57.6955 116.274 53.482 116.819 49.0435C117.363 44.605 116.717 40.1015 114.945 35.9956" fill="#263238"/>
<path d="M72.7115 49.0189C72.6758 49.0723 73.0262 49.3987 73.7031 49.9567C74.6507 50.7329 75.642 51.4543 76.6719 52.1174C80.1149 54.3682 83.9371 55.9771 87.9535 56.8661C90.1741 57.3161 92.4409 57.4954 94.7047 57.4003C96.5496 57.3039 98.3779 57.0013 100.155 56.4981C101.352 56.1734 102.517 55.7402 103.635 55.2041C104.065 55.0438 104.466 54.8153 104.823 54.5274C104.751 54.3671 102.994 55.1804 100.007 55.8867C98.2516 56.2851 96.4623 56.5156 94.6632 56.5753C92.4708 56.6165 90.2806 56.4174 88.1317 55.9817C84.222 55.0998 80.4725 53.6181 77.0163 51.5891C74.3622 50.0339 72.8005 48.9061 72.7115 49.0189Z" fill="#455A64"/>
<path d="M206.719 64.2687C228.094 17.2621 177.244 -6.36895 149.497 1.48429C123.419 8.84485 112.297 21.8208 108.005 39.2547C103.327 56.7543 104.291 75.2832 110.76 92.2032C114.126 100.395 120.201 108.717 129 109.744" fill="#263238"/>
<path d="M181.181 180.446C181.549 157.984 181.81 127.135 181.822 127.266C181.822 127.266 201.131 124.061 205.133 98.8685C206.777 82.293 206.878 65.6009 205.436 49.0067C204.48 33.8938 194.469 15.3558 179.405 16.9526L132.379 28.8244C130.172 29.0575 128.132 30.1103 126.664 31.7745C125.197 33.4387 124.407 35.5932 124.452 37.8115L127.516 135.06" fill="#FFBE9D"/>
<path d="M193.899 66.9164C193.918 67.7536 193.609 68.5652 193.038 69.1776C192.466 69.7899 191.678 70.1545 190.841 70.193C190.433 70.2312 190.021 70.187 189.63 70.0631C189.239 69.9393 188.877 69.7384 188.565 69.4721C188.254 69.2059 187.999 68.8797 187.815 68.5131C187.632 68.1465 187.524 67.7469 187.498 67.3378C187.478 66.5015 187.787 65.6907 188.357 65.0785C188.927 64.4663 189.714 64.1012 190.55 64.0612C190.959 64.023 191.37 64.0671 191.762 64.1909C192.153 64.3146 192.515 64.5155 192.828 64.7817C193.14 65.0479 193.395 65.3739 193.579 65.7405C193.763 66.1072 193.872 66.507 193.899 66.9164Z" fill="#263238"/>
<path d="M159.05 66.9164C159.07 67.7536 158.761 68.5652 158.189 69.1776C157.618 69.7899 156.829 70.1545 155.992 70.193C155.584 70.2312 155.172 70.187 154.781 70.0631C154.391 69.9393 154.029 69.7384 153.717 69.4721C153.405 69.2059 153.15 68.8797 152.967 68.5131C152.783 68.1465 152.675 67.7469 152.649 67.3378C152.63 66.5015 152.938 65.6907 153.508 65.0785C154.078 64.4663 154.866 64.1012 155.701 64.0612C156.11 64.023 156.522 64.0671 156.913 64.1909C157.304 64.3146 157.667 64.5155 157.979 64.7817C158.291 65.0479 158.547 65.3739 158.731 65.7405C158.915 66.1072 159.023 66.507 159.05 66.9164Z" fill="#263238"/>
<path d="M179.911 84.7476C181.743 84.1754 183.64 83.8344 185.557 83.7325C186.442 83.6375 187.285 83.4653 187.434 82.8599C187.509 81.9414 187.302 81.0219 186.84 80.2243C186.009 78.0834 185.134 75.8317 184.216 73.4692C181.777 67.7433 179.805 61.8297 178.319 55.7861C181.206 61.3053 183.648 67.0457 185.623 72.9529C186.502 75.3272 187.341 77.5927 188.14 79.7494C188.699 80.8204 188.863 82.0541 188.603 83.2339C188.474 83.5469 188.276 83.8266 188.023 84.0518C187.77 84.2769 187.469 84.4417 187.143 84.5338C186.651 84.6675 186.144 84.7373 185.635 84.7416C183.735 84.9896 181.811 84.9916 179.911 84.7476Z" fill="#263238"/>
<path d="M181.881 127.373C170.016 127.552 158.335 124.437 148.137 118.374C148.137 118.374 156.663 135.897 181.881 133.541V127.373Z" fill="#E09074"/>
<path d="M129.261 69.6106C128.893 69.4326 115.771 63.6332 115.605 78.7105C115.439 80.5992 115.75 82.4993 116.509 84.237C117.268 85.9747 118.45 87.4946 119.947 88.6578C121.445 89.8209 123.211 90.5902 125.083 90.8953C126.954 91.2004 128.873 91.0316 130.663 90.4043C130.704 89.9769 129.261 69.6106 129.261 69.6106Z" fill="#FFD2BE"/>
<path d="M126.121 84.6345C126.056 84.587 125.86 84.8184 125.415 85.0143C124.784 85.2701 124.079 85.2701 123.449 85.0143C122.48 84.3865 121.694 83.5129 121.173 82.4827C120.651 81.4524 120.412 80.3023 120.48 79.1496C120.457 77.8574 120.721 76.5762 121.252 75.3981C121.399 74.928 121.658 74.5004 122.007 74.152C122.355 73.8037 122.783 73.5449 123.253 73.3977C123.556 73.3229 123.875 73.3553 124.157 73.4895C124.438 73.6238 124.665 73.8514 124.797 74.1337C124.993 74.5611 124.892 74.8579 124.975 74.8876C125.058 74.9173 125.302 74.6383 125.183 74.0151C125.1 73.6381 124.89 73.3008 124.589 73.0593C124.177 72.7425 123.657 72.5997 123.14 72.6616C122.52 72.7787 121.941 73.0523 121.457 73.4565C120.972 73.8606 120.599 74.3819 120.373 74.9707C119.716 76.2704 119.388 77.7114 119.417 79.1674C119.334 80.505 119.647 81.8375 120.317 82.9986C120.986 84.1597 121.983 85.0982 123.182 85.697C123.586 85.819 124.013 85.8482 124.431 85.7824C124.848 85.7166 125.245 85.5576 125.593 85.317C126.068 85.0084 126.174 84.6701 126.121 84.6345Z" fill="#E09074"/>
<path d="M178.883 94.4344C178.434 95.7417 177.803 96.9788 177.006 98.1086C176.604 98.6704 176.087 99.1403 175.489 99.4872C174.891 99.8341 174.226 100.05 173.539 100.121C172.801 100.123 172.075 99.9398 171.427 99.587C170.78 99.2342 170.231 98.7237 169.834 98.1028C169.052 96.8445 168.691 95.371 168.8 93.8942C168.86 92.5645 169.471 90.9796 170.79 90.8253C171.345 90.8063 171.896 90.9267 172.393 91.1755L179.328 93.9891" fill="#E09074"/>
<path d="M176.109 100.176C174.859 100.252 173.605 100.097 172.41 99.7185C171.198 99.2437 170.202 98.3393 169.614 97.1779C169.281 96.4695 169.101 95.6992 169.086 94.9168C169.071 94.1345 169.22 93.3577 169.525 92.6369C169.68 92.2697 169.879 91.9229 170.118 91.6041C170.397 91.3132 170.344 91.3251 170.647 91.3725C170.95 91.42 171.383 91.6634 171.757 91.8059L172.897 92.2689C174.382 92.8625 175.724 93.3967 176.858 93.8182C178.05 94.3905 179.324 94.7749 180.634 94.9579C179.602 94.1307 178.443 93.4752 177.202 93.0168C176.11 92.4885 174.827 91.8771 173.343 91.236L172.22 90.7315C171.809 90.5336 171.387 90.3593 170.956 90.2091C170.617 90.1069 170.254 90.1173 169.922 90.2388C169.622 90.3673 169.36 90.5719 169.162 90.8324C168.843 91.2342 168.579 91.6775 168.379 92.1501C168.005 93.0332 167.83 93.9879 167.867 94.9461C167.904 95.9043 168.152 96.8426 168.592 97.6943C169.343 99.0719 170.609 100.096 172.113 100.544C173.086 100.854 174.125 100.893 175.118 100.656C175.813 100.478 176.139 100.241 176.109 100.176Z" fill="#263238"/>
<path d="M112.346 59.2879C113.89 59.1752 126.347 60.7897 125.367 83.9399C124.453 105.564 109.276 100.804 104.431 92.6657C99.8472 84.949 97.199 60.3505 112.346 59.2879Z" fill="#455A64"/>
<path d="M104.643 62.0193C104.679 61.8235 104.697 61.6249 104.696 61.4258L104.773 59.645L104.957 53.0502C105.07 47.3636 105.231 39.4628 105.415 30.3452L105.13 30.6183H111.554L111.269 30.3274L111.121 35.7113C110.907 44.4015 110.705 52.4922 110.527 59.2651V59.4609L110.717 59.5085C113.348 60.119 115.686 61.6232 117.332 63.7645C118.579 65.4302 119.477 67.3298 119.974 69.3502C120.316 70.6456 120.545 71.9684 120.657 73.3035C120.698 73.7665 120.722 74.1228 120.734 74.3602C120.731 74.4839 120.743 74.6074 120.77 74.7282C120.801 74.6082 120.815 74.4842 120.811 74.3602C120.811 74.1228 120.811 73.7666 120.811 73.2977C120.759 71.9452 120.574 70.6012 120.259 69.285C119.793 67.2087 118.908 65.2494 117.658 63.5271C115.977 61.281 113.564 59.6918 110.836 59.0336L111.026 59.277C111.222 52.5041 111.453 44.4371 111.703 35.7291L111.845 30.3393V30.0425H111.548H105.124H104.851V30.3156C104.75 39.4391 104.667 47.3398 104.601 53.0264V59.6213V61.4021C104.592 61.6087 104.606 61.8157 104.643 62.0193Z" fill="#455A64"/>
<path d="M114.002 99.1312C114.155 99.1133 114.304 99.0691 114.442 99.0006C114.855 98.8411 115.253 98.6423 115.629 98.4069C116.977 97.5207 118.095 96.3263 118.889 94.9225C120.036 92.8283 120.72 90.5127 120.896 88.1318C121.146 85.2544 121.146 82.3606 120.896 79.4832C120.651 76.6053 120.171 73.7524 119.459 70.9533C118.955 68.6361 118.117 66.4046 116.971 64.3288C116.162 62.9326 115.038 61.7453 113.687 60.8622C113.312 60.6267 112.914 60.4279 112.5 60.2686C112.363 60.199 112.214 60.1567 112.061 60.1439C112.061 60.1914 112.654 60.4051 113.533 61.0403C114.795 61.964 115.839 63.1535 116.591 64.5247C117.661 66.5848 118.444 68.7817 118.919 71.0542C119.592 73.8323 120.051 76.6583 120.29 79.5069C120.536 82.3504 120.548 85.2092 120.326 88.0547C120.181 90.3712 119.559 92.6328 118.497 94.697C117.757 96.0724 116.72 97.2665 115.463 98.1933C114.572 98.8819 113.978 99.0778 114.002 99.1312Z" fill="#263238"/>
<path d="M163.02 102.362L174.172 104.55C175.977 104.904 177.728 103.728 178.082 101.923L178.107 101.795C178.461 99.9903 177.285 98.2402 175.48 97.886L164.328 95.6981C162.523 95.344 160.772 96.5199 160.418 98.3246L160.392 98.4527C160.038 100.257 161.214 102.008 163.02 102.362Z" fill="#455A64"/>
<path d="M161.995 97.3851L109.054 80.7645C108.425 80.5685 107.744 80.6289 107.159 80.9323C106.574 81.2358 106.133 81.7578 105.931 82.385C105.828 82.7064 105.791 83.0454 105.823 83.3814C105.854 83.7174 105.954 84.0436 106.116 84.3399C106.277 84.6363 106.497 84.8968 106.762 85.1057C107.028 85.3145 107.333 85.4673 107.659 85.5548L161.793 100.175L161.995 97.3851Z" fill="#455A64"/>
<path d="M122.867 90.0894C122.301 89.8426 121.715 89.6441 121.115 89.4958L116.27 88.0237C114.24 87.3945 111.746 86.7297 109.109 85.8689C108.463 85.6372 107.873 85.2733 107.376 84.8005C106.898 84.3069 106.632 83.6468 106.633 82.9603C106.633 82.6251 106.738 82.2983 106.934 82.0265C107.13 81.7546 107.407 81.5518 107.726 81.4467C108.454 81.2614 109.219 81.2841 109.935 81.512L125.812 86.6169L130.645 88.1128C131.225 88.3192 131.821 88.476 132.427 88.5817C131.869 88.3087 131.291 88.0786 130.699 87.8931L125.949 86.2251C121.899 84.8479 116.341 82.9485 110.089 80.9481C109.264 80.6918 108.382 80.6753 107.548 80.9005C107.121 81.0478 106.75 81.3239 106.486 81.6906C106.222 82.0574 106.079 82.4968 106.075 82.9484C106.076 83.7869 106.404 84.592 106.99 85.1923C107.546 85.7206 108.207 86.1252 108.931 86.3794C111.669 87.2461 114.109 87.8456 116.169 88.4273L121.062 89.7214C121.653 89.8912 122.257 90.0143 122.867 90.0894Z" fill="#263238"/>
<path d="M150.649 59.5192C151.053 60.1603 154.681 58.1836 159.175 58.9909C163.67 59.7982 166.437 62.8196 167.037 62.3566C167.322 62.1607 167.037 61.0388 165.82 59.6794C164.178 57.9216 162.008 56.7482 159.638 56.3378C157.268 55.9273 154.828 56.3024 152.691 57.406C151.1 58.2845 150.447 59.2343 150.649 59.5192Z" fill="#E09074"/>
<path d="M151.16 60.0838C152.001 59.9372 152.831 59.7288 153.642 59.4605C155.602 58.9995 157.641 58.9897 159.606 59.4319C161.571 59.874 163.409 60.7566 164.983 62.013C166.206 62.9687 166.841 63.7225 166.954 63.6335C167.067 63.5444 166.574 62.6659 165.398 61.5321C163.835 60.0544 161.902 59.0254 159.802 58.5532C157.703 58.081 155.515 58.1833 153.469 58.8491C151.92 59.3715 151.106 59.9948 151.16 60.0838Z" fill="#263238"/>
<path d="M186.804 62.1798C187.154 62.3756 187.837 61.7286 188.924 60.9926C190.294 60.0361 191.863 59.4027 193.513 59.1405C197.414 58.4935 200.55 60.3277 201.001 59.6688C201.209 59.3958 200.68 58.4817 199.297 57.6388C197.43 56.5369 195.239 56.1172 193.098 56.4516C190.92 56.7562 188.944 57.8896 187.582 59.6154C186.602 60.9688 186.507 62.0254 186.804 62.1798Z" fill="#E09074"/>
<path d="M186.382 64.0546C186.501 64.1318 187.083 63.2651 188.306 62.1848C189.877 60.7704 191.79 59.7905 193.856 59.3418C195.923 58.8931 198.07 58.9912 200.086 59.6264C201.648 60.1013 202.539 60.6415 202.616 60.5227C202.693 60.404 201.898 59.6917 200.3 59.0269C198.192 58.1664 195.873 57.9639 193.647 58.4459C191.422 58.928 189.394 60.0721 187.831 61.7278C186.685 62.998 186.293 64.0071 186.382 64.0546Z" fill="#263238"/>
<path d="M144.148 15.7785C147.077 19.7453 149.403 24.1241 151.048 28.7722C151.856 31.1039 152.142 33.5844 151.887 36.0388C151.631 38.4932 150.84 40.8616 149.569 42.977C146.486 46.5637 142.6 49.374 138.228 51.1805C136.05 52.0928 134.088 53.4509 132.467 55.1674C130.846 56.8839 129.603 58.9208 128.817 61.1469C128.496 62.5893 129.114 67.6111 128.027 68.6143C127.614 68.8953 127.147 69.0889 126.656 69.1833C126.165 69.2776 125.66 69.2706 125.172 69.1628C124.684 69.055 124.223 68.8486 123.817 68.5562C123.412 68.2639 123.071 67.8917 122.814 67.4627C121.628 64.5267 120.99 61.3982 120.932 58.2323L120.665 39.4035C120.22 34.0923 121.007 28.7502 122.962 23.7921C126.187 17.0904 132.861 14.9475 142.604 15.4224" fill="#263238"/>
<path d="M173.159 211.284C173.062 211.184 172.957 211.092 172.844 211.01C172.63 210.838 172.292 210.601 171.876 210.257C170.649 209.257 169.478 208.191 168.367 207.063C166.595 205.251 164.94 203.33 163.409 201.311C161.592 198.937 159.65 196.141 157.531 193.001C153.279 186.709 148.303 179.051 143.025 170.213C140.383 165.796 137.681 161.089 134.914 156.121L132.842 152.346C132.17 151.021 131.374 149.763 130.467 148.588C129.517 147.378 128.248 146.457 126.803 145.929C126.062 145.638 125.256 145.55 124.47 145.674C124.052 145.766 123.668 145.971 123.359 146.267C123.073 146.59 122.869 146.977 122.766 147.395V147.478V147.567C122.94 148.089 123.216 148.572 123.579 148.986C123.975 149.409 124.515 149.669 125.093 149.716C126.18 149.716 127.236 149.353 128.092 148.683C129.019 148.052 129.711 147.131 130.058 146.064C130.405 144.997 130.388 143.845 130.009 142.789C129.627 141.704 128.84 140.809 127.812 140.29C126.806 139.768 125.652 139.607 124.541 139.833C123.96 139.924 123.412 140.16 122.948 140.52C122.484 140.881 122.119 141.353 121.887 141.892C121.774 142.204 121.751 142.54 121.819 142.864C121.887 143.188 122.044 143.487 122.273 143.727C122.702 144.144 123.238 144.436 123.822 144.57C124.804 144.793 125.831 144.688 126.747 144.269C127.662 143.851 128.414 143.143 128.887 142.255C129.355 141.337 129.461 140.278 129.184 139.287C128.935 138.316 128.399 137.443 127.646 136.782C126.911 136.11 125.952 135.737 124.956 135.737C124.456 135.744 123.964 135.869 123.522 136.102C123.079 136.335 122.698 136.67 122.409 137.078C122.11 137.527 121.998 138.074 122.095 138.604C122.14 138.866 122.238 139.115 122.382 139.339C122.525 139.562 122.712 139.754 122.932 139.904C123.338 140.182 123.805 140.359 124.294 140.42C124.782 140.481 125.278 140.424 125.74 140.254C126.185 140.058 126.583 139.771 126.91 139.411C127.236 139.051 127.483 138.626 127.634 138.165C127.941 137.288 128.084 136.362 128.056 135.434C128.104 133.607 127.633 131.804 126.696 130.234C126.189 129.454 125.424 128.877 124.535 128.602C124.09 128.505 123.63 128.496 123.182 128.577C122.734 128.657 122.306 128.825 121.922 129.071C121.511 129.304 121.172 129.645 120.942 130.058C120.712 130.47 120.599 130.938 120.616 131.41C120.672 131.877 120.865 132.317 121.172 132.675C121.478 133.032 121.884 133.29 122.338 133.416C122.762 133.558 123.214 133.594 123.656 133.523C124.098 133.452 124.515 133.274 124.873 133.006C125.559 132.45 126.014 131.659 126.15 130.786C126.29 129.949 126.216 129.089 125.936 128.287C125.735 127.499 125.448 126.734 125.081 126.008C124.716 125.272 124.15 124.655 123.448 124.227C122.771 123.809 122.008 123.552 121.216 123.473C120.803 123.413 120.382 123.468 119.999 123.634C119.636 123.829 119.323 124.105 119.084 124.441C118.847 124.774 118.676 125.148 118.579 125.545C118.466 125.968 118.519 126.418 118.728 126.803C118.957 127.144 119.284 127.406 119.666 127.554C120.048 127.703 120.467 127.731 120.865 127.634C121.613 127.509 122.303 127.152 122.837 126.613C123.865 125.573 124.469 124.187 124.529 122.725C124.634 121.32 124.262 119.921 123.472 118.754C123.087 118.196 122.587 117.726 122.005 117.377C121.428 117.058 120.783 116.881 120.123 116.861C119.466 116.822 118.817 117.015 118.288 117.407C118.025 117.612 117.816 117.88 117.681 118.185C117.545 118.49 117.487 118.825 117.511 119.158C117.602 119.776 117.894 120.347 118.341 120.783C118.788 121.22 119.366 121.497 119.987 121.574C120.562 121.605 121.134 121.472 121.636 121.189C122.138 120.906 122.548 120.485 122.819 119.977C123.374 119.055 123.621 117.98 123.525 116.908C123.167 115.069 122.535 113.294 121.649 111.643L119.767 107.363L117.142 101.427L116.442 99.8957C116.366 99.721 116.281 99.5506 116.187 99.3853C116.187 99.3853 116.246 99.5692 116.388 99.9195L117.036 101.475L119.559 107.411L121.394 111.708C122.253 113.333 122.863 115.078 123.205 116.884C123.283 117.882 123.046 118.878 122.528 119.734C122.288 120.182 121.925 120.553 121.483 120.804C121.041 121.055 120.536 121.176 120.028 121.152C119.498 121.083 119.004 120.844 118.62 120.472C118.236 120.1 117.983 119.614 117.897 119.087C117.881 118.819 117.931 118.552 118.042 118.308C118.152 118.064 118.321 117.85 118.532 117.686C118.992 117.356 119.552 117.196 120.117 117.235C120.709 117.256 121.287 117.419 121.804 117.709C122.328 118.027 122.777 118.455 123.122 118.962C123.85 120.045 124.189 121.342 124.084 122.642C124.021 123.983 123.462 125.252 122.516 126.204C122.05 126.674 121.447 126.985 120.794 127.094C120.491 127.174 120.171 127.159 119.877 127.053C119.582 126.947 119.326 126.755 119.144 126.501C119.032 126.196 119.004 125.867 119.063 125.547C119.121 125.228 119.264 124.93 119.476 124.684C119.669 124.414 119.921 124.19 120.212 124.031C120.517 123.907 120.849 123.868 121.174 123.918C121.9 123.975 122.599 124.216 123.205 124.62C123.811 125.023 124.303 125.574 124.636 126.222C124.981 126.913 125.249 127.639 125.437 128.388C125.695 129.113 125.764 129.891 125.639 130.65C125.523 131.39 125.136 132.061 124.553 132.532C124.261 132.749 123.922 132.892 123.563 132.949C123.204 133.005 122.837 132.974 122.492 132.858C122.14 132.766 121.823 132.57 121.584 132.296C121.345 132.022 121.194 131.682 121.15 131.321C121.15 130.955 121.249 130.597 121.436 130.284C121.623 129.97 121.892 129.713 122.213 129.54C122.535 129.332 122.895 129.19 123.272 129.122C123.649 129.054 124.036 129.061 124.41 129.142C125.167 129.383 125.816 129.881 126.245 130.549C127.11 132.024 127.542 133.713 127.492 135.422C127.518 136.278 127.387 137.131 127.106 137.939C126.985 138.329 126.783 138.688 126.514 138.995C126.245 139.302 125.915 139.549 125.544 139.72C125.169 139.854 124.767 139.898 124.371 139.85C123.975 139.801 123.596 139.661 123.264 139.441C123.107 139.333 122.972 139.194 122.868 139.034C122.764 138.874 122.692 138.694 122.657 138.506C122.623 138.318 122.625 138.125 122.665 137.938C122.705 137.751 122.782 137.574 122.89 137.417C123.131 137.088 123.445 136.819 123.808 136.633C124.171 136.446 124.572 136.347 124.98 136.342C125.83 136.349 126.646 136.67 127.272 137.245C127.975 137.784 128.469 138.55 128.67 139.412C128.872 140.275 128.769 141.18 128.379 141.975C127.989 142.77 127.335 143.405 126.529 143.773C125.724 144.141 124.816 144.219 123.959 143.994C123.48 143.892 123.04 143.657 122.688 143.317C122.532 143.161 122.424 142.963 122.379 142.747C122.334 142.531 122.352 142.306 122.433 142.1C122.635 141.657 122.944 141.271 123.333 140.978C123.722 140.685 124.178 140.493 124.66 140.42C125.637 140.205 126.659 140.347 127.541 140.819C128.423 141.292 129.107 142.064 129.469 142.997C129.804 143.93 129.818 144.949 129.51 145.891C129.201 146.834 128.587 147.647 127.765 148.202C127.017 148.794 126.094 149.122 125.141 149.134C124.692 149.065 124.275 148.86 123.946 148.547C123.617 148.234 123.391 147.828 123.3 147.383V147.549C123.362 147.23 123.516 146.935 123.742 146.701C123.969 146.467 124.259 146.304 124.576 146.232C125.264 146.132 125.967 146.213 126.613 146.469C127.961 146.96 129.145 147.818 130.033 148.944C130.915 150.091 131.688 151.317 132.343 152.607L134.421 156.382C137.188 161.356 139.925 166.058 142.586 170.468C147.929 179.295 152.911 186.934 157.204 193.209C159.354 196.343 161.319 199.145 163.142 201.519C164.692 203.535 166.377 205.445 168.183 207.235C169.693 208.757 171.361 210.114 173.159 211.284Z" fill="#263238"/>
<path d="M77.5921 98.2874C78.7618 105.502 77.3936 112.898 73.7206 119.218C67.5954 115.23 63.042 109.243 60.8358 102.276C58.348 91.8173 60.0758 82.4504 64.7013 81.3463C69.3268 80.2422 75.0982 87.8342 77.5921 98.2874Z" fill="#E0E0E0"/>
</g>
</svg>
