<svg width="187" height="136" viewBox="0 0 187 136" fill="none" xmlns="http://www.w3.org/2000/svg">
<path d="M8.99756 49.1103C9.1907 61.0186 13.6476 62.3078 19.1209 61.0658C25.3735 59.6469 30.5054 55.1998 33.0347 49.3159L34.7791 45.258C35.9388 42.5603 35.9778 39.513 34.8876 36.7866C33.7974 34.0601 31.6673 31.8778 28.9659 30.7197H28.9659C27.6283 30.1463 26.1907 29.8416 24.7352 29.823C23.2796 29.8044 21.8347 30.0723 20.4828 30.6113C19.131 31.1504 17.8987 31.9501 16.8563 32.9648C15.8139 33.9794 14.9819 35.1891 14.4077 36.5249C8.79455 38.7269 7.68596 43.2855 8.99756 49.1103Z" fill="#2F2E41"/>
<path d="M44.1912 25.1428L45.8711 22.304C46.0763 21.9573 46.2001 21.5688 46.2334 21.1675C46.2668 20.7662 46.2086 20.3626 46.0634 19.9869C45.9182 19.6113 45.6897 19.2733 45.3951 18.9985C45.1004 18.7236 44.7473 18.5189 44.3621 18.3998C43.9556 18.2741 43.5248 18.2472 43.1058 18.3214C42.6867 18.3956 42.2915 18.5688 41.953 18.8265C41.6146 19.0841 41.3427 19.4189 41.1601 19.8028C40.9774 20.1866 40.8893 20.6085 40.9031 21.0333L41.0018 24.0848L33.1069 45.691L37.4121 46.5886L44.1912 25.1428Z" fill="#9F616A"/>
<path d="M2.65621 78.4058L0.588444 80.9766C0.335941 81.2905 0.157905 81.6575 0.0676929 82.05C-0.022519 82.4424 -0.0225648 82.8502 0.0675585 83.2427C0.157682 83.6351 0.335635 84.0021 0.588066 84.3161C0.840498 84.6301 1.16085 84.8829 1.5251 85.0556C1.90956 85.2379 2.33208 85.3258 2.75744 85.312C3.18281 85.2981 3.5987 85.1829 3.97046 84.9761C4.34221 84.7692 4.65907 84.4765 4.89461 84.1225C5.13016 83.7686 5.27758 83.3635 5.32457 82.9411L5.6622 79.9067L16.5589 59.6441L12.4257 58.1432L2.65621 78.4058Z" fill="#9F616A"/>
<path d="M15.4326 99.7941L15.737 103.445L15.8084 104.297L36.0462 102.353C36.7438 102.275 37.413 102.033 37.9994 101.647C38.5858 101.262 39.0729 100.744 39.4211 100.135C39.7692 99.5265 39.9687 98.8443 40.0032 98.1441C40.0376 97.4439 39.9062 96.7454 39.6196 96.1055L33.0928 82.1131L30.8383 77.2801L21.0689 75.0287C13.0128 81.1862 20.261 87.9817 29.3804 94.856C29.7374 95.1262 30.0981 95.3963 30.4626 95.6665L15.4326 99.7941Z" fill="#2F2E41"/>
<path d="M8.61266 112.437C8.85924 112.472 9.11074 112.443 9.34304 112.354C9.57534 112.264 9.78065 112.116 9.93929 111.924L16.5592 103.922L16.1834 100.169L13.9262 98.8168C13.7416 98.7062 13.535 98.6371 13.3209 98.6142C13.1068 98.5913 12.8903 98.6152 12.6864 98.6844C12.4825 98.7535 12.2961 98.8661 12.1402 99.0144C11.9843 99.1627 11.8626 99.3431 11.7835 99.5431L7.46581 110.466C7.38517 110.67 7.35186 110.89 7.36837 111.109C7.38489 111.327 7.4508 111.539 7.56115 111.729C7.67151 111.919 7.82345 112.081 8.00557 112.203C8.18768 112.326 8.39524 112.406 8.61266 112.437Z" fill="#2F2E41"/>
<path opacity="0.2" d="M14.3057 99.0436L14.6814 103.546L15.7373 103.445L34.9192 101.603C35.6168 101.524 36.286 101.282 36.8724 100.897C37.4588 100.512 37.9459 99.9935 38.2941 99.3847C38.6423 98.776 38.8417 98.0938 38.8762 97.3936C38.9107 96.6934 38.7793 95.995 38.4926 95.355L33.0931 83.2838V82.1131L30.8386 77.2801L21.0691 75.0287C13.0131 81.1862 20.2613 87.9817 29.3807 94.856L29.3356 94.916L14.3057 99.0436Z" fill="black"/>
<path d="M6.73375 110.936C6.98033 110.971 7.23183 110.942 7.46413 110.853C7.69643 110.763 7.90173 110.615 8.06037 110.423L14.6802 102.421L14.3045 98.6684L12.0473 97.3159C11.8627 97.2053 11.6561 97.1361 11.442 97.1132C11.2279 97.0903 11.0114 97.1143 10.8075 97.1834C10.6036 97.2525 10.4172 97.3651 10.2613 97.5134C10.1054 97.6617 9.98365 97.8422 9.90459 98.0422L5.58691 108.965C5.50627 109.169 5.47296 109.389 5.48947 109.608C5.50598 109.826 5.57189 110.038 5.68225 110.228C5.79261 110.418 5.94454 110.58 6.12666 110.702C6.30877 110.825 6.51633 110.905 6.73375 110.936Z" fill="#2F2E41"/>
<path d="M13.5532 98.2931L13.929 102.796L34.1668 100.852C34.8643 100.773 35.5335 100.532 36.1199 100.146C36.7064 99.761 37.1935 99.243 37.5418 98.6343C37.8901 98.0257 38.0898 97.3436 38.1245 96.6435C38.1592 95.9434 38.0281 95.2449 37.7417 94.6049L32.3407 82.5334V75.7792L19.1895 73.5278C10.8164 79.9271 18.9746 87.0161 28.5832 94.1656L13.5532 98.2931Z" fill="#2F2E41"/>
<path d="M26.3291 45.3853C29.4419 45.3853 31.9653 42.8653 31.9653 39.7568C31.9653 36.6482 29.4419 34.1283 26.3291 34.1283C23.2163 34.1283 20.6929 36.6482 20.6929 39.7568C20.6929 42.8653 23.2163 45.3853 26.3291 45.3853Z" fill="#9F616A"/>
<path d="M18.8135 49.1376L26.7042 54.3909L33.4677 52.8899L29.7102 49.1376V43.5091L23.6982 43.1339C23.572 45.3815 22.2823 47.4383 18.8135 49.1376Z" fill="#9F616A"/>
<path d="M17.6877 75.4039L32.3419 77.2801L35.7237 61.5203C37.2947 57.337 36.3933 53.641 33.4846 50.3406C33.3734 49.7852 33.0771 49.2838 32.6439 48.9181C32.2108 48.5524 31.6664 48.3439 31.0994 48.3268L29.7117 48.3871C29.8687 53.3637 26.1971 52.1651 20.6937 48.0119L20.0292 48.211C19.1701 48.4684 18.4326 49.026 17.9515 49.7819C17.4704 50.5379 17.278 51.4415 17.4094 52.3275L18.0154 56.4121C18.2724 58.0314 18.6715 59.625 19.2082 61.1745C20.7106 65.6585 20.1738 70.4055 17.6877 75.4039Z" fill="#E20613"/>
<path d="M10.9233 58.5184L17.6868 60.7698L20.6928 49.888L19.6744 49.4258C18.8301 49.0425 17.8714 48.9944 16.9929 49.2912C16.1144 49.5879 15.3818 50.2074 14.9438 51.0238L10.9233 58.5184Z" fill="#E20613"/>
<path d="M30.8384 48.3872L34.596 52.5146L39.1048 45.3852L33.4685 42.3834L30.8384 48.3872Z" fill="#E20613"/>
<path d="M19.7539 38.0682C23.2957 39.4019 27.0755 39.2636 31.0264 38.0682V33.5654H19.7539V38.0682Z" fill="#2F2E41"/>
<path d="M180.539 114.363L176.653 115.98L150.749 80.7335L131.968 116.627L127.111 115.657L141.359 66.1824H157.873L180.539 114.363Z" fill="#2F2E41"/>
<path d="M185.752 122.585C185.536 122.644 185.311 122.66 185.09 122.631C184.868 122.603 184.655 122.531 184.461 122.419L176.267 117.708C176.046 117.581 175.857 117.404 175.715 117.193C175.573 116.981 175.481 116.739 175.448 116.486C175.414 116.234 175.44 115.977 175.522 115.735C175.604 115.494 175.74 115.275 175.921 115.095L176.653 114.363L180.539 114.04L186.479 119.734C186.695 119.942 186.852 120.202 186.934 120.49C187.016 120.777 187.021 121.082 186.947 121.371C186.873 121.661 186.723 121.926 186.513 122.14C186.303 122.353 186.041 122.507 185.752 122.585Z" fill="#2F2E41"/>
<path d="M122.222 123.879C122.438 123.938 122.663 123.953 122.884 123.925C123.105 123.896 123.319 123.824 123.513 123.713L131.707 119.001C131.928 118.874 132.117 118.698 132.259 118.486C132.401 118.274 132.493 118.033 132.526 117.78C132.559 117.527 132.534 117.27 132.452 117.029C132.37 116.788 132.234 116.568 132.053 116.388L131.321 115.657L127.435 115.333L121.495 121.028C121.279 121.235 121.122 121.496 121.04 121.783C120.957 122.071 120.953 122.375 121.027 122.665C121.101 122.955 121.25 123.22 121.46 123.433C121.67 123.646 121.933 123.8 122.222 123.879Z" fill="#2F2E41"/>
<path d="M130.35 14.768L128.731 15.7381L125.375 10.2935C125.169 9.95914 125.047 9.58017 125.018 9.18858C124.99 8.79699 125.056 8.40426 125.211 8.04352C125.366 7.68278 125.606 7.3646 125.91 7.11581C126.214 6.86703 126.574 6.69493 126.959 6.61405C127.301 6.54213 127.654 6.54409 127.995 6.61979C128.337 6.6955 128.658 6.8432 128.937 7.05299C129.217 7.26278 129.448 7.52982 129.616 7.83618C129.783 8.14254 129.883 8.48115 129.909 8.8293L130.35 14.768Z" fill="#FFB9B9"/>
<path d="M175.197 57.1568L175.869 55.3947L181.877 57.6018C182.246 57.7373 182.577 57.9595 182.842 58.2495C183.107 58.5396 183.298 58.8891 183.4 59.2684C183.501 59.6478 183.51 60.0459 183.425 60.4292C183.34 60.8126 183.164 61.1699 182.911 61.4711C182.687 61.7388 182.408 61.9556 182.093 62.1068C181.778 62.2581 181.434 62.3403 181.084 62.3479C180.735 62.3556 180.388 62.2886 180.066 62.1513C179.745 62.014 179.457 61.8097 179.221 61.552L175.197 57.1568Z" fill="#FFB9B9"/>
<path d="M149.777 34.1697C152.459 34.1697 154.634 31.9981 154.634 29.3193C154.634 26.6405 152.459 24.4689 149.777 24.4689C147.095 24.4689 144.92 26.6405 144.92 29.3193C144.92 31.9981 147.095 34.1697 149.777 34.1697Z" fill="#FFB9B9"/>
<path d="M153.986 39.6668H147.186V32.2295L153.014 31.5828L153.986 39.6668Z" fill="#FFB9B9"/>
<path d="M158.844 68.1225H140.387C141.038 57.8385 141.553 47.9002 140.387 42.2537L141.46 37.1094C141.609 36.3966 142.021 35.7658 142.614 35.3425C143.207 34.9191 143.938 34.7342 144.661 34.8245L147.187 35.1397C148.897 38.1422 150.964 38.1133 153.339 35.4631H156.381C156.786 35.4631 157.188 35.5439 157.562 35.7007C157.936 35.8575 158.274 36.0873 158.558 36.3765C158.842 36.6657 159.066 37.0085 159.215 37.3849C159.365 37.7613 159.438 38.1638 159.43 38.5687C160.222 42.192 160.486 45.9106 160.212 49.6092L158.844 68.1225Z" fill="#3F3D56"/>
<path d="M127.758 14.768L130.348 13.4746L144.272 36.4333L140.386 42.2536L127.758 14.768Z" fill="#3F3D56"/>
<path d="M175.234 58.0768L177.448 56.212L165.685 39.7514C164.534 38.141 162.948 36.8914 161.111 36.149C159.275 35.4065 157.265 35.202 155.316 35.5592L154.945 35.6273L159.393 43.4005L165.252 47.8299L175.234 58.0768Z" fill="#3F3D56"/>
<path d="M155.393 26.4559C155.393 26.4559 156.301 24.4619 153.941 23.5556C153.941 23.5556 151.944 20.2927 147.951 22.468C147.951 22.468 145.228 23.5556 145.228 26.4559C145.228 29.3562 144.32 29.9001 144.32 29.9001C144.32 29.9001 145.672 28.5154 146.035 27.4277C146.398 26.3401 149.221 26.0934 150.31 27.181C151.4 28.2686 154.122 28.0873 154.122 28.0873L153.941 32.0753C153.941 32.0753 154.848 29.7188 155.212 29.7188C155.575 29.7188 155.938 26.4559 155.393 26.4559Z" fill="#2F2E41"/>
<path d="M154.946 135C171.359 135 184.665 134.308 184.665 133.454C184.665 132.601 171.359 131.908 154.946 131.908C138.532 131.908 125.227 132.601 125.227 133.454C125.227 134.308 138.532 135 154.946 135Z" fill="#F1EFEF"/>
<path d="M21.5618 135.271C30.2375 135.271 37.2706 134.905 37.2706 134.454C37.2706 134.003 30.2375 133.637 21.5618 133.637C12.8861 133.637 5.85303 134.003 5.85303 134.454C5.85303 134.905 12.8861 135.271 21.5618 135.271Z" fill="#F1EFEF"/>
<path d="M108.337 13.1253C108.125 12.6182 107.769 12.185 107.315 11.879C106.861 11.5731 106.327 11.408 105.781 11.4041H54.7654C54.0321 11.4044 53.3289 11.6978 52.8104 12.2198C52.2919 12.7417 52.0004 13.4495 52 14.1876V79.1495C52.0004 79.8876 52.2919 80.5954 52.8104 81.1173C53.3289 81.6392 54.0321 81.9326 54.7654 81.933H105.783C106.516 81.9321 107.219 81.6385 107.737 81.1167C108.255 80.5949 108.547 79.8874 108.548 79.1495V14.1876C108.549 13.823 108.478 13.4618 108.339 13.1253H108.337ZM107.932 79.1495C107.931 79.7236 107.705 80.2739 107.301 80.6799C106.898 81.0858 106.351 81.3142 105.781 81.3149H54.7654C54.195 81.3148 53.6479 81.0867 53.2445 80.6807C52.841 80.2747 52.6143 79.7241 52.6141 79.1499V14.188C52.6149 13.6139 52.8418 13.0636 53.2451 12.6577C53.6484 12.2517 54.1951 12.0234 54.7654 12.0226H105.783C106.212 12.0242 106.632 12.1547 106.987 12.3973C107.343 12.6399 107.619 12.9837 107.78 13.3847C107.811 13.4646 107.838 13.5462 107.86 13.629C107.909 13.8113 107.934 13.9992 107.934 14.188L107.932 79.1495Z" fill="#3F3D56"/>
<path d="M97.6897 26.7413H82.3231C81.9971 26.7413 81.6844 26.611 81.4538 26.3789C81.2233 26.1468 81.0938 25.8321 81.0938 25.5039C81.0938 25.1757 81.2233 24.861 81.4538 24.6289C81.6844 24.3968 81.9971 24.2665 82.3231 24.2665H97.6897C98.0157 24.2665 98.3284 24.3968 98.559 24.6289C98.7895 24.861 98.9191 25.1757 98.9191 25.5039C98.9191 25.8321 98.7895 26.1468 98.559 26.3789C98.3284 26.611 98.0157 26.7413 97.6897 26.7413Z" fill="#3F3D56"/>
<path d="M97.6913 33.2375H82.3248C82.1632 33.2377 82.0031 33.2059 81.8538 33.1438C81.7045 33.0817 81.5687 32.9906 81.4544 32.8757C81.3401 32.7608 81.2494 32.6243 81.1875 32.474C81.1256 32.3238 81.0938 32.1628 81.0938 32.0001C81.0938 31.8375 81.1256 31.6764 81.1875 31.5262C81.2494 31.376 81.3401 31.2395 81.4544 31.1245C81.5687 31.0096 81.7045 30.9185 81.8538 30.8564C82.0031 30.7943 82.1632 30.7625 82.3248 30.7627H97.6913C97.8529 30.7625 98.013 30.7943 98.1623 30.8564C98.3116 30.9185 98.4474 31.0096 98.5617 31.1245C98.676 31.2395 98.7667 31.376 98.8286 31.5262C98.8905 31.6764 98.9223 31.8375 98.9223 32.0001C98.9223 32.1628 98.8905 32.3238 98.8286 32.474C98.7667 32.6243 98.676 32.7608 98.5617 32.8757C98.4474 32.9906 98.3116 33.0817 98.1623 33.1438C98.013 33.2059 97.8529 33.2377 97.6913 33.2375Z" fill="#3F3D56"/>
<path d="M74.4391 36.9365H63.2093C62.8426 36.9361 62.491 36.7893 62.2317 36.5283C61.9724 36.2673 61.8266 35.9134 61.8262 35.5443V22.2055C61.8266 21.8364 61.9724 21.4825 62.2317 21.2215C62.491 20.9605 62.8426 20.8137 63.2093 20.8134H74.4391C74.8058 20.8137 75.1573 20.9605 75.4166 21.2215C75.6759 21.4825 75.8218 21.8364 75.8222 22.2055V35.5443C75.8218 35.9134 75.6759 36.2673 75.4166 36.5283C75.1573 36.7893 74.8058 36.9361 74.4391 36.9365Z" fill="#E20613"/>
<path d="M97.5847 46.5394H62.8563C62.5303 46.5394 62.2176 46.409 61.987 46.177C61.7565 45.9449 61.627 45.6302 61.627 45.302C61.627 44.9738 61.7565 44.6591 61.987 44.427C62.2176 44.1949 62.5303 44.0646 62.8563 44.0646H97.5847C97.9107 44.0646 98.2234 44.1949 98.454 44.427C98.6845 44.6591 98.8141 44.9738 98.8141 45.302C98.8141 45.6302 98.6845 45.9449 98.454 46.177C98.2234 46.409 97.9107 46.5394 97.5847 46.5394Z" fill="#CCCCCC"/>
<path d="M97.5847 53.0355H62.8563C62.5303 53.0355 62.2176 52.9051 61.987 52.6731C61.7565 52.441 61.627 52.1263 61.627 51.7981C61.627 51.4699 61.7565 51.1552 61.987 50.9231C62.2176 50.691 62.5303 50.5607 62.8563 50.5607H97.5847C97.9107 50.5607 98.2234 50.691 98.454 50.9231C98.6845 51.1552 98.8141 51.4699 98.8141 51.7981C98.8141 52.1263 98.6845 52.441 98.454 52.6731C98.2234 52.9051 97.9107 53.0355 97.5847 53.0355Z" fill="#CCCCCC"/>
<path d="M97.585 59.5317H62.8566C62.5309 59.5313 62.2186 59.4007 61.9884 59.1687C61.7582 58.9367 61.6289 58.6222 61.6289 58.2943C61.6289 57.9664 61.7582 57.6519 61.9884 57.4199C62.2186 57.1879 62.5309 57.0573 62.8566 57.0569H97.585C97.7466 57.0567 97.9066 57.0885 98.056 57.1506C98.2053 57.2127 98.341 57.3038 98.4553 57.4187C98.5697 57.5337 98.6604 57.6701 98.7223 57.8204C98.7841 57.9706 98.816 58.1317 98.816 58.2943C98.816 58.4569 98.7841 58.618 98.7223 58.7682C98.6604 58.9185 98.5697 59.055 98.4553 59.1699C98.341 59.2848 98.2053 59.3759 98.056 59.438C97.9066 59.5001 97.7466 59.532 97.585 59.5317Z" fill="#CCCCCC"/>
<path d="M97.5847 66.028H62.8563C62.5303 66.028 62.2176 65.8976 61.987 65.6655C61.7565 65.4335 61.627 65.1187 61.627 64.7905C61.627 64.4623 61.7565 64.1476 61.987 63.9155C62.2176 63.6835 62.5303 63.5531 62.8563 63.5531H97.5847C97.9107 63.5531 98.2234 63.6835 98.454 63.9155C98.6845 64.1476 98.8141 64.4623 98.8141 64.7905C98.8141 65.1187 98.6845 65.4335 98.454 65.6655C98.2234 65.8976 97.9107 66.028 97.5847 66.028Z" fill="#CCCCCC"/>
<path d="M97.5847 72.5242H62.8563C62.5303 72.5242 62.2176 72.3938 61.987 72.1617C61.7565 71.9297 61.627 71.6149 61.627 71.2867C61.627 70.9586 61.7565 70.6438 61.987 70.4117C62.2176 70.1797 62.5303 70.0493 62.8563 70.0493H97.5847C97.9107 70.0493 98.2234 70.1797 98.454 70.4117C98.6845 70.6438 98.8141 70.9586 98.8141 71.2867C98.8141 71.6149 98.6845 71.9297 98.454 72.1617C98.2234 72.3938 97.9107 72.5242 97.5847 72.5242Z" fill="#CCCCCC"/>
<path d="M108.718 23.8838C115.27 23.8838 120.582 18.5372 120.582 11.9419C120.582 5.34656 115.27 0 108.718 0C102.165 0 96.8535 5.34656 96.8535 11.9419C96.8535 18.5372 102.165 23.8838 108.718 23.8838Z" fill="#E20613"/>
<path d="M107.543 16.4974C107.276 16.4979 107.016 16.411 106.802 16.2498L106.789 16.2398L104.001 14.0929C103.872 13.9933 103.763 13.869 103.682 13.7272C103.6 13.5854 103.548 13.4288 103.526 13.2664C103.505 13.1041 103.516 12.9391 103.558 12.7808C103.6 12.6226 103.672 12.4743 103.771 12.3443C103.87 12.2143 103.994 12.1052 104.135 12.0233C104.276 11.9413 104.431 11.8881 104.592 11.8667C104.754 11.8452 104.918 11.856 105.075 11.8983C105.232 11.9406 105.379 12.0137 105.509 12.1133L107.315 13.5073L111.582 7.90321C111.681 7.77328 111.805 7.66425 111.945 7.58233C112.086 7.50041 112.242 7.44721 112.403 7.42577C112.564 7.40434 112.728 7.41507 112.885 7.45738C113.042 7.49969 113.19 7.57273 113.319 7.67234L113.319 7.67261L113.293 7.70963L113.32 7.67261C113.58 7.87407 113.751 8.17128 113.794 8.49903C113.837 8.82679 113.749 9.15831 113.549 9.42084L108.529 16.0096C108.413 16.1614 108.264 16.2842 108.093 16.3686C107.922 16.4529 107.734 16.4965 107.544 16.4959L107.543 16.4974Z" fill="white"/>
</svg>
