<svg width="272" height="187" viewBox="0 0 272 187" fill="none" xmlns="http://www.w3.org/2000/svg">
<g clip-path="url(#clip0)">
<path d="M267.476 1.02441H4.28087C3.27838 1.02532 2.31722 1.42303 1.60836 2.1302C0.899504 2.83738 0.500881 3.79624 0.5 4.79632V182.716C0.500879 183.716 0.899504 184.675 1.60836 185.382C2.31722 186.089 3.27838 186.487 4.28087 186.488H267.476C268.023 186.488 268.563 186.37 269.059 186.141C269.556 185.913 269.996 185.579 270.351 185.164C270.381 185.132 270.409 185.097 270.433 185.061C270.659 184.785 270.842 184.478 270.975 184.148C271.166 183.694 271.263 183.208 271.261 182.716V4.79635C271.26 3.79556 270.861 2.83613 270.151 2.12887C269.441 1.42161 268.479 1.02436 267.476 1.02441ZM270.182 182.716C270.182 183.242 270.027 183.757 269.735 184.195C269.476 184.581 269.124 184.897 268.712 185.113C268.33 185.309 267.906 185.412 267.476 185.411H4.28087C3.5647 185.41 2.87811 185.126 2.3717 184.621C1.86529 184.116 1.58041 183.431 1.57954 182.716V4.79635C1.5804 4.0819 1.86529 3.39694 2.3717 2.89175C2.87811 2.38655 3.5647 2.10235 4.28087 2.10148H267.476C268.193 2.10139 268.881 2.38515 269.388 2.89043C269.895 3.39571 270.181 4.08119 270.182 4.79635V182.716Z" fill="#3F3D56"/>
<path d="M270.614 16.1416H0.933594V17.2199H270.614V16.1416Z" fill="#3F3D56"/>
<path d="M10.2265 12.3462C12.0174 12.3462 13.4692 10.8979 13.4692 9.11132C13.4692 7.32476 12.0174 5.87646 10.2265 5.87646C8.43567 5.87646 6.98389 7.32476 6.98389 9.11132C6.98389 10.8979 8.43567 12.3462 10.2265 12.3462Z" fill="#3F3D56"/>
<path d="M19.5488 12.3462C21.3397 12.3462 22.7915 10.8979 22.7915 9.11132C22.7915 7.32476 21.3397 5.87646 19.5488 5.87646C17.7579 5.87646 16.3062 7.32476 16.3062 9.11132C16.3062 10.8979 17.7579 12.3462 19.5488 12.3462Z" fill="#3F3D56"/>
<path d="M28.8716 12.3462C30.6624 12.3462 32.1142 10.8979 32.1142 9.11132C32.1142 7.32476 30.6624 5.87646 28.8716 5.87646C27.0807 5.87646 25.6289 7.32476 25.6289 9.11132C25.6289 10.8979 27.0807 12.3462 28.8716 12.3462Z" fill="#3F3D56"/>
<path d="M120.597 107.81C117.354 105.704 115.741 100.81 116.536 96.3335C117.33 91.8574 120.323 88.0021 123.91 86.3394C125.655 85.5548 127.568 85.2149 129.478 85.3503C131.387 85.4857 133.233 86.0921 134.849 87.1152C138.139 89.1219 142.791 90.2211 144.354 94.2361C145.554 97.3215 144.031 103.587 142.416 106.584C141.019 109.174 138.365 110.359 135.872 110.874C133.114 111.435 130.267 111.399 127.524 110.767C124.781 110.136 122.205 108.924 119.972 107.214L120.597 107.81Z" fill="#2F2E41"/>
<path d="M118.906 131.584L116.313 136.043L115.97 136.632L115.472 137.497H107.827L108.343 136.632L109.679 134.387L112.792 129.144L116.317 130.55L118.906 131.584Z" fill="#FFB8B8"/>
<path d="M107.255 137.496L105.859 136.631L105.686 136.523L114.449 120.592C114.825 119.902 115.336 119.294 115.95 118.802C116.564 118.311 117.269 117.946 118.026 117.728C118.981 117.444 119.992 117.407 120.966 117.62C121.534 117.74 122.08 117.944 122.587 118.226C122.796 118.34 122.997 118.467 123.19 118.606C123.931 119.125 124.54 119.809 124.968 120.605C125.477 121.536 125.729 122.586 125.697 123.646C125.665 124.707 125.35 125.74 124.786 126.639L121.408 132.024L118.52 136.631L117.978 137.496H107.255Z" fill="#2F2E41"/>
<path d="M129.769 113.464C135.651 113.464 140.419 108.707 140.419 102.84C140.419 96.9724 135.651 92.2158 129.769 92.2158C123.888 92.2158 119.12 96.9724 119.12 102.84C119.12 108.707 123.888 113.464 129.769 113.464Z" fill="#FFB8B8"/>
<path d="M140.46 137.497H116.521L116.63 137.189C116.569 137.003 116.513 136.817 116.461 136.631C116.404 136.437 116.356 136.238 116.313 136.043C115.924 134.232 115.926 132.36 116.317 130.55C117.64 124.07 122.917 118.806 122.917 118.806C123.008 118.737 123.099 118.672 123.19 118.607C123.975 118.033 124.827 117.557 125.727 117.188C129.646 115.566 133.757 116.219 136.519 117.058C137.481 117.348 138.421 117.705 139.333 118.127C139.654 118.278 139.827 118.373 139.827 118.373L140.1 126.683L140.43 136.631L140.46 137.497Z" fill="#E20613"/>
<path d="M151.534 136.631L149.704 127.348L147.857 117.988C147.78 117.601 147.588 117.247 147.306 116.971C147.023 116.696 146.664 116.512 146.275 116.444L142.407 115.778L138.808 115.159C138.461 115.097 138.103 115.13 137.774 115.256C137.445 115.382 137.156 115.595 136.939 115.873C136.669 116.209 136.52 116.627 136.519 117.058C136.519 117.324 136.573 117.588 136.679 117.832C138.557 122.201 138.591 129.118 138.114 136.631C138.093 136.917 138.075 137.206 138.054 137.496H151.708L151.534 136.631Z" fill="#2F2E41"/>
<path d="M125.726 117.187C125.647 116.873 125.49 116.583 125.27 116.343C125.05 116.104 124.774 115.923 124.466 115.817C124.159 115.71 123.83 115.682 123.508 115.734C123.187 115.786 122.884 115.917 122.626 116.115L120.965 117.62L114.166 123.797C113.955 123.987 113.788 124.222 113.681 124.485C112.913 126.314 111.417 129.926 109.679 134.386C109.397 135.113 109.106 135.861 108.807 136.631C108.703 136.916 108.59 137.206 108.478 137.496H119.682C119.773 137.206 119.864 136.916 119.955 136.631C120.454 135.061 120.939 133.521 121.408 132.024C122.778 127.677 124.013 123.728 124.967 120.605C125.232 119.74 125.473 118.941 125.692 118.208C125.793 117.877 125.805 117.525 125.726 117.187Z" fill="#2F2E41"/>
<path d="M154.049 137.496H154.773L154.673 137.254L154.409 136.631L150.329 126.972L149.704 127.348L144.692 130.372L147.263 136.631L147.619 137.496H151.708H154.049Z" fill="#FFB8B8"/>
<path d="M149.913 119.312C149.361 117.87 148.271 116.697 146.872 116.039C145.473 115.38 143.873 115.287 142.407 115.778C142.22 115.84 142.036 115.912 141.856 115.994C140.829 116.451 139.954 117.191 139.333 118.126C139.079 118.5 138.871 118.902 138.713 119.325C138.431 120.058 138.298 120.839 138.321 121.624C138.344 122.409 138.523 123.181 138.847 123.897L140.1 126.683L144.584 136.631L144.974 137.496H154.049L154.674 137.254L156.295 136.631L156.521 136.545L149.913 119.312Z" fill="#2F2E41"/>
<path d="M138.133 90.6382C138.505 90.7492 138.902 90.735 139.265 90.5979C139.627 90.4607 139.934 90.2082 140.138 89.8795C140.331 89.5445 140.444 89.1697 140.47 88.7841C140.495 88.3984 140.432 88.0121 140.284 87.6547C139.982 86.9413 139.506 86.3146 138.899 85.8317C138.209 85.2094 137.37 84.776 136.463 84.5736C136.01 84.4764 135.541 84.4774 135.088 84.5767C134.635 84.676 134.209 84.8713 133.839 85.1492C133.475 85.4364 133.205 85.8253 133.064 86.2663C132.923 86.7072 132.917 87.1802 133.047 87.6245C133.323 88.4223 134.07 88.9568 134.815 89.3548C136.295 90.143 137.927 90.6058 139.602 90.7122L138.133 90.6382Z" fill="#2F2E41"/>
<path d="M140.205 102.522C138.493 102.758 138.713 101.889 138.027 100.306C137.342 98.7232 136.424 96.8444 134.703 96.6841C133.293 96.5527 132.131 97.6775 130.988 98.5126C128.952 100.001 126.208 100.73 123.847 99.8368C121.487 98.9438 119.846 96.1373 120.742 93.7827C121.021 93.1325 121.43 92.5464 121.946 92.0606C122.461 91.5747 123.07 91.1996 123.737 90.9584C125.073 90.4843 126.493 90.2875 127.909 90.3802C131.058 90.4807 134.146 91.2693 136.956 92.6904C138.895 93.6734 140.783 95.0796 141.518 97.1216C142.254 99.1636 142.738 102.033 140.634 102.586L140.205 102.522Z" fill="#2F2E41"/>
<path d="M137.258 85.0215C136.412 83.552 137.111 81.5356 138.495 80.5537C139.88 79.5718 141.738 79.4754 143.39 79.8693C145.024 80.2799 146.521 81.112 147.731 82.282C148.941 83.4521 149.822 84.919 150.284 86.5355C150.985 89.1055 150.569 91.8657 151.162 94.4624C151.479 95.8467 152.076 97.1516 152.917 98.2969C153.759 99.4421 154.826 100.404 156.053 101.122C157.281 101.84 158.643 102.3 160.056 102.473C161.468 102.647 162.901 102.53 164.267 102.13C166.045 101.609 167.853 100.342 168.028 98.5009C168.212 100.615 167.729 102.734 166.646 104.56C165.563 106.387 163.935 107.83 161.989 108.687C159.697 109.641 157.141 109.703 154.659 109.639C153.041 109.598 151.387 109.501 149.895 108.877C148.862 108.407 147.934 107.736 147.165 106.904C146.395 106.072 145.8 105.095 145.414 104.03C144.654 101.89 144.449 99.5937 144.818 97.3536C145.062 95.6111 145.548 93.9032 145.683 92.1491C145.819 90.3949 145.562 88.5218 144.478 87.134C143.393 85.7462 141.323 85.0373 139.781 85.8926C139.162 86.2363 138.662 86.7978 137.989 87.0196C137.316 87.2414 136.362 86.8516 136.424 86.1472L137.258 85.0215Z" fill="#2F2E41"/>
<path d="M209.932 137.496L210.014 136.631L212.46 111.249C213.261 110.623 214.122 110.076 215.031 109.618C220.065 107.088 224.921 108.299 227.549 109.345C228.245 109.617 228.918 109.946 229.561 110.327L230.992 136.631L231.039 137.496H209.932Z" fill="#E20613"/>
<path d="M221.384 104.493C227.266 104.493 232.034 99.7367 232.034 93.8692C232.034 88.0017 227.266 83.2451 221.384 83.2451C215.502 83.2451 210.734 88.0017 210.734 93.8692C210.734 99.7367 215.502 104.493 221.384 104.493Z" fill="#FFB8B8"/>
<path d="M230.025 100.347C230.816 99.5146 231.342 98.4662 231.534 97.3351C231.727 96.204 231.578 95.0413 231.106 93.995C230.635 92.9486 229.862 92.0657 228.886 91.4588C227.91 90.8519 226.775 90.5483 225.626 90.5866C224.153 90.6357 222.765 91.2369 221.36 91.6781C219.23 92.401 216.958 92.6051 214.732 92.2735C212.494 91.9268 210.474 90.737 209.088 88.949C207.771 87.1424 207.36 84.6367 208.291 82.6046C209.365 80.2587 211.876 78.966 214.237 77.9157C215.189 77.4401 216.207 77.1067 217.256 76.9262C217.782 76.8391 218.32 76.8612 218.837 76.9912C219.353 77.1211 219.838 77.3561 220.259 77.6815C220.923 78.2508 221.312 79.1067 222.034 79.6001C222.847 80.1555 223.903 80.1409 224.883 80.2388C227.091 80.4594 229.18 81.3453 230.871 82.7789C232.562 84.2125 233.776 86.1257 234.35 88.2642C234.925 90.4026 234.833 92.6649 234.088 94.7501C233.342 96.8354 231.978 98.6447 230.176 99.9376L230.025 100.347Z" fill="#2F2E41"/>
<path d="M216.617 114.013L215.031 109.618L214.932 109.344C214.885 109.214 214.809 109.097 214.709 109C214.61 108.904 214.49 108.832 214.359 108.788C214.227 108.745 214.088 108.732 213.951 108.751C213.814 108.77 213.682 108.819 213.567 108.896L211.766 110.094C211.766 110.094 200.21 110.094 199.282 117.01C199.269 117.119 199.252 117.24 199.239 117.369C199.238 117.375 199.237 117.381 199.235 117.387C199.117 117.841 196.937 126.25 195.063 136.631C195.011 136.917 194.959 137.207 194.907 137.496H220.017V137.496C220.834 127.068 220.377 117.372 216.617 114.013Z" fill="#2F2E41"/>
<path d="M246.571 136.631C245.201 125.981 243.241 117.369 243.241 117.369C243.223 117.239 243.206 117.118 243.193 117.01C242.269 110.094 230.714 110.094 230.714 110.094L228.913 108.896C228.798 108.819 228.667 108.77 228.53 108.751C228.392 108.733 228.253 108.746 228.121 108.789C227.99 108.832 227.87 108.905 227.771 109.001C227.671 109.098 227.596 109.215 227.549 109.345L225.862 114.013C222.103 117.371 221.645 127.067 222.463 137.496L222.463 137.496H246.679C246.644 137.206 246.605 136.917 246.571 136.631Z" fill="#2F2E41"/>
<path d="M43.1774 112.382L40.6019 136.631L40.5108 137.496H33.543C33.6253 137.215 33.7077 136.925 33.7945 136.631C35.7717 129.866 38.4644 119.991 38.1737 117.374C37.7185 113.29 40.9055 111.928 40.9055 111.928L41.1049 111.967L43.1774 112.382Z" fill="#E20613"/>
<path d="M54.4148 104.897C60.2964 104.897 65.0645 100.141 65.0645 94.273C65.0645 88.4055 60.2964 83.6489 54.4148 83.6489C48.5332 83.6489 43.7651 88.4055 43.7651 94.273C43.7651 100.141 48.5332 104.897 54.4148 104.897Z" fill="#A0616A"/>
<path d="M68.2006 132.349C67.6636 133.337 67.2236 134.374 66.8869 135.446C66.7611 135.827 66.6398 136.225 66.527 136.631C66.4446 136.912 66.3709 137.202 66.2973 137.496H38.2085C38.2477 137.211 38.2822 136.921 38.3213 136.631C39.7566 125.32 40.9185 113.84 41.105 111.967C41.1224 111.79 41.1311 111.699 41.1311 111.699C57.9633 102.849 70.2473 114.424 70.2473 114.424C70.2473 114.424 70.2646 114.506 70.2907 114.666C70.5596 116.284 71.9296 125.731 68.2006 132.349Z" fill="#E20613"/>
<path d="M66.8867 135.446L65.0137 131.441L65.4689 115.557L70.2906 114.666L70.4597 114.636C72.9519 116.081 74.8805 118.325 75.9316 121.003C76.8682 123.339 78.6503 130.364 80.155 136.631C80.2244 136.921 80.2936 137.211 80.3631 137.496H67.845L67.4417 136.631L66.8867 135.446Z" fill="#E20613"/>
<path d="M84.0186 66.124H22.4387C21.1179 66.1256 19.8516 66.6497 18.9176 67.5815C17.9836 68.5132 17.4581 69.7764 17.4565 71.0941V132.526C17.4581 133.844 17.9836 135.107 18.9176 136.039C19.8516 136.97 21.1179 137.495 22.4387 137.496H84.0186C85.3396 137.495 86.6063 136.971 87.5404 136.039C88.4745 135.108 88.9997 133.844 89.0005 132.526V71.0941C88.9997 69.7762 88.4745 68.5126 87.5404 67.5807C86.6063 66.6488 85.3396 66.1249 84.0186 66.124ZM88.1333 132.526C88.1324 133.614 87.6986 134.658 86.9272 135.428C86.1557 136.197 85.1096 136.63 84.0186 136.631H22.4387C21.3479 136.629 20.3022 136.196 19.5308 135.427C18.7595 134.657 18.3254 133.614 18.3237 132.526V71.0941C18.3254 70.0059 18.7595 68.9627 19.5308 68.1933C20.3022 67.4238 21.3479 66.9908 22.4387 66.9891H84.0186C85.1096 66.9901 86.1557 67.4229 86.9272 68.1925C87.6986 68.9621 88.1324 70.0057 88.1333 71.0941V132.526ZM40.6021 136.631L40.511 137.496H66.2973C66.371 137.202 66.4446 136.912 66.527 136.631H40.6021Z" fill="#3F3D56"/>
<path d="M166.667 66.124H105.087C103.766 66.1256 102.5 66.6497 101.566 67.5815C100.632 68.5132 100.107 69.7764 100.105 71.0941V132.526C100.107 133.844 100.632 135.107 101.566 136.039C102.5 136.97 103.766 137.495 105.087 137.496H166.667C167.988 137.495 169.255 136.971 170.189 136.039C171.123 135.108 171.648 133.844 171.649 132.526V71.0941C171.648 69.7762 171.123 68.5126 170.189 67.5807C169.255 66.6488 167.988 66.1249 166.667 66.124ZM170.782 132.526C170.781 133.614 170.347 134.658 169.576 135.428C168.804 136.197 167.758 136.63 166.667 136.631H105.087C103.996 136.629 102.951 136.196 102.179 135.427C101.408 134.657 100.974 133.614 100.972 132.526V71.0941C100.974 70.0059 101.408 68.9627 102.179 68.1933C102.951 67.4238 103.996 66.9908 105.087 66.9891H166.667C167.758 66.9901 168.804 67.4229 169.576 68.1925C170.347 68.9621 170.781 70.0057 170.782 71.0941V132.526ZM116.46 136.631C116.513 136.817 116.569 137.003 116.63 137.189L116.521 137.496H138.054C138.075 137.206 138.093 136.916 138.114 136.631H116.46Z" fill="#3F3D56"/>
<path d="M249.32 66.124H187.74C186.419 66.1248 185.152 66.6487 184.218 67.5806C183.284 68.5125 182.759 69.7762 182.758 71.0941V132.526C182.759 133.844 183.284 135.108 184.218 136.039C185.152 136.971 186.419 137.495 187.74 137.496H249.32C250.641 137.494 251.907 136.97 252.841 136.039C253.775 135.107 254.3 133.844 254.302 132.526V71.0941C254.3 69.7765 253.775 68.5133 252.841 67.5815C251.907 66.6498 250.641 66.1256 249.32 66.124ZM253.435 132.526C253.433 133.614 252.999 134.657 252.228 135.427C251.456 136.196 250.411 136.629 249.32 136.631H187.74C186.649 136.63 185.603 136.197 184.831 135.428C184.06 134.658 183.626 133.614 183.625 132.526V71.0941C183.626 70.0057 184.06 68.9621 184.831 68.1924C185.603 67.4228 186.649 66.99 187.74 66.9891H249.32C250.411 66.9908 251.456 67.4238 252.228 68.1933C252.999 68.9628 253.433 70.0059 253.435 71.0941V132.526ZM220.082 136.631C220.061 136.916 220.039 137.206 220.017 137.496H238.701C238.736 137.211 238.775 136.921 238.809 136.631H220.082Z" fill="#3F3D56"/>
<path d="M207.423 162.585H64.335C63.415 162.585 62.5327 162.22 61.8822 161.571C61.2317 160.922 60.8662 160.042 60.8662 159.124C60.8662 158.206 61.2317 157.326 61.8822 156.677C62.5327 156.028 63.415 155.664 64.335 155.664H207.423C208.343 155.664 209.225 156.028 209.876 156.677C210.526 157.326 210.892 158.206 210.892 159.124C210.892 160.042 210.526 160.922 209.876 161.571C209.225 162.22 208.343 162.585 207.423 162.585Z" fill="#ED1D40"/>
<path d="M59.5087 103.529C59.8693 103.884 60.3461 104.097 60.8516 104.13C61.357 104.162 61.8572 104.011 62.2602 103.705C64.7702 101.849 66.9736 99.5388 68.2776 96.7208C69.7719 93.4917 69.9385 89.5293 68.137 86.4604C66.614 83.866 63.9248 82.1919 61.2446 80.8172C60.2039 80.2312 59.0829 79.8002 57.9172 79.5379C56.739 79.2786 55.506 79.477 54.4694 80.0928C53.9622 80.41 53.5627 80.8724 53.3229 81.4195C53.0831 81.9667 53.0141 82.5732 53.125 83.16C51.8376 81.6947 50.1886 80.5904 48.3416 79.9567C47.1785 79.5027 45.9049 79.4106 44.6883 79.6925C42.9875 80.1738 41.7458 81.6813 41.0667 83.3096C40.5174 84.5483 40.3278 85.9158 40.5193 87.2567C40.6201 87.9239 40.8601 88.5626 41.2239 89.1315C41.5877 89.7003 42.0671 90.1867 42.6312 90.5591C44.0374 91.427 45.8314 91.3645 47.4463 91.0099C49.0613 90.6553 50.6246 90.0385 52.2708 89.8826C53.917 89.7266 55.7501 90.1361 56.752 91.4485C57.4575 92.3727 57.6387 93.5803 57.7971 94.7312L58.6208 100.717C58.6882 101.583 58.9099 102.43 59.2755 103.219C59.3388 103.332 59.4173 103.437 59.5087 103.529Z" fill="#2F2E41"/>
<path fill-rule="evenodd" clip-rule="evenodd" d="M180.675 33.3438C175.383 33.3438 171.096 37.4317 171.096 42.4728C171.096 44.3078 171.665 46.0149 172.643 47.4466C172.598 47.2113 172.571 46.9661 172.571 46.7048V46.6581C172.571 45.9747 172.701 45.3798 172.962 44.8752C173.222 44.3693 173.586 43.9501 174.051 43.6165C174.516 43.2825 175.071 43.033 175.714 42.8698C176.36 42.7067 177.057 42.6246 177.807 42.6246C178.591 42.6246 179.254 42.6704 179.8 42.7642C180.347 42.8585 180.875 42.9823 181.379 43.1371V42.9047C181.379 42.0488 181.106 41.3975 180.559 40.946C180.012 40.4955 179.225 40.2695 178.199 40.2695C177.464 40.2695 176.81 40.3396 176.241 40.4792C175.67 40.6192 175.09 40.8059 174.503 41.0383L173.698 38.778C174.414 38.4659 175.148 38.2178 175.898 38.0306C176.648 37.844 177.553 37.7511 178.613 37.7511C180.537 37.7511 181.965 38.2056 182.895 39.1164C183.825 40.0248 184.287 41.304 184.287 42.9513V50.2493H181.354V48.7338C180.912 49.2324 180.35 49.6515 179.666 49.9929C178.98 50.3348 178.15 50.5063 177.17 50.5063C176.723 50.5063 176.293 50.4621 175.88 50.3771C177.29 51.1562 178.927 51.6044 180.675 51.6044C185.964 51.6044 190.251 47.5154 190.251 42.4728C190.251 37.4317 185.964 33.3438 180.675 33.3438Z" fill="#E20613"/>
<path fill-rule="evenodd" clip-rule="evenodd" d="M178.002 48.3844C178.493 48.3844 178.944 48.323 179.36 48.1987C179.775 48.074 180.139 47.8985 180.448 47.673C180.76 47.448 181 47.1764 181.17 46.8575C181.341 46.5401 181.427 46.1859 181.427 45.7968V45.0963C181.052 44.9582 180.609 44.8408 180.094 44.7474C179.58 44.6541 179.038 44.6079 178.467 44.6079C177.537 44.6079 176.81 44.7774 176.289 45.1203C175.767 45.4638 175.507 45.9285 175.507 46.5195V46.5671C175.507 47.1572 175.747 47.6077 176.227 47.9186C176.709 48.2302 177.301 48.3844 178.002 48.3844Z" fill="#E20613"/>
<path fill-rule="evenodd" clip-rule="evenodd" d="M93.8234 41.7787C93.8234 42.5127 93.7084 43.2014 93.4796 43.8455C93.2502 44.49 92.9327 45.0565 92.5265 45.5458C92.1199 46.0352 91.6286 46.4184 91.0524 46.6955C90.4761 46.9731 89.8483 47.111 89.1685 47.111C88.4737 47.111 87.8423 46.9685 87.2737 46.6832C86.7047 46.3982 86.2094 46.0106 85.7883 45.5213C85.3671 45.032 85.0419 44.4616 84.8131 43.8091C84.5837 43.1572 84.4697 42.4635 84.4697 41.73V41.681C84.4697 40.947 84.5837 40.2581 84.8131 39.6141C85.0419 38.97 85.36 38.4031 85.7661 37.9142C86.1728 37.425 86.6604 37.0417 87.229 36.7642C87.7979 36.4871 88.4293 36.3485 89.1247 36.3485C89.8035 36.3485 90.4318 36.4915 91.0086 36.7764C91.5848 37.0624 92.0833 37.449 92.5044 37.9383C92.9256 38.4276 93.2502 38.999 93.4796 39.6504C93.7084 40.3033 93.8234 40.996 93.8234 41.73V41.7787ZM96.4572 38.3922C96.0681 37.3699 95.5238 36.4802 94.8233 35.7227C94.1229 34.9656 93.292 34.3643 92.3297 33.9192C91.3673 33.4746 90.3138 33.252 89.1675 33.252C88.0216 33.252 86.964 33.4746 85.9949 33.9192C85.0259 34.3643 84.1909 34.9735 83.491 35.7462C82.7905 36.519 82.2421 37.417 81.8463 38.4394C81.4499 39.4623 81.252 40.5589 81.252 41.73V41.7767C81.252 42.948 81.4462 44.0449 81.8354 45.0673C82.2246 46.0902 82.7694 46.9799 83.4698 47.737C84.1698 48.4945 85.0012 49.0954 85.9635 49.5405C86.9253 49.9856 87.9794 50.2081 89.1252 50.2081C90.271 50.2081 91.3287 49.9856 92.2977 49.5405C93.2667 49.0954 94.1018 48.4867 94.8022 47.7133C95.5022 46.9411 96.0506 46.043 96.447 45.0201C96.8428 43.9978 97.0407 42.9008 97.0407 41.73V41.6829C97.0407 40.5122 96.8464 39.4156 96.4572 38.3922Z" fill="#E20613"/>
<path fill-rule="evenodd" clip-rule="evenodd" d="M108.467 44.2617C108.467 43.7233 108.379 43.2301 108.203 42.7816C108.026 42.3335 107.787 41.9502 107.485 41.6319C107.183 41.3136 106.834 41.0694 106.439 40.8979C106.044 40.727 105.621 40.641 105.167 40.641C104.714 40.641 104.29 40.727 103.895 40.8979C103.501 41.0694 103.156 41.3136 102.863 41.6319C102.569 41.9502 102.334 42.3335 102.158 42.7816C101.981 43.2301 101.893 43.7233 101.893 44.2617V44.3104C101.893 44.8488 101.981 45.3426 102.158 45.7906C102.334 46.2392 102.569 46.6224 102.863 46.9407C103.156 47.2586 103.501 47.5032 103.895 47.6747C104.29 47.8457 104.714 47.9312 105.167 47.9312C105.621 47.9312 106.044 47.8457 106.439 47.6747C106.834 47.5032 107.183 47.2586 107.485 46.9407C107.787 46.6224 108.026 46.2436 108.203 45.8029C108.379 45.3627 108.467 44.8651 108.467 44.3104V44.2617ZM110.702 46.7442C110.395 47.5052 109.991 48.1474 109.49 48.6716C108.988 49.1958 108.409 49.5912 107.751 49.8569C107.092 50.1228 106.404 50.2554 105.686 50.2554C104.773 50.2554 104.021 50.0801 103.43 49.7283C102.839 49.3765 102.342 48.9663 101.938 48.4971V54.2521H98.5264V38.1596H101.938V39.851C102.357 39.2939 102.862 38.836 103.453 38.4769C104.044 38.1178 104.788 37.9385 105.686 37.9385C106.389 37.9385 107.069 38.071 107.728 38.3369C108.386 38.6027 108.97 38.9982 109.478 39.5223C109.987 40.0465 110.395 40.6892 110.702 41.4497C111.008 42.2102 111.162 43.0857 111.162 44.0751V44.1187C111.162 45.1087 111.008 45.9836 110.702 46.7442Z" fill="#E20613"/>
<path fill-rule="evenodd" clip-rule="evenodd" d="M121.377 43.2954C121.331 42.8602 121.225 42.45 121.069 42.0678C120.913 41.684 120.699 41.3549 120.432 41.0763C120.163 40.7993 119.844 40.5782 119.475 40.4121C119.103 40.246 118.682 40.1645 118.21 40.1645C117.327 40.1645 116.598 40.4534 116.024 41.0316C115.45 41.6103 115.098 42.3645 114.971 43.2954H121.377ZM118.541 50.3474C117.642 50.3474 116.805 50.1951 116.024 49.8954C115.244 49.5951 114.567 49.1751 113.992 48.6348C113.416 48.0938 112.962 47.4454 112.632 46.6854C112.303 45.9272 112.136 45.0901 112.136 44.1734V44.1291C112.136 43.2724 112.285 42.4701 112.584 41.7184C112.885 40.9668 113.306 40.3109 113.849 39.747C114.394 39.1834 115.035 38.7408 115.775 38.418C116.516 38.0947 117.336 37.9326 118.233 37.9326C119.227 37.9326 120.098 38.1074 120.846 38.4519C121.595 38.7983 122.216 39.263 122.71 39.8491C123.208 40.4342 123.583 41.1142 123.836 41.8874C124.087 42.6603 124.212 43.4757 124.212 44.3316C124.212 44.452 124.209 44.5747 124.202 44.702C124.193 44.8317 124.181 44.9638 124.165 45.097H114.996C115.153 46.0731 115.559 46.8204 116.212 47.3402C116.866 47.8565 117.658 48.116 118.589 48.116C119.297 48.116 119.911 47.996 120.432 47.7568C120.951 47.5161 121.463 47.1624 121.968 46.6971L123.646 48.116C123.046 48.7924 122.334 49.3323 121.507 49.7387C120.679 50.1444 119.69 50.3474 118.541 50.3474Z" fill="#E20613"/>
<path fill-rule="evenodd" clip-rule="evenodd" d="M132.257 41.4612C131.12 41.4612 130.226 41.8006 129.575 42.48C128.924 43.1594 128.599 44.2153 128.599 45.6479V50.0346H125.188V38.1601H128.599V40.5522C128.943 39.7402 129.414 39.0902 130.013 38.6028C130.611 38.1155 131.419 37.8939 132.437 37.9381V41.4612H132.257Z" fill="#E20613"/>
<path fill-rule="evenodd" clip-rule="evenodd" d="M141.183 45.0912C140.824 44.959 140.401 44.8475 139.911 44.758C139.42 44.6686 138.903 44.6245 138.358 44.6245C137.468 44.6245 136.776 44.7871 136.279 45.1137C135.78 45.4415 135.532 45.885 135.532 46.4496V46.4948C135.532 47.0582 135.761 47.4881 136.22 47.7854C136.678 48.0826 137.243 48.23 137.914 48.23C138.381 48.23 138.812 48.171 139.21 48.0527C139.607 47.9337 139.954 47.7662 140.249 47.551C140.544 47.3358 140.774 47.077 140.937 46.7723C141.1 46.4697 141.183 46.1312 141.183 45.7598V45.0912ZM141.113 50.0104V48.5635C140.692 49.0396 140.155 49.4395 139.502 49.7663C138.848 50.0924 138.053 50.2555 137.12 50.2555C136.527 50.2555 135.966 50.1774 135.437 50.0222C134.909 49.8665 134.443 49.6361 134.049 49.332C133.651 49.0274 133.331 48.6501 133.09 48.1965C132.849 47.7431 132.728 47.2218 132.728 46.627V46.5822C132.728 45.9303 132.853 45.3618 133.101 44.8799C133.351 44.397 133.698 43.9976 134.141 43.6787C134.585 43.3599 135.114 43.1217 135.729 42.9658C136.344 42.8101 137.01 42.7315 137.726 42.7315C138.475 42.7315 139.108 42.7758 139.631 42.8652C140.151 42.955 140.653 43.0735 141.136 43.2209V42.9988C141.136 42.1818 140.875 41.5604 140.353 41.1295C139.833 40.6996 139.081 40.4834 138.1 40.4834C137.399 40.4834 136.776 40.5502 136.231 40.6839C135.686 40.8174 135.134 40.9958 134.573 41.2174L133.804 39.0597C134.488 38.762 135.188 38.5247 135.904 38.3463C136.621 38.1685 137.486 38.0796 138.496 38.0796C140.334 38.0796 141.698 38.5129 142.583 39.3829C143.471 40.2501 143.916 41.4709 143.916 43.0439V50.0104H141.113Z" fill="#E20613"/>
<path fill-rule="evenodd" clip-rule="evenodd" d="M149.979 50.2339C149.456 50.2339 148.97 50.1734 148.525 50.0525C148.079 49.9332 147.692 49.7342 147.366 49.4649C147.039 49.1938 146.786 48.8356 146.612 48.391C146.436 47.9469 146.348 47.3938 146.348 46.7285V40.4454H144.76V38.0942H146.348V34.8164H149.242V38.0942H152.611V40.4454H149.242V46.3011C149.242 46.8282 149.376 47.2085 149.647 47.4418C149.915 47.6752 150.295 47.7926 150.784 47.7926C151.401 47.7926 151.994 47.656 152.563 47.3854V49.6227C152.2 49.8187 151.812 49.9695 151.401 50.0757C150.989 50.1817 150.515 50.2339 149.979 50.2339Z" fill="#7C7B7B"/>
<path fill-rule="evenodd" clip-rule="evenodd" d="M154.049 38.0939H156.942V50.0292H154.049V38.0939ZM153.93 33.6631H157.037V36.2615H153.93V33.6631Z" fill="#7C7B7B"/>
<path fill-rule="evenodd" clip-rule="evenodd" d="M157.589 38.0938H160.672L164.041 46.8646L167.432 38.0938H170.444L165.321 50.1204H162.736L157.589 38.0938Z" fill="#7C7B7B"/>
</g>
<defs>
<clipPath id="clip0">
<rect width="271" height="186" fill="white" transform="translate(0.5 0.849609)"/>
</clipPath>
</defs>
</svg>
