<svg width="37" height="37" viewBox="0 0 37 37" fill="none" xmlns="http://www.w3.org/2000/svg">
<path d="M8 17.5C7.17157 17.5 6.5 18.1716 6.5 19C6.5 19.8284 7.17157 20.5 8 20.5V17.5ZM30.0607 20.0607C30.6464 19.4749 30.6464 18.5251 30.0607 17.9393L20.5147 8.3934C19.9289 7.80761 18.9792 7.80761 18.3934 8.3934C17.8076 8.97919 17.8076 9.92893 18.3934 10.5147L26.8787 19L18.3934 27.4853C17.8076 28.0711 17.8076 29.0208 18.3934 29.6066C18.9792 30.1924 19.9289 30.1924 20.5147 29.6066L30.0607 20.0607ZM8 20.5H29V17.5H8V20.5Z" fill="#E7EAF1"/>
<circle cx="18.5" cy="18.5" r="17.5" stroke="#E7EAF1" stroke-width="2"/>
</svg>
