<svg width="26" height="26" viewBox="0 0 26 26" fill="none" xmlns="http://www.w3.org/2000/svg">
<path d="M20 14C20.5523 14 21 13.5523 21 13C21 12.4477 20.5523 12 20 12L20 14ZM5.29289 12.2929C4.90237 12.6834 4.90237 13.3166 5.29289 13.7071L11.6569 20.0711C12.0474 20.4616 12.6805 20.4616 13.0711 20.0711C13.4616 19.6805 13.4616 19.0474 13.0711 18.6569L7.41421 13L13.0711 7.34315C13.4616 6.95262 13.4616 6.31946 13.0711 5.92893C12.6805 5.53841 12.0474 5.53841 11.6569 5.92893L5.29289 12.2929ZM20 12L6 12L6 14L20 14L20 12Z" fill="black"/>
<path d="M1 13C1 6.37258 6.37258 1 13 0.999999C19.6274 0.999999 25 6.37258 25 13C25 19.6274 19.6274 25 13 25C6.37258 25 1 19.6274 1 13Z" stroke="black" stroke-width="2"/>
</svg>
