<svg width="30" height="30" viewBox="0 0 30 30" fill="none" xmlns="http://www.w3.org/2000/svg">
<path d="M8 14.4058C7.44772 14.4058 7 14.8535 7 15.4058C7 15.958 7.44772 16.4058 8 16.4058V14.4058ZM23.7071 16.1129C24.0976 15.7223 24.0976 15.0892 23.7071 14.6987L17.3431 8.33469C16.9526 7.94417 16.3195 7.94417 15.9289 8.33469C15.5384 8.72522 15.5384 9.35838 15.9289 9.74891L21.5858 15.4058L15.9289 21.0626C15.5384 21.4531 15.5384 22.0863 15.9289 22.4768C16.3195 22.8674 16.9526 22.8674 17.3431 22.4768L23.7071 16.1129ZM8 16.4058H23V14.4058H8V16.4058Z" fill="#F4F4F4"/>
<circle cx="15" cy="15" r="14" stroke="#F4F4F4" stroke-width="2"/>
</svg>
