<svg width="36" height="35" viewBox="0 0 36 35" fill="none" xmlns="http://www.w3.org/2000/svg">
<g clip-path="url(#clip0)">
<path d="M32.7655 13.5425L35.394 17.1684C35.5376 17.3661 35.5376 17.634 35.394 17.8316L32.7655 21.4573L33.2313 25.9113C33.2564 26.1544 33.1225 26.3859 32.8992 26.4854L28.808 28.3066L26.9874 32.3981C26.8871 32.6208 26.6558 32.7545 26.4127 32.7299L21.9587 32.2641L18.333 34.8926C18.1354 35.0359 17.868 35.0359 17.6704 34.8926L14.0444 32.2641L9.59072 32.7299C9.34762 32.7534 9.11663 32.6197 9.01603 32.3975L7.19546 28.306L3.10394 26.4854C2.8804 26.3859 2.74644 26.1539 2.77208 25.9107L3.23763 21.4568L0.609451 17.8311C0.466121 17.6334 0.466121 17.3661 0.609451 17.1684L3.23763 13.5425L2.77208 9.08877C2.74672 8.84566 2.88068 8.61385 3.10394 8.51463L7.19546 6.69351L9.01603 2.60199C9.11718 2.38038 9.34789 2.24697 9.59072 2.27013L14.0444 2.73567L17.6704 0.107497C17.868 -0.0358325 18.1354 -0.0358325 18.333 0.107497L21.9587 2.73567L26.4127 2.27013C26.6558 2.24587 26.8873 2.37955 26.9874 2.60254L28.808 6.69406L32.8992 8.51463C33.1227 8.61413 33.2567 8.84594 33.2313 9.08932L32.7655 13.5425Z" fill="#33A8CC"/>
<path d="M24.5919 11.1C24.3714 10.8794 24.0141 10.8794 23.7936 11.1L14.6133 20.2802L11.8173 17.4894C11.5971 17.2698 11.2404 17.2698 11.0202 17.4894L9.41984 19.0801C9.31372 19.186 9.25391 19.3298 9.25391 19.4798C9.25391 19.6297 9.31372 19.7736 9.41984 19.8795L14.2126 24.6722C14.4328 24.8924 14.7903 24.8924 15.0108 24.6722L26.1878 13.4949C26.408 13.2747 26.408 12.9172 26.1878 12.6967L24.5919 11.1Z" fill="white"/>
</g>
<defs>
<clipPath id="clip0">
<rect width="35" height="35" fill="white" transform="translate(0.5)"/>
</clipPath>
</defs>
</svg>
