<svg width="40" height="40" viewBox="0 0 40 40" fill="none" xmlns="http://www.w3.org/2000/svg">
<circle cx="19.909" cy="20.2447" r="19.5946" fill="#46A9D4"/>
<path d="M13.9259 22.4742C13.9259 18.8087 14.636 16.0703 16.0563 14.2588C17.4851 12.4388 19.5942 11.5288 22.3837 11.5288C23.3447 11.5288 24.1016 11.6096 24.6544 11.7712V13.5954C23.9996 13.3828 23.2512 13.2765 22.4092 13.2765C20.4106 13.2765 18.8841 13.9016 17.8295 15.1518C16.7749 16.3934 16.1966 18.3495 16.0946 21.0199H16.2476C17.1832 19.5571 18.663 18.8257 20.687 18.8257C22.3625 18.8257 23.6807 19.3318 24.6417 20.3438C25.6112 21.3559 26.096 22.7293 26.096 24.4643C26.096 26.4033 25.5644 27.9299 24.5014 29.044C23.4468 30.1496 22.018 30.7024 20.215 30.7024C18.2845 30.7024 16.7537 29.9795 15.6226 28.5337C14.4915 27.0794 13.9259 25.0596 13.9259 22.4742ZM20.1895 28.9037C21.3972 28.9037 22.3327 28.5252 22.996 27.7683C23.6679 27.0029 24.0038 25.9016 24.0038 24.4643C24.0038 23.2311 23.6934 22.2616 23.0726 21.5557C22.4517 20.8498 21.5247 20.4969 20.2916 20.4969C19.5262 20.4969 18.8245 20.6542 18.1867 20.9689C17.5489 21.2836 17.0386 21.7173 16.6559 22.2701C16.2817 22.8229 16.0946 23.397 16.0946 23.9923C16.0946 24.8683 16.2647 25.6847 16.6048 26.4416C16.945 27.1985 17.4255 27.7981 18.0464 28.2403C18.6757 28.6826 19.3901 28.9037 20.1895 28.9037Z" fill="white"/>
</svg>
