<svg width="24" height="24" viewBox="0 0 24 24" fill="none" xmlns="http://www.w3.org/2000/svg">
<circle cx="12" cy="12" r="12" fill="#46A9D4"/>
<path d="M15.7109 18H8.20312V16.8828L11.2109 13.8594C12.1276 12.9323 12.7318 12.2708 13.0234 11.875C13.3151 11.4792 13.5339 11.0938 13.6797 10.7188C13.8255 10.3438 13.8984 9.9401 13.8984 9.50781C13.8984 8.89844 13.7135 8.41667 13.3438 8.0625C12.974 7.70312 12.4609 7.52344 11.8047 7.52344C11.3307 7.52344 10.8802 7.60156 10.4531 7.75781C10.0312 7.91406 9.5599 8.19792 9.03906 8.60938L8.35156 7.72656C9.40365 6.85156 10.5495 6.41406 11.7891 6.41406C12.862 6.41406 13.7031 6.6901 14.3125 7.24219C14.9219 7.78906 15.2266 8.52604 15.2266 9.45312C15.2266 10.1771 15.0234 10.8932 14.6172 11.6016C14.2109 12.3099 13.4505 13.2057 12.3359 14.2891L9.83594 16.7344V16.7969H15.7109V18Z" fill="white"/>
</svg>
