<svg width="24" height="24" viewBox="0 0 24 24" fill="none" xmlns="http://www.w3.org/2000/svg">
<circle cx="12" cy="12" r="12" fill="#46A9D4"/>
<path d="M15.2812 9.26562C15.2812 9.99479 15.0755 10.5911 14.6641 11.0547C14.2578 11.5182 13.6797 11.8281 12.9297 11.9844V12.0469C13.8464 12.1615 14.526 12.4531 14.9688 12.9219C15.4115 13.3906 15.6328 14.0052 15.6328 14.7656C15.6328 15.8542 15.2552 16.6927 14.5 17.2812C13.7448 17.8646 12.6719 18.1562 11.2812 18.1562C10.6771 18.1562 10.1224 18.1094 9.61719 18.0156C9.11719 17.9271 8.63021 17.7682 8.15625 17.5391V16.3047C8.65104 16.5495 9.17708 16.737 9.73438 16.8672C10.2969 16.9922 10.8281 17.0547 11.3281 17.0547C13.3021 17.0547 14.2891 16.2812 14.2891 14.7344C14.2891 13.349 13.2005 12.6562 11.0234 12.6562H9.89844V11.5391H11.0391C11.9297 11.5391 12.6354 11.3438 13.1562 10.9531C13.6771 10.5573 13.9375 10.0104 13.9375 9.3125C13.9375 8.75521 13.7448 8.31771 13.3594 8C12.9792 7.68229 12.4609 7.52344 11.8047 7.52344C11.3047 7.52344 10.8333 7.59115 10.3906 7.72656C9.94792 7.86198 9.44271 8.11198 8.875 8.47656L8.21875 7.60156C8.6875 7.23177 9.22656 6.94271 9.83594 6.73438C10.4505 6.52083 11.0964 6.41406 11.7734 6.41406C12.8828 6.41406 13.7448 6.66927 14.3594 7.17969C14.974 7.6849 15.2812 8.38021 15.2812 9.26562Z" fill="white"/>
</svg>
