<svg width="361" height="100" viewBox="0 0 361 100" fill="none" xmlns="http://www.w3.org/2000/svg">
<rect width="360" height="99" transform="translate(0.569214 0.498047)" fill="#373737"/>
<path fill-rule="evenodd" clip-rule="evenodd" d="M320.185 13.9206C303.739 13.9206 290.414 27.25 290.414 43.6869C290.414 49.6701 292.184 55.2365 295.223 59.9045C295.083 59.1385 295 58.3392 295 57.4854V57.3333C295 55.1066 295.402 53.1652 296.214 51.52C297.023 49.8702 298.152 48.5054 299.599 47.4158C301.044 46.3267 302.767 45.513 304.767 44.9812C306.776 44.4493 308.94 44.1819 311.272 44.1819C313.707 44.1819 315.769 44.3324 317.467 44.6367C319.166 44.9443 320.805 45.3478 322.372 45.8526V45.0948C322.372 42.3046 321.523 40.1803 319.823 38.7098C318.125 37.2392 315.679 36.5023 312.488 36.5023C310.207 36.5023 308.174 36.7315 306.404 37.1863C304.63 37.6444 302.829 38.2517 301.002 39.0091L298.5 31.6391C300.725 30.6217 303.006 29.813 305.339 29.2024C307.668 28.5938 310.482 28.2928 313.777 28.2928C319.757 28.2928 324.193 29.7728 327.084 32.7426C329.976 35.7063 331.411 39.876 331.411 45.2469V69.0433H322.296V64.1013C320.922 65.7273 319.176 67.0937 317.05 68.2087C314.918 69.3233 312.337 69.8811 309.292 69.8811C307.902 69.8811 306.567 69.7367 305.283 69.4595C309.665 72.0004 314.753 73.4627 320.185 73.4627C336.622 73.4627 349.946 60.1284 349.946 43.6869C349.946 27.25 336.622 13.9206 320.185 13.9206Z" fill="white"/>
<path fill-rule="evenodd" clip-rule="evenodd" d="M311.877 62.961C313.402 62.961 314.806 62.7604 316.097 62.3553C317.388 61.9485 318.519 61.3764 319.48 60.6428C320.448 59.9075 321.194 59.0233 321.724 57.9838C322.255 56.9491 322.522 55.7939 322.522 54.5235V52.241C321.357 51.7907 319.978 51.4081 318.378 51.1022C316.782 50.7979 315.097 50.647 313.323 50.647C310.433 50.647 308.174 51.2014 306.554 52.3181C304.932 53.4376 304.123 54.9528 304.123 56.8802V57.0353C304.123 58.9594 304.869 60.4283 306.362 61.4424C307.86 62.4578 309.699 62.961 311.877 62.961Z" fill="white"/>
<path fill-rule="evenodd" clip-rule="evenodd" d="M50.2621 41.4248C50.2621 43.8164 49.9049 46.0641 49.1938 48.1641C48.4807 50.2642 47.494 52.1112 46.2318 53.7064C44.9679 55.3021 43.4411 56.5516 41.6503 57.455C39.8595 58.3601 37.9083 58.8103 35.7955 58.8103C33.636 58.8103 31.6738 58.3473 29.9067 57.4165C28.1384 56.486 26.599 55.2221 25.2904 53.6265C23.9814 52.0308 22.9706 50.1711 22.2595 48.044C21.5468 45.9181 21.1924 43.6561 21.1924 41.2645V41.1045C21.1924 38.7129 21.5468 36.4669 22.2595 34.3652C22.9706 32.2652 23.9593 30.4165 25.2215 28.8229C26.4854 27.2273 28.0007 25.9778 29.7677 25.0744C31.536 24.171 33.4982 23.7174 35.6594 23.7174C37.7689 23.7174 39.7217 24.1837 41.5142 25.1146C43.305 26.045 44.8543 27.3073 46.1629 28.9029C47.4719 30.4969 48.4807 32.3599 49.1938 34.4854C49.9049 36.6129 50.2621 38.8712 50.2621 41.2645V41.4248ZM58.4477 30.3829C57.2384 27.0493 55.5468 24.1468 53.3697 21.6768C51.193 19.2081 48.6107 17.2491 45.6199 15.7979C42.6292 14.3466 39.3551 13.6207 35.7923 13.6207C32.2311 13.6207 28.9443 14.3466 25.9326 15.7979C22.9209 17.2491 20.3259 19.234 18.1509 21.7535C15.9737 24.2735 14.2694 27.2015 13.0392 30.535C11.8073 33.8703 11.1921 37.4474 11.1921 41.2645V41.417C11.1921 45.2357 11.7958 48.8129 13.0055 52.1465C14.2149 55.4813 15.9081 58.3826 18.0848 60.8525C20.2603 63.3213 22.8443 65.2802 25.835 66.7315C28.8241 68.1828 32.0999 68.9086 35.661 68.9086C39.2218 68.9086 42.509 68.1828 45.5207 66.7315C48.5319 65.2802 51.1273 63.2954 53.3041 60.7759C55.4796 58.2559 57.1839 55.3275 58.4158 51.9939C59.646 48.6608 60.2611 45.0836 60.2611 41.2645V41.1107C60.2611 37.2936 59.6571 33.7181 58.4477 30.3829Z" fill="white"/>
<path fill-rule="evenodd" clip-rule="evenodd" d="M95.7732 49.5193C95.7732 47.7637 95.4993 46.157 94.9514 44.693C94.4036 43.2319 93.6601 41.9823 92.7198 40.9444C91.7811 39.9081 90.6968 39.1105 89.4711 38.5528C88.2441 37.9939 86.9273 37.7134 85.5179 37.7134C84.1096 37.7134 82.7912 37.9939 81.5642 38.5528C80.3389 39.1105 79.2674 39.9081 78.3557 40.9444C77.4425 41.9823 76.7121 43.2319 76.1643 44.693C75.6164 46.157 75.3424 47.7637 75.3424 49.5193V49.678C75.3424 51.4335 75.6164 53.0435 76.1643 54.5047C76.7121 55.9687 77.4425 57.2166 78.3557 58.2545C79.2674 59.2924 80.3389 60.0888 81.5642 60.6477C82.7912 61.205 84.1096 61.4839 85.5179 61.4839C86.9273 61.4839 88.2441 61.205 89.4711 60.6477C90.6968 60.0888 91.7811 59.2924 92.7198 58.2545C93.6601 57.2166 94.4036 55.9814 94.9514 54.5444C95.4993 53.1092 95.7732 51.4865 95.7732 49.678V49.5193ZM102.719 57.6139C101.764 60.0949 100.508 62.1905 98.9514 63.898C97.3927 65.6089 95.592 66.8966 93.5465 67.7635C91.4993 68.63 89.3607 69.0643 87.1295 69.0643C84.2925 69.0643 81.9567 68.4906 80.1195 67.3436C78.2819 66.1966 76.7363 64.8593 75.4819 63.3309V82.0939H64.8792V29.6241H75.4819V35.1376C76.7827 33.3226 78.3525 31.8283 80.19 30.6571C82.0256 29.4863 84.3389 28.9015 87.1295 28.9015C89.3144 28.9015 91.4288 29.3341 93.4759 30.2023C95.5214 31.0688 97.3348 32.3569 98.9161 34.0661C100.497 35.7753 101.764 37.8704 102.719 40.3502C103.67 42.8316 104.148 45.6846 104.148 48.9107V49.0551C104.148 52.2812 103.67 55.1341 102.719 57.6139Z" fill="white"/>
<path fill-rule="evenodd" clip-rule="evenodd" d="M135.894 46.3701C135.75 44.9508 135.423 43.6115 134.938 42.3652C134.452 41.1141 133.786 40.0409 132.956 39.1325C132.121 38.2308 131.128 37.5098 129.981 36.9669C128.826 36.4256 127.519 36.1594 126.05 36.1594C123.308 36.1594 121.041 37.1014 119.258 38.9886C117.472 40.8737 116.38 43.3326 115.986 46.3701H135.894ZM127.08 69.3619C124.287 69.3619 121.685 68.8653 119.258 67.888C116.833 66.9096 114.73 65.5399 112.942 63.7778C111.151 62.014 109.741 59.8996 108.716 57.4215C107.693 54.9499 107.175 52.22 107.175 49.2325V49.0869C107.175 46.2946 107.636 43.6787 108.567 41.2281C109.501 38.777 110.812 36.6368 112.498 34.7979C114.193 32.962 116.184 31.5173 118.483 30.4662C120.787 29.4107 123.335 28.8821 126.124 28.8821C129.211 28.8821 131.918 29.4525 134.244 30.577C136.57 31.7047 138.502 33.22 140.038 35.1309C141.586 37.0407 142.75 39.2576 143.535 41.7788C144.315 44.2971 144.704 46.9561 144.704 49.7467C144.704 50.1392 144.695 50.5415 144.672 50.9561C144.645 51.3776 144.61 51.8082 144.56 52.2425H116.062C116.551 55.4272 117.812 57.8635 119.843 59.5568C121.874 61.2418 124.336 62.0862 127.229 62.0862C129.429 62.0862 131.338 61.6954 132.956 60.915C134.571 60.1301 136.161 58.9769 137.731 57.46L142.945 62.0862C141.081 64.2936 138.868 66.0525 136.298 67.3787C133.723 68.7004 130.652 69.3619 127.08 69.3619Z" fill="white"/>
<path fill-rule="evenodd" clip-rule="evenodd" d="M169.71 40.3869C166.174 40.3869 163.397 41.4937 161.375 43.709C159.352 45.9247 158.34 49.3669 158.34 54.0382V68.3415H147.738V29.6239H158.34V37.4249C159.409 34.777 160.874 32.656 162.735 31.067C164.593 29.4779 167.105 28.7569 170.267 28.9013V40.3869H169.71Z" fill="white"/>
<path fill-rule="evenodd" clip-rule="evenodd" d="M197.452 52.2234C196.337 51.794 195.02 51.4291 193.496 51.1375C191.973 50.8459 190.365 50.7032 188.67 50.7032C185.905 50.7032 183.756 51.2318 182.21 52.2972C180.659 53.3671 179.888 54.8139 179.888 56.6527V56.7999C179.888 58.6375 180.601 60.0408 182.025 61.0082C183.451 61.9789 185.207 62.4579 187.291 62.4579C188.742 62.4579 190.081 62.2672 191.318 61.8796C192.551 61.4921 193.631 60.9459 194.549 60.2442C195.463 59.5426 196.179 58.6982 196.686 57.705C197.192 56.7183 197.452 55.6164 197.452 54.4038V52.2234ZM197.232 68.263V63.5454C195.925 65.0996 194.257 66.4016 192.228 67.467C190.193 68.5308 187.725 69.0643 184.822 69.0643C182.98 69.0643 181.237 68.8076 179.594 68.3032C177.953 67.7939 176.505 67.0442 175.278 66.051C174.041 65.0578 173.047 63.8292 172.299 62.3488C171.551 60.8721 171.174 59.1706 171.174 57.2309V57.0853C171.174 54.9595 171.563 53.1059 172.334 51.5361C173.109 49.9614 174.189 48.6577 175.565 47.6181C176.946 46.5782 178.589 45.8015 180.502 45.2954C182.411 44.7857 184.481 44.531 186.708 44.531C189.034 44.531 191.001 44.6737 192.626 44.9653C194.245 45.2585 195.803 45.6444 197.304 46.1267V45.4025C197.304 42.7386 196.494 40.7107 194.871 39.3074C193.255 37.9041 190.919 37.2008 187.869 37.2008C185.69 37.2008 183.756 37.419 182.062 37.8528C180.367 38.2904 178.652 38.8702 176.909 39.5924L174.517 32.557C176.645 31.5863 178.818 30.8141 181.045 30.231C183.272 29.6511 185.96 29.3629 189.101 29.3629C194.813 29.3629 199.052 30.7756 201.802 33.6109C204.562 36.4384 205.943 40.4208 205.943 45.5485V68.263H197.232Z" fill="white"/>
<path fill-rule="evenodd" clip-rule="evenodd" d="M224.786 68.992C223.162 68.992 221.651 68.7931 220.267 68.3991C218.88 68.0099 217.678 67.3611 216.665 66.4848C215.649 65.599 214.862 64.4315 214.321 62.9831C213.775 61.5334 213.501 59.7299 213.501 57.5609V37.0744H208.565V29.4075H213.501V18.7198H222.497V29.4075H232.967V37.0744H222.497V56.1671C222.497 57.8861 222.912 59.1258 223.753 59.8869C224.586 60.6476 225.768 61.0307 227.288 61.0307C229.204 61.0307 231.048 60.5853 232.816 59.7024V66.999C231.688 67.6367 230.482 68.1284 229.204 68.4745C227.925 68.8206 226.452 68.992 224.786 68.992Z" fill="#BFBEBE"/>
<path fill-rule="evenodd" clip-rule="evenodd" d="M237.436 29.4075H246.426V68.324H237.436V29.4075ZM237.066 14.9619H246.722V23.4342H237.066V14.9619Z" fill="#BFBEBE"/>
<path fill-rule="evenodd" clip-rule="evenodd" d="M248.436 29.4075H258.019L268.489 58.0079L279.028 29.4075H288.387L272.466 68.6217H264.431L248.436 29.4075Z" fill="#BFBEBE"/>
</svg>
