<svg xmlns="http://www.w3.org/2000/svg" width="49" height="49" viewBox="0 0 49 49"><defs><style>.a{fill:#f5f7f9;}.b{fill:#e20613;}</style></defs><g transform="translate(-366 -661)"><circle class="a" cx="24.5" cy="24.5" r="24.5" transform="translate(366 661)"/><g transform="translate(375.672 670.091)"><path class="b" d="M163.812,171.525l.9.9a.8.8,0,0,0,1.129,0l.564-.564c.09.041.183.08.277.115v.8a.8.8,0,0,0,.8.8h1.274a.8.8,0,0,0,.8-.8v-.8c.094-.035.186-.073.277-.115l.564.564a.8.8,0,0,0,1.129,0l.9-.9a.8.8,0,0,0,0-1.129l-.564-.564c.041-.09.08-.183.115-.277h.8a.8.8,0,0,0,.8-.8v-1.274a.8.8,0,0,0-.8-.8h-.8c-.035-.094-.073-.186-.115-.277l.564-.564a.8.8,0,0,0,0-1.129l-.9-.9a.8.8,0,0,0-1.129,0l-.564.564c-.09-.041-.183-.08-.277-.115v-.8a.8.8,0,0,0-.8-.8h-1.274a.8.8,0,0,0-.8.8v.8c-.094.035-.187.073-.277.115l-.564-.564a.8.8,0,0,0-1.129,0l-.9.9a.8.8,0,0,0,0,1.129l.564.564c-.041.09-.08.183-.115.277h-.8a.8.8,0,0,0-.8.8v1.274a.8.8,0,0,0,.8.8h.8c.035.094.073.186.115.277l-.564.564A.8.8,0,0,0,163.812,171.525Zm.5-2.846h-.774v-1.118h.774a.8.8,0,0,0,.751-.528,3.216,3.216,0,0,1,.125-.3.8.8,0,0,0-.157-.9l-.548-.548.791-.791.548.548a.8.8,0,0,0,.9.157,3.244,3.244,0,0,1,.3-.124.8.8,0,0,0,.528-.751v-.774h1.118v.774a.8.8,0,0,0,.528.751,3.231,3.231,0,0,1,.3.125.8.8,0,0,0,.9-.157l.548-.548.791.791-.548.548a.8.8,0,0,0-.157.9,3.241,3.241,0,0,1,.125.3.8.8,0,0,0,.751.528h.774v1.118h-.774a.8.8,0,0,0-.751.528,3.237,3.237,0,0,1-.125.3.8.8,0,0,0,.157.9l.548.548-.791.791-.548-.548a.8.8,0,0,0-.9-.157,3.214,3.214,0,0,1-.3.124.8.8,0,0,0-.528.751v.774h-1.118v-.774a.8.8,0,0,0-.528-.751,3.243,3.243,0,0,1-.3-.125.8.8,0,0,0-.9.157l-.548.548-.791-.791.548-.548a.8.8,0,0,0,.157-.9,3.211,3.211,0,0,1-.125-.3A.8.8,0,0,0,164.317,168.679Z" transform="translate(-153.164 -153.166)"/><path class="b" d="M218.308,220.647a2.338,2.338,0,1,0-2.338-2.338A2.341,2.341,0,0,0,218.308,220.647Zm0-3.8a1.462,1.462,0,1,1-1.462,1.462A1.464,1.464,0,0,1,218.308,216.846Z" transform="translate(-203.354 -203.354)"/><path class="b" d="M5.5,11.007A5.5,5.5,0,1,0,0,5.5a5.507,5.507,0,0,0,5.5,5.5ZM8.436,9.08a4.618,4.618,0,0,1-5.865,0,1.511,1.511,0,0,1,1.51-1.537H6.926A1.511,1.511,0,0,1,8.436,9.08ZM5.5.876A4.624,4.624,0,0,1,9.189,8.3,2.39,2.39,0,0,0,6.926,6.667H4.082A2.391,2.391,0,0,0,1.818,8.3,4.624,4.624,0,0,1,5.5.876Z"/><path class="b" d="M329.066,323.562a5.5,5.5,0,1,0,5.5,5.5A5.51,5.51,0,0,0,329.066,323.562ZM332,332.643a4.617,4.617,0,0,1-5.865,0,1.511,1.511,0,0,1,1.51-1.537h2.844A1.511,1.511,0,0,1,332,332.643Zm.753-.782a2.39,2.39,0,0,0-2.263-1.631h-2.844a2.39,2.39,0,0,0-2.263,1.631,4.628,4.628,0,1,1,7.371,0Z" transform="translate(-304.661 -304.661)"/><path class="b" d="M61.2,32.034A2.141,2.141,0,0,0,61.2,29h0a2.142,2.142,0,1,0,0,3.029Zm-2.409-2.41a1.267,1.267,0,0,1,1.79,0h0a1.266,1.266,0,1,1-1.79,0Z" transform="translate(-54.181 -26.719)"/><path class="b" d="M58.195,355.62a2.142,2.142,0,1,0,3.029-3.029h0a2.142,2.142,0,1,0-3.029,3.029Zm.619-2.41a1.266,1.266,0,1,1,0,1.79A1.267,1.267,0,0,1,58.814,353.211Z" transform="translate(-54.205 -331.405)"/><path class="b" d="M381.758,29.028a2.142,2.142,0,1,0,3.029,0h0A2.144,2.144,0,0,0,381.758,29.028Zm2.41,2.409a1.266,1.266,0,1,1,0-1.79h0A1.265,1.265,0,0,1,384.168,31.437Z" transform="translate(-358.868 -26.742)"/><path class="b" d="M384.787,352.591a2.142,2.142,0,1,0,0,3.029A2.144,2.144,0,0,0,384.787,352.591Zm-.62,2.41a1.266,1.266,0,1,1,0-1.79A1.267,1.267,0,0,1,384.168,355Z" transform="translate(-358.868 -331.405)"/><path class="b" d="M207.259,87.594a.438.438,0,1,0,0-.876h-5.513a.438.438,0,0,0,0,.876Z" transform="translate(-189.549 -81.652)"/><path class="b" d="M201.747,410.281a.438.438,0,1,0,0,.876h5.513a.438.438,0,1,0,0-.876Z" transform="translate(-189.55 -386.315)"/><path class="b" d="M87.594,207.259v-5.513a.438.438,0,0,0-.876,0v5.513a.438.438,0,1,0,.876,0Z" transform="translate(-81.652 -189.549)"/><path class="b" d="M411.156,207.259v-5.513a.438.438,0,1,0-.876,0v5.513a.438.438,0,1,0,.876,0Z" transform="translate(-386.314 -189.549)"/><path class="b" d="M333.607,4.611a.438.438,0,1,0,.86-.168,5.5,5.5,0,1,0-.02,2.22.438.438,0,0,0-.857-.184,4.573,4.573,0,0,1-.839,1.817,2.39,2.39,0,0,0-2.263-1.629h-2.844A2.391,2.391,0,0,0,325.38,8.3a4.627,4.627,0,1,1,8.227-3.687Zm-5.963,2.933h2.844A1.512,1.512,0,0,1,332,9.054v.021a4.609,4.609,0,0,1-5.865.005A1.512,1.512,0,0,1,327.644,7.543Z" transform="translate(-304.661)"/><path class="b" d="M5.5,336.232a5.5,5.5,0,0,0,1.11-10.9.438.438,0,0,0-.176.858,4.625,4.625,0,0,1,2.751,7.328,2.39,2.39,0,0,0-2.263-1.631H4.082a2.39,2.39,0,0,0-2.263,1.631A4.625,4.625,0,0,1,4.569,326.2a.438.438,0,0,0-.176-.858,5.5,5.5,0,0,0,1.11,10.9Zm-1.422-3.464H6.926a1.511,1.511,0,0,1,1.511,1.537,4.618,4.618,0,0,1-5.865,0,1.511,1.511,0,0,1,1.51-1.537Z" transform="translate(0 -306.324)"/></g></g></svg>