<svg xmlns="http://www.w3.org/2000/svg" width="49" height="49" viewBox="0 0 49 49"><defs><style>.a{fill:#f5f7f9;}.b{fill:#e20613;}</style></defs><g transform="translate(-676 -661)"><circle class="a" cx="24.5" cy="24.5" r="24.5" transform="translate(676 661)"/><g transform="translate(683 659.471)"><g transform="translate(0 10.262)"><path class="b" d="M30.919,26.561a12.212,12.212,0,0,0-9.5-10.709V14.315a2.057,2.057,0,0,0-.5-4.053H16.57a2.057,2.057,0,0,0-.5,4.053v1.542a12.149,12.149,0,0,0-5.958,3.278A12.281,12.281,0,0,0,9.087,20.3l-.046,0H4.73a.605.605,0,0,0,0,1.21H8.264A12.129,12.129,0,0,0,7.19,23.834H.605a.605.605,0,0,0,0,1.21H6.848a12.3,12.3,0,0,0-.3,2.326H3.872a.605.605,0,1,0,0,1.21H6.567a12.284,12.284,0,0,0,.378,2.326H3.025a.605.605,0,0,0,0,1.21H7.331A12.221,12.221,0,0,0,17.549,39.94q.6.059,1.2.059a12.252,12.252,0,0,0,6.67-1.971.605.605,0,0,0-.66-1.014A11.012,11.012,0,1,1,28,33.766a.605.605,0,1,0,1.015.659A12.261,12.261,0,0,0,30.919,26.561Zm-15.2-14.242a.848.848,0,0,1,.847-.847h4.356a.847.847,0,1,1,0,1.694H16.57A.848.848,0,0,1,15.722,12.319Zm1.561,3.33V14.376h2.929v1.27A12.328,12.328,0,0,0,17.283,15.649Z" transform="translate(0 -10.262)"/><path class="b" d="M436.375,425.5a.605.605,0,1,0,.428.177A.609.609,0,0,0,436.375,425.5Z" transform="translate(-409.403 -400.376)"/><path class="b" d="M164.258,144.609A9.386,9.386,0,1,0,173.645,154,9.4,9.4,0,0,0,164.258,144.609Zm0,17.562A8.176,8.176,0,1,1,172.434,154,8.185,8.185,0,0,1,164.258,162.171Z" transform="translate(-145.501 -136.48)"/><path class="b" d="M264.068,219.588l-3,3a1.875,1.875,0,0,0-1.661,0l-1.341-1.341a.605.605,0,0,0-.856.856l1.341,1.341a1.88,1.88,0,1,0,3.372,0l2.909-2.909h0l.088-.088a.605.605,0,0,0-.856-.856Zm-3.827,5.353a.67.67,0,1,1,.67-.67A.671.671,0,0,1,260.241,224.942Z" transform="translate(-241.484 -206.756)"/><path class="b" d="M398.821,289.86h-.561a.605.605,0,1,0,0,1.21h.561a.605.605,0,0,0,0-1.21Z" transform="translate(-373.594 -272.943)"/><path class="b" d="M194.248,289.616h-.561a.605.605,0,1,0,0,1.21h.561a.605.605,0,1,0,0-1.21Z" transform="translate(-181.399 -272.713)"/><path class="b" d="M300.728,184.59a.605.605,0,0,0,.605-.605v-.561a.605.605,0,1,0-1.21,0v.561A.605.605,0,0,0,300.728,184.59Z" transform="translate(-281.964 -172.378)"/><path class="b" d="M300.484,387.393a.605.605,0,0,0-.605.605v.561a.605.605,0,0,0,1.21,0V388A.605.605,0,0,0,300.484,387.393Z" transform="translate(-281.734 -364.574)"/><path class="b" d="M.605,351.44a.605.605,0,1,0,.428,1.033.605.605,0,0,0-.428-1.033Z" transform="translate(0 -330.797)"/></g></g></g></svg>