<svg xmlns="http://www.w3.org/2000/svg" width="49" height="49" viewBox="0 0 49 49"><defs><style>.a{fill:#acacac;opacity:0.114;}.b{fill:#e20613;}</style></defs><g transform="translate(-63 -661)"><circle class="a" cx="24.5" cy="24.5" r="24.5" transform="translate(63 661)"/><g transform="translate(71.001 655.826)"><g transform="translate(6.926 14.119)"><g transform="translate(0 0)"><path class="b" d="M127.479,17.968a2.328,2.328,0,0,0-1.177-1.726,16.83,16.83,0,0,0-16.363,0,2.353,2.353,0,0,0-.509,3.716,2.362,2.362,0,0,0,1.669.69,2.318,2.318,0,0,0,1.131-.293A11.989,11.989,0,0,1,115.1,19.21a3.438,3.438,0,0,0,6.035,0,11.987,11.987,0,0,1,2.872,1.144,2.355,2.355,0,0,0,3.469-2.386Zm-12.8-.408a3.456,3.456,0,0,0,.029.436,13.259,13.259,0,0,0-3.1,1.246,1.081,1.081,0,0,1-1.586-1.1,1.064,1.064,0,0,1,.537-.789,15.379,15.379,0,0,1,4.694-1.695A3.42,3.42,0,0,0,114.681,17.56Zm3.44,2.166a2.166,2.166,0,1,1,2.166-2.166A2.168,2.168,0,0,1,118.121,19.726Zm7.79-.669a1.076,1.076,0,0,1-1.279.185,13.258,13.258,0,0,0-3.1-1.246,3.457,3.457,0,0,0,.029-.436,3.419,3.419,0,0,0-.575-1.9,15.379,15.379,0,0,1,4.694,1.695,1.079,1.079,0,0,1,.231,1.7Z" transform="translate(-108.739 -14.119)"/></g></g><g transform="translate(-0.001 28.054)"><path class="b" d="M10.6,245.376a11.988,11.988,0,0,1-2.427-1.916,3.438,3.438,0,0,0-3.018-5.226,11.984,11.984,0,0,1-.445-3.06,2.355,2.355,0,0,0-3.8-1.811A2.328,2.328,0,0,0,0,235.245a16.83,16.83,0,0,0,8.182,14.171,2.354,2.354,0,0,0,2.416-4.041Zm-8.445-5.238a15.38,15.38,0,0,1-.878-4.909,1.079,1.079,0,0,1,1.36-1.052,1.076,1.076,0,0,1,.8,1.015A13.255,13.255,0,0,0,3.9,238.5a3.45,3.45,0,0,0-.392.193A3.415,3.415,0,0,0,2.151,240.138Zm1.2,2.617A2.168,2.168,0,0,1,4.8,239.548l.03-.005a2.135,2.135,0,0,1,.395-.037,2.177,2.177,0,0,1,.564.075,2.166,2.166,0,1,1-2.436,3.175Zm7.067,4.915a1.079,1.079,0,0,1-1.591.652A15.378,15.378,0,0,1,5.019,245.1c.073,0,.145.007.218.007a3.416,3.416,0,0,0,2.078-.7,13.252,13.252,0,0,0,2.629,2.061A1.076,1.076,0,0,1,10.423,247.67Z" transform="translate(0.001 -232.865)"/></g><g transform="translate(20.882 28.055)"><path class="b" d="M338.631,233.366a2.355,2.355,0,0,0-3.8,1.811,11.987,11.987,0,0,1-.445,3.06,3.439,3.439,0,0,0-3.018,5.226,11.989,11.989,0,0,1-2.427,1.916,2.354,2.354,0,0,0,2.416,4.041,16.83,16.83,0,0,0,8.182-14.171A2.327,2.327,0,0,0,338.631,233.366ZM330.7,248.324a1.079,1.079,0,0,1-1.591-.652,1.076,1.076,0,0,1,.479-1.2,13.255,13.255,0,0,0,2.629-2.061,3.416,3.416,0,0,0,2.078.7c.073,0,.146,0,.218-.007A15.379,15.379,0,0,1,330.7,248.324Zm5.477-5.567a2.164,2.164,0,1,1-1.872-3.25,2.136,2.136,0,0,1,.394.037l.032.006a2.168,2.168,0,0,1,1.446,3.207Zm1.2-2.617a3.427,3.427,0,0,0-1.752-1.639,13.255,13.255,0,0,0,.471-3.307,1.08,1.08,0,0,1,1.745-.824,1.064,1.064,0,0,1,.415.86A15.378,15.378,0,0,1,337.385,240.141Z" transform="translate(-327.803 -232.868)"/></g><g transform="translate(9.3 22.601)"><path class="b" d="M159.707,151.184l-.936-.563a.637.637,0,1,0-.657,1.091l.627.378v1.829a8.451,8.451,0,0,1-5.733,8.026,8.451,8.451,0,0,1-5.733-8.026V152.09l5.733-3.454.559.337a.637.637,0,1,0,.657-1.091l-.888-.535a.637.637,0,0,0-.657,0l-6.371,3.838a.637.637,0,0,0-.308.546v2.189a9.758,9.758,0,0,0,6.816,9.3.636.636,0,0,0,.384,0,9.758,9.758,0,0,0,6.816-9.3V151.73A.637.637,0,0,0,159.707,151.184Z" transform="translate(-146 -147.255)"/></g><g transform="translate(19.042 24.631)"><path class="b" d="M300.007,179.319a.637.637,0,1,0,.187.45A.642.642,0,0,0,300.007,179.319Z" transform="translate(-298.92 -179.132)"/></g><g transform="translate(13.945 28.748)"><path class="b" d="M224.62,243.943a.637.637,0,0,0-.9,0l-2.48,2.48L220,245.181a.637.637,0,1,0-.9.9l1.692,1.692a.637.637,0,0,0,.9,0l2.93-2.93A.637.637,0,0,0,224.62,243.943Z" transform="translate(-218.91 -243.756)"/></g></g></g></svg>