<svg xmlns="http://www.w3.org/2000/svg" width="53" height="51" viewBox="0 0 53 51"><defs><style>.a{fill:none;stroke:#fff;stroke-width:3px;}.b{fill:#fff;}</style></defs><g transform="translate(-1219.5 -6904.5)"><g transform="translate(0 2761)"><ellipse class="a" cx="25" cy="24" rx="25" ry="24" transform="translate(1221 4145)"/><g transform="translate(1234.156 4152.444)"><path class="b" d="M306.1,105.322v10.329H300.11v-9.637c0-2.419-.865-4.072-3.033-4.072a3.276,3.276,0,0,0-3.072,2.19,4.1,4.1,0,0,0-.2,1.46v10.059h-5.989s.08-16.321,0-18.012h5.989v2.553c-.012.02-.03.04-.04.059h.04v-.059a5.945,5.945,0,0,1,5.4-2.975c3.94,0,6.894,2.574,6.894,8.1ZM278.52,115.651h5.987V97.639H278.52Zm0,0,6.166-24.123a3.083,3.083,0,1,1-3.083-3.083A3.083,3.083,0,0,1,284.686,91.528Z" transform="translate(-278.52 -88.445)"/></g></g></g></svg>