<svg xmlns="http://www.w3.org/2000/svg" width="213.651" height="43.186" viewBox="0 0 213.651 43.186"><defs><style>.a{fill:#fff;}.a,.b{fill-rule:evenodd;}.b{fill:#adadad;}</style></defs><g transform="translate(-53 -6908.594)"><g transform="translate(0 2761)"><g transform="translate(52.635 4147.229)"><path class="a" d="M299.612.666a18.772,18.772,0,0,0-15.744,29,8.477,8.477,0,0,1-.14-1.525v-.1a8.2,8.2,0,0,1,.765-3.666,7.106,7.106,0,0,1,2.135-2.588,9.342,9.342,0,0,1,3.259-1.536,15.973,15.973,0,0,1,4.1-.5,22.466,22.466,0,0,1,3.907.287,24.059,24.059,0,0,1,3.094.767v-.478a5.034,5.034,0,0,0-1.608-4.028,6.87,6.87,0,0,0-4.626-1.391,15.474,15.474,0,0,0-3.837.431,25.426,25.426,0,0,0-3.407,1.15l-1.578-4.648a26.445,26.445,0,0,1,4.313-1.537,21.323,21.323,0,0,1,5.323-.575q5.658,0,8.392,2.808t2.729,7.886V35.431h-5.748V32.315a10.861,10.861,0,0,1-3.309,2.589,10.438,10.438,0,0,1-4.892,1.056,11.95,11.95,0,0,1-2.529-.266,18.774,18.774,0,1,0,9.4-35.028Z" transform="translate(-104.367 -0.112)"/><path class="a" d="M299.5,45.323a8.837,8.837,0,0,0,2.661-.382,6.881,6.881,0,0,0,2.134-1.081,4.855,4.855,0,0,0,1.416-1.677,4.723,4.723,0,0,0,.5-2.181V38.561a15.139,15.139,0,0,0-2.614-.717,16.994,16.994,0,0,0-3.188-.287,7.439,7.439,0,0,0-4.268,1.054,3.316,3.316,0,0,0-1.534,2.877v.1a3.151,3.151,0,0,0,1.413,2.779A6.052,6.052,0,0,0,299.5,45.323Z" transform="translate(-109.491 -13.84)"/><path class="a" d="M25.006,17.9a13.164,13.164,0,0,1-.674,4.25,11.572,11.572,0,0,1-1.868,3.5,8.576,8.576,0,0,1-2.889,2.364,8.067,8.067,0,0,1-3.693.854,7.846,7.846,0,0,1-3.714-.88A9.391,9.391,0,0,1,9.256,25.6a10.976,10.976,0,0,1-1.912-3.521A13.366,13.366,0,0,1,6.672,17.8v-.1a13.137,13.137,0,0,1,.673-4.25,11.539,11.539,0,0,1,1.868-3.5A8.664,8.664,0,0,1,12.08,7.587,8.044,8.044,0,0,1,15.8,6.733a7.91,7.91,0,0,1,3.693.88A9.332,9.332,0,0,1,22.421,10a11.016,11.016,0,0,1,1.912,3.521,13.406,13.406,0,0,1,.674,4.277Zm5.163-6.964a16.939,16.939,0,0,0-3.2-5.49,15.429,15.429,0,0,0-4.888-3.709A14.017,14.017,0,0,0,15.88.365,14.149,14.149,0,0,0,9.662,1.737,15.042,15.042,0,0,0,4.754,5.494,17.822,17.822,0,0,0,1.53,11.033,19.374,19.374,0,0,0,.365,17.8v.1a19.687,19.687,0,0,0,1.144,6.767,16.929,16.929,0,0,0,3.2,5.49A15.41,15.41,0,0,0,9.6,33.862a14,14,0,0,0,6.2,1.373,14.136,14.136,0,0,0,6.218-1.373A15.044,15.044,0,0,0,26.925,30.1a17.835,17.835,0,0,0,3.224-5.538A19.391,19.391,0,0,0,31.312,17.8v-.1A19.708,19.708,0,0,0,30.169,10.936Z"/><path class="a" d="M73.777,28.717a8.613,8.613,0,0,0-.518-3.044,7.287,7.287,0,0,0-1.408-2.364A6.223,6.223,0,0,0,69.8,21.8a6,6,0,0,0-7.01,1.509,7.55,7.55,0,0,0-1.382,2.364,8.613,8.613,0,0,0-.518,3.044v.1a8.609,8.609,0,0,0,.518,3.044,7.544,7.544,0,0,0,1.382,2.365,6.069,6.069,0,0,0,7.01,1.509,6.242,6.242,0,0,0,2.049-1.509,7.332,7.332,0,0,0,1.408-2.34,8.558,8.558,0,0,0,.518-3.069Zm4.381,5.105a12.445,12.445,0,0,1-2.376,3.964,9.7,9.7,0,0,1-3.409,2.438,10.273,10.273,0,0,1-4.047.819A8.219,8.219,0,0,1,63.9,39.959a11.864,11.864,0,0,1-2.925-2.532V49.262H54.292V16.169h6.687v3.478a10.7,10.7,0,0,1,2.969-2.826,8,8,0,0,1,4.377-1.107,10.164,10.164,0,0,1,4,.819,9.91,9.91,0,0,1,3.431,2.438,12.231,12.231,0,0,1,2.4,3.964,15.009,15.009,0,0,1,.9,5.4v.09A15.005,15.005,0,0,1,78.157,33.822Z" transform="translate(-20.067 -5.712)"/><path class="a" d="M114.89,26.723a9.631,9.631,0,0,0-.6-2.525,6.446,6.446,0,0,0-1.25-2.039,6.026,6.026,0,0,0-1.876-1.366,5.764,5.764,0,0,0-2.479-.509,5.644,5.644,0,0,0-4.284,1.783,8.078,8.078,0,0,0-2.064,4.656Zm-5.559,14.5a13.072,13.072,0,0,1-4.933-.93,11.831,11.831,0,0,1-6.649-6.6,13.376,13.376,0,0,1-.972-5.166v-.091a13.834,13.834,0,0,1,.878-4.958,12.528,12.528,0,0,1,2.479-4.054,11.7,11.7,0,0,1,3.775-2.733,11.446,11.446,0,0,1,4.818-1,11.653,11.653,0,0,1,5.122,1.068,10.489,10.489,0,0,1,3.654,2.873,12.452,12.452,0,0,1,2.205,4.192,16.9,16.9,0,0,1,.738,5.026c0,.248-.006.5-.02.762s-.04.538-.071.812H102.382a7.164,7.164,0,0,0,2.384,4.613,7.065,7.065,0,0,0,4.659,1.6,8.238,8.238,0,0,0,3.612-.739,11.835,11.835,0,0,0,3.012-2.179l3.288,2.918a13.581,13.581,0,0,1-4.192,3.337A12.575,12.575,0,0,1,109.331,41.225Z" transform="translate(-35.876 -5.704)"/><path class="a" d="M151.379,22.95a6.76,6.76,0,0,0-5.257,2.1q-1.914,2.1-1.914,6.515v9.021h-6.686V16.162h6.686v4.919a10.152,10.152,0,0,1,2.773-4.009,6.579,6.579,0,0,1,4.75-1.367V22.95Z" transform="translate(-51.038 -5.704)"/><path class="a" d="M177.635,30.594a14.53,14.53,0,0,0-2.495-.685,16.161,16.161,0,0,0-3.043-.275,7.1,7.1,0,0,0-4.075,1.006,3.163,3.163,0,0,0-1.464,2.747v.093a3.013,3.013,0,0,0,1.347,2.654,5.771,5.771,0,0,0,3.321.914,8.476,8.476,0,0,0,2.54-.365,6.573,6.573,0,0,0,2.038-1.032,4.688,4.688,0,0,0,1.347-1.6,4.5,4.5,0,0,0,.483-2.082ZM177.5,40.711V37.735a10.341,10.341,0,0,1-3.156,2.473,9.976,9.976,0,0,1-4.67,1.006,11.145,11.145,0,0,1-3.3-.48,8.1,8.1,0,0,1-2.722-1.419,6.892,6.892,0,0,1-2.589-5.563v-.092a7.875,7.875,0,0,1,.731-3.5,6.842,6.842,0,0,1,2.038-2.47,8.923,8.923,0,0,1,3.114-1.466,15.2,15.2,0,0,1,3.914-.482,21.519,21.519,0,0,1,3.733.275,23.248,23.248,0,0,1,2.95.731v-.457a4.8,4.8,0,0,0-1.535-3.844,6.551,6.551,0,0,0-4.416-1.329,14.741,14.741,0,0,0-3.662.412,24.251,24.251,0,0,0-3.25,1.1l-1.509-4.437a25.329,25.329,0,0,1,4.117-1.467,20.416,20.416,0,0,1,5.081-.549q5.4,0,8.01,2.68t2.612,7.529V40.711Z" transform="translate(-59.798 -5.883)"/><path class="b" d="M208.851,37.192a10.388,10.388,0,0,1-2.85-.373,5.843,5.843,0,0,1-2.272-1.208,5.346,5.346,0,0,1-1.478-2.209,9.768,9.768,0,0,1-.517-3.419V17.063h-3.113V12.227h3.113V5.487h5.674v6.741h6.6v4.835h-6.6V29.1a3.027,3.027,0,0,0,.792,2.346,3.191,3.191,0,0,0,2.23.721,7.716,7.716,0,0,0,3.486-.837v4.6a9.779,9.779,0,0,1-2.278.932A10.722,10.722,0,0,1,208.851,37.192Z" transform="translate(-73.774 -1.906)"/><path class="b" d="M227.483,10.822h5.67V35.367h-5.67ZM227.25,1.71h6.09V7.054h-6.09Z" transform="translate(-84.427 -0.501)"/><path class="b" d="M238.67,16.222h6.044l6.6,18.037,6.647-18.037h5.9L253.826,40.954h-5.068Z" transform="translate(-88.676 -5.901)"/></g></g></g></svg>