<svg xmlns="http://www.w3.org/2000/svg" width="82" height="82" viewBox="0 0 82 82"><defs><style>.a{fill:#f5f7f9;}.b{fill:#e20613;stroke:#d02d26;stroke-width:0.3px;}</style></defs><g transform="translate(-519 -4834)"><circle class="a" cx="41" cy="41" r="41" transform="translate(519 4834)"/><g transform="translate(532.039 4845.893)"><path class="b" d="M202.355,447.753l-.167.818.161-.818a.834.834,0,1,0-.322,1.637l.015,0a.849.849,0,0,0,.158.015.835.835,0,0,0,.156-1.654Zm0,0" transform="translate(-178.952 -397.924)"/><path class="b" d="M261.7,450.26l.083.83-.086-.83a.834.834,0,0,0,.084,1.664c.029,0,.058,0,.087,0l.023,0a.834.834,0,0,0-.191-1.658Zm0,0" transform="translate(-231.917 -400.163)"/><path class="b" d="M231.98,451.232h-.012a.83.83,0,0,0-.865.8.839.839,0,0,0,.8.871h.039a.834.834,0,0,0,.037-1.668Zm0,0" transform="translate(-205.391 -401.03)"/><path class="b" d="M173.7,439.843l-.01,0a.83.83,0,0,0-1.062.505.837.837,0,1,0,1.073-.5Zm0,0" transform="translate(-153.377 -390.862)"/><path class="b" d="M290.981,444.83l.206.809-.208-.808a.834.834,0,1,0,.416,1.616l.022-.006a.834.834,0,0,0-.436-1.611Zm0,0" transform="translate(-258.049 -395.317)"/><path class="b" d="M319.094,435.023l.331.766-.333-.765a.834.834,0,1,0,.666,1.53l.02-.009a.834.834,0,0,0-.684-1.522Zm0,0" transform="translate(-283.146 -386.563)"/><path class="b" d="M147.315,80.359a.835.835,0,1,0-.39-1.571l-.01.005a.833.833,0,0,0,.4,1.566Zm0,0" transform="translate(-130.181 -69.934)"/><path class="b" d="M63.684,164.817a.834.834,0,0,0,1.127-.352l.015-.029a.835.835,0,1,0-1.142.381Zm0,0" transform="translate(-56.201 -145.074)"/><path class="b" d="M52.163,192.618a.833.833,0,0,0,1.058-.523l.011-.033a.835.835,0,1,0-1.069.556Zm0,0" transform="translate(-45.856 -169.735)"/><path class="b" d="M79.306,139.114a.834.834,0,0,0,1.166-.184l.011-.015a.834.834,0,0,0-1.358-.97l.672.495-.675-.491A.834.834,0,0,0,79.306,139.114Zm0,0" transform="translate(-70.178 -122.289)"/><path class="b" d="M121.879,96.5a.838.838,0,1,0-.483-1.516l-.021.015a.835.835,0,0,0,.5,1.5Zm0,0" transform="translate(-107.578 -84.272)"/><path class="b" d="M49.677,310.711a.834.834,0,1,0-.011-.036Zm0,0" transform="translate(-44.114 -275.174)"/><path class="b" d="M99.224,116.283a.837.837,0,1,0-.583-1.431l-.014.014a.834.834,0,0,0,.6,1.417Zm0,0" transform="translate(-87.444 -101.857)"/><path class="b" d="M45.011,280.92a.835.835,0,0,0-1.656.206l0,.033a.834.834,0,0,0,1.651-.24Zm0,0" transform="translate(-38.527 -249.021)"/><path class="b" d="M42.4,251.828h.025a.834.834,0,0,0,.834-.81v-.036a.835.835,0,1,0-.86.845Zm0,0" transform="translate(-36.964 -222.319)"/><path class="b" d="M45.02,221.851a.861.861,0,0,0,.148.013.835.835,0,0,0,.82-.688c0-.012,0-.024.006-.037a.835.835,0,1,0-.974.711Zm0,0" transform="translate(-39.4 -195.688)"/><path class="b" d="M403.068,143.072a.834.834,0,0,0,1.374-.947l-.694.464.691-.468a.835.835,0,0,0-1.382.937Zm0,0" transform="translate(-358.089 -125.984)"/><path class="b" d="M436.681,229.028a.834.834,0,0,0-.736.923l0,.036a.835.835,0,0,0,.825.716.854.854,0,0,0,.119-.008.84.84,0,0,0-.213-1.667Zm0,0" transform="translate(-387.441 -203.543)"/><path class="b" d="M429.673,199.356l0,.011a.834.834,0,0,0,.8.6.822.822,0,0,0,.236-.034.834.834,0,0,0,.565-1.036l0-.011a.834.834,0,1,0-1.6.471Zm0,0" transform="translate(-381.841 -176.226)"/><path class="b" d="M418.623,170.17a.839.839,0,0,0,.753.468.834.834,0,0,0,.747-1.2l-.756.352.755-.354a.834.834,0,0,0-1.511.708Zm0,0" transform="translate(-371.969 -150.16)"/><path class="b" d="M383.441,118.777a.84.84,0,1,0-.025-.026Zm0,0" transform="translate(-340.563 -104.295)"/><path class="b" d="M438.176,260.384a.84.84,0,0,0-.071,1.677h.047a.835.835,0,0,0,.832-.788v-.034A.833.833,0,0,0,438.176,260.384Zm0,0" transform="translate(-388.664 -231.416)"/><path class="b" d="M333.987,80.836l.02.011a.831.831,0,0,0,1.124-.343.837.837,0,0,0-.339-1.129l-.4.73.4-.732a.834.834,0,1,0-.8,1.463Zm0,0" transform="translate(-296.445 -70.451)"/><path class="b" d="M360.209,97.842l.013.01a.835.835,0,0,0,1.009-1.33l-.006,0a.834.834,0,1,0-1.016,1.324Zm0,0" transform="translate(-319.844 -85.627)"/><path class="b" d="M56.446,41.6l-3.917-3.924a1.762,1.762,0,0,0-2.495,0l-.091.091-.257-.257a3.368,3.368,0,0,1-.731-1.093.813.813,0,0,0-.06-.155,3.374,3.374,0,0,1-.194-1.133v-1.11a.84.84,0,1,0-.005-1.483A4.7,4.7,0,0,0,47.318,29.4l-3.8-3.806a4.509,4.509,0,0,0-5.765-.518l-.4-.405V15.126A4.738,4.738,0,0,0,36.174,12a3.367,3.367,0,0,1-.836-2.222v-.7H35.4a1.766,1.766,0,0,0,1.764-1.764V1.764A1.766,1.766,0,0,0,35.4,0H19.809a1.766,1.766,0,0,0-1.764,1.764v5.55a1.766,1.766,0,0,0,1.764,1.764h.129v.366a3.348,3.348,0,0,1-.985,2.381l-1.682,1.685a4.707,4.707,0,0,0-1.384,3.348v5.383a4.5,4.5,0,0,0,.485,2.034,4.48,4.48,0,0,0-2.928,1.316L9.643,29.4a4.708,4.708,0,0,0-1.384,3.348v2.383a3.347,3.347,0,0,1-.984,2.381l-.254.255,0,0-.09-.091a1.762,1.762,0,0,0-2.495,0L.515,41.6a1.769,1.769,0,0,0,0,2.5l1.342,1.343A.834.834,0,1,0,3.037,44.26L1.7,42.917a.1.1,0,0,1,0-.137l3.917-3.924a.094.094,0,0,1,.133,0l.681.682h0l9.3,9.315L16.768,49.9a.1.1,0,0,1,0,.137l-3.917,3.924a.094.094,0,0,1-.133,0L5.4,46.627a.834.834,0,1,0-1.181,1.179l7.319,7.331a1.762,1.762,0,0,0,2.495,0l3.917-3.924a1.768,1.768,0,0,0,0-2.495l-.043-.043.494-.495a3.353,3.353,0,0,1,2.159-.979A4.721,4.721,0,0,0,23.6,45.824l3.6-3.606a2.857,2.857,0,0,0,2.065-2.176,2.845,2.845,0,0,0,4.065-2.574V35.486a2.844,2.844,0,0,0,4.023-2.594V27.035l2.567,2.579A.834.834,0,0,0,41.1,28.437l-2.14-2.15a2.842,2.842,0,0,1,3.378.485l3.8,3.806a3.05,3.05,0,0,1,.9,2.169v2.383a5.006,5.006,0,0,0,1.472,3.56l.259.259-1.21,1.212-7.32,7.333-.408-.409-.013-.012L39.741,47a5.024,5.024,0,0,0-3.231-1.465,3.06,3.06,0,0,1-1.968-.893L31.8,41.916A.834.834,0,1,0,30.624,43.1l2.74,2.725A4.722,4.722,0,0,0,36.4,47.2a3.354,3.354,0,0,1,2.158.978l.04.04a.8.8,0,0,0,.069.07l.385.385-.043.043a1.768,1.768,0,0,0,0,2.495l3.917,3.924a1.763,1.763,0,0,0,2.5,0L56.446,44.1A1.768,1.768,0,0,0,56.446,41.6Zm-7.185-8.3-.016,0-.152-.031ZM22.416,44.645a3.054,3.054,0,0,1-1.965.891A5.024,5.024,0,0,0,17.22,47l-.492.493-.443-.444-.017-.017L8.2,38.949l.259-.259a5.006,5.006,0,0,0,1.472-3.56V32.746a3.049,3.049,0,0,1,.9-2.169l3.8-3.806a2.841,2.841,0,0,1,3.382-.482l-2.143,2.147a.834.834,0,0,0,1.181,1.179L19.6,27.05V37.467a2.845,2.845,0,0,0,4.081,2.567A2.859,2.859,0,0,0,25.1,41.955ZM35.681,32.892a1.177,1.177,0,1,1-2.355,0V23.585a.834.834,0,1,0-1.669,0V37.467a1.176,1.176,0,0,1-2.337.2V23.576a.843.843,0,0,0-1.686.01V37.467a2.86,2.86,0,0,0,.017.313v1.681a1.177,1.177,0,1,1-2.354,0v-15.9a.835.835,0,0,0-1.669,0v13.9a1.177,1.177,0,1,1-2.354,0V21.946a.834.834,0,1,0-1.669,0v2.871a.819.819,0,0,0-.2.1,2.855,2.855,0,0,1-1.849-2.67V16.859a3.05,3.05,0,0,1,.9-2.169l1.682-1.685a5,5,0,0,0,1.472-3.56V9.079h1.677a.834.834,0,0,0,0-1.669H19.809a.1.1,0,0,1-.1-.1V1.764a.1.1,0,0,1,.1-.1H35.395a.1.1,0,0,1,.1.1v5.55a.1.1,0,0,1-.1.1H27.2a.834.834,0,1,0,0,1.669h6.468v.7a5.038,5.038,0,0,0,1.25,3.323,3.068,3.068,0,0,1,.762,2.024ZM55.265,42.917,44.243,53.957a.089.089,0,0,1-.066.028.091.091,0,0,1-.066-.028l-3.917-3.924a.1.1,0,0,1,0-.137l.631-.632h0l6.4-6.409,3.992-4a.093.093,0,0,1,.133,0l3.917,3.924A.1.1,0,0,1,55.265,42.917Zm0,0" transform="translate(0)"/><path class="b" d="M194.7,32.8a.89.89,0,1,0,.889.89A.89.89,0,0,0,194.7,32.8Zm0,0" transform="translate(-172.254 -29.155)"/><path class="b" d="M456.3,374.688a.89.89,0,1,0,.888.89A.89.89,0,0,0,456.3,374.688Zm0,0" transform="translate(-404.748 -333.003)"/><path class="b" d="M110.789,444.093a.889.889,0,1,0-.888.89A.89.89,0,0,0,110.789,444.093Zm0,0" transform="translate(-96.884 -393.896)"/></g></g></svg>