<svg xmlns="http://www.w3.org/2000/svg" width="82" height="82" viewBox="0 0 82 82"><defs><style>.a{fill:#f5f7f9;}.b{fill:#e20613;}</style></defs><g transform="translate(-933 -4834)"><circle class="a" cx="41" cy="41" r="41" transform="translate(933 4834)"/><g transform="translate(949 4825.49)"><path class="b" d="M44.423,35.3h-7.51V29.9a3.4,3.4,0,0,0-3.389-3.393H15.535A3.4,3.4,0,0,0,12.147,29.9v5.4H4.637A4.642,4.642,0,0,0,0,39.936V65.849a4.642,4.642,0,0,0,4.633,4.64H44.426a4.642,4.642,0,0,0,4.633-4.64V39.936A4.642,4.642,0,0,0,44.423,35.3Zm-30.36-5.4a1.476,1.476,0,0,1,1.472-1.477H33.524A1.476,1.476,0,0,1,35,29.9v5.4H32.51V31.88a.958.958,0,0,0-.958-.958H17.508a.958.958,0,0,0-.958.958V35.3H14.063Zm4.4,5.4V32.838H30.593V35.3ZM1.916,39.936a2.723,2.723,0,0,1,2.72-2.72H44.423a2.723,2.723,0,0,1,2.72,2.72v8.886a5.368,5.368,0,0,1-5.362,5.362h-1.03V50.12a.958.958,0,0,0-.958-.958H33.96A.958.958,0,0,0,33,50.12v4.064H16.058V50.12a.958.958,0,0,0-.958-.958H9.266a.958.958,0,0,0-.958.958v4.064H7.278a5.368,5.368,0,0,1-5.362-5.362ZM38.835,51.078v7.17H34.918v-7.17Zm-24.693,0v7.17H10.225v-7.17Zm33,14.771a2.723,2.723,0,0,1-2.717,2.724H4.633a2.723,2.723,0,0,1-2.717-2.724V53.739A7.261,7.261,0,0,0,7.278,56.1h1.03v3.106a.958.958,0,0,0,.958.958H15.1a.958.958,0,0,0,.958-.958V56.1H33v3.106a.958.958,0,0,0,.958.958h5.833a.958.958,0,0,0,.958-.958V56.1h1.03a7.26,7.26,0,0,0,5.362-2.362v12.11Z" transform="translate(0 0)"/><path class="b" d="M128.343,173.64h22.731a.958.958,0,0,0,0-1.916H128.343a.958.958,0,1,0,0,1.916Z" transform="translate(-115.179 -131.3)"/></g></g></svg>