<svg xmlns="http://www.w3.org/2000/svg" width="82" height="82" viewBox="0 0 82 82"><defs><style>.a{fill:#f5f7f9;}.b{fill:#e20613;}</style></defs><g transform="translate(-105 -4834)"><circle class="a" cx="41" cy="41" r="41" transform="translate(105 4834)"/><g transform="translate(126.352 4852)"><path class="b" d="M23.363,35.726A12.363,12.363,0,1,1,35.726,23.363,12.377,12.377,0,0,1,23.363,35.726Zm0-22.824A10.461,10.461,0,1,0,33.824,23.363,10.473,10.473,0,0,0,23.363,12.9Z" transform="translate(9.922 9.922)"/><path class="b" d="M18.755,24.51a.961.961,0,0,1-.673-.278l-3.8-3.8a.951.951,0,1,1,1.345-1.345l3.085,3.085L24.7,15.325a.951.951,0,0,1,1.432,1.252L19.47,24.185a.958.958,0,0,1-.685.325h-.03Z" transform="translate(12.628 13.53)"/><path class="b" d="M18.069,37.236H4.755A4.76,4.76,0,0,1,0,32.481V7.755A4.76,4.76,0,0,1,4.755,3h3.8a.951.951,0,1,1,0,1.9h-3.8A2.857,2.857,0,0,0,1.9,7.755V32.481a2.857,2.857,0,0,0,2.853,2.853H18.069a.951.951,0,0,1,0,1.9Z" transform="translate(0 2.706)"/><path class="b" d="M20.559,14.412a.951.951,0,0,1-.951-.951V7.755A2.857,2.857,0,0,0,16.755,4.9h-3.8a.951.951,0,1,1,0-1.9h3.8A4.76,4.76,0,0,1,21.51,7.755v5.706A.951.951,0,0,1,20.559,14.412Z" transform="translate(10.824 2.706)"/><path class="b" d="M18.265,11.412H6.853A2.857,2.857,0,0,1,4,8.559v-3.8A.951.951,0,0,1,4.951,3.8H7.9a4.756,4.756,0,0,1,9.32,0h2.948a.951.951,0,0,1,.951.951v3.8A2.857,2.857,0,0,1,18.265,11.412ZM5.9,5.706V8.559a.953.953,0,0,0,.951.951H18.265a.953.953,0,0,0,.951-.951V5.706H16.363a.951.951,0,0,1-.951-.951,2.853,2.853,0,0,0-5.706,0,.951.951,0,0,1-.951.951Z" transform="translate(3.608)"/><path class="b" d="M22.971,9.9H3.951a.951.951,0,1,1,0-1.9h19.02a.951.951,0,0,1,0,1.9Z" transform="translate(2.706 7.216)"/><path class="b" d="M17.265,12.9H3.951a.951.951,0,1,1,0-1.9H17.265a.951.951,0,1,1,0,1.9Z" transform="translate(2.706 9.922)"/><path class="b" d="M13.461,15.9H3.951a.951.951,0,0,1,0-1.9h9.51a.951.951,0,0,1,0,1.9Z" transform="translate(2.706 12.628)"/></g></g></svg>