<svg width="63" height="66" viewBox="0 0 63 66" fill="none" xmlns="http://www.w3.org/2000/svg">
<path d="M28.573 36.2582L25.2417 32.7825L22.6523 35.4828L28.573 41.6589L40.7756 28.9274L38.1862 26.2271L28.573 36.2582Z" fill="#E20613"/>
<path d="M31.7133 11.4585C20.5443 11.4585 11.457 20.9396 11.457 32.5928C11.457 44.2459 20.5443 53.727 31.7133 53.727C42.8823 53.727 51.9696 44.2459 51.9696 32.5928C51.9696 20.9396 42.8823 11.4585 31.7133 11.4585ZM28.5724 47.0608L17.4753 35.4828L25.2411 27.3805L28.5724 30.8562L38.1856 20.825L45.9513 28.9274L28.5724 47.0608Z" fill="#E20613"/>
<path d="M53.8023 9.54607C47.9024 3.39039 40.0573 0 31.7132 0C23.3691 0 15.524 3.39039 9.6241 9.54607C3.72416 15.7017 0.474609 23.8868 0.474609 32.5926C0.474609 41.2984 3.72416 49.4835 9.6241 55.6391C15.524 61.7948 23.3691 65.1852 31.7132 65.1852C40.0573 65.1852 47.9024 61.7948 53.8023 55.6391C59.7023 49.4835 62.9518 41.2984 62.9518 32.5926C62.9518 23.8868 59.7023 15.7017 53.8023 9.54607ZM31.7132 57.5463C18.5259 57.5463 7.79616 46.3515 7.79616 32.5926C7.79616 18.8337 18.5259 7.63889 31.7132 7.63889C44.9005 7.63889 55.6303 18.8337 55.6303 32.5926C55.6303 46.3515 44.9005 57.5463 31.7132 57.5463Z" fill="#ACB1BF"/>
</svg>
