<svg width="24" height="24" viewBox="0 0 24 24" fill="none" xmlns="http://www.w3.org/2000/svg">
<path d="M12 1C8.686 1 6 3.686 6 7C6 11.286 12 18 12 18C12 18 18 11.286 18 7C18 3.686 15.314 1 12 1ZM12 4.85742C13.184 4.85742 14.1426 5.816 14.1426 7C14.1426 8.183 13.183 9.14258 12 9.14258C10.817 9.14258 9.85742 8.184 9.85742 7C9.85742 5.816 10.816 4.85742 12 4.85742ZM7.48047 15.4355C4.23147 16.0955 2 17.442 2 19C2 21.209 6.477 23 12 23C17.523 23 22 21.209 22 19C22 17.442 19.7685 16.0965 16.5195 15.4355C16.0675 16.0965 15.6248 16.7024 15.2168 17.2324C17.9488 17.6464 19.5662 18.512 19.9492 18.998C19.4342 19.652 16.696 20.998 12.002 20.998L12 21.002L11.998 21C7.30405 21 4.56678 19.655 4.05078 19C4.43378 18.513 6.0502 17.6454 8.7832 17.2324C8.3752 16.7014 7.93247 16.0955 7.48047 15.4355Z" fill="white"/>
</svg>
