<svg width="10" height="10" viewBox="0 0 30 30" fill="none" xmlns="http://www.w3.org/2000/svg">
<circle cx="15" cy="15" r="15" fill="white"/>
<path d="M22.5 16.3V21.85H19.3V16.65C19.3 15.35 18.85 14.45 17.65 14.45C16.75 14.45 16.25 15.05 16 15.65C15.9 15.85 15.9 16.15 15.9 16.45V21.85H12.7C12.7 21.85 12.75 13.1 12.7 12.2H15.9V13.55C15.9 13.55 15.9 13.55 15.9 13.6V13.55C16.35 12.9 17.1 11.95 18.8 11.95C20.9 11.95 22.5 13.3 22.5 16.3ZM9.3 7.5C8.2 7.5 7.5 8.2 7.5 9.15C7.5 10.1 8.2 10.8 9.3 10.8C10.4 10.8 11.1 10.05 11.1 9.15C11.1 8.25 10.4 7.5 9.3 7.5ZM7.64999 21.85H10.85V12.15H7.64999V21.85Z" fill="#494949"/>
</svg>
