<svg width="190" height="30" viewBox="0 0 190 30" fill="none" xmlns="http://www.w3.org/2000/svg">
<g clip-path="url(#clip0)">
<path d="M0 1.34009H5.05349L12.8949 21.3383L20.7023 1.34009H25.6422L14.8312 27.5388H10.8167L0 1.34009Z" fill="white"/>
<path d="M31.7575 27.7999C30.3436 27.7999 29.0263 27.55 27.7999 27.056C26.5734 26.5621 25.5059 25.8693 24.6031 24.9779C23.6946 24.0864 22.9849 23.0133 22.4625 21.7641C21.9458 20.5149 21.6846 19.1351 21.6846 17.6191V17.5453C21.6846 16.1314 21.9174 14.8084 22.3887 13.5706C22.8599 12.3328 23.5243 11.2483 24.376 10.3171C25.2334 9.38585 26.2384 8.65906 27.4024 8.12532C28.5664 7.59158 29.8553 7.32471 31.2692 7.32471C32.8306 7.32471 34.1991 7.61429 35.3801 8.1821C36.5555 8.75558 37.5321 9.52212 38.31 10.4874C39.0936 11.4527 39.6841 12.5769 40.0816 13.8488C40.4733 15.1207 40.6721 16.4664 40.6721 17.8803C40.6721 18.079 40.6664 18.2834 40.655 18.4935C40.6437 18.7093 40.621 18.925 40.5983 19.1465H26.1816C26.4314 20.7591 27.0674 21.9912 28.0951 22.8486C29.1229 23.7003 30.3664 24.1262 31.8313 24.1262C32.9442 24.1262 33.9095 23.9274 34.7271 23.5356C35.5448 23.1382 36.3511 22.5533 37.1403 21.7868L39.7806 24.1262C38.8381 25.2447 37.7195 26.1305 36.4192 26.8062C35.1189 27.4649 33.5688 27.7999 31.7575 27.7999ZM36.2205 16.1655C36.1466 15.45 35.982 14.7687 35.7378 14.1384C35.4937 13.5025 35.153 12.963 34.7328 12.5031C34.3126 12.0489 33.8073 11.6798 33.2281 11.4072C32.6433 11.1347 31.9846 10.9984 31.2408 10.9984C29.8553 10.9984 28.7084 11.4754 27.8055 12.4293C26.9027 13.3832 26.3463 14.6267 26.1475 16.1655H36.2205Z" fill="white"/>
<path d="M42.5232 7.72788H47.0543V12.1511C47.6732 10.6635 48.5533 9.47673 49.6946 8.58527C50.8359 7.69382 52.2725 7.28499 54.01 7.35881V12.117H53.7488C52.7551 12.117 51.8523 12.276 51.0346 12.5997C50.217 12.9233 49.5129 13.4003 48.9167 14.0476C48.3205 14.6892 47.8663 15.5012 47.5426 16.4835C47.219 17.4658 47.06 18.5957 47.06 19.8847V27.3513H42.5289V7.72788H42.5232Z" fill="white"/>
<path d="M56.0938 0.448608H60.9599V4.71853H56.0938V0.448608ZM56.2754 7.72791H60.8065V27.3514H56.2754V7.72791Z" fill="white"/>
<path d="M65.332 11.5946H62.8394V7.84143H65.332V6.43327C65.332 4.25288 65.8658 2.62895 66.9276 1.56147C67.9667 0.522384 69.443 0 71.3508 0C72.1457 0 72.8214 0.0511027 73.3949 0.14763C73.9684 0.249836 74.4965 0.369075 74.9905 0.522384V4.31534C74.5476 4.16771 74.1274 4.04847 73.7186 3.9633C73.3098 3.87245 72.8669 3.83271 72.3729 3.83271C70.6524 3.83271 69.7893 4.82637 69.7893 6.80234V7.88118H74.9905V11.6003H69.8632V27.357H65.332V11.5946Z" fill="white"/>
<path d="M82.0028 0.448608H77.1367V4.71853H82.0028V0.448608Z" fill="white"/>
<path d="M81.8608 7.72791H77.324V27.3514H81.8608V7.72791Z" fill="white"/>
<path d="M94.1484 27.7999C92.6835 27.7999 91.3377 27.533 90.0942 26.9993C88.8507 26.4655 87.7776 25.7444 86.8634 24.8246C85.9549 23.9047 85.2395 22.8316 84.7285 21.5881C84.2174 20.3502 83.9619 19.0386 83.9619 17.6475V17.5737C83.9619 16.1825 84.2174 14.8652 84.7285 13.616C85.2395 12.3668 85.9549 11.2767 86.8634 10.3455C87.7719 9.41425 88.8564 8.68177 90.1113 8.13668C91.3605 7.59158 92.7175 7.31335 94.1825 7.31335C96.0392 7.31335 97.5836 7.62565 98.8101 8.24456C100.037 8.86347 101.11 9.68112 102.024 10.6975L99.236 13.7069C98.5432 12.9914 97.8051 12.4009 97.0215 11.941C96.2436 11.4811 95.284 11.2539 94.1427 11.2539C93.3251 11.2539 92.5699 11.4243 91.8715 11.7593C91.1788 12.0886 90.5826 12.5372 90.0886 13.0993C89.5946 13.6558 89.2028 14.3201 88.9189 15.0867C88.635 15.8532 88.493 16.6595 88.493 17.4998V17.5737C88.493 18.4424 88.635 19.26 88.9189 20.0266C89.2028 20.7931 89.6059 21.4631 90.1283 22.0309C90.6507 22.5988 91.2696 23.053 91.985 23.388C92.7005 23.723 93.4954 23.8877 94.3642 23.8877C95.426 23.8877 96.3629 23.6606 97.1691 23.2006C97.9754 22.7407 98.7363 22.1559 99.4574 21.4347L102.166 24.1091C101.201 25.1993 100.099 26.0851 98.8612 26.7665C97.6291 27.4592 96.0506 27.7999 94.1484 27.7999Z" fill="white"/>
<path d="M116.225 27.3513V24.9381C115.555 25.7331 114.703 26.4031 113.664 26.9482C112.625 27.4933 111.358 27.7658 109.871 27.7658C108.928 27.7658 108.037 27.6352 107.191 27.374C106.35 27.1129 105.612 26.7267 104.982 26.2214C104.346 25.7104 103.841 25.0858 103.455 24.3249C103.074 23.5697 102.881 22.6953 102.881 21.7016V21.6278C102.881 20.5376 103.08 19.5894 103.477 18.7888C103.875 17.9825 104.426 17.3125 105.13 16.7844C105.834 16.2507 106.68 15.8532 107.656 15.592C108.633 15.3308 109.695 15.2002 110.836 15.2002C112.028 15.2002 113.034 15.2741 113.868 15.4217C114.697 15.5693 115.492 15.768 116.264 16.0179V15.6488C116.264 14.2861 115.85 13.247 115.021 12.5259C114.192 11.8104 112.999 11.447 111.432 11.447C110.319 11.447 109.326 11.5606 108.457 11.782C107.588 12.0035 106.714 12.3044 105.817 12.6735L104.59 9.06791C105.68 8.57391 106.793 8.17645 107.935 7.87551C109.076 7.58025 110.45 7.43262 112.057 7.43262C114.981 7.43262 117.15 8.15373 118.558 9.60732C119.972 11.0552 120.676 13.0937 120.676 15.7169V27.3513H116.225ZM116.338 19.1408C115.765 18.9194 115.095 18.732 114.311 18.5844C113.533 18.4367 112.71 18.3629 111.841 18.3629C110.427 18.3629 109.326 18.6355 108.531 19.1806C107.736 19.7257 107.344 20.4695 107.344 21.4121V21.4859C107.344 22.4284 107.707 23.1439 108.44 23.6379C109.167 24.1319 110.07 24.3817 111.137 24.3817C111.881 24.3817 112.568 24.2852 113.198 24.0864C113.828 23.8877 114.379 23.6095 114.851 23.2518C115.316 22.894 115.685 22.4625 115.946 21.9515C116.208 21.4461 116.338 20.8783 116.338 20.2594V19.1408Z" fill="white"/>
<path d="M129.227 27.6863C128.41 27.6863 127.649 27.5841 126.951 27.3854C126.252 27.1866 125.645 26.863 125.134 26.4201C124.623 25.9715 124.225 25.3867 123.953 24.6542C123.68 23.9217 123.538 23.0133 123.538 21.9231V11.5946H121.051V7.72786H123.538V2.33936H128.075V7.72786H133.355V11.5946H128.075V21.219C128.075 22.0877 128.285 22.7123 128.711 23.0927C129.131 23.4789 129.727 23.6719 130.494 23.6719C131.459 23.6719 132.39 23.4448 133.282 23.0019V26.687C132.714 27.0106 132.106 27.2548 131.459 27.4308C130.812 27.6011 130.068 27.6863 129.227 27.6863Z" fill="#BFBDBD"/>
<path d="M135.422 0.448608H140.288V4.71853H135.422V0.448608ZM135.61 7.72791H140.141V27.3514H135.61V7.72791Z" fill="#BFBDBD"/>
<path d="M141.157 7.72791H145.989L151.27 22.1502L156.585 7.72791H161.303L153.274 27.499H149.22L141.157 7.72791Z" fill="#BFBDBD"/>
<path d="M175.453 0.408813C167.413 0.408813 160.9 6.92725 160.9 14.9561C160.9 17.8803 161.763 20.6001 163.251 22.8827C163.182 22.5079 163.143 22.1161 163.143 21.7016V21.6278C163.143 20.5376 163.341 19.5894 163.739 18.7888C164.136 17.9825 164.687 17.3125 165.391 16.7844C166.095 16.2507 166.941 15.8532 167.918 15.592C168.9 15.3308 169.956 15.2002 171.098 15.2002C172.29 15.2002 173.295 15.274 174.124 15.4217C174.953 15.5693 175.754 15.768 176.52 16.0179V15.6488C176.52 14.286 176.106 13.247 175.277 12.5258C174.448 11.8104 173.25 11.447 171.688 11.447C170.575 11.447 169.582 11.5606 168.713 11.782C167.844 12.0035 166.964 12.3044 166.073 12.6735L164.852 9.06789C165.942 8.5739 167.055 8.17643 168.196 7.87549C169.332 7.58023 170.712 7.4326 172.319 7.4326C175.243 7.4326 177.412 8.15372 178.82 9.60731C180.234 11.0552 180.938 13.0937 180.938 15.7169V27.3513H176.481V24.9381C175.811 25.7331 174.953 26.4031 173.914 26.9482C172.875 27.4933 171.609 27.7658 170.121 27.7658C169.44 27.7658 168.792 27.6977 168.162 27.5614C170.303 28.8049 172.79 29.5203 175.447 29.5203C183.482 29.5203 189.994 23.0019 189.994 14.9674C190 6.92158 183.487 0.408813 175.453 0.408813Z" fill="white"/>
<path d="M171.393 24.3817C172.137 24.3817 172.824 24.2852 173.454 24.0864C174.084 23.8877 174.635 23.6095 175.107 23.2517C175.578 22.894 175.941 22.4625 176.202 21.9515C176.464 21.4461 176.594 20.8783 176.594 20.2594V19.1408C176.026 18.9194 175.351 18.732 174.567 18.5844C173.789 18.4367 172.966 18.3629 172.097 18.3629C170.683 18.3629 169.582 18.6355 168.787 19.1806C167.992 19.7257 167.6 20.4695 167.6 21.412V21.4859C167.6 22.4284 167.963 23.1439 168.696 23.6379C169.428 24.1318 170.326 24.3817 171.393 24.3817Z" fill="white"/>
</g>
<defs>
<clipPath id="clip0">
<rect width="190" height="29.5147" fill="white"/>
</clipPath>
</defs>
</svg>


