<svg width="30" height="30" viewBox="0 0 30 30" fill="none" xmlns="http://www.w3.org/2000/svg">
<circle cx="15" cy="15" r="15" fill="white"/>
<path d="M23.7907 9.53284C23.2654 8.59855 22.6954 8.42669 21.5348 8.36134C20.3754 8.28268 17.46 8.25 14.9342 8.25C12.4037 8.25 9.48701 8.28268 8.32882 8.36013C7.17063 8.42669 6.5994 8.59734 6.06932 9.53284C5.52835 10.4659 5.25 12.0731 5.25 14.9026C5.25 14.905 5.25 14.9062 5.25 14.9062C5.25 14.9087 5.25 14.9099 5.25 14.9099V14.9123C5.25 17.7297 5.52835 19.349 6.06932 20.2724C6.5994 21.2067 7.16942 21.3761 8.32761 21.4548C9.48701 21.5226 12.4037 21.5625 14.9342 21.5625C17.46 21.5625 20.3754 21.5226 21.536 21.456C22.6966 21.3773 23.2667 21.2079 23.7919 20.2736C24.3377 19.3502 24.6136 17.7309 24.6136 14.9135C24.6136 14.9135 24.6136 14.9099 24.6136 14.9075C24.6136 14.9075 24.6136 14.905 24.6136 14.9038C24.6136 12.0731 24.3377 10.4659 23.7907 9.53284ZM12.5114 18.5369V11.2756L18.5625 14.9062L12.5114 18.5369Z" fill="#494949"/>
</svg>
