<svg width="49" height="48" viewBox="0 0 49 48" fill="none" xmlns="http://www.w3.org/2000/svg">
<path d="M24.5 21.5625C30.4448 21.5625 35.2812 16.726 35.2812 10.7812C35.2812 4.83647 30.4448 0 24.5 0C18.5552 0 13.7188 4.83647 13.7188 10.7812C13.7188 16.726 18.5552 21.5625 24.5 21.5625Z" fill="#ACB1BF"/>
<path d="M26.8438 24.1719C26.0821 24.3048 25.2991 24.3748 24.5 24.3748C23.7009 24.3748 22.9179 24.3048 22.1562 24.1719V28.1248H22.9942L22.1998 38.9294L24.5 41.2298L26.8003 38.9294L26.0059 28.1248H26.8438V24.1719Z" fill="#E20613"/>
<path d="M33.971 20.5225C32.7358 21.7237 31.274 22.6925 29.6562 23.3582V28.1249H28.8259L29.6997 40.0077L24.5 45.2074L19.3003 40.0077L20.1741 28.1249H19.3438V23.3582C17.7261 22.6926 16.2642 21.7237 15.029 20.5225C11.7118 22.5943 9.5 26.2778 9.5 30.4687V47.9999H39.5V30.4687C39.5 26.2778 37.2882 22.5943 33.971 20.5225Z" fill="#ACB1BF"/>
</svg>
