<svg width="21" height="20" viewBox="0 0 21 20" fill="none" xmlns="http://www.w3.org/2000/svg">
<path d="M0.400146 10C0.400146 4.47715 4.8773 0 10.4001 0C15.923 0 20.4001 4.47715 20.4001 10C20.4001 15.5228 15.923 20 10.4001 20C4.8773 20 0.400146 15.5228 0.400146 10Z" fill="#A2F07B"/>
<path d="M14.7207 5.77066L8.3903 12.2191L6.07958 9.84077C5.95923 9.74269 5.76667 9.74269 5.67039 9.84077L4.97236 10.5518C4.87608 10.6499 4.87608 10.846 4.97236 10.9686L8.19774 14.2296C8.31809 14.3522 8.48658 14.3522 8.60693 14.2296L15.8279 6.874C15.9242 6.77592 15.9242 6.57977 15.8279 6.45718L15.1299 5.77066C15.0336 5.64806 14.8411 5.64806 14.7207 5.77066Z" fill="#444444"/>
</svg>
