<svg width="24" height="24" viewBox="0 0 24 24" fill="none" xmlns="http://www.w3.org/2000/svg">
<path d="M9.56836 1.36914L9.11328 2.40234L8.4082 3.99609L5.54883 4.25586L6.15234 7.0625L3.99219 8.95312L6.13086 10.8691L5.49414 13.6699L7 13.8242V22.9512L12 20.4512L17 22.9512V13.875L18.4512 13.7441L17.8477 10.9375L20.0078 9.04688L17.8691 7.13086L18.5059 4.33008L15.6484 4.03711L14.5176 1.39844L12.0352 2.83984L9.56836 1.36914ZM10.4844 4.24414L12.0215 5.16016L13.5703 4.26172L14.2754 5.90625L16.0566 6.08984L15.6582 7.83398L16.9902 9.0293L15.6445 10.207L16.0215 11.957L14.2383 12.1191L13.5156 13.7559L11.9785 12.8398L10.4297 13.7383L9.72461 12.0938L7.94336 11.9102L8.3418 10.166L7.00977 8.9707L8.35547 7.79297L7.97852 6.04297L9.76172 5.88086L10.4844 4.24414ZM11.9648 15.1602L14.4316 16.6309L15 15.3438V19.7148L12 18.2148L9 19.7148V15.4766L9.48242 16.6016L11.9648 15.1602Z" fill="#373737"/>
</svg>
