<svg width="96" height="97" viewBox="0 0 96 97" fill="none" xmlns="http://www.w3.org/2000/svg">
<path d="M43.1737 53.8981L38.0549 48.7794L34.0762 52.7563L43.1737 61.8519L61.9236 43.1019L57.9449 39.125L43.1737 53.8981Z" fill="#E20613"/>
<path d="M48 17.375C30.8381 17.375 16.875 31.3381 16.875 48.5C16.875 65.6619 30.8381 79.625 48 79.625C65.1619 79.625 79.125 65.6619 79.125 48.5C79.125 31.3381 65.1619 17.375 48 17.375ZM43.1737 69.8075L26.1225 52.7563L38.055 40.8237L43.1737 45.9425L57.945 31.1694L69.8775 43.1019L43.1737 69.8075Z" fill="#E20613"/>
<path d="M81.9412 14.5588C72.8756 5.49313 60.8212 0.5 48 0.5C35.1788 0.5 23.1244 5.49313 14.0588 14.5588C4.99313 23.6244 0 35.6788 0 48.5C0 61.3212 4.99313 73.3756 14.0588 82.4412C23.1244 91.5069 35.1788 96.5 48 96.5C60.8212 96.5 72.8756 91.5069 81.9412 82.4412C91.0069 73.3756 96 61.3212 96 48.5C96 35.6788 91.0069 23.6244 81.9412 14.5588V14.5588ZM48 85.25C27.7369 85.25 11.25 68.7631 11.25 48.5C11.25 28.2369 27.7369 11.75 48 11.75C68.2631 11.75 84.75 28.2369 84.75 48.5C84.75 68.7631 68.2631 85.25 48 85.25V85.25Z" fill="#ACB1BF"/>
</svg>
