<svg width="30" height="64" viewBox="0 0 30 64" fill="none" xmlns="http://www.w3.org/2000/svg">
<path d="M14.7812 36.8252C20.726 36.8252 25.5625 31.9887 25.5625 26.0439C25.5625 20.0992 20.726 15.2627 14.7812 15.2627C8.83647 15.2627 4 20.0992 4 26.0439C4 31.9887 8.83647 36.8252 14.7812 36.8252Z" fill="#ACB1BF"/>
<path d="M22.8873 10.0296L7.20266 10.0258L7.10895 10.0258L6.005 3.30564C5.9863 3.12972 6.06132 2.90105 6.36117 2.7604C6.66103 2.61974 6.90459 2.80744 7.03574 2.90129L10.4082 5.25935C10.4956 5.31215 10.7305 5.41423 10.9703 5.40022C11.2102 5.3862 11.4451 5.17165 11.5326 5.06612L14.3069 1.17911C14.4382 0.950455 14.5319 0.739382 15.0753 0.739514C15.4501 0.739605 15.6687 1.03285 15.7311 1.17946L18.4099 4.99743C18.4973 5.12645 18.7508 5.38804 19.0656 5.40219C19.3804 5.41634 19.6091 5.27918 19.6841 5.20884L23.0764 2.83483C23.1701 2.76449 23.4363 2.66604 23.751 2.83499C24.0658 3.00395 24.0195 3.40971 23.957 3.59147L22.8873 10.0296Z" fill="#E20613"/>
<path d="M22.887 11.2786L7.10864 11.2748C7.10851 11.8318 7.11572 12.9847 7.14567 13.1395C7.1831 13.333 7.21684 13.3886 7.37043 13.5617C7.4641 13.6673 7.72643 13.7319 7.82013 13.7377L22.1743 13.7412C22.2492 13.7354 22.4441 13.6885 22.6241 13.5478C22.804 13.4072 22.874 13.2078 22.8865 13.1257L22.887 11.2786Z" fill="#E20613"/>
<path d="M17.6875 39.4346C16.9259 39.5675 16.1429 39.6374 15.3438 39.6374C14.5446 39.6374 13.7616 39.5675 13 39.4346V43.3874H13.8379L13.0435 54.1921L15.3438 56.4925L17.6441 54.1921L16.8497 43.3874H17.6875V39.4346Z" fill="#E20613"/>
<path d="M24.471 35.7852C23.2358 36.9864 21.774 37.9552 20.1562 38.6209V43.3876H19.3259L20.1997 55.2704L15 60.4701L9.80034 55.2704L10.6741 43.3876H9.84375V38.6209C8.22609 37.9553 6.76416 36.9864 5.529 35.7852C2.21184 37.857 0 41.5405 0 45.7314V63.2626H30V45.7314C30 41.5405 27.7882 37.857 24.471 35.7852Z" fill="#ACB1BF"/>
</svg>
