<svg width="141" height="24" viewBox="0 0 141 24" fill="none" xmlns="http://www.w3.org/2000/svg">
<g clip-path="url(#clip0_1639:6136)">
<path d="M8.66827 8.26134C10.9459 8.26134 12.7989 6.40832 12.7989 4.13067C12.7989 1.85302 10.9459 0 8.66827 0C6.39062 0 4.5376 1.85302 4.5376 4.13067C4.5376 6.40832 6.39062 8.26134 8.66827 8.26134Z" fill="#ACB1BF"/>
<path d="M15.3909 11.8951C14.8283 10.0537 13.2557 8.64926 11.3215 8.3302L9.37286 11.1046V17.1834H7.964V11.1046L6.01522 8.3302C3.58377 8.7313 1.72314 10.8479 1.72314 13.3912V22.4588H11.6636C10.8809 21.3406 10.4209 19.9807 10.4209 18.5152C10.4209 15.3815 12.5229 12.7298 15.3909 11.8951ZM6.34137 14.5316H4.78083V12.9711H6.34137V14.5316Z" fill="#ACB1BF"/>
<path d="M17.3144 13.0305C16.7204 13.0305 16.1484 13.1258 15.6123 13.3012C13.4187 14.019 11.8296 16.0849 11.8296 18.5152C11.8296 20.0618 12.4732 21.4608 13.5065 22.4588C14.4938 23.4124 15.8367 24 17.3144 24C20.3387 24 22.7991 21.5395 22.7991 18.5152C22.7991 15.4909 20.3387 13.0305 17.3144 13.0305ZM16.7284 20.856L15.6135 19.7411L14.7132 18.8408L15.6135 17.9405L15.7094 17.8446L16.7284 18.8636L18.9194 16.6727L19.9156 17.6689L16.7284 20.856Z" fill="#E20613"/>
</g>
<path d="M40.1992 14.214C40.1992 14.7367 40.0639 15.2173 39.7932 15.656C39.5319 16.0947 39.1399 16.4447 38.6172 16.706C38.1039 16.9673 37.4786 17.098 36.7412 17.098C35.6306 17.098 34.7159 16.8273 33.9972 16.286C33.2786 15.7447 32.8866 14.9887 32.8212 14.018H35.3692C35.4066 14.3913 35.5372 14.6853 35.7612 14.9C35.9946 15.1147 36.2886 15.222 36.6432 15.222C36.9512 15.222 37.1939 15.138 37.3712 14.97C37.5486 14.802 37.6372 14.578 37.6372 14.298C37.6372 14.046 37.5532 13.836 37.3852 13.668C37.2266 13.5 37.0259 13.3647 36.7832 13.262C36.5406 13.15 36.2046 13.0193 35.7752 12.87C35.1499 12.6553 34.6366 12.45 34.2352 12.254C33.8432 12.0487 33.5026 11.75 33.2132 11.358C32.9332 10.9567 32.7932 10.4387 32.7932 9.804C32.7932 9.216 32.9426 8.70733 33.2412 8.278C33.5399 7.84867 33.9506 7.522 34.4732 7.298C35.0052 7.06467 35.6119 6.948 36.2932 6.948C37.3946 6.948 38.2672 7.20933 38.9112 7.732C39.5646 8.25467 39.9332 8.97333 40.0172 9.888H37.4272C37.3806 9.56133 37.2592 9.30467 37.0632 9.118C36.8766 8.922 36.6199 8.824 36.2932 8.824C36.0132 8.824 35.7846 8.89867 35.6072 9.048C35.4392 9.19733 35.3552 9.41667 35.3552 9.706C35.3552 9.93933 35.4299 10.14 35.5792 10.308C35.7379 10.4667 35.9339 10.5973 36.1672 10.7C36.4006 10.8027 36.7366 10.9333 37.1752 11.092C37.8099 11.3067 38.3279 11.5213 38.7292 11.736C39.1306 11.9413 39.4759 12.2447 39.7652 12.646C40.0546 13.0473 40.1992 13.57 40.1992 14.214ZM45.1768 9.09C45.9514 9.09 46.6421 9.25333 47.2488 9.58C47.8648 9.89733 48.3454 10.3593 48.6908 10.966C49.0454 11.5727 49.2228 12.282 49.2228 13.094C49.2228 13.906 49.0454 14.6153 48.6908 15.222C48.3454 15.8287 47.8648 16.2953 47.2488 16.622C46.6421 16.9393 45.9514 17.098 45.1768 17.098C44.4021 17.098 43.7068 16.9393 43.0908 16.622C42.4748 16.2953 41.9894 15.8287 41.6348 15.222C41.2894 14.6153 41.1168 13.906 41.1168 13.094C41.1168 12.282 41.2894 11.5727 41.6348 10.966C41.9894 10.3593 42.4748 9.89733 43.0908 9.58C43.7068 9.25333 44.4021 9.09 45.1768 9.09ZM45.1768 11.162C44.7194 11.162 44.3321 11.33 44.0148 11.666C43.7068 11.9927 43.5528 12.4687 43.5528 13.094C43.5528 13.7193 43.7068 14.1953 44.0148 14.522C44.3321 14.8487 44.7194 15.012 45.1768 15.012C45.6341 15.012 46.0168 14.8487 46.3248 14.522C46.6328 14.1953 46.7868 13.7193 46.7868 13.094C46.7868 12.4687 46.6328 11.9927 46.3248 11.666C46.0168 11.33 45.6341 11.162 45.1768 11.162ZM52.2702 9.188L54.1462 13.976L55.8962 9.188H58.5422L53.6702 20.724H51.0382L52.8722 16.706L49.5962 9.188H52.2702ZM64.534 13.528V17H62.14V7.102H66.018C67.194 7.102 68.09 7.396 68.706 7.984C69.322 8.56267 69.63 9.34667 69.63 10.336C69.63 10.952 69.49 11.5027 69.21 11.988C68.9393 12.464 68.5333 12.842 67.992 13.122C67.4506 13.3927 66.7926 13.528 66.018 13.528H64.534ZM65.752 11.61C66.7133 11.61 67.194 11.1853 67.194 10.336C67.194 9.468 66.7133 9.034 65.752 9.034H64.534V11.61H65.752ZM74.4619 9.09C75.2366 9.09 75.9273 9.25333 76.5339 9.58C77.1499 9.89733 77.6306 10.3593 77.9759 10.966C78.3306 11.5727 78.5079 12.282 78.5079 13.094C78.5079 13.906 78.3306 14.6153 77.9759 15.222C77.6306 15.8287 77.1499 16.2953 76.5339 16.622C75.9273 16.9393 75.2366 17.098 74.4619 17.098C73.6873 17.098 72.9919 16.9393 72.3759 16.622C71.7599 16.2953 71.2746 15.8287 70.9199 15.222C70.5746 14.6153 70.4019 13.906 70.4019 13.094C70.4019 12.282 70.5746 11.5727 70.9199 10.966C71.2746 10.3593 71.7599 9.89733 72.3759 9.58C72.9919 9.25333 73.6873 9.09 74.4619 9.09ZM74.4619 11.162C74.0046 11.162 73.6173 11.33 73.2999 11.666C72.9919 11.9927 72.8379 12.4687 72.8379 13.094C72.8379 13.7193 72.9919 14.1953 73.2999 14.522C73.6173 14.8487 74.0046 15.012 74.4619 15.012C74.9193 15.012 75.3019 14.8487 75.6099 14.522C75.9179 14.1953 76.0719 13.7193 76.0719 13.094C76.0719 12.4687 75.9179 11.9927 75.6099 11.666C75.3019 11.33 74.9193 11.162 74.4619 11.162ZM82.5913 9.09C83.5807 9.09 84.3693 9.33733 84.9573 9.832C85.5547 10.3267 85.928 10.98 86.0773 11.792H83.8373C83.772 11.4747 83.6227 11.2273 83.3893 11.05C83.1653 10.8633 82.8807 10.77 82.5353 10.77C82.2647 10.77 82.0593 10.8307 81.9193 10.952C81.7793 11.064 81.7093 11.2273 81.7093 11.442C81.7093 11.6847 81.8353 11.8667 82.0873 11.988C82.3487 12.1093 82.7547 12.2307 83.3053 12.352C83.9027 12.492 84.3927 12.6367 84.7753 12.786C85.158 12.926 85.4893 13.1593 85.7693 13.486C86.0493 13.8127 86.1893 14.2513 86.1893 14.802C86.1893 15.25 86.068 15.6467 85.8253 15.992C85.5827 16.3373 85.2327 16.608 84.7753 16.804C84.318 17 83.7767 17.098 83.1513 17.098C82.0967 17.098 81.252 16.8647 80.6173 16.398C79.9827 15.9313 79.5953 15.264 79.4553 14.396H81.7653C81.8027 14.732 81.9427 14.9887 82.1853 15.166C82.4373 15.3433 82.7593 15.432 83.1513 15.432C83.422 15.432 83.6273 15.3713 83.7673 15.25C83.9073 15.1193 83.9773 14.9513 83.9773 14.746C83.9773 14.4753 83.8467 14.284 83.5853 14.172C83.3333 14.0507 82.918 13.9247 82.3393 13.794C81.7607 13.6727 81.2847 13.542 80.9113 13.402C80.538 13.262 80.216 13.038 79.9453 12.73C79.6747 12.4127 79.5393 11.9833 79.5393 11.442C79.5393 10.742 79.8053 10.1773 80.3373 9.748C80.8693 9.30933 81.6207 9.09 82.5913 9.09ZM91.939 14.942V17H90.861C89.9463 17 89.2323 16.776 88.719 16.328C88.215 15.8707 87.963 15.1193 87.963 14.074V11.204H86.913V9.188H87.963V7.27H90.357V9.188H91.925V11.204H90.357V14.116C90.357 14.424 90.4176 14.6387 90.539 14.76C90.6696 14.8813 90.8843 14.942 91.183 14.942H91.939ZM101.054 9.188V17H98.6465V15.586C98.4225 16.0433 98.0865 16.4073 97.6385 16.678C97.1998 16.9487 96.6865 17.084 96.0985 17.084C95.2025 17.084 94.4885 16.7853 93.9565 16.188C93.4338 15.5907 93.1725 14.7693 93.1725 13.724V9.188H95.5525V13.43C95.5525 13.962 95.6878 14.3773 95.9585 14.676C96.2385 14.9653 96.6118 15.11 97.0785 15.11C97.5638 15.11 97.9465 14.956 98.2265 14.648C98.5065 14.34 98.6465 13.9013 98.6465 13.332V9.188H101.054ZM105.098 6.64V17H102.704V6.64H105.098ZM109.719 9.09C110.317 9.09 110.83 9.22533 111.259 9.496C111.689 9.76667 112.006 10.1353 112.211 10.602V9.188H114.591V17H112.211V15.586C112.006 16.0527 111.689 16.4213 111.259 16.692C110.83 16.9627 110.317 17.098 109.719 17.098C109.075 17.098 108.497 16.9393 107.983 16.622C107.479 16.2953 107.078 15.8287 106.779 15.222C106.49 14.6153 106.345 13.906 106.345 13.094C106.345 12.2727 106.49 11.5633 106.779 10.966C107.078 10.3593 107.479 9.89733 107.983 9.58C108.497 9.25333 109.075 9.09 109.719 9.09ZM110.489 11.19C109.976 11.19 109.561 11.358 109.243 11.694C108.935 12.03 108.781 12.4967 108.781 13.094C108.781 13.6913 108.935 14.158 109.243 14.494C109.561 14.83 109.976 14.998 110.489 14.998C110.993 14.998 111.404 14.8253 111.721 14.48C112.048 14.1347 112.211 13.6727 112.211 13.094C112.211 12.506 112.048 12.044 111.721 11.708C111.404 11.3627 110.993 11.19 110.489 11.19ZM121.196 9.104C122.092 9.104 122.801 9.40267 123.324 10C123.856 10.5973 124.122 11.4187 124.122 12.464V17H121.728V12.744C121.728 12.2213 121.588 11.8153 121.308 11.526C121.037 11.2273 120.673 11.078 120.216 11.078C119.73 11.078 119.343 11.232 119.054 11.54C118.774 11.848 118.634 12.2867 118.634 12.856V17H116.24V9.188H118.634V10.616C118.858 10.1493 119.189 9.78067 119.628 9.51C120.076 9.23933 120.598 9.104 121.196 9.104ZM130.125 14.942V17H129.047C128.132 17 127.418 16.776 126.905 16.328C126.401 15.8707 126.149 15.1193 126.149 14.074V11.204H125.099V9.188H126.149V7.27H128.543V9.188H130.111V11.204H128.543V14.116C128.543 14.424 128.603 14.6387 128.725 14.76C128.855 14.8813 129.07 14.942 129.369 14.942H130.125ZM138.89 12.884C138.89 13.08 138.867 13.2947 138.82 13.528H133.402C133.43 14.116 133.579 14.5407 133.85 14.802C134.121 15.054 134.466 15.18 134.886 15.18C135.241 15.18 135.535 15.0913 135.768 14.914C136.001 14.7367 136.155 14.508 136.23 14.228H138.764C138.661 14.7787 138.437 15.2733 138.092 15.712C137.747 16.1413 137.308 16.482 136.776 16.734C136.244 16.9767 135.651 17.098 134.998 17.098C134.233 17.098 133.551 16.9393 132.954 16.622C132.366 16.2953 131.904 15.8287 131.568 15.222C131.232 14.6153 131.064 13.906 131.064 13.094C131.064 12.2727 131.227 11.5633 131.554 10.966C131.89 10.3593 132.357 9.89733 132.954 9.58C133.551 9.25333 134.233 9.09 134.998 9.09C135.773 9.09 136.454 9.24867 137.042 9.566C137.63 9.88333 138.083 10.3313 138.4 10.91C138.727 11.4793 138.89 12.1373 138.89 12.884ZM136.468 12.52C136.477 12.0067 136.337 11.624 136.048 11.372C135.768 11.1107 135.418 10.98 134.998 10.98C134.559 10.98 134.195 11.1107 133.906 11.372C133.617 11.6333 133.453 12.016 133.416 12.52H136.468Z" fill="#343843"/>
<defs>
<clipPath id="clip0_1639:6136">
<rect width="24" height="24" fill="white" transform="translate(0.26123)"/>
</clipPath>
</defs>
</svg>
