<svg width="115" height="44" viewBox="0 0 115 44" fill="none" xmlns="http://www.w3.org/2000/svg">
<path d="M0 44H115V0H0V44Z" fill="#DD4B39"/>
<path d="M0 44H115V0H0V44Z" fill="#DD4B39"/>
<path d="M0 44H115V0H0V44Z" fill="#DD4B39"/>
<path d="M0 44H115V0H0V44Z" fill="#DD4B39"/>
<path d="M54.9283 10C57.0606 10 58.9989 10.5815 60.8404 11.6476C62.1004 12.3261 62.7788 13.1014 63.0696 13.2953C61.8096 14.5552 60.6466 15.7183 59.3866 16.9782C58.5144 16.2029 57.4482 15.4275 55.7037 15.2337C55.316 15.1367 55.0252 15.1367 54.6376 15.1367C51.1485 15.1367 48.2409 17.6566 47.3686 20.9519C47.1748 21.7273 47.1748 22.5026 47.1748 23.1811C47.4655 26.2825 49.5008 28.8024 52.3115 29.6747C52.9899 29.8685 53.7653 29.9654 54.5406 29.9654C54.7345 29.9654 54.9283 29.9654 55.0252 29.9654C56.3821 29.8685 57.5452 29.5778 58.7082 28.8024C60.5497 27.5424 61.2281 25.5071 61.2281 25.0225C60.8404 25.0225 54.8314 25.0225 54.5406 25.0225C54.5406 24.8287 54.5406 21.7273 54.5406 20.1766V19.9827C58.5144 19.9827 62.3911 19.9827 66.3648 19.9827C67.0433 23.6657 66.4618 27.5424 64.1357 30.547C62.585 32.6792 60.4527 33.9391 57.9328 34.6176C56.7698 34.9083 55.7037 35.0053 54.5406 35.0053C54.2499 35.0053 54.0561 35.0053 53.7653 35.0053C51.3423 34.9083 49.1132 34.133 47.0778 32.5823C44.5579 30.7408 42.9103 28.2209 42.2319 25.1195C42.038 24.0533 41.9411 22.9872 42.038 21.8242C42.2319 19.1104 43.2011 16.7844 44.9456 14.6521C46.6902 12.423 49.0162 11.0661 51.73 10.3877C52.4084 10.1938 53.0869 10.0969 53.7653 10.0969C54.153 10 54.5406 10 54.9283 10Z" fill="white"/>
</svg>
