<svg width="179" height="24" viewBox="0 0 179 24" fill="none" xmlns="http://www.w3.org/2000/svg">
<g clip-path="url(#clip0_1639:6132)">
<path d="M39.21 10.7815C42.1824 10.7815 44.6006 8.36326 44.6006 5.39087C44.6006 2.41848 42.1824 0.000244141 39.21 0.000244141C36.2376 0.000244141 33.8193 2.41848 33.8193 5.39087C33.8193 8.36326 36.2376 10.7815 39.21 10.7815Z" fill="#ACB1BF"/>
<path d="M40.3818 12.0864C40.001 12.1529 39.6095 12.1879 39.21 12.1879C38.8104 12.1879 38.4189 12.1529 38.0381 12.0864V14.0629H38.4571L38.0598 19.4652L39.21 20.6154L40.3601 19.4652L39.9629 14.0629H40.3818V12.0864Z" fill="#E20613"/>
<path d="M43.9455 10.2616C43.3279 10.8622 42.597 11.3466 41.7881 11.6795V14.0628H41.3729L41.8098 20.0042L39.21 22.6041L36.6101 20.0042L37.047 14.0628H36.6318V11.6795C35.823 11.3467 35.092 10.8622 34.4745 10.2616C32.8159 11.2975 31.71 13.1393 31.71 15.2347V24.0003H46.71V15.2347C46.71 13.1393 45.604 11.2975 43.9455 10.2616Z" fill="#ACB1BF"/>
</g>
<path d="M67.148 14.2142C67.148 14.7369 67.0126 15.2176 66.742 15.6562C66.4806 16.0949 66.0886 16.4449 65.566 16.7062C65.0526 16.9676 64.4273 17.0982 63.69 17.0982C62.5793 17.0982 61.6646 16.8276 60.946 16.2862C60.2273 15.7449 59.8353 14.9889 59.77 14.0182H62.318C62.3553 14.3916 62.486 14.6856 62.71 14.9002C62.9433 15.1149 63.2373 15.2222 63.592 15.2222C63.9 15.2222 64.1426 15.1382 64.32 14.9702C64.4973 14.8022 64.586 14.5782 64.586 14.2982C64.586 14.0462 64.502 13.8362 64.334 13.6682C64.1753 13.5002 63.9746 13.3649 63.732 13.2622C63.4893 13.1502 63.1533 13.0196 62.724 12.8702C62.0986 12.6556 61.5853 12.4502 61.184 12.2542C60.792 12.0489 60.4513 11.7502 60.162 11.3582C59.882 10.9569 59.742 10.4389 59.742 9.80424C59.742 9.21624 59.8913 8.70758 60.19 8.27824C60.4886 7.84891 60.8993 7.52224 61.422 7.29824C61.954 7.06491 62.5606 6.94824 63.242 6.94824C64.3433 6.94824 65.216 7.20958 65.86 7.73224C66.5133 8.25491 66.882 8.97358 66.966 9.88824H64.376C64.3293 9.56158 64.208 9.30491 64.012 9.11824C63.8253 8.92224 63.5686 8.82424 63.242 8.82424C62.962 8.82424 62.7333 8.89891 62.556 9.04824C62.388 9.19758 62.304 9.41691 62.304 9.70624C62.304 9.93958 62.3786 10.1402 62.528 10.3082C62.6866 10.4669 62.8826 10.5976 63.116 10.7002C63.3493 10.8029 63.6853 10.9336 64.124 11.0922C64.7586 11.3069 65.2766 11.5216 65.678 11.7362C66.0793 11.9416 66.4246 12.2449 66.714 12.6462C67.0033 13.0476 67.148 13.5702 67.148 14.2142ZM72.1255 9.09024C72.9002 9.09024 73.5908 9.25358 74.1975 9.58024C74.8135 9.89758 75.2942 10.3596 75.6395 10.9662C75.9942 11.5729 76.1715 12.2822 76.1715 13.0942C76.1715 13.9062 75.9942 14.6156 75.6395 15.2222C75.2942 15.8289 74.8135 16.2956 74.1975 16.6222C73.5908 16.9396 72.9002 17.0982 72.1255 17.0982C71.3508 17.0982 70.6555 16.9396 70.0395 16.6222C69.4235 16.2956 68.9382 15.8289 68.5835 15.2222C68.2382 14.6156 68.0655 13.9062 68.0655 13.0942C68.0655 12.2822 68.2382 11.5729 68.5835 10.9662C68.9382 10.3596 69.4235 9.89758 70.0395 9.58024C70.6555 9.25358 71.3508 9.09024 72.1255 9.09024ZM72.1255 11.1622C71.6682 11.1622 71.2808 11.3302 70.9635 11.6662C70.6555 11.9929 70.5015 12.4689 70.5015 13.0942C70.5015 13.7196 70.6555 14.1956 70.9635 14.5222C71.2808 14.8489 71.6682 15.0122 72.1255 15.0122C72.5828 15.0122 72.9655 14.8489 73.2735 14.5222C73.5815 14.1956 73.7355 13.7196 73.7355 13.0942C73.7355 12.4689 73.5815 11.9929 73.2735 11.6662C72.9655 11.3302 72.5828 11.1622 72.1255 11.1622ZM79.2189 9.18824L81.0949 13.9762L82.8449 9.18824H85.4909L80.6189 20.7242H77.9869L79.8209 16.7062L76.5449 9.18824H79.2189ZM91.4827 9.00624V11.0782H94.8287V12.8842H91.4827V15.0822H95.2487V17.0002H89.0887V7.10224H95.2487V9.00624H91.4827ZM106.73 9.10424C107.692 9.10424 108.448 9.40291 108.998 10.0002C109.549 10.5882 109.824 11.4096 109.824 12.4642V17.0002H107.444V12.7442C107.444 12.2496 107.309 11.8669 107.038 11.5962C106.777 11.3162 106.418 11.1762 105.96 11.1762C105.484 11.1762 105.106 11.3256 104.826 11.6242C104.556 11.9136 104.42 12.3242 104.42 12.8562V17.0002H102.026V12.7442C102.026 12.2496 101.896 11.8669 101.634 11.5962C101.373 11.3162 101.014 11.1762 100.556 11.1762C100.08 11.1762 99.7022 11.3209 99.4222 11.6102C99.1422 11.8996 99.0022 12.3149 99.0022 12.8562V17.0002H96.6082V9.18824H99.0022V10.5182C99.2076 10.0796 99.5202 9.73424 99.9402 9.48224C100.37 9.23024 100.869 9.10424 101.438 9.10424C102.036 9.10424 102.563 9.24424 103.02 9.52424C103.478 9.79491 103.823 10.1869 104.056 10.7002C104.327 10.2149 104.696 9.82758 105.162 9.53824C105.638 9.24891 106.161 9.10424 106.73 9.10424ZM116.287 9.09024C116.931 9.09024 117.505 9.25358 118.009 9.58024C118.522 9.89758 118.924 10.3596 119.213 10.9662C119.512 11.5636 119.661 12.2729 119.661 13.0942C119.661 13.9062 119.512 14.6156 119.213 15.2222C118.924 15.8289 118.522 16.2956 118.009 16.6222C117.505 16.9396 116.931 17.0982 116.287 17.0982C115.69 17.0982 115.176 16.9629 114.747 16.6922C114.318 16.4216 114.005 16.0529 113.809 15.5862V20.7242H111.415V9.18824H113.809V10.6022C114.005 10.1356 114.318 9.76691 114.747 9.49624C115.176 9.22558 115.69 9.09024 116.287 9.09024ZM115.517 11.1902C115.013 11.1902 114.598 11.3629 114.271 11.7082C113.954 12.0442 113.795 12.5062 113.795 13.0942C113.795 13.6729 113.954 14.1349 114.271 14.4802C114.598 14.8256 115.013 14.9982 115.517 14.9982C116.03 14.9982 116.441 14.8302 116.749 14.4942C117.066 14.1582 117.225 13.6916 117.225 13.0942C117.225 12.4969 117.066 12.0302 116.749 11.6942C116.441 11.3582 116.03 11.1902 115.517 11.1902ZM123.297 10.6582C123.596 10.1822 123.978 9.80424 124.445 9.52424C124.921 9.24424 125.434 9.10424 125.985 9.10424V11.6662H125.299C124.664 11.6662 124.17 11.8016 123.815 12.0722C123.47 12.3429 123.297 12.8002 123.297 13.4442V17.0002H120.903V9.18824H123.297V10.6582ZM134.407 12.8842C134.407 13.0802 134.384 13.2949 134.337 13.5282H128.919C128.947 14.1162 129.096 14.5409 129.367 14.8022C129.638 15.0542 129.983 15.1802 130.403 15.1802C130.758 15.1802 131.052 15.0916 131.285 14.9142C131.518 14.7369 131.672 14.5082 131.747 14.2282H134.281C134.178 14.7789 133.954 15.2736 133.609 15.7122C133.264 16.1416 132.825 16.4822 132.293 16.7342C131.761 16.9769 131.168 17.0982 130.515 17.0982C129.75 17.0982 129.068 16.9396 128.471 16.6222C127.883 16.2956 127.421 15.8289 127.085 15.2222C126.749 14.6156 126.581 13.9062 126.581 13.0942C126.581 12.2729 126.744 11.5636 127.071 10.9662C127.407 10.3596 127.874 9.89758 128.471 9.58024C129.068 9.25358 129.75 9.09024 130.515 9.09024C131.29 9.09024 131.971 9.24891 132.559 9.56624C133.147 9.88358 133.6 10.3316 133.917 10.9102C134.244 11.4796 134.407 12.1376 134.407 12.8842ZM131.985 12.5202C131.994 12.0069 131.854 11.6242 131.565 11.3722C131.285 11.1109 130.935 10.9802 130.515 10.9802C130.076 10.9802 129.712 11.1109 129.423 11.3722C129.134 11.6336 128.97 12.0162 128.933 12.5202H131.985ZM138.497 9.09024C139.486 9.09024 140.275 9.33758 140.863 9.83224C141.46 10.3269 141.834 10.9802 141.983 11.7922H139.743C139.678 11.4749 139.528 11.2276 139.295 11.0502C139.071 10.8636 138.786 10.7702 138.441 10.7702C138.17 10.7702 137.965 10.8309 137.825 10.9522C137.685 11.0642 137.615 11.2276 137.615 11.4422C137.615 11.6849 137.741 11.8669 137.993 11.9882C138.254 12.1096 138.66 12.2309 139.211 12.3522C139.808 12.4922 140.298 12.6369 140.681 12.7862C141.064 12.9262 141.395 13.1596 141.675 13.4862C141.955 13.8129 142.095 14.2516 142.095 14.8022C142.095 15.2502 141.974 15.6469 141.731 15.9922C141.488 16.3376 141.138 16.6082 140.681 16.8042C140.224 17.0002 139.682 17.0982 139.057 17.0982C138.002 17.0982 137.158 16.8649 136.523 16.3982C135.888 15.9316 135.501 15.2642 135.361 14.3962H137.671C137.708 14.7322 137.848 14.9889 138.091 15.1662C138.343 15.3436 138.665 15.4322 139.057 15.4322C139.328 15.4322 139.533 15.3716 139.673 15.2502C139.813 15.1196 139.883 14.9516 139.883 14.7462C139.883 14.4756 139.752 14.2842 139.491 14.1722C139.239 14.0509 138.824 13.9249 138.245 13.7942C137.666 13.6729 137.19 13.5422 136.817 13.4022C136.444 13.2622 136.122 13.0382 135.851 12.7302C135.58 12.4129 135.445 11.9836 135.445 11.4422C135.445 10.7422 135.711 10.1776 136.243 9.74824C136.775 9.30958 137.526 9.09024 138.497 9.09024ZM146.389 9.09024C146.986 9.09024 147.499 9.22558 147.929 9.49624C148.358 9.76691 148.675 10.1356 148.881 10.6022V9.18824H151.261V17.0002H148.881V15.5862C148.675 16.0529 148.358 16.4216 147.929 16.6922C147.499 16.9629 146.986 17.0982 146.389 17.0982C145.745 17.0982 145.166 16.9396 144.653 16.6222C144.149 16.2956 143.747 15.8289 143.449 15.2222C143.159 14.6156 143.015 13.9062 143.015 13.0942C143.015 12.2729 143.159 11.5636 143.449 10.9662C143.747 10.3596 144.149 9.89758 144.653 9.58024C145.166 9.25358 145.745 9.09024 146.389 9.09024ZM147.159 11.1902C146.645 11.1902 146.23 11.3582 145.913 11.6942C145.605 12.0302 145.451 12.4969 145.451 13.0942C145.451 13.6916 145.605 14.1582 145.913 14.4942C146.23 14.8302 146.645 14.9982 147.159 14.9982C147.663 14.9982 148.073 14.8256 148.391 14.4802C148.717 14.1349 148.881 13.6729 148.881 13.0942C148.881 12.5062 148.717 12.0442 148.391 11.7082C148.073 11.3629 147.663 11.1902 147.159 11.1902Z" fill="#343843"/>
<defs>
<clipPath id="clip0_1639:6132">
<rect width="24" height="24" fill="white" transform="translate(27.21 0.000244141)"/>
</clipPath>
</defs>
</svg>
