<svg width="115" height="44" viewBox="0 0 115 44" fill="none" xmlns="http://www.w3.org/2000/svg">
<path d="M115 44H0V0H115V44Z" fill="#3B5998"/>
<path d="M61.8248 10C62.4656 10 63.1775 10.0713 63.8183 10.0713C64.2454 10.0713 64.6726 10.1426 65.0998 10.214V14.2081C64.9574 14.2081 64.8862 14.2081 64.815 14.2081C64.3878 14.2081 63.9607 14.2081 63.4623 14.2081C63.1063 14.2081 62.8215 14.2081 62.4656 14.2081C61.3977 14.2081 60.6145 14.6361 60.5433 15.9912C60.5433 16.9185 60.4721 19.0582 60.4721 19.2008C60.5433 19.2008 61.6112 19.2008 62.608 19.2008C63.1063 19.2008 63.6759 19.2008 64.0319 19.2008C64.3166 19.2008 64.6014 19.2008 64.8862 19.2008C64.6726 20.77 64.459 22.1965 64.2454 23.6943H60.4721L60.4009 34.9635H55.7021L55.7733 23.6943H52V19.2008H55.8445V18.8442C55.8445 17.917 55.8445 17.0611 55.8445 16.1339C55.8445 15.5633 55.9157 14.9927 55.9869 14.4221C56.2717 12.9956 56.9124 11.8544 58.1227 11.0699C59.1194 10.3566 60.2585 10.0713 61.4689 10C61.6112 10 61.6824 10 61.8248 10Z" fill="white"/>
</svg>
