<svg width="115" height="44" viewBox="0 0 115 44" fill="none" xmlns="http://www.w3.org/2000/svg">
<path d="M115 44H0V0H115V44Z" fill="#1892D5"/>
<path d="M46.0883 9C47.8142 9 49.1767 10.3625 49.1767 12.0883C49.1767 13.8142 47.8142 15.1767 46.0883 15.1767C44.3625 15.1767 43 13.8142 43 12.0883C43 10.3625 44.4533 9 46.0883 9Z" fill="white"/>
<path d="M48.7225 17.5386L48.6317 34.7062H43.2725L43.3633 17.5386H48.7225Z" fill="white"/>
<path d="M62.3475 17.084C67.7975 17.084 68.7058 20.6265 68.7058 25.259L68.615 34.7057H63.2558L63.3467 26.349C63.3467 24.3507 63.3467 21.8073 60.6216 21.8073C57.8058 21.8073 57.4425 23.9874 57.3516 26.2582L57.2608 34.7966H51.9924L52.0833 17.5382H57.17V19.8998H57.2608C57.9875 18.5373 59.7133 17.084 62.3475 17.084Z" fill="white"/>
</svg>
