<svg width="136" height="136" viewBox="0 0 136 136" fill="none" xmlns="http://www.w3.org/2000/svg">
<path fill-rule="evenodd" clip-rule="evenodd" d="M58.2989 110.798C61.2339 109.881 63.7894 108.582 65.9785 106.915C68.1655 105.246 69.8633 103.237 71.0741 100.874C72.2806 98.5205 72.8882 95.9014 72.8882 93.0234V87.8445C70.2384 86.8135 67.1038 85.947 63.4801 85.2583C59.8541 84.5673 56.0264 84.2251 52.0012 84.2251C45.4491 84.2251 40.325 85.4886 36.6464 88.0177C32.9612 90.5535 31.1252 94.0017 31.1252 98.3735V98.7179C31.1252 103.092 32.8165 106.426 36.2165 108.729C39.6055 111.03 43.7754 112.177 48.7219 112.177C52.1767 112.177 55.3705 111.719 58.2989 110.798Z" fill="#ED1D40"/>
<g clip-path="url(#clip0)">
<mask id="mask0" mask-type="alpha" maskUnits="userSpaceOnUse" x="0" y="0" width="136" height="136">
<path fill-rule="evenodd" clip-rule="evenodd" d="M0 0.864258H135.136V136H0" fill="white"/>
</mask>
<g mask="url(#mask0)">
<path fill-rule="evenodd" clip-rule="evenodd" d="M67.5708 0.86377C30.252 0.86377 0.000732422 31.115 0.000732422 68.4338C0.000732422 82.0185 4.0237 94.6555 10.9224 105.248C10.6087 103.504 10.4135 101.686 10.4135 99.7489V99.4067C10.4135 94.3484 11.3348 89.946 13.1774 86.2038C15.0134 82.4682 17.5776 79.3643 20.8526 76.8878C24.1298 74.4135 28.0452 72.5731 32.5903 71.3644C37.1375 70.1558 42.0532 69.5503 47.3463 69.5503C52.8674 69.5503 57.5529 69.8969 61.4069 70.5879C65.2632 71.2811 68.9725 72.2002 72.5414 73.3496V71.6255C72.5414 65.2971 70.6154 60.4669 66.7592 57.1283C62.8985 53.7941 57.3532 52.1204 50.1036 52.1204C44.9334 52.1204 40.3247 52.6425 36.2996 53.6756C32.27 54.7132 28.1856 56.0907 24.0442 57.8193L18.3542 41.0781C23.4147 38.7771 28.5914 36.9367 33.8867 35.5569C39.1687 34.1772 45.5563 33.4884 53.0429 33.4884C66.6144 33.4884 76.6828 36.8489 83.2393 43.5809C89.7936 50.3107 93.073 59.7759 93.073 71.9698V125.984H72.3659V114.766C69.2576 118.453 65.2917 121.557 60.4615 124.086C55.6247 126.613 49.7636 127.883 42.8583 127.883C39.7083 127.883 36.6834 127.557 33.7704 126.929C43.716 132.687 55.254 136 67.5708 136C104.887 136 135.136 105.748 135.136 68.4338C135.136 31.115 104.887 0.86377 67.5708 0.86377Z" fill="#ED1D40"/>
</g>
</g>
<path fill-rule="evenodd" clip-rule="evenodd" d="M31.1246 98.7173V98.373C31.1246 94.0012 32.9628 90.553 36.6457 88.0172C40.3265 85.4881 45.4484 84.2246 52.0006 84.2246C56.0257 84.2246 59.8557 84.5668 63.4794 85.2577C67.1053 85.9465 70.2377 86.813 72.8875 87.8439V93.0229C72.8875 95.9008 72.2821 98.5199 71.0757 100.874C69.8626 103.236 68.167 105.248 65.9801 106.915C63.7909 108.582 61.2332 109.88 58.2982 110.797C55.3699 111.719 52.1761 112.177 48.7212 112.177C43.7748 112.177 39.6048 111.03 36.2158 108.729C32.8158 106.425 31.1246 103.091 31.1246 98.7173ZM60.4611 124.086C65.2913 121.557 69.2572 118.453 72.3655 114.765V125.983H93.0726V71.9692C93.0726 59.7753 89.7932 50.3101 83.2411 43.5803C76.6824 36.8483 66.614 33.4878 53.0425 33.4878C45.5581 33.4878 39.1705 34.1766 33.8884 35.5563C28.591 36.9361 23.4142 38.7764 18.3537 41.0775L24.046 57.8186C28.1852 56.0901 32.2696 54.7126 36.3013 53.675C40.3265 52.6419 44.933 52.122 50.1031 52.122C57.3528 52.122 62.9003 53.7935 66.7588 57.1277C70.615 60.4662 72.541 65.2964 72.541 71.627V73.349C68.9721 72.1995 65.2628 71.2804 61.4087 70.5873C57.5524 69.8963 52.867 69.5497 47.3459 69.5497C42.0528 69.5497 37.1371 70.1573 32.5921 71.3638C28.0448 72.5724 24.1293 74.415 20.8522 76.8871C17.5772 79.3637 15.0152 82.4675 13.177 86.2031C11.3344 89.9475 10.4131 94.3478 10.4131 99.4061V99.7483C10.4131 101.687 10.6083 103.504 10.922 105.248C16.7217 114.149 24.5549 121.594 33.7722 126.931C36.683 127.556 39.7079 127.883 42.8579 127.883C49.7631 127.883 55.6243 126.613 60.4611 124.086Z" fill="white"/>
<defs>
<clipPath id="clip0">
<rect width="136" height="136" fill="white"/>
</clipPath>
</defs>
</svg>
