<svg width="188" height="49" viewBox="0 0 188 49" fill="none" xmlns="http://www.w3.org/2000/svg">
<g clip-path="url(#clip0)">
<path fill-rule="evenodd" clip-rule="evenodd" d="M165.668 7.02206C157.188 7.02206 150.318 13.8949 150.318 22.3701C150.318 25.4551 151.231 28.3252 152.797 30.7321C152.726 30.3365 152.683 29.9244 152.683 29.485V29.4066C152.683 28.2576 152.89 27.2574 153.309 26.4091C153.726 25.5585 154.308 24.8537 155.054 24.293C155.799 23.7314 156.688 23.3119 157.718 23.0376C158.754 22.7634 159.87 22.6253 161.073 22.6253C162.328 22.6253 163.391 22.7023 164.267 22.86C165.143 23.0186 165.988 23.2266 166.796 23.4869V23.0962C166.796 21.6573 166.358 20.5622 165.482 19.8031C164.606 19.0457 163.345 18.6658 161.7 18.6658C160.524 18.6658 159.475 18.7837 158.563 19.0184C157.648 19.2538 156.719 19.5676 155.778 19.9583L154.487 16.1582C155.635 15.6336 156.811 15.2164 158.013 14.9018C159.214 14.588 160.666 14.4318 162.365 14.4318C165.448 14.4318 167.735 15.1959 169.226 16.7272C170.717 18.2545 171.457 20.4051 171.457 23.1746V35.4442H166.757V32.8963C166.048 33.7344 165.148 34.4392 164.052 35.0131C162.953 35.588 161.622 35.8762 160.052 35.8762C159.335 35.8762 158.647 35.802 157.984 35.659C160.244 36.9689 162.868 37.7223 165.668 37.7223C174.144 37.7223 181.014 30.8478 181.014 22.3701C181.014 13.8949 174.144 7.02206 165.668 7.02206Z" fill="#E20613"/>
<path fill-rule="evenodd" clip-rule="evenodd" d="M161.385 32.3081C162.171 32.3081 162.895 32.2049 163.56 31.996C164.226 31.7862 164.809 31.4913 165.305 31.1121C165.804 30.7339 166.189 30.2771 166.462 29.7411C166.736 29.2074 166.873 28.612 166.873 27.9578V26.78C166.273 26.5479 165.562 26.3506 164.737 26.1935C163.914 26.0366 163.045 25.959 162.13 25.959C160.64 25.959 159.475 26.244 158.64 26.8204C157.804 27.3979 157.386 28.1792 157.386 29.1727V29.2529C157.386 30.245 157.771 31.0024 158.541 31.5251C159.313 32.0488 160.262 32.3081 161.385 32.3081Z" fill="#E20613"/>
<path fill-rule="evenodd" clip-rule="evenodd" d="M26.4923 21.2032C26.4923 22.4372 26.3081 23.595 25.9414 24.6779C25.5737 25.7615 25.065 26.7139 24.4142 27.5366C23.7625 28.3593 22.9753 29.0036 22.0519 29.4694C21.1285 29.9361 20.1224 30.168 19.0331 30.168C17.9196 30.168 16.9078 29.9285 15.9967 29.4487C15.085 28.9696 14.2912 28.3179 13.6165 27.4954C12.9415 26.6726 12.4203 25.7137 12.0537 24.6167C11.6862 23.5208 11.5035 22.3545 11.5035 21.1213V21.0389C11.5035 19.8049 11.6862 18.6468 12.0537 17.564C12.4203 16.4812 12.9301 15.528 13.5809 14.7061C14.2326 13.8835 15.0139 13.2393 15.925 12.7726C16.8368 12.3068 17.8486 12.0738 18.9629 12.0738C20.0506 12.0738 21.0575 12.3142 21.9817 12.7931C22.9051 13.2739 23.7039 13.9239 24.3786 14.7467C25.0536 15.5692 25.5737 16.5298 25.9414 17.6251C26.3081 18.7227 26.4923 19.8873 26.4923 21.1213V21.2032ZM30.7129 15.5098C30.0894 13.7909 29.2172 12.2952 28.0946 11.0216C26.9722 9.74872 25.6408 8.73779 24.0987 7.98949C22.5566 7.24203 20.8684 6.86777 19.0314 6.86777C17.1952 6.86777 15.5004 7.24203 13.9476 7.98949C12.3947 8.73779 11.0567 9.76204 9.93519 11.0612C8.81263 12.3605 7.93386 13.8702 7.29952 15.5891C6.66434 17.3088 6.34717 19.1524 6.34717 21.1213V21.1998C6.34717 23.169 6.65842 25.0132 7.28218 26.7321C7.90574 28.4517 8.7788 29.9475 9.90115 31.2204C11.0229 32.494 12.3552 33.5042 13.8973 34.2525C15.4385 35.0009 17.1275 35.3749 18.9637 35.3749C20.7997 35.3749 22.4947 35.0009 24.0475 34.2525C25.6002 33.5042 26.9384 32.4808 28.0608 31.1807C29.1825 29.8824 30.0612 28.3724 30.6964 26.6528C31.3308 24.9339 31.6479 23.0897 31.6479 21.1213V21.042C31.6479 19.0739 31.3365 17.2303 30.7129 15.5098Z" fill="#E20613"/>
<path fill-rule="evenodd" clip-rule="evenodd" d="M49.9579 25.3775C49.9579 24.4723 49.8167 23.643 49.5342 22.889C49.2517 22.1356 48.8683 21.4914 48.3835 20.9562C47.8995 20.421 47.3404 20.0104 46.7084 19.7222C46.0758 19.4349 45.3968 19.2902 44.6701 19.2902C43.944 19.2902 43.2642 19.4349 42.6315 19.7222C41.9997 20.0104 41.4472 20.421 40.9772 20.9562C40.5063 21.4914 40.1297 22.1356 39.8472 22.889C39.5647 23.643 39.4235 24.4723 39.4235 25.3775V25.4594C39.4235 26.3646 39.5647 27.1947 39.8472 27.9479C40.1297 28.7021 40.5063 29.3464 40.9772 29.8815C41.4472 30.4159 41.9997 30.8271 42.6315 31.1155C43.2642 31.4029 43.944 31.5467 44.6701 31.5467C45.3968 31.5467 46.0758 31.4029 46.7084 31.1155C47.3404 30.8271 47.8995 30.4159 48.3835 29.8815C48.8683 29.3464 49.2517 28.7095 49.5342 27.9686C49.8167 27.2285 49.9579 26.3918 49.9579 25.4594V25.3775ZM53.5392 29.5511C53.0469 30.8305 52.3995 31.9102 51.5966 32.7915C50.7929 33.6728 49.8645 34.3376 48.8098 34.7843C47.7542 35.2313 46.6516 35.4542 45.5011 35.4542C44.0383 35.4542 42.8339 35.1594 41.8866 34.568C40.9391 33.9766 40.1422 33.2869 39.4954 32.4982V42.1735H34.0284V15.1184H39.4954V17.9621C40.1661 17.0254 40.9755 16.2556 41.923 15.6519C42.8694 15.0482 44.0622 14.7467 45.5011 14.7467C46.6277 14.7467 47.7179 14.9695 48.7734 15.4165C49.8281 15.8633 50.7631 16.5283 51.5785 17.4094C52.3936 18.2907 53.0469 19.3712 53.5392 20.6498C54.0297 21.9284 54.2761 23.4003 54.2761 25.0638V25.1371C54.2761 26.8014 54.0297 28.2724 53.5392 29.5511Z" fill="#E20613"/>
<path fill-rule="evenodd" clip-rule="evenodd" d="M70.645 23.7527C70.5706 23.0211 70.4021 22.3313 70.1519 21.6888C69.9016 21.0436 69.558 20.4903 69.1302 20.0219C68.6997 19.5561 68.1878 19.1844 67.5964 18.9053C67.0007 18.626 66.3269 18.489 65.5695 18.489C64.1553 18.489 62.9867 18.9746 62.0673 19.9467C61.1464 20.9197 60.5832 22.1876 60.38 23.7527H70.645ZM66.1004 35.6087C64.66 35.6087 63.3186 35.3526 62.0673 34.8487C60.8168 34.344 59.7323 33.6378 58.8106 32.7294C57.8872 31.82 57.1603 30.7298 56.6317 29.452C56.1039 28.1774 55.837 26.77 55.837 25.2288V25.1544C55.837 23.714 56.0749 22.3652 56.5549 21.1014C57.0364 19.8378 57.7121 18.7351 58.5818 17.787C59.4557 16.8395 60.4823 16.0954 61.6677 15.5526C62.8553 15.0092 64.1695 14.7366 65.6073 14.7366C67.1991 14.7366 68.5948 15.0305 69.7942 15.6097C70.9935 16.192 71.9896 16.9733 72.7817 17.9586C73.5797 18.9423 74.18 20.0856 74.5847 21.3856C74.9871 22.6849 75.1877 24.0559 75.1877 25.4948C75.1877 25.6971 75.1829 25.9035 75.1712 26.1175C75.1571 26.3355 75.1389 26.5577 75.1133 26.7816H60.4195C60.6715 28.4227 61.3215 29.6791 62.3688 30.553C63.4161 31.421 64.6856 31.8572 66.1774 31.8572C67.3114 31.8572 68.2958 31.6555 69.1302 31.2533C69.9627 30.8486 70.7829 30.254 71.5923 29.4717L74.2808 31.8572C73.3194 32.9944 72.1786 33.9021 70.8531 34.5853C69.5258 35.2674 67.9423 35.6087 66.1004 35.6087Z" fill="#E20613"/>
<path fill-rule="evenodd" clip-rule="evenodd" d="M88.0809 20.6687C86.2578 20.6687 84.8257 21.2394 83.7833 22.3816C82.7402 23.5239 82.2181 25.2989 82.2181 27.7075V35.0826H76.7518V15.1189H82.2181V19.1406C82.7698 17.7753 83.5249 16.6825 84.4846 15.8632C85.4427 15.0438 86.7378 14.6713 88.3682 14.7457V20.6687H88.0809Z" fill="#E20613"/>
<path fill-rule="evenodd" clip-rule="evenodd" d="M102.385 26.7716C101.81 26.5494 101.131 26.3618 100.345 26.2115C99.5601 26.0612 98.7308 25.987 97.8569 25.987C96.4314 25.987 95.323 26.2604 94.5258 26.8095C93.7263 27.3605 93.329 28.1063 93.329 29.0555V29.1314C93.329 30.0786 93.6965 30.8014 94.4309 31.3012C95.1659 31.8009 96.0713 32.0487 97.1458 32.0487C97.8942 32.0487 98.5845 31.9495 99.2222 31.7505C99.8583 31.5505 100.415 31.2689 100.888 30.9071C101.36 30.5453 101.729 30.1101 101.99 29.598C102.251 29.0893 102.385 28.5201 102.385 27.8957V26.7716ZM102.272 35.0419V32.6094C101.598 33.4098 100.738 34.0822 99.6914 34.6315C98.6425 35.1798 97.3696 35.454 95.8729 35.454C94.9231 35.454 94.0245 35.3227 93.177 35.0618C92.3312 34.8 91.5846 34.4127 90.952 33.9014C90.3142 33.3893 89.8013 32.7549 89.4156 31.9924C89.0299 31.2302 88.8358 30.3537 88.8358 29.3536V29.2783C88.8358 28.1824 89.0365 27.2267 89.4338 26.4164C89.8336 25.6044 90.3902 24.9331 91.0998 24.3969C91.8117 23.8609 92.6592 23.4604 93.6454 23.1984C94.6299 22.9366 95.697 22.8045 96.8452 22.8045C98.0445 22.8045 99.0588 22.8789 99.897 23.0292C100.731 23.1802 101.535 23.3794 102.309 23.6272V23.2538C102.309 21.8803 101.891 20.8355 101.054 20.1111C100.221 19.3884 99.0165 19.0249 97.444 19.0249C96.3206 19.0249 95.323 19.1372 94.4499 19.3619C93.576 19.5865 92.6913 19.8863 91.7927 20.2589L90.5595 16.6313C91.6565 16.1308 92.7772 15.7318 93.9253 15.432C95.0735 15.133 96.4595 14.9835 98.0792 14.9835C101.024 14.9835 103.21 15.712 104.628 17.1747C106.051 18.6327 106.763 20.6852 106.763 23.3297V35.0419H102.272Z" fill="#E20613"/>
<path fill-rule="evenodd" clip-rule="evenodd" d="M116.479 35.4172C115.641 35.4172 114.863 35.3155 114.149 35.1123C113.434 34.9117 112.814 34.5772 112.291 34.1244C111.768 33.6686 111.362 33.0664 111.083 32.3189C110.801 31.5723 110.66 30.6424 110.66 29.5238V18.9606H108.115V15.0076H110.66V9.49692H115.299V15.0076H120.697V18.9606H115.299V28.8053C115.299 29.6915 115.513 30.3309 115.946 30.7231C116.376 31.1156 116.985 31.3128 117.769 31.3128C118.757 31.3128 119.708 31.0832 120.619 30.6282V34.3896C120.038 34.7192 119.416 34.9728 118.757 35.1512C118.098 35.3295 117.338 35.4172 116.479 35.4172Z" fill="#7C7B7B"/>
<path fill-rule="evenodd" clip-rule="evenodd" d="M123.002 15.0077H127.637V35.0737H123.002V15.0077ZM122.811 7.55844H127.79V11.9269H122.811V7.55844Z" fill="#7C7B7B"/>
<path fill-rule="evenodd" clip-rule="evenodd" d="M128.674 15.0076H133.615L139.013 29.7534L144.447 15.0076H149.273L141.064 35.2271H136.921L128.674 15.0076Z" fill="#7C7B7B"/>
</g>
<defs>
<clipPath id="clip0">
<rect width="187.362" height="48" fill="white" transform="translate(0 0.52066)"/>
</clipPath>
</defs>
</svg>
