<svg width="156" height="40" viewBox="0 0 156 40" fill="none" xmlns="http://www.w3.org/2000/svg">
<path fill-rule="evenodd" clip-rule="evenodd" d="M136.226 5.83856C129.363 5.83856 123.803 11.4007 123.803 18.2595C123.803 20.7562 124.542 23.0789 125.81 25.0268C125.752 24.7072 125.717 24.3736 125.717 24.0174V23.9539C125.717 23.0247 125.885 22.2146 126.224 21.5281C126.561 20.8397 127.032 20.2702 127.636 19.8155C128.239 19.361 128.958 19.0215 129.792 18.7996C130.631 18.5776 131.534 18.4661 132.507 18.4661C133.523 18.4661 134.383 18.5289 135.092 18.6558C135.801 18.7842 136.485 18.9525 137.139 19.1632V18.847C137.139 17.6827 136.784 16.7963 136.075 16.1826C135.367 15.569 134.346 15.2615 133.014 15.2615C132.063 15.2615 131.214 15.3571 130.476 15.5469C129.736 15.7381 128.984 15.9915 128.222 16.3075L127.178 13.2322C128.106 12.8076 129.058 12.4702 130.031 12.2154C131.003 11.9614 132.178 11.8358 133.552 11.8358C136.048 11.8358 137.899 12.4534 139.105 13.6926C140.312 14.9293 140.911 16.6693 140.911 18.9105V28.8402H137.107V26.7781C136.534 27.4565 135.805 28.0267 134.918 28.492C134.028 28.9571 132.951 29.1898 131.681 29.1898C131.101 29.1898 130.544 29.1296 130.008 29.0139C131.837 30.0742 133.96 30.6844 136.226 30.6844C143.085 30.6844 148.645 25.1202 148.645 18.2595C148.645 11.4007 143.085 5.83856 136.226 5.83856Z" fill="white"/>
<path fill-rule="evenodd" clip-rule="evenodd" d="M132.76 26.3031C133.396 26.3031 133.982 26.2194 134.52 26.0504C135.059 25.8806 135.531 25.6419 135.932 25.3358C136.336 25.0289 136.647 24.66 136.869 24.2262C137.09 23.7945 137.201 23.3124 137.201 22.7823V21.8298C136.715 21.642 136.14 21.4823 135.472 21.3546C134.806 21.2277 134.103 21.1647 133.363 21.1647C132.157 21.1647 131.214 21.3961 130.539 21.862C129.861 22.3292 129.524 22.9615 129.524 23.7657V23.8304C129.524 24.6333 129.835 25.2463 130.458 25.6694C131.083 26.0931 131.851 26.3031 132.76 26.3031Z" fill="white"/>
<path fill-rule="evenodd" clip-rule="evenodd" d="M23.5931 17.3158C23.5931 18.3138 23.4441 19.2517 23.1474 20.128C22.8498 21.0043 22.4381 21.7751 21.9114 22.4407C21.384 23.1066 20.7469 23.628 19.9996 24.0049C19.2523 24.3826 18.4381 24.5705 17.5565 24.5705C16.6554 24.5705 15.8366 24.3773 15.0992 23.9889C14.3614 23.6006 13.719 23.0732 13.1729 22.4074C12.6267 21.7415 12.2049 20.9655 11.9082 20.0779C11.6108 19.1908 11.4629 18.2469 11.4629 17.2489V17.1822C11.4629 16.1842 11.6108 15.247 11.9082 14.37C12.2049 13.4937 12.6175 12.7223 13.1442 12.0573C13.6716 11.3915 14.3039 10.8701 15.0412 10.4931C15.7791 10.1161 16.5979 9.92687 17.4997 9.92687C18.3799 9.92687 19.1948 10.1214 19.9428 10.5099C20.6901 10.8981 21.3366 11.4249 21.8826 12.0907C22.4288 12.7558 22.8498 13.5332 23.1474 14.4201C23.4441 15.3079 23.5931 16.2503 23.5931 17.2489V17.3158ZM27.0089 12.7083C26.5042 11.3172 25.7984 10.106 24.8899 9.07537C23.9816 8.04523 22.904 7.22779 21.656 6.62219C20.4081 6.0166 19.0418 5.71371 17.5551 5.71371C16.0691 5.71371 14.6976 6.0166 13.4409 6.62219C12.1842 7.22779 11.1013 8.05601 10.1937 9.10737C9.28524 10.1589 8.57407 11.3807 8.0607 12.7717C7.54666 14.1635 7.28998 15.6562 7.28998 17.2489V17.3126C7.28998 18.9061 7.54187 20.3988 8.04667 21.7898C8.55131 23.1813 9.25786 24.392 10.1662 25.4227C11.074 26.4528 12.1522 27.2703 13.4002 27.8759C14.6475 28.4815 16.0144 28.7843 17.5004 28.7843C18.9862 28.7843 20.3579 28.4815 21.6146 27.8759C22.8712 27.2703 23.9542 26.442 24.8625 25.3907C25.7703 24.3391 26.4815 23.1172 26.9955 21.7261C27.5089 20.3353 27.7656 18.8426 27.7656 17.2489V17.1848C27.7656 15.592 27.5135 14.1 27.0089 12.7083Z" fill="white"/>
<path fill-rule="evenodd" clip-rule="evenodd" d="M42.5838 20.6934C42.5838 19.9609 42.4695 19.2904 42.2409 18.6795C42.0122 18.0698 41.702 17.5484 41.3096 17.1153C40.9179 16.6829 40.4655 16.3501 39.954 16.1173C39.442 15.8841 38.8926 15.7671 38.3044 15.7671C37.7168 15.7671 37.1666 15.8841 36.6546 16.1173C36.1433 16.3501 35.6962 16.6829 35.3158 17.1153C34.9347 17.5484 34.6299 18.0698 34.4013 18.6795C34.1727 19.2904 34.0584 19.9609 34.0584 20.6934V20.7597C34.0584 21.4922 34.1727 22.1641 34.4013 22.7738C34.6299 23.3847 34.9347 23.9054 35.3158 24.3385C35.6962 24.7716 36.1433 25.1039 36.6546 25.3371C37.1666 25.5697 37.7168 25.6861 38.3044 25.6861C38.8926 25.6861 39.442 25.5697 39.954 25.3371C40.4655 25.1039 40.9179 24.7716 41.3096 24.3385C41.702 23.9054 42.0122 23.39 42.2409 22.7904C42.4695 22.1914 42.5838 21.5143 42.5838 20.7597V20.6934ZM45.4821 24.0712C45.0837 25.1065 44.5597 25.9809 43.91 26.6934C43.2595 27.4074 42.5082 27.9447 41.6546 28.3064C40.8004 28.668 39.908 28.8492 38.9769 28.8492C37.7931 28.8492 36.8184 28.6098 36.0518 28.1312C35.285 27.6526 34.64 27.0945 34.1166 26.4568V34.2862H29.6923V12.3915H34.1166V14.6923C34.6594 13.9349 35.3144 13.3113 36.0812 12.8226C36.8472 12.334 37.8124 12.09 38.9769 12.09C39.8886 12.09 40.7709 12.2706 41.6252 12.6328C42.4787 12.9944 43.2354 13.5319 43.8953 14.2451C44.5549 14.9583 45.0837 15.8326 45.4821 16.8674C45.8791 17.9028 46.0784 19.0933 46.0784 20.4395V20.4997C46.0784 21.8459 45.8791 23.0364 45.4821 24.0712Z" fill="white"/>
<path fill-rule="evenodd" clip-rule="evenodd" d="M59.3251 19.3795C59.2649 18.7873 59.1285 18.2284 58.9261 17.7084C58.7235 17.1863 58.4454 16.7385 58.0992 16.3594C57.7508 15.9831 57.3366 15.6823 56.8579 15.4557C56.3759 15.2299 55.8305 15.1188 55.2176 15.1188C54.0731 15.1188 53.1273 15.5119 52.3833 16.2994C51.6381 17.086 51.1822 18.112 51.0178 19.3795H59.3251ZM55.6473 28.9736C54.4816 28.9736 53.396 28.7663 52.3833 28.3586C51.3713 27.9503 50.4936 27.3787 49.7477 26.6434C49.0004 25.9074 48.4121 25.0251 47.9843 23.991C47.5572 22.9597 47.3412 21.8206 47.3412 20.5739V20.5132C47.3412 19.348 47.5338 18.2565 47.9222 17.2338C48.3118 16.2111 48.8587 15.318 49.5626 14.5507C50.2698 13.7846 51.1006 13.1817 52.0599 12.7431C53.0211 12.3027 54.0846 12.0821 55.2482 12.0821C56.5364 12.0821 57.666 12.3201 58.6366 12.7893C59.6072 13.2599 60.4133 13.8922 61.0543 14.6896C61.7001 15.4865 62.1859 16.4116 62.5135 17.4637C62.8391 18.5145 63.0015 19.6241 63.0015 20.7885C63.0015 20.9523 62.9976 21.1202 62.9882 21.2932C62.9767 21.4691 62.962 21.6488 62.9413 21.83H51.0498C51.2537 23.1589 51.7798 24.1755 52.6273 24.8821C53.4749 25.5852 54.5023 25.9375 55.7095 25.9375C56.6273 25.9375 57.424 25.7745 58.0992 25.4488C58.7729 25.1213 59.4367 24.6401 60.0918 24.0071L62.2676 25.9375C61.4895 26.8587 60.5663 27.5926 59.4935 28.146C58.4194 28.6975 57.1379 28.9736 55.6473 28.9736Z" fill="white"/>
<path fill-rule="evenodd" clip-rule="evenodd" d="M73.4349 16.8832C71.9595 16.8832 70.8005 17.345 69.9569 18.2694C69.1127 19.194 68.6902 20.6304 68.6902 22.5796V28.5481H64.2664V12.3919H68.6902V15.6472C69.1367 14.5422 69.7477 13.6572 70.5245 12.9941C71.2998 12.331 72.3479 12.0302 73.6674 12.0904V16.8832H73.4349Z" fill="white"/>
<path fill-rule="evenodd" clip-rule="evenodd" d="M85.0125 21.8223C84.5472 21.6431 83.9977 21.4908 83.362 21.3692C82.7265 21.2475 82.0554 21.188 81.3481 21.188C80.1944 21.188 79.2974 21.4085 78.6523 21.8531C78.0053 22.2996 77.6837 22.9033 77.6837 23.6706V23.732C77.6837 24.4988 77.9811 25.0844 78.5754 25.488C79.1703 25.8931 79.903 26.093 80.7726 26.093C81.3782 26.093 81.9369 26.0134 82.453 25.8517C82.9678 25.69 83.4183 25.462 83.8013 25.1692C84.1829 24.8765 84.4817 24.5241 84.693 24.1097C84.9042 23.698 85.0125 23.2381 85.0125 22.7321V21.8223ZM84.9209 28.5153V26.5468C84.3754 27.1953 83.6796 27.7386 82.8327 28.1832C81.9838 28.6271 80.9537 28.8497 79.7425 28.8497C78.9738 28.8497 78.2465 28.7426 77.5607 28.5321C76.8762 28.3196 76.272 28.0068 75.76 27.5923C75.2439 27.1779 74.8288 26.6652 74.5166 26.0474C74.2045 25.4312 74.0474 24.7213 74.0474 23.9119V23.8511C74.0474 22.964 74.2098 22.1906 74.5314 21.5355C74.8549 20.8784 75.3053 20.3344 75.8796 19.9006C76.4558 19.4667 77.1416 19.1426 77.9397 18.9314C78.7365 18.7187 79.6001 18.6124 80.5293 18.6124C81.4999 18.6124 82.3208 18.672 82.9991 18.7936C83.6743 18.916 84.3246 19.077 84.9511 19.2783V18.9761C84.9511 17.8645 84.6127 17.0183 83.9356 16.4327C83.2612 15.8471 82.2865 15.5536 81.0139 15.5536C80.1047 15.5536 79.2974 15.6447 78.5908 15.8257C77.8836 16.0083 77.1676 16.2503 76.4404 16.5516L75.4424 13.6159C76.3302 13.2108 77.2371 12.8886 78.1663 12.6453C79.0955 12.4033 80.2172 12.283 81.528 12.283C83.9115 12.283 85.6802 12.8725 86.8279 14.0557C87.9797 15.2355 88.5559 16.8973 88.5559 19.037V28.5153H84.9209Z" fill="white"/>
<path fill-rule="evenodd" clip-rule="evenodd" d="M96.4169 28.819C95.7391 28.819 95.1088 28.736 94.5313 28.5716C93.9524 28.4092 93.451 28.1385 93.028 27.7728C92.6041 27.4032 92.2759 26.916 92.05 26.3116C91.8221 25.7067 91.7078 24.9541 91.7078 24.049V15.5004H89.6484V12.3011H91.7078V7.84137H95.4617V12.3011H99.8306V15.5004H95.4617V23.4674C95.4617 24.1847 95.6348 24.702 95.9858 25.0196C96.3334 25.3371 96.8267 25.4969 97.4611 25.4969C98.2605 25.4969 99.0299 25.3111 99.7678 24.9426V27.9874C99.2972 28.2535 98.7939 28.4586 98.2605 28.6031C97.727 28.7475 97.1121 28.819 96.4169 28.819Z" fill="#BFBEBE"/>
<path fill-rule="evenodd" clip-rule="evenodd" d="M101.696 12.3016H105.447V28.5408H101.696V12.3016ZM101.541 6.27374H105.571V9.80909H101.541V6.27374Z" fill="#BFBEBE"/>
<path fill-rule="evenodd" clip-rule="evenodd" d="M106.286 12.3013H110.285L114.654 24.2357L119.052 12.3013H122.957L116.314 28.6647H112.961L106.286 12.3013Z" fill="#BFBEBE"/>
</svg>
