<svg width="44" height="44" viewBox="0 0 44 44" fill="none" xmlns="http://www.w3.org/2000/svg">
<path fill-rule="evenodd" clip-rule="evenodd" d="M18.8618 35.8465C19.8113 35.5499 20.6381 35.1298 21.3464 34.5904C22.0539 34.0504 22.6032 33.4003 22.995 32.636C23.3853 31.8745 23.5819 31.0271 23.5819 30.096V28.4205C22.7246 28.0869 21.7104 27.8066 20.5381 27.5838C19.365 27.3602 18.1266 27.2495 16.8243 27.2495C14.7045 27.2495 13.0467 27.6583 11.8566 28.4765C10.6643 29.2969 10.0703 30.4125 10.0703 31.8269V31.9384C10.0703 33.3534 10.6175 34.4322 11.7175 35.1773C12.8139 35.9218 14.163 36.2929 15.7633 36.2929C16.8811 36.2929 17.9144 36.1446 18.8618 35.8465Z" fill="#ED1D40"/>
<mask id="mask0" mask-type="alpha" maskUnits="userSpaceOnUse" x="0" y="0" width="44" height="45">
<path fill-rule="evenodd" clip-rule="evenodd" d="M0 0.279785H43.7204V44.0002H0" fill="white"/>
</mask>
<g mask="url(#mask0)">
<path fill-rule="evenodd" clip-rule="evenodd" d="M21.8609 0.279297C9.78716 0.279297 0 10.0665 0 22.1402C0 26.5352 1.30155 30.6237 3.53348 34.0507C3.432 33.4865 3.36884 32.8982 3.36884 32.2716V32.1608C3.36884 30.5243 3.6669 29.1 4.26303 27.8893C4.85703 26.6807 5.68665 25.6765 6.74619 24.8753C7.80645 24.0748 9.07323 23.4794 10.5437 23.0883C12.0148 22.6973 13.6052 22.5014 15.3177 22.5014C17.1039 22.5014 18.6198 22.6136 19.8667 22.8371C21.1143 23.0614 22.3144 23.3587 23.469 23.7306V23.1728C23.469 21.1254 22.8459 19.5627 21.5983 18.4825C20.3493 17.4038 18.5552 16.8623 16.2097 16.8623C14.537 16.8623 13.046 17.0312 11.7437 17.3655C10.4401 17.7012 9.11864 18.1468 7.77877 18.7061L5.93787 13.2898C7.5751 12.5454 9.24994 11.9499 10.9631 11.5036C12.672 11.0572 14.7386 10.8343 17.1607 10.8343C21.5515 10.8343 24.8089 11.9216 26.9301 14.0996C29.0506 16.2768 30.1116 19.3391 30.1116 23.2842V40.7593H23.4123V37.13C22.4066 38.323 21.1235 39.3272 19.5608 40.1454C17.996 40.963 16.0997 41.3739 13.8657 41.3739C12.8466 41.3739 11.8679 41.2681 10.9255 41.0652C14.1432 42.9281 17.8761 43.9997 21.8609 43.9997C33.9339 43.9997 43.7204 34.2125 43.7204 22.1402C43.7204 10.0665 33.9339 0.279297 21.8609 0.279297Z" fill="#ED1D40"/>
</g>
<path fill-rule="evenodd" clip-rule="evenodd" d="M10.0699 31.9382V31.8267C10.0699 30.4123 10.6646 29.2967 11.8562 28.4763C13.047 27.6581 14.7041 27.2493 16.8239 27.2493C18.1262 27.2493 19.3653 27.36 20.5377 27.5836C21.7108 27.8064 22.7242 28.0867 23.5815 28.4203V30.0958C23.5815 31.0269 23.3856 31.8743 22.9953 32.6358C22.6028 33.4001 22.0542 34.0509 21.3467 34.5902C20.6384 35.1296 19.8109 35.5497 18.8614 35.8463C17.914 36.1444 16.8807 36.2927 15.7629 36.2927C14.1626 36.2927 12.8135 35.9216 11.7171 35.1771C10.6171 34.432 10.0699 33.3532 10.0699 31.9382ZM19.5611 40.1456C21.1238 39.3273 22.4069 38.3231 23.4126 37.1301V40.7594H30.1119V23.2843C30.1119 19.3392 29.0509 16.277 26.9311 14.0997C24.8092 11.9217 21.5518 10.8345 17.161 10.8345C14.7396 10.8345 12.673 11.0573 10.9641 11.5037C9.25024 11.9501 7.5754 12.5455 5.93817 13.29L7.77979 18.7062C9.11895 18.147 10.4404 17.7013 11.7448 17.3656C13.047 17.0314 14.5373 16.8632 16.21 16.8632C18.5555 16.8632 20.3503 17.404 21.5986 18.4827C22.8462 19.5628 23.4693 21.1255 23.4693 23.1736V23.7307C22.3147 23.3589 21.1146 23.0615 19.8677 22.8372C18.6201 22.6137 17.1042 22.5016 15.318 22.5016C13.6055 22.5016 12.0151 22.6981 10.5447 23.0885C9.07353 23.4795 7.80675 24.0756 6.7465 24.8754C5.68695 25.6767 4.85804 26.6809 4.26333 27.8894C3.66721 29.1009 3.36914 30.5245 3.36914 32.161V32.2717C3.36914 32.8991 3.4323 33.4867 3.53379 34.0509C5.41017 36.9307 7.94443 39.3394 10.9265 41.066C11.8682 41.2683 12.8469 41.374 13.866 41.374C16.1 41.374 17.9963 40.9631 19.5611 40.1456Z" fill="white"/>
</svg>
