<svg width="48" height="48" viewBox="0 0 48 48" fill="none" xmlns="http://www.w3.org/2000/svg">
<path d="M24 21.5625C29.9448 21.5625 34.7812 16.726 34.7812 10.7812C34.7812 4.83647 29.9448 0 24 0C18.0552 0 13.2188 4.83647 13.2188 10.7812C13.2188 16.726 18.0552 21.5625 24 21.5625Z" fill="#ACB1BF"/>
<path d="M26.3438 24.1721C25.5821 24.3051 24.7991 24.375 24 24.375C23.2009 24.375 22.4179 24.3051 21.6562 24.1721V28.125H22.4942L21.6998 38.9297L24 41.23L26.3003 38.9297L25.5059 28.125H26.3438V24.1721Z" fill="#E20613"/>
<path d="M33.471 20.5226C32.2358 21.7238 30.774 22.6926 29.1562 23.3583V28.1251H28.3259L29.1997 40.0079L24 45.2075L18.8003 40.0079L19.6741 28.1251H18.8438V23.3583C17.2261 22.6927 15.7642 21.7238 14.529 20.5226C11.2118 22.5945 9 26.2779 9 30.4688V48.0001H39V30.4688C39 26.2779 36.7882 22.5945 33.471 20.5226Z" fill="#ACB1BF"/>
</svg>
