<svg width="32" height="32" viewBox="0 0 32 32" fill="none" xmlns="http://www.w3.org/2000/svg">
<path d="M16 14.375C19.9632 14.375 23.1875 11.1507 23.1875 7.1875C23.1875 3.22431 19.9632 0 16 0C12.0368 0 8.8125 3.22431 8.8125 7.1875C8.8125 11.1507 12.0368 14.375 16 14.375Z" fill="#ACB1BF"/>
<path d="M17.5625 16.1147C17.0547 16.2034 16.5328 16.25 16 16.25C15.4672 16.25 14.9452 16.2034 14.4375 16.1147V18.75H14.9961L14.4665 25.9531L16 27.4867L17.5336 25.9531L17.0039 18.75H17.5625V16.1147Z" fill="#E20613"/>
<path d="M22.314 13.6818C21.4906 14.4826 20.516 15.1285 19.4375 15.5723V18.7501H18.8839L19.4664 26.672L16 30.1384L12.5336 26.672L13.1161 18.7501H12.5625V15.5723C11.4841 15.1285 10.5094 14.4826 9.686 13.6818C7.47456 15.063 6 17.5186 6 20.3126V32.0001H26V20.3126C26 17.5186 24.5254 15.063 22.314 13.6818Z" fill="#ACB1BF"/>
</svg>
