<svg width="49" height="48" viewBox="0 0 49 48" fill="none" xmlns="http://www.w3.org/2000/svg">
<path d="M24.5 21.5625C30.4448 21.5625 35.2812 16.726 35.2812 10.7812C35.2812 4.83647 30.4448 0 24.5 0C18.5552 0 13.7188 4.83647 13.7188 10.7812C13.7188 16.726 18.5552 21.5625 24.5 21.5625Z" fill="#ACB1BF"/>
<path d="M26.8438 24.1721C26.0821 24.3051 25.2991 24.375 24.5 24.375C23.7009 24.375 22.9179 24.3051 22.1562 24.1721V28.125H22.9942L22.1998 38.9297L24.5 41.23L26.8003 38.9297L26.0059 28.125H26.8438V24.1721Z" fill="#E20613"/>
<path d="M33.971 20.5226C32.7358 21.7238 31.274 22.6926 29.6562 23.3583V28.1251H28.8259L29.6997 40.0079L24.5 45.2075L19.3003 40.0079L20.1741 28.1251H19.3438V23.3583C17.7261 22.6927 16.2642 21.7238 15.029 20.5226C11.7118 22.5945 9.5 26.2779 9.5 30.4688V48.0001H39.5V30.4688C39.5 26.2779 37.2882 22.5945 33.971 20.5226Z" fill="#ACB1BF"/>
</svg>
