<svg width="49" height="48" viewBox="0 0 49 48" fill="none" xmlns="http://www.w3.org/2000/svg">
<g clip-path="url(#clip0_1482:3723)">
<path d="M17.3141 16.5227C21.8694 16.5227 25.5754 12.8166 25.5754 8.26134C25.5754 3.70604 21.8694 0 17.3141 0C12.7588 0 9.05273 3.70604 9.05273 8.26134C9.05273 12.8166 12.7588 16.5227 17.3141 16.5227Z" fill="#ACB1BF"/>
<path d="M30.7593 23.7902C29.6342 20.1074 26.4889 17.2985 22.6206 16.6604L18.7233 22.2091V34.3669H15.9055V22.2092L12.008 16.6604C7.14509 17.4626 3.42383 21.6957 3.42383 26.7825V44.9176H23.3048C21.7393 42.6812 20.8193 39.9615 20.8193 37.0305C20.8193 30.763 25.0233 25.4596 30.7593 23.7902ZM12.6603 29.0632H9.5392V25.9421H12.6603V29.0632Z" fill="#ACB1BF"/>
<path d="M34.6067 26.061C33.4189 26.061 32.2748 26.2516 31.2027 26.6024C26.8155 28.038 23.6372 32.1698 23.6372 37.0305C23.6372 40.1237 24.9245 42.9216 26.9911 44.9176C28.9656 46.8248 31.6513 48 34.6067 48C40.6553 48 45.5763 43.0791 45.5763 37.0305C45.5763 30.9819 40.6554 26.061 34.6067 26.061ZM33.4349 41.712L31.205 39.4822L29.4044 37.6816L31.205 35.8809L31.3968 35.6892L33.4349 37.7272L37.8168 33.3454L39.8092 35.3378L33.4349 41.712Z" fill="#E20613"/>
</g>
<defs>
<clipPath id="clip0_1482:3723">
<rect width="48" height="48" fill="white" transform="translate(0.5)"/>
</clipPath>
</defs>
</svg>
