<svg width="104" height="99" viewBox="0 0 104 99" fill="none" xmlns="http://www.w3.org/2000/svg">
<g clip-path="url(#clip0)">
<path d="M68.9227 43.8067L29.4995 66.4901C29.3616 66.5692 29.1973 66.5913 29.0428 66.5514C28.8883 66.5115 28.7562 66.413 28.6755 66.2773L3.32383 23.5754C3.24339 23.4396 3.22097 23.2779 3.26149 23.1258C3.30201 22.9737 3.40215 22.8437 3.53994 22.7642L42.9631 0.08079C43.1011 0.0016065 43.2653 -0.0204629 43.4198 0.0194233C43.5743 0.0593094 43.7064 0.157894 43.7872 0.29355L69.1388 42.9954C69.2192 43.1313 69.2417 43.2929 69.2011 43.445C69.1606 43.5971 69.0605 43.7272 68.9227 43.8067Z" fill="white"/>
<path d="M68.9227 43.8067L29.4995 66.4901C29.3616 66.5692 29.1973 66.5913 29.0428 66.5514C28.8883 66.5115 28.7562 66.413 28.6755 66.2773L3.32383 23.5754C3.24339 23.4396 3.22097 23.2779 3.26149 23.1258C3.30201 22.9737 3.40215 22.8437 3.53994 22.7642L42.9631 0.08079C43.1011 0.0016065 43.2653 -0.0204629 43.4198 0.0194233C43.5743 0.0593094 43.7064 0.157894 43.7872 0.29355L69.1388 42.9954C69.2192 43.1313 69.2417 43.2929 69.2011 43.445C69.1606 43.5971 69.0605 43.7272 68.9227 43.8067ZM3.66154 22.969C3.57885 23.0167 3.51877 23.0947 3.49446 23.186C3.47015 23.2772 3.4836 23.3742 3.53187 23.4557L28.8835 66.1576C28.932 66.239 29.0112 66.2982 29.1039 66.3221C29.1966 66.346 29.2952 66.3328 29.378 66.2853L68.8011 43.6019C68.8838 43.5542 68.9439 43.4761 68.9682 43.3849C68.9925 43.2936 68.979 43.1966 68.9308 43.1151L43.5791 0.413245C43.5307 0.331847 43.4514 0.272693 43.3587 0.248761C43.266 0.224829 43.1675 0.238073 43.0847 0.285588L3.66154 22.969Z" fill="#3F3D56"/>
<path d="M29.0029 27.2209L19.2251 32.8469C19.0872 32.926 18.9229 32.9481 18.7684 32.9082C18.6139 32.8683 18.4818 32.7698 18.4011 32.6341L12.6863 23.0083C12.6059 22.8724 12.5835 22.7107 12.624 22.5586C12.6645 22.4065 12.7646 22.2765 12.9024 22.197L22.6802 16.571C22.8182 16.4918 22.9824 16.4698 23.1369 16.5097C23.2914 16.5495 23.4235 16.6481 23.5043 16.7838L29.219 26.4096C29.2995 26.5455 29.3219 26.7072 29.2814 26.8593C29.2408 27.0113 29.1407 27.1414 29.0029 27.2209ZM13.024 22.4018C12.9413 22.4495 12.8813 22.5275 12.8569 22.6188C12.8326 22.71 12.8461 22.8071 12.8944 22.8886L18.6091 32.5144C18.6576 32.5958 18.7368 32.6549 18.8295 32.6789C18.9222 32.7028 19.0208 32.6896 19.1036 32.642L28.8813 27.0161C28.964 26.9684 29.0241 26.8904 29.0484 26.7991C29.0727 26.7079 29.0593 26.6108 29.011 26.5293L23.2962 16.9035C23.2478 16.8221 23.1685 16.7629 23.0758 16.739C22.9831 16.7151 22.8846 16.7283 22.8018 16.7758L13.024 22.4018Z" fill="#F2F2F2"/>
<path d="M26.8936 30.0147L17.1158 35.6407C16.9916 35.7119 16.8438 35.7318 16.7047 35.6959C16.5657 35.66 16.4468 35.5713 16.3741 35.4492L10.6594 25.8233C10.587 25.7011 10.5668 25.5556 10.6033 25.4187C10.6397 25.2818 10.7299 25.1647 10.8539 25.0932L20.6316 19.4672C20.7558 19.396 20.9037 19.3761 21.0427 19.412C21.1817 19.4479 21.3006 19.5366 21.3733 19.6587L27.0881 29.2846C27.1604 29.4068 27.1806 29.5523 27.1442 29.6892C27.1077 29.8261 27.0176 29.9432 26.8936 30.0147Z" fill="#E20613"/>
<path d="M50.4939 22.7563L19.9123 40.3524C19.7882 40.4238 19.6403 40.4438 19.5012 40.4078C19.3621 40.3719 19.2432 40.2831 19.1706 40.1609C19.0981 40.0387 19.0778 39.8931 19.1143 39.7562C19.1508 39.6192 19.241 39.5022 19.3652 39.4307L49.9467 21.8347C50.0082 21.7993 50.0761 21.7762 50.1467 21.7667C50.2172 21.7571 50.2889 21.7614 50.3578 21.7792C50.4267 21.797 50.4913 21.8279 50.548 21.8703C50.6048 21.9127 50.6524 21.9656 50.6884 22.0261C50.7243 22.0867 50.7478 22.1535 50.7574 22.223C50.7671 22.2924 50.7628 22.3631 50.7447 22.4309C50.7267 22.4987 50.6952 22.5623 50.6522 22.6181C50.6091 22.674 50.5553 22.7209 50.4939 22.7563Z" fill="#CCCCCC"/>
<path d="M44.9932 30.1801L21.797 43.5268C21.7355 43.5622 21.6676 43.5853 21.5971 43.5948C21.5265 43.6043 21.4548 43.6001 21.3859 43.5823C21.2468 43.5464 21.1279 43.4575 21.0553 43.3353C20.9828 43.2131 20.9625 43.0675 20.999 42.9306C21.0355 42.7937 21.1257 42.6766 21.2499 42.6052L44.4461 29.2585C44.5075 29.2231 44.5755 29.2 44.646 29.1905C44.7166 29.181 44.7883 29.1852 44.8572 29.203C44.9261 29.2208 44.9907 29.2517 45.0474 29.2941C45.1041 29.3365 45.1518 29.3894 45.1877 29.45C45.2237 29.5105 45.2471 29.5774 45.2568 29.6468C45.2665 29.7163 45.2621 29.7869 45.2441 29.8547C45.226 29.9225 45.1946 29.9861 45.1515 30.042C45.1085 30.0978 45.0547 30.1447 44.9932 30.1801V30.1801Z" fill="#CCCCCC"/>
<path d="M43.4592 11.141L29.9367 18.9216C29.8126 18.9931 29.6647 19.013 29.5256 18.9771C29.3865 18.9412 29.2676 18.8524 29.1951 18.7301C29.1225 18.6079 29.1022 18.4623 29.1387 18.3254C29.1752 18.1885 29.2654 18.0714 29.3896 18L42.912 10.2194C43.0362 10.148 43.184 10.128 43.3231 10.1639C43.392 10.1817 43.4566 10.2127 43.5134 10.2551C43.5701 10.2974 43.6178 10.3504 43.6537 10.4109C43.6896 10.4714 43.7131 10.5383 43.7227 10.6077C43.7324 10.6772 43.7281 10.7478 43.71 10.8156C43.692 10.8834 43.6605 10.9471 43.6175 11.0029C43.5744 11.0587 43.5207 11.1057 43.4592 11.141Z" fill="#CCCCCC"/>
<path d="M41.9691 16.2582L31.8214 22.097C31.7599 22.1324 31.692 22.1555 31.6214 22.165C31.5509 22.1746 31.4791 22.1703 31.4103 22.1525C31.3414 22.1347 31.2767 22.1038 31.22 22.0614C31.1633 22.019 31.1156 21.9661 31.0797 21.9056C31.0438 21.845 31.0203 21.7782 31.0106 21.7087C31.001 21.6393 31.0053 21.5686 31.0234 21.5008C31.0414 21.433 31.0729 21.3694 31.1159 21.3136C31.1589 21.2577 31.2127 21.2108 31.2742 21.1754L41.4219 15.3366C41.5461 15.2652 41.6939 15.2452 41.833 15.2811C41.9721 15.317 42.091 15.4059 42.1636 15.5281C42.2361 15.6503 42.2564 15.7959 42.2199 15.9328C42.1835 16.0697 42.0932 16.1868 41.9691 16.2582Z" fill="#CCCCCC"/>
<path d="M54.2631 29.1039L23.6816 46.7C23.5575 46.7715 23.4096 46.7914 23.2705 46.7555C23.1314 46.7196 23.0125 46.6308 22.9399 46.5085C22.8674 46.3863 22.8471 46.2407 22.8836 46.1038C22.9201 45.9669 23.0103 45.8498 23.1344 45.7784L53.716 28.1823C53.8401 28.1109 53.988 28.0909 54.1271 28.1268C54.2662 28.1627 54.3851 28.2516 54.4576 28.3738C54.5302 28.496 54.5504 28.6416 54.514 28.7785C54.4775 28.9155 54.3873 29.0325 54.2631 29.1039V29.1039Z" fill="#CCCCCC"/>
<path d="M48.7625 36.5278L25.5663 49.8744C25.5048 49.9098 25.4369 49.9329 25.3663 49.9424C25.2958 49.952 25.2241 49.9477 25.1552 49.9299C25.0863 49.9121 25.0217 49.8812 24.965 49.8388C24.9082 49.7964 24.8606 49.7435 24.8246 49.683C24.7887 49.6225 24.7652 49.5556 24.7556 49.4861C24.7459 49.4167 24.7502 49.346 24.7683 49.2782C24.7863 49.2104 24.8178 49.1468 24.8608 49.091C24.9039 49.0351 24.9577 48.9882 25.0191 48.9528L48.2153 35.6061C48.2768 35.5708 48.3448 35.5477 48.4153 35.5381C48.4858 35.5286 48.5576 35.5329 48.6265 35.5507C48.6953 35.5684 48.76 35.5994 48.8167 35.6418C48.8734 35.6841 48.9211 35.7371 48.957 35.7976C48.9929 35.8581 49.0164 35.925 49.0261 35.9945C49.0357 36.0639 49.0314 36.1345 49.0134 36.2023C48.9953 36.2701 48.9638 36.3338 48.9208 36.3896C48.8778 36.4454 48.824 36.4924 48.7625 36.5278V36.5278Z" fill="#CCCCCC"/>
<path d="M58.0326 35.4535L27.451 53.0497C27.3895 53.085 27.3216 53.1081 27.2511 53.1176C27.1805 53.1272 27.1088 53.1229 27.0399 53.1051C26.971 53.0873 26.9064 53.0564 26.8497 53.014C26.7929 52.9716 26.7453 52.9187 26.7093 52.8582C26.6734 52.7976 26.6499 52.7308 26.6403 52.6613C26.6306 52.5919 26.6349 52.5212 26.653 52.4534C26.6711 52.3856 26.7025 52.322 26.7455 52.2662C26.7886 52.2103 26.8424 52.1634 26.9038 52.128L57.4854 34.5319C57.5469 34.4965 57.6148 34.4734 57.6853 34.4639C57.7559 34.4544 57.8276 34.4587 57.8965 34.4764C57.9654 34.4942 58.03 34.5252 58.0867 34.5676C58.1434 34.6099 58.1911 34.6629 58.2271 34.7234C58.263 34.7839 58.2865 34.8508 58.2961 34.9203C58.3058 34.9897 58.3015 35.0603 58.2834 35.1281C58.2653 35.1959 58.2339 35.2596 58.1909 35.3154C58.1478 35.3712 58.094 35.4182 58.0326 35.4535Z" fill="#CCCCCC"/>
<path d="M59.9171 38.6274L29.3356 56.2235C29.2741 56.2588 29.2062 56.2819 29.1356 56.2914C29.0651 56.301 28.9933 56.2967 28.9245 56.2789C28.8556 56.2611 28.791 56.2302 28.7342 56.1878C28.6775 56.1454 28.6298 56.0925 28.5939 56.032C28.558 55.9715 28.5345 55.9046 28.5249 55.8351C28.5152 55.7657 28.5195 55.695 28.5376 55.6272C28.5556 55.5594 28.5871 55.4958 28.6301 55.44C28.6732 55.3841 28.727 55.3372 28.7884 55.3018L59.37 37.7057C59.4314 37.6704 59.4994 37.6473 59.5699 37.6378C59.6405 37.6282 59.7122 37.6325 59.7811 37.6503C59.85 37.6681 59.9146 37.699 59.9713 37.7414C60.028 37.7838 60.0757 37.8367 60.1116 37.8972C60.1476 37.9577 60.171 38.0246 60.1807 38.0941C60.1904 38.1635 60.1861 38.2342 60.168 38.302C60.1499 38.3698 60.1185 38.4334 60.0754 38.4892C60.0324 38.5451 59.9786 38.592 59.9171 38.6274Z" fill="#CCCCCC"/>
<path d="M50.0277 50.9863C50.4526 50.4937 50.8351 49.9671 51.1711 49.412C51.4724 48.9112 51.7681 48.3758 51.8345 47.7885C51.8685 47.5384 51.842 47.2839 51.7573 47.0458C51.6725 46.8077 51.5319 46.5926 51.3468 46.4181C51.1679 46.2557 50.9411 46.1536 50.6994 46.1266C50.4576 46.0995 50.2134 46.1489 50.002 46.2676C49.7881 46.3884 49.6114 46.564 49.4906 46.7756C49.3698 46.9872 49.3094 47.2271 49.3157 47.4698C49.3331 47.737 49.4115 47.9969 49.5451 48.2301C49.6787 48.4634 49.8641 48.6639 50.0875 48.8167C50.9914 49.4614 52.4031 49.4277 53.3665 48.9371C54.4517 48.3845 55.0123 46.9386 54.1598 45.9489C53.9825 45.7431 53.6874 45.9731 53.7318 46.1952C53.7881 46.4951 53.9587 46.7626 54.2086 46.9429C54.4585 47.1232 54.7689 47.2028 55.0764 47.1654C55.3839 47.128 55.6653 46.9764 55.8631 46.7416C56.0609 46.5068 56.1602 46.2065 56.1407 45.9021L55.7574 46.1226C56.2273 46.3275 56.7437 46.407 57.2547 46.353C57.7656 46.2991 58.2532 46.1136 58.6682 45.8152C58.8735 45.6684 59.0568 45.4939 59.2129 45.297C59.4005 45.056 59.7156 44.9003 59.9708 44.7268L61.8097 43.4759C62.0802 43.2919 61.823 42.8535 61.5503 43.039L59.8849 44.1718C59.6073 44.3606 59.328 44.5471 59.0522 44.7382C58.855 44.8749 58.7337 45.0955 58.5543 45.2578C58.2145 45.5586 57.795 45.7582 57.3445 45.8332C56.8939 45.9082 56.4311 45.8556 56.0097 45.6816C55.9705 45.6608 55.9265 45.6503 55.8819 45.6511C55.8374 45.6519 55.7938 45.6639 55.7553 45.686C55.7168 45.7082 55.6848 45.7397 55.6622 45.7775C55.6397 45.8153 55.6274 45.8582 55.6265 45.9021C55.6468 46.0837 55.5934 46.2659 55.4778 46.409C55.3623 46.552 55.1941 46.6444 55.0097 46.6659C54.8254 46.6874 54.6399 46.6363 54.4936 46.5238C54.3473 46.4112 54.2521 46.2464 54.2288 46.0651L53.8008 46.3113C54.3508 46.9498 53.9845 47.9291 53.3509 48.3575C52.6423 48.8366 51.5953 48.9197 50.7965 48.6219C50.6006 48.5556 50.4207 48.4501 50.268 48.3122C50.1153 48.1743 49.9932 48.0069 49.9092 47.8204C49.8313 47.652 49.8091 47.4637 49.8457 47.2822C49.8823 47.1006 49.9757 46.935 50.113 46.8085C50.2319 46.6928 50.3919 46.6272 50.5591 46.6254C50.7263 46.6237 50.8876 46.686 51.009 46.7991C51.1413 46.932 51.2383 47.0949 51.2915 47.2734C51.3448 47.452 51.3527 47.6406 51.3144 47.8229C51.2321 48.3299 50.9473 48.7975 50.6824 49.2306C50.38 49.7241 50.038 50.193 49.6596 50.6328C49.4475 50.8799 49.8134 51.2359 50.0277 50.9863L50.0277 50.9863Z" fill="#E20613"/>
<path d="M54.592 63.0201C54.6363 63.0649 54.6769 63.1132 54.7135 63.1643L60.4082 63.0271L61.0726 61.832L63.0357 62.5833L62.0685 64.8116C61.9903 64.9916 61.855 65.1418 61.6828 65.2396C61.5105 65.3375 61.3107 65.3776 61.1133 65.3542L54.6794 64.589C54.5276 64.7782 54.3209 64.9173 54.0868 64.988C53.8528 65.0587 53.6024 65.0576 53.369 64.9848C53.1355 64.912 52.9302 64.7709 52.7802 64.5804C52.6302 64.3899 52.5427 64.1589 52.5293 63.9182C52.5159 63.6776 52.5772 63.4386 52.7052 63.233C52.8331 63.0275 53.0215 62.8652 53.2455 62.7677C53.4694 62.6702 53.7182 62.6421 53.9587 62.6872C54.1992 62.7323 54.4201 62.8484 54.592 63.0201Z" fill="#FFB7B7"/>
<path d="M73.1559 97.0672H71.2835L70.3926 89.957L73.1562 89.9572L73.1559 97.0672Z" fill="#FFB7B7"/>
<path d="M73.6334 98.8537L67.5958 98.8535V98.7783C67.5959 98.1647 67.8435 97.5763 68.2842 97.1425C68.7249 96.7086 69.3226 96.4649 69.9458 96.4648H69.946L73.6335 96.465L73.6334 98.8537Z" fill="#2F2E41"/>
<path d="M56.1533 97.0253L54.4315 96.301L56.4494 89.418L58.9907 90.4868L56.1533 97.0253Z" fill="#FFB7B7"/>
<path d="M55.8795 98.8538L50.3273 96.5187L50.3573 96.4495C50.6022 95.8853 51.0647 95.44 51.6431 95.2114C52.2215 94.9829 52.8684 94.9899 53.4415 95.2309L53.4417 95.2309L56.8327 96.6571L55.8795 98.8538Z" fill="#2F2E41"/>
<path d="M64.0545 64.5596L63.919 66.7197L67.877 67.1367L72.0183 67.573L70.7993 64.293L64.0545 64.5596Z" fill="#FFB7B7"/>
<path d="M63.7944 66.7483L62.2568 56.1959L64.9219 55.3361L65.7046 54.2793L69.5137 54.5012L70.0729 55.7344L72.104 56.6792L71.7919 62.3861L72.0196 67.16L63.7944 66.7483Z" fill="#2F2E41"/>
<path d="M62.8267 63.9208L60.1159 62.8531L60.1275 62.8056C60.1391 62.7577 61.2928 58.0113 61.446 57.2486C61.6056 56.454 62.1887 56.2343 62.2134 56.2253L62.2315 56.2188L63.3043 56.5402L63.7754 60.1847L62.8267 63.9208Z" fill="#2F2E41"/>
<path d="M57.5479 95.776L53.9395 95.0473L59.7068 79.3803L61.6807 74.0366C61.6807 74.0366 62.9326 69.752 63.4982 68.0939L63.8396 65.8691L71.92 66.7496C71.92 66.7496 74.1769 70.0126 73.4913 75.3309L73.8014 95.3205L70.1929 95.5027L67.1704 75.3422L61.8657 86.394C61.8657 86.394 60.1937 91.1102 58.9975 92.1325L57.5479 95.776Z" fill="#2F2E41"/>
<path d="M68.6796 67.4921C68.7432 67.4906 68.8067 67.4941 68.8697 67.5024L72.6394 63.2982L72.2009 62.006L74.0953 61.0996L75.0974 63.3129C75.1783 63.4917 75.1982 63.6915 75.154 63.8823C75.1097 64.0732 75.0038 64.2448 74.8521 64.3713L69.9077 68.4958C69.9454 68.734 69.9085 68.9778 69.802 69.1948C69.6956 69.4119 69.5245 69.5919 69.3115 69.7109C69.0986 69.8298 68.8539 69.8822 68.61 69.8609C68.3661 69.8397 68.1346 69.7458 67.9462 69.5919C67.7578 69.4379 67.6215 69.2311 67.5554 68.999C67.4893 68.7669 67.4965 68.5205 67.5761 68.2926C67.6558 68.0647 67.804 67.866 68.0011 67.723C68.1982 67.58 68.4349 67.4995 68.6796 67.4921Z" fill="#FFB7B7"/>
<path d="M72.3385 63.7078L70.766 60.0663L71.3793 57.5298L72.0401 56.7079C72.0885 56.6875 72.1407 56.6773 72.1934 56.6778C72.246 56.6782 72.298 56.6895 72.346 56.7107C72.5897 56.8073 72.7972 57.1032 72.9628 57.5904L74.4366 61.7229L72.3385 63.7078Z" fill="#2F2E41"/>
<path d="M64.1799 52.9299V50.1846C64.1799 49.2089 64.5736 48.2732 65.2744 47.5833C65.9751 46.8934 66.9256 46.5059 67.9167 46.5059C68.9077 46.5059 69.8582 46.8934 70.559 47.5833C71.2598 48.2732 71.6535 49.2089 71.6535 50.1846V52.9299C71.6533 53.0609 71.6004 53.1865 71.5063 53.2792C71.4122 53.3718 71.2846 53.4239 71.1515 53.4241H64.6818C64.5487 53.4239 64.4212 53.3718 64.3271 53.2792C64.233 53.1865 64.18 53.0609 64.1799 52.9299Z" fill="#2F2E41"/>
<path d="M67.1489 53.3591C68.662 53.3591 69.8886 52.1515 69.8886 50.662C69.8886 49.1724 68.662 47.9648 67.1489 47.9648C65.6358 47.9648 64.4092 49.1724 64.4092 50.662C64.4092 52.1515 65.6358 53.3591 67.1489 53.3591Z" fill="#FFB7B7"/>
<path d="M63.2959 50.4042C63.2968 49.6327 63.6085 48.893 64.1627 48.3474C64.7168 47.8019 65.4682 47.495 66.2519 47.4941H66.8096C67.5933 47.495 68.3447 47.8019 68.8988 48.3474C69.453 48.893 69.7647 49.6327 69.7656 50.4042V50.4591H68.5869L68.1849 49.3509L68.1045 50.4591H67.4953L67.2925 49.8999L67.2519 50.4591H63.2959L63.2959 50.4042Z" fill="#2F2E41"/>
<path d="M66.8792 53.7312C66.8239 53.6574 66.7909 53.5698 66.7839 53.4783C66.777 53.3869 66.7964 53.2954 66.8399 53.2143C67.431 52.1076 68.2585 50.0627 67.1601 48.8016L67.0811 48.7109H70.27V53.4241L67.3732 53.9272C67.3438 53.9323 67.3141 53.9349 67.2843 53.935C67.2053 53.935 67.1273 53.9165 67.0569 53.8811C66.9865 53.8456 66.9256 53.7943 66.8792 53.7312Z" fill="#2F2E41"/>
<path d="M29.681 95.5135L31.3731 96.1089L34.5111 89.9665L32.0136 89.0879L29.681 95.5135Z" fill="#9F616A"/>
<path d="M28.6631 96.9772L29.4468 94.8184L32.7794 95.9909C33.3422 96.1896 33.802 96.6 34.0579 97.1321C34.3137 97.6641 34.3448 98.2744 34.1442 98.8289L34.1195 98.8969L28.6631 96.9772Z" fill="#2F2E41"/>
<path d="M40.6849 97.1617L42.4819 97.1615L43.3369 90.3379L40.6846 90.338L40.6849 97.1617Z" fill="#9F616A"/>
<path d="M40.2266 96.5841L43.7655 96.584H43.7657C44.0619 96.584 44.3551 96.6414 44.6288 96.753C44.9024 96.8645 45.151 97.0281 45.3605 97.2343C45.5699 97.4404 45.736 97.6852 45.8494 97.9546C45.9627 98.2239 46.0211 98.5126 46.0211 98.8042V98.8764L40.2267 98.8766L40.2266 96.5841Z" fill="#2F2E41"/>
<path d="M36.5895 53.5671L37.371 52.0469C37.371 52.0469 40.2824 52.765 40.5471 54.4261L36.5895 53.5671Z" fill="#F1F1F1"/>
<path d="M33.3648 70.9488L35.4901 82.6247L29.8467 92.4497L33.2181 93.7484L38.9347 84.2245L39.6676 81.6271L40.1073 95.1914L43.1479 95.1006L44.5418 82.4347L42.306 70.6602L33.3648 70.9488Z" fill="#2F2E41"/>
<path d="M37.3992 73.7092C34.2769 73.7092 32.2945 73.1212 32.2501 73.1119L32.1782 73.0969L33.8045 65.6739L33.8777 58.8269C33.8777 55.9254 35.8175 53.7862 36.0867 53.5888C36.1321 53.4126 36.2159 53.2484 36.3324 53.1075C36.4488 52.9665 36.5952 52.8523 36.7611 52.7728C37.4082 52.4838 38.1989 52.8306 38.2321 52.8456L40.6054 53.7215L40.6165 53.7539C40.6451 53.8369 43.771 63.9393 43.771 63.9393C43.771 63.9393 43.5818 72.7662 43.5158 73.0554C43.5158 73.0554 39.1341 73.7092 37.3992 73.7092Z" fill="#3F3D56"/>
<path d="M39.7983 51.5674C41.5698 51.5674 43.0059 50.1537 43.0059 48.4097C43.0059 46.6657 41.5698 45.252 39.7983 45.252C38.0268 45.252 36.5908 46.6657 36.5908 48.4097C36.5908 50.1537 38.0268 51.5674 39.7983 51.5674Z" fill="#9F616A"/>
<path opacity="0.2" d="M36.222 59.3867L41.8337 67.0946L42.6623 63.4951L36.222 59.3867Z" fill="black"/>
<path d="M53.8156 64.6317C53.6578 64.7547 53.4745 64.842 53.2787 64.8876C53.0829 64.9333 52.8793 64.9361 52.6822 64.8958C52.4852 64.8556 52.2995 64.7734 52.1382 64.6549C51.977 64.5364 51.8441 64.3845 51.7489 64.2099L46.9188 64.971L47.9652 62.6905L52.3915 62.3174C52.7 62.1794 53.0491 62.1576 53.3728 62.2561C53.6965 62.3546 53.9722 62.5666 54.1478 62.8518C54.3233 63.1371 54.3865 63.4759 54.3252 63.8039C54.264 64.132 54.0827 64.4265 53.8156 64.6317H53.8156Z" fill="#9F616A"/>
<path d="M48.2139 62.5602L49.9494 62.3926L50.4303 64.7759L48.2465 64.814L48.2139 62.5602Z" fill="#F1F1F1"/>
<path d="M49.6366 65.6064L41.1368 64.8613L36.8449 58.1418L36.8317 58.0824C36.7099 57.5335 36.7952 56.9597 37.0717 56.4681C37.3481 55.9766 37.7969 55.6009 38.3341 55.4112C38.8713 55.2215 39.4603 55.2308 39.9911 55.4373C40.5219 55.6438 40.9581 56.0334 41.2185 56.5334L43.7379 61.3714L48.8226 62.1281L49.6366 65.6064Z" fill="#3F3D56"/>
<path d="M37.0662 51.151L39.7285 51.245C39.8908 51.2508 40.3313 49.5266 40.3889 49.1689C40.4345 48.9361 40.5646 48.7275 40.7549 48.5822C40.9453 48.4369 41.1829 48.3647 41.4233 48.3792C41.6226 48.3978 42.1251 48.0312 42.6437 47.5972C43.6282 46.7732 43.577 45.2256 42.4955 44.5294C42.4659 44.5103 42.4369 44.4929 42.4085 44.4772C41.7262 44.1013 40.9281 43.9751 40.1463 43.9654C39.4376 43.9567 38.7088 44.0445 38.0844 44.3748C36.965 44.9668 36.3693 46.2606 36.317 47.5105C36.2647 48.7603 36.6717 49.9825 37.1335 51.1479" fill="#2F2E41"/>
<path d="M103.805 98.9991H0.13941C0.102436 98.9991 0.0669767 98.9846 0.0408322 98.9589C0.0146877 98.9332 0 98.8982 0 98.8619C0 98.8255 0.0146877 98.7905 0.0408322 98.7648C0.0669767 98.7391 0.102436 98.7246 0.13941 98.7246H103.861C103.898 98.7246 103.933 98.7391 103.959 98.7648C103.985 98.7905 104 98.8255 104 98.8619C104 98.9376 103.882 98.9991 103.805 98.9991Z" fill="#CBCBCB"/>
</g>
<defs>
<clipPath id="clip0">
<rect width="104" height="99" fill="white"/>
</clipPath>
</defs>
</svg>
