<svg width="96" height="87" viewBox="0 0 96 87" fill="none" xmlns="http://www.w3.org/2000/svg">
<g clip-path="url(#clip0)" filter="url(#filter0_d)">
<path d="M42.4615 65.3369H5.74359C5.28132 65.3364 4.83813 65.154 4.51126 64.8296C4.18439 64.5053 4.00052 64.0655 4 63.6068V14.1461C4.00052 13.6874 4.18439 13.2477 4.51126 12.9233C4.83813 12.599 5.28132 12.4165 5.74359 12.416H42.4615C42.9238 12.4165 43.367 12.599 43.6939 12.9233C44.0207 13.2477 44.2046 13.6874 44.2051 14.1461V63.6068C44.2046 64.0655 44.0207 64.5053 43.6939 64.8296C43.367 65.154 42.9238 65.3364 42.4615 65.3369Z" fill="white"/>
<path d="M22.4474 25.2884C22.4474 26.7169 21.992 28.1088 21.1463 29.2648C20.3007 30.4209 19.1081 31.2818 17.7393 31.7244C17.6984 31.7373 17.6575 31.7503 17.616 31.7626C17.4387 31.8167 17.2589 31.8628 17.076 31.9022C16.745 31.9735 16.409 32.0197 16.071 32.0406C15.9241 32.0505 15.7763 32.0554 15.6277 32.0554C14.8599 32.0561 14.0976 31.928 13.3729 31.6764C13.3518 31.6691 13.3307 31.6617 13.3103 31.6543C12.1361 31.2335 11.1008 30.501 10.3173 29.5366C9.53377 28.5722 9.03203 27.413 8.86674 26.1851C8.70146 24.9573 8.87898 23.7079 9.37996 22.5733C9.88093 21.4387 10.6862 20.4622 11.7079 19.7504C12.7296 19.0386 13.9286 18.6187 15.1742 18.5364C16.4199 18.4542 17.6644 18.7128 18.7721 19.284C19.8799 19.8552 20.8084 20.7172 21.4565 21.776C22.1045 22.8347 22.4473 24.0497 22.4474 25.2884V25.2884Z" fill="white"/>
<path d="M15.4644 29.7703C17.2969 29.7703 18.7824 28.2963 18.7824 26.4779C18.7824 24.6596 17.2969 23.1855 15.4644 23.1855C13.6319 23.1855 12.1463 24.6596 12.1463 26.4779C12.1463 28.2963 13.6319 29.7703 15.4644 29.7703Z" fill="#E20613"/>
<path d="M15.6582 28.2527L15.6616 28.1296C15.4309 28.1233 15.2276 28.1089 15.0747 27.9981C15.0314 27.965 14.9958 27.9229 14.9703 27.8748C14.9449 27.8268 14.9301 27.7738 14.9271 27.7196C14.9244 27.6864 14.9295 27.6531 14.9419 27.6222C14.9543 27.5914 14.9737 27.5637 14.9986 27.5415C15.0563 27.5068 15.1224 27.4881 15.1899 27.4875C15.2574 27.487 15.3239 27.5044 15.3822 27.5381L15.4848 27.5848L15.2881 26.1582L15.1652 26.1749L15.3326 27.3884C15.2641 27.3632 15.1903 27.3554 15.118 27.3657C15.0457 27.3761 14.9771 27.4042 14.9185 27.4475C14.8792 27.4817 14.8482 27.5244 14.8282 27.5723C14.8082 27.6202 14.7997 27.6721 14.8032 27.7239C14.8068 27.7968 14.8265 27.868 14.8607 27.9325C14.895 27.997 14.9431 28.0534 15.0016 28.0975C15.198 28.2399 15.4531 28.247 15.6582 28.2527Z" fill="#2F2E41"/>
<path d="M14.5577 26.2793H13.8899V26.4023H14.5577V26.2793Z" fill="#2F2E41"/>
<path d="M16.6657 26.2793H15.9979V26.4023H16.6657V26.2793Z" fill="#2F2E41"/>
<path d="M16.4072 31.0825C16.416 31.042 16.4206 31.0008 16.4209 30.9594C16.4206 30.8045 16.3585 30.656 16.2481 30.5464C16.1377 30.4369 15.988 30.3752 15.8319 30.375H14.9639C14.8078 30.3751 14.658 30.4368 14.5476 30.5463C14.4372 30.6559 14.3751 30.8045 14.375 30.9594C14.3749 31.001 14.3795 31.0425 14.3886 31.0831C14.0609 31.1855 13.7512 31.3376 13.4704 31.534C13.4158 31.5715 13.3619 31.6121 13.3105 31.6546C13.3309 31.6619 13.352 31.6693 13.3731 31.6767C14.0978 31.9283 14.8601 32.0564 15.6279 32.0557C15.7767 32.0557 15.9244 32.0507 16.0712 32.0409C16.4092 32.02 16.7452 31.9737 17.0761 31.9025C17.259 31.8631 17.4388 31.817 17.6161 31.7628C17.2654 31.4549 16.8536 31.2232 16.4072 31.0825Z" fill="#2F2E41"/>
<path d="M16.2955 31.9626C16.215 31.9685 16.1376 31.9955 16.071 32.0408C16.4091 32.0199 16.745 31.9736 17.076 31.9023L16.2955 31.9626Z" fill="#2F2E41"/>
<path d="M18.4735 25.698L12.7094 23.6056C12.6476 23.5832 12.5974 23.5373 12.5697 23.4781C12.542 23.4189 12.5391 23.3512 12.5617 23.29L12.5812 23.1985C13.0314 21.9775 14.5234 21.209 15.754 21.6557L17.5277 22.2996C18.7583 22.7463 19.2931 24.1921 18.8429 25.4131L18.7916 25.5514C18.769 25.6127 18.7228 25.6626 18.6631 25.6901C18.6035 25.7175 18.5353 25.7204 18.4735 25.698Z" fill="#2F2E41"/>
<path d="M18.784 25.8128C10.75 26.107 10.048 25.1053 12.4959 23.5302L13.0152 22.582L18.9669 24.7352L18.784 25.8128Z" fill="#2F2E41"/>
<path d="M17.2089 22.1492C17.2533 22.0028 17.0633 21.8167 16.7846 21.7336C16.5059 21.6505 16.244 21.7018 16.1996 21.8482C16.1553 21.9946 16.3452 22.1807 16.624 22.2638C16.9027 22.3469 17.1646 22.2956 17.2089 22.1492Z" fill="#2F2E41"/>
<path d="M15.6274 32.2393C14.8386 32.2402 14.0555 32.1085 13.311 31.85L13.2463 31.8271C11.687 31.2679 10.378 30.1781 9.55228 28.7514C8.72653 27.3247 8.43752 25.6536 8.73662 24.0354C9.03572 22.4171 9.90356 20.9566 11.1858 19.9135C12.468 18.8705 14.0815 18.3125 15.7394 18.3388C17.3972 18.3651 18.9919 18.974 20.2399 20.0572C21.4879 21.1405 22.3082 22.6278 22.555 24.2547C22.8018 25.8816 22.4591 27.5426 21.5878 28.9424C20.7165 30.3421 19.3731 31.3899 17.7965 31.8993C17.7524 31.9132 17.711 31.9263 17.6688 31.9388C17.4927 31.9925 17.3059 32.0408 17.115 32.0819C16.7748 32.1551 16.4295 32.2026 16.0821 32.2242C15.9328 32.2342 15.7794 32.2393 15.6274 32.2393ZM15.6274 18.7054C14.0663 18.7056 12.5554 19.252 11.3603 20.2484C10.1651 21.2449 9.36234 22.6275 9.0931 24.1533C8.82386 25.679 9.10542 27.2501 9.88824 28.5902C10.6711 29.9303 11.905 30.9536 13.3731 31.4801L13.4345 31.5018C14.1393 31.7465 14.8807 31.8711 15.6274 31.8702C15.7711 31.8702 15.916 31.8654 16.0581 31.8558C16.3871 31.8355 16.7141 31.7905 17.0363 31.7212C17.2168 31.6823 17.3934 31.6367 17.5609 31.5856C17.6024 31.5732 17.6418 31.5608 17.6812 31.5484C19.1828 31.0631 20.4607 30.0622 21.2851 28.7257C22.1096 27.3892 22.4266 25.8046 22.1791 24.257C21.9316 22.7093 21.1358 21.3 19.9349 20.2824C18.734 19.2648 17.2066 18.7056 15.6274 18.7054Z" fill="#CCCCCC"/>
<path d="M42.4615 65.3369H5.74359C5.28132 65.3364 4.83813 65.154 4.51126 64.8296C4.18439 64.5053 4.00052 64.0655 4 63.6068V14.1461C4.00052 13.6874 4.18439 13.2477 4.51126 12.9233C4.83813 12.599 5.28132 12.4165 5.74359 12.416H42.4615C42.9238 12.4165 43.367 12.599 43.6939 12.9233C44.0207 13.2477 44.2046 13.6874 44.2051 14.1461V63.6068C44.2046 64.0655 44.0207 64.5053 43.6939 64.8296C43.367 65.154 42.9238 65.3364 42.4615 65.3369ZM5.74359 12.6196C5.3357 12.62 4.94466 12.781 4.65625 13.0672C4.36783 13.3534 4.20559 13.7414 4.20513 14.1461V63.6068C4.20559 64.0115 4.36782 64.3996 4.65624 64.6857C4.94466 64.9719 5.3357 65.1329 5.74359 65.1334H42.4615C42.8694 65.1329 43.2605 64.9719 43.5489 64.6857C43.8373 64.3996 43.9995 64.0115 44 63.6068V14.1461C43.9995 13.7414 43.8373 13.3534 43.5489 13.0672C43.2605 12.781 42.8694 12.62 42.4615 12.6196H5.74359Z" fill="#CCCCCC"/>
<path d="M35.3534 25.2621H24.9635C24.7457 25.2618 24.5369 25.1758 24.383 25.0228C24.229 24.8699 24.1426 24.6626 24.1426 24.4465C24.1426 24.2303 24.229 24.023 24.383 23.8701C24.5369 23.7172 24.7457 23.6311 24.9635 23.6309H35.3534C35.4615 23.6307 35.5684 23.6517 35.6683 23.6927C35.7681 23.7336 35.8589 23.7936 35.9353 23.8694C36.0117 23.9451 36.0724 24.0351 36.1137 24.1341C36.1551 24.2331 36.1764 24.3393 36.1764 24.4465C36.1764 24.5537 36.1551 24.6598 36.1137 24.7588C36.0724 24.8578 36.0117 24.9478 35.9353 25.0235C35.8589 25.0993 35.7681 25.1593 35.6683 25.2003C35.5684 25.2412 35.4615 25.2622 35.3534 25.2621Z" fill="#E6E6E6"/>
<path d="M38.744 28.014H24.9635C24.7457 28.0138 24.5369 27.9277 24.383 27.7748C24.229 27.6219 24.1426 27.4146 24.1426 27.1984C24.1426 26.9823 24.229 26.775 24.383 26.6221C24.5369 26.4691 24.7457 26.3831 24.9635 26.3828H38.744C38.9618 26.3831 39.1706 26.4691 39.3246 26.6221C39.4785 26.775 39.565 26.9823 39.565 27.1984C39.565 27.4146 39.4785 27.6219 39.3246 27.7748C39.1706 27.9277 38.9618 28.0138 38.744 28.014Z" fill="#E6E6E6"/>
<path d="M35.3382 38.5726H9.46107C9.35304 38.5727 9.24605 38.5517 9.14621 38.5108C9.04636 38.4699 8.95563 38.4098 8.8792 38.3341C8.80276 38.2583 8.74213 38.1684 8.70076 38.0694C8.65938 37.9703 8.63809 37.8642 8.63809 37.757C8.63809 37.6498 8.65938 37.5437 8.70076 37.4447C8.74213 37.3456 8.80276 37.2557 8.8792 37.1799C8.95563 37.1042 9.04636 37.0441 9.14621 37.0032C9.24605 36.9623 9.35304 36.9413 9.46107 36.9414H35.3382C35.556 36.9417 35.7648 37.0277 35.9187 37.1806C36.0726 37.3336 36.1591 37.5409 36.1591 37.757C36.1591 37.9731 36.0726 38.1804 35.9187 38.3334C35.7648 38.4863 35.556 38.5723 35.3382 38.5726Z" fill="#E6E6E6"/>
<path d="M38.7287 41.3246H9.46107C9.35304 41.3247 9.24605 41.3037 9.14621 41.2628C9.04636 41.2219 8.95563 41.1618 8.8792 41.086C8.80276 41.0103 8.74213 40.9203 8.70076 40.8213C8.65938 40.7223 8.63809 40.6162 8.63809 40.509C8.63809 40.4018 8.65938 40.2956 8.70076 40.1966C8.74213 40.0976 8.80276 40.0076 8.8792 39.9319C8.95563 39.8561 9.04636 39.7961 9.14621 39.7552C9.24605 39.7142 9.35304 39.6932 9.46107 39.6934H38.7287C38.8368 39.6932 38.9438 39.7142 39.0436 39.7552C39.1434 39.7961 39.2342 39.8561 39.3106 39.9319C39.3871 40.0076 39.4477 40.0976 39.4891 40.1966C39.5304 40.2956 39.5517 40.4018 39.5517 40.509C39.5517 40.6162 39.5304 40.7223 39.4891 40.8213C39.4477 40.9203 39.3871 41.0103 39.3106 41.086C39.2342 41.1618 39.1434 41.2219 39.0436 41.2628C38.9438 41.3037 38.8368 41.3247 38.7287 41.3246Z" fill="#E6E6E6"/>
<path d="M35.3379 47.6527H9.46085C9.24285 47.6527 9.03378 47.5668 8.87963 47.4138C8.72548 47.2608 8.63889 47.0534 8.63889 46.8371C8.63889 46.6208 8.72548 46.4133 8.87963 46.2604C9.03378 46.1074 9.24285 46.0215 9.46085 46.0215H35.3379C35.5559 46.0215 35.765 46.1074 35.9191 46.2604C36.0733 46.4133 36.1599 46.6208 36.1599 46.8371C36.1599 47.0534 36.0733 47.2608 35.9191 47.4138C35.765 47.5668 35.5559 47.6527 35.3379 47.6527Z" fill="#E6E6E6"/>
<path d="M38.7285 50.4047H9.46085C9.24285 50.4047 9.03378 50.3187 8.87963 50.1658C8.72548 50.0128 8.63889 49.8054 8.63889 49.589C8.63889 49.3727 8.72548 49.1653 8.87963 49.0123C9.03378 48.8594 9.24285 48.7734 9.46085 48.7734H38.7285C38.9465 48.7734 39.1556 48.8594 39.3097 49.0123C39.4639 49.1653 39.5505 49.3727 39.5505 49.589C39.5505 49.8054 39.4639 50.0128 39.3097 50.1658C39.1556 50.3187 38.9465 50.4047 38.7285 50.4047Z" fill="#E6E6E6"/>
<path d="M35.3379 56.7308H9.46085C9.24285 56.7308 9.03378 56.6449 8.87963 56.4919C8.72548 56.339 8.63889 56.1315 8.63889 55.9152C8.63889 55.6989 8.72548 55.4914 8.87963 55.3385C9.03378 55.1855 9.24285 55.0996 9.46085 55.0996H35.3379C35.5559 55.0996 35.765 55.1855 35.9191 55.3385C36.0733 55.4914 36.1599 55.6989 36.1599 55.9152C36.1599 56.1315 36.0733 56.339 35.9191 56.4919C35.765 56.6449 35.5559 56.7308 35.3379 56.7308Z" fill="#E6E6E6"/>
<path d="M38.7285 59.4827H9.46085C9.24285 59.4827 9.03378 59.3968 8.87963 59.2438C8.72548 59.0909 8.63889 58.8834 8.63889 58.6671C8.63889 58.4508 8.72548 58.2434 8.87963 58.0904C9.03378 57.9375 9.24285 57.8516 9.46085 57.8516H38.7285C38.9465 57.8516 39.1556 57.9375 39.3097 58.0904C39.4639 58.2434 39.5505 58.4508 39.5505 58.6671C39.5505 58.8834 39.4639 59.0909 39.3097 59.2438C39.1556 59.3968 38.9465 59.4827 38.7285 59.4827Z" fill="#E6E6E6"/>
<path d="M90.2569 52.9209L53.5389 52.9209C53.0767 52.9204 52.6335 52.738 52.3066 52.4136C51.9797 52.0893 51.7959 51.6495 51.7954 51.1908L51.7953 1.73014C51.7958 1.27144 51.9797 0.831684 52.3066 0.507337C52.6335 0.182991 53.0766 0.000545195 53.5389 2.86345e-05L90.2568 0C90.7191 0.000515897 91.1623 0.182959 91.4892 0.507305C91.8161 0.831651 91.9999 1.27141 92.0004 1.73011L92.0005 51.1908C92 51.6495 91.8161 52.0893 91.4892 52.4136C91.1623 52.7379 90.7192 52.9204 90.2569 52.9209Z" fill="white"/>
<path d="M90.2569 52.9209L53.5389 52.9209C53.0767 52.9204 52.6335 52.738 52.3066 52.4136C51.9797 52.0893 51.7959 51.6495 51.7954 51.1908L51.7953 1.73014C51.7958 1.27144 51.9797 0.831684 52.3066 0.507337C52.6335 0.182991 53.0766 0.000545195 53.5389 2.86345e-05L90.2568 0C90.7191 0.000515897 91.1623 0.182959 91.4892 0.507305C91.8161 0.831651 91.9999 1.27141 92.0004 1.73011L92.0005 51.1908C92 51.6495 91.8161 52.0893 91.4892 52.4136C91.1623 52.7379 90.7192 52.9204 90.2569 52.9209ZM53.5389 0.203571C53.131 0.20403 52.74 0.365012 52.4516 0.651199C52.1631 0.937387 52.0009 1.32541 52.0004 1.73014L52.0005 51.1908C52.0009 51.5956 52.1632 51.9836 52.4516 52.2698C52.74 52.556 53.1311 52.7169 53.5389 52.7174L90.2569 52.7174C90.6648 52.7169 91.0558 52.5559 91.3442 52.2697C91.6327 51.9836 91.7949 51.5955 91.7954 51.1908L91.7953 1.73011C91.7949 1.32538 91.6326 0.937356 91.3442 0.651169C91.0558 0.364982 90.6647 0.204 90.2568 0.203542L53.5389 0.203571Z" fill="#CCCCCC"/>
<path d="M70.2594 12.8041C70.2594 14.1424 69.8594 15.4508 69.11 16.5636C68.3607 17.6764 67.2956 18.5437 66.0494 19.0559C64.8033 19.5681 63.4321 19.7021 62.1092 19.441C60.7863 19.1799 59.5711 18.5354 58.6174 17.589C57.6636 16.6426 57.0141 15.4369 56.751 14.1242C56.4878 12.8116 56.6229 11.451 57.1391 10.2145C57.6552 8.97797 58.5293 7.92111 59.6508 7.17755C60.7723 6.43399 62.0908 6.03711 63.4396 6.03711C65.2482 6.03767 66.9825 6.7508 68.2613 8.01973C69.5401 9.28865 70.2588 11.0095 70.2594 12.8041Z" fill="white"/>
<path d="M66.5917 13.9624C66.5172 18.2902 60.0295 18.2896 59.9556 13.9623C60.0301 9.63461 66.5178 9.63528 66.5917 13.9624Z" fill="#E20613"/>
<path d="M63.1418 15.3054L63.1384 15.1824C63.993 15.2956 64.177 14.2447 63.3152 14.6376L63.5119 13.2109L63.6348 13.2276L63.4674 14.4412C64.3749 14.3071 64.0392 15.4284 63.1418 15.3054Z" fill="#2F2E41"/>
<path d="M64.9102 13.332H64.2423V13.4551H64.9102V13.332Z" fill="#2F2E41"/>
<path d="M62.8027 13.332H62.1349V13.4551H62.8027V13.332Z" fill="#2F2E41"/>
<path d="M64.3488 18.5661C64.479 17.6944 63.4505 17.8667 62.9062 17.8581C62.8184 17.8584 62.7318 17.878 62.6527 17.9157C62.5735 17.9534 62.5039 18.0081 62.4488 18.0759C62.3937 18.1437 62.3545 18.2228 62.3341 18.3075C62.3137 18.3922 62.3126 18.4804 62.3308 18.5655C61.9095 18.6948 61.5194 18.9083 61.1845 19.193C62.5957 19.6813 64.1292 19.6981 65.551 19.241C65.2044 18.9321 64.7941 18.7019 64.3488 18.5661Z" fill="#2F2E41"/>
<path d="M61.7134 12.4045C62.3283 12.0519 63.074 12.3224 63.7092 12.4703C64.9143 12.8379 66.6043 12.3776 66.7508 10.9531C66.9033 9.62834 65.077 8.88999 64.4932 10.2085L64.6632 10.1865C62.77 7.39468 59.4768 7.50057 59.4985 11.3388C59.4915 11.4574 59.6775 11.457 59.6844 11.3387C59.6147 9.07692 61.1233 7.53081 63.2558 8.98435C63.7321 9.35431 64.152 9.79057 64.5026 10.2796C64.7247 10.5266 64.7729 9.46303 65.8359 9.7416C67.0057 10.1913 66.624 11.8534 65.5784 12.2183C64.2865 12.8732 62.8873 11.6034 61.6195 12.2451C61.5991 12.2578 61.5845 12.278 61.5788 12.3013C61.5731 12.3245 61.5767 12.3491 61.5889 12.3698C61.601 12.3905 61.6208 12.4056 61.6441 12.4121C61.6673 12.4186 61.6922 12.4159 61.7134 12.4045Z" fill="#2F2E41"/>
<path d="M63.4396 19.7566C61.6785 19.7551 59.9826 19.0949 58.6902 17.9078C57.3979 16.7206 56.604 15.0937 56.4669 13.3515C56.3298 11.6093 56.8596 9.87987 57.9507 8.50808C59.0417 7.1363 60.6137 6.22299 62.3533 5.95033C64.0928 5.67766 65.872 6.06566 67.3361 7.03696C68.8001 8.00826 69.8414 9.49146 70.2522 11.1908C70.663 12.8901 70.4131 14.6806 69.5525 16.2052C68.6918 17.7298 67.2836 18.8765 65.6087 19.4165C64.9082 19.6426 64.1762 19.7573 63.4396 19.7566ZM63.4396 6.22265C62.1273 6.22247 60.8444 6.60844 59.7532 7.33175C58.662 8.05507 57.8115 9.08324 57.3092 10.2862C56.8069 11.4892 56.6755 12.813 56.9314 14.0901C57.1874 15.3672 57.8193 16.5404 58.7472 17.4611C59.6752 18.3819 60.8574 19.0089 62.1445 19.2629C63.4316 19.5169 64.7657 19.3864 65.978 18.888C67.1904 18.3896 68.2266 17.5457 68.9555 16.4629C69.6845 15.3801 70.0735 14.1072 70.0733 12.805C70.0713 11.0599 69.3717 9.38678 68.1281 8.15276C66.8845 6.91875 65.1983 6.22462 63.4396 6.22265Z" fill="#CCCCCC"/>
<path d="M83.1484 12.8461L72.7585 12.8461C72.5405 12.8461 72.3314 12.7601 72.1773 12.6072C72.0231 12.4542 71.9365 12.2468 71.9365 12.0305C71.9365 11.8141 72.0231 11.6067 72.1773 11.4537C72.3314 11.3008 72.5405 11.2149 72.7585 11.2149L83.1484 11.2148C83.3664 11.2148 83.5755 11.3008 83.7296 11.4537C83.8838 11.6067 83.9704 11.8141 83.9704 12.0304C83.9704 12.2468 83.8838 12.4542 83.7296 12.6072C83.5755 12.7601 83.3664 12.8461 83.1484 12.8461Z" fill="#E6E6E6"/>
<path d="M86.5386 15.598L72.7581 15.598C72.6501 15.5981 72.5431 15.5771 72.4432 15.5362C72.3434 15.4953 72.2527 15.4352 72.1762 15.3595C72.0998 15.2837 72.0392 15.1938 71.9978 15.0948C71.9564 14.9957 71.9351 14.8896 71.9351 14.7824C71.9351 14.6752 71.9564 14.5691 71.9978 14.4701C72.0392 14.371 72.0998 14.2811 72.1762 14.2053C72.2527 14.1296 72.3434 14.0695 72.4432 14.0286C72.5431 13.9877 72.6501 13.9667 72.7581 13.9668L86.5386 13.9668C86.7566 13.9668 86.9657 14.0527 87.1198 14.2057C87.2739 14.3586 87.3605 14.5661 87.3605 14.7824C87.3605 14.9987 87.2739 15.2062 87.1198 15.3591C86.9657 15.5121 86.7566 15.598 86.5386 15.598Z" fill="#E6E6E6"/>
<path d="M83.133 26.1566L57.2559 26.1566C57.038 26.1564 56.8292 26.0703 56.6753 25.9174C56.5214 25.7645 56.4349 25.5572 56.4349 25.341C56.4349 25.1249 56.5214 24.9176 56.6753 24.7647C56.8292 24.6117 57.038 24.5257 57.2559 24.5254L83.133 24.5254C83.3509 24.5254 83.56 24.6113 83.7142 24.7643C83.8683 24.9172 83.9549 25.1247 83.9549 25.341C83.9549 25.5573 83.8683 25.7648 83.7142 25.9177C83.56 26.0707 83.3509 26.1566 83.133 26.1566Z" fill="#E6E6E6"/>
<path d="M86.5239 28.9085L57.2562 28.9086C57.1482 28.9087 57.0412 28.8877 56.9413 28.8468C56.8415 28.8058 56.7508 28.7458 56.6743 28.67C56.5979 28.5943 56.5373 28.5043 56.4959 28.4053C56.4545 28.3063 56.4332 28.2002 56.4332 28.093C56.4332 27.9858 56.4545 27.8796 56.4959 27.7806C56.5373 27.6816 56.5979 27.5916 56.6743 27.5159C56.7508 27.4401 56.8415 27.3801 56.9413 27.3392C57.0412 27.2982 57.1482 27.2772 57.2562 27.2774L86.5239 27.2773C86.7419 27.2773 86.951 27.3633 87.1051 27.5162C87.2593 27.6692 87.3459 27.8766 87.3459 28.0929C87.3459 28.3093 87.2593 28.5167 87.1051 28.6697C86.951 28.8226 86.7419 28.9085 86.5239 28.9085Z" fill="#E6E6E6"/>
<path d="M83.1332 35.2367L57.2561 35.2367C57.0382 35.2364 56.8294 35.1504 56.6755 34.9975C56.5216 34.8445 56.4351 34.6372 56.4351 34.4211C56.4351 34.205 56.5216 33.9977 56.6755 33.8447C56.8294 33.6918 57.0382 33.6058 57.2561 33.6055L83.1332 33.6055C83.3512 33.6055 83.5602 33.6914 83.7144 33.8444C83.8685 33.9973 83.9551 34.2048 83.9551 34.4211C83.9551 34.6374 83.8685 34.8448 83.7144 34.9978C83.5602 35.1507 83.3512 35.2367 83.1332 35.2367Z" fill="#E6E6E6"/>
<path d="M86.5236 37.9886L57.2559 37.9887C57.1479 37.9888 57.0409 37.9678 56.941 37.9269C56.8412 37.8859 56.7505 37.8259 56.674 37.7501C56.5976 37.6744 56.537 37.5844 56.4956 37.4854C56.4542 37.3864 56.4329 37.2802 56.4329 37.173C56.4329 37.0659 56.4542 36.9597 56.4956 36.8607C56.537 36.7617 56.5976 36.6717 56.674 36.596C56.7505 36.5202 56.8412 36.4602 56.941 36.4192C57.0409 36.3783 57.1479 36.3573 57.2559 36.3574L86.5236 36.3574C86.7416 36.3574 86.9507 36.4434 87.1048 36.5963C87.259 36.7493 87.3456 36.9567 87.3456 37.173C87.3456 37.3893 87.259 37.5968 87.1048 37.7497C86.9507 37.9027 86.7416 37.9886 86.5236 37.9886Z" fill="#E6E6E6"/>
<path d="M83.1329 44.3148L57.2558 44.3148C57.0378 44.3148 56.8287 44.2289 56.6746 44.0759C56.5204 43.923 56.4338 43.7155 56.4338 43.4992C56.4338 43.2829 56.5204 43.0755 56.6746 42.9225C56.8287 42.7695 57.0378 42.6836 57.2558 42.6836L83.1329 42.6836C83.3509 42.6836 83.5599 42.7695 83.7141 42.9225C83.8682 43.0754 83.9548 43.2829 83.9548 43.4992C83.9548 43.7155 83.8682 43.923 83.7141 44.0759C83.5599 44.2289 83.3509 44.3148 83.1329 44.3148Z" fill="#E6E6E6"/>
<path d="M86.5235 47.0687L57.2558 47.0687C57.0378 47.0687 56.8287 46.9828 56.6746 46.8298C56.5204 46.6769 56.4338 46.4694 56.4338 46.2531C56.4338 46.0368 56.5204 45.8294 56.6746 45.6764C56.8287 45.5235 57.0378 45.4375 57.2558 45.4375L86.5235 45.4375C86.7415 45.4375 86.9505 45.5234 87.1047 45.6764C87.2588 45.8293 87.3454 46.0368 87.3454 46.2531C87.3454 46.4694 87.2588 46.6768 87.1047 46.8298C86.9505 46.9828 86.7415 47.0687 86.5235 47.0687Z" fill="#E6E6E6"/>
<path d="M68.1027 74.1904H31.3847C30.9224 74.1899 30.4792 74.0074 30.1524 73.6831C29.8255 73.3587 29.6416 72.919 29.6411 72.4603V22.9996C29.6416 22.5409 29.8255 22.1012 30.1524 21.7768C30.4792 21.4525 30.9224 21.27 31.3847 21.2695H68.1027C68.5649 21.27 69.0081 21.4525 69.335 21.7768C69.6619 22.1012 69.8457 22.5409 69.8462 22.9996V72.4603C69.8457 72.919 69.6619 73.3587 69.335 73.6831C69.0081 74.0074 68.5649 74.1899 68.1027 74.1904Z" fill="white"/>
<path d="M34.4472 34.0033C34.446 34.8939 34.6226 35.776 34.9667 36.5986C35.3108 37.4212 35.8157 38.1681 36.4522 38.7961C36.5055 38.8484 36.5601 38.9007 36.6152 38.9518C36.9476 39.2599 37.3103 39.5342 37.6977 39.7706C37.7721 39.8161 37.8465 39.8598 37.9228 39.9022C38.3146 40.1213 38.7275 40.3012 39.1553 40.4393C39.229 40.4632 39.3041 40.486 39.3791 40.5069C40.7389 40.8939 42.186 40.8535 43.5217 40.3913C43.5478 40.382 43.5738 40.3728 43.5992 40.3636C44.7718 39.9403 45.8048 39.206 46.5859 38.2405C47.367 37.2751 47.8663 36.1155 48.0293 34.8881C48.1923 33.6606 48.0129 32.4123 47.5105 31.279C47.0081 30.1457 46.2021 29.1709 45.1801 28.4607C44.1581 27.7504 42.9593 27.332 41.7143 27.2509C40.4693 27.1698 39.2256 27.4291 38.1188 28.0007C37.012 28.5722 36.0845 29.4341 35.4371 30.4925C34.7897 31.5509 34.4473 32.7652 34.4472 34.0033Z" fill="white"/>
<path d="M39.8266 37.3197C39.8299 37.844 39.6351 38.3504 39.2807 38.7393C38.9301 39.1211 38.4081 39.3744 37.8813 39.2696C37.3962 39.1731 37.002 38.7524 37.0512 38.2435C37.0593 38.1333 37.0916 38.0261 37.1458 37.9296C37.2 37.833 37.2747 37.7493 37.3648 37.6843C37.4549 37.6193 37.5582 37.5746 37.6675 37.5533C37.7768 37.532 37.8895 37.5346 37.9977 37.561C38.4585 37.6796 38.6421 38.3386 38.2581 38.6479C38.166 38.7221 38.0336 38.5923 38.1266 38.5174C38.1839 38.4654 38.2272 38.3999 38.2524 38.327C38.2777 38.254 38.2841 38.176 38.271 38.1C38.258 38.024 38.226 37.9524 38.1778 37.8919C38.1297 37.8313 38.0671 37.7837 37.9956 37.7534C37.9113 37.7266 37.8219 37.7192 37.7343 37.7318C37.6467 37.7443 37.5631 37.7765 37.4898 37.8258C37.4165 37.8752 37.3556 37.9404 37.3115 38.0166C37.2674 38.0928 37.2413 38.1779 37.2353 38.2656C37.2049 38.6946 37.5361 39.0177 37.9423 39.0938C38.3818 39.1761 38.8175 38.9529 39.1152 38.6449C39.4565 38.2872 39.6448 37.8122 39.6406 37.3197C39.6414 37.2958 39.6515 37.2731 39.6689 37.2564C39.6862 37.2398 39.7094 37.2305 39.7336 37.2305C39.7577 37.2305 39.7809 37.2398 39.7982 37.2564C39.8156 37.2731 39.8258 37.2958 39.8266 37.3197V37.3197Z" fill="#2F2E41"/>
<path d="M41.6427 38.493C43.4752 38.493 44.9608 37.0189 44.9608 35.2006C44.9608 33.3822 43.4752 31.9082 41.6427 31.9082C39.8102 31.9082 38.3247 33.3822 38.3247 35.2006C38.3247 37.0189 39.8102 38.493 41.6427 38.493Z" fill="#E20613"/>
<path d="M41.4729 36.6062L41.4695 36.4832C41.7001 36.4768 41.9035 36.4624 42.0563 36.3517C42.0996 36.3185 42.1352 36.2764 42.1607 36.2283C42.1862 36.1803 42.2009 36.1273 42.2039 36.0731C42.2066 36.04 42.2016 36.0067 42.1892 35.9758C42.1768 35.9449 42.1574 35.9173 42.1325 35.895C42.0747 35.8603 42.0086 35.8417 41.9411 35.8411C41.8736 35.8405 41.8072 35.858 41.7488 35.8917L41.6462 35.9383L41.843 34.5117L41.9658 34.5284L41.7985 35.7419C41.867 35.7167 41.9408 35.7089 42.0131 35.7193C42.0854 35.7296 42.154 35.7577 42.2125 35.8011C42.2519 35.8352 42.2828 35.8779 42.3028 35.9258C42.3228 35.9738 42.3314 36.0256 42.3278 36.0774C42.3242 36.1503 42.3046 36.2215 42.2703 36.286C42.236 36.3505 42.188 36.4069 42.1294 36.451C41.9331 36.5934 41.6779 36.6005 41.4729 36.6062Z" fill="#2F2E41"/>
<path d="M43.2408 34.6328H42.573V34.7559H43.2408V34.6328Z" fill="#2F2E41"/>
<path d="M41.1332 34.6328H40.4654V34.7559H41.1332V34.6328Z" fill="#2F2E41"/>
<path d="M39.3791 40.5069C40.7388 40.8938 42.186 40.8534 43.5217 40.3912C43.5478 40.382 43.5738 40.3728 43.5992 40.3635C43.2845 40.1226 42.9285 39.94 42.5484 39.8246C42.5753 39.73 42.5748 39.6298 42.5471 39.5355C42.5095 39.4159 42.434 39.3115 42.3318 39.2379C42.2295 39.1643 42.1061 39.1254 41.9799 39.127H41.1714C41.0454 39.1253 40.9221 39.1641 40.8201 39.2376C40.7181 39.3111 40.6428 39.4154 40.6054 39.5349C40.5777 39.6294 40.5773 39.7298 40.6042 39.8246C40.2693 39.9264 39.9529 40.0802 39.6667 40.2805C39.6091 40.3205 39.5533 40.3623 39.4994 40.406C39.4584 40.4386 39.4181 40.4724 39.3791 40.5069Z" fill="#2F2E41"/>
<path d="M44.2416 34.8515C44.2416 35.4063 44.5169 35.8665 44.8746 35.9465C44.911 35.9546 44.9482 35.9587 44.9856 35.9588C45.3954 35.9588 45.7295 35.4623 45.7295 34.8515C45.7388 34.5365 45.6375 34.2282 45.4431 33.9791C45.3826 33.9065 45.3082 33.8465 45.2242 33.8026C45.1506 33.7644 45.0687 33.7444 44.9856 33.7441C44.8714 33.7455 44.7605 33.7826 44.6687 33.85C44.4164 34.0271 44.2416 34.4091 44.2416 34.8515Z" fill="#3F3D56"/>
<path d="M37.6082 34.8515C37.6082 35.3288 37.8116 35.7361 38.0968 35.8917C38.1748 35.9351 38.2627 35.9582 38.3522 35.9588C38.3721 35.9588 38.392 35.9575 38.4117 35.9551C38.7936 35.9102 39.0962 35.4328 39.0962 34.8515C39.0962 34.3858 38.9021 33.9865 38.6281 33.8235C38.5452 33.7724 38.4497 33.745 38.3522 33.7441C38.2691 33.7444 38.1872 33.7644 38.1135 33.8026C38.0293 33.8467 37.9547 33.9069 37.894 33.9798C37.7001 34.2288 37.5992 34.5369 37.6082 34.8515Z" fill="#3F3D56"/>
<path d="M38.1434 35.7852C38.1582 35.7852 38.1727 35.7817 38.1858 35.775C38.199 35.7683 38.2103 35.7586 38.2189 35.7467C38.2275 35.7348 38.2332 35.721 38.2353 35.7065C38.2375 35.692 38.2362 35.6773 38.2315 35.6634C38.0538 35.1389 38.0003 34.5809 38.0753 34.0326C38.1502 33.4843 38.3516 32.9605 38.6637 32.502C38.9758 32.0435 39.3903 31.6626 39.8749 31.3888C40.3595 31.1151 40.9012 30.956 41.4579 30.9237C42.0146 30.8915 42.5712 30.9871 43.0846 31.203C43.598 31.419 44.0543 31.7495 44.4181 32.1689C44.7818 32.5883 45.0432 33.0852 45.1819 33.6211C45.3206 34.1571 45.3329 34.7175 45.2178 35.2589C45.2128 35.2828 45.2175 35.3078 45.231 35.3282C45.2445 35.3487 45.2656 35.363 45.2897 35.3681C45.3138 35.3731 45.3389 35.3685 45.3596 35.3551C45.3802 35.3418 45.3947 35.3209 45.3998 35.297C45.5209 34.7278 45.508 34.1385 45.3622 33.575C45.2164 33.0116 44.9416 32.489 44.5592 32.0481C44.1768 31.6071 43.6971 31.2596 43.1573 31.0325C42.6175 30.8054 42.0322 30.705 41.4469 30.7389C40.8616 30.7727 40.2921 30.9401 39.7826 31.228C39.2731 31.5158 38.8374 31.9163 38.5092 32.3985C38.1811 32.8806 37.9695 33.4313 37.8907 34.0078C37.812 34.5842 37.8683 35.171 38.0553 35.7224C38.0615 35.7407 38.0734 35.7566 38.0892 35.7678C38.105 35.7791 38.1239 35.7852 38.1434 35.7852Z" fill="#3F3D56"/>
<path d="M43.3095 33.0672C43.3646 33.1564 43.3875 33.2615 43.3744 33.3653C43.3614 33.4691 43.3132 33.5654 43.2377 33.6384C43.0576 33.8381 42.7704 33.8507 42.5209 33.8136C42.2411 33.7721 41.9442 33.6419 41.6609 33.7296C41.4194 33.8044 41.2471 34.0217 40.9962 34.0763C40.7737 34.1247 40.5076 34.0606 40.4296 33.8253C40.3921 33.7122 40.5716 33.6637 40.6089 33.7762C40.6594 33.9285 40.8773 33.9254 41.0021 33.8833C41.2021 33.8157 41.3563 33.6513 41.553 33.5728C41.7874 33.5007 42.0383 33.5014 42.2723 33.5747C42.4948 33.6244 42.7508 33.6981 42.9724 33.6053C43.1364 33.5366 43.2669 33.3201 43.1489 33.1604C43.0781 33.0645 43.2395 32.9723 43.3095 33.0672V33.0672Z" fill="#2F2E41"/>
<path d="M41.2671 40.9553C40.611 40.9558 39.9582 40.8647 39.3277 40.6847C39.2536 40.6641 39.1758 40.6406 39.0976 40.6152C38.6583 40.4733 38.2343 40.2885 37.8317 40.0635C37.7562 40.0215 37.6804 39.9772 37.6003 39.9282C37.2024 39.6853 36.8299 39.4035 36.4884 39.0871C36.4321 39.0349 36.3763 38.9814 36.3217 38.928C35.2479 37.8656 34.5504 36.4862 34.3342 34.9969C34.1179 33.5076 34.3945 31.9889 35.1224 30.669C35.8503 29.349 36.9902 28.2991 38.3709 27.6769C39.7516 27.0546 41.2984 26.8938 42.7791 27.2184C44.2597 27.543 45.5942 28.3357 46.5821 29.4772C47.57 30.6187 48.158 32.0475 48.2576 33.5489C48.3573 35.0503 47.9632 36.5432 47.1347 37.8034C46.3062 39.0636 45.088 40.023 43.663 40.5375C43.6374 40.5468 43.6109 40.5562 43.5845 40.5656C42.8397 40.8243 42.0562 40.9561 41.2671 40.9553ZM41.2671 27.4214C39.9542 27.4214 38.6708 27.8081 37.5794 28.5323C36.4881 29.2565 35.6378 30.2858 35.1364 31.4898C34.6349 32.6938 34.5047 34.0184 34.7624 35.2959C35.02 36.5733 35.6539 37.7462 36.5837 38.6659C36.6352 38.7164 36.6884 38.7674 36.7423 38.8173C37.0657 39.117 37.4185 39.3838 37.7954 39.6139C37.8713 39.6603 37.9427 39.7021 38.014 39.7417C38.3952 39.9548 38.7968 40.1299 39.2129 40.2642C39.2865 40.2882 39.3593 40.3102 39.4296 40.3297C40.7526 40.7065 42.1607 40.6673 43.4604 40.2176L43.5356 40.1908C45.0012 39.6614 46.232 38.6366 47.0119 37.2963C47.7918 35.956 48.0708 34.3859 47.8 32.8618C47.5293 31.3376 46.726 29.9568 45.5313 28.9619C44.3366 27.967 42.8268 27.4216 41.2671 27.4214L41.2671 27.4214Z" fill="#CCCCCC"/>
<path d="M68.1027 74.1904H31.3847C30.9224 74.1899 30.4792 74.0074 30.1524 73.6831C29.8255 73.3587 29.6416 72.919 29.6411 72.4603V22.9996C29.6416 22.5409 29.8255 22.1012 30.1524 21.7768C30.4792 21.4525 30.9224 21.27 31.3847 21.2695H68.1027C68.5649 21.27 69.0081 21.4525 69.335 21.7768C69.6619 22.1012 69.8457 22.5409 69.8462 22.9996V72.4603C69.8457 72.919 69.6619 73.3587 69.335 73.6831C69.0081 74.0074 68.5649 74.1899 68.1027 74.1904ZM31.3847 21.4731C30.9768 21.4735 30.5858 21.6345 30.2974 21.9207C30.0089 22.2069 29.8467 22.5949 29.8462 22.9996V72.4603C29.8467 72.865 30.0089 73.253 30.2974 73.5392C30.5858 73.8254 30.9768 73.9864 31.3847 73.9869H68.1027C68.5105 73.9864 68.9016 73.8254 69.19 73.5392C69.4784 73.253 69.6407 72.865 69.6411 72.4603V22.9996C69.6407 22.5949 69.4784 22.2069 69.19 21.9207C68.9016 21.6345 68.5105 21.4735 68.1027 21.4731H31.3847Z" fill="#3F3D56"/>
<path d="M60.9945 34.1156H50.6047C50.3867 34.1156 50.1776 34.0297 50.0235 33.8767C49.8693 33.7237 49.7827 33.5163 49.7827 33.3C49.7827 33.0837 49.8693 32.8762 50.0235 32.7233C50.1776 32.5703 50.3867 32.4844 50.6047 32.4844H60.9945C61.2125 32.4844 61.4216 32.5703 61.5758 32.7233C61.7299 32.8762 61.8165 33.0837 61.8165 33.3C61.8165 33.5163 61.7299 33.7237 61.5758 33.8767C61.4216 34.0297 61.2125 34.1156 60.9945 34.1156Z" fill="#E20613"/>
<path d="M64.3852 36.8695H50.6047C50.3867 36.8695 50.1776 36.7836 50.0235 36.6306C49.8693 36.4777 49.7827 36.2702 49.7827 36.0539C49.7827 35.8376 49.8693 35.6301 50.0235 35.4772C50.1776 35.3242 50.3867 35.2383 50.6047 35.2383H64.3852C64.6032 35.2383 64.8122 35.3242 64.9664 35.4772C65.1205 35.6301 65.2071 35.8376 65.2071 36.0539C65.2071 36.2702 65.1205 36.4777 64.9664 36.6306C64.8122 36.7836 64.6032 36.8695 64.3852 36.8695Z" fill="#E20613"/>
<path d="M60.979 47.4261H35.1019C34.8839 47.4261 34.6749 47.3402 34.5207 47.1872C34.3666 47.0343 34.28 46.8268 34.28 46.6105C34.28 46.3942 34.3666 46.1868 34.5207 46.0338C34.6749 45.8809 34.8839 45.7949 35.1019 45.7949H60.979C61.197 45.7949 61.4061 45.8809 61.5602 46.0338C61.7143 46.1868 61.801 46.3942 61.801 46.6105C61.801 46.8268 61.7143 47.0343 61.5602 47.1872C61.4061 47.3402 61.197 47.4261 60.979 47.4261Z" fill="#CCCCCC"/>
<path d="M64.3696 50.18H35.1019C34.8839 50.18 34.6749 50.0941 34.5207 49.9411C34.3666 49.7882 34.28 49.5807 34.28 49.3644C34.28 49.1481 34.3666 48.9407 34.5207 48.7877C34.6749 48.6348 34.8839 48.5488 35.1019 48.5488H64.3696C64.5876 48.5488 64.7966 48.6348 64.9508 48.7877C65.1049 48.9407 65.1915 49.1481 65.1915 49.3644C65.1915 49.5807 65.1049 49.7882 64.9508 49.9411C64.7966 50.0941 64.5876 50.18 64.3696 50.18Z" fill="#CCCCCC"/>
<path d="M60.9792 56.5062H35.1021C34.8843 56.506 34.6755 56.4199 34.5216 56.267C34.3676 56.1141 34.2812 55.9067 34.2812 55.6906C34.2812 55.4745 34.3676 55.2672 34.5216 55.1142C34.6755 54.9613 34.8843 54.8753 35.1021 54.875H60.9792C61.1972 54.875 61.4063 54.9609 61.5604 55.1139C61.7146 55.2668 61.8012 55.4743 61.8012 55.6906C61.8012 55.9069 61.7146 56.1144 61.5604 56.2673C61.4063 56.4203 61.1972 56.5062 60.9792 56.5062Z" fill="#CCCCCC"/>
<path d="M64.3698 59.2582H35.1021C34.8843 59.2579 34.6755 59.1719 34.5216 59.0189C34.3676 58.866 34.2812 58.6587 34.2812 58.4426C34.2812 58.2264 34.3676 58.0191 34.5216 57.8662C34.6755 57.7133 34.8843 57.6272 35.1021 57.627H64.3698C64.5878 57.627 64.7969 57.7129 64.951 57.8658C65.1052 58.0188 65.1918 58.2262 65.1918 58.4426C65.1918 58.6589 65.1052 58.8663 64.951 59.0193C64.7969 59.1722 64.5878 59.2582 64.3698 59.2582Z" fill="#CCCCCC"/>
<path d="M60.979 65.5843H35.1019C34.8839 65.5843 34.6749 65.4984 34.5207 65.3455C34.3666 65.1925 34.28 64.985 34.28 64.7687C34.28 64.5524 34.3666 64.345 34.5207 64.192C34.6749 64.0391 34.8839 63.9531 35.1019 63.9531H60.979C61.197 63.9531 61.4061 64.0391 61.5602 64.192C61.7143 64.345 61.801 64.5524 61.801 64.7687C61.801 64.985 61.7143 65.1925 61.5602 65.3455C61.4061 65.4984 61.197 65.5843 60.979 65.5843Z" fill="#CCCCCC"/>
<path d="M64.3696 68.3382H35.1019C34.8839 68.3382 34.6749 68.2523 34.5207 68.0994C34.3666 67.9464 34.28 67.7389 34.28 67.5226C34.28 67.3063 34.3666 67.0989 34.5207 66.9459C34.6749 66.793 34.8839 66.707 35.1019 66.707H64.3696C64.5876 66.707 64.7966 66.793 64.9508 66.9459C65.1049 67.0989 65.1915 67.3063 65.1915 67.5226C65.1915 67.7389 65.1049 67.9464 64.9508 68.0994C64.7966 68.2523 64.5876 68.3382 64.3696 68.3382Z" fill="#CCCCCC"/>
<path d="M67.6762 62.9277C66.6119 62.9266 65.5579 63.1335 64.5743 63.5368C63.5907 63.9401 62.6969 64.5319 61.9439 65.2782C61.1909 66.0245 60.5936 66.9107 60.1861 67.8863C59.7785 68.8618 59.5687 69.9074 59.5687 70.9635C59.5687 72.0195 59.7785 73.0652 60.186 74.0407C60.5936 75.0162 61.1909 75.9025 61.9439 76.6488C62.6968 77.3951 63.5907 77.9868 64.5742 78.3901C65.5578 78.7934 66.6119 79.0004 67.6761 78.9993H67.6762C69.8215 78.9955 71.8777 78.1472 73.3934 76.6406C74.909 75.134 75.7603 73.0923 75.7603 70.9635C75.7603 68.8347 74.909 66.793 73.3934 65.2864C71.8777 63.7798 69.8215 62.9315 67.6762 62.9277Z" fill="#E20613"/>
<path d="M66.9082 74.3019C66.6951 74.3022 66.4875 74.2338 66.317 74.1069L66.3064 74.099L64.0793 72.4086C63.8713 72.25 63.7352 72.016 63.7009 71.7579C63.6667 71.4998 63.7371 71.2388 63.8967 71.0322C64.0563 70.8257 64.292 70.6904 64.5521 70.6562C64.8122 70.622 65.0753 70.6917 65.2836 70.8498L66.7261 71.9475L70.1349 67.5348C70.2139 67.4325 70.3125 67.3466 70.425 67.2821C70.5374 67.2176 70.6616 67.1757 70.7904 67.1588C70.9192 67.142 71.0501 67.1504 71.1756 67.1837C71.3011 67.217 71.4188 67.2746 71.5219 67.353L71.5219 67.353L71.5222 67.3532L71.501 67.3823L71.5227 67.3532C71.7307 67.5118 71.8668 67.7459 71.9011 68.0039C71.9354 68.262 71.8651 68.523 71.7057 68.7297L67.6963 73.9177C67.6035 74.0372 67.4843 74.134 67.3478 74.2004C67.2112 74.2668 67.0612 74.3011 66.9091 74.3007L66.9082 74.3019Z" fill="white"/>
</g>
<defs>
<filter id="filter0_d" x="0" y="0" width="96" height="87" filterUnits="userSpaceOnUse" color-interpolation-filters="sRGB">
<feFlood flood-opacity="0" result="BackgroundImageFix"/>
<feColorMatrix in="SourceAlpha" type="matrix" values="0 0 0 0 0 0 0 0 0 0 0 0 0 0 0 0 0 0 127 0"/>
<feOffset dy="4"/>
<feGaussianBlur stdDeviation="2"/>
<feColorMatrix type="matrix" values="0 0 0 0 0 0 0 0 0 0 0 0 0 0 0 0 0 0 0.25 0"/>
<feBlend mode="normal" in2="BackgroundImageFix" result="effect1_dropShadow"/>
<feBlend mode="normal" in="SourceGraphic" in2="effect1_dropShadow" result="shape"/>
</filter>
<clipPath id="clip0">
<rect width="88" height="79" fill="white" transform="translate(4)"/>
</clipPath>
</defs>
</svg>
