<svg width="186" height="50" viewBox="0 0 186 50" fill="none" xmlns="http://www.w3.org/2000/svg">
<path fill-rule="evenodd" clip-rule="evenodd" d="M164.147 7.70593C155.766 7.70593 148.976 14.4984 148.976 22.8745C148.976 25.9235 149.878 28.7601 151.426 31.1388C151.355 30.7485 151.313 30.3412 151.313 29.9061V29.8286C151.313 28.6938 151.518 27.7045 151.932 26.8661C152.344 26.0254 152.919 25.33 153.656 24.7747C154.393 24.2197 155.271 23.8051 156.29 23.534C157.313 23.263 158.416 23.1268 159.605 23.1268C160.846 23.1268 161.896 23.2035 162.761 23.3585C163.628 23.5152 164.463 23.7209 165.261 23.9781V23.5919C165.261 22.1701 164.828 21.0876 163.962 20.3382C163.097 19.5888 161.85 19.2133 160.224 19.2133C159.062 19.2133 158.026 19.3301 157.124 19.5619C156.22 19.7953 155.302 20.1048 154.372 20.4908L153.096 16.7351C154.23 16.2166 155.393 15.8045 156.581 15.4934C157.768 15.1832 159.202 15.0298 160.881 15.0298C163.929 15.0298 166.189 15.784 167.662 17.2974C169.136 18.8077 169.867 20.9325 169.867 23.6695V35.7958H165.222V33.2775C164.522 34.1061 163.632 34.8024 162.549 35.3706C161.463 35.9385 160.148 36.2227 158.596 36.2227C157.887 36.2227 157.207 36.1492 156.553 36.0079C158.786 37.3027 161.379 38.0479 164.147 38.0479C172.523 38.0479 179.313 31.2529 179.313 22.8745C179.313 14.4984 172.523 7.70593 164.147 7.70593Z" fill="white"/>
<path fill-rule="evenodd" clip-rule="evenodd" d="M159.913 32.6968C160.69 32.6968 161.405 32.5946 162.063 32.3881C162.721 32.1808 163.298 31.8893 163.787 31.5154C164.28 31.1407 164.661 30.6902 164.931 30.1604C165.201 29.6332 165.337 29.0445 165.337 28.3971V27.234C164.744 27.0045 164.041 26.8095 163.226 26.6537C162.413 26.4986 161.554 26.4217 160.65 26.4217C159.177 26.4217 158.026 26.7042 157.201 27.2733C156.374 27.8438 155.961 28.6159 155.961 29.5981V29.6771C155.961 30.6576 156.342 31.4061 157.103 31.9229C157.866 32.4404 158.803 32.6968 159.913 32.6968Z" fill="white"/>
<path fill-rule="evenodd" clip-rule="evenodd" d="M26.5967 21.7219C26.5967 22.9407 26.4147 24.0861 26.0523 25.1562C25.6889 26.2264 25.1861 27.1676 24.5429 27.9805C23.8989 28.7936 23.1209 29.4304 22.2083 29.8907C21.2957 30.3519 20.3014 30.5814 19.2247 30.5814C18.1243 30.5814 17.1243 30.3455 16.2239 29.8711C15.3228 29.3969 14.5383 28.7529 13.8715 27.9398C13.2044 27.1266 12.6893 26.1789 12.3269 25.095C11.9637 24.0117 11.7832 22.859 11.7832 21.6402V21.5587C11.7832 20.34 11.9637 19.1954 12.3269 18.1244C12.6893 17.0543 13.1931 16.1122 13.8363 15.3002C14.4804 14.487 15.2526 13.8503 16.153 13.3899C17.0541 12.9296 18.0541 12.6984 19.1554 12.6984C20.2303 12.6984 21.2255 12.936 22.1389 13.4104C23.0515 13.8846 23.841 14.5278 24.5078 15.3409C25.1749 16.1532 25.6889 17.1026 26.0523 18.1857C26.4147 19.2698 26.5967 20.4207 26.5967 21.6402V21.7219ZM30.7681 16.0951C30.1518 14.3963 29.2898 12.9172 28.1803 11.6586C27.0711 10.4006 25.7552 9.40228 24.2311 8.66273C22.7071 7.92317 21.0386 7.55328 19.2231 7.55328C17.4083 7.55328 15.7334 7.92317 14.1987 8.66273C12.664 9.40228 11.3416 10.4137 10.2332 11.6977C9.12377 12.9818 8.25528 14.4739 7.62835 16.1726C7.00059 17.8722 6.68713 19.6951 6.68713 21.6402V21.718C6.68713 23.6639 6.99474 25.4868 7.61122 27.1856C8.22748 28.8849 9.09034 30.3634 10.1996 31.6221C11.3082 32.8801 12.6249 33.8784 14.149 34.6179C15.6722 35.3575 17.3415 35.7274 19.1562 35.7274C20.9707 35.7274 22.6459 35.3575 24.1806 34.6179C25.7151 33.8784 27.0377 32.8669 28.1469 31.583C29.2555 30.2989 30.124 28.8066 30.7518 27.1078C31.3787 25.4093 31.6921 23.5864 31.6921 21.6402V21.5619C31.6921 19.6167 31.3843 17.7947 30.7681 16.0951Z" fill="white"/>
<path fill-rule="evenodd" clip-rule="evenodd" d="M49.7887 25.8469C49.7887 24.9522 49.6491 24.1335 49.3699 23.3874C49.0907 22.6429 48.7118 22.0061 48.2327 21.4772C47.7543 20.9491 47.2018 20.5427 46.5772 20.2585C45.9519 19.9736 45.2809 19.8307 44.5627 19.8307C43.845 19.8307 43.1732 19.9736 42.5479 20.2585C41.9235 20.5427 41.3775 20.9491 40.9129 21.4772C40.4475 22.0061 40.0754 22.6429 39.7962 23.3874C39.517 24.1335 39.3774 24.9522 39.3774 25.8469V25.9277C39.3774 26.8224 39.517 27.6428 39.7962 28.3874C40.0754 29.1334 40.4475 29.7693 40.9129 30.2982C41.3775 30.8271 41.9235 31.233 42.5479 31.5178C43.1732 31.8018 43.845 31.9439 44.5627 31.9439C45.2809 31.9439 45.9519 31.8018 46.5772 31.5178C47.2018 31.233 47.7543 30.8271 48.2327 30.2982C48.7118 29.7693 49.0907 29.1399 49.3699 28.4076C49.6491 27.6762 49.7887 26.8493 49.7887 25.9277V25.8469ZM53.3281 29.9718C52.8416 31.2361 52.2017 32.304 51.4082 33.1741C50.6139 34.046 49.6963 34.7021 48.654 35.1439C47.6108 35.5855 46.521 35.8068 45.3839 35.8068C43.9382 35.8068 42.7479 35.5144 41.8117 34.9299C40.8753 34.3454 40.0877 33.664 39.4484 32.8851V42.4465H34.0454V15.7085H39.4484V18.5181C40.1113 17.5932 40.9113 16.8317 41.8477 16.2349C42.783 15.6383 43.9619 15.3403 45.3839 15.3403C46.4973 15.3403 47.5748 15.5607 48.618 16.0031C49.6604 16.4447 50.5845 17.1011 51.3903 17.9721C52.1959 18.8431 52.8416 19.9107 53.3281 21.1744C53.8129 22.4389 54.0564 23.8927 54.0564 25.5367V25.6103C54.0564 27.2543 53.8129 28.7081 53.3281 29.9718Z" fill="white"/>
<path fill-rule="evenodd" clip-rule="evenodd" d="M70.2337 24.242C70.1602 23.5187 69.9936 22.8362 69.7464 22.2011C69.499 21.5635 69.1594 21.0167 68.7367 20.5538C68.3112 20.0942 67.8053 19.7269 67.2208 19.4502C66.6321 19.1743 65.9661 19.0387 65.2175 19.0387C63.8199 19.0387 62.6649 19.5187 61.7563 20.4804C60.8462 21.4411 60.2895 22.6941 60.0887 24.242H70.2337ZM65.7423 35.9583C64.3187 35.9583 62.993 35.7052 61.7563 35.2073C60.5204 34.7086 59.4486 34.0107 58.5377 33.1127C57.6251 32.2139 56.9066 31.1364 56.3842 29.8736C55.8626 28.6141 55.5989 27.223 55.5989 25.7006V25.6264C55.5989 24.2035 55.834 22.8705 56.3083 21.6216C56.7842 20.3726 57.4521 19.282 58.3116 18.3449C59.1753 17.4093 60.1898 16.6731 61.3613 16.1375C62.5351 15.5996 63.8339 15.3303 65.2549 15.3303C66.8281 15.3303 68.2075 15.6209 69.3928 16.194C70.5781 16.7686 71.5626 17.5408 72.3454 18.5146C73.1341 19.4878 73.7274 20.6175 74.1274 21.9023C74.525 23.1856 74.7234 24.5406 74.7234 25.9627C74.7234 26.1626 74.7185 26.3676 74.7071 26.5789C74.693 26.7937 74.6751 27.0132 74.6498 27.2345H60.1278C60.3769 28.8574 61.0192 30.0989 62.0543 30.9617C63.0893 31.8204 64.344 32.2507 65.8183 32.2507C66.9391 32.2507 67.912 32.0515 68.7367 31.6539C69.5594 31.2539 70.37 30.6662 71.17 29.8932L73.8271 32.2507C72.8769 33.3756 71.7494 34.2719 70.4394 34.9477C69.1277 35.6212 67.5626 35.9583 65.7423 35.9583Z" fill="white"/>
<path fill-rule="evenodd" clip-rule="evenodd" d="M87.4662 21.1933C85.6644 21.1933 84.249 21.7573 83.2188 22.8862C82.1879 24.0153 81.6719 25.7694 81.6719 28.1499V35.4387H76.2695V15.7086H81.6719V19.6839C82.2171 18.3346 82.9634 17.2537 83.9119 16.444C84.8588 15.6342 86.1388 15.2668 87.7501 15.3404V21.1933H87.4662Z" fill="white"/>
<path fill-rule="evenodd" clip-rule="evenodd" d="M101.603 27.225C101.035 27.0062 100.364 26.8202 99.5874 26.6716C98.8112 26.523 97.9916 26.4503 97.128 26.4503C95.7191 26.4503 94.6236 26.7197 93.8358 27.2626C93.0456 27.8078 92.653 28.5451 92.653 29.4821V29.5571C92.653 30.4935 93.0162 31.2086 93.7419 31.7016C94.4683 32.1963 95.3632 32.4403 96.4252 32.4403C97.1647 32.4403 97.847 32.3432 98.4773 32.1457C99.1059 31.9482 99.6561 31.6698 100.124 31.3123C100.59 30.9547 100.955 30.5245 101.213 30.0183C101.471 29.5155 101.603 28.954 101.603 28.3361V27.225ZM101.491 35.3986V32.9945C100.825 33.7866 99.9752 34.45 98.941 34.993C97.9043 35.535 96.6463 35.8069 95.1671 35.8069C94.2284 35.8069 93.3403 35.6761 92.5027 35.4191C91.6668 35.1595 90.9289 34.7775 90.3037 34.2714C89.6734 33.7652 89.1665 33.1392 88.7853 32.3848C88.4041 31.6322 88.2123 30.7652 88.2123 29.7768V29.7026C88.2123 28.6192 88.4106 27.6747 88.8033 26.8747C89.1984 26.0723 89.7484 25.4079 90.4498 24.8782C91.1534 24.3482 91.991 23.9524 92.9656 23.6946C93.9386 23.4348 94.9933 23.305 96.128 23.305C97.3133 23.305 98.3158 23.3778 99.1441 23.5263C99.9687 23.6758 100.763 23.8724 101.528 24.1182V23.7491C101.528 22.3916 101.115 21.3582 100.288 20.6431C99.4643 19.928 98.274 19.5696 96.7198 19.5696C95.6096 19.5696 94.6236 19.6808 93.7608 19.9019C92.8971 20.1249 92.0227 20.4204 91.1346 20.7884L89.9158 17.2032C91 16.7086 92.1076 16.3151 93.2423 16.0179C94.377 15.7224 95.7468 15.5755 97.3476 15.5755C100.258 15.5755 102.418 16.2954 103.82 17.7403C105.227 19.1811 105.93 21.2105 105.93 23.8235V35.3986H101.491Z" fill="white"/>
<path fill-rule="evenodd" clip-rule="evenodd" d="M115.532 35.7699C114.704 35.7699 113.935 35.6685 113.229 35.4677C112.522 35.2694 111.91 34.9388 111.394 34.4922C110.876 34.0408 110.475 33.4459 110.199 32.7078C109.921 31.9691 109.781 31.05 109.781 29.9447V19.505H107.266V15.598H109.781V10.1517H114.366V15.598H119.701V19.505H114.366V29.2344C114.366 30.1104 114.577 30.7422 115.006 31.13C115.43 31.5177 116.033 31.7128 116.807 31.7128C117.784 31.7128 118.723 31.4859 119.624 31.036V34.7543C119.05 35.0792 118.435 35.3298 117.784 35.5061C117.132 35.6825 116.381 35.7699 115.532 35.7699Z" fill="#BFBEBE"/>
<path fill-rule="evenodd" clip-rule="evenodd" d="M121.978 15.5981H126.559V35.4295H121.978V15.5981ZM121.789 8.23676H126.71V12.5542H121.789V8.23676Z" fill="#BFBEBE"/>
<path fill-rule="evenodd" clip-rule="evenodd" d="M127.584 15.5982H132.467L137.802 30.1727L143.173 15.5982H147.942L139.829 35.5814H135.735L127.584 15.5982Z" fill="#BFBEBE"/>
</svg>
