<svg width="56" height="85" viewBox="0 0 56 85" fill="none" xmlns="http://www.w3.org/2000/svg">
<g clip-path="url(#clip0)">
<path d="M54.9698 57.4343C54.9703 55.1577 54.13 52.9629 52.6132 51.2792C51.0965 49.5956 49.0124 48.5443 46.7689 48.3312C44.5254 48.118 42.2839 48.7584 40.4831 50.1268C38.6822 51.4953 37.4516 53.4934 37.0321 55.7301L9.22418 54.9681L9.52946 59.7947C9.52946 59.7947 5.56422 69.0381 26.4043 71.5009V80.8434H50.4965V65.3101C51.857 64.5053 52.9856 63.355 53.7703 61.9735C54.555 60.5919 54.9685 59.0271 54.9698 57.4343Z" fill="url(#paint0_linear)"/>
<path d="M10.4843 59.9979C10.4843 59.9979 6.68729 68.8496 26.6449 71.2111V80.1619H49.7177V56.4567L10.1879 55.375L10.4843 59.9979Z" fill="#F6B9AD"/>
<path d="M22.0157 23.059C21.4141 24.0181 20.4612 24.6977 19.3652 24.9493C18.2692 25.2009 17.1192 25.0041 16.1664 24.4019L3.77827 16.1546C2.82893 15.5468 2.15626 14.5841 1.90722 13.4768C1.65817 12.3696 1.85298 11.2077 2.4491 10.2451C3.05068 9.28728 4.00272 8.60856 5.09762 8.35701C6.19253 8.10545 7.34147 8.30146 8.2939 8.9023L20.6821 17.1496C21.6321 17.7567 22.3057 18.719 22.5556 19.8263C22.8055 20.9336 22.6114 22.0959 22.0157 23.059Z" fill="url(#paint1_linear)"/>
<path d="M21.3293 22.6074C20.7701 23.4989 19.8844 24.1306 18.8657 24.3645C17.8469 24.5984 16.778 24.4155 15.8923 23.8557L4.37318 16.1892C3.49074 15.6243 2.86548 14.7294 2.63397 13.7002C2.40246 12.671 2.58352 11.5911 3.13759 10.6963C3.69681 9.80477 4.58252 9.17307 5.60126 8.93918C6.61999 8.70529 7.68894 8.88821 8.57461 9.44798L20.0915 17.1156C20.974 17.6802 21.5995 18.5746 21.8314 19.6036C22.0634 20.6326 21.8828 21.7125 21.3293 22.6074Z" fill="#F6B9AD"/>
<path d="M45.3369 66.4901C50.1223 66.4901 54.0016 62.5708 54.0016 57.7362C54.0016 52.9016 50.1223 48.9824 45.3369 48.9824C40.5515 48.9824 36.6722 52.9016 36.6722 57.7362C36.6722 62.5708 40.5515 66.4901 45.3369 66.4901Z" fill="#F6B9AD"/>
<path d="M43.7772 0H10.5846C9.83084 0 9.21979 0.617339 9.21979 1.37887V64.1268C9.21979 64.8883 9.83084 65.5057 10.5846 65.5057H43.7772C44.5309 65.5057 45.142 64.8883 45.142 64.1268V1.37887C45.142 0.617339 44.5309 0 43.7772 0Z" fill="url(#paint2_linear)"/>
<path d="M43.1364 0.886719H11.2251C10.3858 0.886719 9.70544 1.57411 9.70544 2.42204V63.0876C9.70544 63.9355 10.3858 64.6229 11.2251 64.6229H43.1364C43.9757 64.6229 44.6561 63.9355 44.6561 63.0876V2.42204C44.6561 1.57411 43.9757 0.886719 43.1364 0.886719Z" fill="#373737"/>
<path d="M35.9614 2.48242C35.8603 3.15835 35.5231 3.7754 35.0108 4.22196C34.4985 4.66852 33.8449 4.9151 33.1682 4.9171H21.0976C20.4212 4.91483 19.7679 4.66813 19.2558 4.22159C18.7437 3.77506 18.4067 3.15816 18.3056 2.48242H11.9104C11.736 2.48227 11.5634 2.51684 11.4023 2.58415C11.2411 2.65145 11.0947 2.75018 10.9714 2.87468C10.848 2.99918 10.7502 3.14701 10.6834 3.30973C10.6167 3.47246 10.5823 3.64687 10.5823 3.82302V61.6791C10.5822 61.8552 10.6164 62.0297 10.683 62.1924C10.7496 62.3552 10.8474 62.5031 10.9706 62.6277C11.0938 62.7523 11.2402 62.8512 11.4012 62.9186C11.5623 62.9861 11.7349 63.0208 11.9093 63.0208H42.4524C42.6267 63.0209 42.7994 62.9864 42.9605 62.9191C43.1217 62.8518 43.2681 62.753 43.3914 62.6285C43.5147 62.504 43.6126 62.3562 43.6793 62.1935C43.7461 62.0308 43.7804 61.8563 43.7804 61.6802V3.82414C43.7806 3.648 43.7464 3.47355 43.6798 3.31077C43.6131 3.148 43.5154 3.00008 43.3922 2.87547C43.269 2.75087 43.1226 2.65202 42.9616 2.58458C42.8005 2.51714 42.6278 2.48242 42.4535 2.48242H35.9614Z" fill="#F1EFEF"/>
<path d="M30.9021 3.24609H23.5588C23.4358 3.24609 23.336 3.34688 23.336 3.47121V3.51286C23.336 3.63719 23.4358 3.73798 23.5588 3.73798H30.9021C31.0252 3.73798 31.125 3.63719 31.125 3.51286V3.47121C31.125 3.34688 31.0252 3.24609 30.9021 3.24609Z" fill="#DBDBDB"/>
<path d="M32.7793 3.73826C32.9405 3.73826 33.0712 3.60622 33.0712 3.44335C33.0712 3.28047 32.9405 3.14844 32.7793 3.14844C32.6181 3.14844 32.4874 3.28047 32.4874 3.44335C32.4874 3.60622 32.6181 3.73826 32.7793 3.73826Z" fill="#DBDBDB"/>
<path d="M50.9388 59.2809C48.4242 59.8685 46.6984 58.2116 46.1168 55.6722L40.3389 33.9976C40.0627 32.773 40.2773 31.4878 40.9359 30.4226C41.5945 29.3573 42.6436 28.5986 43.854 28.3122C45.0661 28.0332 46.3382 28.25 47.3926 28.9154C48.447 29.5808 49.198 30.6406 49.4815 31.8635L54.1966 54.0941C54.7782 56.638 53.4523 58.6933 50.9388 59.2809Z" fill="url(#paint3_linear)"/>
<path d="M48.8333 32.3944C48.343 30.2508 46.2256 28.9146 44.1039 29.4099C41.9822 29.9051 40.6596 32.0443 41.1498 34.1879L46.4628 57.4195C46.9531 59.5631 49.0705 60.8993 51.1922 60.404C53.3139 59.9087 54.6365 57.7695 54.1463 55.626L48.8333 32.3944Z" fill="#F6B9AD"/>
<path d="M53.9659 77.2344H20.9872V85.001H53.9659V77.2344Z" fill="url(#paint4_linear)"/>
<path d="M53.0745 78.1348H21.8785V84.213H53.0745V78.1348Z" fill="#FF8976"/>
<path d="M34.7916 35.5086L32.2358 33.5646L33.3499 32.1014L31.4904 30.6268L30.3284 32.1149L27.7001 30.1169C27.6 30.041 27.4782 30 27.353 30C27.2279 30 27.1061 30.041 27.006 30.1169L20.0392 35.3566C19.7752 35.5817 19.5279 35.8395 19.5256 36.4293H19.5178L19.5 44.5021V44.8612C19.4997 44.9768 19.522 45.0913 19.5655 45.1982C19.609 45.3051 19.6729 45.4023 19.7536 45.4843C19.8343 45.5662 19.9302 45.6313 20.0358 45.6758C20.1414 45.7203 20.2546 45.7434 20.369 45.7437H20.7122L27.3179 45.7583L34.268 45.7741C34.3824 45.7744 34.4957 45.7519 34.6016 45.7079C34.7074 45.664 34.8036 45.5994 34.8847 45.5179C34.9658 45.4363 35.0302 45.3395 35.0743 45.2328C35.1183 45.1261 35.1412 45.0117 35.1415 44.8961L35.1604 36.4788H35.1749C35.1749 35.8879 35.0557 35.7337 34.7916 35.5086Z" fill="url(#paint5_linear)"/>
<path d="M34.4884 36.6012C34.4884 36.0632 34.377 35.9259 34.1386 35.7176L27.6687 30.8021C27.5773 30.7328 27.4661 30.6953 27.3518 30.6953C27.2374 30.6953 27.1262 30.7328 27.0348 30.8021L20.6786 35.5837C20.5257 35.694 20.4027 35.8414 20.3209 36.0123C20.2392 36.1833 20.2012 36.3722 20.2107 36.5618H20.204L20.1873 43.9278V44.2553C20.187 44.4683 20.2703 44.6726 20.4191 44.8235C20.5678 44.9744 20.7697 45.0595 20.9805 45.0601H21.2936L27.3211 45.0736L33.6617 45.0883C33.8725 45.0886 34.0748 45.0043 34.2241 44.8541C34.3735 44.7038 34.4577 44.4998 34.4583 44.2868L34.475 36.6068L34.4884 36.6012Z" fill="url(#paint6_linear)"/>
<path d="M20.3209 36.5918L34.3401 36.6239L34.3226 44.4165C34.3225 44.4783 34.3103 44.5394 34.2868 44.5964C34.2633 44.6535 34.2288 44.7053 34.1855 44.7489C34.1421 44.7925 34.0907 44.827 34.0342 44.8505C33.9776 44.874 33.917 44.886 33.8559 44.8859L20.8204 44.856C20.6842 44.8557 20.5537 44.8007 20.4576 44.7032C20.3615 44.6057 20.3077 44.4736 20.308 44.3359L20.3254 36.5918L20.3209 36.5918Z" fill="#E20613"/>
<path opacity="0.2" d="M20.3209 36.5918L34.3401 36.6239L34.3226 44.4165C34.3225 44.4783 34.3103 44.5394 34.2868 44.5964C34.2633 44.6535 34.2288 44.7053 34.1855 44.7489C34.1421 44.7925 34.0907 44.827 34.0342 44.8505C33.9776 44.874 33.917 44.886 33.8559 44.8859L20.8204 44.856C20.6842 44.8557 20.5537 44.8007 20.4576 44.7032C20.3615 44.6057 20.3077 44.4736 20.308 44.3359L20.3254 36.5918L20.3209 36.5918Z" fill="white"/>
<path d="M20.3222 36.5898L20.3066 43.7476C20.3063 43.892 20.3342 44.035 20.3886 44.1686C20.4431 44.3021 20.523 44.4235 20.6239 44.5258C20.7248 44.6282 20.8446 44.7094 20.9765 44.765C21.1085 44.8205 21.25 44.8492 21.3929 44.8495L33.2352 44.8765" fill="#F5F5F5"/>
<path d="M34.3426 36.6211L34.327 43.7833C34.3268 43.9277 34.2983 44.0707 34.2433 44.204C34.1884 44.3373 34.1079 44.4584 34.0066 44.5603C33.9054 44.6622 33.7852 44.7429 33.653 44.7979C33.5208 44.8529 33.3792 44.8811 33.2363 44.8808L21.394 44.8538" fill="white"/>
<path d="M27.0338 30.9893L20.7946 35.638C20.6447 35.7445 20.5239 35.8876 20.4435 36.0539C20.363 36.2202 20.3255 36.4043 20.3344 36.5892L34.3604 36.6342C34.3604 36.1108 34.2489 35.9735 34.0172 35.7754L27.661 30.9916C27.5708 30.9226 27.4609 30.8852 27.3478 30.8848C27.2347 30.8844 27.1245 30.921 27.0338 30.9893Z" fill="#E20613"/>
<path opacity="0.2" d="M27.0338 30.9893L20.7946 35.638C20.6447 35.7445 20.5239 35.8876 20.4435 36.0539C20.363 36.2202 20.3255 36.4043 20.3344 36.5892L34.3604 36.6342C34.3604 36.1108 34.2489 35.9735 34.0172 35.7754L27.661 30.9916C27.5708 30.9226 27.4609 30.8852 27.3478 30.8848C27.2347 30.8844 27.1245 30.921 27.0338 30.9893Z" fill="black"/>
<path d="M32.824 32.6076L31.1271 31.2637L27.026 36.5112L24.8222 34.7846L23.4418 36.5574L26.6494 39.0326L27.4449 39.6776L32.824 32.6076Z" fill="url(#paint7_linear)"/>
<path d="M32.6993 32.5737L31.1618 31.3828L27.0874 36.7508L24.8245 34.9983L23.6447 36.5516L26.6762 38.8974L27.4539 39.486L32.6993 32.5737Z" fill="white"/>
<path d="M19.355 34.8724C18.7578 35.8242 17.812 36.4987 16.7242 36.7484C15.6364 36.9981 14.495 36.8028 13.5492 36.2051L3.02059 29.2792C2.07841 28.6758 1.41084 27.7203 1.16368 26.6213C0.916519 25.5223 1.10985 24.3692 1.70145 23.4137C2.29869 22.4618 3.24449 21.7874 4.3323 21.5377C5.4201 21.288 6.56151 21.4833 7.50725 22.081L18.0359 29.0068C18.9781 29.6102 19.6457 30.5658 19.8928 31.6647C20.14 32.7637 19.9466 33.9169 19.355 34.8724Z" fill="url(#paint8_linear)"/>
<path d="M18.7958 34.5079C18.2366 35.3994 17.3509 36.0311 16.3321 36.265C15.3134 36.4989 14.2445 36.3159 13.3588 35.7562L3.49751 29.2693C2.61508 28.7043 1.98981 27.8095 1.7583 26.7803C1.52679 25.7511 1.70784 24.6711 2.26192 23.7764C2.82114 22.8848 3.70685 22.2532 4.72559 22.0193C5.74432 21.7854 6.81327 21.9683 7.69894 22.5281L17.5602 29.0149C18.4427 29.5799 19.0679 30.4747 19.2994 31.5039C19.5309 32.5331 19.3499 33.6131 18.7958 34.5079Z" fill="#F6B9AD"/>
<path d="M17.207 46.3105C16.6127 47.2582 15.6713 47.9297 14.5884 48.1784C13.5056 48.4271 12.3693 48.2326 11.4279 47.6376L3.11865 42.2066C2.1806 41.6061 1.5159 40.655 1.26977 39.5611C1.02364 38.4671 1.21609 37.3191 1.80508 36.3681C2.39938 35.4204 3.3408 34.7488 4.42364 34.5001C5.50649 34.2515 6.64274 34.4459 7.58414 35.041L15.8923 40.4731C16.8302 41.0734 17.4949 42.0242 17.7413 43.1179C17.9876 44.2116 17.7955 45.3594 17.207 46.3105Z" fill="url(#paint9_linear)"/>
<path d="M15.1214 57.8084C14.5218 58.7647 13.5719 59.4425 12.4792 59.6935C11.3865 59.9445 10.24 59.7483 9.28999 59.1478L4.14376 55.3545C3.19711 54.7488 2.52627 53.7891 2.27784 52.6852C2.02941 51.5812 2.22358 50.4229 2.81793 49.4631C3.41824 48.5075 4.36849 47.8307 5.46111 47.5805C6.55374 47.3304 7.69994 47.5273 8.64936 48.1282L13.7956 51.9203C14.7413 52.5261 15.4115 53.4851 15.6599 54.5882C15.9083 55.6913 15.7147 56.8489 15.1214 57.8084Z" fill="url(#paint10_linear)"/>
<path d="M14.7058 57.5245C14.1466 58.416 13.2609 59.0477 12.2421 59.2816C11.2234 59.5155 10.1544 59.3325 9.26878 58.7728L4.47016 55.2361C3.58773 54.6711 2.96247 53.7763 2.73095 52.7471C2.49944 51.7179 2.6805 50.6379 3.23458 49.7432C3.79379 48.8516 4.67951 48.2199 5.69824 47.9861C6.71697 47.7522 7.78593 47.9351 8.6716 48.4949L13.4702 52.0315C14.3526 52.5965 14.9779 53.4913 15.2094 54.5205C15.4409 55.5497 15.2599 56.6297 14.7058 57.5245Z" fill="#F6B9AD"/>
<path d="M39.2285 51H16.5V57.8662H39.2285V51Z" fill="url(#paint11_linear)"/>
<path d="M37.6687 48H16.5V52.9527H37.6687V48Z" fill="#46A9D4"/>
<path d="M16.7503 46.0162C16.191 46.9077 15.3053 47.5394 14.2866 47.7733C13.2679 48.0071 12.1989 47.8242 11.3132 47.2645L3.49641 42.1542C2.61397 41.5892 1.98871 40.6944 1.7572 39.6652C1.52569 38.636 1.70675 37.556 2.26082 36.6613C2.81915 35.7688 3.70446 35.1359 4.72326 34.901C5.74206 34.666 6.8115 34.8481 7.69784 35.4073L15.5147 40.5176C16.3986 41.0826 17.025 41.9785 17.2566 43.009C17.4881 44.0396 17.3061 45.1209 16.7503 46.0162Z" fill="#F6B9AD"/>
<g clip-path="url(#clip1)">
<path fill-rule="evenodd" clip-rule="evenodd" d="M26.0733 23.2945C26.505 23.1596 26.8808 22.9687 27.2027 22.7235C27.5243 22.478 27.774 22.1825 27.952 21.8351C28.1295 21.489 28.2188 21.1038 28.2188 20.6806V19.919C27.8291 19.7674 27.3682 19.6399 26.8353 19.5387C26.302 19.437 25.7391 19.3867 25.1472 19.3867C24.1837 19.3867 23.4301 19.5725 22.8891 19.9445C22.3472 20.3174 22.0772 20.8245 22.0772 21.4674V21.518C22.0772 22.1612 22.3259 22.6516 22.8259 22.9903C23.3243 23.3287 23.9375 23.4974 24.665 23.4974C25.173 23.4974 25.6427 23.4299 26.0733 23.2945Z" fill="#ED1D40"/>
<g clip-path="url(#clip2)">
<mask id="mask0" mask-type="alpha" maskUnits="userSpaceOnUse" x="17" y="7" width="21" height="20">
<path fill-rule="evenodd" clip-rule="evenodd" d="M17.5 7.12695H37.3729V26.9999H17.5" fill="white"/>
</mask>
<g mask="url(#mask0)">
<path fill-rule="evenodd" clip-rule="evenodd" d="M27.4368 7.12695C21.9488 7.12695 17.5001 11.5757 17.5001 17.0637C17.5001 19.0615 18.0917 20.9199 19.1062 22.4776C19.0601 22.2211 19.0314 21.9537 19.0314 21.6689V21.6186C19.0314 20.8747 19.1668 20.2273 19.4378 19.677C19.7078 19.1276 20.0849 18.6711 20.5665 18.307C21.0484 17.9431 21.6243 17.6724 22.2926 17.4947C22.9614 17.317 23.6843 17.2279 24.4626 17.2279C25.2746 17.2279 25.9636 17.2789 26.5304 17.3805C27.0975 17.4824 27.643 17.6176 28.1678 17.7866V17.5331C28.1678 16.6024 27.8846 15.8921 27.3175 15.4011C26.7497 14.9108 25.9343 14.6647 24.8681 14.6647C24.1078 14.6647 23.4301 14.7415 22.8381 14.8934C22.2455 15.046 21.6449 15.2486 21.0359 15.5028L20.1991 13.0408C20.9433 12.7024 21.7046 12.4318 22.4833 12.2289C23.2601 12.026 24.1994 11.9247 25.3004 11.9247C27.2962 11.9247 28.7768 12.4189 29.741 13.4089C30.7049 14.3986 31.1872 15.7905 31.1872 17.5837V25.527H28.142V23.8773C27.6849 24.4195 27.1017 24.876 26.3914 25.2479C25.6801 25.6195 24.8181 25.8063 23.8026 25.8063C23.3394 25.8063 22.8946 25.7582 22.4662 25.666C23.9288 26.5128 25.6255 26.9999 27.4368 26.9999C32.9246 26.9999 37.373 22.5511 37.373 17.0637C37.373 11.5757 32.9246 7.12695 27.4368 7.12695Z" fill="#ED1D40"/>
</g>
</g>
<path fill-rule="evenodd" clip-rule="evenodd" d="M22.0772 21.5164V21.4658C22.0772 20.8229 22.3475 20.3158 22.8891 19.9429C23.4304 19.5709 24.1836 19.3851 25.1472 19.3851C25.7391 19.3851 26.3023 19.4355 26.8352 19.5371C27.3685 19.6384 27.8291 19.7658 28.2188 19.9174V20.679C28.2188 21.1022 28.1297 21.4874 27.9523 21.8335C27.7739 22.1809 27.5246 22.4768 27.203 22.7219C26.881 22.9671 26.5049 23.158 26.0733 23.2929C25.6427 23.4284 25.173 23.4958 24.6649 23.4958C23.9375 23.4958 23.3243 23.3271 22.8259 22.9887C22.3259 22.65 22.0772 22.1597 22.0772 21.5164ZM26.3913 25.2471C27.1016 24.8751 27.6849 24.4187 28.142 23.8764V25.5261H31.1871V17.5829C31.1871 15.7896 30.7049 14.3977 29.7413 13.408C28.7768 12.418 27.2961 11.9238 25.3003 11.9238C24.1997 11.9238 23.2603 12.0251 22.4836 12.228C21.7045 12.4309 20.9432 12.7016 20.1991 13.04L21.0361 15.5019C21.6449 15.2477 22.2455 15.0451 22.8384 14.8925C23.4303 14.7406 24.1078 14.6642 24.8681 14.6642C25.9342 14.6642 26.75 14.91 27.3174 15.4003C27.8845 15.8912 28.1678 16.6016 28.1678 17.5325V17.7858C27.6429 17.6167 27.0974 17.4816 26.5307 17.3796C25.9636 17.278 25.2745 17.2271 24.4626 17.2271C23.6842 17.2271 22.9613 17.3164 22.2929 17.4938C21.6242 17.6716 21.0484 17.9425 20.5665 18.3061C20.0849 18.6703 19.7081 19.1267 19.4378 19.6761C19.1668 20.2267 19.0313 20.8738 19.0313 21.6177V21.668C19.0313 21.9532 19.06 22.2203 19.1061 22.4767C19.9591 23.7858 21.111 24.8806 22.4665 25.6654C22.8945 25.7574 23.3394 25.8054 23.8026 25.8054C24.8181 25.8054 25.68 25.6187 26.3913 25.2471Z" fill="white"/>
</g>
</g>
<defs>
<linearGradient id="paint0_linear" x1="32.0986" y1="80.848" x2="32.0986" y2="48.2921" gradientUnits="userSpaceOnUse">
<stop stop-color="#808080" stop-opacity="0.25"/>
<stop offset="0.54" stop-color="#808080" stop-opacity="0.12"/>
<stop offset="1" stop-color="#808080" stop-opacity="0.1"/>
</linearGradient>
<linearGradient id="paint1_linear" x1="8582.61" y1="4966.74" x2="8582.61" y2="2456.91" gradientUnits="userSpaceOnUse">
<stop stop-color="#808080" stop-opacity="0.25"/>
<stop offset="0.54" stop-color="#808080" stop-opacity="0.12"/>
<stop offset="1" stop-color="#808080" stop-opacity="0.1"/>
</linearGradient>
<linearGradient id="paint2_linear" x1="19583.4" y1="42858.1" x2="19583.4" y2="4736.42" gradientUnits="userSpaceOnUse">
<stop stop-color="#808080" stop-opacity="0.25"/>
<stop offset="0.54" stop-color="#808080" stop-opacity="0.12"/>
<stop offset="1" stop-color="#808080" stop-opacity="0.1"/>
</linearGradient>
<linearGradient id="paint3_linear" x1="10283.1" y1="18756" x2="10283.1" y2="10103.4" gradientUnits="userSpaceOnUse">
<stop stop-color="#808080" stop-opacity="0.25"/>
<stop offset="0.54" stop-color="#808080" stop-opacity="0.12"/>
<stop offset="1" stop-color="#808080" stop-opacity="0.1"/>
</linearGradient>
<linearGradient id="paint4_linear" x1="21037.3" y1="6496.54" x2="21037.3" y2="5960.64" gradientUnits="userSpaceOnUse">
<stop stop-color="#808080" stop-opacity="0.25"/>
<stop offset="0.54" stop-color="#808080" stop-opacity="0.12"/>
<stop offset="1" stop-color="#808080" stop-opacity="0.1"/>
</linearGradient>
<linearGradient id="paint5_linear" x1="27.3369" y1="45.773" x2="27.3369" y2="29.9987" gradientUnits="userSpaceOnUse">
<stop stop-opacity="0.12"/>
<stop offset="0.55" stop-opacity="0.09"/>
<stop offset="1" stop-opacity="0.02"/>
</linearGradient>
<linearGradient id="paint6_linear" x1="7809.31" y1="4922.29" x2="7809.31" y2="3082" gradientUnits="userSpaceOnUse">
<stop stop-color="#808080" stop-opacity="0.25"/>
<stop offset="0.54" stop-color="#808080" stop-opacity="0.12"/>
<stop offset="1" stop-color="#808080" stop-opacity="0.1"/>
</linearGradient>
<linearGradient id="paint7_linear" x1="5168.67" y1="2491.33" x2="5170.12" y2="1861.72" gradientUnits="userSpaceOnUse">
<stop stop-opacity="0.12"/>
<stop offset="0.55" stop-opacity="0.09"/>
<stop offset="1" stop-opacity="0.02"/>
</linearGradient>
<linearGradient id="paint8_linear" x1="7501.88" y1="6188.38" x2="7501.88" y2="4075" gradientUnits="userSpaceOnUse">
<stop stop-color="#808080" stop-opacity="0.25"/>
<stop offset="0.54" stop-color="#808080" stop-opacity="0.12"/>
<stop offset="1" stop-color="#808080" stop-opacity="0.1"/>
</linearGradient>
<linearGradient id="paint9_linear" x1="6454.47" y1="6998.59" x2="6454.47" y2="5284.62" gradientUnits="userSpaceOnUse">
<stop stop-color="#808080" stop-opacity="0.25"/>
<stop offset="0.54" stop-color="#808080" stop-opacity="0.12"/>
<stop offset="1" stop-color="#808080" stop-opacity="0.1"/>
</linearGradient>
<linearGradient id="paint10_linear" x1="5195.75" y1="7488.25" x2="5195.75" y2="6138.24" gradientUnits="userSpaceOnUse">
<stop stop-color="#808080" stop-opacity="0.25"/>
<stop offset="0.54" stop-color="#808080" stop-opacity="0.12"/>
<stop offset="1" stop-color="#808080" stop-opacity="0.1"/>
</linearGradient>
<linearGradient id="paint11_linear" x1="7907.39" y1="2691.52" x2="7907.39" y2="2272.69" gradientUnits="userSpaceOnUse">
<stop stop-opacity="0.12"/>
<stop offset="0.55" stop-opacity="0.09"/>
<stop offset="1" stop-opacity="0.02"/>
</linearGradient>
<clipPath id="clip0">
<rect width="55" height="85.0001" fill="white" transform="translate(0.5)"/>
</clipPath>
<clipPath id="clip1">
<rect width="20" height="20" fill="white" transform="translate(17.5 7)"/>
</clipPath>
<clipPath id="clip2">
<rect width="20" height="20" fill="white" transform="translate(17.5 7)"/>
</clipPath>
</defs>
</svg>
