<svg xmlns="http://www.w3.org/2000/svg" xmlns:xlink="http://www.w3.org/1999/xlink" width="396.259" height="396.962" viewBox="0 0 396.259 396.962"><defs><style>.a{fill:none;}.b{fill:rgba(0,0,0,0);}.c{fill:#d21530;}.d{fill:#00f0ca;}.e{clip-path:url(#a);}.f,.s{fill:#fff;}.g{fill:#757575;}.h{fill:url(#b);}.i{fill:url(#c);}.j{fill:#1c1f53;}.k{fill:url(#d);}.l{fill:url(#e);}.m{fill:url(#f);}.n{fill:#f54661;}.o{fill:#20313f;}.p{fill:#e5938f;}.q{fill:#eaafad;}.r{fill:#eaaead;}.s{opacity:0.47;}.t{fill:#99b0f6;}.u{clip-path:url(#h);}.v{fill:url(#i);}.w{fill:url(#j);}.x{fill:url(#k);}.y{fill:#3f372e;}.z{fill:url(#l);}.aa{fill:#c6c6c6;opacity:0.484;}.ab{fill:url(#m);}.ac{fill:url(#n);}.ad{fill:url(#o);}.ae{fill:url(#p);}.af{fill:url(#q);}.ag{fill:#7d97f4;}</style><clipPath id="a"><circle class="a" cx="59.836" cy="59.836" r="59.836"/></clipPath><linearGradient id="b" x1="0.902" y1="1.989" x2="0.178" y2="-0.195" gradientUnits="objectBoundingBox"><stop offset="0" stop-color="#ecb9b8"/><stop offset="1" stop-color="#e5908c"/></linearGradient><linearGradient id="c" x1="-205.611" y1="6.287" x2="-204.216" y2="6.028" xlink:href="#b"/><linearGradient id="d" x1="-602.885" y1="18.584" x2="-598.792" y2="17.726" xlink:href="#b"/><linearGradient id="e" x1="-20.255" y1="25.834" x2="-22.013" y2="28.865" xlink:href="#b"/><linearGradient id="f" x1="-20.919" y1="27.259" x2="-19.934" y2="29.344" xlink:href="#b"/><clipPath id="h"><circle class="b" cx="59.836" cy="59.836" r="59.836"/></clipPath><linearGradient id="i" x1="41.927" y1="-68.692" x2="41.33" y2="-66.768" gradientUnits="objectBoundingBox"><stop offset="0" stop-color="#0f005c"/><stop offset="1" stop-color="#1e168c"/></linearGradient><linearGradient id="j" x1="-0.16" y1="-0.191" x2="1.984" y2="2.225" xlink:href="#b"/><linearGradient id="k" x1="-876.479" y1="-0.196" x2="-874.207" y2="2.22" xlink:href="#b"/><linearGradient id="l" x1="0.534" y1="0.308" x2="-0.337" y2="1.354" xlink:href="#b"/><linearGradient id="m" x1="0.301" y1="1.478" x2="0.574" y2="0.434" xlink:href="#b"/><linearGradient id="n" x1="0.821" y1="0.35" x2="-0.291" y2="1.106" xlink:href="#b"/><linearGradient id="o" x1="2.74" y1="-0.685" x2="-1.811" y2="1.784" xlink:href="#b"/><linearGradient id="p" x1="1.013" y1="-3.69" x2="0.455" y2="0.629" xlink:href="#b"/><linearGradient id="q" x1="-0.117" y1="0.098" x2="1.272" y2="1.475" xlink:href="#b"/></defs><g transform="translate(-794 -3469)"><path class="c" d="M522.82,401.375C484.4,491.213,382.057,541.539,293.3,527.965c-14.442-2.21-54.033-8.79-89.088-39.834-67.48-59.761-81.911-178.1-27.477-261.491,39.619-60.7,110.639-95.1,178.123-93.382,14.535.37,70.243,2.656,119.2,42.745a182.776,182.776,0,0,1,37.345,42.079C544.973,270.207,547.858,342.827,522.82,401.375Z" transform="translate(650.58 3335.804)"/><g transform="translate(1055.886 3517.687)"><circle class="d" cx="62.844" cy="62.844" r="62.844"/><g transform="translate(2.965 3.056)"><g class="e"><rect class="f" width="148.142" height="163.192" rx="1.309" transform="translate(-16.984 -23.171) rotate(-1.87)"/><g transform="translate(8.196 13.724)"><path class="g" d="M385.464,231.7s36.248-6.942,65.264-.211l-.948,29.788s-6.324,41.48-11.482,59.886c0,0-21.929,4.556-32.664-.854,0,0-10.319-51.5-15.364-59.01C390.269,261.3,384.818,241.318,385.464,231.7Z" transform="translate(-364.61 -178.23)"/><path class="h" d="M406.094,208.886l-2.828,24.665s10.294,4.328,17.236-.763l-2.095-17.273Z" transform="translate(-360.784 -182.443)"/><g transform="translate(38.179)"><path class="i" d="M421.077,195.554c.121.2,2.713,12.511,4.31,20.129a5.379,5.379,0,0,1-4.773,6.459l-2.932.27A10.479,10.479,0,0,1,406.42,213.9l-2.577-13.81S418.138,190.611,421.077,195.554Z" transform="translate(-398.839 -185.606)"/><path class="j" d="M401.559,201.731c-1.173-1.365-2.228-3.6.092-6.058a5.813,5.813,0,0,1,6.9-1.228,1.933,1.933,0,0,0,2.262-.526,1.233,1.233,0,0,1,1.133-.463,1.809,1.809,0,0,0,1.993-1.639,4.774,4.774,0,0,1,4.069-4.522c5.609-1.275,8.609,4.282,8.637,8.256s-6.13,5.01-9.662,4.466c-2.594-.4-4.75,1.938-5.711,3.208a1.864,1.864,0,0,0-.317,1.611l1.018,3.807a17.731,17.731,0,0,1-1.981,3.5,3.787,3.787,0,0,1-2,1.375c-1.116-1.925-4.07-2.16-5.44-2.16a1.87,1.87,0,0,1-1.377-.6c-1.071-1.15-2.772-3.738.236-6.432A1.866,1.866,0,0,0,401.559,201.731Z" transform="translate(-399.722 -187.11)"/><path class="k" d="M408.789,213.545s-.348-6.921-3.173-7.48-5.782,1.566-3.249,5.634C405.518,216.759,408.789,213.545,408.789,213.545Z" transform="translate(-399.362 -183.067)"/></g><path class="g" d="M389.135,231.143s-54.569,63.213,12.837,84.529l-.157-4.794s-25.619-20.281-7.38-49.672C394.436,261.206,391.146,233.957,389.135,231.143Z" transform="translate(-368.281 -177.674)"/><path class="l" d="M396.507,298s8.442-6.035,12.34-4.243,3.993,4.669,3.993,4.669-1.794,3.9-4.7,3.033-9.558,1.273-12.466.407C395.673,301.863,394.59,298.06,396.507,298Z" transform="translate(-362.477 -164.329)"/><path class="g" d="M440.106,230.969s60.91,57.525-4.964,83.191l-.157-4.794s24.242-21.908,4.126-50.048C439.111,259.318,436.426,235.889,440.106,230.969Z" transform="translate(-353.987 -177.711)"/><path class="m" d="M437.474,296.625s-8.817-5.472-12.59-3.429-3.679,4.92-3.679,4.92,2.044,3.773,4.889,2.72,9.62.646,12.465-.407C438.558,300.429,439.393,296.562,437.474,296.625Z" transform="translate(-356.94 -164.475)"/></g></g></g></g><path class="d" d="M62.844,0A62.844,62.844,0,1,1,0,62.844,62.844,62.844,0,0,1,62.844,0Z" transform="translate(917.277 3483.609)"/><g class="e" transform="translate(920.242 3486.665)"><rect class="n" width="148.142" height="163.192" rx="1.309" transform="translate(-16.984 -23.171) rotate(-1.87)"/><g transform="translate(3.337 16.325)"><path class="o" d="M304.045,174.815s1.162,2.131-5.781,5.773c-3.871,2.032-11.434,5.1-12.154,13.3a9.372,9.372,0,0,1-7.543,8.512c-10.4,1.974-26.314,7.978-28.243,26.22-1.473,13.923,5.776,18.925,13.253,20.478a10.5,10.5,0,0,1,8.393,11.843c-.868,5.309.924,11.346,10.229,15.839,20.849,10.069,39.989-27.042,39.989-27.042l1.922-63.674Z" transform="translate(-250.132 -158.267)"/><path class="f" d="M300.614,260.176c5.548-27.93-11.57-43-11.57-43,8.108-8.359,21.886-13.385,26.988-15.039a4.029,4.029,0,0,1,3.666.614c4.549,3.412,16.618,13.363,15.165,21.883-1.046,6.137-11.467,36.947-11.467,36.947S312.938,266.992,300.614,260.176Z" transform="translate(-241.793 -152.456)"/><path class="p" d="M303.379,187.3l-4.464,24.059c-.433,2.121,1.472,1.708,3.583,1.232,3.457-.781,7.9-2.293,9.3-5.055a2.573,2.573,0,0,0,.239-.909l1.693-16.633a2.974,2.974,0,0,0-1.852-3.062l-4.476-1.8A2.976,2.976,0,0,0,303.379,187.3Z" transform="translate(-239.691 -156.103)"/><g transform="translate(52.826)"><path class="q" d="M312.686,168.788s5.793,3.628,8.573,13.294-1.047,13.306-5.1,13.236-9.973-1.112-15.311-7.928S305.1,164.372,312.686,168.788Z" transform="translate(-292.423 -159.72)"/><path class="o" d="M307.047,184.74s-2.572-13.9,9.107-12.177l2.433,2.358s5.451-6.6-1.007-11.209-15.134-3.061-19.646,5.912-6.041,15.221-1.8,20.547,7.115.526,7.115.526-2.023-4.668-.557-6.754S306.257,185,306.257,185Z" transform="translate(-293.636 -161.188)"/><path class="q" d="M304.489,182.566s-1.28-7.153-4.879-4.966,1.564,6.669,3.623,8.183Z" transform="translate(-292.621 -157.76)"/></g><path class="r" d="M291.2,214.82s-10.636,18.45-12.409,32.067,19.86,18.491,27.475,10.313l-1.33-5.6s-12.327,2.7-13.7-4.029,9.428-20.666,9.428-20.666S296.922,216.875,291.2,214.82Z" transform="translate(-244.012 -149.695)"/><path class="s" d="M264.446,237.972a1.976,1.976,0,0,1-.982-.311c-4.907-2.954-7.694-9.31-6.779-15.454a14.647,14.647,0,0,1,4.793-9.067,22.491,22.491,0,0,1,6.036-3.376c3.48-1.46,7.074-2.765,10.681-3.878l.886-.272a33.015,33.015,0,0,0,6.239-2.371,10.427,10.427,0,0,0,5.033-5.4,15.641,15.641,0,0,0,.653-4.161,12.579,12.579,0,0,1,1.041-5.055.126.126,0,1,1,.223.115,12.406,12.406,0,0,0-1.013,4.956,15.766,15.766,0,0,1-.668,4.229,10.67,10.67,0,0,1-5.149,5.534,33.259,33.259,0,0,1-6.286,2.392l-.886.271c-3.6,1.112-7.184,2.414-10.658,3.87a22.284,22.284,0,0,0-5.969,3.336,14.391,14.391,0,0,0-4.707,8.913c-.9,6.046,1.837,12.3,6.659,15.2.347.209,1,.459,1.262.07a.127.127,0,0,1,.175-.036.126.126,0,0,1,.035.175A.713.713,0,0,1,264.446,237.972Z" transform="translate(-248.765 -155.322)"/><path class="t" d="M262.442,227.434a.127.127,0,0,1-.1-.052,15.032,15.032,0,0,1-3.083-8.294,9.485,9.485,0,0,1,3.6-7.9.13.13,0,0,1,.177.028.128.128,0,0,1-.029.177,9.223,9.223,0,0,0-3.495,7.689,14.79,14.79,0,0,0,3.034,8.153.125.125,0,0,1-.028.175A.113.113,0,0,1,262.442,227.434Z" transform="translate(-248.178 -150.478)"/></g></g><path class="d" d="M62.844,0A62.844,62.844,0,1,1,0,62.844,62.844,62.844,0,0,1,62.844,0Z" transform="translate(1064.57 3670.175)"/><g transform="translate(1067.534 3673.231)"><g class="u"><rect class="n" width="148.142" height="163.192" rx="1.309" transform="translate(-16.984 -23.171) rotate(-1.87)"/><g transform="translate(20.821 14.944)"><path class="v" d="M410.622,324.969c-.118.222-7.518,5.668-7.518,5.668s1.634,11.69,8.271,16.307c7.3,5.076,17.6-4.181,17.6-4.181s8.2,1.95,12.561-15.119c1-3.917-4.775-4.248-11.745-3.526C420.8,325.048,410.622,324.969,410.622,324.969Z" transform="translate(-382.128 -311.524)"/><path class="f" d="M400.1,358.452a31.216,31.216,0,0,1,9.488-4.414c1.275-.347,8.158,1.653,12.411,1.556,5.839-.135,11.783-2.792,16.6-1.592,4.782,1.191,8.7,2.748,10.955,4.354,6.764,4.811,10.734,13.781,13.154,22.666a30.982,30.982,0,0,1-10.349,6.794L451.293,431l-25.538,13.066-29.148-14.633,1.044-42.205s-9.257-4.311-9.935-5.878S391.935,364.067,400.1,358.452Z" transform="translate(-385.439 -305.121)"/><path class="w" d="M388.538,376.316s-12.4,34.387,15.88,48.521c5.874-.781,3.615-10.534,3.615-10.534s-12.29-2.72-8.6-31.405C396.036,380.1,388.538,376.316,388.538,376.316Z" transform="translate(-385.83 -300.273)"/><path class="x" d="M452.487,376.316s8.534,35.9-15.882,48.521c-5.872-.781-3.614-10.534-3.614-10.534s9.905-4.878,8.6-31.405C444.989,380.1,452.487,376.316,452.487,376.316Z" transform="translate(-375.815 -300.273)"/><path class="p" d="M405.718,355.937a14.8,14.8,0,0,0,15.109,10.95c12.762-.232,13.9-10.987,13.9-10.987l-8.335-1.784-.7-9.288-12.539.929-.232,8.823Z" transform="translate(-381.568 -307.021)"/><path class="p" d="M414.291,323.157s-14.369,27.834,2.676,34.588c12.024,4.762,19.562-18.485,17.313-24.781-3.477-9.736-5.765-8.58-5.765-8.58Z" transform="translate(-380.944 -311.665)"/><path class="y" d="M438.944,322.652c7.1,1.951,1.031,17.347-9.656,13.706s-14.887-3.587-16.553-.652-2.023,13.356-5.637,8.2c-3.962-5.648-6.171-16.983-1.314-20.638,4.341-3.265,5.355-8.329,10.562-8.154,6.911.233,12.256-2.831,15.375-.621C435.3,317.036,433.72,321.216,438.944,322.652Z" transform="translate(-382.149 -313.693)"/><path class="p" d="M411.12,334.019s-3.065-3.3-3.555.676,1.084,9.093,2.929,6.288S411.12,334.019,411.12,334.019Z" transform="translate(-381.192 -309.612)"/></g></g></g><g transform="translate(794.464 3580.238)"><path class="z" d="M429.043,248.233s-27.424,6.048-44.1,13.749a15.227,15.227,0,0,0-7.461,7.5c-4.988,10.927-19.913,38.33-48.858,51.407,4.167,5.532,10.88,17.041,13.8,36.384,17.385-12.939,32.394-34.548,39.6-69.988a14.137,14.137,0,0,0,12.331-.341c3.617-1.756,7.792-4.248,10.926-6.206a14.322,14.322,0,0,0,6.353-8.532c1.192-4.68.491-8.8.491-13.209l14.1-4.368A5.012,5.012,0,0,0,429.043,248.233Z" transform="translate(-104.198 -219.783)"/><path class="f" d="M178.882,456.051a130.387,130.387,0,0,1,12.686-24.008c-8.465-14.279-10.972-33.782,4.05-59.178,10.954,29.578,16.093,72.736,17.166,91.834.2,3.583-.911,9.14-1.9,13.259a5.366,5.366,0,0,0,4.183,6.532c22.551,4.367,44.3,6.4,64.178,2.991a7.351,7.351,0,0,0,5.923-5.621c13-57.375,12.916-96.87,9.51-122.145,13.462,3.01,54.625,9.429,87.355-14.932-2.923-19.342-9.635-30.851-13.8-36.384-17.981,8.124-41.372,10.721-71.156.4a31.657,31.657,0,0,0-8.513-1.678c-15.856-.93-68.107-2.627-111.343,11.658a33.6,33.6,0,0,0-20.268,18.449C145.251,364.068,126.315,425.193,178.882,456.051Z" transform="translate(-143.802 -207.291)"/><path class="aa" d="M270.162,358.671a1.2,1.2,0,0,1-1.189-1.043c-3.379-25.529-10.262-36.67-10.33-36.78a1.2,1.2,0,0,1,2.027-1.286c.3.463,7.225,11.618,10.683,37.751a1.2,1.2,0,0,1-1.032,1.348A1.415,1.415,0,0,1,270.162,358.671Z" transform="translate(-119.233 -204.617)"/><path class="ab" d="M208.97,277.926s-2.994,31.654-5.631,41.017a3.2,3.2,0,0,0,1.508,3.655c4.473,2.556,15.2,6.726,29.88-.467a6.656,6.656,0,0,0,3.7-6.267l-1.293-30.587Z" transform="translate(-131.07 -213.42)"/><g transform="translate(51.123)"><path class="ac" d="M238.455,244.578s9.576,22,10.218,33.541,3.13,19.035-10.218,21.361-24.594-4.325-30.686-15.826c0,0-9.546-17.72-7.4-24.977S238.455,244.578,238.455,244.578Z" transform="translate(-182.872 -220.566)"/><path class="o" d="M215.362,279.623l.76-.335a1.831,1.831,0,0,0,.895-2.517c-1.882-3.637-5.552-11.97-.811-13.916,6.11-2.505,30.311-7.44,35.533-16.027,5.017-8.254.571-18.906-6.111-21.937a.92.92,0,0,0-1.2.393l-.557,1.053a.907.907,0,0,1-1.673-.171.9.9,0,0,0-1.633-.234c-1.605,2.569-5.938,6.734-17.526,8.873-16.468,3.039-27.355,9.7-27.628,21.084a.909.909,0,0,1-1.4.749c-1.215-.742-3.162-1.089-5.762,1.1-4.523,3.8-2.673,13.668,7.242,21.782a.9.9,0,0,1-.043,1.454c-1.8,1.169-4.477,3.954,2.466,7.666,7.181,3.838,12.544,3.524,14.608,3.183a.9.9,0,0,0,.733-1.09l-2.2-10a.907.907,0,0,1,.885-1.1Z" transform="translate(-185.904 -224.804)"/><path class="ad" d="M212.628,273.594s-3.653-14.051-9.952-10.111,3.269,15.743,8.334,16.269Z" transform="translate(-182.755 -216.664)"/></g><path class="ae" d="M379.329,281.646a1.2,1.2,0,0,1-.93-1.957c1.037-1.277,10.24-12.529,13.786-14.531,1.291-.729,2.059-1.481,2.222-2.176a1.767,1.767,0,0,0-.16-1.129l-10.813,2.168-6.127,5.257a1.2,1.2,0,0,1-1.563-1.823l6.364-5.462a1.212,1.212,0,0,1,.545-.265l11.972-2.4a1.193,1.193,0,0,1,1.231.506,4.57,4.57,0,0,1,.888,3.7c-.33,1.4-1.435,2.618-3.378,3.715C390.7,268.754,383,277.832,380.26,281.2A1.192,1.192,0,0,1,379.329,281.646Z" transform="translate(-94.19 -217.411)"/><path class="af" d="M218.143,449.113l42.324.525-14.812-13.944a11.057,11.057,0,0,0-13.553-1.271,32.072,32.072,0,0,0-7.525,6.707s-26.4-9.649-39.2-31.236A130.387,130.387,0,0,0,172.691,433.9C184.165,440.636,199.037,445.933,218.143,449.113Z" transform="translate(-137.612 -185.141)"/><g transform="translate(80.524 172.916)"><path class="j" d="M214.683,448.387c.083,0,.165.006.248,0l107.437-.115a4.758,4.758,0,1,0-.011-9.516l-107.437.117a4.757,4.757,0,0,0-.237,9.51Z" transform="translate(-210.116 -351.872)"/><path class="j" d="M407.906,367.205H318.431a17.064,17.064,0,0,0-15.423,9.675l-41.364,86.783H372.836a10.365,10.365,0,0,0,9.639-6.486l32.075-80.3A7.078,7.078,0,0,0,407.906,367.205Z" transform="translate(-199.074 -367.205)"/><ellipse class="ag" cx="11.349" cy="7.042" rx="11.349" ry="7.042" transform="translate(142.266 55.207) rotate(-71.758)"/></g></g></g></svg>