<svg xmlns="http://www.w3.org/2000/svg" xmlns:xlink="http://www.w3.org/1999/xlink" width="420.676" height="418.654" viewBox="0 0 420.676 418.654"><defs><style>.a{fill:#a50a19;opacity:0.404;}.b,.f{fill:#fff;}.c{fill:#ef1c40;}.d{fill:#ff98a2;opacity:0.34;}.e{fill:#adaaaa;}.f{opacity:0.78;}.g{fill:#f54661;}.h{fill:#00f0ca;}.i{fill:#1c1f53;}.j{fill:#fafafa;}.k{fill:#7c7b7b;stroke:#707070;}.l{fill:url(#a);}.m{fill:#20313f;}.n{fill:#ebebeb;}.o{fill:url(#b);}.p{fill:url(#c);}.q{fill:url(#d);}.r{fill:url(#e);}.s{fill:#2c3d54;}.t{fill:url(#f);}.u{fill:url(#g);}</style><linearGradient id="a" x1="1.136" y1="-0.651" x2="2.873" y2="-3.412" gradientUnits="objectBoundingBox"><stop offset="0" stop-color="#ecb9b8"/><stop offset="1" stop-color="#e5908c"/></linearGradient><linearGradient id="b" x1="-610.914" y1="-5.866" x2="-610.69" y2="-6.776" xlink:href="#a"/><linearGradient id="c" x1="-352.53" y1="-5.828" x2="-351.321" y2="-4.664" xlink:href="#a"/><linearGradient id="d" x1="-985.622" y1="-24.128" x2="-982.246" y2="-19.809" xlink:href="#a"/><linearGradient id="e" x1="-78.215" y1="0.905" x2="-76.814" y2="-0.231" xlink:href="#a"/><linearGradient id="f" x1="-143.199" y1="-0.016" x2="-147.096" y2="0.314" xlink:href="#a"/><linearGradient id="g" x1="-124.481" y1="-7.767" x2="-121.511" y2="-9.944" xlink:href="#a"/></defs><g transform="translate(-770.5 -4152.613)"><g transform="translate(-68.5 2726.613)"><path class="a" d="M456.688-41.691a151.684,151.684,0,0,1-23.27,19.307C357.509,31.291,267.689,15.645,248.6,11.824c-28.189-5.642-82.678-16.548-122.072-62.2-59.6-69.072-50.319-177.892-4.089-249.725,8.456-13.139,53.124-86.067,143.911-97.762,54.944-7.078,118.99,7.2,165.371,45.492C529.079-271.994,522.148-109.606,456.688-41.691Z" transform="translate(754.226 1827.76)"/><g transform="translate(926.159 1426)"><g transform="translate(0 0)"><path class="b" d="M180.078-400a19.506,19.506,0,0,0-17.8,19.394c-.176,61.739-.465,274.692,3.56,350.066A15.148,15.148,0,0,0,180.81-16.2c39.549.426,153.309,1.208,217.892-2.924A25.5,25.5,0,0,0,422.6-44.6c-.078-64.8-1.113-247.029-9.989-330.325a20.815,20.815,0,0,0-19.093-18.549C350.388-396.836,235.844-404.85,180.078-400Z" transform="translate(-162.195 401.52)"/><path class="c" d="M176.521-366.493c-.777,52.811-2.988,228.5.872,293.338.564,9.477,7.927,16.96,17.016,17.276,37.428,1.3,133.4,3.829,188.094-2.188,9.847-1.084,17.374-9.62,17.636-19.956,1.368-53.894,5.063-217.524,1.312-281.641-.6-10.228-8.413-18.39-18.209-19.049-40.525-2.731-144.588-9.029-191.094-5.156C183.418-383.142,176.656-375.636,176.521-366.493Z" transform="translate(-160.561 403.586)"/><path class="d" d="M184.481-357.747c-.671,49.613-2.562,214.655,1.005,275.572.521,8.9,7.241,15.939,15.532,16.243,34.137,1.252,121.674,3.693,171.549-1.922,8.98-1.011,15.839-9.024,16.07-18.734,1.209-50.63,4.463-204.345.994-264.581-.553-9.61-7.686-17.282-16.621-17.909-36.963-2.595-131.878-8.585-174.292-4.98C190.759-373.382,184.6-366.336,184.481-357.747Z" transform="translate(-159.531 404.832)"/><path class="e" d="M256.7-391.676a2.739,2.739,0,0,0,2.655,2.682c7.2.219,27.489.84,36.557,1.167a2.741,2.741,0,0,0,2.776-3.321,2.8,2.8,0,0,0-2.553-2.456c-6.133-.427-24.639-1.576-36.868-.87A2.832,2.832,0,0,0,256.7-391.676Z" transform="translate(-150.311 402.378)"/></g><circle class="f" cx="55.401" cy="55.401" r="55.401" transform="matrix(0.082, -0.997, 0.997, 0.082, 70.136, 175.065)"/><path class="g" d="M296.459-307.8c0,9.381-7.6,19.509-16.985,19.509s-16.986-10.127-16.986-19.509,7.6-16.036,16.986-16.036S296.459-317.182,296.459-307.8Z" transform="translate(-149.581 411.29)"/><path class="g" d="M260.167-256.754H301.63a10.036,10.036,0,0,0,9.559-6.978l2.231-6.974a10.025,10.025,0,0,0-6.057-12.475c-16.874-6.17-34.323-5.379-52.2.568a9.994,9.994,0,0,0-6.4,12.116l1.718,6.334A10.036,10.036,0,0,0,260.167-256.754Z" transform="translate(-151.352 415.867)"/></g><g transform="translate(1136.472 1493.934)"><path class="h" d="M406.2-224.64S317.684-302.152,360.9-330.355s101.411,3.172,94.164,43.038S374.611-276.752,406.2-224.64Z" transform="translate(-349.011 341.176)"/><g transform="translate(19.692 17.419)"><g transform="translate(0 6.645)"><path class="i" d="M399.4-281.517l-6.708-8.968a1.2,1.2,0,0,0-.822-.476,1.2,1.2,0,0,0-.912.265c-.335.275-.743.594-1.191.918a.244.244,0,0,0-.061.333l7.778,11.823a.245.245,0,0,0,.189.109.242.242,0,0,0,.2-.083,9.634,9.634,0,0,0,1.684-2.753A1.211,1.211,0,0,0,399.4-281.517Z" transform="translate(-363.589 323.427)"/><path class="i" d="M380.408-305.27a.028.028,0,0,0,.035.016c.829-.239,1.62-.447,2.256-.606a1.211,1.211,0,0,0,.8-.656,1.211,1.211,0,0,0,0-1.035l-5.469-11.558a1.207,1.207,0,0,0-1.55-.6c-.548.225-1.272.544-2.086.954a.214.214,0,0,0-.1.281Z" transform="translate(-365.525 319.801)"/><path class="i" d="M391.29-285.424a.03.03,0,0,0-.039-.01c-1.333.775-2.753,1.295-3.711.806-2.307-1.175-12.527-18.305-9.964-19.494a21.281,21.281,0,0,1,2.2-.839.217.217,0,0,0,.129-.118.222.222,0,0,0,0-.176l-5.89-12.718a.215.215,0,0,0-.131-.114.21.21,0,0,0-.172.02c-3.519,2.073-7.6,5.561-7.171,10.442.748,8.432,11.529,34.692,22.815,36.575,4.814.8,7.949-.27,9.962-1.765a.246.246,0,0,0,.059-.331Z" transform="translate(-366.503 320.015)"/></g><g transform="translate(30.827)"><path class="i" d="M395.38-309.887a10.575,10.575,0,0,1,3.174,14.6,10.206,10.206,0,0,1-.625.869.72.72,0,0,0,.256,1.113l1.417.638a.724.724,0,0,0,.876-.23c.194-.257.379-.521.556-.8a13.528,13.528,0,0,0-4.06-18.672,13.273,13.273,0,0,0-1.458-.812.724.724,0,0,0-.979.365l-.593,1.395a.714.714,0,0,0,.348.925A10.167,10.167,0,0,1,395.38-309.887Z" transform="translate(-393.885 327.269)"/><path class="i" d="M399.164-315.509a18.2,18.2,0,0,1,5.461,25.123l0,.007a.713.713,0,0,0,.3,1.041l1.39.626.913-.269a21.153,21.153,0,0,0-6.466-29.008,20.982,20.982,0,0,0-2.62-1.429.715.715,0,0,0-.949.377l-.592,1.39a.715.715,0,0,0,.351.93A17.779,17.779,0,0,1,399.164-315.509Z" transform="translate(-393.552 326.486)"/><path class="i" d="M402.95-321.133a25.823,25.823,0,0,1,8.321,34.7.72.72,0,0,0,.319,1.026l1.38.621a.721.721,0,0,0,.919-.29,28.773,28.773,0,0,0-9.344-38.541,28.454,28.454,0,0,0-3.751-2.028.72.72,0,0,0-.951.378l-.592,1.389a.72.72,0,0,0,.374.938A25.66,25.66,0,0,1,402.95-321.133Z" transform="translate(-393.218 325.703)"/></g></g></g><g transform="translate(843.595 1597.536)"><path class="j" d="M166.759-136.577S61.295-188.686,95.785-227.052s98.793-23.031,102.051,17.35S122.829-178.795,166.759-136.577Z" transform="translate(-88.855 249.149)"/><g transform="translate(12.209 31.499)"><path class="k" d="M149.537-220.155H102.993a.507.507,0,0,1-.507-.507.507.507,0,0,1,.507-.508h46.544a.508.508,0,0,1,.508.508A.508.508,0,0,1,149.537-220.155Z" transform="translate(-99.35 221.169)"/><path class="k" d="M170.424-220.155h-13.81a.507.507,0,0,1-.507-.507.507.507,0,0,1,.507-.508h13.81a.508.508,0,0,1,.508.508A.508.508,0,0,1,170.424-220.155Z" transform="translate(-92.605 221.169)"/><path class="k" d="M119.077-211.785H101.6a.507.507,0,0,1-.507-.507.507.507,0,0,1,.507-.508h17.478a.507.507,0,0,1,.507.508A.507.507,0,0,1,119.077-211.785Z" transform="translate(-99.525 222.222)"/><path class="k" d="M170.958-211.785H139.9a.507.507,0,0,1-.507-.507.507.507,0,0,1,.507-.508h31.055a.507.507,0,0,1,.507.508A.507.507,0,0,1,170.958-211.785Z" transform="translate(-94.707 222.222)"/><path class="k" d="M146.666-203.415H100.208a.507.507,0,0,1-.508-.507.507.507,0,0,1,.508-.507h46.459a.506.506,0,0,1,.507.507A.506.506,0,0,1,146.666-203.415Z" transform="translate(-99.7 223.275)"/><path class="k" d="M167.893-203.415H151.81a.507.507,0,0,1-.508-.507.507.507,0,0,1,.508-.507h16.083a.506.506,0,0,1,.507.507A.506.506,0,0,1,167.893-203.415Z" transform="translate(-93.21 223.275)"/></g></g><g transform="translate(1158.505 1588.524)"><path class="l" d="M369.838-234.962a.8.8,0,0,1,1.483.158c.72,2.59,2.461,7.11,6.116,8.715.184.081.358.163.527.245a1.859,1.859,0,0,0-.23-1.681c-1.136-1.736.915-4.108.915-4.108a5.292,5.292,0,0,0,1.724,3.4,5.082,5.082,0,0,1,1.09,5.721c-1.978,7.682-4.94,17.842,6.6,25.266s27.783-14.009,27.783-14.009l-8.063,25.564s-12.447,9.184-26.924-3.731-4.881-31.709-4.881-31.709S364.932-225.581,369.838-234.962Z" transform="translate(-368.582 259.891)"/><path class="m" d="M412.228-244.11s-4.212-17.7,12.243-11.861c0,0,7.754-1,8.712,8.2,0,0,5.311,4.508,2.089,12.162,0,0,14.6-6.053,22.147,10.749s2.07,25.321-4.1,27.183a9.516,9.516,0,0,1,3.324,10.555c-1.985,6.993-13.939,11.127-21.715,1.855,0,0-20.407,1.816-21.091-16.165,0,0-10.054-8.381-.892-22.509S412.228-244.11,412.228-244.11Z" transform="translate(-363.487 257.154)"/><path class="n" d="M413.018-216.339c3.452-1.035,13.5-2.945,23.057,5.875a5.916,5.916,0,0,1,1.706,5.9c-2.567,9.451-9.341,37.374-3.4,49.455,0,0-10.466,11.537-21.884,2.238,0,0-5.122-22.326-11.832-32.129-4.633-6.767,7.386-25.411,10.427-29.914A3.562,3.562,0,0,1,413.018-216.339Z" transform="translate(-364.679 262.171)"/><path class="o" d="M420.747-233.121s5.1,14.437,5.488,20.805a10.918,10.918,0,0,1-10.956-1.764s-.557-14.42-1.363-17Z" transform="translate(-362.88 260.176)"/><path class="p" d="M414.571-250.594s-13.349,18.682-5.37,24.108,17.483-7.85,17.483-7.85,3.1-10.225-.142-13.694S414.571-250.594,414.571-250.594Z" transform="translate(-363.793 257.965)"/><path class="m" d="M419.963-254.543s-6.133,1.452-6.992,4.227,8.7,5.347,11.374,5.474l2.158,11.2s6.378-10.533,3.851-16.616S419.963-254.543,419.963-254.543Z" transform="translate(-363.006 257.451)"/><path class="q" d="M422.148-237s5.2-6.017,7.263-2.1-4.678,6.868-7.012,4.942Z" transform="translate(-361.844 259.258)"/><path class="r" d="M399.539-118.427c.038,1.013-1.74,9.053-2.71,13.342a7.062,7.062,0,0,0,.761,5.067l33.541,56.451a7.742,7.742,0,0,1,.88,2.2,48.444,48.444,0,0,1,1.224,15.048l-1.735,3.6,7.5-1.7,1.632-20.153-2.124-1.295a10.1,10.1,0,0,1-4.083-4.78c-3.033-7.367-10.564-26.12-12.505-35.259-2.207-10.386-13.741-18.823-13.741-18.823l2.026-4.791Z" transform="translate(-365.051 274.602)"/><path class="s" d="M443.7-39.436s-4.053-6.425-4.529-8.926-1.8-6.917-4.3-5.587c0,0-1.178,12.148-.771,16.9s-5.367,4.594-5.367,4.594a5.385,5.385,0,0,0-2.756,1.388,1.351,1.351,0,0,0,.906,2.273,32.535,32.535,0,0,0,8.039-.455,2.46,2.46,0,0,0,1.984-2.27l.832-13.982,5.112,6.454Z" transform="translate(-361.41 282.681)"/><path class="t" d="M417.795-110.288s1.183,50.5,1.343,57.668-1.133,23.065-8.322,27.816l3.129,2.316a41.821,41.821,0,0,0,7.73-9.718c4.29-7.185,5.587-8.5,5.587-8.5l-1.423-2.916a6.408,6.408,0,0,1-.52-4.111c1.551-7.52,6.734-32.53,8.148-37.916,1.67-6.358,1.788-14.849-4.018-21.956S417.795-110.288,417.795-110.288Z" transform="translate(-363.27 275.455)"/><path class="s" d="M424.827-28a.443.443,0,0,0,.445-.379c.239-1.683,1.235-8.432,2.05-10.179.933-2,3.983-10.426,0-11.141,0,0-9.907,14.474-11.809,16.425a3.727,3.727,0,0,1-4.3.682,7.158,7.158,0,0,0-3.25,2.333,1.312,1.312,0,0,0,1.033,2.107l6.674.064a4.694,4.694,0,0,0,4.4-2.959c1.174-2.934,3.193-7.236,5.544-9.146l-1.223,11.7a.446.446,0,0,0,.438.492Z" transform="translate(-363.664 283.246)"/><path class="i" d="M411.351-164.534s1.5,4.792-.806,12.686L396.215-101.8a1.551,1.551,0,0,0,.968,1.886c4.287,1.538,18.378,5.887,37.613,4.561a2.183,2.183,0,0,0,1.991-1.7c1.268-5.705,5.592-25.17,6.482-29.17,3.393-15.24,7.181-31.674-9.484-41.611C426.105-164.549,418.942-162.611,411.351-164.534Z" transform="translate(-365.114 268.387)"/><path class="u" d="M434.743-209.417s16.3,13.55,20.351,32.066-23.825,20.484-23.825,20.484-3.784-4.225-8.276-2.718-.348-7.375,4.907-7.351,2.821,4.179,10.256.812c7.243-3.281,11.719-13.427-6.759-28.808a8.369,8.369,0,0,1-2.441-3.323C425.366-207.293,428.213-213.217,434.743-209.417Z" transform="translate(-361.979 263.011)"/></g></g></g></svg>