<svg xmlns="http://www.w3.org/2000/svg" xmlns:xlink="http://www.w3.org/1999/xlink" width="439.998" height="442.558" viewBox="0 0 439.998 442.558"><defs><style>.a{fill:#d21530;}.b,.f{fill:#fff;}.c{fill:#ef1c40;}.d{fill:#f54661;}.e{fill:url(#a);}.f{opacity:0.53;}.g{fill:#1c1f53;}.h{fill:#00f0ca;}.i{fill:#bdd0fb;}.j{fill:url(#b);}.k{fill:url(#c);}.l{fill:url(#d);}.m{fill:url(#e);}.n{fill:url(#f);}.o{fill:#757575;}.p{fill:url(#g);}.q{fill:url(#h);}.r{fill:url(#i);}.s{fill:url(#j);}.t{fill:#20313f;}.u{fill:url(#k);}.v{fill:url(#l);}.w{fill:url(#m);}.x{fill:url(#n);}.y{fill:url(#o);}.z{fill:url(#p);}.aa{fill:#9492aa;}.ab{fill:#fea6a3;}.ac{fill:url(#q);}.ad{fill:url(#r);}.ae{fill:#3f372e;}.af{fill:url(#s);}</style><linearGradient id="a" x1="2.126" y1="-1.467" x2="1.414" y2="-0.606" gradientUnits="objectBoundingBox"><stop offset="0" stop-color="#ff928e"/><stop offset="1" stop-color="#fe7062"/></linearGradient><linearGradient id="b" x1="1.661" y1="0.364" x2="4.593" y2="0.003" gradientUnits="objectBoundingBox"><stop offset="0" stop-color="#ff928e"/><stop offset="1" stop-color="#feb3b1"/></linearGradient><linearGradient id="c" x1="5.71" y1="-0.156" x2="2.407" y2="0.29" xlink:href="#b"/><linearGradient id="d" x1="-0.258" y1="0.056" x2="1.538" y2="0.888" xlink:href="#b"/><linearGradient id="e" x1="-12.667" y1="-1.451" x2="-13.509" y2="0.424" gradientUnits="objectBoundingBox"><stop offset="0" stop-color="#09005d"/><stop offset="1" stop-color="#1a0f91"/></linearGradient><linearGradient id="f" x1="-29.986" y1="-6.871" x2="-30.941" y2="-5.461" xlink:href="#e"/><linearGradient id="g" x1="2.821" y1="-0.591" x2="-0.787" y2="1.201" xlink:href="#b"/><linearGradient id="h" x1="1.388" y1="-1.212" x2="0.876" y2="-0.293" xlink:href="#b"/><linearGradient id="i" x1="3.287" y1="-5.543" x2="1.503" y2="-1.721" xlink:href="#b"/><linearGradient id="j" x1="1.67" y1="1.646" x2="0.175" y2="0.056" xlink:href="#b"/><linearGradient id="k" x1="-39.416" y1="0.5" x2="-38.416" y2="0.5" xlink:href="#b"/><linearGradient id="l" x1="-54.159" y1="0.5" x2="-53.159" y2="0.5" xlink:href="#b"/><linearGradient id="m" x1="-5.3" y1="0.5" x2="-4.3" y2="0.5" xlink:href="#b"/><linearGradient id="n" x1="3.591" y1="2.672" x2="-0.018" y2="0.239" xlink:href="#b"/><linearGradient id="o" x1="-30.416" y1="0.706" x2="-28.397" y2="-1.072" xlink:href="#b"/><linearGradient id="p" x1="-0.264" y1="0.488" x2="0.951" y2="0.502" xlink:href="#b"/><linearGradient id="q" x1="0.359" y1="-0.083" x2="0.702" y2="1.525" xlink:href="#b"/><linearGradient id="r" x1="-52.58" y1="-13.721" x2="-52.048" y2="-15.265" xlink:href="#b"/><linearGradient id="s" x1="-174.522" y1="-69.503" x2="-172.789" y2="-76.984" xlink:href="#b"/></defs><g transform="translate(-789 -2086.87)"><g transform="translate(310.207 1600.299)"><path class="a" d="M865.853,862.565c-11.453,11.805-21.7,18.745-29.546,23.983-76.519,51.093-163.989,36.366-191.033,31.333-43.631-8.121-80.462-13.849-112.107-42.439C461.262,810.479,464.76,674.96,519.7,591.012c6.515-9.954,61.376-91.275,149.035-102.734,2.144-.28,3.744-.44,5.145-.588,13.561-1.436,97.593-9.013,166.114,48.393a204.411,204.411,0,0,1,40.23,45.646C933.749,664.386,933.919,792.406,865.853,862.565Z" transform="translate(0 0)"/><g transform="translate(554.906 505.029)"><g transform="translate(0 0)"><path class="b" d="M977.773,1022.263H1182.79c16.865,0,30.657-12.218,31.092-27.546,1.931-68.076,6.613-306.174,5.562-370.978-.181-11.138-9.985-20.161-22.233-20.482-47.628-1.25-162.158-3.279-215.331,4.232-11.2,1.582-19.571,10.174-19.933,20.471-2.007,57.039-8.381,309.439-6.781,374.212C955.444,1013.343,965.482,1022.263,977.773,1022.263Z" transform="translate(-954.913 -602.033)"/><path class="c" d="M1026.543,1085.424h204.6c10.343,0,18.771-7.186,18.926-16.137l5.158-361.368c.153-8.874-8.1-16.148-18.351-16.182l-202.773-.6c-7.332-.024-13.34,5.032-13.519,11.376l-8.636,369.974C1011.75,1079.579,1018.342,1085.424,1026.543,1085.424Z" transform="translate(-1002.828 -676.889)"/><path class="d" d="M1099.8,1149.572h183.945c9.3,0,16.876-6.782,17.015-15.229L1305.4,793.3c.138-8.375-7.279-15.24-16.5-15.271l-182.3-.57c-6.592-.022-11.994,4.749-12.154,10.736l-7.764,349.169C1086.5,1144.056,1092.43,1149.572,1099.8,1149.572Z" transform="translate(-1065.615 -749.411)"/></g><g transform="translate(73.703 98.844)"><circle class="e" cx="60.439" cy="60.439" r="60.439"/><path class="b" d="M55.113,0A55.113,55.113,0,1,1,0,55.113,55.113,55.113,0,0,1,55.113,0Z" transform="translate(4.945 5.636)"/><path class="d" d="M1719.6,1386.256c0,9.332-7.565,19.406-16.9,19.406s-16.9-10.074-16.9-19.406,7.565-15.953,16.9-15.953S1719.6,1376.924,1719.6,1386.256Z" transform="translate(-1642.672 -1346.332)"/><path class="d" d="M1598.862,1655.736h41.248a9.984,9.984,0,0,0,9.51-6.942l2.22-6.937a9.974,9.974,0,0,0-6.026-12.41c-16.787-6.138-34.144-5.35-51.926.566a9.942,9.942,0,0,0-6.371,12.052l1.709,6.3A9.985,9.985,0,0,0,1598.862,1655.736Z" transform="translate(-1559.797 -1560.478)"/></g><rect class="f" width="192.262" height="15.854" rx="7.927" transform="translate(37.008 259.47)"/><rect class="f" width="192.262" height="15.854" rx="7.927" transform="translate(34.846 290.5)"/><rect class="f" width="192.262" height="15.854" rx="7.927" transform="translate(35.765 324.131)"/><rect class="f" width="192.262" height="15.854" rx="7.927" transform="translate(33.603 355.161)"/></g><g transform="translate(500.465 587.641)"><g transform="translate(6.655 0)"><path class="g" d="M782.514,1916.8l-122.162,92.666a11.032,11.032,0,0,0-1.578,16.12l.7.789a10.256,10.256,0,0,0,14.528.806l114.541-103.162Z" transform="translate(-655.987 -1789.236)"/><path class="h" d="M1346.615,1122.429c-41.76,12.913-65.333,56.623-52.654,97.63s56.812,63.781,98.572,50.868,65.334-56.623,52.654-97.63S1388.375,1109.516,1346.615,1122.429Zm42.545,137.591c-35.625,11.016-73.275-8.413-84.092-43.4s9.294-72.272,44.919-83.288,73.275,8.413,84.092,43.4S1424.786,1249,1389.16,1260.019Z" transform="translate(-1189.094 -1118.814)"/><g transform="translate(106.588 5.072)"><path class="i" d="M1329.482,1253.911a.285.285,0,0,1-.279-.166c-.766-1.685-1.476-3.421-2.109-5.16a.285.285,0,0,1,.536-.195c.628,1.725,1.332,3.447,2.092,5.119a.285.285,0,0,1-.141.377A.279.279,0,0,1,1329.482,1253.911Zm-5.9-20.922a.284.284,0,0,1-.3-.25,71.3,71.3,0,0,1-.237-15.169,72.87,72.87,0,0,1,15.925-39.143,75.17,75.17,0,0,1,77.519-25.4.285.285,0,1,1-.146.551,74.168,74.168,0,0,0-41,.884c-28.734,8.885-49.04,33.677-51.734,63.16a70.749,70.749,0,0,0,.235,15.048.284.284,0,0,1-.248.318Z" transform="translate(-1322.748 -1150.543)"/></g><path class="i" d="M685.713,2466.313h-.029c-4.668-.153-7.624-1.879-8.785-5.13a8.324,8.324,0,0,1,2.821-9.265l14.535-11.556a.285.285,0,1,1,.354.446l-14.535,11.556a7.756,7.756,0,0,0-2.639,8.628c1.075,3.008,3.856,4.607,8.268,4.752a.285.285,0,0,1,.01.569Z" transform="translate(-673.174 -2229.049)"/><path class="b" d="M815.511,2410.723a.285.285,0,0,1-.2-.507l1.884-1.5a.285.285,0,1,1,.355.445l-1.884,1.5A.278.278,0,0,1,815.511,2410.723Z" transform="translate(-789.754 -2202.463)"/></g><g transform="translate(0 120.767)"><path class="j" d="M699.348,2677.519l-13.307,3.327,3.327,24.95a28.341,28.341,0,0,0-6.653,11.644c-1.663,6.653-3.2,34.59-3.2,34.59l-3.157,1.909-.384,1.594,9.186,12.351-1.523-9.831c-.242-1.56.177-4.725.045-4.792,4.99-13.307,15.664-50.791,15.664-50.791Z" transform="translate(-666.126 -2549.113)"/><path class="k" d="M773.617,2633.318c-.144,0-.286.009-.43,0,.643-8.022,3.582-43.328,6.522-56.56,3.327-14.97-4.99-44.91-4.99-44.91l-14.97,14.97,8.317,28.277c-5.7,8.549.93,58.614.787,58.593l.009.111-2.17,2.984.264,1.618,13.257,7.823L775,2637.752A9.516,9.516,0,0,1,773.617,2633.318Z" transform="translate(-736.507 -2426.729)"/><path class="l" d="M673.09,2116.523s-29.147,40.444,0,61.181l2.97-2.647s-14.471-17.06,0-37.944Z" transform="translate(-652.818 -2077.797)"/><path class="m" d="M812.089,3188.9h-4.231a2.546,2.546,0,0,1-2.022-.991c-1.319-1.713-4.051-5.057-5.358-5.145-1.759-.117-1.534,6.136-1.534,6.136h-.986l-1.249-7.77a4.6,4.6,0,0,1,2.414-4.808h0s.4,2.973,2.582,4.289,8.872,6.025,8.872,6.025a6.058,6.058,0,0,1,1.719.045A1.119,1.119,0,0,1,812.089,3188.9Z" transform="translate(-767.511 -2968.177)"/><path class="n" d="M667.048,3164.631l-3.9-1.641a2.546,2.546,0,0,1-1.479-1.7c-.551-2.091-1.773-6.232-2.944-6.82-1.576-.791-3.793,5.061-3.793,5.061l-.909-.382,1.862-7.646a4.6,4.6,0,0,1,4.089-3.5h0s-.782,2.9.717,4.955,5.841,8.994,5.841,8.994a6.048,6.048,0,0,1,1.567.708A1.119,1.119,0,0,1,667.048,3164.631Z" transform="translate(-647.683 -2944.392)"/><path class="o" d="M726.606,2372.353s-.489,3.551.227,13.314,4.143,32.682,3.445,54.612c0,0-9.74,2.688-26.661,1.415,0,0-7.141-34.239-5.4-47.256s11.177-22.354,11.177-22.354Z" transform="translate(-684.582 -2292.505)"/><path class="p" d="M779.043,1990.236l1.19,14h-11.31l2.812-21.366Z" transform="translate(-744.215 -1965.507)"/><path class="b" d="M728.5,2102.277c3.9-.215,12.63-.614,18.812-.277a7.182,7.182,0,0,1,6.648,5.7l1.508,7.226a17.4,17.4,0,0,1-.245,8.131l-6.056,22.232s-5.387,3.237-17.213-.227c0,0-10.386-24.766-6.134-40.609A2.944,2.944,0,0,1,728.5,2102.277Z" transform="translate(-707.145 -2065.487)"/><path class="q" d="M859.011,2114.083c1.666,4.388,3.17,8.99,4.787,13.3.822,2.157,1.656,4.271,2.548,6.213.451.967.947,1.856,1.4,2.662a11.754,11.754,0,0,0,1.235,1.766c.052.045-.123.08-.182.083-.036,0,1.126.191,1.482.25l1.392-.008a48.5,48.5,0,0,0,6.523-.895c4.573-.853,9.327-2.05,14.208-2.955l.038-.007a1.72,1.72,0,0,1,1.45,2.983,49.978,49.978,0,0,1-6.219,4.541c-1.089.666-2.2,1.319-3.324,1.946-1.149.586-2.3,1.176-3.5,1.722a40.614,40.614,0,0,1-7.765,2.638c-.753.126-1.5.258-2.272.362-.87.03-1.659.107-2.609.052-.5-.05-1.011-.112-1.516-.185a6.867,6.867,0,0,1-.794-.143c-.346-.1-.692-.22-1.033-.348a10.76,10.76,0,0,1-1.75-.887c-.48-.317-.918-.648-1.343-.987a18.144,18.144,0,0,1-3.4-3.932,31.073,31.073,0,0,1-2.142-3.792,51.742,51.742,0,0,1-2.948-7.45,69.487,69.487,0,0,1-3.078-15.086,4.53,4.53,0,0,1,8.746-2Z" transform="translate(-812.488 -2073.161)"/><path class="r" d="M1104.666,2232.865l2.018-4.791,10.622-2.647s.85,1.841-3.611,2.647a3.894,3.894,0,0,1,.743,3.833C1113.589,2233.978,1104.56,2236.053,1104.666,2232.865Z" transform="translate(-1026.285 -2169.292)"/><path class="s" d="M795.326,1915.969c.4.238,3.586,11.46.919,16.165s-10.809-.565-13.015-7.369S784.569,1909.625,795.326,1915.969Z" transform="translate(-755.71 -1907.406)"/><path class="t" d="M630.205,1887.526a13.106,13.106,0,0,0-2.332,2.238c-1.4,1.951-1.332,4.613-2.483,6.717-1.216,2.222-3.424,3.021-5.346,4.43a10.045,10.045,0,0,0-3.894,6.04c-.526,2.628.844,5.214.483,7.667-.262,1.782-2.2,2.706-2.272,4.632a4.4,4.4,0,0,0,2.86,4.346c1.037.389,2.29.447,3.009,1.289.867,1.016.473,2.6.978,3.831,1.5,3.66,5.339,1.2,7.77.576,2.8-.725,5.641,1.023,8.535,1.1a7.7,7.7,0,0,0,7.594-6.941c.07-1.08-.1-2.17.037-3.244.268-2.165,1.555-3.172,3.066-4.486a7.205,7.205,0,0,0,2.438-5.524c-.1-4.132-3.091-7.328-4.489-11.034-.747-1.981-1.268-3.651-.16-5.554a15.268,15.268,0,0,1,4.918-4.678,20.017,20.017,0,0,0,4.06-3.148,5.447,5.447,0,0,0,1.471-4.732c-1.123-4.586-9.589-7.355-13.738-6.668a9.71,9.71,0,0,0-7.159,4.681c-1.343,2.248-2.351,5.081-3.992,7.133A9.833,9.833,0,0,1,630.205,1887.526Z" transform="translate(-614.359 -1874.275)"/></g></g><g transform="translate(769.806 653.395)"><path class="g" d="M2656.04,3127.6s.941,5.329,1.4,10.6a3.634,3.634,0,0,1-3.477,3.938c-7.024.292-22.049.861-27.44.621a1.182,1.182,0,0,1-1.04-1.619h0a2.649,2.649,0,0,1,1.354-1.427l24.818-11.406Z" transform="translate(-2573.259 -2872.231)"/><path class="u" d="M2779.463,3102.843l-.756,6.374s-4.348,2.024-7.317-.255l1.8-7.1Z" transform="translate(-2695.91 -2850.605)"/><path class="g" d="M2781.641,2358.443c.326,1.664,1.753,83.057-6.947,119.532a1.238,1.238,0,0,0,.726,1.44,21.551,21.551,0,0,0,7.086,1.44,2.132,2.132,0,0,0,2.115-1.53c2.487-8.463,14.4-50.864,15.959-91.367,1.737-45.26,0-1.541,0-1.541l-1.019-27.977Z" transform="translate(-2698.657 -2226.027)"/><path class="g" d="M2943.328,3144.99s1.5,2.689,2.948,9.838a2.217,2.217,0,0,1-1.951,2.655c-2.319.228-5.89.521-8.75.5a2.21,2.21,0,0,1-2.189-2.466,18.646,18.646,0,0,1,4.353-10.226Z" transform="translate(-2831.997 -2886.842)"/><path class="v" d="M2967.258,3091.741l-1.767,9.638s-1.747,1.3-5.2.358l.844-10.37Z" transform="translate(-2854.611 -2841.79)"/><path class="g" d="M2848.989,2350.411c7.115,42.944-1.544,106.138-4.464,118.507a1.929,1.929,0,0,1-1.557,1.465,12.953,12.953,0,0,1-5.566-.222,1.767,1.767,0,0,1-1.271-1.628c-.392-10,.313-71.388-6.317-95.65a5.511,5.511,0,0,0-2.126-3.04l-12.869-9.148-.987-14.788Z" transform="translate(-2731.568 -2215.498)"/><g transform="translate(9.091 20.518)"><path class="b" d="M2588.337,1846.756c21.324-.353,44.853,5.6,44.853,5.6,6.357,37.089,1.112,79.868,1.112,79.868-16.509,4.329-35.132-2.647-35.132-2.647-2.744-15.5-15.546-59.131-15.546-59.131a70.246,70.246,0,0,1-26.07-8.273c5.391-6.249,7.933-14.2,9.037-18.9A71.547,71.547,0,0,0,2588.337,1846.756Z" transform="translate(-2525.349 -1813.73)"/><path class="w" d="M2356.093,1660.1a4.08,4.08,0,0,1,4.746-1.333c3.138,13.256,19.592,24,36.5,29.257-1.1,4.7-3.646,12.653-9.037,18.9C2360.244,1691.152,2356.093,1660.1,2356.093,1660.1Z" transform="translate(-2356.093 -1658.484)"/></g><g transform="translate(0 0)"><path class="x" d="M2308.824,1552.912c-.219.7,2.319,1.758,3.813-1.092.052-1.366.883-7.217.067-8.33-4.347-5.926-12.774-13.355-12.774-13.355a2.005,2.005,0,0,0-.251,2.786l4.088,4.259a19.784,19.784,0,0,0-2.387,4.719,5.729,5.729,0,0,0,.571,4.216c.718,1.293,1.7,2.974,2.623,4.289A5.657,5.657,0,0,0,2308.824,1552.912Z" transform="translate(-2299.225 -1530.135)"/><path class="y" d="M2334.5,1591.491l3.726,3.158,1.17,3.145-3.322,3.685s-1.117-6.239-1.947-7.589S2333.724,1591.886,2334.5,1591.491Z" transform="translate(-2328.167 -1581.683)"/></g><path class="b" d="M2979.532,1920.749l8.179-20.648s19.918,13.533,23.193,30.693a47.133,47.133,0,0,0-17.315,4.641C2992.117,1927.332,2979.532,1920.749,2979.532,1920.749Z" transform="translate(-2870.779 -1840.959)"/><path class="z" d="M2855.094,2101.484s22.363,12.638,29.908,1.847a8.483,8.483,0,0,0,1.555-6.591,47.139,47.139,0,0,1,17.315-4.641,23.682,23.682,0,0,1-2.574,16.235c-13.217,24.178-49.164-1.336-49.164-1.336Z" transform="translate(-2763.747 -2002.264)"/><g transform="translate(38.816 69.045)"><path class="aa" d="M2597.256,2008.212l-12.2-42.622a1.242,1.242,0,0,0-1.051-.895c-2.212-.258-8.619-.982-16.017-1.608-8.1-.685-17.4-1.252-23.666-.959a2.4,2.4,0,0,0-2.025,3.466c4.424,8.9,17.2,34.177,24.091,43.5a2.415,2.415,0,0,0,1.967.971l27.719-.258A1.247,1.247,0,0,0,2597.256,2008.212Z" transform="translate(-2542.038 -1962.049)"/><path class="ab" d="M2789.743,2110.036s1.7-6.991,1.014-9.471-2.015-5.669-6.443-4.961a64.815,64.815,0,0,0-9.654,2.574s.264,3.231,3.63,2.188l-2.088,1.615s.3,2.587,3.142,1.2l-1.941,2.142a2.263,2.263,0,0,0,3.313.762C2782.808,2104.728,2783.811,2110.878,2789.743,2110.036Z" transform="translate(-2737.473 -2074.17)"/></g><path class="ac" d="M2812.653,1756.78l6.785,19.622a.707.707,0,0,1-.322.852c-1.849,1.023-8.513,3.978-16.543-1.113a3.331,3.331,0,0,1-1.533-2.377l-2.2-16.983Z" transform="translate(-2718.973 -1720.549)"/><g transform="translate(72.335 7.863)"><path class="ad" d="M2758.3,1643.115s-7.451,14.025-6.5,19.69,10.189,5.259,18.252.657l5.635-15.144Z" transform="translate(-2751.72 -1632.917)"/><path class="ae" d="M2784.235,1602.432a.578.578,0,0,1-.253-.846,15.08,15.08,0,0,0,2.073-4.4s1.339-.858-3.409-1.995-11.829-2.9-13.318-6.943c-1.451-3.941,2.362-13.851,8.445-5.955a.578.578,0,0,0,.916.006c1-1.3,3.619-3.992,7.259-2.359,3.406,1.528,3.79,4.024,3.743,5.282a.575.575,0,0,0,.681.588c1.722-.328,5.855-.61,7.784,3.629,1.589,3.492.556,5.469-.384,6.435a.576.576,0,0,0,.247.957c1.132.346,2.594,1.306,2.448,3.958-.2,3.666-4.3,3.343-5.468,3.176a.578.578,0,0,0-.513.182c-1,1.107-5.509,5.809-10.388,6.376a.583.583,0,0,1-.612-.77l2.112-6.138a.581.581,0,0,0-.314-.72Z" transform="translate(-2766.254 -1579.323)"/><path class="af" d="M2850.254,1719.856s5.3-3.64,5.692-.575-4.777,4.439-7.335,3.3Z" transform="translate(-2833.122 -1695.877)"/></g></g></g></g></svg>