<svg xmlns="http://www.w3.org/2000/svg" xmlns:xlink="http://www.w3.org/1999/xlink" width="395.998" height="396.962" viewBox="0 0 395.998 396.962"><defs><style>.a{fill:#d21530;}.b{fill:#b7ada8;}.c{fill:#dacec6;}.d{fill:#2c3d54;}.e{fill:url(#a);}.f{fill:#1c1f53;}.g{fill:#7d97f4;}.h{fill:url(#b);}.i{fill:#e9e9e9;}.j{fill:url(#c);}.k{fill:url(#d);}.l{fill:#d6d4d3;}.m{fill:url(#e);}.n{fill:url(#f);}.o{fill:#20313f;}.p{fill:url(#g);}.q{fill:#fcfdff;}.r{fill:#a78c75;}</style><linearGradient id="a" x1="-103.309" y1="0.5" x2="-102.309" y2="0.5" gradientUnits="objectBoundingBox"><stop offset="0" stop-color="#ff928e"/><stop offset="1" stop-color="#feb3b1"/></linearGradient><linearGradient id="b" x1="-111.68" y1="0.5" x2="-110.68" y2="0.5" xlink:href="#a"/><linearGradient id="c" x1="-29.551" y1="0.5" x2="-28.551" y2="0.5" xlink:href="#a"/><linearGradient id="d" x1="-47.922" y1="0.5" x2="-46.922" y2="0.5" xlink:href="#a"/><linearGradient id="e" x1="0.773" y1="-2.674" x2="0.653" y2="-1.129" xlink:href="#a"/><linearGradient id="f" x1="-50.807" y1="-21.006" x2="-52.425" y2="-19.653" xlink:href="#a"/><linearGradient id="g" x1="-135.953" y1="-57.722" x2="-132.701" y2="-60.11" xlink:href="#a"/></defs><g transform="translate(-823 -1426)"><path class="a" d="M522.82,401.375C484.4,491.213,382.057,541.539,293.3,527.965c-14.442-2.21-54.033-8.79-89.088-39.834-67.48-59.761-81.911-178.1-27.477-261.491,39.619-60.7,110.639-95.1,178.123-93.382,14.535.37,70.243,2.656,119.2,42.745a182.776,182.776,0,0,1,37.345,42.079C544.973,270.207,547.858,342.827,522.82,401.375Z" transform="translate(679.58 1292.804)"/><g transform="translate(-934.09 1302.466)"><g transform="translate(1938.17 358.384)"><g transform="translate(45.423 22.635)"><rect class="b" width="8.79" height="95.055"/></g><g transform="translate(11.325 113.801)"><path class="b" d="M2214.816,832.43h-76.985v-3.723a2,2,0,0,1,2-2h72.832a2.154,2.154,0,0,1,2.154,2.154Z" transform="translate(-2137.831 -826.708)"/></g><g transform="translate(0)"><rect class="c" width="102.868" height="29.175" rx="14.587"/></g></g><g transform="translate(1863.389 168.355)"><path class="d" d="M2090.361,793.521s-25.1,18.091-20.741,30.246c0,0,27.462-11.849,30.78-21.182s-.561-13.456-.561-13.456Z" transform="translate(-2014.72 -502.642)"/><path class="e" d="M2110.358,765.792l4.1,11.865a4.124,4.124,0,0,1-1.6,4.841,10.767,10.767,0,0,1-3.4,1.315,4.8,4.8,0,0,1-5.313-2.412l-4.909-9.244Z" transform="translate(-2030.944 -490.075)"/><path class="f" d="M2116.461,534.39s-51.553,8.935-73.667,29.364,20.3,85.594,20.3,85.594,6.949-.043,15.37-7.261c0,0-25.147-49.01-3.475-63.3,24.365-16.069,52.444-19.687,52.444-19.687l-10.471-23.132Z" transform="translate(-1997.108 -365.465)"/><path class="d" d="M2069.1,833.249c5.521-2.556,21.15-13.494,23.784-13.977s7.2,2.613,7.2,2.613,1.111,2-.078,5.486c-3.668,4.439-11.813,12.9-22.763,16.053-8.055,2.319-13.689.157-17.2-2.373A23.271,23.271,0,0,1,2069.1,833.249Z" transform="translate(-2009.842 -518.846)"/><path class="g" d="M2075.381,852.934c10.949-3.153,19.094-11.615,22.763-16.053-.8,2.356-2.656,5.39-6.615,8.949-9.817,8.823-28.568,12-32.56,11.391-3.2-.491-2.9-3.444-.786-6.66C2061.693,853.092,2067.326,855.253,2075.381,852.934Z" transform="translate(-2007.972 -528.356)"/><path class="h" d="M2140.026,803.084c-.062,1.521-3.171,6.737-4.988,9.664a4.737,4.737,0,0,1-4.013,2.245,12.194,12.194,0,0,1-3.316-.4,3.074,3.074,0,0,1-2.065-3.825l3.55-12.123Z" transform="translate(-2045.095 -507.767)"/><path class="f" d="M2214.073,500.859s11.449,30.614,0,39.924-38.761,19.791-44.863,38.334-16.455,54.581-30.311,67.343c0,0-9.735-.943-13.378-4.822,0,0,7.891-53.8,13.1-67.6,4.507-11.954,11.148-29.209,23.875-38.853,3.643-2.761,3.009-7.134,1.32-11.381l-3.076-7.735Z" transform="translate(-2045.095 -347.408)"/><path class="i" d="M2058.145,413.008c19.2,1.157,13.215-29.512,12.869-30.731l29.136,20.58s-1.543,16.4-25.767,25a30.107,30.107,0,0,1-16.682,1.208A26.507,26.507,0,0,0,2058.145,413.008Z" transform="translate(-2008.575 -283.552)"/><path class="j" d="M1963.7,426.285c7.154-4.975,15.258,0,15.258,0,9.565,6.256,16.641,8.916,21.861,9.231a26.508,26.508,0,0,1-.444,16.061c-10.716-2.3-18.381-10.058-21.712-14.037a3.461,3.461,0,0,0-4.789-.524c-1.49,1.176-2.936,2.786-2.674,4.482.517,3.343-3.362,4.406-3.654,3.194s1.327-8.4,1.327-8.4-7.758,7.8-10.787,10.8-6.837,0-6.837,0S1956.549,431.261,1963.7,426.285Z" transform="translate(-1951.252 -306.059)"/><path class="i" d="M2157.266,278.117s-27.928-11.183-79.9,31.728c0,0-4.341,8.986.4,16.985s49.862,46.971,56.064,68.584c0,0,26.885,8.736,54.688-11.979C2188.51,383.434,2186.057,323.283,2157.266,278.117Z" transform="translate(-2018.184 -226.755)"/><path class="k" d="M2111.334,258.025l13.748,16.667a5.472,5.472,0,0,1,.721,5.883c-1.908,3.893-6.436,9.559-16.478,8.776a8.437,8.437,0,0,1-6.937-4.733l-9.613-19.872Z" transform="translate(-2027.463 -216.642)"/><path class="i" d="M2264.938,351.03c3.242-13.2-29.6-42.641-29.6-42.641l7.975-28.741s70.912,47.207,52.841,85.169a27.648,27.648,0,0,1-10.021,11.8C2280.426,361.25,2271.327,354.2,2264.938,351.03Z" transform="translate(-2104.234 -228.286)"/><path class="l" d="M2264.082,378.591a.775.775,0,0,0,.752-.591c3.316-13.5-28.479-42.188-29.833-43.4a.776.776,0,1,0-1.036,1.156c.325.291,32.458,29.275,29.363,41.878a.777.777,0,0,0,.755.961Z" transform="translate(-2103.354 -257.77)"/><path class="m" d="M2153.445,431.136s38.936,15.116,48.439,3.746a6.386,6.386,0,0,0,1.3-2.61c6.388,3.172,15.488,10.221,21.2,25.591-20.478,13.085-55.48-7.28-64.945-13.283a7.067,7.067,0,0,0-5.23-.959c-3.651.757-9.957,1.87-13.358,1.346-4.975-.766-12.122,16.785-20.186,11.371C2120.664,456.337,2127.57,425.83,2153.445,431.136Z" transform="translate(-2042.48 -309.529)"/><g transform="translate(45.473)"><path class="n" d="M2068.162,200.2c-.138.536,3.223,36.969,3.223,36.969l20.762-2.361,1.945-35S2070.478,191.233,2068.162,200.2Z" transform="translate(-2059.679 -183.302)"/><path class="o" d="M2078.791,192.114l.419,18.507a2.563,2.563,0,0,1-.079.7c-.361,1.407-1.959,6.158-6.72,4.227-4.32-1.752-8.289-3.287-11.208-2.733a2.584,2.584,0,0,0-2.094,2.777,111.706,111.706,0,0,0,2.841,17.116,2.579,2.579,0,0,0,2.946,1.858c3.965-.7,12.287-2.406,18.66-5.347a2.586,2.586,0,0,0,1.507-2.176c.311-4.626,1.309-18.684,2.193-22.558.83-3.636,5.592-5.347,7.643-5.922a2.541,2.541,0,0,0,1.561-1.257c1.159-2.179,2.992-7.315-3.417-10.206a2.59,2.59,0,0,1-1.264-3.507c1.285-2.632,2.159-6.769-2.729-9.638-4.969-2.915-9.177-.558-11.533,1.475a2.588,2.588,0,0,1-3.319.027,2.046,2.046,0,0,0-2.323-.175,2.547,2.547,0,0,1-3.466-1.48c-.97-2.706-3.218-5.737-8.43-5.423-9.249.558-11.381,10.506-9.633,16.663s11.741,4.982,16.957,2.547c3.966-1.852,8.528,1.046,10.487,2.541A2.563,2.563,0,0,1,2078.791,192.114Z" transform="translate(-2049.786 -168.355)"/><path class="p" d="M2130.226,245.125s-2.585-10.86,1.531-13,9.648-.186,7.567,7.247C2136.734,248.62,2130.226,245.125,2130.226,245.125Z" transform="translate(-2092.671 -202.257)"/></g></g><g transform="translate(1793.65 245.6)"><path class="f" d="M2048.669,487.819c-.063,0-.125,0-.188,0l-81.692-.089a3.656,3.656,0,1,1,.008-7.313l81.692.089a3.657,3.657,0,0,1,.18,7.309Z" transform="translate(-1887.912 -413.647)"/><path class="f" d="M1805.576,335.733h68.034a12.967,12.967,0,0,1,11.728,7.436l31.452,66.692h-84.548a7.88,7.88,0,0,1-7.329-4.984l-24.39-61.714A5.433,5.433,0,0,1,1805.576,335.733Z" transform="translate(-1800.138 -335.733)"/><path class="g" d="M1903.106,401.878c1.474,4.58.385,9.029-2.432,9.936s-6.3-2.071-7.772-6.651-.385-9.029,2.433-9.936S1901.632,397.3,1903.106,401.878Z" transform="translate(-1849.737 -367.683)"/></g><g transform="translate(1788.09 318.995)"><g transform="translate(18.596 7.307)"><path class="q" d="M1831.817,679.287a3.53,3.53,0,0,1-1.355-.271,3.285,3.285,0,0,1-1.8-4.366l72-162.035a3.477,3.477,0,0,1,4.51-1.739,3.284,3.284,0,0,1,1.8,4.366l-72,162.035A3.44,3.44,0,0,1,1831.817,679.287Z" transform="translate(-1828.385 -510.603)"/><path class="q" d="M1923.552,679.286a3.438,3.438,0,0,1-3.155-2.011l-72-162.035a3.284,3.284,0,0,1,1.8-4.366,3.477,3.477,0,0,1,4.51,1.739l72,162.035a3.285,3.285,0,0,1-1.8,4.366A3.53,3.53,0,0,1,1923.552,679.286Z" transform="translate(-1839.012 -510.603)"/><path class="q" d="M2314.723,679.287a3.533,3.533,0,0,1-1.355-.271,3.284,3.284,0,0,1-1.8-4.366l72-162.035a3.477,3.477,0,0,1,4.51-1.739,3.284,3.284,0,0,1,1.8,4.366l-72,162.035A3.439,3.439,0,0,1,2314.723,679.287Z" transform="translate(-2088.43 -510.603)"/><path class="q" d="M2406.457,679.286a3.438,3.438,0,0,1-3.155-2.011l-72-162.035a3.284,3.284,0,0,1,1.8-4.366,3.477,3.477,0,0,1,4.51,1.739l72,162.035a3.284,3.284,0,0,1-1.8,4.366A3.529,3.529,0,0,1,2406.457,679.286Z" transform="translate(-2099.056 -510.603)"/></g><path class="r" d="M2122.531,499.084a3.95,3.95,0,0,0-.682-3,3.115,3.115,0,0,0-2.5-1.319H1791.817a3.651,3.651,0,0,0-3.141,1.925,4.611,4.611,0,0,0-.244,4l3.549,8.6a4.968,4.968,0,0,0,4.512,3.23H2117.1a3.9,3.9,0,0,0,3.7-3.413Z" transform="translate(-1788.09 -494.769)"/></g></g></g></svg>