<svg width="23" height="24" viewBox="0 0 23 24" fill="none" xmlns="http://www.w3.org/2000/svg">
<path fill-rule="evenodd" clip-rule="evenodd" d="M18.2112 5.11905H16.0412V3.5H14.5945V8.35714H16.0412V6.7381H18.2112V18.881H5.19104V6.7381H6.63772V5.11905H5.19104C4.39175 5.11905 3.74435 5.84357 3.74435 6.7381V18.881C3.74435 19.7755 4.39175 20.5 5.19104 20.5H18.2112C19.0105 20.5 19.6579 19.7755 19.6579 18.881V6.7381C19.6579 5.84357 19.0105 5.11905 18.2112 5.11905Z" fill="#373737"/>
<path fill-rule="evenodd" clip-rule="evenodd" d="M8.67012 6.7381H13.9746V5.11905H8.67012V3.5H7.15454V8.35714H8.67012V6.7381Z" fill="#373737"/>
<rect x="6.30176" y="10.1785" width="2.8417" height="3.03571" fill="#373737"/>
<rect x="6.30176" y="14.4285" width="2.8417" height="3.03572" fill="#373737"/>
<rect x="10.2801" y="10.1785" width="2.8417" height="3.03571" fill="#373737"/>
<rect x="10.2801" y="14.4285" width="2.8417" height="3.03572" fill="#373737"/>
<rect x="14.2585" y="10.1785" width="2.8417" height="3.03571" fill="#373737"/>
</svg>
