<svg width="32" height="32" viewBox="0 0 32 32" fill="none" xmlns="http://www.w3.org/2000/svg">
<path d="M15.0291 8.47516H16.904V13.5608H15.0291V8.47516Z" fill="#E20613"/>
<path d="M6.93848 10.9752H8.81348V13.5608H6.93848V10.9752Z" fill="#E20613"/>
<path d="M7 0C3.13401 0 0 3.13401 0 7V12.0543C0 15.9202 3.13401 19.0543 7 19.0543H25C28.866 19.0543 32 15.9202 32 12.0542V7C32 3.134 28.866 0 25 0H7ZM10.6884 15.4358H5.06344V9.10013H10.6884V15.4358ZM18.779 15.4358H13.154V6.60013H18.779V15.4358ZM26.9366 15.4358H21.3116V3.73712H26.9366V15.4358Z" fill="#ACB1BF"/>
<path d="M23.1865 5.61212H25.0615V13.5607H23.1865V5.61212Z" fill="#E20613"/>
<path d="M7.68788 29.1405L6.68138 28.7256C6.11513 29.1007 5.437 29.3199 4.70838 29.3199C3.97975 29.3199 3.30163 29.1007 2.73538 28.7256L1.72888 29.1405C0.678563 29.5734 0 30.587 0 31.7229V32H9.41669V31.7229C9.41669 30.587 8.73806 29.5734 7.68788 29.1405Z" fill="#E20613"/>
<path d="M18.9796 29.1405L17.9731 28.7256C17.4068 29.1007 16.7287 29.3199 16.0001 29.3199C15.2714 29.3199 14.5933 29.1007 14.0271 28.7256L13.0206 29.1405C11.9704 29.5734 11.2917 30.587 11.2917 31.7229V32H20.7084V31.7229C20.7083 30.587 20.0297 29.5734 18.9796 29.1405Z" fill="#E20613"/>
<path d="M17.7704 25.7369V25.0864C17.7704 24.1102 16.9761 23.316 15.9999 23.316C15.0237 23.316 14.2295 24.1102 14.2295 25.0864V25.7369C14.2295 26.7131 15.0237 27.5074 15.9999 27.5074C16.9761 27.5074 17.7704 26.7132 17.7704 25.7369Z" fill="#E20613"/>
<path d="M6.47886 25.7369V25.0864C6.47886 24.1102 5.68461 23.316 4.70842 23.316C3.73224 23.316 2.93799 24.1102 2.93799 25.0864V25.7369C2.93799 26.7131 3.73224 27.5074 4.70842 27.5074C5.68461 27.5074 6.47886 26.7132 6.47886 25.7369Z" fill="#E20613"/>
<path d="M30.2713 29.1406L29.2267 28.71C28.6557 29.095 27.9683 29.32 27.2293 29.32C26.5111 29.32 25.8421 29.1068 25.2807 28.7414L24.3123 29.1406C23.2621 29.5735 22.5835 30.5871 22.5835 31.723V32H32.0001V31.723C32.0001 30.5871 31.3216 29.5735 30.2713 29.1406Z" fill="#E20613"/>
<path d="M28.9996 25.7369V25.0864C28.9996 24.1102 28.2054 23.316 27.2292 23.316C26.253 23.316 25.4587 24.1102 25.4587 25.0864V25.7369C25.4587 26.7131 26.253 27.5074 27.2292 27.5074C28.2054 27.5074 28.9996 26.7132 28.9996 25.7369Z" fill="#E20613"/>
</svg>
