<svg width="32" height="32" viewBox="0 0 32 32" fill="none" xmlns="http://www.w3.org/2000/svg">
<g clip-path="url(#clip0)">
<path d="M22.9287 15.5422C22.9287 14.4376 23.8241 13.5422 24.9287 13.5422H30.0002C31.1048 13.5422 32.0002 14.4376 32.0002 15.5422V16.1403H22.9287V15.5422Z" fill="#ACB1BF"/>
<path d="M22.9287 24.7912H32.0002V25.7094C32.0002 26.814 31.1048 27.7094 30.0002 27.7094H24.9287C23.8241 27.7094 22.9287 26.814 22.9287 25.7094V24.7912Z" fill="#E20613"/>
<path d="M32.0002 22.9163V18.0156H22.9287V22.9163H32.0002Z" fill="#ACB1BF"/>
<path d="M17.6145 23.843H21.0535V19.9199H0V23.843H11.2766L11.0249 25.7795H9.80273V27.6545H19.0881V25.7795H17.866L17.6145 23.843Z" fill="#E20613"/>
<path d="M21.0535 18.0449V11.6672H28.8909V9.3125C28.8909 6.55108 26.6523 4.3125 23.8909 4.3125H5C2.23858 4.3125 0 6.55108 0 9.3125V18.0449H21.0535Z" fill="#ACB1BF"/>
</g>
<defs>
<clipPath id="clip0">
<rect width="32" height="32" fill="white"/>
</clipPath>
</defs>
</svg>
