<svg width="32" height="32" viewBox="0 0 32 32" fill="none" xmlns="http://www.w3.org/2000/svg">
<g clip-path="url(#clip0)">
<path d="M11.2097 11.0151C14.2466 11.0151 16.7173 8.54443 16.7173 5.50756C16.7173 2.4707 14.2466 0 11.2097 0C8.17284 0 5.70215 2.4707 5.70215 5.50756C5.70215 8.54443 8.17284 11.0151 11.2097 11.0151Z" fill="#ACB1BF"/>
<path d="M20.1729 15.8602C19.4228 13.4049 17.3259 11.5323 14.7471 11.1069L12.1488 14.8061V22.9113H10.2704V14.8062L7.67199 11.1069C4.43006 11.6417 1.94922 14.4638 1.94922 17.855V29.9451H15.2032C14.1596 28.4541 13.5462 26.641 13.5462 24.687C13.5462 20.5087 16.3489 16.9731 20.1729 15.8602ZM8.10686 19.3755H6.02613V17.2948H8.10686V19.3755Z" fill="#ACB1BF"/>
<path d="M22.7378 17.374C21.9459 17.374 21.1832 17.5011 20.4684 17.7349C17.5437 18.692 15.4248 21.4466 15.4248 24.687C15.4248 26.7491 16.283 28.6144 17.6608 29.9451C18.9771 31.2165 20.7676 32 22.7378 32C26.7702 32 30.0508 28.7194 30.0508 24.687C30.0508 20.6546 26.7703 17.374 22.7378 17.374ZM21.9566 27.808L20.47 26.3214L19.2696 25.121L20.47 23.9206L20.5979 23.7928L21.9566 25.1515L24.8778 22.2303L26.2061 23.5585L21.9566 27.808Z" fill="#E20613"/>
</g>
<defs>
<clipPath id="clip0">
<rect width="32" height="32" fill="white"/>
</clipPath>
</defs>
</svg>
