<svg width="32" height="32" viewBox="0 0 32 32" fill="none" xmlns="http://www.w3.org/2000/svg">
<g clip-path="url(#clip0)">
<path d="M24 19.7647C20.6213 19.7647 17.8823 22.5037 17.8823 25.8824C17.8823 29.2611 20.6213 32 24 32C27.3787 32 30.1176 29.2611 30.1176 25.8824C30.1176 22.5037 27.3787 19.7647 24 19.7647ZM23.3345 28.5444L20.6724 25.8824L22.0034 24.5513L23.3344 25.8824L25.9965 23.2203L27.3275 24.5513L23.3345 28.5444Z" fill="#E20613"/>
<path d="M16 25.8823C16 21.3108 19.8539 17.6273 24.4706 17.8966V5C24.4706 2.23858 22.2381 0 19.4767 0C15.7282 0 10.6238 0 6.87635 0C4.11493 0 1.88232 2.23858 1.88232 5V27C1.88232 29.7614 4.1209 32 6.88232 32H18.8512C17.1089 30.5314 16 28.334 16 25.8823ZM7.52938 18.8235H5.64703V16.9412H7.52938V18.8235ZM7.52938 15.0588H5.64703V13.1765H7.52938V15.0588ZM7.52938 11.2941H5.64703V9.41176H7.52938V11.2941ZM7.52938 7.52941H5.64703V5.64706H7.52938V7.52941ZM9.41174 5.64706H20.7059V7.52941C20.1235 7.52941 9.99389 7.52941 9.41174 7.52941C9.41174 6.87109 9.41174 6.30538 9.41174 5.64706ZM9.41174 9.41176H20.7059V11.2941C20.1235 11.2941 9.99389 11.2941 9.41174 11.2941C9.41174 10.6358 9.41174 10.0701 9.41174 9.41176ZM9.41174 13.1765H20.7059V15.0588C20.1235 15.0588 9.99389 15.0588 9.41174 15.0588C9.41174 14.4005 9.41174 13.8348 9.41174 13.1765ZM15.0588 18.8235C14.5017 18.8235 9.96289 18.8235 9.41174 18.8235C9.41174 18.1652 9.41174 17.5995 9.41174 16.9412H15.0588V18.8235Z" fill="#ACB1BF"/>
</g>
<defs>
<clipPath id="clip0">
<rect width="32" height="32" fill="white"/>
</clipPath>
</defs>
</svg>
