<svg width="25" height="24" viewBox="0 0 25 24" fill="none" xmlns="http://www.w3.org/2000/svg">
<path d="M18.5 9H16.5C15.9 9 15.5 9.4 15.5 10C15.5 10.6 15.9 11 16.5 11H18.5C19.1 11 19.5 11.4 19.5 12V19C19.5 19.6 19.1 20 18.5 20H6.5C5.9 20 5.5 19.6 5.5 19V12C5.5 11.4 5.9 11 6.5 11H8.5C9.1 11 9.5 10.6 9.5 10C9.5 9.4 9.1 9 8.5 9H6.5C4.8 9 3.5 10.3 3.5 12V19C3.5 20.7 4.8 22 6.5 22H18.5C20.2 22 21.5 20.7 21.5 19V12C21.5 10.3 20.2 9 18.5 9ZM8.8 14.7L11.8 17.7C12 17.9 12.2 18 12.5 18C12.8 18 13 17.9 13.2 17.7L16.2 14.7C16.6 14.3 16.6 13.7 16.2 13.3C15.8 12.9 15.2 12.9 14.8 13.3L13.5 14.6V3C13.5 2.4 13.1 2 12.5 2C11.9 2 11.5 2.4 11.5 3V14.6L10.2 13.3C9.8 12.9 9.2 12.9 8.8 13.3C8.4 13.7 8.4 14.3 8.8 14.7Z" fill="#373737"/>
</svg>
