<svg width="48" height="48" viewBox="0 0 48 48" fill="none" xmlns="http://www.w3.org/2000/svg">
<path d="M21.5868 26.6991L19.0275 24.1397L17.0381 26.1281L21.5868 30.6759L30.9618 21.3009L28.9725 19.3125L21.5868 26.6991Z" fill="#E20613"/>
<path d="M24 8.4375C15.4191 8.4375 8.4375 15.4191 8.4375 24C8.4375 32.5809 15.4191 39.5625 24 39.5625C32.5809 39.5625 39.5625 32.5809 39.5625 24C39.5625 15.4191 32.5809 8.4375 24 8.4375ZM21.5869 34.6538L13.0613 26.1281L19.0275 20.1619L21.5869 22.7213L28.9725 15.3347L34.9387 21.3009L21.5869 34.6538Z" fill="#E20613"/>
<path d="M40.9706 7.02938C36.4378 2.49656 30.4106 0 24 0C17.5894 0 11.5622 2.49656 7.02938 7.02938C2.49656 11.5622 0 17.5894 0 24C0 30.4106 2.49656 36.4378 7.02938 40.9706C11.5622 45.5034 17.5894 48 24 48C30.4106 48 36.4378 45.5034 40.9706 40.9706C45.5034 36.4378 48 30.4106 48 24C48 17.5894 45.5034 11.5622 40.9706 7.02938ZM24 42.375C13.8684 42.375 5.625 34.1316 5.625 24C5.625 13.8684 13.8684 5.625 24 5.625C34.1316 5.625 42.375 13.8684 42.375 24C42.375 34.1316 34.1316 42.375 24 42.375Z" fill="#ACB1BF"/>
</svg>
