<svg width="24" height="24" viewBox="0 0 24 24" fill="none" xmlns="http://www.w3.org/2000/svg">
<mask id="mask0" mask-type="alpha" maskUnits="userSpaceOnUse" x="6" y="4" width="12" height="16">
<path fill-rule="evenodd" clip-rule="evenodd" d="M6 4H18V20H6V4Z" fill="white"/>
</mask>
<g mask="url(#mask0)">
<path fill-rule="evenodd" clip-rule="evenodd" d="M12.4638 18.4H16.5003V15.0248L14.068 14.3768C13.7343 14.2872 13.5003 13.9672 13.5003 13.6V10.1768L12.7503 9.91036V14.4C12.7503 14.8416 12.4143 15.2 12.0003 15.2H10.9638L12.4638 18.4ZM17.2502 19.9999H12.0002C11.716 19.9999 11.4565 19.8287 11.329 19.5575L9.079 14.7575C8.9635 14.5095 8.9755 14.2151 9.112 13.9799C9.2485 13.7439 9.49 13.5999 9.75025 13.5999H11.2502V8.79992C11.2502 8.54312 11.3657 8.30152 11.5615 8.15112C11.7572 8.00072 12.0085 7.95992 12.2372 8.04072L14.4872 8.84072C14.7932 8.94952 15.0002 9.25512 15.0002 9.59992V12.9751L17.4325 13.6239C17.7655 13.7127 18.0002 14.0319 18.0002 14.3999V19.1999C18.0002 19.6415 17.6642 19.9999 17.2502 19.9999Z" fill="#373737"/>
</g>
<path fill-rule="evenodd" clip-rule="evenodd" d="M16.5 4H7.5C6.67275 4 6 4.7184 6 5.6V11.2C6 12.0816 6.67275 12.8 7.5 12.8H9.75V11.2H7.5V5.6H16.5V11.2H18V5.6C18 4.7184 17.3273 4 16.5 4Z" fill="#373737"/>
</svg>
